<?xml version="1.0" standalone="no"?>
<!DOCTYPE svg PUBLIC "-//W3C//DTD SVG 1.1//EN" "http://www.w3.org/Graphics/SVG/1.1/DTD/svg11.dtd" >
<svg xmlns="http://www.w3.org/2000/svg" xmlns:xlink="http://www.w3.org/1999/xlink" version="1.1">
<metadata>
Created by FontForge 20190112 at Mon Jun 17 11:12:24 2013
 By David Mongeau-Petitpas
Copyright (c) 2012 by Dieter Hofrichter. All rights reserved.
</metadata>
<defs>
<font id="SinaNovaIta" horiz-adv-x="344" >
  <font-face 
    font-family="SinaNovaIta"
    font-weight="400"
    font-stretch="normal"
    units-per-em="1000"
    panose-1="0 0 0 0 0 0 0 0 0 0"
    ascent="729"
    descent="-271"
    x-height="417"
    cap-height="644"
    bbox="-144 -276 1123 970"
    underline-thickness="0"
    underline-position="0"
    unicode-range="U+0020-FB06"
  />
<missing-glyph horiz-adv-x="299" 
 />
    <glyph glyph-name="f_f" unicode="ff" horiz-adv-x="545" 
d="M190 360l-66 -332q-22 -110 -54 -174q-64 -122 -169 -122q-44 0 -44 28q0 20 14 45q23 -7 47 -7q46 0 70 22.5t41 85.5q15 54 35 165l53 289q-49 3 -69 7l6 33q10 2 27.5 5t25.5 5q19 5 23 26q21 110 52 162q30 50 81.5 80.5t102.5 30.5q41 0 59 -9q15 -7 15 -24
q0 -19 -20 -52q-35 23 -81 23q-66 0 -95 -62q-22 -45 -40 -150l-5 -26h108q47 0 63 5q18 5 23 27q18 82 28.5 115.5t27.5 61.5q33 52 83 82.5t106 30.5q44 0 64 -10q16 -6 16 -23q0 -19 -23 -55q-41 23 -90 23q-65 0 -97 -62q-16 -33 -35 -129l-13 -64q74 0 112 -8l-7 -36
q-21 -4 -113 -7l-61 -311q-20 -106 -55 -173q-28 -55 -73.5 -88t-100.5 -33q-43 0 -43 27q0 23 13 45q24 -8 45 -8q48 0 74.5 23t43.5 85q11 40 34 165l49 268h-188z" />
    <glyph glyph-name="fi" unicode="fi" horiz-adv-x="508" 
d="M190 360l-67 -332q-23 -111 -54 -174q-63 -122 -169 -122q-44 0 -44 28q0 17 13 45q23 -7 49 -7q46 0 69.5 23t40.5 85q18 71 34 162l55 292q-49 3 -69 7l6 33q28 7 52 10q19 2 24 26q29 129 59 182q30 52 81 82.5t107 30.5q54 0 90 -18q19 -11 19 -29q0 -20 -27 -60
q-55 46 -112 46q-65 0 -96 -64q-29 -61 -43 -145l-9 -52h83q51 0 75 4q13 2 35.5 6.5t32.5 4.5q28 0 28 -27q0 -17 -15 -80l-40 -167q-15 -66 -15 -81t13 -15q17 0 75 25l12 -26q-39 -30 -78 -46t-62 -16q-35 0 -35 34q0 25 18 102l33 143q12 58 12 72q0 12 -18 15
q-27 3 -66 3h-97z" />
    <glyph glyph-name="fl" unicode="fl" horiz-adv-x="512" 
d="M190 360l-65 -329q-22 -113 -56 -178q-67 -121 -169 -121q-43 0 -43 28q0 21 14 45q23 -7 47 -7q46 0 70 22.5t41 85.5q14 50 35 165l53 289q-49 3 -69 7l6 33q7 1 24.5 4.5t28.5 6.5q20 6 23 25q23 123 59 182q32 51 83 82t107 31q37 0 69 -13q23 9 49 9q22 0 22 -24
q0 -22 -19 -106q-6 -28 -22 -97t-35.5 -155t-43.5 -193q-16 -72 -16 -85q0 -14 13 -14q22 0 75 25l12 -25q-39 -30 -77 -46t-61 -16q-37 0 -37 34q0 16 18 102l95 441q9 45 9 58q0 15 -6 21q-21 25 -77 25q-67 0 -100 -69q-20 -44 -39 -145l-8 -47q65 0 108 -8l-8 -36
q-22 -4 -110 -7z" />
    <glyph glyph-name="f_f_i" unicode="ffi" horiz-adv-x="771" 
d="M190 360l-66 -332q-22 -110 -54 -174q-62 -122 -169 -122q-44 0 -44 28q0 20 14 45q23 -7 47 -7q46 0 69.5 22.5t41.5 85.5q15 54 35 165l53 289q-49 3 -69 7l6 33q10 2 27.5 5t25.5 5q20 5 23 26q19 107 52 162q30 50 81.5 80.5t102.5 30.5q41 0 59 -9q15 -7 15 -24
q0 -19 -20 -52q-35 23 -81 23q-66 0 -95 -62q-24 -48 -41 -150l-4 -26h108q49 0 66 5q16 6 21 27q31 130 58 177q30 52 80.5 82.5t109.5 30.5q55 0 88 -18q19 -11 19 -29q0 -20 -27 -60q-55 46 -112 46q-65 0 -96 -64q-29 -61 -43 -145l-9 -52h83q51 0 76 4q13 2 35 6.5
t32 4.5q28 0 28 -27q0 -21 -14 -80l-41 -167q-15 -66 -15 -81t14 -15q16 0 74 25l12 -26q-39 -30 -78 -46t-62 -16q-35 0 -35 34q0 22 18 102l33 143q12 58 12 72q0 12 -18 15q-27 3 -66 3h-97l-62 -311q-22 -108 -54 -173q-28 -55 -74 -88t-100 -33q-43 0 -43 27
q0 22 12 45q26 -8 45 -8q48 0 74.5 23t43.5 85q11 40 34 165l49 268h-188z" />
    <glyph glyph-name="f_f_l" unicode="ffl" horiz-adv-x="773" 
d="M190 360l-66 -332q-22 -110 -54 -174q-62 -122 -169 -122q-44 0 -44 28q0 20 14 45q23 -7 47 -7q46 0 69.5 22.5t41.5 85.5q15 54 35 165l53 289q-49 3 -69 7l6 33q10 2 27.5 5t25.5 5q20 5 23 26q19 107 52 162q30 50 81.5 80.5t102.5 30.5q41 0 59 -9q15 -7 15 -24
q0 -19 -20 -52q-35 23 -81 23q-66 0 -95 -62q-24 -48 -41 -150l-4 -26h108q47 0 63 5q19 5 23 24q32 142 55 180q31 52 83.5 82.5t108.5 30.5q36 0 69 -13q24 9 49 9q22 0 22 -24q0 -22 -19 -106q-2 -10 -35 -156t-66 -289q-16 -72 -16 -85q0 -14 13 -14q22 0 76 25l12 -25
q-39 -30 -77.5 -46t-61.5 -16q-37 0 -37 34q0 11 19 102l94 441q9 45 9 57q0 15 -5 22q-20 25 -78 25q-67 0 -99 -69q-22 -48 -40 -145l-9 -47q67 0 110 -8l-6 -36q-22 -4 -112 -7l-61 -311q-20 -106 -55 -173q-28 -55 -73.5 -88t-100.5 -33q-43 0 -43 27q0 23 13 45
q24 -8 45 -8q47 0 74 23t44 85q11 40 34 165l49 268h-188z" />
    <glyph glyph-name="T_h" unicode="Th" horiz-adv-x="951" 
d="M380 -1q-70 2 -137 2q-44 0 -122 -2l6 36q70 5 83 21q9 11 17 60l89 482q-122 0 -147 -14q-14 -8 -26.5 -31t-39.5 -85l-35 3q29 133 32 144q8 28 36 28h393q77 0 101 10q27 9 53 36q26 28 47 28q18 0 18 -19q0 -10 -3 -22q-1 -6 -35 -151t-38 -164q92 68 168 68
q71 0 71 -110q0 -55 -24 -140t-62 -130q-48 -58 -116 -58q-32 0 -32 24q0 21 12 43q18 -6 36 -6q40 0 62 26t36 99.5t14 124.5q0 62 -43 62q-66 0 -129 -40l-74 -327l-63 7l128 594h-262l-88 -481q-7 -35 -7 -50q0 -17 17 -22q23 -6 70 -10z" />
    <glyph glyph-name="Tcaron_h" unicode="&#x164;h" horiz-adv-x="951" 
d="M380 -1q-70 2 -137 2q-44 0 -122 -2l6 36q70 5 83 21q9 11 17 60l89 482q-122 0 -147 -14q-14 -8 -26.5 -31t-39.5 -85l-35 3q29 133 32 144q8 28 36 28h393q77 0 101 10q27 9 53 36q26 28 47 28q18 0 18 -19q0 -10 -3 -22q-1 -6 -35 -151t-38 -164q92 68 168 68
q71 0 71 -110q0 -55 -24 -140t-62 -130q-48 -58 -116 -58q-32 0 -32 24q0 21 12 43q18 -6 36 -6q40 0 62 26t36 99.5t14 124.5q0 62 -43 62q-66 0 -129 -40l-74 -327l-63 7l128 594h-262l-88 -481q-7 -35 -7 -50q0 -17 17 -22q23 -6 70 -10zM250 837l26 20l103 -86l132 86
l19 -24l-134 -127q-19 -19 -31 -19q-16 0 -28 19z" />
    <glyph glyph-name="f_b" unicode="fb" horiz-adv-x="729" 
d="M190 360l-65 -329q-22 -115 -56 -178q-64 -121 -169 -121q-43 0 -43 28q0 21 14 45q23 -7 47 -7q46 0 70 22.5t41 85.5q14 50 35 165l53 289q-49 3 -69 7l6 33q8 2 25 4.5t28 5.5q20 6 23 26q23 123 59 182q32 51 83 82t107 31q33 0 66 -13q23 9 49 9q22 0 22 -24
q0 -19 -19 -106q-5 -21 -29 -123.5t-26 -109.5q91 67 166 67q41 0 62.5 -27t21.5 -77q0 -58 -21.5 -123t-55.5 -116q-31 -45 -77.5 -72t-95.5 -27q-121 0 -121 94q0 39 15 106l83 381q8 35 8 56q0 15 -6 21q-21 25 -74 25q-67 0 -100 -69q-20 -44 -39 -145l-8 -47
q65 0 108 -8l-8 -36q-22 -4 -110 -7zM434 325l-34 -153q-10 -47 -10 -74q0 -60 68 -60q62 0 99 59q27 43 43.5 107t16.5 101q0 66 -50 66q-60 0 -133 -46z" />
    <glyph glyph-name="f_f_b" unicode="ffb" horiz-adv-x="991" 
d="M190 360l-66 -333q-22 -108 -54 -173q-62 -122 -169 -122q-44 0 -44 28q0 20 14 45q23 -7 47 -7q46 0 69.5 22.5t41.5 85.5q15 54 35 165l53 289q-49 3 -69 7l6 33q10 2 27.5 5t25.5 5q20 5 24 30q19 104 51 158q30 50 81.5 80.5t102.5 30.5q41 0 59 -9q15 -7 15 -24
q0 -19 -20 -52q-35 23 -81 23q-66 0 -95 -62q-24 -48 -41 -150l-4 -26h108q47 0 63 5q18 5 23 27q29 134 57 177q32 51 83.5 82t107.5 31q33 0 66 -13q24 9 49 9q22 0 22 -24q0 -22 -19 -106q-2 -10 -9.5 -42t-20 -84.5t-24.5 -106.5q91 67 165 67q41 0 62.5 -27t21.5 -77
q0 -58 -21.5 -123t-55.5 -116q-30 -45 -76.5 -72t-95.5 -27q-122 0 -122 94q0 39 15 106l83 381q8 35 8 56q0 16 -6 23q-18 23 -74 23q-67 0 -100 -69q-20 -44 -39 -145l-9 -47q66 0 109 -8l-7 -36q-22 -4 -111 -7l-61 -311q-20 -106 -55 -173q-28 -55 -73.5 -88t-100.5 -33
q-43 0 -43 27q0 23 13 45q24 -8 45 -8q47 0 74 23t44 85q12 44 34 165l49 268h-188zM697 325l-34 -153q-11 -45 -11 -74q0 -60 69 -60q61 0 98 59q27 43 43.5 107t16.5 101q0 66 -49 66q-60 0 -133 -46z" />
    <glyph glyph-name="f_f_h" unicode="ffh" horiz-adv-x="985" 
d="M190 360l-66 -332q-22 -110 -54 -174q-62 -122 -169 -122q-44 0 -44 28q0 20 14 45q23 -7 47 -7q46 0 69.5 22.5t41.5 85.5q15 54 35 165l53 289q-49 3 -69 7l6 33q10 2 27.5 5t25.5 5q20 5 23 26q19 107 52 162q30 50 81.5 80.5t102.5 30.5q41 0 59 -9q15 -7 15 -24
q0 -19 -20 -52q-35 23 -81 23q-66 0 -95 -62q-24 -48 -41 -150l-4 -26h108q47 0 63 5q19 5 23 24q33 144 55 180q31 52 83.5 82.5t108.5 30.5q36 0 69 -13q24 9 49 9q22 0 22 -24q0 -22 -19 -106q-1 -7 -54 -236q93 68 167 68q72 0 72 -109q0 -55 -24 -140t-62 -130
q-48 -59 -115 -59q-33 0 -33 24q0 21 12 43q20 -6 37 -6q41 0 61 26q22 27 36 100t14 123q0 63 -43 63q-64 0 -129 -40l-74 -327l-63 7l119 564q9 45 9 57q0 15 -5 22q-20 25 -78 25q-67 0 -99 -69q-22 -48 -40 -145l-9 -47q67 0 110 -8l-6 -36q-22 -4 -112 -7l-61 -311
q-20 -106 -55 -173q-28 -55 -73.5 -88t-100.5 -33q-43 0 -43 27q0 23 13 45q24 -8 45 -8q47 0 74 23t44 85q11 40 34 165l49 268h-188z" />
    <glyph glyph-name="f_f_j" unicode="ffj" horiz-adv-x="771" 
d="M190 360l-66 -332q-22 -110 -54 -174q-62 -122 -169 -122q-44 0 -44 28q0 20 14 45q23 -7 47 -7q46 0 69.5 22.5t41.5 85.5q15 54 35 165l53 289q-49 3 -69 7l6 33q28 7 52 10q19 2 24 27q23 112 52 161q30 50 81.5 80.5t102.5 30.5q38 0 59 -9q15 -7 15 -24
q0 -19 -20 -52q-35 23 -81 23q-66 0 -95 -62q-24 -48 -41 -150l-4 -26h108q49 0 65 5t21 27q25 117 59 177q30 52 80.5 82.5t109.5 30.5q55 0 88 -18q19 -11 19 -29q0 -20 -27 -60q-55 46 -112 46q-65 0 -96 -64q-29 -61 -43 -145l-9 -52h83q51 0 76 4q13 2 35 6.5t32 4.5
q28 0 28 -27q0 -22 -13 -82l-58 -267q-21 -100 -55 -163q-64 -117 -162 -117q-50 0 -50 29q0 18 13 43q23 -9 56 -9q42 0 63.5 24.5t39.5 79.5q12 39 38 165l34 166q12 58 12 76q0 12 -18 15q-27 3 -66 3h-97l-62 -311q-22 -110 -55 -173q-28 -55 -73.5 -88t-100.5 -33
q-43 0 -43 27q0 23 13 45q24 -8 45 -8q47 0 74 23t44 85q11 40 34 165l49 268h-188z" />
    <glyph glyph-name="f_f_k" unicode="ffk" horiz-adv-x="992" 
d="M190 360l-66 -332q-22 -110 -54 -174q-62 -122 -169 -122q-44 0 -44 28q0 20 14 45q23 -7 47 -7q46 0 69.5 22.5t41.5 85.5q15 54 35 165l53 289q-49 3 -69 7l6 33q10 2 27.5 5t25.5 5q19 5 23 26q23 113 52 162q30 50 81.5 80.5t102.5 30.5q41 0 59 -9q15 -7 15 -24
q0 -19 -20 -52q-35 23 -81 23q-66 0 -95 -62q-24 -48 -41 -150l-4 -26h108q47 0 63 5q17 5 23 26q34 143 55 178q31 52 83.5 82.5t108.5 30.5q36 0 69 -13q24 9 49 9q22 0 22 -24q0 -30 -19 -106q-55 -230 -134 -600l-65 7l120 564q9 45 9 57q0 15 -5 22q-20 25 -78 25
q-67 0 -99 -69q-22 -48 -40 -145l-9 -47q67 0 110 -8l-6 -36q-22 -4 -112 -7l-61 -311q-20 -106 -55 -173q-28 -55 -73.5 -88t-100.5 -33q-43 0 -43 27q0 23 13 45q24 -8 45 -8q47 0 74 23t44 85q11 40 34 165l49 268h-188zM979 46q-75 -56 -120 -56q-38 0 -57 34
q-56 95 -98 239q40 49 102 102q72 65 126 65q42 0 42 -26q0 -22 -19 -54q-15 5 -28 5q-75 0 -162 -82q36 -104 83 -185q24 -39 44 -39q28 0 74 22z" />
    <glyph glyph-name="f_h" unicode="fh" horiz-adv-x="724" 
d="M190 360l-65 -329q-22 -113 -56 -178q-67 -121 -169 -121q-43 0 -43 28q0 21 14 45q23 -7 47 -7q46 0 70 22.5t41 85.5q14 50 35 165l53 289q-49 3 -69 7l6 33q8 2 25 4.5t28 5.5q20 6 23 26q23 123 59 182q32 51 83 82t107 31q37 0 69 -13q23 9 49 9q22 0 22 -24
q0 -9 -19 -106q-1 -7 -8 -37.5t-21.5 -92.5t-24.5 -106q93 68 167 68q72 0 72 -109q0 -55 -24 -140t-62 -130q-49 -59 -116 -59q-33 0 -33 24q0 22 13 43q20 -6 37 -6q39 0 61 26q22 27 35.5 99.5t13.5 123.5q0 63 -42 63q-65 0 -130 -40l-73 -327l-64 7l120 564q9 39 9 58
q0 15 -6 21q-21 25 -77 25q-67 0 -100 -69q-20 -44 -39 -145l-8 -47q65 0 108 -8l-8 -36q-22 -4 -110 -7z" />
    <glyph glyph-name="f_j" unicode="fj" horiz-adv-x="508" 
d="M190 360l-67 -332q-23 -111 -54 -174q-62 -122 -169 -122q-44 0 -44 28q1 20 13 45q23 -7 49 -7q46 0 70 23.5t40 85.5q18 74 34 161l55 292q-49 3 -69 7l6 33q29 7 51 10q20 2 25 26q33 137 59 182q30 52 81 82.5t107 30.5q54 0 90 -18q19 -11 19 -29q0 -20 -27 -60
q-55 46 -112 46q-65 0 -96 -64q-29 -61 -43 -145l-9 -52h83q51 0 75 4q13 2 35.5 6.5t32.5 4.5q28 0 28 -27q0 -22 -13 -82l-63 -287q-21 -100 -55 -163q-29 -53 -71 -85t-92 -32q-19 0 -34 7.5t-15 21.5q0 18 13 43q22 -9 55 -9q41 0 63.5 25t40.5 79q11 36 38 167l39 184
q12 58 12 76q0 12 -18 15q-27 3 -66 3h-97z" />
    <glyph glyph-name="f_k" unicode="fk" horiz-adv-x="731" 
d="M190 360l-65 -329q-22 -115 -56 -178q-64 -121 -169 -121q-43 0 -43 28q0 21 14 45q23 -7 47 -7q46 0 70 22.5t41 85.5q14 50 35 165l53 289q-49 3 -69 7l6 33q10 2 27 5t25 5q20 4 24 26q23 123 59 182q32 51 83 82t107 31q37 0 69 -13q23 9 49 9q22 0 22 -24
q0 -22 -19 -106q-89 -399 -135 -600l-64 7l120 564q9 39 9 58q0 14 -6 21q-18 25 -77 25q-67 0 -100 -69q-20 -44 -39 -145l-8 -47q65 0 108 -8l-8 -36q-22 -4 -110 -7zM717 46q-74 -56 -119 -56q-38 0 -57 34q-56 95 -98 239q35 44 102 102q72 65 126 65q41 0 41 -26
q0 -24 -18 -54q-15 5 -28 5q-75 0 -162 -82q37 -108 82 -185q24 -39 45 -39q28 0 74 22z" />
    <glyph glyph-name="uni0162_h" unicode="&#x162;h" horiz-adv-x="951" 
d="M146 -270l-7 38q113 30 114 76q0 27 -38 50q-18 11 -18 27q0 21 33 80q-41 0 -109 -2l6 36q70 5 83 21q9 11 17 60l89 482q-122 0 -147 -14q-14 -8 -26.5 -31t-39.5 -85l-35 3q17 86 33 144q8 28 35 28h393q77 0 101 10q27 9 53 36q26 28 47 28q18 0 18 -19q0 -10 -3 -22
q-1 -6 -35 -151t-38 -164q92 68 168 68q71 0 71 -110q0 -55 -24 -140t-62 -130q-48 -58 -116 -58q-32 0 -32 24q0 21 12 43q18 -6 36 -6q40 0 62 26t36 99.5t14 124.5q0 62 -43 62q-66 0 -129 -40l-74 -327l-63 7l127 594h-261l-88 -481q-7 -35 -7 -50q0 -17 17 -22
q23 -6 70 -10l-6 -36q-14 1 -55 1.5t-57 0.5q-20 -37 -20 -50q0 -12 14 -20q56 -31 56 -70q0 -54 -50 -85.5t-122 -45.5z" />
    <glyph glyph-name="uni021A_h" unicode="&#x21a;h" horiz-adv-x="951" 
d="M380 -1q-70 2 -137 2q-44 0 -122 -2l6 36q70 5 83 21q9 11 17 60l89 482q-122 0 -147 -14q-14 -8 -26.5 -31t-39.5 -85l-35 3q29 133 32 144q8 28 36 28h393q77 0 101 10q27 9 53 36q26 28 47 28q18 0 18 -19q0 -10 -3 -22q-1 -6 -35 -151t-38 -164q92 68 168 68
q71 0 71 -110q0 -55 -24 -140t-62 -130q-48 -58 -116 -58q-32 0 -32 24q0 21 12 43q18 -6 36 -6q40 0 62 26t36 99.5t14 124.5q0 62 -43 62q-66 0 -129 -40l-74 -327l-63 7l128 594h-262l-88 -481q-7 -35 -7 -50q0 -17 17 -22q23 -6 70 -10zM161 -274l-18 26q76 48 78 94
q0 13 -8.5 29.5t-8.5 28.5q0 17 12 28t31 11q46 0 46 -54q-1 -85 -132 -163z" />
    <glyph glyph-name=".notdef" horiz-adv-x="299" 
 />
    <glyph glyph-name=".null" horiz-adv-x="0" 
 />
    <glyph glyph-name="nonmarkingreturn" horiz-adv-x="333" 
 />
    <glyph glyph-name="space" unicode=" " horiz-adv-x="214" 
 />
    <glyph glyph-name="exclam" unicode="!" horiz-adv-x="285" 
d="M164 200h-40q49 401 53 422q6 27 17.5 39t36.5 12q42 0 42 -39q0 -22 -9 -60q-7 -29 -40.5 -152t-59.5 -222zM173 50q-1 -27 -17 -43.5t-42 -16.5q-24 0 -37.5 15t-13.5 39q1 25 16.5 42.5t40.5 17.5t39 -14.5t14 -39.5z" />
    <glyph glyph-name="quotedbl" unicode="&#x22;" horiz-adv-x="286" 
d="M117 414h-35q15 199 19 219q8 43 49 43q33 0 33 -34q0 -4 -0.5 -8t-1.5 -10t-2.5 -12t-5 -16.5t-6.5 -21t-8.5 -28t-11 -34.5t-14 -44.5t-16.5 -53.5zM254 414h-34q16 204 19 219q10 43 49 43q33 0 33 -34q0 -4 -0.5 -8t-1.5 -10t-2.5 -12t-5 -16.5t-6.5 -21t-9 -28.5
t-11 -34.5t-14 -44t-17 -53.5z" />
    <glyph glyph-name="numbersign" unicode="#" horiz-adv-x="533" 
d="M128 -12h-41l64 210h-99l6 71h114l34 108h-95l8 72h108l57 188h43l-58 -188h109l59 188h41l-58 -188h97l-6 -72h-113l-33 -108h93l-7 -71h-107l-64 -210h-43l65 210h-109zM214 269h109l34 108h-109z" />
    <glyph glyph-name="dollar" unicode="$" horiz-adv-x="495" 
d="M219 -109h-41l18 103q-59 2 -100 19.5t-59 40.5q-9 13 -9 30q1 19 36 57q14 -32 49.5 -62t91.5 -36l44 236l-30 21q-55 38 -75.5 75t-20.5 83q0 74 53.5 116.5t135.5 48.5l19 103h42l-19 -102q80 -5 116 -32q12 -10 12 -26q-2 -23 -33 -60q-14 23 -43 42.5t-63 24.5
l-42 -231l16 -11q65 -45 90 -81.5t25 -82.5q0 -74 -55 -119.5t-141 -52.5zM194 479q0 -32 16 -56.5t55 -53.5l36 206q-48 -2 -77.5 -26t-29.5 -70zM359 143q0 19 -3 31t-20 33t-51 46l-40 -209q49 3 81.5 28t32.5 71z" />
    <glyph glyph-name="percent" unicode="%" horiz-adv-x="791" 
d="M354 486q0 -107 -57 -187q-50 -67 -119 -67q-60 0 -93 40.5t-33 112.5q0 107 55 182q49 68 124 68q61 0 92 -39t31 -110zM296 500q0 100 -67 100q-53 0 -84 -61q-36 -75 -36 -166q0 -105 71 -105q49 0 76 56q17 35 28.5 89t11.5 87zM265 -4h-47l336 640h46zM765 245
q0 -108 -58 -187q-49 -67 -119 -67q-60 0 -93 40.5t-33 112.5q0 106 56 182q49 68 123 68q61 0 92.5 -39t31.5 -110zM706 259q0 100 -67 100q-53 0 -83 -61q-37 -74 -37 -166q0 -105 71 -105q50 0 77 56q17 34 28 88.5t11 87.5z" />
    <glyph glyph-name="ampersand" unicode="&#x26;" horiz-adv-x="657" 
d="M612 -15l-24 -35q-93 43 -157 104q-87 -66 -189 -66q-87 0 -139 46t-52 122q0 74 42 119t129 83q-32 60 -32 125q0 71 47 122.5t136 51.5q60 0 95.5 -32.5t35.5 -83.5q0 -63 -46.5 -106.5t-140.5 -82.5q56 -108 142 -208q79 77 90 180q27 -1 43 -11t16 -26q0 -27 -24 -68
q-42 -71 -91 -113q40 -52 119 -121zM296 392q78 32 112 65t34 77q0 33 -19 55.5t-54 22.5q-55 0 -79.5 -32.5t-25.5 -80.5q0 -50 32 -107zM243 316q-59 -30 -84.5 -64t-25.5 -80q0 -51 30 -90t96 -39q74 0 138 49q-92 104 -154 224z" />
    <glyph glyph-name="quotesingle" unicode="'" horiz-adv-x="147" 
d="M117 414h-35q15 201 19 220q8 42 49 42q33 0 33 -34q0 -4 -0.5 -8t-1.5 -10t-2.5 -12t-5 -16.5t-6.5 -21t-8.5 -28t-11 -34.5t-14 -44.5t-16.5 -53.5z" />
    <glyph glyph-name="parenleft" unicode="(" horiz-adv-x="296" 
d="M216 -161l-26 -23q-145 164 -145 394q0 297 308 529l23 -27q-62 -62 -102.5 -110t-79.5 -111t-57.5 -133t-18.5 -151q0 -108 26 -194.5t72 -173.5z" />
    <glyph glyph-name="parenright" unicode=")" horiz-adv-x="296" 
d="M99 715l27 24q144 -163 144 -393q0 -299 -306 -529l-22 26q62 63 101.5 111t78.5 111t57.5 133t18.5 150q0 189 -99 367z" />
    <glyph glyph-name="asterisk" unicode="*" horiz-adv-x="393" 
d="M266 509q91 41 113 41q34 0 34 -35q0 -36 -39 -36q-22 0 -108 6q45 -53 60.5 -76t15.5 -38q0 -16 -10.5 -24.5t-24.5 -8.5q-23 0 -32 20t-23 87q-4 19 -6 30q-39 -70 -56.5 -91.5t-33.5 -21.5q-14 0 -26 10.5t-12 27.5q0 16 21.5 34t92.5 57q-28 7 -93 26q-38 12 -38 36
q0 16 8.5 29t26.5 13q12 0 29 -13t58 -50q2 -2 3.5 -3t3.5 -3l3.5 -3.5t3.5 -3t3.5 -3l3.5 -3.5q-7 68 -7 98q0 51 34 51q35 0 35 -31q-1 -28 -40 -122z" />
    <glyph glyph-name="plus" unicode="+" horiz-adv-x="551" 
d="M263 61h-56l47 204h-192l13 59h192l47 203h57l-48 -203h191l-13 -59h-191z" />
    <glyph glyph-name="comma" unicode="," horiz-adv-x="210" 
d="M-35 -170l-22 32q98 64 98 118q0 14 -12 35t-12 36q1 23 15 36.5t36 13.5q29 0 43.5 -18.5t14.5 -48.5q0 -108 -161 -204z" />
    <glyph glyph-name="hyphen" unicode="-" horiz-adv-x="277" 
d="M257 265l-10 -64h-214l11 64h213z" />
    <glyph glyph-name="period" unicode="." horiz-adv-x="210" 
d="M139 50q-1 -27 -17.5 -43.5t-41.5 -16.5q-24 0 -38 15t-14 39q0 25 16 42.5t41 17.5t39.5 -14t14.5 -40z" />
    <glyph glyph-name="slash" unicode="/" horiz-adv-x="324" 
d="M376 687l-349 -757h-52l347 757h54z" />
    <glyph glyph-name="zero" unicode="0" horiz-adv-x="495" 
d="M485 405q0 -74 -25 -167t-73 -155q-74 -96 -176 -96q-84 0 -128 63t-44 170q0 83 26.5 172.5t74.5 149.5q77 94 179 94q166 0 166 -231zM407 422q0 36 -4 63t-14 52t-30 38t-50 13q-71 0 -117 -77q-35 -58 -56 -144t-21 -161q0 -173 106 -173q38 0 65 21.5t52 67.5
q32 60 50.5 146t18.5 154z" />
    <glyph glyph-name="one" unicode="1" horiz-adv-x="495" 
d="M349 -1q-72 2 -132 2q-41 0 -127 -2l8 36q74 7 83 17q11 12 20 60l48 265q19 107 19 130q0 15 -4.5 20.5t-16.5 5.5q-23 0 -67 -7l-6 31q116 51 184 84l15 -13q-25 -113 -50 -246l-48 -266q-7 -38 -7 -49q0 -19 18 -23q17 -4 71 -9z" />
    <glyph glyph-name="two" unicode="2" horiz-adv-x="495" 
d="M411 0h-423l11 49q198 138 286.5 229.5t88.5 186.5q0 52 -25 79.5t-84 27.5q-32 0 -72.5 -16t-75.5 -48l-26 36q99 92 211 92q71 0 112.5 -40t41.5 -111q0 -60 -25 -116t-75 -107t-108.5 -95.5t-142.5 -95.5q92 2 320 2z" />
    <glyph glyph-name="three" unicode="3" horiz-adv-x="495" 
d="M289 349q138 -6 138 -120q0 -62 -39.5 -115t-98 -84t-118.5 -48t-107 -17q-39 0 -39 38q0 16 3 25q318 2 318 185q0 95 -119 95q-45 0 -79 -6l3 45q61 10 87 21q60 23 90 53.5t30 78.5q0 32 -19 55t-62 23q-62 0 -142 -58l-22 39q102 77 197 77q63 0 93.5 -34t30.5 -86
q0 -111 -145 -167z" />
    <glyph glyph-name="four" unicode="4" horiz-adv-x="495" 
d="M345 -27h-72l34 182h-282l8 38l374 438h59q-9 -42 -76 -411h89l-11 -64h-90zM318 217q48 253 63 318l-264 -318h201z" />
    <glyph glyph-name="five" unicode="5" horiz-adv-x="495" 
d="M179 407q244 -18 244 -175q0 -52 -24.5 -97.5t-63 -76t-85.5 -52.5t-93 -32t-85 -10q-45 0 -45 40q0 17 2 23q68 0 120 7.5t97.5 26.5t70 56.5t24.5 91.5q0 128 -231 139l101 274h285l-23 -70h-240z" />
    <glyph glyph-name="six" unicode="6" horiz-adv-x="495" 
d="M148 321q24 29 65.5 47t87.5 18q77 0 117.5 -50.5t40.5 -117.5q0 -101 -59.5 -166t-159.5 -65q-89 0 -137.5 59t-48.5 153t34.5 174.5t94 137t133 96t158.5 60.5l12 -40q-137 -47 -218.5 -116.5t-119.5 -189.5zM136 259q-8 -40 -8 -66q1 -69 30 -114.5t87 -45.5
q68 0 103 47.5t35 126.5q0 55 -27.5 90t-82.5 35q-43 0 -81 -21.5t-56 -51.5z" />
    <glyph glyph-name="seven" unicode="7" horiz-adv-x="495" 
d="M419 549h-341l14 73h402l7 -21l-383 -640l-51 24z" />
    <glyph glyph-name="eight" unicode="8" horiz-adv-x="495" 
d="M206 326q-80 65 -80 148q1 72 52.5 117t134.5 45q79 0 120.5 -39t41.5 -99q0 -104 -144 -167q101 -71 101 -165q0 -78 -59 -129t-148 -51q-86 0 -134 46t-48 114q0 123 163 180zM232 302q-60 -29 -90.5 -64t-30.5 -89q0 -51 30 -84.5t84 -33.5q57 0 92.5 31.5t35.5 82.5
q0 46 -28 82t-93 75zM298 356q111 57 111 136q0 44 -24.5 73t-74.5 29q-52 0 -80.5 -29t-29.5 -77q0 -70 98 -132z" />
    <glyph glyph-name="nine" unicode="9" horiz-adv-x="495" 
d="M385 300q-25 -27 -67 -45t-88 -18q-76 0 -117 50t-41 117q0 101 61.5 166.5t160.5 65.5q90 0 137.5 -59.5t47.5 -154.5q0 -93 -34.5 -173t-94 -137t-133.5 -96.5t-160 -60.5l-12 42q137 47 218.5 115.5t121.5 187.5zM396 364q8 44 8 64q-2 69 -29.5 113.5t-85.5 44.5
q-68 0 -103.5 -48t-35.5 -123q0 -54 26.5 -88.5t81.5 -34.5q44 0 81.5 21t56.5 51z" />
    <glyph glyph-name="colon" unicode=":" horiz-adv-x="233" 
d="M162 51q0 -27 -16 -44t-42 -17q-24 0 -38 15t-14 39q2 25 18 42.5t40 17.5q25 0 38.5 -14.5t13.5 -38.5zM222 350q-2 -27 -18.5 -43.5t-42.5 -16.5q-22 0 -36.5 15.5t-14.5 38.5q1 25 17 42.5t41 17.5t39.5 -14.5t14.5 -39.5z" />
    <glyph glyph-name="semicolon" unicode=";" horiz-adv-x="233" 
d="M5 -170l-20 33q97 63 97 117q0 15 -11.5 35.5t-11.5 35.5q0 22 14.5 36t36.5 14q29 0 43.5 -18.5t14.5 -48.5q0 -106 -163 -204zM222 349q-1 -27 -18 -43t-43 -16q-22 0 -36.5 15.5t-14.5 38.5q1 25 17 42.5t41 17.5t39.5 -15.5t14.5 -39.5z" />
    <glyph glyph-name="less" unicode="&#x3c;" horiz-adv-x="551" 
d="M417 67l-323 192l16 63l410 194l-16 -73l-344 -157l273 -155z" />
    <glyph glyph-name="equal" unicode="=" horiz-adv-x="551" 
d="M477 183h-423l14 60h422zM514 347h-421l11 60h423z" />
    <glyph glyph-name="greater" unicode="&#x3e;" horiz-adv-x="551" 
d="M170 516l320 -191l-13 -63l-410 -195l16 73l344 157l-271 154z" />
    <glyph glyph-name="question" unicode="?" horiz-adv-x="382" 
d="M153 196h-38q12 106 18 124q8 23 21.5 34t39.5 21q36 14 52.5 21.5t35.5 22t25.5 33t6.5 46.5q0 44 -33 72.5t-110 28.5q-32 0 -53 -4q4 47 17 63q12 15 43 15q77 0 141 -49.5t64 -125.5q0 -62 -38.5 -105.5t-130.5 -80.5q-31 -12 -41 -40q-2 -7 -8.5 -32t-11.5 -44z
M172 50q-1 -27 -17 -43.5t-42 -16.5q-24 0 -37.5 15t-13.5 39q0 25 16 42.5t41 17.5t39 -14.5t14 -39.5z" />
    <glyph glyph-name="at" unicode="@" horiz-adv-x="727" 
d="M656 -7q-140 -120 -312 -120q-135 0 -212 79t-77 214q0 166 113 288.5t277 122.5q59 0 104 -16t71 -40t42.5 -56.5t22 -61t5.5 -57.5q0 -73 -38 -141t-102 -114q-67 -47 -114 -47q-16 0 -23.5 7.5t-7.5 30.5q0 12 3 30q-92 -70 -157 -70q-58 0 -58 79q0 59 34.5 126.5
t86.5 114.5q62 55 137 55q25 0 52 -3l11 26l41 -6l-68 -220q-20 -62 -20 -96q0 -16 11 -16q28 0 62 30q45 38 72 96.5t27 119.5q0 88 -53 138t-146 50q-139 0 -233 -107.5t-94 -260.5q0 -111 65.5 -179t174.5 -68q163 0 279 102zM412 142l60 198q3 9 3 18q0 10 -12 12
q-20 5 -39 5q-53 0 -95 -52q-34 -43 -53.5 -94t-19.5 -91q0 -41 30 -41q44 0 126 45z" />
    <glyph glyph-name="A" unicode="A" horiz-adv-x="633" 
d="M220 -1q-98 2 -132 2q-21 0 -113 -2l7 36q44 4 62 20q20 18 65 97l278 493h49l82 -498q13 -81 27 -95q13 -11 61 -17l-9 -36q-90 2 -120 2q-19 0 -131 -2l7 36q52 6 70 14q22 8 22 31q0 25 -8 70l-15 91h-203l-46 -88q-38 -72 -38 -87t18 -21q17 -5 74 -10zM243 287h174
q-31 191 -39 249q-43 -84 -135 -249z" />
    <glyph glyph-name="B" unicode="B" horiz-adv-x="570" 
d="M-10 -1l7 36q51 4 66 9q18 7 28 66l78 426q6 33 6 38q0 18 -24 25q-24 5 -63 9l7 35h169q106 0 155 -10q115 -22 115 -126q0 -132 -151 -164q68 -9 103.5 -47t35.5 -94q0 -120 -118 -175q-60 -29 -170 -29q-19 0 -62 1.5t-70 1.5q-36 0 -112 -2zM216 361h20q70 0 114 11
q103 27 103 127q0 71 -60 88q-38 12 -135 12zM206 315l-37 -204q-5 -30 -5 -39q0 -20 18 -23q28 -5 73 -5q80 0 131 38.5t51 117.5q0 66 -43 91q-41 24 -166 24h-22z" />
    <glyph glyph-name="C" unicode="C" horiz-adv-x="635" 
d="M579 170q-11 -55 -44 -130q-10 -22 -38 -31q-61 -23 -176 -23q-123 0 -193.5 75t-70.5 195q0 177 107.5 289.5t282.5 112.5q95 0 152 -21q23 -9 23 -44q0 -60 -4 -122l-35 -2q-13 69 -26 95q-7 19 -30 29q-38 15 -93 15q-127 0 -209.5 -96t-82.5 -246q0 -111 51.5 -170.5
t150.5 -59.5q86 0 123 29q29 21 79 112z" />
    <glyph glyph-name="D" unicode="D" horiz-adv-x="669" 
d="M-10 -1l7 36q65 6 76 16q9 8 18 54l78 429q1 5 2.5 13.5t2.5 15t1 9.5q0 16 -17 23q-14 6 -69 13l7 35h136q139 0 207 -14t115 -45q91 -61 91 -206q0 -179 -104 -279.5t-286 -100.5q-10 0 -73 1.5t-78 1.5q-20 0 -114 -2zM168 106q-4 -18 -4 -30t4 -16.5t16 -6.5
q36 -5 96 -5q129 0 203.5 90t74.5 230q0 143 -88 192q-68 38 -212 38z" />
    <glyph glyph-name="E" unicode="E" horiz-adv-x="547" 
d="M509 168q-24 -96 -45 -142q-7 -16 -22 -21t-47 -5h-404l6 34q59 5 73 14q8 5 12 16.5t10 47.5l76 419q6 33 6 43q0 15 -11 21q-6 4 -74 13l7 35h377q35 0 44 -6t9 -23q0 -11 -7.5 -59.5t-11.5 -66.5h-33q-6 80 -18 91q-11 11 -33.5 14.5t-85.5 3.5q-33 0 -79 -2l-44 -242
h8q77 0 106.5 3.5t42.5 14.5q13 10 32 64h35q-27 -131 -37 -209h-34q0 58 -10 69q-9 10 -35 12t-105 2h-11l-37 -201q-4 -20 -4 -32q0 -11 4 -15.5t16 -7.5q30 -7 78 -7q115 0 146 25q22 18 69 104z" />
    <glyph glyph-name="F" unicode="F" horiz-adv-x="543" 
d="M254 -1q-72 2 -140 2q-38 0 -124 -2l7 36q66 5 76 15q10 13 19 62l78 423q5 30 5 38q0 21 -23 26q-21 5 -63 9l6 35h380q36 0 45 -6t9 -23q0 -38 -21 -130h-33q-6 86 -16 95q-11 11 -32 14t-88 3q-41 0 -81 -2l-44 -243h8q126 0 150 19q13 10 31 64h36q-22 -105 -37 -214
h-35q-1 56 -12 69q-8 10 -35 12.5t-106 2.5h-9l-35 -187q-6 -33 -6 -52q0 -10 5 -14.5t21 -7.5q32 -6 71 -8z" />
    <glyph glyph-name="G" unicode="G" horiz-adv-x="673" 
d="M647 253q-39 -3 -52 -15q-9 -9 -17 -52l-22 -125q-4 -25 -13.5 -34t-31.5 -16q-86 -25 -187 -25q-124 0 -195.5 74.5t-71.5 198.5q0 179 109.5 289t282.5 110q91 0 150 -21q25 -9 25 -44q0 -42 -5 -122l-35 -2q-14 70 -27 98q-7 18 -29 26q-34 15 -96 15
q-126 0 -208 -97.5t-82 -242.5q0 -111 52 -171.5t146 -60.5q55 0 103 14q24 9 30 16q11 14 29 120q3 22 3 33q0 18 -20 24q-14 5 -59 10l7 37q81 -3 109 -3q2 0 113 3z" />
    <glyph glyph-name="H" unicode="H" horiz-adv-x="704" 
d="M246 -1q-76 2 -132 2q-36 0 -124 -2l7 36q69 6 77 17q10 11 18 59l76 419q6 36 6 45q0 18 -17 23q-25 6 -68 10l7 36q88 -2 133 -2q42 0 124 2l-7 -36q-69 -5 -80 -16q-12 -12 -19 -56l-31 -175h318l31 174q5 30 5 40q0 18 -17 23q-25 6 -67 10l8 36q86 -2 132 -2
q44 0 124 2l-7 -36q-70 -5 -81 -16q-10 -10 -18 -55l-79 -427q-5 -25 -5 -43t19 -22q20 -5 71 -10l-6 -36q-80 2 -133 2q-33 0 -125 -2l7 36q65 6 77 18q8 8 17 57l37 203h-317l-38 -203q-5 -25 -5 -45q0 -16 15 -20q18 -5 74 -10z" />
    <glyph glyph-name="I" unicode="I" horiz-adv-x="306" 
d="M246 -1q-76 2 -132 2q-36 0 -124 -2l7 36q67 5 77 15q9 14 18 65l77 419q5 27 5 40q0 18 -18 24q-26 6 -67 10l7 36q88 -2 131 -2q42 0 126 2l-7 -36q-69 -5 -80 -16t-19 -55l-78 -426q-5 -25 -5 -45q0 -16 15 -21q21 -5 74 -10z" />
    <glyph glyph-name="J" unicode="J" horiz-adv-x="285" 
d="M-31 -161l-22 31q61 51 93 104.5t47 127.5q24 122 79 432q4 26 4 40q0 20 -18 24q-15 4 -69 10l6 36q88 -2 137 -2q37 0 119 2l-7 -36q-65 -6 -76 -17q-10 -10 -18 -54q-13 -69 -37 -210t-34 -194q-20 -106 -60 -159q-50 -67 -144 -135z" />
    <glyph glyph-name="K" unicode="K" horiz-adv-x="609" 
d="M551 -26q-69 18 -125 74q-43 43 -100 122.5t-101 158.5q90 74 204 190q48 48 48 68t-65 21l6 36q42 -2 130 -2q62 0 104 2l-7 -36q-30 -3 -55 -16q-30 -15 -64 -47q-41 -39 -114.5 -106t-102.5 -94q75 -131 134 -206t127 -135zM245 -1q-76 2 -131 2q-36 0 -124 -2l7 36
q67 6 76 16q11 12 19 60l77 424q5 27 5 38q0 19 -18 25q-25 6 -68 10l8 36q88 -2 134 -2q40 0 124 2l-8 -36q-71 -5 -81 -17q-11 -12 -18 -55l-78 -426q-5 -25 -5 -43q0 -17 15 -22q24 -6 74 -10z" />
    <glyph glyph-name="L" unicode="L" horiz-adv-x="534" 
d="M516 169q-25 -90 -47 -144q-7 -16 -22 -20.5t-47 -4.5h-410l7 35q61 4 74 13q11 8 21 68l76 413q6 36 6 47q0 10 -4.5 15t-18.5 8q-24 6 -62 9l7 36q88 -2 134 -2q40 0 124 2l-7 -36q-70 -4 -82 -17q-10 -12 -18 -55l-78 -430q-4 -24 -4 -27q0 -20 20 -25q30 -7 80 -7
q118 0 150 26q18 14 68 103z" />
    <glyph glyph-name="M" unicode="M" horiz-adv-x="803" 
d="M211 -1q-84 2 -122 2q-66 0 -114 -2l6 36q65 4 76 15q12 12 26 79q23 103 40.5 181.5t27 119.5t14.5 66.5t8 38.5t4 18q3 15 3 23q0 17 -20 22q-20 6 -69 10l7 36q43 -2 101 -2q67 0 86 1q4 -39 94 -507q50 95 99 187t72 136t44.5 85t32 61.5t18.5 38.5q25 -2 91 -2
q45 0 97 2l-7 -36q-68 -4 -79 -15q-10 -9 -18 -52q0 -3 -48 -416q-6 -51 -6 -60q0 -16 17 -20q26 -6 71 -10l-7 -36q-94 2 -142 2q-12 0 -27.5 -0.5t-43 -1t-50.5 -0.5l9 36q45 4 60 7.5t21 11.5q9 11 13 45q8 55 61 454q-3 -5 -296 -553h-35q-98 509 -104 540
q-31 -159 -92 -444q-3 -17 -3 -29q0 -14 12 -19q18 -8 77 -13z" />
    <glyph glyph-name="N" unicode="N" horiz-adv-x="698" 
d="M225 -1q-90 2 -126 2q-4 0 -110 -2l7 35q65 5 78 20q9 11 22 80q65 339 70 372q8 53 8 67q0 19 -30 26q-20 5 -57 9l7 36q46 -2 88 -2q40 0 70 2q255 -470 276 -509q54 299 65 369q8 52 8 70q0 17 -16 23q-21 7 -69 11l6 36q102 -2 121 -2q9 0 113 2l-8 -36
q-65 -7 -77 -17q-10 -10 -24 -82q-11 -57 -34 -183.5t-29 -161.5q-4 -19 -29 -167h-44q-48 103 -292 540q-13 -73 -39.5 -227.5t-29.5 -173.5q-8 -49 -8 -69q0 -19 23 -24q28 -5 67 -9z" />
    <glyph glyph-name="O" unicode="O" horiz-adv-x="673" 
d="M649 383q0 -169 -89 -279q-45 -56 -107.5 -87t-132.5 -31q-131 0 -197 79.5t-66 206.5q0 169 109 288q43 48 104 72.5t124 24.5q126 0 190.5 -73.5t64.5 -200.5zM565 376q0 231 -178 231q-101 0 -169 -89q-34 -44 -55.5 -110t-21.5 -138q0 -112 45.5 -173t136.5 -61
q107 0 176 99q32 45 49 110.5t17 130.5z" />
    <glyph glyph-name="P" unicode="P" horiz-adv-x="549" 
d="M250 -1q-47 2 -126 2q-22 0 -134 -2l7 36q54 5 69 12q16 8 25 62l77 423q6 36 6 42q0 13 -11 20q-14 8 -74 14l7 35h176q102 0 163 -14q119 -28 119 -148q0 -111 -78 -164t-202 -53q-37 0 -75 5l-28 -153q-7 -42 -7 -52q0 -16 22 -20q17 -4 72 -9zM208 316q37 -5 62 -5
q198 0 198 161q0 89 -69 112q-50 16 -141 16z" />
    <glyph glyph-name="Q" unicode="Q" horiz-adv-x="673" 
d="M649 383q0 -169 -89 -279q-68 -85 -167 -109q84 -67 153 -99q88 -41 156 -55l-9 -38q-122 6 -212 51q-106 53 -206 135q-109 13 -163.5 90t-54.5 193q0 169 109 288q43 48 104 72.5t124 24.5q126 0 190.5 -73.5t64.5 -200.5zM565 376q0 232 -178 232q-102 0 -169 -88
q-34 -44 -55.5 -110.5t-21.5 -138.5q0 -113 45.5 -174t136.5 -61q106 0 176 98q66 94 66 242z" />
    <glyph glyph-name="R" unicode="R" horiz-adv-x="603" 
d="M246 -1q-94 2 -144 2q-6 0 -112 -2l7 36q45 4 59 7t19 11q7 9 16 56l77 422q6 39 6 43q0 17 -16 23q-12 5 -70 11l8 35h145q124 0 175 -13q116 -29 116 -141q0 -71 -45.5 -122.5t-115.5 -70.5q52 -122 102 -193q41 -59 87 -98l-20 -30q-69 25 -119 80q-70 80 -132 226
q-10 -1 -41 -1q-23 0 -47 2l-31 -167q-6 -31 -6 -48q0 -18 15 -22q29 -5 74 -10zM210 329q27 -3 55 -3q78 0 130 36.5t52 112.5q0 83 -56 107q-43 19 -133 19z" />
    <glyph glyph-name="S" unicode="S" horiz-adv-x="474" 
d="M64 185q15 -84 31 -108q13 -18 42 -30t67 -12q69 0 104.5 28.5t35.5 76.5q0 64 -91 133l-49 37q-104 76 -104 168q0 90 63 134.5t167 44.5q64 0 114 -21q21 -9 21 -31q-2 -81 -8 -132h-36q-8 64 -18 92q-6 20 -25 29q-32 15 -72 15q-59 0 -94 -28t-35 -78q0 -56 77 -116
l52 -41q65 -51 92 -91.5t27 -84.5q0 -88 -64.5 -136.5t-168.5 -48.5q-87 0 -140 34q-21 15 -23 46q-3 45 -3 120h38z" />
    <glyph glyph-name="T" unicode="T" horiz-adv-x="588" 
d="M380 -1q-68 2 -137 2q-43 0 -121 -2l6 36q70 5 83 21q8 10 17 60l88 482q-125 0 -147 -13q-14 -8 -26.5 -31t-38.5 -86l-36 3q5 19 12 51.5t12.5 55t9.5 37.5q8 28 34 28h457q17 0 22 -6t5 -23q0 -43 -16 -141l-37 -2q-1 10 -2.5 29.5t-2.5 27.5l-2.5 20t-3.5 18.5
t-5 10.5q-9 13 -41.5 17t-116.5 4l-88 -480q-6 -30 -6 -50q0 -19 16 -23q25 -6 72 -10z" />
    <glyph glyph-name="U" unicode="U" horiz-adv-x="682" 
d="M733 608q-71 -6 -80 -21q-9 -16 -17 -61l-43 -235q-17 -94 -36.5 -145.5t-51.5 -84.5q-73 -76 -211 -76q-89 0 -145.5 40.5t-56.5 130.5q0 46 18 140q8 40 23.5 122t22.5 116q5 22 5 40q0 19 -15 24t-68 10l7 36q72 -2 138 -2q41 0 121 2l-7 -36q-71 -5 -84 -18
q-9 -8 -18 -51q-8 -40 -45 -239q-16 -83 -16 -130q0 -130 147 -130q113 0 164 69q36 50 64 209q8 45 34 215q4 32 4 42q0 19 -24 24q-19 4 -62 9l6 36q74 -2 117 -2q48 0 116 2z" />
    <glyph glyph-name="V" unicode="V" horiz-adv-x="635" 
d="M287 -5h-49l-82 502q-13 86 -27 95q-16 12 -60 16l7 36q48 -2 125 -2q75 0 130 2l-8 -36q-49 -3 -69 -9q-13 -4 -18 -10.5t-6 -19.5q0 -26 8 -77q3 -23 18 -117t28.5 -176.5t13.5 -88.5q2 6 47 88.5t95 174.5t61 115q35 70 35 88q0 19 -23 24q-29 4 -62 8l8 36
q49 -2 126 -2q68 0 113 2l-8 -36q-44 -4 -63 -19q-23 -21 -65 -96z" />
    <glyph glyph-name="W" unicode="W" horiz-adv-x="894" 
d="M235 -5h-49l-37 515q-6 79 -21 87t-56 11l6 36q122 -2 126 -2q93 0 133 2l-8 -36q-17 -2 -39.5 -4t-28.5 -3q-33 -5 -34 -36q0 -44 2 -77l22 -352l257 507h42l63 -509l151 349q30 67 30 91q0 18 -20 23q-31 8 -65 11l5 36q94 -2 123 -2q41 0 111 2l-5 -36q-52 -6 -66 -18
q-5 -4 -8.5 -8.5t-9 -15t-9.5 -20.5t-14 -33t-19 -43l-213 -475h-48l-63 505z" />
    <glyph glyph-name="X" unicode="X" horiz-adv-x="624" 
d="M218 -1q-53 2 -139 2q-11 0 -24.5 -0.5t-37.5 -1t-44 -0.5l8 35q45 6 62 20q21 16 72 75l173 200l-97 202q-26 51 -42 64q-14 10 -56 13l8 36q122 -2 131 -2q65 0 125 2l-9 -36q-49 -3 -66 -10q-16 -6 -16 -19q0 -15 20 -57l66 -141l109 129q44 51 44 72q0 13 -18 18
q-14 4 -59 8l9 36q58 -2 119 -2q39 0 109 2l-9 -36q-37 -4 -51 -13q-7 -4 -82 -87l-150 -168l103 -208q33 -66 45 -78q15 -15 69 -20l-8 -35q-120 2 -136 2q-5 0 -121 -2l7 35q48 6 57 8q24 6 24 22q0 11 -17 45l-85 177l-140 -171q-32 -38 -32 -52t23 -20q13 -4 62 -9z" />
    <glyph glyph-name="Y" unicode="Y" horiz-adv-x="590" 
d="M383 -1q-96 2 -130 2q-25 0 -127 -2l6 36q69 4 82 20q8 9 15 47l30 165l-103 261q-22 57 -33 66q-10 9 -55 14l7 36q55 -2 117 -2q73 0 127 2l-6 -36q-42 -3 -62 -6q-26 -5 -26 -19q0 -23 27 -94l67 -169l136 181q52 68 52 86q0 11 -12 14q-15 4 -61 7l7 36q46 -2 117 -2
q50 0 93 2l-7 -36q-33 -4 -45 -13q-16 -12 -79 -91l-186 -236l-28 -164q-4 -21 -4 -39q0 -17 17 -21q28 -5 71 -9z" />
    <glyph glyph-name="Z" unicode="Z" horiz-adv-x="573" 
d="M-7 0l6 32l476 567q-260 -3 -281 -16q-3 -2 -5.5 -4.5l-4.5 -4.5t-5 -6t-4.5 -7l-4.5 -9t-5.5 -10.5t-6.5 -13t-6.5 -15t-8 -18.5t-9.5 -21l-33 2q11 62 29 135q8 32 37 32h425l-5 -29l-476 -564q59 -3 129 -3q108 0 147 6t59 23q14 12 54 106l34 -2q-13 -75 -29 -145
q-4 -19 -13 -27t-33 -8h-466z" />
    <glyph glyph-name="bracketleft" unicode="[" horiz-adv-x="287" 
d="M185 -165h-177l161 892h177l-7 -42h-109l-148 -808h109z" />
    <glyph glyph-name="backslash" unicode="\" horiz-adv-x="342" 
d="M243 -71l-144 766h51l143 -766h-50z" />
    <glyph glyph-name="bracketright" unicode="]" horiz-adv-x="287" 
d="M115 728h177l-161 -893h-177l9 43h108l148 808h-110z" />
    <glyph glyph-name="asciicircum" unicode="^" horiz-adv-x="509" 
d="M457 355h-58l-58 257l-175 -257h-68l225 324h62z" />
    <glyph glyph-name="underscore" unicode="_" horiz-adv-x="498" 
d="M438 -127h-499l10 51h500z" />
    <glyph glyph-name="grave" unicode="`" horiz-adv-x="290" 
d="M233 520l-27 -20l-99 113q-24 28 -24 47q0 15 12.5 26t27.5 11q12 0 20.5 -8.5t20.5 -32.5z" />
    <glyph glyph-name="a" unicode="a" horiz-adv-x="472" 
d="M450 54q-85 -63 -138 -63q-19 0 -27 11t-8 39q0 18 2 34q-102 -86 -178 -86q-75 0 -75 91q0 70 32 148t85 130q65 65 169 65q33 0 57 -4l14 32l48 -7l-60 -239q-20 -82 -20 -124q0 -24 15 -24q22 0 70 24zM281 109l56 229q2 10 2 16q0 10 -12 14q-17 6 -50 6
q-64 0 -104 -59q-34 -48 -53 -106.5t-19 -107.5q0 -22 11 -34.5t29 -12.5q55 0 140 55z" />
    <glyph glyph-name="b" unicode="b" horiz-adv-x="460" 
d="M173 364q91 67 166 67q41 0 62.5 -27t21.5 -77q0 -58 -21.5 -123t-55.5 -116q-31 -45 -77.5 -72t-95.5 -27q-122 0 -122 94q0 34 16 106l83 380q12 58 12 79q0 15 -12 15q-20 0 -57 -8l-7 28q89 46 137 46q25 0 25 -25q0 -16 -20 -107q-5 -21 -29 -123.5t-26 -109.5z
M165 325l-34 -153q-10 -47 -10 -74q0 -60 68 -60q62 0 99 59q27 43 43.5 107t16.5 101q0 66 -50 66q-60 0 -133 -46z" />
    <glyph glyph-name="c" unicode="c" horiz-adv-x="359" 
d="M323 68q-106 -81 -197 -81q-100 0 -100 129q0 65 25 132.5t66 111.5q64 72 154 72q43 0 65 -9q19 -7 19 -25q0 -21 -22 -50q-43 26 -93 26q-47 0 -79 -37q-24 -29 -42 -88t-18 -115q0 -86 58 -86q67 0 147 48z" />
    <glyph glyph-name="d" unicode="d" horiz-adv-x="486" 
d="M455 54q-84 -63 -138 -63q-35 0 -35 39q0 27 1 43q-100 -84 -179 -84q-77 0 -77 98q0 74 31.5 153t85.5 129q61 58 167 58q17 0 43 -2l28 130q15 69 15 94q0 14 -13 14q-18 0 -56 -8l-7 28q91 46 138 46q24 0 24 -26q0 -11 -21 -107l-94 -419q-12 -55 -12 -91
q0 -29 16 -29q15 0 69 24zM285 109l50 231q2 10 2 20q0 11 -11 14q-20 5 -49 5q-74 0 -112 -57q-31 -47 -46.5 -106.5t-15.5 -105.5q0 -56 40 -56q56 0 142 55z" />
    <glyph glyph-name="e" unicode="e" horiz-adv-x="364" 
d="M326 70q-52 -39 -106.5 -61t-91.5 -22q-101 0 -101 130q0 72 30 149t86 121t122 44q41 0 65 -22.5t24 -58.5q-1 -60 -60.5 -95t-190.5 -67q-4 -17 -4 -56q0 -85 59 -85q68 0 150 50zM108 223q174 53 174 115q0 46 -46 46q-34 0 -64 -30q-37 -36 -64 -131z" />
    <glyph glyph-name="f" unicode="f" horiz-adv-x="282" 
d="M190 360l-66 -332q-21 -107 -54 -174q-27 -56 -71 -89t-98 -33q-44 0 -44 28q0 23 14 45q23 -7 47 -7q46 0 70 22.5t41 85.5q19 77 35 165l53 289q-47 3 -69 7l6 33q10 2 27.5 5t25.5 5q19 5 23 26q27 129 59 181q31 52 81.5 83t104.5 31q43 0 65 -10q14 -6 14 -23
q0 -19 -21 -52q-41 23 -90 23q-62 0 -94 -66q-22 -44 -40 -143l-9 -49q69 0 109 -8l-7 -36q-23 -4 -112 -7z" />
    <glyph glyph-name="g" unicode="g" horiz-adv-x="431" 
d="M304 315q0 75 -69 75q-47 0 -74 -41q-32 -48 -32 -119q0 -40 18.5 -60t47.5 -20q54 0 82 47q27 49 27 118zM146 117q-11 -10 -20 -24q-7 -12 -7 -21q0 -17 26 -27q11 -4 111 -32q78 -21 112.5 -48t34.5 -73q0 -66 -64 -114.5t-168 -48.5q-87 0 -146 36t-59 94q0 41 35 71
t116 58q-65 18 -65 59q0 23 19 45q9 11 42 39q-55 34 -55 109q0 82 51.5 137t128.5 55q46 0 81 -20q87 0 128 -5l-7 -44q-26 -4 -75 -6q10 -22 10 -58q-1 -85 -52 -137t-126 -52q-32 0 -51 7zM215 -44q-36 8 -49 8q-20 0 -45 -10q-86 -36 -86 -86q0 -37 40.5 -64.5
t106.5 -27.5q72 0 107.5 29.5t35.5 67.5q0 55 -110 83z" />
    <glyph glyph-name="h" unicode="h" horiz-adv-x="455" 
d="M96 -3l-63 7l119 560q12 57 14 85q0 14 -13 14q-19 0 -57 -8l-7 28q89 46 137 46q25 0 25 -26q0 -10 -21 -108q-1 -8 -25.5 -115t-27.5 -119q93 68 167 68q72 0 72 -109q0 -55 -24 -140t-62 -130q-48 -59 -116 -59q-32 0 -32 24q0 21 12 43q20 -6 37 -6q39 0 61 26
q22 27 36 100t14 123q0 63 -43 63q-66 0 -129 -40z" />
    <glyph glyph-name="i" unicode="i" horiz-adv-x="255" 
d="M225 53q-82 -62 -140 -62q-35 0 -35 33q0 16 20 103l35 148q15 62 15 82q0 14 -14 14q-15 0 -55 -11l-8 27q80 45 131 45q25 0 25 -30q0 -11 -17 -85l-39 -165q-18 -76 -18 -83q0 -15 12 -15q18 0 76 25zM236 632q0 -25 -14.5 -42t-36.5 -17q-21 0 -33.5 12.5t-12.5 33.5
q1 28 16 44.5t39 16.5q42 0 42 -48z" />
    <glyph glyph-name="j" unicode="j" horiz-adv-x="243" 
d="M47 360l-8 27q81 45 132 45q25 0 25 -30q0 -24 -12 -85l-63 -311q-19 -96 -55 -162q-62 -115 -158 -115q-41 0 -41 28q0 22 14 47q23 -9 42 -9q44 0 67.5 23t38.5 75q14 46 35 167l38 209q10 54 12 86q0 16 -11 16q-21 0 -56 -11zM237 632q0 -25 -15 -42t-37 -17
q-21 0 -33 12.5t-12 33.5q1 28 16 44.5t38 16.5q43 0 43 -48z" />
    <glyph glyph-name="k" unicode="k" horiz-adv-x="462" 
d="M449 46q-74 -56 -120 -56q-37 0 -56 34q-58 101 -99 239q39 49 100 102q72 65 128 65q42 0 42 -26q0 -22 -19 -54q-13 5 -28 5q-81 0 -161 -82q37 -108 82 -185q24 -39 44 -39q28 0 74 22zM97 -3l-64 7l120 561q13 62 13 84q0 14 -13 14q-19 0 -56 -8l-7 28q89 46 137 46
q25 0 25 -26q0 -6 -21 -106q-2 -10 -66 -295.5t-68 -304.5z" />
    <glyph glyph-name="l" unicode="l" horiz-adv-x="244" 
d="M215 53q-82 -62 -139 -62q-37 0 -37 36q0 17 19 100l97 439q12 59 14 80q0 16 -14 16q-16 0 -56 -8l-7 29q87 45 137 45q25 0 25 -25q0 -18 -20 -105q-2 -7 -51 -216.5t-53 -229.5q-16 -69 -16 -85q0 -14 12 -14q19 0 77 25z" />
    <glyph glyph-name="m" unicode="m" horiz-adv-x="707" 
d="M106 -3l-63 7l60 267q12 53 15 84q0 16 -12 16q-16 0 -56 -11l-7 27q82 45 131 45q25 0 25 -30q-2 -22 -6 -44q43 36 99 56q45 16 77 16q49 0 49 -46q0 -10 -2 -26q43 35 99 55q44 17 79 17q50 0 50 -49q0 -21 -23 -113l-31 -119q-16 -64 -16 -80t10 -16q20 0 78 25
l11 -25q-81 -62 -141 -62q-34 0 -34 34q0 23 16 86l29 112q22 86 22 116q0 15 -6.5 21.5t-24.5 6.5q-23 0 -59 -12t-66 -33q-4 -25 -13 -54l-68 -271l-60 7l51 220q21 92 21 115q0 15 -6.5 21.5t-23.5 6.5q-23 0 -59 -12t-67 -33z" />
    <glyph glyph-name="n" unicode="n" horiz-adv-x="488" 
d="M106 -3l-63 7l60 268q12 51 15 83q0 16 -12 16q-16 0 -56 -11l-7 27q82 45 131 45q25 0 25 -30q-2 -22 -6 -44q43 35 102 56q43 16 80 16q49 0 49 -49q0 -23 -23 -113l-30 -118q-17 -66 -17 -81q0 -16 10 -16q22 0 78 25l11 -25q-81 -62 -140 -62q-35 0 -35 35
q0 19 17 85l29 114q21 84 21 114q0 28 -31 28q-24 0 -61.5 -12t-68.5 -33z" />
    <glyph glyph-name="o" unicode="o" horiz-adv-x="435" 
d="M398 277q0 -126 -58.5 -208t-164.5 -82q-69 0 -109 44t-40 119q0 120 60.5 201t168.5 81q67 0 105 -41t38 -114zM328 288q0 102 -82 102q-58 0 -94 -51q-23 -32 -39 -90.5t-16 -111.5q0 -55 23 -81.5t61 -26.5q62 0 95 53q22 35 37 93.5t15 112.5z" />
    <glyph glyph-name="p" unicode="p" horiz-adv-x="472" 
d="M49 -264l-64 7l111 501q19 86 19 108q0 19 -15 19q-13 0 -53 -10l-7 26q81 45 130 45q24 0 24 -35q0 -19 -6 -42q92 74 172 74q76 0 76 -99q0 -74 -31.5 -150t-87.5 -127q-62 -56 -153 -56q-20 0 -54 4zM181 321l-53 -238q-2 -14 -2 -16q0 -12 13 -15q17 -6 45 -6
q73 0 112 57q33 49 50 105.5t17 99.5q0 58 -48 58q-61 0 -134 -45z" />
    <glyph glyph-name="q" unicode="q" horiz-adv-x="463" 
d="M284 109l52 226q3 15 3 19q0 13 -11 16q-16 4 -49 4q-73 0 -110 -56q-32 -47 -48.5 -104.5t-17.5 -102.5q0 -57 41 -57q51 0 140 55zM268 -263l-64 7l73 324q-100 -79 -174 -79q-76 0 -76 99q0 70 33.5 149.5t87.5 130.5q59 56 166 56q26 0 52 -4l15 31l48 -8z" />
    <glyph glyph-name="r" unicode="r" horiz-adv-x="356" 
d="M106 -3l-63 7l57 255q18 77 18 94q0 18 -15 18q-17 0 -54 -11l-7 27q80 45 127 45q29 0 29 -31q0 -20 -8 -52q41 49 89 69q25 9 41 9q31 0 31 -31q0 -25 -22 -55q-14 12 -41 12q-56 0 -106 -41z" />
    <glyph glyph-name="s" unicode="s" horiz-adv-x="333" 
d="M34 91q17 -20 49 -35t65 -15q34 0 53.5 15.5t19.5 37.5q0 29 -43 65l-69 59q-40 32 -40 86q0 57 41.5 91.5t115.5 34.5q44 0 71 -11q13 -7 13 -23q0 -19 -19 -47q-40 28 -101 28q-27 0 -44 -13.5t-17 -35.5q0 -26 33 -55l68 -59q53 -45 53 -94q0 -55 -43.5 -93.5
t-120.5 -38.5q-56 0 -90 23q-21 15 -21 32q0 22 26 48z" />
    <glyph glyph-name="t" unicode="t" horiz-adv-x="288" 
d="M249 55q-94 -64 -148 -64q-45 0 -45 48q0 39 16 111l46 210q-35 1 -71 7l6 33q4 1 52 9q22 4 38 45l23 64l52 7l-23 -114q48 0 99 -8l-8 -36q-30 -5 -100 -7l-43 -207q-13 -70 -13 -82q0 -18 15 -18q21 0 91 28z" />
    <glyph glyph-name="u" unicode="u" horiz-adv-x="495" 
d="M469 53q-83 -62 -137 -62q-33 0 -33 38q0 22 2 41q-99 -78 -181 -78q-55 0 -55 59q0 35 16 103l26 112q14 65 16 88q0 17 -11 17q-25 0 -59 -11l-7 27q76 45 127 45q29 0 29 -31q0 -20 -17 -91l-27 -112q-20 -78 -20 -105q0 -19 7 -27t27 -8q25 0 63.5 16t69.5 38l66 309
l65 -6l-52 -247q-15 -71 -15 -92q0 -20 16 -20q19 0 72 22z" />
    <glyph glyph-name="v" unicode="v" horiz-adv-x="436" 
d="M50 356l-9 30q82 45 128 45q25 0 25 -26q0 -24 -16 -103l-26 -121q-16 -78 -16 -98q0 -25 25 -25q20 0 55.5 21t66.5 57q69 78 69 190q0 44 -29 70q32 34 62 34q15 0 24 -19q7 -16 7 -57q-2 -121 -98 -239q-46 -56 -103 -91t-103 -35q-48 0 -48 52q0 28 16 106l26 126
q11 49 11 79q0 14 -10 14q-18 0 -57 -10z" />
    <glyph glyph-name="w" unicode="w" horiz-adv-x="641" 
d="M290 96q-100 -107 -179 -107q-47 0 -47 52q0 36 16 105l28 132q7 35 10 74q0 14 -11 14q-18 0 -57 -10l-9 30q82 45 129 45q24 0 24 -26q0 -24 -16 -103l-26 -121q-16 -73 -16 -97q0 -26 25 -26q27 0 66.5 29t66.5 61l56 268l62 -3l-45 -227q-12 -63 -12 -93
q0 -35 26 -35q23 0 56 19.5t61 57.5q59 78 61 190q0 44 -30 72q36 33 62 33q17 0 23 -17q8 -24 8 -57q-2 -132 -89 -244q-44 -56 -96.5 -89.5t-95.5 -33.5q-26 0 -36.5 15.5t-13.5 49.5q-1 11 -1 42z" />
    <glyph glyph-name="x" unicode="x" horiz-adv-x="456" 
d="M423 52q-79 -62 -126 -62q-30 0 -45 39q-22 67 -39 142q-66 -104 -106 -143q-38 -37 -83 -37q-40 0 -40 32q0 20 18 44q23 -9 39 -9q27 0 57 32q32 36 99 129q-26 90 -40 127q-9 25 -24 25q-23 0 -60 -13l-9 26q85 48 116 48q26 0 36 -37q6 -21 17 -61.5t18 -63.5
q65 96 95 123q42 38 81 38q44 0 44 -26q0 -19 -19 -47q-19 8 -38 8q-28 0 -57 -31q-57 -64 -94 -113q23 -80 48 -142q11 -30 30 -30q23 0 67 28z" />
    <glyph glyph-name="y" unicode="y" horiz-adv-x="491" 
d="M442 418l-88 -416q-27 -129 -95.5 -200t-165.5 -71q-34 0 -58.5 10t-24.5 28q0 26 20 54q38 -27 109 -27q46 0 75 30t52 112q8 28 35 136q-41 -37 -96 -63q-42 -19 -81 -19q-58 0 -58 61q0 36 15 101l27 115q14 55 16 86q0 16 -12 16q-24 0 -58 -11l-8 27q36 21 72.5 33
t52.5 12q32 0 32 -28q0 -19 -17 -91l-25 -104q-22 -88 -22 -113q0 -21 7.5 -29.5t28.5 -8.5q49 0 133 58l68 308z" />
    <glyph glyph-name="z" unicode="z" horiz-adv-x="423" 
d="M391 152q-13 -72 -27 -117q-6 -19 -16 -27t-38 -8h-306l3 28l298 348q-104 0 -139 -4q-27 -4 -40 -23q-12 -17 -32 -66l-32 4q10 54 20 94q5 20 15 28t35 8h273l-7 -32l-294 -343q152 0 189 12q16 4 31 29q14 24 33 72z" />
    <glyph glyph-name="braceleft" unicode="{" horiz-adv-x="294" 
d="M200 -172q-80 0 -115 28.5t-35 87.5q0 12 26 157q13 70 13 87q0 77 -72 84l6 32q56 5 78 35t37 110l22 119q10 57 28 90t61 53.5t116 20.5l-8 -37q-61 0 -89 -25t-42 -104l-27 -149q-13 -68 -35.5 -94t-77.5 -39q70 -15 70 -94q0 -15 -14 -91q-24 -134 -24 -154
q0 -42 19.5 -61t68.5 -19z" />
    <glyph glyph-name="bar" unicode="|" horiz-adv-x="252" 
d="M79 -174h-61l165 905h62z" />
    <glyph glyph-name="braceright" unicode="}" horiz-adv-x="294" 
d="M110 732q79 0 114.5 -29.5t35.5 -87.5q0 -23 -26 -158q-13 -73 -13 -85q0 -39 16.5 -59.5t55.5 -24.5l-5 -32q-58 -7 -78.5 -34.5t-36.5 -110.5l-23 -120q-8 -43 -19 -70t-33 -50t-59.5 -33t-92.5 -10l8 36q60 0 88 25.5t42 103.5l27 148q14 71 36 97.5t77 35.5
q-69 17 -69 99q0 25 12 89q26 146 26 151q0 42 -20 61.5t-70 19.5z" />
    <glyph glyph-name="asciitilde" unicode="~" horiz-adv-x="549" 
d="M99 219l-36 37q66 92 139 92q23 0 43.5 -8t62.5 -36q45 -30 73 -30q47 0 100 68l37 -37q-67 -92 -139 -92q-42 0 -93 34q-61 39 -90 39q-25 0 -47 -15t-50 -52z" />
    <glyph glyph-name="exclamdown" unicode="&#xa1;" horiz-adv-x="285" 
d="M115 273h38q-46 -397 -50 -422q-8 -50 -56 -50q-22 0 -33 11t-11 28q0 19 12 59q88 328 100 374zM215 430q0 -25 -16 -42t-40 -17q-25 0 -39.5 14.5t-14.5 38.5q1 26 17 43.5t42 17.5q24 0 37.5 -14.5t13.5 -40.5z" />
    <glyph glyph-name="cent" unicode="&#xa2;" horiz-adv-x="438" 
d="M217 -109h-40l19 108q-12 0 -17 1q-47 5 -76 39t-29 90q0 137 88 228q45 47 111 62l19 101h42l-19 -96q4 0 14.5 0.5t15.5 0.5q26 -2 47 -9q19 -6 19 -25q-2 -20 -21 -48q-36 26 -85 28l-57 -313q52 10 110 48l18 -29q-69 -56 -137 -72zM146 144q0 -77 60 -85l57 311
q-28 -6 -50 -32q-27 -29 -47 -83t-20 -111z" />
    <glyph glyph-name="sterling" unicode="&#xa3;" horiz-adv-x="528" 
d="M460 0h-451l12 55q19 2 48 12q50 16 82 73.5t33 118.5h-98l11 48h90q0 6 -3 52t-3 66q1 100 64 155t161 55q85 0 121 -28q16 -13 16 -26q0 -23 -34 -61q-13 24 -47.5 43.5t-73.5 19.5q-128 0 -128 -133q0 -14 1.5 -66.5t1.5 -76.5h147l-10 -48h-141q-10 -120 -110 -189
q62 1 325 3z" />
    <glyph glyph-name="currency" unicode="&#xa4;" horiz-adv-x="533" 
d="M463 65l-59 65q-51 -40 -122 -40q-73 0 -119 38l-62 -64l-42 46l62 65q-41 54 -41 128q0 71 41 127l-59 65l41 45l61 -64q50 41 121 41q66 0 120 -40l60 63l42 -45l-61 -65q39 -48 39 -127q0 -73 -39 -127l61 -66zM421 303q0 65 -38.5 108t-98.5 43t-99.5 -43t-39.5 -106
q0 -67 38 -110.5t100 -43.5q60 0 99 43.5t39 108.5z" />
    <glyph glyph-name="yen" unicode="&#xa5;" horiz-adv-x="605" 
d="M501 188h-175l-14 -83q-5 -28 -5 -41q0 -14 21 -19q18 -4 69 -11l-7 -35q-98 2 -132 2q-26 0 -128 -2l6 35q74 7 85 23q7 8 14 48l16 83h-163l8 41h163l5 28l-18 46h-138l8 42h114l-66 162q-21 53 -32 65t-55 15l8 36q112 -2 118 -2q18 0 126 2l-8 -36q-28 -2 -59 -8
q-26 -4 -26 -26q0 -21 27 -89l61 -154l128 170q48 64 49 84q0 12 -16 16q-13 4 -56 7l9 36q45 -2 118 -2q50 0 95 2l-9 -36q-30 -3 -48 -16q-10 -8 -84 -99l-102 -127h122l-9 -42h-147l-34 -45l-5 -29h175z" />
    <glyph glyph-name="brokenbar" unicode="&#xa6;" horiz-adv-x="252" 
d="M177 349h-62l59 321h61zM92 -113h-61l58 320h61z" />
    <glyph glyph-name="section" unicode="&#xa7;" horiz-adv-x="460" 
d="M284 92q41 -55 41 -108q0 -62 -58.5 -116t-143.5 -54q-49 0 -87 20q-29 15 -29 38q0 19 28 47q46 -53 126 -53q39 0 69.5 27.5t31.5 61.5q0 44 -71 130l-67 80q-62 74 -62 129q0 48 29.5 81t91.5 60q-24 37 -24 98q1 61 52.5 105.5t132.5 44.5q47 0 81 -22q23 -14 23 -30
q0 -19 -33 -49q-42 53 -109 53q-40 0 -62 -25.5t-23 -60.5q0 -56 57 -113l57 -57q75 -78 75 -137q0 -46 -27.5 -81.5t-98.5 -68.5zM262 118q48 28 64.5 47.5t16.5 44.5q0 43 -56 106l-41 47q-4 5 -13.5 14t-17 17t-12.5 15q-72 -33 -73 -92q0 -41 42 -91l39 -47
q5 -6 15.5 -18t19.5 -22.5t16 -20.5z" />
    <glyph glyph-name="dieresis" unicode="&#xa8;" horiz-adv-x="287" 
d="M122 594q-1 -23 -13 -38t-32 -15q-18 0 -29 12.5t-11 32.5q0 25 13.5 39t33.5 14q38 0 38 -45zM270 594q-1 -23 -13 -38t-33 -15q-19 0 -29.5 12.5t-10.5 32.5q1 25 14.5 39t33.5 14q18 0 28 -12.5t10 -32.5z" />
    <glyph glyph-name="copyright" unicode="&#xa9;" horiz-adv-x="750" 
d="M521 237q-10 -50 -26 -82q-8 -18 -24 -24q-43 -17 -108 -17q-79 0 -128 52t-49 135q0 104 65 168.5t171 64.5q56 0 94 -15q14 -6 15 -23q1 -13 1 -88l-27 -1q-12 53 -14 59q-6 14 -15 20q-21 14 -67 14q-75 -1 -118 -55.5t-43 -140.5q0 -70 31.5 -111.5t88.5 -41.5
q37 0 60 10q15 5 30 18q4 4 37 63zM720 325q0 -144 -96 -242t-235 -98q-145 0 -241.5 96.5t-96.5 240.5q0 140 97.5 237t238.5 97q139 0 236 -96.5t97 -234.5zM677 318q0 130 -82 217t-207 87q-126 0 -210.5 -87t-84.5 -214q0 -126 86 -213.5t211 -87.5q122 0 204.5 86
t82.5 212z" />
    <glyph glyph-name="ordfeminine" unicode="&#xaa;" horiz-adv-x="373" 
d="M405 352q-78 -50 -113 -50q-33 0 -33 40q0 12 1 23q-79 -64 -149 -64q-59 0 -59 74q0 58 26 119.5t71 104.5q53 51 131 51q15 0 51 -2l14 26l41 -8l-49 -193q-15 -57 -15 -95q0 -19 13 -19q15 0 57 18zM263 398l43 182q2 10 2 11q0 8 -11 11q-18 5 -37 5q-54 0 -85 -43
q-28 -36 -43 -84t-16 -86q0 -38 30 -38q42 0 117 42z" />
    <glyph glyph-name="guillemotleft" unicode="&#xab;" horiz-adv-x="411" 
d="M184 51l-23 -19l-131 157q-10 13 -10 25t20 29l183 148l20 -21l-146 -159zM341 51l-22 -19l-131 157q-10 13 -10 25t20 29l184 148l18 -21l-145 -159z" />
    <glyph glyph-name="logicalnot" unicode="&#xac;" horiz-adv-x="551" 
d="M441 74h-57l45 196h-365l14 58h421z" />
    <glyph glyph-name="uni00AD" unicode="&#xad;" horiz-adv-x="277" 
d="M257 266l-10 -66h-214l11 66h213z" />
    <glyph glyph-name="registered" unicode="&#xae;" horiz-adv-x="750" 
d="M361 141q-33 1 -85 1q-43 0 -80 -1l6 27q37 3 49 11q5 4 11 33l50 246q3 12 3 25q0 10 -13 13q-20 3 -40 4l6 26h100q64 0 104 -8q35 -7 53.5 -30.5t18.5 -57.5q0 -43 -27.5 -71.5t-71.5 -39.5q22 -59 60 -116q14 -22 48 -54l-16 -22q-29 14 -62 45q-47 47 -84 138
q-10 -2 -28 -2q-14 0 -28 2l-19 -94q-3 -20 -3 -26q0 -12 14 -16q25 -5 41 -6zM343 344q11 -4 32 -4q46 0 77.5 20.5t31.5 66.5t-31 59q-27 11 -80 11zM720 325q0 -144 -96 -242t-235 -98q-145 0 -241.5 96.5t-96.5 240.5q0 140 97.5 237t238.5 97q139 0 236 -96.5
t97 -234.5zM677 318q0 130 -82 217t-207 87q-126 0 -210.5 -87t-84.5 -214q0 -126 86 -213.5t211 -87.5q122 0 204.5 86t82.5 212z" />
    <glyph glyph-name="macron" unicode="&#xaf;" horiz-adv-x="287" 
d="M262 532h-230l10 58h231z" />
    <glyph glyph-name="degree" unicode="&#xb0;" horiz-adv-x="316" 
d="M220 665q53 0 87.5 -32t34.5 -92q0 -57 -35.5 -90.5t-88.5 -33.5t-88 33t-35 90t36 91t89 34zM218 624q-34 0 -55 -23t-21 -60q0 -36 20 -59.5t56 -23.5q37 0 58 23t21 59q0 38 -21 61t-58 23z" />
    <glyph glyph-name="plusminus" unicode="&#xb1;" horiz-adv-x="551" 
d="M283 143h-56l44 191h-183l12 57h184l43 191h56l-44 -191h184l-14 -57h-181zM443 12h-423l15 59h422z" />
    <glyph glyph-name="twosuperior" unicode="&#xb2;" 
d="M332 400h-276l6 36q129 83 187 137.5t58 107.5q0 29 -17 49t-51 20q-47 0 -99 -44l-18 28q68 60 140 60q52 0 79 -27t27 -72q0 -64 -52 -117t-173 -127q51 2 198 2z" />
    <glyph glyph-name="threesuperior" unicode="&#xb3;" 
d="M249 617q90 -6 90 -82q0 -40 -27 -73t-67 -51t-78.5 -27.5t-67.5 -9.5q-24 0 -26 25q0 11 5 23q102 0 152 21.5t50 80.5q0 64 -75 64q-26 0 -46 -4v35q66 12 98 32.5t32 56.5q0 20 -11.5 32.5t-34.5 12.5q-38 0 -93 -34l-15 27q67 48 132 48q40 0 61 -20.5t21 -50.5
q0 -31 -23.5 -60t-76.5 -46z" />
    <glyph glyph-name="acute" unicode="&#xb4;" horiz-adv-x="290" 
d="M76 500l-21 22l110 128q18 22 27.5 28.5t20.5 6.5q14 0 24 -9.5t10 -26.5q0 -19 -38 -49z" />
    <glyph glyph-name="mu" unicode="&#xb5;" horiz-adv-x="520" 
d="M491 54q-91 -63 -140 -63q-31 0 -31 56q0 5 2 23q-30 -30 -71 -53t-68 -23q-35 0 -46 18q-10 -46 -22.5 -124t-12.5 -80q-5 -36 -44 -36q-32 0 -32 29q0 11 5 36l95 429q15 74 16 83q0 16 -11 16q-29 0 -60 -10l-9 27q81 48 126 48q31 0 31 -29q0 -21 -17 -92l-26 -108
q-19 -78 -19 -106q0 -20 7.5 -28.5t29.5 -8.5q56 0 130 53l68 310l63 -6l-51 -246q-11 -58 -11 -83q0 -27 13 -27q19 0 71 25z" />
    <glyph glyph-name="paragraph" unicode="&#xb6;" horiz-adv-x="522" 
d="M225 -237l-30 20q75 102 111 245q15 58 27 129l69 375q5 27 5 40q0 15 -9 20t-38 5q-39 0 -53 -14q-24 -20 -51 -176q-18 -100 -18 -133q0 -29 14 -39q17 -11 71 -16l-6 -40q-14 -2 -63 -2q-80 0 -129.5 46.5t-49.5 140.5q0 132 75 205.5t207 73.5h209l-7 -40
q-64 -3 -77 -16q-9 -8 -20 -62q-4 -19 -65 -380q-25 -139 -56.5 -209.5t-115.5 -172.5z" />
    <glyph glyph-name="periodcentered" unicode="&#xb7;" horiz-adv-x="207" 
d="M160 237q-1 -27 -17 -43t-41 -16q-24 0 -38.5 15t-14.5 39q1 25 16.5 42.5t40.5 17.5t39.5 -15.5t14.5 -39.5z" />
    <glyph glyph-name="cedilla" unicode="&#xb8;" horiz-adv-x="287" 
d="M59 -260l-6 36q55 15 82.5 32.5t28.5 42.5q0 13 -7.5 21.5t-29.5 25.5q-17 12 -17 26q1 22 35 81h37q-22 -36 -22 -49q0 -15 13 -22q54 -29 54 -68q0 -52 -49 -82.5t-119 -43.5z" />
    <glyph glyph-name="onesuperior" unicode="&#xb9;" 
d="M301 399q-54 2 -89 2q-68 0 -96 -2l5 30q52 4 59 14q6 7 12 36l27 153q10 58 10 74q0 11 -2 14.5t-10 3.5q-22 0 -44 -5l-7 25q126 50 131 52l10 -9q-15 -70 -31 -155l-28 -155q-4 -22 -4 -27q0 -12 15 -16q16 -3 47 -5z" />
    <glyph glyph-name="ordmasculine" unicode="&#xba;" horiz-adv-x="384" 
d="M393 528q0 -99 -51 -163.5t-140 -64.5q-61 0 -96 36t-35 95q0 97 52 162t146 65q56 0 90 -35.5t34 -94.5zM330 540q0 82 -70 82q-49 0 -78 -38q-20 -27 -33 -74t-13 -90t20 -63.5t52 -20.5q49 0 76 40q19 27 32.5 73.5t13.5 90.5z" />
    <glyph glyph-name="guillemotright" unicode="&#xbb;" horiz-adv-x="411" 
d="M225 372l23 19l131 -158q10 -12 10 -25q0 -12 -20 -29l-184 -148l-19 22l146 158zM68 372l22 19l131 -158q9 -13 9 -25q0 -14 -18 -29l-185 -148l-19 22l146 158z" />
    <glyph glyph-name="onequarter" unicode="&#xbc;" horiz-adv-x="816" 
d="M277 -4h-47l336 640h46zM272 241q-54 2 -88 2q-41 0 -97 -2l6 29q51 6 58 14q8 9 12 36l28 154q10 58 10 74q0 18 -12 18q-13 0 -45 -5l-6 24q2 1 53.5 21t76.5 31l11 -8q-14 -57 -32 -155l-28 -156q-3 -15 -3 -26q0 -14 15 -16q5 -1 13 -2t18 -2t15 -2zM671 140h60
l-8 -48h-59l-20 -113h-56l21 113h-185l7 30l240 267h47q-7 -30 -18 -92zM494 138h124q13 82 36 182z" />
    <glyph glyph-name="onehalf" unicode="&#xbd;" horiz-adv-x="816" 
d="M278 -4h-47l336 640h46zM267 241q-54 2 -88 2q-41 0 -97 -2l6 29q51 6 58 14q8 9 12 36l28 154q10 58 10 74q0 18 -12 18t-45 -5l-6 24q2 1 53.5 21t76.5 31l11 -8q-14 -57 -32 -155l-28 -156q-3 -15 -3 -26q0 -14 15 -16q5 -1 13 -2t18 -2t15 -2zM717 0h-276l6 36
q129 83 187 137.5t58 107.5q0 29 -17 49t-51 20q-47 0 -99 -44l-18 28q67 60 140 60q51 0 78.5 -27t27.5 -72q0 -64 -52 -117t-173 -127q51 2 198 2z" />
    <glyph glyph-name="threequarters" unicode="&#xbe;" horiz-adv-x="816" 
d="M292 -4h-47l336 640h46zM239 459q90 -6 90 -83q0 -40 -27 -73t-67 -50.5t-78.5 -27t-67.5 -9.5q-26 0 -26 24q0 4 4 24q103 0 152.5 21.5t49.5 80.5q0 64 -75 64q-15 0 -47 -4l2 35q67 12 98.5 32t31.5 57q0 20 -12 32t-34 12q-40 0 -93 -33l-15 27q67 48 132 48
q40 0 61 -20.5t21 -50.5q0 -31 -23.5 -60t-76.5 -46zM676 140h60l-8 -48h-59l-20 -113h-56l21 113h-185l7 30l240 267h47q-7 -30 -18 -92zM499 138h124q13 82 36 182z" />
    <glyph glyph-name="questiondown" unicode="&#xbf;" horiz-adv-x="382" 
d="M236 276h37q-8 -94 -18 -123q-7 -23 -20.5 -34t-41.5 -21q-64 -23 -90 -46.5t-26 -76.5q0 -44 32.5 -72.5t108.5 -28.5q32 0 52 4q0 -42 -17 -63q-10 -14 -42 -14q-77 0 -141.5 49.5t-64.5 124.5q0 64 37.5 106t131.5 81q33 14 41 39q2 5 6 18.5t7.5 27.5t7.5 29z
M329 430q0 -25 -16.5 -42t-40.5 -17q-25 0 -39.5 14.5t-14.5 38.5q1 26 17 43.5t42 17.5q25 0 38.5 -14.5t13.5 -40.5z" />
    <glyph glyph-name="Agrave" unicode="&#xc0;" horiz-adv-x="633" 
d="M220 -1q-98 2 -132 2q-21 0 -113 -2l7 36q44 4 62 20q20 18 65 97l278 493h49l82 -498q13 -81 27 -95q13 -11 61 -17l-9 -36q-90 2 -120 2q-19 0 -131 -2l7 36q52 6 70 14q22 8 22 31q0 25 -8 70l-15 91h-203l-46 -88q-38 -72 -38 -87t18 -21q17 -5 74 -10zM243 287h174
q-31 191 -39 249q-43 -84 -135 -249zM481 706l-22 -25l-122 86q-32 22 -32 46q1 16 12.5 28t26.5 12q18 0 44 -32z" />
    <glyph glyph-name="Aacute" unicode="&#xc1;" horiz-adv-x="633" 
d="M220 -1q-98 2 -132 2q-21 0 -113 -2l7 36q44 4 62 20q20 18 65 97l278 493h49l82 -498q13 -81 27 -95q13 -11 61 -17l-9 -36q-90 2 -120 2q-19 0 -131 -2l7 36q52 6 70 14q22 8 22 31q0 25 -8 70l-15 91h-203l-46 -88q-38 -72 -38 -87t18 -21q17 -5 74 -10zM243 287h174
q-31 191 -39 249q-43 -84 -135 -249zM375 681l-18 26l122 107q30 26 46 26q14 0 24.5 -12t10.5 -28q0 -20 -43 -44z" />
    <glyph glyph-name="Acircumflex" unicode="&#xc2;" horiz-adv-x="633" 
d="M220 -1q-98 2 -132 2q-21 0 -113 -2l7 36q44 4 62 20q20 18 65 97l278 493h49l82 -498q13 -81 27 -95q13 -11 61 -17l-9 -36q-90 2 -120 2q-19 0 -131 -2l7 36q52 6 70 14q22 8 22 31q0 25 -8 70l-15 91h-203l-46 -88q-38 -72 -38 -87t18 -21q17 -5 74 -10zM243 287h174
q-31 191 -39 249q-43 -84 -135 -249zM558 695l-24 -21l-103 86l-132 -85l-21 24l134 126q21 19 32 19q16 0 28 -19z" />
    <glyph glyph-name="Atilde" unicode="&#xc3;" horiz-adv-x="633" 
d="M220 -1q-98 2 -132 2q-21 0 -113 -2l7 36q44 4 62 20q20 18 65 97l278 493h49l82 -498q13 -81 27 -95q13 -11 61 -17l-9 -36q-90 2 -120 2q-19 0 -131 -2l7 36q52 6 70 14q22 8 22 31q0 25 -8 70l-15 91h-203l-46 -88q-38 -72 -38 -87t18 -21q17 -5 74 -10zM243 287h174
q-31 191 -39 249q-43 -84 -135 -249zM315 696l-29 11q37 98 96 98q21 0 51 -14l25 -12q25 -12 43 -12q13 0 24 10.5t27 37.5l29 -12q-38 -97 -89 -97q-20 0 -57 17l-23 10q-26 10 -43 10q-14 0 -24.5 -10t-29.5 -37z" />
    <glyph glyph-name="Adieresis" unicode="&#xc4;" horiz-adv-x="633" 
d="M220 -1q-98 2 -132 2q-21 0 -113 -2l7 36q44 4 62 20q20 18 65 97l278 493h49l82 -498q13 -81 27 -95q13 -11 61 -17l-9 -36q-90 2 -120 2q-19 0 -131 -2l7 36q52 6 70 14q22 8 22 31q0 25 -8 70l-15 91h-203l-46 -88q-38 -72 -38 -87t18 -21q17 -5 74 -10zM243 287h174
q-31 191 -39 249q-43 -84 -135 -249zM380 754q0 -22 -13 -37t-33 -15q-40 0 -40 43q0 24 14.5 38.5t33.5 14.5q18 0 28 -12.5t10 -31.5zM540 754q0 -23 -12.5 -37.5t-33.5 -14.5q-40 0 -40 43q0 24 14 38.5t34 14.5q38 0 38 -44z" />
    <glyph glyph-name="Aring" unicode="&#xc5;" horiz-adv-x="633" 
d="M220 -1q-98 2 -132 2q-21 0 -113 -2l7 36q44 4 62 20q20 18 65 97l278 493h49l82 -498q13 -81 27 -95q13 -11 61 -17l-9 -36q-90 2 -120 2q-19 0 -131 -2l7 36q52 6 70 14q22 8 22 31q0 25 -8 70l-15 91h-203l-46 -88q-38 -72 -38 -87t18 -21q17 -5 74 -10zM243 287h174
q-31 191 -39 249q-43 -84 -135 -249zM508 764q0 -41 -26.5 -69t-64.5 -28q-35 0 -57.5 23.5t-22.5 61.5q1 41 27.5 69t64.5 28q37 0 58 -22.5t21 -62.5zM471 763q0 23 -13 36.5t-32 13.5q-21 0 -36 -15.5t-15 -42.5q0 -23 12 -37t33 -14q22 0 36 16.5t15 42.5z" />
    <glyph glyph-name="AE" unicode="&#xc6;" horiz-adv-x="932" 
d="M232 -1q-94 2 -143 2q-26 0 -118 -2l7 36q45 4 63 18q34 24 95 100l310 376q29 36 29 51q0 12 -18 16q-31 7 -70 9l7 38h464q36 0 44.5 -6t8.5 -24q0 -36 -17 -128h-36q-5 85 -17 95t-33.5 14t-83.5 4q-33 0 -81 -2l-44 -244h9q77 0 105.5 3.5t42.5 14.5q12 9 32 65h36
q-17 -72 -38 -212h-35q-2 59 -9 69q-8 10 -36 12.5t-104 2.5h-11l-37 -197q-4 -20 -4 -31q0 -21 21 -26q35 -7 74 -7q123 0 152 27q20 18 65 103l31 -7q-24 -106 -43 -143q-8 -16 -23 -21t-47 -5h-406l6 35q68 3 78 16q10 14 21 71l22 121h-222l-76 -96q-27 -36 -40 -55
q-10 -17 -10 -28q0 -14 21 -20q10 -3 65 -9zM316 288h193l51 277q2 10 2 18q0 6 -6 6q-7 0 -13 -9q-17 -20 -48 -60.5t-82 -106.5t-97 -125z" />
    <glyph glyph-name="Ccedilla" unicode="&#xc7;" horiz-adv-x="635" 
d="M213 -270l-7 38q113 30 114 76q0 27 -38 50q-18 11 -18 27q0 19 26 67q-109 9 -171 82.5t-62 185.5q0 177 107.5 289.5t282.5 112.5q95 0 152 -21q23 -9 23 -44q0 -60 -4 -122l-35 -2q-13 69 -26 95q-7 19 -30 29q-38 15 -93 15q-127 0 -209.5 -96t-82.5 -246
q0 -111 51.5 -170.5t150.5 -59.5q86 0 123 29q29 21 79 112l33 -7q-11 -55 -44 -130q-10 -22 -38 -31q-58 -21 -170 -23q-12 -22 -12 -35q0 -12 14 -20q56 -31 56 -70q0 -54 -50 -85.5t-122 -45.5z" />
    <glyph glyph-name="Egrave" unicode="&#xc8;" horiz-adv-x="547" 
d="M509 168q-24 -96 -45 -142q-7 -16 -22 -21t-47 -5h-404l6 34q59 5 73 14q8 5 12 16.5t10 47.5l76 419q6 33 6 43q0 15 -11 21q-6 4 -74 13l7 35h377q35 0 44 -6t9 -23q0 -11 -7.5 -59.5t-11.5 -66.5h-33q-6 80 -18 91q-11 11 -33.5 14.5t-85.5 3.5q-33 0 -79 -2l-44 -242
h8q77 0 106.5 3.5t42.5 14.5q13 10 32 64h35q-27 -131 -37 -209h-34q0 58 -10 69q-9 10 -35 12t-105 2h-11l-37 -201q-4 -20 -4 -32q0 -11 4 -15.5t16 -7.5q30 -7 78 -7q115 0 146 25q22 18 69 104zM399 705l-22 -25l-122 86q-32 22 -32 46q1 16 12.5 28t26.5 12
q18 0 44 -32z" />
    <glyph glyph-name="Eacute" unicode="&#xc9;" horiz-adv-x="547" 
d="M509 168q-24 -96 -45 -142q-7 -16 -22 -21t-47 -5h-404l6 34q59 5 73 14q8 5 12 16.5t10 47.5l76 419q6 33 6 43q0 15 -11 21q-6 4 -74 13l7 35h377q35 0 44 -6t9 -23q0 -11 -7.5 -59.5t-11.5 -66.5h-33q-6 80 -18 91q-11 11 -33.5 14.5t-85.5 3.5q-33 0 -79 -2l-44 -242
h8q77 0 106.5 3.5t42.5 14.5q13 10 32 64h35q-27 -131 -37 -209h-34q0 58 -10 69q-9 10 -35 12t-105 2h-11l-37 -201q-4 -20 -4 -32q0 -11 4 -15.5t16 -7.5q30 -7 78 -7q115 0 146 25q22 18 69 104zM301 681l-18 26l122 107q30 26 46 26q14 0 24.5 -12t10.5 -28
q0 -20 -43 -44z" />
    <glyph glyph-name="Ecircumflex" unicode="&#xca;" horiz-adv-x="547" 
d="M509 168q-24 -96 -45 -142q-7 -16 -22 -21t-47 -5h-404l6 34q59 5 73 14q8 5 12 16.5t10 47.5l76 419q6 33 6 43q0 15 -11 21q-6 4 -74 13l7 35h377q35 0 44 -6t9 -23q0 -11 -7.5 -59.5t-11.5 -66.5h-33q-6 80 -18 91q-11 11 -33.5 14.5t-85.5 3.5q-33 0 -79 -2l-44 -242
h8q77 0 106.5 3.5t42.5 14.5q13 10 32 64h35q-27 -131 -37 -209h-34q0 58 -10 69q-9 10 -35 12t-105 2h-11l-37 -201q-4 -20 -4 -32q0 -11 4 -15.5t16 -7.5q30 -7 78 -7q115 0 146 25q22 18 69 104zM481 695l-24 -21l-103 86l-132 -85l-21 24l134 126q21 19 32 19
q16 0 28 -19z" />
    <glyph glyph-name="Edieresis" unicode="&#xcb;" horiz-adv-x="547" 
d="M509 168q-24 -96 -45 -142q-7 -16 -22 -21t-47 -5h-404l6 34q59 5 73 14q8 5 12 16.5t10 47.5l76 419q6 33 6 43q0 15 -11 21q-6 4 -74 13l7 35h377q35 0 44 -6t9 -23q0 -11 -7.5 -59.5t-11.5 -66.5h-33q-6 80 -18 91q-11 11 -33.5 14.5t-85.5 3.5q-33 0 -79 -2l-44 -242
h8q77 0 106.5 3.5t42.5 14.5q13 10 32 64h35q-27 -131 -37 -209h-34q0 58 -10 69q-9 10 -35 12t-105 2h-11l-37 -201q-4 -20 -4 -32q0 -11 4 -15.5t16 -7.5q30 -7 78 -7q115 0 146 25q22 18 69 104zM320 754q0 -22 -13 -37t-33 -15q-40 0 -40 43q0 24 14.5 38.5t33.5 14.5
q18 0 28 -12.5t10 -31.5zM480 754q0 -23 -12.5 -37.5t-33.5 -14.5q-40 0 -40 43q0 24 14 38.5t34 14.5q38 0 38 -44z" />
    <glyph glyph-name="Igrave" unicode="&#xcc;" horiz-adv-x="306" 
d="M246 -1q-76 2 -132 2q-36 0 -124 -2l7 36q67 5 77 15q9 14 18 65l77 419q5 27 5 40q0 18 -18 24q-26 6 -67 10l7 36q88 -2 131 -2q42 0 126 2l-7 -36q-69 -5 -80 -16t-19 -55l-78 -426q-5 -25 -5 -45q0 -16 15 -21q21 -5 74 -10zM293 705l-22 -25l-122 86q-32 22 -32 46
q1 16 12.5 28t26.5 12q18 0 44 -32z" />
    <glyph glyph-name="Iacute" unicode="&#xcd;" horiz-adv-x="306" 
d="M246 -1q-76 2 -132 2q-36 0 -124 -2l7 36q67 5 77 15q9 14 18 65l77 419q5 27 5 40q0 18 -18 24q-26 6 -67 10l7 36q88 -2 131 -2q42 0 126 2l-7 -36q-69 -5 -80 -16t-19 -55l-78 -426q-5 -25 -5 -45q0 -16 15 -21q21 -5 74 -10zM199 681l-18 26l122 107q30 26 46 26
q14 0 24.5 -12t10.5 -28q0 -20 -43 -44z" />
    <glyph glyph-name="Icircumflex" unicode="&#xce;" horiz-adv-x="306" 
d="M246 -1q-76 2 -132 2q-36 0 -124 -2l7 36q67 5 77 15q9 14 18 65l77 419q5 27 5 40q0 18 -18 24q-26 6 -67 10l7 36q88 -2 131 -2q42 0 126 2l-7 -36q-69 -5 -80 -16t-19 -55l-78 -426q-5 -25 -5 -45q0 -16 15 -21q21 -5 74 -10zM382 695l-24 -21l-103 86l-132 -85
l-21 24l134 126q21 19 32 19q16 0 28 -19z" />
    <glyph glyph-name="Idieresis" unicode="&#xcf;" horiz-adv-x="306" 
d="M246 -1q-76 2 -132 2q-36 0 -124 -2l7 36q67 5 77 15q9 14 18 65l77 419q5 27 5 40q0 18 -18 24q-26 6 -67 10l7 36q88 -2 131 -2q42 0 126 2l-7 -36q-69 -5 -80 -16t-19 -55l-78 -426q-5 -25 -5 -45q0 -16 15 -21q21 -5 74 -10zM212 754q0 -22 -13 -37t-33 -15
q-40 0 -40 43q0 24 14.5 38.5t33.5 14.5q18 0 28 -12.5t10 -31.5zM372 754q0 -23 -12.5 -37.5t-33.5 -14.5q-40 0 -40 43q0 24 14 38.5t34 14.5q38 0 38 -44z" />
    <glyph glyph-name="Eth" unicode="&#xd0;" horiz-adv-x="669" 
d="M28 308l9 47h99l33 178l6 39q0 16 -17 23q-14 6 -69 13l7 35h136q139 0 207 -14t115 -45q91 -61 91 -206q0 -179 -104 -279.5t-286 -100.5q-10 0 -73 1.5t-78 1.5q-20 0 -114 -2l7 36q60 6 70 12l6 4q9 7 18 54l37 203h-100zM168 106q-4 -18 -4 -30t4 -17t16 -6
q36 -5 96 -5q129 0 203.5 90t74.5 230q0 143 -88 192q-68 38 -212 38l-45 -243h172l-10 -47h-170z" />
    <glyph glyph-name="Ntilde" unicode="&#xd1;" horiz-adv-x="698" 
d="M225 -1q-90 2 -126 2q-4 0 -110 -2l7 35q65 5 78 20q9 11 22 80q65 339 70 372q8 53 8 67q0 19 -30 26q-20 5 -57 9l7 36q46 -2 88 -2q40 0 70 2q255 -470 276 -509q54 299 65 369q8 52 8 70q0 17 -16 23q-21 7 -69 11l6 36q102 -2 121 -2q9 0 113 2l-8 -36
q-65 -7 -77 -17q-10 -10 -24 -82q-11 -57 -34 -183.5t-29 -161.5q-4 -19 -29 -167h-44q-48 103 -292 540q-13 -73 -39.5 -227.5t-29.5 -173.5q-8 -49 -8 -69q0 -19 23 -24q28 -5 67 -9zM326 696l-29 11q37 98 96 98q21 0 51 -14l25 -12q26 -12 43 -12q14 0 24.5 10.5
t26.5 37.5l29 -12q-38 -97 -89 -97q-20 0 -57 17l-23 10q-26 10 -43 10q-14 0 -24.5 -10t-29.5 -37z" />
    <glyph glyph-name="Ograve" unicode="&#xd2;" horiz-adv-x="673" 
d="M649 383q0 -169 -89 -279q-45 -56 -107.5 -87t-132.5 -31q-131 0 -197 79.5t-66 206.5q0 169 109 288q43 48 104 72.5t124 24.5q126 0 190.5 -73.5t64.5 -200.5zM565 376q0 231 -178 231q-101 0 -169 -89q-34 -44 -55.5 -110t-21.5 -138q0 -112 45.5 -173t136.5 -61
q107 0 176 99q32 45 49 110.5t17 130.5zM483 705l-22 -25l-122 86q-32 22 -32 46q1 16 12.5 28t26.5 12q18 0 44 -32z" />
    <glyph glyph-name="Oacute" unicode="&#xd3;" horiz-adv-x="673" 
d="M649 383q0 -169 -89 -279q-45 -56 -107.5 -87t-132.5 -31q-131 0 -197 79.5t-66 206.5q0 169 109 288q43 48 104 72.5t124 24.5q126 0 190.5 -73.5t64.5 -200.5zM565 376q0 231 -178 231q-101 0 -169 -89q-34 -44 -55.5 -110t-21.5 -138q0 -112 45.5 -173t136.5 -61
q107 0 176 99q32 45 49 110.5t17 130.5zM364 681l-18 26l122 107q30 26 46 26q14 0 24.5 -12t10.5 -28q0 -20 -43 -44z" />
    <glyph glyph-name="Ocircumflex" unicode="&#xd4;" horiz-adv-x="673" 
d="M649 383q0 -169 -89 -279q-45 -56 -107.5 -87t-132.5 -31q-131 0 -197 79.5t-66 206.5q0 169 109 288q43 48 104 72.5t124 24.5q126 0 190.5 -73.5t64.5 -200.5zM565 376q0 231 -178 231q-101 0 -169 -89q-34 -44 -55.5 -110t-21.5 -138q0 -112 45.5 -173t136.5 -61
q107 0 176 99q32 45 49 110.5t17 130.5zM556 695l-24 -21l-103 86l-132 -85l-21 24l134 126q21 19 32 19q16 0 28 -19z" />
    <glyph glyph-name="Otilde" unicode="&#xd5;" horiz-adv-x="673" 
d="M649 383q0 -169 -89 -279q-45 -56 -107.5 -87t-132.5 -31q-131 0 -197 79.5t-66 206.5q0 169 109 288q43 48 104 72.5t124 24.5q126 0 190.5 -73.5t64.5 -200.5zM565 376q0 231 -178 231q-101 0 -169 -89q-34 -44 -55.5 -110t-21.5 -138q0 -112 45.5 -173t136.5 -61
q107 0 176 99q32 45 49 110.5t17 130.5zM301 696l-29 11q37 98 96 98q21 0 51 -14l25 -12q26 -12 43 -12q13 0 24 10.5t27 37.5l29 -12q-38 -97 -89 -97q-20 0 -57 17l-23 10q-26 10 -43 10q-14 0 -24.5 -10t-29.5 -37z" />
    <glyph glyph-name="Odieresis" unicode="&#xd6;" horiz-adv-x="673" 
d="M649 383q0 -169 -89 -279q-45 -56 -107.5 -87t-132.5 -31q-131 0 -197 79.5t-66 206.5q0 169 109 288q43 48 104 72.5t124 24.5q126 0 190.5 -73.5t64.5 -200.5zM565 376q0 231 -178 231q-101 0 -169 -89q-34 -44 -55.5 -110t-21.5 -138q0 -112 45.5 -173t136.5 -61
q107 0 176 99q32 45 49 110.5t17 130.5zM383 754q0 -22 -13 -37t-33 -15q-40 0 -40 43q0 24 14.5 38.5t33.5 14.5q18 0 28 -12.5t10 -31.5zM543 754q0 -23 -12.5 -37.5t-33.5 -14.5q-40 0 -40 43q0 24 14 38.5t34 14.5q38 0 38 -44z" />
    <glyph glyph-name="multiply" unicode="&#xd7;" horiz-adv-x="568" 
d="M444 153l-44 -38l-107 142l-160 -140l-33 43l162 142l-106 141l46 38l105 -140l159 141l34 -44l-162 -142z" />
    <glyph glyph-name="Oslash" unicode="&#xd8;" horiz-adv-x="673" 
d="M89 -21l-34 29l58 69q-56 73 -56 195q0 169 109 288q43 48 104 72.5t124 24.5q98 0 161 -47l63 75l35 -31l-64 -76q60 -72 60 -195q0 -169 -89 -279q-45 -56 -107.5 -87t-132.5 -31q-111 0 -177 58zM565 376q0 87 -26 142l-352 -422q46 -60 136 -60q106 0 176 98
q66 94 66 242zM141 271q0 -80 22 -133l350 420q-45 50 -126 50q-102 0 -169 -88q-34 -44 -55.5 -110.5t-21.5 -138.5z" />
    <glyph glyph-name="Ugrave" unicode="&#xd9;" horiz-adv-x="682" 
d="M733 608q-71 -6 -80 -21q-9 -16 -17 -61l-43 -235q-17 -94 -36.5 -145.5t-51.5 -84.5q-73 -76 -211 -76q-89 0 -145.5 40.5t-56.5 130.5q0 46 18 140q8 40 23.5 122t22.5 116q5 22 5 40q0 19 -15 24t-68 10l7 36q72 -2 138 -2q41 0 121 2l-7 -36q-71 -5 -84 -18
q-9 -8 -18 -51q-8 -40 -45 -239q-16 -83 -16 -130q0 -130 147 -130q113 0 164 69q36 50 64 209q8 45 34 215q4 32 4 42q0 19 -24 24q-19 4 -62 9l6 36q74 -2 117 -2q48 0 116 2zM486 705l-22 -25l-122 86q-32 22 -32 46q1 16 12.5 28t26.5 12q18 0 44 -32z" />
    <glyph glyph-name="Uacute" unicode="&#xda;" horiz-adv-x="682" 
d="M733 608q-71 -6 -80 -21q-9 -16 -17 -61l-43 -235q-17 -94 -36.5 -145.5t-51.5 -84.5q-73 -76 -211 -76q-89 0 -145.5 40.5t-56.5 130.5q0 46 18 140q8 40 23.5 122t22.5 116q5 22 5 40q0 19 -15 24t-68 10l7 36q72 -2 138 -2q41 0 121 2l-7 -36q-71 -5 -84 -18
q-9 -8 -18 -51q-8 -40 -45 -239q-16 -83 -16 -130q0 -130 147 -130q113 0 164 69q36 50 64 209q8 45 34 215q4 32 4 42q0 19 -24 24q-19 4 -62 9l6 36q74 -2 117 -2q48 0 116 2zM387 681l-18 26l122 107q30 26 46 26q14 0 24.5 -12t10.5 -28q0 -20 -43 -44z" />
    <glyph glyph-name="Ucircumflex" unicode="&#xdb;" horiz-adv-x="682" 
d="M733 608q-71 -6 -80 -21q-9 -16 -17 -61l-43 -235q-17 -94 -36.5 -145.5t-51.5 -84.5q-73 -76 -211 -76q-89 0 -145.5 40.5t-56.5 130.5q0 46 18 140q8 40 23.5 122t22.5 116q5 22 5 40q0 19 -15 24t-68 10l7 36q72 -2 138 -2q41 0 121 2l-7 -36q-71 -5 -84 -18
q-9 -8 -18 -51q-8 -40 -45 -239q-16 -83 -16 -130q0 -130 147 -130q113 0 164 69q36 50 64 209q8 45 34 215q4 32 4 42q0 19 -24 24q-19 4 -62 9l6 36q74 -2 117 -2q48 0 116 2zM573 695l-24 -21l-103 86l-132 -85l-21 24l134 126q21 19 32 19q16 0 28 -19z" />
    <glyph glyph-name="Udieresis" unicode="&#xdc;" horiz-adv-x="682" 
d="M733 608q-71 -6 -80 -21q-9 -16 -17 -61l-43 -235q-17 -94 -36.5 -145.5t-51.5 -84.5q-73 -76 -211 -76q-89 0 -145.5 40.5t-56.5 130.5q0 46 18 140q8 40 23.5 122t22.5 116q5 22 5 40q0 19 -15 24t-68 10l7 36q72 -2 138 -2q41 0 121 2l-7 -36q-71 -5 -84 -18
q-9 -8 -18 -51q-8 -40 -45 -239q-16 -83 -16 -130q0 -130 147 -130q113 0 164 69q36 50 64 209q8 45 34 215q4 32 4 42q0 19 -24 24q-19 4 -62 9l6 36q74 -2 117 -2q48 0 116 2zM393 754q0 -22 -13 -37t-33 -15q-40 0 -40 43q0 24 14.5 38.5t33.5 14.5q18 0 28 -12.5
t10 -31.5zM553 754q0 -23 -12.5 -37.5t-33.5 -14.5q-40 0 -40 43q0 24 14 38.5t34 14.5q38 0 38 -44z" />
    <glyph glyph-name="Yacute" unicode="&#xdd;" horiz-adv-x="590" 
d="M383 -1q-96 2 -130 2q-25 0 -127 -2l6 36q69 4 82 20q8 9 15 47l30 165l-103 261q-22 57 -33 66q-10 9 -55 14l7 36q55 -2 117 -2q73 0 127 2l-6 -36q-42 -3 -62 -6q-26 -5 -26 -19q0 -23 27 -94l67 -169l136 181q52 68 52 86q0 11 -12 14q-15 4 -61 7l7 36q46 -2 117 -2
q50 0 93 2l-7 -36q-33 -4 -45 -13q-16 -12 -79 -91l-186 -236l-28 -164q-4 -21 -4 -39q0 -17 17 -21q28 -5 71 -9zM359 681l-18 26l122 107q30 26 46 26q14 0 24.5 -12t10.5 -28q0 -20 -43 -44z" />
    <glyph glyph-name="Thorn" unicode="&#xde;" horiz-adv-x="549" 
d="M248 -1q-94 2 -125 2q-35 0 -133 -2l7 36q54 5 69 12q10 4 15 17t11 50l76 416q6 32 6 44q0 13 -6 17.5t-20 8.5q-24 5 -60 8l7 36q88 -2 133 -2q40 0 124 2l-8 -36q-66 -4 -80 -16q-7 -6 -18 -55l-4 -22q18 1 58 1q62 0 112 -10q58 -13 90 -52t32 -96q0 -76 -39.5 -127
t-99.5 -72t-137 -21q-55 0 -84 4l-6 -31q-5 -30 -5 -43q0 -20 21 -24q19 -4 71 -9zM182 190q22 -3 74 -3q193 0 193 162q0 83 -71 106q-39 13 -99 13q-32 0 -45 -1z" />
    <glyph glyph-name="germandbls" unicode="&#xdf;" horiz-adv-x="520" 
d="M201 87q13 -22 44.5 -35.5t60.5 -13.5q41 0 67 19.5t26 55.5q0 45 -60 105q-39 38 -64 66q-23 28 -23 55q0 16 11.5 33.5t24 29t38.5 32.5q47 38 65.5 55t36.5 46t18 60q0 38 -22 59.5t-63 21.5q-103 0 -133 -125q-9 -40 -23.5 -113.5t-37 -191t-43.5 -221.5
q-23 -113 -55 -175q-28 -55 -72 -88.5t-99 -33.5q-16 0 -29 7t-13 21q0 23 14 45q25 -7 47 -7q45 0 67 20.5t43 83.5q12 35 34 169q3 17 11.5 61.5t21.5 112.5t23 119q-51 3 -69 7l6 33q5 2 19 4.5t19 3.5q22 4 27 8q9 7 13 25q18 85 36 127.5t43 74.5q69 88 172 88
q63 0 96.5 -36.5t33.5 -88.5q0 -53 -26.5 -90t-82.5 -77q-44 -31 -61 -47t-17 -32q0 -14 10 -27q5 -7 15 -17t27 -26.5t32 -32.5q59 -64 59 -116q0 -68 -54.5 -110.5t-130.5 -42.5q-65 0 -94 21q-20 14 -20 32q1 19 31 46z" />
    <glyph glyph-name="agrave" unicode="&#xe0;" horiz-adv-x="472" 
d="M450 54q-85 -63 -138 -63q-19 0 -27 11t-8 39q0 18 2 34q-102 -86 -178 -86q-75 0 -75 91q0 70 32 148t85 130q65 65 169 65q33 0 57 -4l14 32l48 -7l-60 -239q-20 -82 -20 -124q0 -24 15 -24q22 0 70 24zM281 109l56 229q2 10 2 16q0 10 -12 14q-17 6 -50 6
q-64 0 -104 -59q-34 -48 -53 -106.5t-19 -107.5q0 -22 11 -34.5t29 -12.5q55 0 140 55zM352 520l-27 -20l-99 113q-24 28 -24 47q0 15 12.5 26t27.5 11q12 0 20.5 -8.5t20.5 -32.5z" />
    <glyph glyph-name="aacute" unicode="&#xe1;" horiz-adv-x="472" 
d="M450 54q-85 -63 -138 -63q-19 0 -27 11t-8 39q0 18 2 34q-102 -86 -178 -86q-75 0 -75 91q0 70 32 148t85 130q65 65 169 65q33 0 57 -4l14 32l48 -7l-60 -239q-20 -82 -20 -124q0 -24 15 -24q22 0 70 24zM281 109l56 229q2 10 2 16q0 10 -12 14q-17 6 -50 6
q-64 0 -104 -59q-34 -48 -53 -106.5t-19 -107.5q0 -22 11 -34.5t29 -12.5q55 0 140 55zM289 500l-21 22l110 128q18 22 27 28.5t21 6.5q14 0 24 -9.5t10 -26.5q0 -19 -38 -49z" />
    <glyph glyph-name="acircumflex" unicode="&#xe2;" horiz-adv-x="472" 
d="M450 54q-85 -63 -138 -63q-19 0 -27 11t-8 39q0 18 2 34q-102 -86 -178 -86q-75 0 -75 91q0 70 32 148t85 130q65 65 169 65q33 0 57 -4l14 32l48 -7l-60 -239q-20 -82 -20 -124q0 -24 15 -24q22 0 70 24zM281 109l56 229q2 10 2 16q0 10 -12 14q-17 6 -50 6
q-64 0 -104 -59q-34 -48 -53 -106.5t-19 -107.5q0 -22 11 -34.5t29 -12.5q55 0 140 55zM433 505l-24 -18l-89 104l-125 -104l-22 21l129 143q18 19 29 19q19 0 28 -19z" />
    <glyph glyph-name="atilde" unicode="&#xe3;" horiz-adv-x="472" 
d="M450 54q-85 -63 -138 -63q-19 0 -27 11t-8 39q0 18 2 34q-102 -86 -178 -86q-75 0 -75 91q0 70 32 148t85 130q65 65 169 65q33 0 57 -4l14 32l48 -7l-60 -239q-20 -82 -20 -124q0 -24 15 -24q22 0 70 24zM281 109l56 229q2 10 2 16q0 10 -12 14q-17 6 -50 6
q-64 0 -104 -59q-34 -48 -53 -106.5t-19 -107.5q0 -22 11 -34.5t29 -12.5q55 0 140 55zM206 517l-26 12q39 98 93 98q19 0 49 -13l23 -11q29 -13 40 -13q23 0 51 48l26 -13q-40 -97 -85 -97q-18 0 -55 16l-22 10q-24 10 -39 10q-14 0 -26 -10.5t-29 -36.5z" />
    <glyph glyph-name="adieresis" unicode="&#xe4;" horiz-adv-x="472" 
d="M450 54q-85 -63 -138 -63q-19 0 -27 11t-8 39q0 18 2 34q-102 -86 -178 -86q-75 0 -75 91q0 70 32 148t85 130q65 65 169 65q33 0 57 -4l14 32l48 -7l-60 -239q-20 -82 -20 -124q0 -24 15 -24q22 0 70 24zM281 109l56 229q2 10 2 16q0 10 -12 14q-17 6 -50 6
q-64 0 -104 -59q-34 -48 -53 -106.5t-19 -107.5q0 -22 11 -34.5t29 -12.5q55 0 140 55zM302 594q-1 -23 -13 -38t-32 -15q-18 0 -29 12.5t-11 32.5q0 25 13.5 39t33.5 14q38 0 38 -45zM450 594q-1 -23 -13 -38t-33 -15q-19 0 -29.5 12.5t-10.5 32.5q1 25 14.5 39t33.5 14
q18 0 28 -12.5t10 -32.5z" />
    <glyph glyph-name="aring" unicode="&#xe5;" horiz-adv-x="472" 
d="M450 54q-85 -63 -138 -63q-19 0 -27 11t-8 39q0 18 2 34q-102 -86 -178 -86q-75 0 -75 91q0 70 32 148t85 130q65 65 169 65q33 0 57 -4l14 32l48 -7l-60 -239q-20 -82 -20 -124q0 -24 15 -24q22 0 70 24zM281 109l56 229q2 10 2 16q0 10 -12 14q-17 6 -50 6
q-64 0 -104 -59q-34 -48 -53 -106.5t-19 -107.5q0 -22 11 -34.5t29 -12.5q55 0 140 55zM406 591q0 -42 -26 -69.5t-65 -27.5q-35 0 -57.5 23.5t-22.5 61.5q1 40 27.5 68t64.5 28q37 0 58 -22.5t21 -61.5zM369 589q0 24 -13 37.5t-32 13.5q-21 0 -36 -16t-15 -42
q0 -24 12 -38t33 -14q22 0 36 16.5t15 42.5z" />
    <glyph glyph-name="ae" unicode="&#xe6;" horiz-adv-x="617" 
d="M577 70q-50 -38 -103.5 -60t-91.5 -22q-87 0 -96 90q-100 -90 -185 -90q-74 0 -74 92q0 71 32 150.5t86 131.5q63 61 162 61q33 0 58 -5l16 36l45 -6l-17 -61q47 44 109 44q41 0 65 -23t24 -58q0 -62 -59 -97.5t-188 -66.5q-6 -26 -6 -53q0 -86 57 -86q65 0 150 50z
M283 115q6 87 46 213q6 16 6 26q0 12 -10 15q-18 5 -49 5q-61 0 -102 -56q-35 -47 -53 -108t-19 -109q0 -19 9.5 -33t26.5 -14q65 0 145 61zM365 222q170 53 170 117q0 44 -46 44q-34 0 -64 -31q-33 -35 -60 -130z" />
    <glyph glyph-name="ccedilla" unicode="&#xe7;" horiz-adv-x="359" 
d="M42 -260l-6 36q55 15 82.5 32.5t28.5 42.5q0 9 -5 17t-11.5 13.5t-21.5 17.5q-16 11 -16 25q2 21 25 64q-92 4 -92 128q0 65 25 132.5t66 111.5q64 72 154 72q43 0 65 -9q19 -7 19 -25q0 -21 -22 -50q-43 26 -93 26q-47 0 -79 -37q-24 -29 -42 -88t-18 -115q0 -86 58 -86
q67 0 147 48l17 -28q-85 -65 -168 -78q-12 -23 -12 -34q0 -15 13 -22q54 -29 54 -68q0 -52 -49 -82.5t-119 -43.5z" />
    <glyph glyph-name="egrave" unicode="&#xe8;" horiz-adv-x="364" 
d="M326 70q-52 -39 -106.5 -61t-91.5 -22q-101 0 -101 130q0 72 30 149t86 121t122 44q41 0 65 -22.5t24 -58.5q-1 -60 -60.5 -95t-190.5 -67q-4 -17 -4 -56q0 -85 59 -85q68 0 150 50zM108 223q174 53 174 115q0 46 -46 46q-34 0 -64 -30q-37 -36 -64 -131zM300 520
l-27 -20l-99 113q-24 28 -24 47q0 15 12.5 26t27.5 11q12 0 20.5 -8.5t20.5 -32.5z" />
    <glyph glyph-name="eacute" unicode="&#xe9;" horiz-adv-x="364" 
d="M326 70q-52 -39 -106.5 -61t-91.5 -22q-101 0 -101 130q0 72 30 149t86 121t122 44q41 0 65 -22.5t24 -58.5q-1 -60 -60.5 -95t-190.5 -67q-4 -17 -4 -56q0 -85 59 -85q68 0 150 50zM108 223q174 53 174 115q0 46 -46 46q-34 0 -64 -30q-37 -36 -64 -131zM230 500l-21 22
l110 128q18 22 27.5 28.5t20.5 6.5q14 0 24 -9.5t10 -26.5q0 -19 -38 -49z" />
    <glyph glyph-name="ecircumflex" unicode="&#xea;" horiz-adv-x="364" 
d="M326 70q-52 -39 -106.5 -61t-91.5 -22q-101 0 -101 130q0 72 30 149t86 121t122 44q41 0 65 -22.5t24 -58.5q-1 -60 -60.5 -95t-190.5 -67q-4 -17 -4 -56q0 -85 59 -85q68 0 150 50zM108 223q174 53 174 115q0 46 -46 46q-34 0 -64 -30q-37 -36 -64 -131zM393 505
l-24 -18l-89 104l-125 -104l-22 21l129 143q18 19 29 19q19 0 28 -19z" />
    <glyph glyph-name="edieresis" unicode="&#xeb;" horiz-adv-x="364" 
d="M326 70q-52 -39 -106.5 -61t-91.5 -22q-101 0 -101 130q0 72 30 149t86 121t122 44q41 0 65 -22.5t24 -58.5q-1 -60 -60.5 -95t-190.5 -67q-4 -17 -4 -56q0 -85 59 -85q68 0 150 50zM108 223q174 53 174 115q0 46 -46 46q-34 0 -64 -30q-37 -36 -64 -131zM253 594
q-1 -23 -13 -38t-32 -15q-18 0 -29 12.5t-11 32.5q0 25 13.5 39t33.5 14q38 0 38 -45zM401 594q-1 -23 -13 -38t-33 -15q-19 0 -29.5 12.5t-10.5 32.5q1 25 14.5 39t33.5 14q18 0 28 -12.5t10 -32.5z" />
    <glyph glyph-name="igrave" unicode="&#xec;" horiz-adv-x="255" 
d="M209 520l-27 -20l-99 113q-24 28 -24 47q0 15 12.5 26t27.5 11q12 0 20.5 -8.5t20.5 -32.5zM227 53q-82 -62 -140 -62q-35 0 -35 33q0 27 18 103l35 148q13 54 13 82q0 14 -14 14q-15 0 -55 -11l-8 27q80 45 131 45q25 0 25 -30q0 -22 -15 -85l-39 -165q-16 -68 -16 -83
t12 -15q18 0 76 25z" />
    <glyph glyph-name="iacute" unicode="&#xed;" horiz-adv-x="255" 
d="M132 500l-21 22l110 128q18 22 27.5 28.5t20.5 6.5q14 0 24 -9.5t10 -26.5q0 -19 -38 -49zM227 53q-82 -62 -140 -62q-35 0 -35 33q0 27 18 103l35 148q13 54 13 82q0 14 -14 14q-15 0 -55 -11l-8 27q80 45 131 45q25 0 25 -30q0 -22 -15 -85l-39 -165q-16 -68 -16 -83
t12 -15q18 0 76 25z" />
    <glyph glyph-name="icircumflex" unicode="&#xee;" horiz-adv-x="255" 
d="M227 53q-82 -62 -140 -62q-35 0 -35 33q0 27 18 103l35 148q13 54 13 82q0 14 -14 14q-15 0 -55 -11l-8 27q80 45 131 45q25 0 25 -30q0 -22 -15 -85l-39 -165q-16 -68 -16 -83t12 -15q18 0 76 25zM288 505l-24 -18l-89 104l-125 -104l-22 21l129 143q18 19 29 19
q18 0 28 -19z" />
    <glyph glyph-name="idieresis" unicode="&#xef;" horiz-adv-x="255" 
d="M147 594q-1 -23 -13 -38t-32 -15q-18 0 -29 12.5t-11 32.5q0 25 13.5 39t33.5 14q38 0 38 -45zM295 594q-1 -23 -13 -38t-33 -15q-19 0 -29.5 12.5t-10.5 32.5q1 25 14.5 39t33.5 14q18 0 28 -12.5t10 -32.5zM227 53q-82 -62 -140 -62q-35 0 -35 33q0 27 18 103l35 148
q13 54 13 82q0 14 -14 14q-15 0 -55 -11l-8 27q80 45 131 45q25 0 25 -30q0 -22 -15 -85l-39 -165q-16 -68 -16 -83t12 -15q18 0 76 25z" />
    <glyph glyph-name="eth" unicode="&#xf0;" horiz-adv-x="435" 
d="M406 615l-86 -48q78 -114 78 -262q0 -61 -11 -113.5t-35.5 -100.5t-70.5 -75.5t-110 -27.5q-66 0 -105.5 45t-39.5 116q0 116 57 191.5t162 75.5q22 0 46 -8.5t34 -23.5q-11 74 -60 154l-130 -68l-18 37l124 65q-57 71 -141 108l17 37q108 -36 176 -115l94 51zM325 275
q0 99 -82 99q-61 0 -95 -50q-22 -30 -36.5 -85.5t-14.5 -107.5q0 -51 23 -76.5t62 -25.5q60 0 92 49q21 33 36 89t15 108z" />
    <glyph glyph-name="ntilde" unicode="&#xf1;" horiz-adv-x="488" 
d="M106 -3l-63 7l60 268q12 51 15 83q0 16 -12 16q-16 0 -56 -11l-7 27q82 45 131 45q25 0 25 -30q-2 -22 -6 -44q43 35 102 56q43 16 80 16q49 0 49 -49q0 -23 -23 -113l-30 -118q-17 -66 -17 -81q0 -16 10 -16q22 0 78 25l11 -25q-81 -62 -140 -62q-35 0 -35 35
q0 19 17 85l29 114q21 84 21 114q0 28 -31 28q-24 0 -61.5 -12t-68.5 -33zM179 517l-26 12q39 98 93 98q19 0 49 -13l23 -11q29 -13 40 -13q23 0 51 48l26 -13q-40 -97 -85 -97q-18 0 -55 16l-22 10q-24 10 -39 10q-14 0 -26 -10.5t-29 -36.5z" />
    <glyph glyph-name="ograve" unicode="&#xf2;" horiz-adv-x="435" 
d="M398 277q0 -126 -58.5 -208t-164.5 -82q-69 0 -109 44t-40 119q0 120 60.5 201t168.5 81q67 0 105 -41t38 -114zM328 288q0 102 -82 102q-58 0 -94 -51q-23 -32 -39 -90.5t-16 -111.5q0 -55 23 -81.5t61 -26.5q62 0 95 53q22 35 37 93.5t15 112.5zM305 520l-27 -20
l-99 113q-24 28 -24 47q0 15 12.5 26t27.5 11q12 0 20.5 -8.5t20.5 -32.5z" />
    <glyph glyph-name="oacute" unicode="&#xf3;" horiz-adv-x="435" 
d="M398 277q0 -126 -58.5 -208t-164.5 -82q-69 0 -109 44t-40 119q0 120 60.5 201t168.5 81q67 0 105 -41t38 -114zM328 288q0 102 -82 102q-58 0 -94 -51q-23 -32 -39 -90.5t-16 -111.5q0 -55 23 -81.5t61 -26.5q62 0 95 53q22 35 37 93.5t15 112.5zM233 500l-21 22
l110 128q18 22 27 28.5t21 6.5q14 0 24 -9.5t10 -26.5q0 -19 -38 -49z" />
    <glyph glyph-name="ocircumflex" unicode="&#xf4;" horiz-adv-x="435" 
d="M398 277q0 -126 -58.5 -208t-164.5 -82q-69 0 -109 44t-40 119q0 120 60.5 201t168.5 81q67 0 105 -41t38 -114zM328 288q0 102 -82 102q-58 0 -94 -51q-23 -32 -39 -90.5t-16 -111.5q0 -55 23 -81.5t61 -26.5q62 0 95 53q22 35 37 93.5t15 112.5zM396 505l-24 -18
l-89 104l-125 -104l-22 21l129 143q18 19 29 19q18 0 28 -19z" />
    <glyph glyph-name="otilde" unicode="&#xf5;" horiz-adv-x="435" 
d="M398 277q0 -126 -58.5 -208t-164.5 -82q-69 0 -109 44t-40 119q0 120 60.5 201t168.5 81q67 0 105 -41t38 -114zM328 288q0 102 -82 102q-58 0 -94 -51q-23 -32 -39 -90.5t-16 -111.5q0 -55 23 -81.5t61 -26.5q62 0 95 53q22 35 37 93.5t15 112.5zM158 517l-26 12
q39 98 93 98q19 0 49 -13l23 -11q29 -13 40 -13q23 0 51 48l26 -13q-40 -97 -85 -97q-18 0 -55 16l-22 10q-24 10 -39 10q-14 0 -26 -10.5t-29 -36.5z" />
    <glyph glyph-name="odieresis" unicode="&#xf6;" horiz-adv-x="435" 
d="M398 277q0 -126 -58.5 -208t-164.5 -82q-69 0 -109 44t-40 119q0 120 60.5 201t168.5 81q67 0 105 -41t38 -114zM328 288q0 102 -82 102q-58 0 -94 -51q-23 -32 -39 -90.5t-16 -111.5q0 -55 23 -81.5t61 -26.5q62 0 95 53q22 35 37 93.5t15 112.5zM251 594
q-1 -23 -13 -38t-32 -15q-18 0 -29 12.5t-11 32.5q0 25 13.5 39t33.5 14q38 0 38 -45zM399 594q-1 -23 -13 -38t-33 -15q-19 0 -29.5 12.5t-10.5 32.5q1 25 14.5 39t33.5 14q18 0 28 -12.5t10 -32.5z" />
    <glyph glyph-name="divide" unicode="&#xf7;" horiz-adv-x="551" 
d="M366 447q0 -21 -14.5 -35.5t-34.5 -14.5q-17 0 -27.5 11.5t-10.5 29.5q1 22 15 37.5t34 15.5q38 0 38 -44zM494 267h-422l12 59h423zM297 153q0 -21 -14 -36.5t-35 -15.5q-17 0 -26.5 11.5t-9.5 29.5q1 23 14.5 37.5t33.5 14.5q37 0 37 -41z" />
    <glyph glyph-name="oslash" unicode="&#xf8;" horiz-adv-x="435" 
d="M28 -35l-31 28l52 61q-23 40 -23 96q0 120 60.5 201t168.5 81q54 0 91 -28l52 61l33 -28l-56 -66q23 -38 23 -94q0 -126 -58.5 -208t-164.5 -82q-60 0 -99 34zM328 288q0 10 -2 26l-213 -249q22 -36 68 -36q62 0 95 53q22 35 37 93.5t15 112.5zM97 137q0 -17 1 -25
l212 249q-21 29 -64 29q-58 0 -94 -51q-23 -32 -39 -90.5t-16 -111.5z" />
    <glyph glyph-name="ugrave" unicode="&#xf9;" horiz-adv-x="495" 
d="M469 53q-83 -62 -137 -62q-33 0 -33 38q0 22 2 41q-99 -78 -181 -78q-55 0 -55 59q0 35 16 103l26 112q14 65 16 88q0 17 -11 17q-25 0 -59 -11l-7 27q76 45 127 45q29 0 29 -31q0 -20 -17 -91l-27 -112q-20 -78 -20 -105q0 -19 7 -27t27 -8q25 0 63.5 16t69.5 38l66 309
l65 -6l-52 -247q-15 -71 -15 -92q0 -20 16 -20q19 0 72 22zM331 520l-27 -20l-99 113q-24 28 -24 47q0 15 12.5 26t27.5 11q12 0 20.5 -8.5t20.5 -32.5z" />
    <glyph glyph-name="uacute" unicode="&#xfa;" horiz-adv-x="495" 
d="M469 53q-83 -62 -137 -62q-33 0 -33 38q0 22 2 41q-99 -78 -181 -78q-55 0 -55 59q0 35 16 103l26 112q14 65 16 88q0 17 -11 17q-25 0 -59 -11l-7 27q76 45 127 45q29 0 29 -31q0 -20 -17 -91l-27 -112q-20 -78 -20 -105q0 -19 7 -27t27 -8q25 0 63.5 16t69.5 38l66 309
l65 -6l-52 -247q-15 -71 -15 -92q0 -20 16 -20q19 0 72 22zM262 500l-21 22l110 128q18 22 27.5 28.5t20.5 6.5q14 0 24 -9.5t10 -26.5q0 -19 -38 -49z" />
    <glyph glyph-name="ucircumflex" unicode="&#xfb;" horiz-adv-x="495" 
d="M469 53q-83 -62 -137 -62q-33 0 -33 38q0 22 2 41q-99 -78 -181 -78q-55 0 -55 59q0 35 16 103l26 112q14 65 16 88q0 17 -11 17q-25 0 -59 -11l-7 27q76 45 127 45q29 0 29 -31q0 -20 -17 -91l-27 -112q-20 -78 -20 -105q0 -19 7 -27t27 -8q25 0 63.5 16t69.5 38l66 309
l65 -6l-52 -247q-15 -71 -15 -92q0 -20 16 -20q19 0 72 22zM417 505l-24 -18l-89 104l-125 -104l-22 21l129 143q18 19 29 19q19 0 28 -19z" />
    <glyph glyph-name="udieresis" unicode="&#xfc;" horiz-adv-x="495" 
d="M469 53q-83 -62 -137 -62q-33 0 -33 38q0 22 2 41q-99 -78 -181 -78q-55 0 -55 59q0 35 16 103l26 112q14 65 16 88q0 17 -11 17q-25 0 -59 -11l-7 27q76 45 127 45q29 0 29 -31q0 -20 -17 -91l-27 -112q-20 -78 -20 -105q0 -19 7 -27t27 -8q25 0 63.5 16t69.5 38l66 309
l65 -6l-52 -247q-15 -71 -15 -92q0 -20 16 -20q19 0 72 22zM275 594q-1 -23 -13 -38t-32 -15q-18 0 -29 12.5t-11 32.5q0 25 13.5 39t33.5 14q38 0 38 -45zM423 594q-1 -23 -13 -38t-33 -15q-19 0 -29.5 12.5t-10.5 32.5q1 25 14.5 39t33.5 14q18 0 28 -12.5t10 -32.5z" />
    <glyph glyph-name="yacute" unicode="&#xfd;" horiz-adv-x="491" 
d="M442 418l-88 -416q-27 -129 -95.5 -200t-165.5 -71q-34 0 -58.5 10t-24.5 28q0 26 20 54q38 -27 109 -27q46 0 75 30t52 112q8 28 35 136q-41 -37 -96 -63q-42 -19 -81 -19q-58 0 -58 61q0 36 15 101l27 115q14 55 16 86q0 16 -12 16q-24 0 -58 -11l-8 27q36 21 72.5 33
t52.5 12q32 0 32 -28q0 -19 -17 -91l-25 -104q-22 -88 -22 -113q0 -21 7.5 -29.5t28.5 -8.5q49 0 133 58l68 308zM264 500l-21 22l110 128q18 22 27.5 28.5t20.5 6.5q14 0 24 -9.5t10 -26.5q0 -19 -38 -49z" />
    <glyph glyph-name="thorn" unicode="&#xfe;" horiz-adv-x="462" 
d="M38 -264l-63 8l181 821q14 60 14 82q0 15 -13 15q-10 0 -57 -7l-6 28q92 45 137 45q24 0 24 -26q0 -23 -18 -103q-5 -21 -13 -55t-21.5 -88t-24.5 -100q92 73 173 73q75 0 75 -99q0 -74 -31 -150.5t-87 -126.5q-32 -29 -66 -42.5t-87 -13.5q-25 0 -55 3zM172 320
l-54 -238q-2 -10 -2 -14q0 -12 10 -15q23 -7 47 -7q75 0 114 57q33 49 49.5 105.5t16.5 99.5q0 28 -12.5 43t-32.5 15q-65 0 -136 -46z" />
    <glyph glyph-name="ydieresis" unicode="&#xff;" horiz-adv-x="491" 
d="M442 418l-88 -416q-27 -129 -95.5 -200t-165.5 -71q-34 0 -58.5 10t-24.5 28q0 26 20 54q38 -27 109 -27q46 0 75 30t52 112q8 28 35 136q-41 -37 -96 -63q-42 -19 -81 -19q-58 0 -58 61q0 36 15 101l27 115q14 55 16 86q0 16 -12 16q-24 0 -58 -11l-8 27q36 21 72.5 33
t52.5 12q32 0 32 -28q0 -19 -17 -91l-25 -104q-22 -88 -22 -113q0 -21 7.5 -29.5t28.5 -8.5q49 0 133 58l68 308zM269 594q-1 -23 -13 -38t-32 -15q-18 0 -29 12.5t-11 32.5q0 25 13.5 39t33.5 14q38 0 38 -45zM417 594q-1 -23 -13 -38t-33 -15q-19 0 -29.5 12.5t-10.5 32.5
q1 25 14.5 39t33.5 14q18 0 28 -12.5t10 -32.5z" />
    <glyph glyph-name="Amacron" unicode="&#x100;" horiz-adv-x="633" 
d="M220 -1q-98 2 -132 2q-21 0 -113 -2l7 36q44 4 62 20q20 18 65 97l278 493h49l82 -498q13 -81 27 -95q13 -11 61 -17l-9 -36q-90 2 -120 2q-19 0 -131 -2l7 36q52 6 70 14q22 8 22 31q0 25 -8 70l-15 91h-203l-46 -88q-38 -72 -38 -87t18 -21q17 -5 74 -10zM243 287h174
q-31 191 -39 249q-43 -84 -135 -249zM546 719h-254l11 59h255z" />
    <glyph glyph-name="amacron" unicode="&#x101;" horiz-adv-x="472" 
d="M450 54q-85 -63 -138 -63q-19 0 -27 11t-8 39q0 18 2 34q-102 -86 -178 -86q-75 0 -75 91q0 70 32 148t85 130q65 65 169 65q33 0 57 -4l14 32l48 -7l-60 -239q-20 -82 -20 -124q0 -24 15 -24q22 0 70 24zM281 109l56 229q2 10 2 16q0 10 -12 14q-17 6 -50 6
q-64 0 -104 -59q-34 -48 -53 -106.5t-19 -107.5q0 -22 11 -34.5t29 -12.5q55 0 140 55zM430 532h-230l10 58h231z" />
    <glyph glyph-name="Abreve" unicode="&#x102;" horiz-adv-x="633" 
d="M220 -1q-98 2 -132 2q-21 0 -113 -2l7 36q44 4 62 20q20 18 65 97l278 493h49l82 -498q13 -81 27 -95q13 -11 61 -17l-9 -36q-90 2 -120 2q-19 0 -131 -2l7 36q52 6 70 14q22 8 22 31q0 25 -8 70l-15 91h-203l-46 -88q-38 -72 -38 -87t18 -21q17 -5 74 -10zM243 287h174
q-31 191 -39 249q-43 -84 -135 -249zM536 841l36 -2q-10 -68 -52.5 -106.5t-101.5 -38.5q-54 0 -86.5 28.5t-33.5 87.5q0 16 3 29l34 3q3 -85 88 -85q87 0 113 84z" />
    <glyph glyph-name="abreve" unicode="&#x103;" horiz-adv-x="472" 
d="M450 54q-85 -63 -138 -63q-19 0 -27 11t-8 39q0 18 2 34q-102 -86 -178 -86q-75 0 -75 91q0 70 32 148t85 130q65 65 169 65q33 0 57 -4l14 32l48 -7l-60 -239q-20 -82 -20 -124q0 -24 15 -24q22 0 70 24zM281 109l56 229q2 10 2 16q0 10 -12 14q-17 6 -50 6
q-64 0 -104 -59q-34 -48 -53 -106.5t-19 -107.5q0 -22 11 -34.5t29 -12.5q55 0 140 55zM419 647l34 -2q-9 -68 -46 -106t-92 -38q-103 0 -103 118q0 17 2 24l33 4q2 -84 74 -84q74 0 98 84z" />
    <glyph glyph-name="Aogonek" unicode="&#x104;" horiz-adv-x="633" 
d="M220 -1q-98 2 -132 2q-21 0 -113 -2l7 36q44 4 62 20q20 18 65 97l278 493h49l82 -498q13 -81 27 -95q13 -11 61 -17l-9 -36q-68 2 -94 2q-60 -56 -84.5 -90t-24.5 -67q0 -48 50 -48q34 0 68 12l11 -30q-62 -37 -110 -37q-38 0 -59.5 24t-21.5 59q0 46 29 83t100 94
q-21 0 -115 -2l7 36q52 6 70 14q22 8 22 31q0 25 -8 70l-15 91h-203l-46 -88q-38 -72 -38 -87t18 -21q17 -5 74 -10zM243 287h174q-31 191 -39 249q-43 -84 -135 -249z" />
    <glyph glyph-name="aogonek" unicode="&#x105;" horiz-adv-x="472" 
d="M450 54q-49 -36 -90 -53q-56 -52 -80.5 -86.5t-25.5 -66.5q0 -47 49 -47q33 0 65 13l11 -29q-56 -36 -107 -36q-37 0 -56.5 22.5t-19.5 56.5q0 42 26 78.5t86 84.5q-31 3 -31 50q0 18 2 34q-102 -86 -178 -86q-75 0 -75 91q0 70 32 148t85 130q65 65 169 65q33 0 57 -4
l14 32l48 -7l-60 -239q-20 -82 -20 -124q0 -24 15 -24q22 0 70 24zM281 109l56 229q2 10 2 16q0 10 -12 14q-17 6 -50 6q-64 0 -104 -59q-34 -48 -53 -106.5t-19 -107.5q0 -22 11 -34.5t29 -12.5q55 0 140 55z" />
    <glyph glyph-name="Cacute" unicode="&#x106;" horiz-adv-x="635" 
d="M579 170q-11 -55 -44 -130q-10 -22 -38 -31q-61 -23 -176 -23q-123 0 -193.5 75t-70.5 195q0 177 107.5 289.5t282.5 112.5q95 0 152 -21q23 -9 23 -44q0 -60 -4 -122l-35 -2q-13 69 -26 95q-7 19 -30 29q-38 15 -93 15q-127 0 -209.5 -96t-82.5 -246q0 -111 51.5 -170.5
t150.5 -59.5q86 0 123 29q29 21 79 112zM398 681l-18 26l122 107q30 26 46 26q14 0 24.5 -12t10.5 -28q0 -20 -43 -44z" />
    <glyph glyph-name="cacute" unicode="&#x107;" horiz-adv-x="359" 
d="M323 68q-106 -81 -197 -81q-100 0 -100 129q0 65 25 132.5t66 111.5q64 72 154 72q43 0 65 -9q19 -7 19 -25q0 -21 -22 -50q-43 26 -93 26q-47 0 -79 -37q-24 -29 -42 -88t-18 -115q0 -86 58 -86q67 0 147 48zM244 500l-21 22l110 128q18 22 27.5 28.5t20.5 6.5
q14 0 24 -9.5t10 -26.5q0 -19 -38 -49z" />
    <glyph glyph-name="Ccircumflex" unicode="&#x108;" horiz-adv-x="635" 
d="M579 170q-11 -55 -44 -130q-10 -22 -38 -31q-61 -23 -176 -23q-123 0 -193.5 75t-70.5 195q0 177 107.5 289.5t282.5 112.5q95 0 152 -21q23 -9 23 -44q0 -60 -4 -122l-35 -2q-13 69 -26 95q-7 19 -30 29q-38 15 -93 15q-127 0 -209.5 -96t-82.5 -246q0 -111 51.5 -170.5
t150.5 -59.5q86 0 123 29q29 21 79 112zM572 695l-24 -21l-103 86l-132 -85l-21 24l134 126q21 19 32 19q16 0 28 -19z" />
    <glyph glyph-name="ccircumflex" unicode="&#x109;" horiz-adv-x="359" 
d="M323 68q-106 -81 -197 -81q-100 0 -100 129q0 65 25 132.5t66 111.5q64 72 154 72q43 0 65 -9q19 -7 19 -25q0 -21 -22 -50q-43 26 -93 26q-47 0 -79 -37q-24 -29 -42 -88t-18 -115q0 -86 58 -86q67 0 147 48zM405 505l-24 -18l-89 104l-125 -104l-22 21l129 143
q18 19 29 19q19 0 28 -19z" />
    <glyph glyph-name="Cdotaccent" unicode="&#x10a;" horiz-adv-x="635" 
d="M579 170q-11 -55 -44 -130q-10 -22 -38 -31q-61 -23 -176 -23q-123 0 -193.5 75t-70.5 195q0 177 107.5 289.5t282.5 112.5q95 0 152 -21q23 -9 23 -44q0 -60 -4 -122l-35 -2q-13 69 -26 95q-7 19 -30 29q-38 15 -93 15q-127 0 -209.5 -96t-82.5 -246q0 -111 51.5 -170.5
t150.5 -59.5q86 0 123 29q29 21 79 112zM485 754q0 -22 -13 -37t-33 -15q-40 0 -40 43q0 24 14.5 38.5t33.5 14.5q18 0 28 -12.5t10 -31.5z" />
    <glyph glyph-name="cdotaccent" unicode="&#x10b;" horiz-adv-x="359" 
d="M323 68q-106 -81 -197 -81q-100 0 -100 129q0 65 25 132.5t66 111.5q64 72 154 72q43 0 65 -9q19 -7 19 -25q0 -21 -22 -50q-43 26 -93 26q-47 0 -79 -37q-24 -29 -42 -88t-18 -115q0 -86 58 -86q67 0 147 48zM336 594q-1 -22 -13.5 -37.5t-32.5 -15.5q-40 0 -40 45
q0 25 13.5 39t33.5 14q39 0 39 -45z" />
    <glyph glyph-name="Ccaron" unicode="&#x10c;" horiz-adv-x="635" 
d="M579 170q-11 -55 -44 -130q-10 -22 -38 -31q-61 -23 -176 -23q-123 0 -193.5 75t-70.5 195q0 177 107.5 289.5t282.5 112.5q95 0 152 -21q23 -9 23 -44q0 -60 -4 -122l-35 -2q-13 69 -26 95q-7 19 -30 29q-38 15 -93 15q-127 0 -209.5 -96t-82.5 -246q0 -111 51.5 -170.5
t150.5 -59.5q86 0 123 29q29 21 79 112zM319 837l26 20l103 -86l132 86l19 -24l-134 -127q-19 -19 -31 -19q-16 0 -28 19z" />
    <glyph glyph-name="ccaron" unicode="&#x10d;" horiz-adv-x="359" 
d="M323 68q-106 -81 -197 -81q-100 0 -100 129q0 65 25 132.5t66 111.5q64 72 154 72q43 0 65 -9q19 -7 19 -25q0 -21 -22 -50q-43 26 -93 26q-47 0 -79 -37q-24 -29 -42 -88t-18 -115q0 -86 58 -86q67 0 147 48zM155 655l25 18l90 -104l125 104l22 -21l-128 -144
q-18 -19 -31 -19q-17 0 -28 19z" />
    <glyph glyph-name="Dcaron" unicode="&#x10e;" horiz-adv-x="669" 
d="M-10 -1l7 36q65 6 76 16q9 8 18 54l78 429q1 5 2.5 13.5t2.5 15t1 9.5q0 16 -17 23q-14 6 -69 13l7 35h136q139 0 207 -14t115 -45q91 -61 91 -206q0 -179 -104 -279.5t-286 -100.5q-10 0 -73 1.5t-78 1.5q-20 0 -114 -2zM168 106q-4 -18 -4 -30t4 -16.5t16 -6.5
q36 -5 96 -5q129 0 203.5 90t74.5 230q0 143 -88 192q-68 38 -212 38zM245 837l26 20l103 -86l132 86l19 -24l-134 -127q-19 -19 -31 -19q-16 0 -28 19z" />
    <glyph glyph-name="dcaron" unicode="&#x10f;" horiz-adv-x="486" 
d="M455 54q-84 -63 -138 -63q-32 0 -35 39q0 27 1 43q-100 -84 -179 -84q-77 0 -77 98q0 74 31.5 153t85.5 129q61 58 167 58q17 0 43 -2l28 130q15 69 15 94q0 14 -13 14q-18 0 -56 -8l-7 28q91 46 138 46q24 0 24 -26q0 -14 -21 -107l-94 -419q-10 -46 -12 -91
q0 -29 16 -29q15 0 69 24zM285 109l50 231q2 10 2 20q0 11 -11 14q-20 5 -49 5q-74 0 -112 -57q-31 -47 -46.5 -106.5t-15.5 -105.5q0 -56 40 -56q56 0 142 55zM512 518l-17 25q74 50 74 94q0 13 -8 29t-8 28q0 18 12 29.5t30 11.5q42 0 42 -55q-2 -86 -125 -162z" />
    <glyph glyph-name="Dcroat" unicode="&#x110;" horiz-adv-x="669" 
d="M28 308l9 47h99l33 178l6 39q0 16 -17 23q-14 6 -69 13l7 35h136q139 0 207 -14t115 -45q91 -61 91 -206q0 -179 -104 -279.5t-286 -100.5q-10 0 -73 1.5t-78 1.5q-20 0 -114 -2l7 36q60 6 70 12l6 4q9 7 18 54l37 203h-100zM168 106q-4 -18 -4 -30t4 -17t16 -6
q36 -5 96 -5q129 0 203.5 90t74.5 230q0 143 -88 192q-68 38 -212 38l-45 -243h172l-10 -47h-170z" />
    <glyph glyph-name="dcroat" unicode="&#x111;" horiz-adv-x="486" 
d="M526 559l-9 -45h-74l-75 -337q-10 -46 -12 -91q0 -29 16 -29q15 0 69 24l14 -27q-84 -63 -138 -63q-32 0 -35 39q0 27 1 43q-100 -84 -179 -84q-77 0 -77 98q0 74 31.5 153t85.5 129q61 58 167 58q17 0 43 -2l19 89h-129l9 45h130q14 72 14 90q0 14 -13 14q-18 0 -56 -8
l-7 28q91 46 138 46q24 0 24 -26q0 -14 -21 -107l-9 -37h73zM285 109l50 231q2 10 2 20q0 11 -11 14q-20 5 -49 5q-74 0 -112 -57q-31 -47 -46.5 -106.5t-15.5 -105.5q0 -56 40 -56q56 0 142 55z" />
    <glyph glyph-name="Emacron" unicode="&#x112;" horiz-adv-x="547" 
d="M509 168q-24 -96 -45 -142q-7 -16 -22 -21t-47 -5h-404l6 34q59 5 73 14q8 5 12 16.5t10 47.5l76 419q6 33 6 43q0 15 -11 21q-6 4 -74 13l7 35h377q35 0 44 -6t9 -23q0 -11 -7.5 -59.5t-11.5 -66.5h-33q-6 80 -18 91q-11 11 -33.5 14.5t-85.5 3.5q-33 0 -79 -2l-44 -242
h8q77 0 106.5 3.5t42.5 14.5q13 10 32 64h35q-27 -131 -37 -209h-34q0 58 -10 69q-9 10 -35 12t-105 2h-11l-37 -201q-4 -20 -4 -32q0 -11 4 -15.5t16 -7.5q30 -7 78 -7q115 0 146 25q22 18 69 104zM474 719h-254l11 59h255z" />
    <glyph glyph-name="emacron" unicode="&#x113;" horiz-adv-x="364" 
d="M326 70q-52 -39 -106.5 -61t-91.5 -22q-101 0 -101 130q0 72 30 149t86 121t122 44q41 0 65 -22.5t24 -58.5q-1 -60 -60.5 -95t-190.5 -67q-4 -17 -4 -56q0 -85 59 -85q68 0 150 50zM108 223q174 53 174 115q0 46 -46 46q-34 0 -64 -30q-37 -36 -64 -131zM377 532h-230
l10 58h231z" />
    <glyph glyph-name="Ebreve" unicode="&#x114;" horiz-adv-x="547" 
d="M509 168q-24 -96 -45 -142q-7 -16 -22 -21t-47 -5h-404l6 34q59 5 73 14q8 5 12 16.5t10 47.5l76 419q6 33 6 43q0 15 -11 21q-6 4 -74 13l7 35h377q35 0 44 -6t9 -23q0 -11 -7.5 -59.5t-11.5 -66.5h-33q-6 80 -18 91q-11 11 -33.5 14.5t-85.5 3.5q-33 0 -79 -2l-44 -242
h8q77 0 106.5 3.5t42.5 14.5q13 10 32 64h35q-27 -131 -37 -209h-34q0 58 -10 69q-9 10 -35 12t-105 2h-11l-37 -201q-4 -20 -4 -32q0 -11 4 -15.5t16 -7.5q30 -7 78 -7q115 0 146 25q22 18 69 104zM463 841l36 -2q-10 -68 -52.5 -106.5t-101.5 -38.5q-54 0 -86.5 28.5
t-33.5 87.5q0 16 3 29l34 3q3 -85 88 -85q87 0 113 84z" />
    <glyph glyph-name="ebreve" unicode="&#x115;" horiz-adv-x="364" 
d="M326 70q-52 -39 -106.5 -61t-91.5 -22q-101 0 -101 130q0 72 30 149t86 121t122 44q41 0 65 -22.5t24 -58.5q-1 -60 -60.5 -95t-190.5 -67q-4 -17 -4 -56q0 -85 59 -85q68 0 150 50zM108 223q174 53 174 115q0 46 -46 46q-34 0 -64 -30q-37 -36 -64 -131zM366 647l34 -2
q-9 -68 -46 -106t-92 -38q-103 0 -103 118q0 17 2 24l33 4q2 -84 74 -84q74 0 98 84z" />
    <glyph glyph-name="Edotaccent" unicode="&#x116;" horiz-adv-x="547" 
d="M509 168q-24 -96 -45 -142q-7 -16 -22 -21t-47 -5h-404l6 34q59 5 73 14q8 5 12 16.5t10 47.5l76 419q6 33 6 43q0 15 -11 21q-6 4 -74 13l7 35h377q35 0 44 -6t9 -23q0 -11 -7.5 -59.5t-11.5 -66.5h-33q-6 80 -18 91q-11 11 -33.5 14.5t-85.5 3.5q-33 0 -79 -2l-44 -242
h8q77 0 106.5 3.5t42.5 14.5q13 10 32 64h35q-27 -131 -37 -209h-34q0 58 -10 69q-9 10 -35 12t-105 2h-11l-37 -201q-4 -20 -4 -32q0 -11 4 -15.5t16 -7.5q30 -7 78 -7q115 0 146 25q22 18 69 104zM393 754q0 -22 -13 -37t-33 -15q-40 0 -40 43q0 24 14.5 38.5t33.5 14.5
q18 0 28 -12.5t10 -31.5z" />
    <glyph glyph-name="edotaccent" unicode="&#x117;" horiz-adv-x="364" 
d="M326 70q-52 -39 -106.5 -61t-91.5 -22q-101 0 -101 130q0 72 30 149t86 121t122 44q41 0 65 -22.5t24 -58.5q-1 -60 -60.5 -95t-190.5 -67q-4 -17 -4 -56q0 -85 59 -85q68 0 150 50zM108 223q174 53 174 115q0 46 -46 46q-34 0 -64 -30q-37 -36 -64 -131zM327 594
q-1 -22 -13.5 -37.5t-32.5 -15.5q-40 0 -40 45q0 25 13.5 39t33.5 14q39 0 39 -45z" />
    <glyph glyph-name="Eogonek" unicode="&#x118;" horiz-adv-x="547" 
d="M509 168q-24 -96 -45 -142q-11 -25 -55 -26q-58 -56 -82.5 -89.5t-24.5 -66.5q0 -48 50 -48q34 0 68 12l11 -30q-62 -37 -110 -37q-38 0 -59.5 24t-21.5 59q0 45 29 83t99 93h-377l6 34q59 5 73 14q8 5 12 16.5t10 47.5l76 419q6 33 6 43q0 15 -11 21q-6 4 -74 13l7 35
h377q35 0 44 -6t9 -23q0 -11 -7.5 -59.5t-11.5 -66.5h-33q-6 80 -18 91q-11 11 -33.5 14.5t-85.5 3.5q-33 0 -79 -2l-44 -242h8q77 0 106.5 3.5t42.5 14.5q13 10 32 64h35q-27 -131 -37 -209h-34q0 58 -10 69q-9 10 -35 12t-105 2h-11l-37 -201q-4 -20 -4 -32q0 -11 4 -15.5
t16 -7.5q30 -7 78 -7q115 0 146 25q22 18 69 104z" />
    <glyph glyph-name="eogonek" unicode="&#x119;" horiz-adv-x="364" 
d="M326 70q-65 -49 -130 -70q-56 -53 -80 -86.5t-25 -65.5q0 -47 49 -47q33 0 65 13l11 -29q-56 -36 -107 -36q-37 0 -56.5 22.5t-19.5 56.5q0 42 25 77t82 83q-4 -1 -12 -1q-101 0 -101 130q0 72 30 149t86 121t122 44q41 0 65 -22.5t24 -58.5q-1 -60 -60.5 -95t-190.5 -67
q-4 -17 -4 -56q0 -85 59 -85q68 0 150 50zM108 223q174 53 174 115q0 46 -46 46q-34 0 -64 -30q-37 -36 -64 -131z" />
    <glyph glyph-name="Ecaron" unicode="&#x11a;" horiz-adv-x="547" 
d="M509 168q-24 -96 -45 -142q-7 -16 -22 -21t-47 -5h-404l6 34q59 5 73 14q8 5 12 16.5t10 47.5l76 419q6 33 6 43q0 15 -11 21q-6 4 -74 13l7 35h377q35 0 44 -6t9 -23q0 -11 -7.5 -59.5t-11.5 -66.5h-33q-6 80 -18 91q-11 11 -33.5 14.5t-85.5 3.5q-33 0 -79 -2l-44 -242
h8q77 0 106.5 3.5t42.5 14.5q13 10 32 64h35q-27 -131 -37 -209h-34q0 58 -10 69q-9 10 -35 12t-105 2h-11l-37 -201q-4 -20 -4 -32q0 -11 4 -15.5t16 -7.5q30 -7 78 -7q115 0 146 25q22 18 69 104zM220 837l26 20l103 -86l132 86l19 -24l-134 -127q-19 -19 -31 -19
q-16 0 -28 19z" />
    <glyph glyph-name="ecaron" unicode="&#x11b;" horiz-adv-x="364" 
d="M326 70q-52 -39 -106.5 -61t-91.5 -22q-101 0 -101 130q0 72 30 149t86 121t122 44q41 0 65 -22.5t24 -58.5q-1 -60 -60.5 -95t-190.5 -67q-4 -17 -4 -56q0 -85 59 -85q68 0 150 50zM108 223q174 53 174 115q0 46 -46 46q-34 0 -64 -30q-37 -36 -64 -131zM154 655l25 18
l90 -104l125 104l22 -21l-128 -144q-18 -19 -31 -19q-17 0 -28 19z" />
    <glyph glyph-name="Gcircumflex" unicode="&#x11c;" horiz-adv-x="673" 
d="M647 253q-39 -3 -52 -15q-9 -9 -17 -52l-22 -125q-4 -25 -13.5 -34t-31.5 -16q-86 -25 -187 -25q-124 0 -195.5 74.5t-71.5 198.5q0 179 109.5 289t282.5 110q91 0 150 -21q25 -9 25 -44q0 -42 -5 -122l-35 -2q-14 70 -27 98q-7 18 -29 26q-34 15 -96 15
q-126 0 -208 -97.5t-82 -242.5q0 -111 52 -171.5t146 -60.5q55 0 103 14q24 9 30 16q11 14 29 120q3 22 3 33q0 18 -20 24q-14 5 -59 10l7 37q81 -3 109 -3q2 0 113 3zM569 695l-24 -21l-103 86l-132 -85l-21 24l134 126q21 19 32 19q16 0 28 -19z" />
    <glyph glyph-name="gcircumflex" unicode="&#x11d;" horiz-adv-x="431" 
d="M304 315q0 75 -69 75q-47 0 -74 -41q-32 -48 -32 -119q0 -40 18.5 -60t47.5 -20q54 0 82 47q27 49 27 118zM146 117q-11 -10 -20 -24q-7 -12 -7 -21q0 -17 26 -27q11 -4 111 -32q78 -21 112.5 -48t34.5 -73q0 -66 -64 -114.5t-168 -48.5q-87 0 -146 36t-59 94q0 41 35 71
t116 58q-65 18 -65 59q0 23 19 45q9 11 42 39q-55 34 -55 109q0 82 51.5 137t128.5 55q46 0 81 -20q87 0 128 -5l-7 -44q-26 -4 -75 -6q10 -22 10 -58q-1 -85 -52 -137t-126 -52q-32 0 -51 7zM215 -44q-36 8 -49 8q-20 0 -45 -10q-86 -36 -86 -86q0 -37 40.5 -64.5
t106.5 -27.5q72 0 107.5 29.5t35.5 67.5q0 55 -110 83zM387 505l-24 -18l-89 104l-125 -104l-22 21l129 143q18 19 29 19q19 0 28 -19z" />
    <glyph glyph-name="Gbreve" unicode="&#x11e;" horiz-adv-x="673" 
d="M647 253q-39 -3 -52 -15q-9 -9 -17 -52l-22 -125q-4 -25 -13.5 -34t-31.5 -16q-86 -25 -187 -25q-124 0 -195.5 74.5t-71.5 198.5q0 179 109.5 289t282.5 110q91 0 150 -21q25 -9 25 -44q0 -42 -5 -122l-35 -2q-14 70 -27 98q-7 18 -29 26q-34 15 -96 15
q-126 0 -208 -97.5t-82 -242.5q0 -111 52 -171.5t146 -60.5q55 0 103 14q24 9 30 16q11 14 29 120q3 22 3 33q0 18 -20 24q-14 5 -59 10l7 37q81 -3 109 -3q2 0 113 3zM553 841l36 -2q-10 -68 -52.5 -106.5t-101.5 -38.5q-54 0 -86.5 28.5t-33.5 87.5q0 16 3 29l34 3
q3 -85 88 -85q87 0 113 84z" />
    <glyph glyph-name="gbreve" unicode="&#x11f;" horiz-adv-x="431" 
d="M304 315q0 75 -69 75q-47 0 -74 -41q-32 -48 -32 -119q0 -40 18.5 -60t47.5 -20q54 0 82 47q27 49 27 118zM146 117q-11 -10 -20 -24q-7 -12 -7 -21q0 -17 26 -27q11 -4 111 -32q78 -21 112.5 -48t34.5 -73q0 -66 -64 -114.5t-168 -48.5q-87 0 -146 36t-59 94q0 41 35 71
t116 58q-65 18 -65 59q0 23 19 45q9 11 42 39q-55 34 -55 109q0 82 51.5 137t128.5 55q46 0 81 -20q87 0 128 -5l-7 -44q-26 -4 -75 -6q10 -22 10 -58q-1 -85 -52 -137t-126 -52q-32 0 -51 7zM215 -44q-36 8 -49 8q-20 0 -45 -10q-86 -36 -86 -86q0 -37 40.5 -64.5
t106.5 -27.5q72 0 107.5 29.5t35.5 67.5q0 55 -110 83zM363 647l34 -2q-9 -68 -46 -106t-92 -38q-103 0 -103 118q0 17 2 24l33 4q2 -84 74 -84q74 0 98 84z" />
    <glyph glyph-name="Gdotaccent" unicode="&#x120;" horiz-adv-x="673" 
d="M647 253q-39 -3 -52 -15q-9 -9 -17 -52l-22 -125q-4 -25 -13.5 -34t-31.5 -16q-86 -25 -187 -25q-124 0 -195.5 74.5t-71.5 198.5q0 179 109.5 289t282.5 110q91 0 150 -21q25 -9 25 -44q0 -42 -5 -122l-35 -2q-14 70 -27 98q-7 18 -29 26q-34 15 -96 15
q-126 0 -208 -97.5t-82 -242.5q0 -111 52 -171.5t146 -60.5q55 0 103 14q24 9 30 16q11 14 29 120q3 22 3 33q0 18 -20 24q-14 5 -59 10l7 37q81 -3 109 -3q2 0 113 3zM491 754q0 -22 -13 -37t-33 -15q-40 0 -40 43q0 24 14.5 38.5t33.5 14.5q18 0 28 -12.5t10 -31.5z" />
    <glyph glyph-name="gdotaccent" unicode="&#x121;" horiz-adv-x="431" 
d="M304 315q0 75 -69 75q-47 0 -74 -41q-32 -48 -32 -119q0 -40 18.5 -60t47.5 -20q54 0 82 47q27 49 27 118zM146 117q-11 -10 -20 -24q-7 -12 -7 -21q0 -17 26 -27q11 -4 111 -32q78 -21 112.5 -48t34.5 -73q0 -66 -64 -114.5t-168 -48.5q-87 0 -146 36t-59 94q0 41 35 71
t116 58q-65 18 -65 59q0 23 19 45q9 11 42 39q-55 34 -55 109q0 82 51.5 137t128.5 55q46 0 81 -20q87 0 128 -5l-7 -44q-26 -4 -75 -6q10 -22 10 -58q-1 -85 -52 -137t-126 -52q-32 0 -51 7zM215 -44q-36 8 -49 8q-20 0 -45 -10q-86 -36 -86 -86q0 -37 40.5 -64.5
t106.5 -27.5q72 0 107.5 29.5t35.5 67.5q0 55 -110 83zM322 594q-1 -22 -13.5 -37.5t-32.5 -15.5q-40 0 -40 45q0 25 13.5 39t33.5 14q39 0 39 -45z" />
    <glyph glyph-name="Gcommaaccent" unicode="&#x122;" horiz-adv-x="673" 
d="M647 253q-39 -3 -52 -15q-9 -9 -17 -52l-22 -125q-4 -25 -13.5 -34t-31.5 -16q-86 -25 -187 -25q-124 0 -195.5 74.5t-71.5 198.5q0 179 109.5 289t282.5 110q91 0 150 -21q25 -9 25 -44q0 -42 -5 -122l-35 -2q-14 70 -27 98q-7 18 -29 26q-34 15 -96 15
q-126 0 -208 -97.5t-82 -242.5q0 -111 52 -171.5t146 -60.5q55 0 103 14q24 9 30 16q11 14 29 120q3 22 3 33q0 18 -20 24q-14 5 -59 10l7 37q81 -3 109 -3q2 0 113 3zM262 -274l-18 26q76 48 78 94q0 13 -8.5 29.5t-8.5 28.5q0 17 12 28t31 11q46 0 46 -54
q-1 -85 -132 -163z" />
    <glyph glyph-name="gcommaaccent" unicode="&#x123;" horiz-adv-x="431" 
d="M344 722l16 -26q-74 -51 -74 -93q0 -13 8 -29t8 -29q0 -18 -12 -29t-31 -11q-43 0 -43 55q1 84 128 162zM304 316q0 74 -69 74q-47 0 -74 -41q-32 -48 -32 -119q0 -40 18.5 -60t47.5 -20q56 0 82 47q27 49 27 119zM146 117q-11 -10 -20 -24q-7 -12 -7 -21q0 -17 26 -27
q11 -4 111 -32q78 -21 112.5 -48t34.5 -73q0 -66 -64 -114.5t-168 -48.5q-87 0 -146 36t-59 94q0 41 35 71t116 58q-65 18 -65 59q0 23 19 45q9 11 42 39q-55 34 -55 109q0 82 51.5 137t128.5 55q46 0 81 -20q87 0 128 -5l-7 -44q-26 -4 -75 -6q10 -22 10 -58
q-1 -85 -52 -137t-126 -52q-32 0 -51 7zM215 -44q-36 8 -49 8q-20 0 -45 -10q-86 -36 -86 -86q0 -37 40.5 -64.5t106.5 -27.5q72 0 107.5 29.5t35.5 67.5q0 56 -110 83z" />
    <glyph glyph-name="Hcircumflex" unicode="&#x124;" horiz-adv-x="704" 
d="M246 -1q-76 2 -132 2q-36 0 -124 -2l7 36q69 6 77 17q10 11 18 59l76 419q6 36 6 45q0 18 -17 23q-25 6 -68 10l7 36q88 -2 133 -2q42 0 124 2l-7 -36q-69 -5 -80 -16q-12 -12 -19 -56l-31 -175h318l31 174q5 30 5 40q0 18 -17 23q-25 6 -67 10l8 36q86 -2 132 -2
q44 0 124 2l-7 -36q-70 -5 -81 -16q-10 -10 -18 -55l-79 -427q-5 -25 -5 -43t19 -22q20 -5 71 -10l-6 -36q-80 2 -133 2q-33 0 -125 -2l7 36q65 6 77 18q8 8 17 57l37 203h-317l-38 -203q-5 -25 -5 -45q0 -16 15 -20q18 -5 74 -10zM571 695l-24 -21l-103 86l-132 -85l-21 24
l134 126q21 19 32 19q16 0 28 -19z" />
    <glyph glyph-name="hcircumflex" unicode="&#x125;" horiz-adv-x="455" 
d="M96 -3l-63 7l119 560q12 57 14 85q0 14 -13 14q-19 0 -57 -8l-7 28q89 46 137 46q25 0 25 -26q0 -6 -3.5 -23t-9 -42.5t-8.5 -42.5q-2 -11 -26 -116.5t-27 -117.5q93 68 167 68q72 0 72 -109q0 -55 -24 -140t-62 -130q-48 -59 -116 -59q-32 0 -32 24q0 21 12 43
q20 -6 37 -6q39 0 61 26q22 27 36 100t14 123q0 63 -43 63q-66 0 -129 -40zM359 745l-24 -21l-103 86l-132 -85l-21 24l134 126q21 19 32 19q16 0 28 -19z" />
    <glyph glyph-name="Hbar" unicode="&#x126;" horiz-adv-x="704" 
d="M715 445h-88l-62 -335q-5 -25 -5 -43t19 -22q20 -5 71 -10l-6 -36q-80 2 -133 2q-33 0 -125 -2l7 36q68 6 77 18q8 8 17 58l37 202h-317l-38 -203q-5 -25 -5 -45q0 -16 15 -20q18 -5 74 -10l-7 -36q-76 2 -132 2q-36 0 -124 -2l7 36q69 6 77 17q10 11 18 59l60 334h-87
l8 46h88l7 39q6 36 6 45q0 18 -17 23q-25 6 -68 10l7 36q88 -2 133 -2q42 0 124 2l-7 -36q-69 -5 -80 -16q-10 -10 -19 -55l-8 -46h318l8 44q5 30 5 40q0 18 -17 23q-25 6 -67 10l8 36q86 -2 132 -2q44 0 124 2l-7 -36q-70 -5 -81 -16q-10 -10 -18 -55l-9 -46h88zM216 361
h318l15 84h-318z" />
    <glyph glyph-name="hbar" unicode="&#x127;" horiz-adv-x="455" 
d="M348 559l-9 -45h-127q-27 -124 -35 -153q93 68 167 68q72 0 72 -109q0 -55 -24 -140t-62 -130q-48 -59 -116 -59q-32 0 -32 24q0 21 12 43q20 -6 37 -6q39 0 61 26q22 27 36 100t14 123q0 63 -43 63q-66 0 -129 -40l-74 -327l-63 7l108 510h-76l10 45h76q14 66 15 90
q0 14 -13 14q-19 0 -57 -8l-7 28q89 46 137 46q25 0 25 -26q0 -21 -21 -109l-8 -35h126z" />
    <glyph glyph-name="Itilde" unicode="&#x128;" horiz-adv-x="306" 
d="M246 -1q-76 2 -132 2q-36 0 -124 -2l7 36q67 5 77 15q9 14 18 65l77 419q5 27 5 40q0 18 -18 24q-26 6 -67 10l7 36q88 -2 131 -2q42 0 126 2l-7 -36q-69 -5 -80 -16t-19 -55l-78 -426q-5 -25 -5 -45q0 -16 15 -21q21 -5 74 -10zM119 696l-29 11q37 98 96 98q21 0 51 -14
l25 -12q25 -12 43 -12q13 0 24 10.5t27 37.5l29 -12q-38 -97 -89 -97q-20 0 -57 17l-23 10q-26 10 -43 10q-14 0 -24.5 -10t-29.5 -37z" />
    <glyph glyph-name="itilde" unicode="&#x129;" horiz-adv-x="255" 
d="M66 517l-26 12q39 98 93 98q19 0 49 -13l23 -11q29 -13 40 -13q23 0 51 48l26 -13q-40 -97 -85 -97q-18 0 -55 16l-22 10q-24 10 -39 10q-14 0 -26 -10.5t-29 -36.5zM227 53q-82 -62 -140 -62q-35 0 -35 33q0 27 18 103l35 148q13 54 13 82q0 14 -14 14q-15 0 -55 -11
l-8 27q80 45 131 45q25 0 25 -30q0 -22 -15 -85l-39 -165q-16 -68 -16 -83t12 -15q18 0 76 25z" />
    <glyph glyph-name="Imacron" unicode="&#x12a;" horiz-adv-x="306" 
d="M246 -1q-76 2 -132 2q-36 0 -124 -2l7 36q67 5 77 15q9 14 18 65l77 419q5 27 5 40q0 18 -18 24q-26 6 -67 10l7 36q88 -2 131 -2q42 0 126 2l-7 -36q-69 -5 -80 -16t-19 -55l-78 -426q-5 -25 -5 -45q0 -16 15 -21q21 -5 74 -10zM357 746h-230l10 58h231z" />
    <glyph glyph-name="imacron" unicode="&#x12b;" horiz-adv-x="255" 
d="M288 532h-230l10 58h231zM227 53q-82 -62 -140 -62q-35 0 -35 33q0 27 18 103l35 148q13 54 13 82q0 14 -14 14q-15 0 -55 -11l-8 27q80 45 131 45q25 0 25 -30q0 -22 -15 -85l-39 -165q-16 -68 -16 -83t12 -15q18 0 76 25z" />
    <glyph glyph-name="Ibreve" unicode="&#x12c;" horiz-adv-x="306" 
d="M246 -1q-76 2 -132 2q-36 0 -124 -2l7 36q67 5 77 15q9 14 18 65l77 419q5 27 5 40q0 18 -18 24q-26 6 -67 10l7 36q88 -2 131 -2q42 0 126 2l-7 -36q-69 -5 -80 -16t-19 -55l-78 -426q-5 -25 -5 -45q0 -16 15 -21q21 -5 74 -10zM358 841l36 -2q-10 -68 -52.5 -106.5
t-101.5 -38.5q-54 0 -86.5 28.5t-33.5 87.5q0 16 3 29l34 3q3 -85 88 -85q87 0 113 84z" />
    <glyph glyph-name="ibreve" unicode="&#x12d;" horiz-adv-x="255" 
d="M268 647l34 -2q-9 -68 -46 -106t-92 -38q-103 0 -103 118q0 17 2 24l33 4q2 -84 74 -84q74 0 98 84zM227 53q-82 -62 -140 -62q-35 0 -35 33q0 27 18 103l35 148q13 54 13 82q0 14 -14 14q-15 0 -55 -11l-8 27q80 45 131 45q25 0 25 -30q0 -22 -15 -85l-39 -165
q-16 -68 -16 -83t12 -15q18 0 76 25z" />
    <glyph glyph-name="Iogonek" unicode="&#x12e;" horiz-adv-x="306" 
d="M246 -1l-101 2q-60 -56 -84.5 -90t-24.5 -67q0 -48 50 -48q34 0 68 12l11 -30q-62 -37 -110 -37q-38 0 -59.5 24t-21.5 59q0 46 29 83t100 94q-35 0 -113 -2l7 36q67 5 77 15q9 14 18 65l77 419q5 27 5 40q0 18 -18 24q-26 6 -67 10l7 36q88 -2 131 -2q42 0 126 2l-7 -36
q-69 -5 -80 -16t-19 -55l-78 -426q-5 -25 -5 -45q0 -16 15 -21q21 -5 74 -10z" />
    <glyph glyph-name="iogonek" unicode="&#x12f;" horiz-adv-x="255" 
d="M227 53q-46 -34 -89 -51q-57 -54 -81.5 -88t-25.5 -66q0 -47 49 -47q33 0 65 13l11 -29q-56 -36 -107 -36q-37 0 -56.5 22.5t-19.5 56.5q0 42 26 78.5t86 84.5q-33 2 -33 33q0 27 18 103l35 148q13 54 13 82q0 14 -14 14q-15 0 -55 -11l-8 27q80 45 131 45q25 0 25 -30
q0 -22 -15 -85l-39 -165q-16 -68 -16 -83t12 -15q18 0 76 25zM236 632q0 -25 -14.5 -42t-36.5 -17q-21 0 -33.5 12.5t-12.5 33.5q1 28 16 44.5t39 16.5q42 0 42 -48z" />
    <glyph glyph-name="Idotaccent" unicode="&#x130;" horiz-adv-x="306" 
d="M246 -1q-76 2 -132 2q-36 0 -124 -2l7 36q67 5 77 15q9 14 18 65l77 419q5 27 5 40q0 18 -18 24q-26 6 -67 10l7 36q88 -2 131 -2q42 0 126 2l-7 -36q-69 -5 -80 -16t-19 -55l-78 -426q-5 -25 -5 -45q0 -16 15 -21q21 -5 74 -10zM285 754q0 -22 -13 -37t-33 -15
q-40 0 -40 43q0 24 14.5 38.5t33.5 14.5q18 0 28 -12.5t10 -31.5z" />
    <glyph glyph-name="dotlessi" unicode="&#x131;" horiz-adv-x="255" 
d="M227 53q-82 -62 -140 -62q-35 0 -35 33q0 27 18 103l35 148q13 54 13 82q0 14 -14 14q-15 0 -55 -11l-8 27q80 45 131 45q25 0 25 -30q0 -22 -15 -85l-39 -165q-16 -68 -16 -83t12 -15q18 0 76 25z" />
    <glyph glyph-name="IJ" unicode="&#x132;" horiz-adv-x="591" 
d="M246 -1q-76 2 -132 2q-36 0 -124 -2l7 36q67 5 77 15q9 14 18 65l77 419q5 27 5 40q0 18 -18 24q-26 6 -67 10l7 36q88 -2 131 -2q42 0 126 2l-7 -36q-69 -5 -80 -16t-19 -55l-78 -426q-5 -25 -5 -45q0 -16 15 -21q21 -5 74 -10zM275 -161l-22 31q61 51 93 104.5
t47 127.5q24 122 79 432q4 26 4 40q0 20 -18 24q-15 4 -69 10l6 36q88 -2 137 -2q37 0 119 2l-7 -36q-65 -6 -76 -17q-10 -10 -18 -54q-13 -69 -37 -210t-34 -194q-20 -106 -60 -159q-50 -67 -144 -135z" />
    <glyph glyph-name="ij" unicode="&#x133;" horiz-adv-x="498" 
d="M225 53q-82 -62 -140 -62q-35 0 -35 33q0 16 20 103l35 148q15 62 15 82q0 14 -14 14q-15 0 -55 -11l-8 27q80 45 131 45q25 0 25 -30q0 -11 -17 -85l-39 -165q-18 -76 -18 -83q0 -15 12 -15q18 0 76 25zM236 632q0 -25 -14.5 -42t-36.5 -17q-21 0 -33.5 12.5t-12.5 33.5
q1 28 16 44.5t39 16.5q42 0 42 -48zM301 360l-8 27q81 45 132 45q25 0 25 -30q0 -24 -12 -85l-63 -311q-19 -96 -55 -162q-62 -115 -158 -115q-41 0 -41 28q0 22 14 47q23 -9 42 -9q44 0 67.5 23t38.5 75q14 46 35 167l38 209q10 54 12 86q0 16 -11 16q-21 0 -56 -11z
M491 632q0 -25 -15 -42t-37 -17q-21 0 -33 12.5t-12 33.5q1 28 16 44.5t38 16.5q43 0 43 -48z" />
    <glyph glyph-name="Jcircumflex" unicode="&#x134;" horiz-adv-x="285" 
d="M-31 -161l-22 31q61 51 93 104.5t47 127.5q24 122 79 432q4 26 4 40q0 20 -18 24q-15 4 -69 10l6 36q88 -2 137 -2q37 0 119 2l-7 -36q-67 -6 -76 -17q-10 -9 -18 -54q-13 -69 -37 -210t-34 -194q-20 -106 -60 -159q-50 -67 -144 -135zM372 711l-24 -19l-94 98l-125 -98
l-21 22l128 138q17 18 30 18q17 0 28 -18z" />
    <glyph glyph-name="jcircumflex" unicode="&#x135;" horiz-adv-x="243" 
d="M48 354l-10 31q86 45 132 45q26 0 25 -31q0 -11 -13 -83l-62 -298q-24 -110 -55 -168q-61 -121 -159 -121q-41 0 -41 28q0 24 14 47q24 -8 40 -8q47 0 68.5 24t39.5 80q16 57 35 160l39 207q12 65 13 83q0 13 -12 13q-26 0 -54 -9zM287 502l-24 -18l-89 104l-125 -104
l-22 22l129 143q15 18 29 18q18 0 28 -18z" />
    <glyph glyph-name="Kcommaaccent" unicode="&#x136;" horiz-adv-x="609" 
d="M551 -26q-69 18 -125 74q-43 43 -100 122.5t-101 158.5q90 74 204 190q48 48 48 68t-65 21l6 36q42 -2 130 -2q62 0 104 2l-7 -36q-30 -3 -55 -16q-30 -15 -64 -47q-41 -39 -114.5 -106t-102.5 -94q75 -131 134 -206t127 -135zM245 -1q-76 2 -131 2q-36 0 -124 -2l7 36
q67 6 76 16q11 12 19 60l77 424q5 27 5 38q0 19 -18 25q-25 6 -68 10l8 36q88 -2 134 -2q40 0 124 2l-8 -36q-71 -5 -81 -17q-11 -12 -18 -55l-78 -426q-5 -25 -5 -43q0 -17 15 -22q24 -6 74 -10zM220 -274l-18 26q76 48 78 94q0 13 -8.5 29.5t-8.5 28.5q0 17 12 28t31 11
q46 0 46 -54q-1 -85 -132 -163z" />
    <glyph glyph-name="kcommaaccent" unicode="&#x137;" horiz-adv-x="462" 
d="M448 46q-74 -56 -120 -56q-37 0 -56 34q-58 101 -99 239q39 49 100 102q72 65 128 65q42 0 42 -26q0 -22 -19 -54q-13 5 -28 5q-81 0 -161 -82q37 -108 82 -185q24 -39 44 -39q28 0 74 22zM96 -3l-64 7l120 561q13 62 13 84q0 14 -13 14q-19 0 -56 -8l-7 28q89 46 137 46
q25 0 25 -26q0 -6 -21 -106q-2 -10 -66 -295.5t-68 -304.5zM114 -274l-18 26q76 48 78 94q0 13 -8.5 29.5t-8.5 28.5q0 17 12 28t31 11q46 0 46 -54q-1 -85 -132 -163z" />
    <glyph glyph-name="kgreenlandic" unicode="&#x138;" horiz-adv-x="462" 
d="M451 43q-73 -54 -119 -54q-37 0 -57 34q-59 98 -103 216q52 69 109 119q76 70 127 70q41 0 41 -26q0 -19 -18 -52q-13 5 -28 5q-35 0 -73 -24.5t-97 -79.5q27 -64 86 -164q23 -39 45 -39q25 0 74 21zM100 -3l-62 7l55 263q13 63 14 86q0 14 -14 14q-11 0 -53 -8l-8 27
q89 46 131 46q25 0 25 -24q0 -21 -19 -105q-7 -29 -29 -128.5t-40 -177.5z" />
    <glyph glyph-name="Lacute" unicode="&#x139;" horiz-adv-x="534" 
d="M516 169q-25 -90 -47 -144q-7 -16 -22 -20.5t-47 -4.5h-410l7 35q61 4 74 13q11 8 21 68l76 413q6 36 6 47q0 10 -4.5 15t-18.5 8q-24 6 -62 9l7 36q88 -2 134 -2q40 0 124 2l-7 -36q-70 -4 -82 -17q-10 -12 -18 -55l-78 -430q-4 -24 -4 -27q0 -20 20 -25q30 -7 80 -7
q118 0 150 26q18 14 68 103zM208 681l-18 26l122 107q30 26 46 26q14 0 24.5 -12t10.5 -28q0 -20 -43 -44z" />
    <glyph glyph-name="lacute" unicode="&#x13a;" horiz-adv-x="244" 
d="M215 53q-82 -62 -139 -62q-37 0 -37 36q0 17 19 100l97 439q12 59 14 80q0 16 -14 16q-16 0 -56 -8l-7 29q87 45 137 45q25 0 25 -25q0 -18 -20 -105q-2 -7 -51 -216.5t-53 -229.5q-16 -69 -16 -85q0 -14 12 -14q19 0 77 25zM172 745l-18 26l122 107q30 26 46 26
q14 0 24.5 -12t10.5 -28q0 -20 -43 -44z" />
    <glyph glyph-name="Lcommaaccent" unicode="&#x13b;" horiz-adv-x="534" 
d="M516 169q-25 -90 -47 -144q-7 -16 -22 -20.5t-47 -4.5h-410l7 35q61 4 74 13q11 8 21 68l76 413q6 36 6 47q0 10 -4.5 15t-18.5 8q-24 6 -62 9l7 36q88 -2 134 -2q40 0 124 2l-7 -36q-70 -4 -82 -17q-10 -12 -18 -55l-78 -430q-4 -24 -4 -27q0 -20 20 -25q30 -7 80 -7
q118 0 150 26q18 14 68 103zM175 -274l-18 26q76 48 78 94q0 13 -8.5 29.5t-8.5 28.5q0 17 12 28t31 11q46 0 46 -54q-1 -85 -132 -163z" />
    <glyph glyph-name="lcommaaccent" unicode="&#x13c;" horiz-adv-x="244" 
d="M215 53q-82 -62 -139 -62q-37 0 -37 36q0 17 19 100l97 439q12 59 14 80q0 16 -14 16q-16 0 -56 -8l-7 29q87 45 137 45q25 0 25 -25q0 -18 -20 -105q-2 -7 -51 -216.5t-53 -229.5q-16 -69 -16 -85q0 -14 12 -14q19 0 77 25zM10 -274l-18 26q76 48 78 94q0 13 -8.5 29.5
t-8.5 28.5q0 17 12 28t31 11q46 0 46 -54q-1 -85 -132 -163z" />
    <glyph glyph-name="Lcaron" unicode="&#x13d;" horiz-adv-x="534" 
d="M516 169q-25 -90 -47 -144q-7 -16 -22 -20.5t-47 -4.5h-410l7 35q61 4 74 13q11 8 21 68l76 413q6 36 6 47q0 10 -4.5 15t-18.5 8q-24 6 -62 9l7 36q88 -2 134 -2q40 0 124 2l-7 -36q-70 -4 -82 -17q-10 -12 -18 -55l-78 -430q-4 -24 -4 -27q0 -20 20 -25q30 -7 80 -7
q118 0 150 26q18 14 68 103zM374 448l-17 26q74 47 74 93q0 13 -8 29.5t-8 28.5q0 17 12 28.5t30 11.5q43 0 43 -55q-2 -86 -126 -162z" />
    <glyph glyph-name="lcaron" unicode="&#x13e;" horiz-adv-x="244" 
d="M216 53q-82 -62 -139 -62q-37 0 -37 36q0 17 19 100l94 439q12 59 14 80q0 16 -14 16q-16 0 -56 -8l-7 29q87 45 137 45q25 0 25 -25q0 -18 -20 -105q-2 -8 -26 -115t-48 -211.5t-27 -119.5q-16 -69 -16 -85q0 -14 12 -14q19 0 77 25zM276 518l-17 25q74 50 74 94
q0 13 -8 29t-8 28q0 18 12 29.5t30 11.5q42 0 42 -55q0 -85 -125 -162z" />
    <glyph glyph-name="Ldot" unicode="&#x13f;" horiz-adv-x="534" 
d="M516 169q-25 -90 -47 -144q-7 -16 -22 -20.5t-47 -4.5h-410l7 35q61 4 74 13q11 8 21 68l76 413q6 36 6 47q0 10 -4.5 15t-18.5 8q-24 6 -62 9l7 36q88 -2 134 -2q40 0 124 2l-7 -36q-70 -4 -82 -17q-10 -12 -18 -55l-78 -430q-4 -24 -4 -27q0 -20 20 -25q30 -7 80 -7
q118 0 150 26q18 14 68 103zM483 333q-1 -27 -17 -43t-40 -16q-22 0 -35 15t-13 38q1 25 15.5 42.5t37.5 17.5q24 0 38 -15t14 -39z" />
    <glyph glyph-name="ldot" unicode="&#x140;" horiz-adv-x="330" 
d="M216 53q-82 -62 -139 -62q-37 0 -37 36q0 17 19 100l94 439q12 59 14 80q0 16 -14 16q-16 0 -56 -8l-7 29q87 45 137 45q25 0 25 -25q0 -18 -20 -105q-2 -8 -26 -115t-48 -211.5t-27 -119.5q-16 -69 -16 -85q0 -14 12 -14q19 0 77 25zM354 342q0 -25 -15.5 -42t-39.5 -17
q-22 0 -34.5 14t-12.5 38q1 24 16.5 41.5t38.5 17.5q22 0 34.5 -14t12.5 -38z" />
    <glyph glyph-name="Lslash" unicode="&#x141;" horiz-adv-x="534" 
d="M386 409l-182 -109l-35 -194q-4 -24 -4 -27q0 -20 20 -25q30 -7 80 -7q118 0 150 26q18 14 68 103l33 -7q-25 -90 -47 -144q-7 -16 -22 -20.5t-47 -4.5h-410l7 35q61 4 74 13q11 8 21 68l25 133l-86 -51l-20 39l116 70l41 222q6 36 6 47q0 10 -4.5 15t-18.5 8
q-24 6 -62 9l7 36q88 -2 134 -2q40 0 124 2l-7 -36q-70 -4 -82 -17q-10 -12 -18 -55l-33 -178l149 90z" />
    <glyph glyph-name="lslash" unicode="&#x142;" horiz-adv-x="244" 
d="M285 422l-110 -73l-45 -197q-16 -69 -16 -85q0 -14 12 -14q19 0 77 25l12 -25q-82 -62 -139 -62q-37 0 -37 36q0 17 19 100l38 171l-66 -44l-21 38l100 66l46 208q12 59 14 80q0 16 -14 16q-16 0 -56 -8l-7 29q87 45 135 45q27 0 27 -25q0 -18 -20 -105l-45 -188l72 48z
" />
    <glyph glyph-name="Nacute" unicode="&#x143;" horiz-adv-x="698" 
d="M225 -1q-90 2 -126 2q-4 0 -110 -2l7 35q65 5 78 20q9 11 22 80q65 339 70 372q8 53 8 67q0 19 -30 26q-20 5 -57 9l7 36q46 -2 88 -2q40 0 70 2q255 -470 276 -509q54 299 65 369q8 52 8 70q0 17 -16 23q-21 7 -69 11l6 36q102 -2 121 -2q9 0 113 2l-8 -36
q-65 -7 -77 -17q-10 -10 -24 -82q-11 -57 -34 -183.5t-29 -161.5q-4 -19 -29 -167h-44q-48 103 -292 540q-13 -73 -39.5 -227.5t-29.5 -173.5q-8 -49 -8 -69q0 -19 23 -24q28 -5 67 -9zM392 681l-18 26l122 107q30 26 46 26q14 0 24.5 -12t10.5 -28q0 -20 -43 -44z" />
    <glyph glyph-name="nacute" unicode="&#x144;" horiz-adv-x="488" 
d="M106 -3l-63 7l60 268q12 51 15 83q0 16 -12 16q-16 0 -56 -11l-7 27q82 45 131 45q25 0 25 -30q-2 -22 -6 -44q43 35 102 56q43 16 80 16q49 0 49 -49q0 -23 -23 -113l-30 -118q-17 -66 -17 -81q0 -16 10 -16q22 0 78 25l11 -25q-81 -62 -140 -62q-35 0 -35 35
q0 19 17 85l29 114q21 84 21 114q0 28 -31 28q-24 0 -61.5 -12t-68.5 -33zM247 500l-21 22l110 128q18 22 27 28.5t21 6.5q14 0 24 -9.5t10 -26.5q0 -19 -38 -49z" />
    <glyph glyph-name="Ncommaaccent" unicode="&#x145;" horiz-adv-x="698" 
d="M225 -1q-90 2 -126 2q-4 0 -110 -2l7 35q65 5 78 20q9 11 22 80q65 339 70 372q8 53 8 67q0 19 -30 26q-20 5 -57 9l7 36q46 -2 88 -2q40 0 70 2q255 -470 276 -509q54 299 65 369q8 52 8 70q0 17 -16 23q-21 7 -69 11l6 36q102 -2 121 -2q9 0 113 2l-8 -36
q-65 -7 -77 -17q-10 -10 -24 -82q-11 -57 -34 -183.5t-29 -161.5q-4 -19 -29 -167h-44q-48 103 -292 540q-13 -73 -39.5 -227.5t-29.5 -173.5q-8 -49 -8 -69q0 -19 23 -24q28 -5 67 -9zM246 -274l-18 26q76 48 78 94q0 13 -8.5 29.5t-8.5 28.5q0 17 12 28t31 11q46 0 46 -54
q-1 -85 -132 -163z" />
    <glyph glyph-name="ncommaaccent" unicode="&#x146;" horiz-adv-x="488" 
d="M106 -3l-63 7l60 268q12 51 15 83q0 16 -12 16q-16 0 -56 -11l-7 27q82 45 131 45q25 0 25 -30q-2 -22 -6 -44q43 35 102 56q43 16 80 16q49 0 49 -49q0 -23 -23 -113l-30 -118q-17 -66 -17 -81q0 -16 10 -16q22 0 78 25l11 -25q-81 -62 -140 -62q-35 0 -35 35
q0 19 17 85l29 114q21 84 21 114q0 28 -31 28q-24 0 -61.5 -12t-68.5 -33zM120 -274l-18 26q76 48 78 94q0 13 -8.5 29.5t-8.5 28.5q0 17 12 28t31 11q46 0 46 -54q-1 -85 -132 -163z" />
    <glyph glyph-name="Ncaron" unicode="&#x147;" horiz-adv-x="698" 
d="M225 -1q-90 2 -126 2q-4 0 -110 -2l7 35q65 5 78 20q9 11 22 80q65 339 70 372q8 53 8 67q0 19 -30 26q-20 5 -57 9l7 36q46 -2 88 -2q40 0 70 2q255 -470 276 -509q54 299 65 369q8 52 8 70q0 17 -16 23q-21 7 -69 11l6 36q102 -2 121 -2q9 0 113 2l-8 -36
q-65 -7 -77 -17q-10 -10 -24 -82q-11 -57 -34 -183.5t-29 -161.5q-4 -19 -29 -167h-44q-48 103 -292 540q-13 -73 -39.5 -227.5t-29.5 -173.5q-8 -49 -8 -69q0 -19 23 -24q28 -5 67 -9zM309 837l26 20l103 -86l132 86l19 -24l-134 -127q-19 -19 -31 -19q-16 0 -28 19z" />
    <glyph glyph-name="ncaron" unicode="&#x148;" horiz-adv-x="488" 
d="M106 -3l-63 7l60 268q12 51 15 83q0 16 -12 16q-16 0 -56 -11l-7 27q82 45 131 45q25 0 25 -30q-2 -22 -6 -44q43 35 102 56q43 16 80 16q49 0 49 -49q0 -23 -23 -113l-30 -118q-17 -66 -17 -81q0 -16 10 -16q22 0 78 25l11 -25q-81 -62 -140 -62q-35 0 -35 35
q0 19 17 85l29 114q21 84 21 114q0 28 -31 28q-24 0 -61.5 -12t-68.5 -33zM163 655l25 18l90 -104l125 104l22 -21l-128 -144q-18 -19 -31 -19q-17 0 -28 19z" />
    <glyph glyph-name="napostrophe" unicode="&#x149;" horiz-adv-x="488" 
d="M106 -3l-63 7l60 268q12 51 15 83q0 16 -12 16q-16 0 -56 -11l-7 27q82 45 131 45q25 0 25 -30q-2 -22 -6 -44q43 35 102 56q43 16 80 16q49 0 49 -49q0 -23 -23 -113l-30 -118q-17 -66 -17 -81q0 -16 10 -16q22 0 78 25l11 -25q-81 -62 -140 -62q-35 0 -35 35
q0 19 17 85l29 114q21 84 21 114q0 28 -31 28q-24 0 -61.5 -12t-68.5 -33zM75 483l-18 26q76 48 78 94q0 13 -8.5 29.5t-8.5 28.5q0 17 12 28t31 11q46 0 46 -54q-1 -85 -132 -163z" />
    <glyph glyph-name="Eng" unicode="&#x14a;" horiz-adv-x="698" 
d="M225 -1q-94 2 -125 2q-3 0 -111 -2l7 35q67 5 79 21q9 13 22 82q56 289 69 373q8 53 8 63q0 19 -30 26q-18 4 -57 9l7 36q46 -2 88 -2q40 0 71 2q29 -53 127.5 -232.5t148.5 -273.5q9 53 25 141.5t26.5 149t12.5 76.5q8 62 8 69q0 17 -16 23t-69 11l5 36q106 -2 122 -2
q9 0 113 2l-8 -36q-63 -5 -77 -17q-10 -9 -24 -81q-20 -105 -60 -342q-1 -5 -8.5 -44.5t-11.5 -60.5q-19 -115 -62 -186q-27 -45 -69.5 -74.5t-92.5 -29.5q-54 0 -54 30q0 21 17 45q29 -12 59 -12q40 0 65.5 20.5t44.5 64.5q14 31 28 96q-140 261 -284 519
q-11 -64 -37 -216.5t-31 -178.5q-9 -52 -9 -72q0 -21 23 -26q28 -5 67 -9z" />
    <glyph glyph-name="eng" unicode="&#x14b;" horiz-adv-x="476" 
d="M109 -3l-64 7l56 265q13 63 13 86q0 16 -13 16q-19 0 -54 -11l-8 27q82 45 127 45q28 0 28 -28q0 -20 -5 -46q48 36 98 55q44 17 84 17q49 0 49 -51q0 -24 -19 -113l-44 -205q-26 -121 -64 -179q-69 -107 -167 -107q-44 0 -44 30q0 18 16 44q21 -13 51 -13
q41 0 63.5 21.5t39.5 67.5q10 27 71 297q19 85 19 115q0 17 -7 23.5t-24 6.5q-26 0 -63 -12t-67 -33z" />
    <glyph glyph-name="Omacron" unicode="&#x14c;" horiz-adv-x="673" 
d="M649 383q0 -169 -89 -279q-45 -56 -107.5 -87t-132.5 -31q-131 0 -197 79.5t-66 206.5q0 169 109 288q43 48 104 72.5t124 24.5q126 0 190.5 -73.5t64.5 -200.5zM565 376q0 231 -178 231q-101 0 -169 -89q-34 -44 -55.5 -110t-21.5 -138q0 -112 45.5 -173t136.5 -61
q107 0 176 99q32 45 49 110.5t17 130.5zM552 719h-254l11 59h255z" />
    <glyph glyph-name="omacron" unicode="&#x14d;" horiz-adv-x="435" 
d="M398 277q0 -126 -58.5 -208t-164.5 -82q-69 0 -109 44t-40 119q0 120 60.5 201t168.5 81q67 0 105 -41t38 -114zM328 288q0 102 -82 102q-58 0 -94 -51q-23 -32 -39 -90.5t-16 -111.5q0 -55 23 -81.5t61 -26.5q62 0 95 53q22 35 37 93.5t15 112.5zM389 532h-230l10 58
h231z" />
    <glyph glyph-name="Obreve" unicode="&#x14e;" horiz-adv-x="673" 
d="M649 383q0 -169 -89 -279q-45 -56 -107.5 -87t-132.5 -31q-131 0 -197 79.5t-66 206.5q0 169 109 288q43 48 104 72.5t124 24.5q126 0 190.5 -73.5t64.5 -200.5zM565 376q0 231 -178 231q-101 0 -169 -89q-34 -44 -55.5 -110t-21.5 -138q0 -112 45.5 -173t136.5 -61
q107 0 176 99q32 45 49 110.5t17 130.5zM545 841l36 -2q-10 -68 -52.5 -106.5t-101.5 -38.5q-54 0 -86.5 28.5t-33.5 87.5q0 16 3 29l34 3q3 -85 88 -85q87 0 113 84z" />
    <glyph glyph-name="obreve" unicode="&#x14f;" horiz-adv-x="435" 
d="M398 277q0 -126 -58.5 -208t-164.5 -82q-69 0 -109 44t-40 119q0 120 60.5 201t168.5 81q67 0 105 -41t38 -114zM328 288q0 102 -82 102q-58 0 -94 -51q-23 -32 -39 -90.5t-16 -111.5q0 -55 23 -81.5t61 -26.5q62 0 95 53q22 35 37 93.5t15 112.5zM378 647l34 -2
q-9 -68 -46 -106t-92 -38q-103 0 -103 118q0 17 2 24l33 4q2 -84 74 -84q74 0 98 84z" />
    <glyph glyph-name="Ohungarumlaut" unicode="&#x150;" horiz-adv-x="673" 
d="M649 383q0 -169 -89 -279q-45 -56 -107.5 -87t-132.5 -31q-131 0 -197 79.5t-66 206.5q0 169 109 288q43 48 104 72.5t124 24.5q126 0 190.5 -73.5t64.5 -200.5zM565 376q0 231 -178 231q-101 0 -169 -89q-34 -44 -55.5 -110t-21.5 -138q0 -112 45.5 -173t136.5 -61
q107 0 176 99q32 45 49 110.5t17 130.5zM335 682l-23 20l108 129q29 35 47 35q11 0 20.5 -9.5t9.5 -23.5q0 -21 -35 -48zM472 682l-25 20l108 129q29 35 47 35q11 0 20.5 -9.5t9.5 -23.5q0 -19 -35 -48z" />
    <glyph glyph-name="ohungarumlaut" unicode="&#x151;" horiz-adv-x="435" 
d="M398 277q0 -126 -58.5 -208t-164.5 -82q-69 0 -109 44t-40 119q0 120 60.5 201t168.5 81q67 0 105 -41t38 -114zM328 288q0 102 -82 102q-58 0 -94 -51q-23 -32 -39 -90.5t-16 -111.5q0 -55 23 -81.5t61 -26.5q62 0 95 53q22 35 37 93.5t15 112.5zM189 500l-25 18l86 136
q25 41 45 41q11 0 21.5 -8t10.5 -21q0 -19 -28 -48zM316 501l-26 18l88 136q15 24 24.5 32t20.5 8q10 0 20.5 -8.5t10.5 -20.5q0 -19 -28 -48z" />
    <glyph glyph-name="OE" unicode="&#x152;" horiz-adv-x="908" 
d="M871 168q-19 -83 -46 -142q-7 -16 -19.5 -21t-44.5 -5h-271q-21 0 -81.5 -3t-95.5 -3q-129 0 -192.5 72t-63.5 193q0 165 101.5 277.5t268.5 112.5q23 0 87.5 -3t89.5 -3h230q36 0 44.5 -6t8.5 -23q0 -13 -7 -62t-11 -67h-34q-6 84 -17 95t-33.5 14t-86.5 3q-33 0 -81 -2
l-44 -242h9q76 0 106 4t44 15q16 12 33 64h35q-20 -97 -37 -211h-36q0 59 -8 68q-9 10 -37.5 12.5t-106.5 2.5h-10l-34 -191q-5 -28 -5 -38q0 -22 18 -26q27 -6 77 -6q122 0 152 25q18 16 66 103zM458 137l66 368q6 34 6 48q0 21 -7 28q-20 23 -109 23q-83 0 -146.5 -49
t-95 -125t-31.5 -164q0 -98 46 -161.5t136 -63.5q96 0 118 36q8 12 17 60z" />
    <glyph glyph-name="oe" unicode="&#x153;" horiz-adv-x="642" 
d="M602 70q-52 -39 -104.5 -61t-90.5 -22q-35 0 -58.5 18t-30.5 50q-56 -68 -143 -68q-69 0 -109 44.5t-40 119.5q0 119 60.5 200t167.5 81q46 0 79.5 -23t43.5 -68q29 40 72.5 65t91.5 25q42 0 66.5 -23t24.5 -58q0 -61 -61 -97t-193 -67q-7 -33 -7 -57q0 -41 18.5 -61
t47.5 -20q66 0 148 49zM324 286q0 104 -79 104q-53 0 -91 -50q-24 -32 -40.5 -91.5t-16.5 -112.5q0 -54 23.5 -80.5t59.5 -26.5q56 0 91 50q22 33 37.5 92.5t15.5 114.5zM383 222q175 56 175 117q0 43 -44 43q-33 0 -65 -32q-40 -40 -66 -128z" />
    <glyph glyph-name="Racute" unicode="&#x154;" horiz-adv-x="603" 
d="M246 -1q-94 2 -144 2q-6 0 -112 -2l7 36q45 4 59 7t19 11q7 9 16 56l77 422q6 39 6 43q0 17 -16 23q-12 5 -70 11l8 35h145q124 0 175 -13q116 -29 116 -141q0 -71 -45.5 -122.5t-115.5 -70.5q52 -122 102 -193q41 -59 87 -98l-20 -30q-69 25 -119 80q-70 80 -132 226
q-10 -1 -41 -1q-23 0 -47 2l-31 -167q-6 -31 -6 -48q0 -18 15 -22q29 -5 74 -10zM210 329q27 -3 55 -3q78 0 130 36.5t52 112.5q0 83 -56 107q-43 19 -133 19zM222 -274l-18 26q76 48 78 94q0 13 -8.5 29.5t-8.5 28.5q0 17 12 28t31 11q46 0 46 -54q-1 -85 -132 -163z" />
    <glyph glyph-name="racute" unicode="&#x155;" horiz-adv-x="356" 
d="M106 -3l-63 7l57 255q18 77 18 94q0 18 -15 18q-17 0 -54 -11l-7 27q80 45 127 45q29 0 29 -31q0 -20 -8 -52q41 49 89 69q25 9 41 9q31 0 31 -31q0 -25 -22 -55q-14 12 -41 12q-56 0 -106 -41zM211 500l-21 22l110 128q18 22 27 28.5t21 6.5q14 0 24 -9.5t10 -26.5
q0 -19 -38 -49z" />
    <glyph glyph-name="Rcommaaccent" unicode="&#x156;" horiz-adv-x="603" 
d="M246 -1q-94 2 -144 2q-6 0 -112 -2l7 36q45 4 59 7t19 11q7 9 16 56l77 422q6 39 6 43q0 17 -16 23q-12 5 -70 11l8 35h145q124 0 175 -13q116 -29 116 -141q0 -71 -45.5 -122.5t-115.5 -70.5q52 -122 102 -193q41 -59 87 -98l-20 -30q-69 25 -119 80q-70 80 -132 226
q-10 -1 -41 -1q-23 0 -47 2l-31 -167q-6 -31 -6 -48q0 -18 15 -22q29 -5 74 -10zM210 329q27 -3 55 -3q78 0 130 36.5t52 112.5q0 83 -56 107q-43 19 -133 19zM222 -274l-18 26q76 48 78 94q0 13 -8.5 29.5t-8.5 28.5q0 17 12 28t31 11q46 0 46 -54q-1 -85 -132 -163z" />
    <glyph glyph-name="rcommaaccent" unicode="&#x157;" horiz-adv-x="356" 
d="M-15 -274l-18 26q76 48 78 94q0 13 -8.5 29.5t-8.5 28.5q0 17 12 28t31 11q46 0 46 -54q-1 -85 -132 -163zM106 -3l-63 7l57 255q18 77 18 94q0 18 -15 18q-17 0 -54 -11l-7 27q80 45 127 45q29 0 29 -31q0 -20 -8 -52q41 49 89 69q25 9 41 9q31 0 31 -31q0 -25 -22 -55
q-14 12 -41 12q-56 0 -106 -41z" />
    <glyph glyph-name="Rcaron" unicode="&#x158;" horiz-adv-x="603" 
d="M246 -1q-94 2 -144 2q-6 0 -112 -2l7 36q45 4 59 7t19 11q7 9 16 56l77 422q6 39 6 43q0 17 -16 23q-12 5 -70 11l8 35h145q124 0 175 -13q116 -29 116 -141q0 -71 -45.5 -122.5t-115.5 -70.5q52 -122 102 -193q41 -59 87 -98l-20 -30q-69 25 -119 80q-70 80 -132 226
q-10 -1 -41 -1q-23 0 -47 2l-31 -167q-6 -31 -6 -48q0 -18 15 -22q29 -5 74 -10zM210 329q27 -3 55 -3q78 0 130 36.5t52 112.5q0 83 -56 107q-43 19 -133 19zM214 837l26 20l103 -86l132 86l19 -24l-134 -127q-19 -19 -31 -19q-16 0 -28 19z" />
    <glyph glyph-name="rcaron" unicode="&#x159;" horiz-adv-x="356" 
d="M106 -3l-63 7l57 255q18 77 18 94q0 18 -15 18q-17 0 -54 -11l-7 27q80 45 127 45q29 0 29 -31q0 -20 -8 -52q41 49 89 69q25 9 41 9q31 0 31 -31q0 -25 -22 -55q-14 12 -41 12q-56 0 -106 -41zM103 655l25 18l90 -104l125 104l22 -21l-128 -144q-18 -19 -31 -19
q-17 0 -28 19z" />
    <glyph glyph-name="Sacute" unicode="&#x15a;" horiz-adv-x="474" 
d="M64 185q15 -84 31 -108q13 -18 42 -30t67 -12q69 0 104.5 28.5t35.5 76.5q0 64 -91 133l-49 37q-104 76 -104 168q0 90 63 134.5t167 44.5q64 0 114 -21q21 -9 21 -31q-2 -81 -8 -132h-36q-8 64 -18 92q-6 20 -25 29q-32 15 -72 15q-59 0 -94 -28t-35 -78q0 -56 77 -116
l52 -41q65 -51 92 -91.5t27 -84.5q0 -88 -64.5 -136.5t-168.5 -48.5q-87 0 -140 34q-21 15 -23 46q-3 45 -3 120h38zM279 681l-18 26l122 107q30 26 46 26q14 0 24.5 -12t10.5 -28q0 -20 -43 -44z" />
    <glyph glyph-name="sacute" unicode="&#x15b;" horiz-adv-x="333" 
d="M34 91q17 -20 49 -35t65 -15q34 0 53.5 15.5t19.5 37.5q0 29 -43 65l-69 59q-40 32 -40 86q0 57 41.5 91.5t115.5 34.5q44 0 71 -11q13 -7 13 -23q0 -19 -19 -47q-40 28 -101 28q-27 0 -44 -13.5t-17 -35.5q0 -26 33 -55l68 -59q53 -45 53 -94q0 -55 -43.5 -93.5
t-120.5 -38.5q-56 0 -90 23q-21 15 -21 32q0 22 26 48zM207 500l-21 22l110 128q18 22 27 28.5t21 6.5q14 0 24 -9.5t10 -26.5q0 -19 -38 -49z" />
    <glyph glyph-name="Scircumflex" unicode="&#x15c;" horiz-adv-x="474" 
d="M64 185q15 -84 31 -108q13 -18 42 -30t67 -12q69 0 104.5 28.5t35.5 76.5q0 64 -91 133l-49 37q-104 76 -104 168q0 90 63 134.5t167 44.5q64 0 114 -21q21 -9 21 -31q-2 -81 -8 -132h-36q-8 64 -18 92q-6 20 -25 29q-32 15 -72 15q-59 0 -94 -28t-35 -78q0 -56 77 -116
l52 -41q65 -51 92 -91.5t27 -84.5q0 -88 -64.5 -136.5t-168.5 -48.5q-87 0 -140 34q-21 15 -23 46q-3 45 -3 120h38zM480 695l-24 -21l-103 86l-132 -85l-21 24l134 126q21 19 32 19q16 0 28 -19z" />
    <glyph glyph-name="scircumflex" unicode="&#x15d;" horiz-adv-x="333" 
d="M34 91q17 -20 49 -35t65 -15q34 0 53.5 15.5t19.5 37.5q0 29 -43 65l-69 59q-40 32 -40 86q0 57 41.5 91.5t115.5 34.5q44 0 71 -11q13 -7 13 -23q0 -19 -19 -47q-40 28 -101 28q-27 0 -44 -13.5t-17 -35.5q0 -26 33 -55l68 -59q53 -45 53 -94q0 -55 -43.5 -93.5
t-120.5 -38.5q-56 0 -90 23q-21 15 -21 32q0 22 26 48zM352 505l-24 -18l-89 104l-125 -104l-22 21l129 143q18 19 29 19q18 0 28 -19z" />
    <glyph glyph-name="Scedilla" unicode="&#x15e;" horiz-adv-x="474" 
d="M110 -268l-7 37q114 30 115 77q0 26 -39 49q-17 12 -17 27q0 19 24 63q-85 2 -134 34q-21 15 -23 46q-3 45 -3 120h38q15 -84 31 -108q13 -18 42 -30t67 -12q69 0 104.5 28.5t35.5 76.5q0 64 -91 133l-49 37q-104 76 -104 168q0 90 63 134.5t167 44.5q64 0 114 -21
q21 -9 21 -31q-2 -81 -8 -132h-36q-8 64 -18 92q-6 20 -25 29q-32 15 -72 15q-59 0 -94 -28t-35 -78q0 -59 75 -116l54 -41q65 -51 92 -91.5t27 -84.5q0 -80 -54.5 -127.5t-145.5 -55.5q-12 -24 -12 -35q0 -12 13 -20q56 -30 56 -70q0 -95 -172 -130z" />
    <glyph glyph-name="scedilla" unicode="&#x15f;" horiz-adv-x="333" 
d="M37 -260l-6 36q55 15 82.5 32.5t28.5 42.5q0 13 -7.5 21.5t-29.5 25.5q-17 12 -17 26q2 21 25 64q-54 2 -84 23q-21 15 -21 32q0 22 26 48q17 -20 49 -35t65 -15q34 0 53.5 15.5t19.5 37.5q0 29 -43 65l-69 59q-40 32 -40 86q0 57 41.5 91.5t115.5 34.5q44 0 71 -11
q13 -7 13 -23q0 -19 -19 -47q-40 28 -101 28q-27 0 -44 -13.5t-17 -35.5q0 -26 33 -55l68 -59q53 -45 53 -94q0 -48 -34.5 -85t-97.5 -45q-13 -22 -13 -34q0 -15 13 -22q54 -29 54 -68q0 -52 -49 -82.5t-119 -43.5z" />
    <glyph glyph-name="Scaron" unicode="&#x160;" horiz-adv-x="474" 
d="M64 185q15 -84 31 -108q13 -18 42 -30t67 -12q69 0 104.5 28.5t35.5 76.5q0 64 -91 133l-49 37q-104 76 -104 168q0 90 63 134.5t167 44.5q64 0 114 -21q21 -9 21 -31q-2 -81 -8 -132h-36q-8 64 -18 92q-6 20 -25 29q-32 15 -72 15q-59 0 -94 -28t-35 -78q0 -56 77 -116
l52 -41q65 -51 92 -91.5t27 -84.5q0 -88 -64.5 -136.5t-168.5 -48.5q-87 0 -140 34q-21 15 -23 46q-3 45 -3 120h38zM212 837l26 20l103 -86l132 86l19 -24l-134 -127q-19 -19 -31 -19q-16 0 -28 19z" />
    <glyph glyph-name="scaron" unicode="&#x161;" horiz-adv-x="333" 
d="M34 91q17 -20 49 -35t65 -15q34 0 53.5 15.5t19.5 37.5q0 29 -43 65l-69 59q-40 32 -40 86q0 57 41.5 91.5t115.5 34.5q44 0 71 -11q13 -7 13 -23q0 -19 -19 -47q-40 28 -101 28q-27 0 -44 -13.5t-17 -35.5q0 -26 33 -55l68 -59q53 -45 53 -94q0 -55 -43.5 -93.5
t-120.5 -38.5q-56 0 -90 23q-21 15 -21 32q0 22 26 48zM112 655l25 18l90 -104l125 104l22 -21l-128 -144q-18 -19 -31 -19q-17 0 -28 19z" />
    <glyph glyph-name="uni0162" unicode="&#x162;" horiz-adv-x="588" 
d="M150 -268l-7 37q113 30 114 77q0 26 -38 49q-18 13 -18 27q1 23 33 79q-42 0 -112 -2l6 36q70 5 83 21q8 10 17 60l88 482q-125 0 -147 -13q-14 -8 -26.5 -31t-38.5 -86l-36 3q5 19 12 51.5t12.5 55t9.5 37.5q8 28 34 28h457q17 0 22 -6t5 -23q0 -43 -16 -141l-37 -2
q-1 10 -2.5 29.5t-2.5 27.5l-2.5 20t-3.5 18.5t-5 10.5q-9 13 -41.5 17t-116.5 4l-88 -480q-6 -30 -6 -50q0 -19 16 -23q25 -6 72 -10l-7 -36q-13 1 -52 1.5t-55 0.5q-20 -34 -20 -49q0 -13 13 -20q30 -17 43 -32.5t13 -37.5q0 -95 -172 -130z" />
    <glyph glyph-name="uni0163" unicode="&#x163;" horiz-adv-x="288" 
d="M13 -260l-6 36q55 15 82.5 32.5t28.5 42.5q0 13 -7.5 21.5t-29.5 25.5q-17 12 -17 26q2 23 27 68q-35 5 -35 47q0 29 16 111l44 210q-35 1 -71 7l6 33q4 1 52 9q22 4 38 45l23 64l52 7l-23 -114q48 0 99 -8l-8 -36q-30 -5 -100 -7l-41 -207q-13 -70 -13 -82q0 -18 15 -18
q21 0 91 28l13 -26q-70 -48 -119 -60q-16 -26 -16 -39q0 -15 13 -22q54 -29 54 -68q0 -52 -49 -82.5t-119 -43.5z" />
    <glyph glyph-name="Tcaron" unicode="&#x164;" horiz-adv-x="588" 
d="M380 -1q-68 2 -137 2q-43 0 -121 -2l6 36q70 5 83 21q8 10 17 60l88 482q-125 0 -147 -13q-14 -8 -26.5 -31t-38.5 -86l-36 3q5 19 12 51.5t12.5 55t9.5 37.5q8 28 34 28h457q17 0 22 -6t5 -23q0 -43 -16 -141l-37 -2q-1 10 -2.5 29.5t-2.5 27.5l-2.5 20t-3.5 18.5
t-5 10.5q-9 13 -41.5 17t-116.5 4l-88 -480q-6 -30 -6 -50q0 -19 16 -23q25 -6 72 -10zM250 837l26 20l103 -86l132 86l19 -24l-134 -127q-19 -19 -31 -19q-16 0 -28 19z" />
    <glyph glyph-name="tcaron" unicode="&#x165;" horiz-adv-x="288" 
d="M249 55q-94 -64 -148 -64q-45 0 -45 48q0 29 16 111l44 210q-35 1 -71 7l6 33q23 6 52 9q22 5 38 45l23 64l52 7l-23 -114q48 0 99 -8l-8 -36q-30 -5 -100 -7l-40 -210q-14 -63 -14 -79q0 -18 15 -18q21 0 91 28zM246 441l-17 25q74 50 74 94q0 13 -8 29t-8 28
q0 17 12 28.5t30 11.5q42 0 42 -54q0 -85 -125 -162z" />
    <glyph glyph-name="Tbar" unicode="&#x166;" horiz-adv-x="588" 
d="M497 369l-10 -50h-145l-37 -201q-6 -30 -6 -50q0 -19 16 -23q25 -6 72 -10l-7 -36q-68 2 -137 2q-43 0 -121 -2l6 36q70 5 83 21q8 10 17 60l37 203h-138l10 50h137l42 229q-123 0 -147 -13q-14 -8 -26.5 -31t-38.5 -86l-36 3q5 19 12 51.5t12.5 55t9.5 37.5q8 28 34 28
h457q17 0 22 -6t5 -23q0 -43 -16 -141l-37 -2q-1 10 -2.5 29.5t-2.5 27.5l-2.5 20t-3.5 18.5t-5 10.5q-9 13 -41.5 17t-116.5 4l-42 -229h146z" />
    <glyph glyph-name="tbar" unicode="&#x167;" horiz-adv-x="288" 
d="M269 269l-9 -44h-102l-14 -75q-14 -76 -14 -79q0 -18 15 -18q21 0 91 28l13 -26q-94 -64 -148 -64q-45 0 -45 48q0 29 16 111l15 75h-63l9 44h64l19 91q-35 1 -71 7l6 33q23 6 52 9q14 3 21.5 13t16.5 32l23 64l52 7l-23 -114q48 0 99 -8l-8 -36q-30 -5 -100 -7l-17 -91
h102z" />
    <glyph glyph-name="Utilde" unicode="&#x168;" horiz-adv-x="682" 
d="M733 608q-71 -6 -80 -21q-9 -16 -17 -61l-43 -235q-17 -94 -36.5 -145.5t-51.5 -84.5q-73 -76 -211 -76q-89 0 -145.5 40.5t-56.5 130.5q0 46 18 140q8 40 23.5 122t22.5 116q5 22 5 40q0 19 -15 24t-68 10l7 36q72 -2 138 -2q41 0 121 2l-7 -36q-71 -5 -84 -18
q-9 -8 -18 -51q-8 -40 -45 -239q-16 -83 -16 -130q0 -130 147 -130q113 0 164 69q36 50 64 209q8 45 34 215q4 32 4 42q0 19 -24 24q-19 4 -62 9l6 36q74 -2 117 -2q48 0 116 2zM326 696l-29 11q37 98 96 98q21 0 51 -14l25 -12q26 -12 43 -12q14 0 24.5 10.5t26.5 37.5
l29 -12q-38 -97 -89 -97q-20 0 -57 17l-23 10q-26 10 -43 10q-14 0 -24.5 -10t-29.5 -37z" />
    <glyph glyph-name="utilde" unicode="&#x169;" horiz-adv-x="495" 
d="M469 53q-83 -62 -137 -62q-33 0 -33 38q0 22 2 41q-99 -78 -181 -78q-55 0 -55 59q0 35 16 103l26 112q14 65 16 88q0 17 -11 17q-25 0 -59 -11l-7 27q76 45 127 45q29 0 29 -31q0 -20 -17 -91l-27 -112q-20 -78 -20 -105q0 -19 7 -27t27 -8q25 0 63.5 16t69.5 38l66 309
l65 -6l-52 -247q-15 -71 -15 -92q0 -20 16 -20q19 0 72 22zM187 517l-26 12q39 98 93 98q19 0 49 -13l23 -11q29 -13 40 -13q23 0 51 48l26 -13q-40 -97 -85 -97q-18 0 -55 16l-22 10q-24 10 -39 10q-14 0 -26 -10.5t-29 -36.5z" />
    <glyph glyph-name="Umacron" unicode="&#x16a;" horiz-adv-x="682" 
d="M733 608q-71 -6 -80 -21q-9 -16 -17 -61l-43 -235q-17 -94 -36.5 -145.5t-51.5 -84.5q-73 -76 -211 -76q-89 0 -145.5 40.5t-56.5 130.5q0 46 18 140q8 40 23.5 122t22.5 116q5 22 5 40q0 19 -15 24t-68 10l7 36q72 -2 138 -2q41 0 121 2l-7 -36q-71 -5 -84 -18
q-9 -8 -18 -51q-8 -40 -45 -239q-16 -83 -16 -130q0 -130 147 -130q113 0 164 69q36 50 64 209q8 45 34 215q4 32 4 42q0 19 -24 24q-19 4 -62 9l6 36q74 -2 117 -2q48 0 116 2zM558 719h-254l11 59h255z" />
    <glyph glyph-name="umacron" unicode="&#x16b;" horiz-adv-x="495" 
d="M469 53q-83 -62 -137 -62q-33 0 -33 38q0 22 2 41q-99 -78 -181 -78q-55 0 -55 59q0 35 16 103l26 112q14 65 16 88q0 17 -11 17q-25 0 -59 -11l-7 27q76 45 127 45q29 0 29 -31q0 -20 -17 -91l-27 -112q-20 -78 -20 -105q0 -19 7 -27t27 -8q25 0 63.5 16t69.5 38l66 309
l65 -6l-52 -247q-15 -71 -15 -92q0 -20 16 -20q19 0 72 22zM413 532h-230l10 58h231z" />
    <glyph glyph-name="Ubreve" unicode="&#x16c;" horiz-adv-x="682" 
d="M733 608q-71 -6 -80 -21q-9 -16 -17 -61l-43 -235q-17 -94 -36.5 -145.5t-51.5 -84.5q-73 -76 -211 -76q-89 0 -145.5 40.5t-56.5 130.5q0 46 18 140q8 40 23.5 122t22.5 116q5 22 5 40q0 19 -15 24t-68 10l7 36q72 -2 138 -2q41 0 121 2l-7 -36q-71 -5 -84 -18
q-9 -8 -18 -51q-8 -40 -45 -239q-16 -83 -16 -130q0 -130 147 -130q113 0 164 69q36 50 64 209q8 45 34 215q4 32 4 42q0 19 -24 24q-19 4 -62 9l6 36q74 -2 117 -2q48 0 116 2zM541 841l36 -2q-10 -68 -52.5 -106.5t-101.5 -38.5q-54 0 -86.5 28.5t-33.5 87.5q0 16 3 29
l34 3q3 -85 88 -85q87 0 113 84z" />
    <glyph glyph-name="ubreve" unicode="&#x16d;" horiz-adv-x="495" 
d="M469 53q-83 -62 -137 -62q-33 0 -33 38q0 22 2 41q-99 -78 -181 -78q-55 0 -55 59q0 35 16 103l26 112q14 65 16 88q0 17 -11 17q-25 0 -59 -11l-7 27q76 45 127 45q29 0 29 -31q0 -20 -17 -91l-27 -112q-20 -78 -20 -105q0 -19 7 -27t27 -8q25 0 63.5 16t69.5 38l66 309
l65 -6l-52 -247q-15 -71 -15 -92q0 -20 16 -20q19 0 72 22zM402 647l34 -2q-9 -68 -46 -106t-92 -38q-103 0 -103 118q0 17 2 24l33 4q2 -84 74 -84q74 0 98 84z" />
    <glyph glyph-name="Uring" unicode="&#x16e;" horiz-adv-x="682" 
d="M733 608q-71 -6 -80 -21q-9 -16 -17 -61l-43 -235q-17 -94 -36.5 -145.5t-51.5 -84.5q-73 -76 -211 -76q-89 0 -145.5 40.5t-56.5 130.5q0 46 18 140q8 40 23.5 122t22.5 116q5 22 5 40q0 19 -15 24t-68 10l7 36q72 -2 138 -2q41 0 121 2l-7 -36q-71 -5 -84 -18
q-9 -8 -18 -51q-8 -40 -45 -239q-16 -83 -16 -130q0 -130 147 -130q113 0 164 69q36 50 64 209q8 45 34 215q4 32 4 42q0 19 -24 24q-19 4 -62 9l6 36q74 -2 117 -2q48 0 116 2zM510 764q0 -41 -26.5 -69t-64.5 -28q-35 0 -57.5 23.5t-22.5 61.5q1 41 27.5 69t64.5 28
q37 0 58 -22.5t21 -62.5zM473 763q0 23 -13 36.5t-32 13.5q-21 0 -36 -15.5t-15 -42.5q0 -23 12 -37t33 -14q22 0 36 16.5t15 42.5z" />
    <glyph glyph-name="uring" unicode="&#x16f;" horiz-adv-x="495" 
d="M469 53q-83 -62 -137 -62q-33 0 -33 38q0 22 2 41q-99 -78 -181 -78q-55 0 -55 59q0 35 16 103l26 112q14 65 16 88q0 17 -11 17q-25 0 -59 -11l-7 27q76 45 127 45q29 0 29 -31q0 -20 -17 -91l-27 -112q-20 -78 -20 -105q0 -19 7 -27t27 -8q25 0 63.5 16t69.5 38l66 309
l65 -6l-52 -247q-15 -71 -15 -92q0 -20 16 -20q19 0 72 22zM387 591q0 -42 -26 -69.5t-65 -27.5q-35 0 -57.5 23.5t-22.5 61.5q1 40 27.5 68t64.5 28q37 0 58 -22.5t21 -61.5zM350 589q0 24 -13 37.5t-32 13.5q-21 0 -36 -16t-15 -42q0 -24 12 -38t33 -14q22 0 36 16.5
t15 42.5z" />
    <glyph glyph-name="Uhungarumlaut" unicode="&#x170;" horiz-adv-x="682" 
d="M733 608q-71 -6 -80 -21q-9 -16 -17 -61l-43 -235q-17 -94 -36.5 -145.5t-51.5 -84.5q-73 -76 -211 -76q-89 0 -145.5 40.5t-56.5 130.5q0 46 18 140q8 40 23.5 122t22.5 116q5 22 5 40q0 19 -15 24t-68 10l7 36q72 -2 138 -2q41 0 121 2l-7 -36q-71 -5 -84 -18
q-9 -8 -18 -51q-8 -40 -45 -239q-16 -83 -16 -130q0 -130 147 -130q113 0 164 69q36 50 64 209q8 45 34 215q4 32 4 42q0 19 -24 24q-19 4 -62 9l6 36q74 -2 117 -2q48 0 116 2zM336 682l-23 20l108 129q29 35 47 35q11 0 20.5 -9.5t9.5 -23.5q0 -21 -35 -48zM473 682
l-25 20l108 129q29 35 47 35q11 0 20.5 -9.5t9.5 -23.5q0 -19 -35 -48z" />
    <glyph glyph-name="uhungarumlaut" unicode="&#x171;" horiz-adv-x="495" 
d="M469 53q-83 -62 -137 -62q-33 0 -33 38q0 22 2 41q-99 -78 -181 -78q-55 0 -55 59q0 35 16 103l26 112q14 65 16 88q0 17 -11 17q-25 0 -59 -11l-7 27q76 45 127 45q29 0 29 -31q0 -20 -17 -91l-27 -112q-20 -78 -20 -105q0 -19 7 -27t27 -8q25 0 63.5 16t69.5 38l66 309
l65 -6l-52 -247q-15 -71 -15 -92q0 -20 16 -20q19 0 72 22zM216 500l-25 18l86 136q25 41 45 41q11 0 21.5 -8t10.5 -21q0 -19 -28 -48zM343 501l-26 18l88 136q15 24 24.5 32t20.5 8q10 0 20.5 -8.5t10.5 -20.5q0 -19 -28 -48z" />
    <glyph glyph-name="Uogonek" unicode="&#x172;" horiz-adv-x="682" 
d="M733 608q-71 -6 -80 -21q-9 -16 -17 -61l-43 -235q-17 -94 -36.5 -145.5t-51.5 -84.5q-56 -59 -157 -73q-51 -49 -73 -81t-22 -63q0 -48 50 -48q34 0 68 12l11 -30q-62 -37 -110 -37q-38 0 -59.5 24t-21.5 59q0 42 25.5 77.5t83.5 83.5h-6q-89 0 -145.5 40.5t-56.5 130.5
q0 46 18 140q8 40 23.5 122t22.5 116q5 22 5 40q0 19 -15 24t-68 10l7 36q72 -2 138 -2q41 0 121 2l-7 -36q-71 -5 -84 -18q-9 -8 -18 -51q-8 -40 -45 -239q-16 -83 -16 -130q0 -130 147 -130q113 0 164 69q36 50 64 209q8 45 34 215q4 32 4 42q0 19 -24 24q-19 4 -62 9
l6 36q74 -2 117 -2q48 0 116 2z" />
    <glyph glyph-name="uogonek" unicode="&#x173;" horiz-adv-x="495" 
d="M469 53q-54 -40 -95 -53q-55 -52 -79 -86t-25 -66q0 -47 49 -47q33 0 65 13l11 -29q-56 -36 -107 -36q-37 0 -56.5 22.5t-19.5 56.5q0 43 25.5 79t86.5 85q-25 5 -25 37q0 22 2 41q-99 -78 -181 -78q-55 0 -55 59q0 35 16 103l26 112q14 65 16 88q0 17 -11 17
q-25 0 -59 -11l-7 27q76 45 127 45q29 0 29 -31q0 -20 -17 -91l-27 -112q-20 -78 -20 -105q0 -19 7 -27t27 -8q25 0 63.5 16t69.5 38l66 309l65 -6l-52 -247q-15 -71 -15 -92q0 -20 16 -20q19 0 72 22z" />
    <glyph glyph-name="Wcircumflex" unicode="&#x174;" horiz-adv-x="894" 
d="M235 -5h-49l-37 515q-6 79 -21 87t-56 11l6 36q122 -2 126 -2q93 0 133 2l-8 -36q-17 -2 -39.5 -4t-28.5 -3q-33 -5 -34 -36q0 -44 2 -77l22 -352l257 507h42l63 -509l151 349q30 67 30 91q0 18 -20 23q-31 8 -65 11l5 36q94 -2 123 -2q41 0 111 2l-5 -36q-52 -6 -66 -18
q-5 -4 -8.5 -8.5t-9 -15t-9.5 -20.5t-14 -33t-19 -43l-213 -475h-48l-63 505zM677 695l-24 -21l-103 86l-132 -85l-21 24l134 126q21 19 32 19q16 0 28 -19z" />
    <glyph glyph-name="wcircumflex" unicode="&#x175;" horiz-adv-x="641" 
d="M290 96q-100 -107 -179 -107q-47 0 -47 52q0 36 16 105l28 132q7 35 10 74q0 14 -11 14q-18 0 -57 -10l-9 30q82 45 129 45q24 0 24 -26q0 -24 -16 -103l-26 -121q-16 -73 -16 -97q0 -26 25 -26q27 0 66.5 29t66.5 61l56 268l62 -3l-45 -227q-12 -63 -12 -93
q0 -35 26 -35q23 0 56 19.5t61 57.5q59 78 61 190q0 44 -30 72q36 33 62 33q17 0 23 -17q8 -24 8 -57q-2 -132 -89 -244q-44 -56 -96.5 -89.5t-95.5 -33.5q-26 0 -36.5 15.5t-13.5 49.5q-1 11 -1 42zM513 505l-24 -18l-89 104l-125 -104l-22 21l129 143q18 19 29 19
q19 0 28 -19z" />
    <glyph glyph-name="Ycircumflex" unicode="&#x176;" horiz-adv-x="590" 
d="M383 -1q-96 2 -130 2q-25 0 -127 -2l6 36q69 4 82 20q8 9 15 47l30 165l-103 261q-22 57 -33 66q-10 9 -55 14l7 36q55 -2 117 -2q73 0 127 2l-6 -36q-42 -3 -62 -6q-26 -5 -26 -19q0 -23 27 -94l67 -169l136 181q52 68 52 86q0 11 -12 14q-15 4 -61 7l7 36q46 -2 117 -2
q50 0 93 2l-7 -36q-33 -4 -45 -13q-16 -12 -79 -91l-186 -236l-28 -164q-4 -21 -4 -39q0 -17 17 -21q28 -5 71 -9zM534 695l-24 -21l-103 86l-132 -85l-21 24l134 126q21 19 32 19q16 0 28 -19z" />
    <glyph glyph-name="ycircumflex" unicode="&#x177;" horiz-adv-x="491" 
d="M442 418l-88 -416q-27 -129 -95.5 -200t-165.5 -71q-34 0 -58.5 10t-24.5 28q0 26 20 54q38 -27 109 -27q46 0 75 30t52 112q8 28 35 136q-41 -37 -96 -63q-42 -19 -81 -19q-58 0 -58 61q0 36 15 101l27 115q14 55 16 86q0 16 -12 16q-24 0 -58 -11l-8 27q36 21 72.5 33
t52.5 12q32 0 32 -28q0 -19 -17 -91l-25 -104q-22 -88 -22 -113q0 -21 7.5 -29.5t28.5 -8.5q49 0 133 58l68 308zM423 505l-24 -18l-89 104l-125 -104l-22 21l129 143q18 19 29 19q19 0 28 -19z" />
    <glyph glyph-name="Ydieresis" unicode="&#x178;" horiz-adv-x="590" 
d="M383 -1q-96 2 -130 2q-25 0 -127 -2l6 36q69 4 82 20q8 9 15 47l30 165l-103 261q-22 57 -33 66q-10 9 -55 14l7 36q55 -2 117 -2q73 0 127 2l-6 -36q-42 -3 -62 -6q-26 -5 -26 -19q0 -23 27 -94l67 -169l136 181q52 68 52 86q0 11 -12 14q-15 4 -61 7l7 36q46 -2 117 -2
q50 0 93 2l-7 -36q-33 -4 -45 -13q-16 -12 -79 -91l-186 -236l-28 -164q-4 -21 -4 -39q0 -17 17 -21q28 -5 71 -9zM345 754q0 -22 -13 -37t-33 -15q-40 0 -40 43q0 24 14.5 38.5t33.5 14.5q18 0 28 -12.5t10 -31.5zM505 754q0 -23 -12.5 -37.5t-33.5 -14.5q-40 0 -40 43
q0 24 14 38.5t34 14.5q38 0 38 -44z" />
    <glyph glyph-name="Zacute" unicode="&#x179;" horiz-adv-x="573" 
d="M-7 0l6 32l476 567q-260 -3 -281 -16q-3 -2 -5.5 -4.5l-4.5 -4.5t-5 -6t-4.5 -7l-4.5 -9t-5.5 -10.5t-6.5 -13t-6.5 -15t-8 -18.5t-9.5 -21l-33 2q11 62 29 135q8 32 37 32h425l-5 -29l-476 -564q59 -3 129 -3q108 0 147 6t59 23q14 12 54 106l34 -2q-13 -75 -29 -145
q-4 -19 -13 -27t-33 -8h-466zM327 681l-18 26l122 107q30 26 46 26q14 0 24.5 -12t10.5 -28q0 -20 -43 -44z" />
    <glyph glyph-name="zacute" unicode="&#x17a;" horiz-adv-x="423" 
d="M391 152q-13 -72 -27 -117q-6 -19 -16 -27t-38 -8h-306l3 28l298 348q-104 0 -139 -4q-27 -4 -40 -23q-12 -17 -32 -66l-32 4q10 54 20 94q5 20 15 28t35 8h273l-7 -32l-294 -343q152 0 189 12q16 4 31 29q14 24 33 72zM230 500l-21 22l110 128q18 22 27.5 28.5t20.5 6.5
q14 0 24 -9.5t10 -26.5q0 -19 -38 -49z" />
    <glyph glyph-name="Zdotaccent" unicode="&#x17b;" horiz-adv-x="573" 
d="M-7 0l6 32l476 567q-260 -3 -281 -16q-3 -2 -5.5 -4.5l-4.5 -4.5t-5 -6t-4.5 -7l-4.5 -9t-5.5 -10.5t-6.5 -13t-6.5 -15t-8 -18.5t-9.5 -21l-33 2q11 62 29 135q8 32 37 32h425l-5 -29l-476 -564q59 -3 129 -3q108 0 147 6t59 23q14 12 54 106l34 -2q-13 -75 -29 -145
q-4 -19 -13 -27t-33 -8h-466zM423 754q0 -22 -13 -37t-33 -15q-40 0 -40 43q0 24 14.5 38.5t33.5 14.5q18 0 28 -12.5t10 -31.5z" />
    <glyph glyph-name="zdotaccent" unicode="&#x17c;" horiz-adv-x="423" 
d="M391 152q-13 -72 -27 -117q-6 -19 -16 -27t-38 -8h-306l3 28l298 348q-104 0 -139 -4q-27 -4 -40 -23q-12 -17 -32 -66l-32 4q10 54 20 94q5 20 15 28t35 8h273l-7 -32l-294 -343q152 0 189 12q16 4 31 29q14 24 33 72zM306 594q-1 -22 -13.5 -37.5t-32.5 -15.5
q-40 0 -40 45q0 25 13.5 39t33.5 14q39 0 39 -45z" />
    <glyph glyph-name="Zcaron" unicode="&#x17d;" horiz-adv-x="573" 
d="M-7 0l6 32l476 567q-260 -3 -281 -16q-3 -2 -5.5 -4.5l-4.5 -4.5t-5 -6t-4.5 -7l-4.5 -9t-5.5 -10.5t-6.5 -13t-6.5 -15t-8 -18.5t-9.5 -21l-33 2q11 62 29 135q8 32 37 32h425l-5 -29l-476 -564q59 -3 129 -3q108 0 147 6t59 23q14 12 54 106l34 -2q-13 -75 -29 -145
q-4 -19 -13 -27t-33 -8h-466zM250 837l26 20l103 -86l132 86l19 -24l-134 -127q-19 -19 -31 -19q-16 0 -28 19z" />
    <glyph glyph-name="zcaron" unicode="&#x17e;" horiz-adv-x="423" 
d="M391 152q-13 -72 -27 -117q-6 -19 -16 -27t-38 -8h-306l3 28l298 348q-104 0 -139 -4q-27 -4 -40 -23q-12 -17 -32 -66l-32 4q10 54 20 94q5 20 15 28t35 8h273l-7 -32l-294 -343q152 0 189 12q16 4 31 29q14 24 33 72zM146 655l25 18l90 -104l125 104l22 -21l-128 -144
q-18 -19 -31 -19q-17 0 -28 19z" />
    <glyph glyph-name="longs" unicode="&#x17f;" horiz-adv-x="252" 
d="M209 460l-86 -435q-21 -108 -54 -175q-27 -55 -71 -88.5t-98 -33.5q-44 0 -44 28q0 24 14 45q25 -7 47 -7q46 0 70 22.5t41 85.5q14 52 35 165l53 293q-47 3 -69 7l6 33q10 2 27.5 5t25.5 5q18 4 23 26q27 126 60 181q31 52 81.5 83t104.5 31q43 0 65 -10q14 -6 14 -23
q0 -19 -21 -52q-41 23 -90 23q-61 0 -94 -66q-19 -39 -40 -143z" />
    <glyph glyph-name="florin" unicode="&#x192;" horiz-adv-x="461" 
d="M386 327h-120l-43 -219q-24 -117 -55 -172t-76.5 -86.5t-97.5 -31.5q-48 0 -48 30q0 22 16 46q25 -13 46 -13q49 0 71 21t43 85q13 37 32 139l35 201h-93l9 51h95q25 117 57 167q31 50 80.5 80t101.5 30q41 0 71 -13q16 -6 16 -26q0 -16 -25 -53q-43 32 -91 32
q-56 0 -87 -61q-21 -46 -42 -138l-4 -18h118z" />
    <glyph glyph-name="Aringacute" unicode="&#x1fa;" horiz-adv-x="633" 
d="M499 725q0 -33 -17.5 -57.5t-44.5 -32.5l81 -488q13 -82 27 -96q11 -10 61 -16l-9 -36q-90 2 -120 2q-19 0 -131 -2l7 36q52 6 70 14q22 8 22 31q0 25 -8 70l-15 91h-203l-46 -88q-38 -72 -38 -87t18 -21q17 -5 74 -10l-7 -36q-98 2 -132 2q-21 0 -113 -2l7 36
q44 4 62 20q20 18 65 97l273 484q-48 18 -48 78q1 40 26.5 67t62.5 27q36 0 56 -22t20 -61zM243 287h174q-31 191 -39 249q-36 -70 -135 -249zM403 825l-16 26l108 95q27 24 41 24q13 0 22 -11t9 -26q0 -21 -36 -40zM464 723q0 23 -12.5 37t-30.5 14q-20 0 -34.5 -15.5
t-14.5 -41.5q0 -23 11 -37t32 -14t34.5 16t14.5 41z" />
    <glyph glyph-name="aringacute" unicode="&#x1fb;" horiz-adv-x="472" 
d="M451 54q-85 -63 -138 -63q-19 0 -27 10.5t-8 38.5q0 20 2 35q-102 -86 -178 -86q-75 0 -75 91q0 71 31 148.5t83 129.5q65 65 169 65q33 0 57 -4l14 32l48 -7l-58 -239q-19 -77 -19 -124q0 -24 15 -24q22 0 70 24zM282 109l53 229q2 10 2 16q0 10 -12 14q-17 6 -50 6
q-64 0 -104 -59q-33 -47 -51 -105.5t-18 -108.5q0 -22 11 -34.5t29 -12.5q55 0 140 55zM396 591q0 -42 -26 -69.5t-64 -27.5q-35 0 -57.5 23.5t-22.5 61.5q0 40 26.5 68t64.5 28q37 0 58 -22.5t21 -61.5zM359 589q0 24 -12.5 37.5t-31.5 13.5q-21 0 -36 -16t-15 -42
q0 -52 44 -52q22 0 36 16.5t15 42.5zM316 702l-22 23l111 128q30 35 48 35q14 0 24 -10t10 -26q0 -19 -38 -49z" />
    <glyph glyph-name="AEacute" unicode="&#x1fc;" horiz-adv-x="932" 
d="M232 -1q-94 2 -143 2q-26 0 -118 -2l7 36q45 4 63 18q34 24 95 100l310 376q29 36 29 51q0 12 -18 16q-31 7 -70 9l7 38h464q36 0 44.5 -6t8.5 -24q0 -36 -17 -128h-36q-5 85 -17 95t-33.5 14t-83.5 4q-33 0 -81 -2l-44 -244h9q77 0 105.5 3.5t42.5 14.5q12 9 32 65h36
q-17 -72 -38 -212h-35q-2 59 -9 69q-8 10 -36 12.5t-104 2.5h-11l-37 -197q-4 -20 -4 -31q0 -21 21 -26q35 -7 74 -7q123 0 152 27q20 18 65 103l31 -7q-24 -106 -43 -143q-8 -16 -23 -21t-47 -5h-406l6 35q68 3 78 16q10 14 21 71l22 121h-222l-76 -96q-27 -36 -40 -55
q-10 -17 -10 -28q0 -14 21 -20q10 -3 65 -9zM316 288h193l51 277q2 10 2 18q0 6 -6 6q-7 0 -13 -9q-17 -20 -48 -60.5t-82 -106.5t-97 -125zM655 681l-18 26l122 107q30 26 46 26q14 0 24.5 -12t10.5 -28q0 -20 -43 -44z" />
    <glyph glyph-name="aeacute" unicode="&#x1fd;" horiz-adv-x="617" 
d="M577 70q-50 -38 -103.5 -60t-91.5 -22q-87 0 -96 90q-100 -90 -185 -90q-74 0 -74 92q0 71 32 150.5t86 131.5q63 61 162 61q33 0 58 -5l16 36l45 -6l-17 -61q47 44 109 44q41 0 65 -23t24 -58q0 -62 -59 -97.5t-188 -66.5q-6 -26 -6 -53q0 -86 57 -86q65 0 150 50z
M283 115q6 87 46 213q6 16 6 26q0 12 -10 15q-18 5 -49 5q-61 0 -102 -56q-35 -47 -53 -108t-19 -109q0 -19 9.5 -33t26.5 -14q65 0 145 61zM365 222q170 53 170 117q0 44 -46 44q-34 0 -64 -31q-33 -35 -60 -130zM362 500l-21 22l110 128q18 22 27.5 28.5t20.5 6.5
q14 0 24 -9.5t10 -26.5q0 -19 -38 -49z" />
    <glyph glyph-name="Oslashacute" unicode="&#x1fe;" horiz-adv-x="673" 
d="M89 -21l-34 29l58 69q-56 73 -56 195q0 169 109 288q43 48 104 72.5t124 24.5q98 0 161 -47l63 75l35 -31l-64 -76q60 -72 60 -195q0 -169 -89 -279q-45 -56 -107.5 -87t-132.5 -31q-111 0 -177 58zM565 376q0 87 -26 142l-352 -422q46 -60 136 -60q106 0 176 98
q66 94 66 242zM141 271q0 -80 22 -133l350 420q-45 50 -126 50q-102 0 -169 -88q-34 -44 -55.5 -110.5t-21.5 -138.5zM369 681l-18 26l122 107q30 26 46 26q14 0 24.5 -12t10.5 -28q0 -20 -43 -44z" />
    <glyph glyph-name="oslashacute" unicode="&#x1ff;" horiz-adv-x="435" 
d="M241 500l-21 22l110 128q18 22 27 28.5t21 6.5q14 0 24 -9.5t10 -26.5q0 -19 -38 -49zM28 -35l-31 28l52 61q-23 40 -23 96q0 120 60.5 201t168.5 81q54 0 91 -28l52 61l33 -28l-56 -66q23 -38 23 -94q0 -126 -58.5 -208t-164.5 -82q-60 0 -99 34zM328 288q0 10 -2 26
l-213 -249q22 -36 68 -36q62 0 95 53q22 35 37 93.5t15 112.5zM97 137q0 -17 1 -25l212 249q-21 29 -64 29q-58 0 -94 -51q-23 -32 -39 -90.5t-16 -111.5z" />
    <glyph glyph-name="uni0218" unicode="&#x218;" horiz-adv-x="474" 
d="M64 185q15 -84 31 -108q13 -18 42 -30t67 -12q69 0 104.5 28.5t35.5 76.5q0 64 -91 133l-49 37q-104 76 -104 168q0 90 63 134.5t167 44.5q64 0 114 -21q21 -9 21 -31q-2 -81 -8 -132h-36q-8 64 -18 92q-6 20 -25 29q-32 15 -72 15q-59 0 -94 -28t-35 -78q0 -56 77 -116
l52 -41q65 -51 92 -91.5t27 -84.5q0 -88 -64.5 -136.5t-168.5 -48.5q-87 0 -140 34q-21 15 -23 46q-3 45 -3 120h38zM123 -274l-18 26q76 48 78 94q0 13 -8.5 29.5t-8.5 28.5q0 17 12 28t31 11q46 0 46 -54q-1 -85 -132 -163z" />
    <glyph glyph-name="uni0219" unicode="&#x219;" horiz-adv-x="333" 
d="M34 91q17 -20 49 -35t65 -15q34 0 53.5 15.5t19.5 37.5q0 29 -43 65l-69 59q-40 32 -40 86q0 57 41.5 91.5t115.5 34.5q44 0 71 -11q13 -7 13 -23q0 -19 -19 -47q-40 28 -101 28q-27 0 -44 -13.5t-17 -35.5q0 -26 33 -55l68 -59q53 -45 53 -94q0 -55 -43.5 -93.5
t-120.5 -38.5q-56 0 -90 23q-21 15 -21 32q0 22 26 48zM55 -274l-18 26q76 48 78 94q0 13 -8.5 29.5t-8.5 28.5q0 17 12 28t31 11q46 0 46 -54q-1 -85 -132 -163z" />
    <glyph glyph-name="uni021A" unicode="&#x21a;" horiz-adv-x="588" 
d="M380 -1q-68 2 -137 2q-43 0 -121 -2l6 36q70 5 83 21q8 10 17 60l88 482q-125 0 -147 -13q-14 -8 -26.5 -31t-38.5 -86l-36 3q5 19 12 51.5t12.5 55t9.5 37.5q8 28 34 28h457q17 0 22 -6t5 -23q0 -43 -16 -141l-37 -2q-1 10 -2.5 29.5t-2.5 27.5l-2.5 20t-3.5 18.5
t-5 10.5q-9 13 -41.5 17t-116.5 4l-88 -480q-6 -30 -6 -50q0 -19 16 -23q25 -6 72 -10zM176 -274l-18 26q76 48 78 94q0 13 -8.5 29.5t-8.5 28.5q0 17 12 28t31 11q46 0 46 -54q-1 -85 -132 -163z" />
    <glyph glyph-name="uni021B" unicode="&#x21b;" horiz-adv-x="288" 
d="M249 55q-94 -64 -148 -64q-45 0 -45 48q0 39 16 111l46 210q-35 1 -71 7l6 33q4 1 52 9q22 4 38 45l23 64l52 7l-23 -114q48 0 99 -8l-8 -36q-30 -5 -100 -7l-43 -207q-13 -70 -13 -82q0 -18 15 -18q21 0 91 28zM32 -274l-18 26q76 48 78 94q0 13 -8.5 29.5t-8.5 28.5
q0 17 12 28t31 11q46 0 46 -54q-1 -85 -132 -163z" />
    <glyph glyph-name="circumflex" unicode="&#x2c6;" horiz-adv-x="287" 
d="M281 505l-24 -18l-89 104l-125 -104l-22 21l129 143q18 19 29 19q19 0 28 -19z" />
    <glyph glyph-name="caron" unicode="&#x2c7;" horiz-adv-x="287" 
d="M22 655l25 18l90 -104l125 104l22 -21l-128 -144q-18 -19 -31 -19q-17 0 -28 19z" />
    <glyph glyph-name="breve" unicode="&#x2d8;" horiz-adv-x="287" 
d="M240 647l34 -2q-9 -68 -46 -106t-92 -38q-103 0 -103 118q0 17 2 24l33 4q2 -84 74 -84q74 0 98 84z" />
    <glyph glyph-name="dotaccent" unicode="&#x2d9;" horiz-adv-x="287" 
d="M196 594q-1 -22 -13.5 -37.5t-32.5 -15.5q-40 0 -40 45q0 25 13.5 39t33.5 14q39 0 39 -45z" />
    <glyph glyph-name="ring" unicode="&#x2da;" horiz-adv-x="287" 
d="M238 591q0 -42 -26 -69.5t-65 -27.5q-35 0 -57.5 23.5t-22.5 61.5q1 40 27.5 68t64.5 28q37 0 58 -22.5t21 -61.5zM201 589q0 24 -13 37.5t-32 13.5q-21 0 -36 -16t-15 -42q0 -24 12 -38t33 -14q22 0 36 16.5t15 42.5z" />
    <glyph glyph-name="ogonek" unicode="&#x2db;" horiz-adv-x="287" 
d="M175 3h39q-58 -54 -82.5 -88.5t-25.5 -66.5q0 -47 49 -47q33 0 65 13l11 -29q-56 -36 -107 -36q-37 0 -56.5 22.5t-19.5 56.5q0 45 29 82.5t98 92.5z" />
    <glyph glyph-name="tilde" unicode="&#x2dc;" horiz-adv-x="287" 
d="M37 517l-26 12q39 98 93 98q19 0 49 -13l23 -11q29 -13 40 -13q23 0 51 48l26 -13q-40 -97 -85 -97q-18 0 -55 16l-22 10q-24 10 -39 10q-14 0 -26 -10.5t-29 -36.5z" />
    <glyph glyph-name="hungarumlaut" unicode="&#x2dd;" horiz-adv-x="290" 
d="M34 500l-25 18l86 136q25 41 45 41q11 0 21.5 -8t10.5 -21q0 -19 -28 -48zM161 501l-26 18l88 136q15 24 24.5 32t20.5 8q10 0 20.5 -8.5t10.5 -20.5q0 -19 -28 -48z" />
    <glyph glyph-name="uni0394" unicode="&#x394;" horiz-adv-x="622" 
d="M564 0h-577l-6 17l388 628h49l159 -627zM483 71l-116 470l-290 -470h406z" />
    <glyph glyph-name="uni03A9" unicode="&#x3a9;" horiz-adv-x="742" 
d="M295 0h-215q-15 0 -22.5 5t-9 11.5t-1.5 18.5q2 74 10 144l32 2q12 -80 25 -95q13 -14 38 -18t95 -4l2 8q-59 28 -99.5 95.5t-40.5 155.5q0 140 91 237t231 97q109 0 174.5 -62.5t65.5 -177.5q0 -226 -220 -344l-2 -9q67 0 96.5 4.5t45.5 17.5q17 14 52 95l32 -2
q-16 -101 -28 -144q-3 -13 -6 -19t-11.5 -11t-24.5 -5h-221l11 86q93 58 141 136.5t49 190.5q0 97 -46.5 146t-115.5 49q-107 0 -170 -91t-64 -213q0 -81 33 -136t86 -83z" />
    <glyph glyph-name="uni03BC" unicode="&#x3bc;" horiz-adv-x="520" 
d="M491 54q-91 -63 -140 -63q-26 0 -29 34q-2 14 -2 22q0 5 2 23q-30 -30 -71 -53t-68 -23q-35 0 -46 18q-10 -46 -22.5 -124t-12.5 -80q-5 -36 -44 -36q-32 0 -32 29q0 1 5 36l95 429q15 74 16 83q0 16 -11 16q-29 0 -60 -10l-9 27q81 48 126 48q31 0 31 -29q0 -21 -17 -92
l-26 -108q-19 -78 -19 -106q0 -20 7.5 -28.5t29.5 -8.5q56 0 130 53l68 310l63 -6l-51 -246q-11 -58 -11 -83q0 -27 13 -27q19 0 71 25z" />
    <glyph glyph-name="pi" unicode="&#x3c0;" horiz-adv-x="581" 
d="M240 -1q-76 2 -115 2q-24 0 -106 -2l7 37q56 7 69 17q8 7 15 46l40 215q5 27 5 37q0 18 -16 22q-14 4 -58 8l6 37q80 -2 245 -2q150 0 228 2l-6 -37q-57 -5 -68 -16q-9 -10 -16 -48l-34 -187q-6 -36 -6 -49q0 -39 36 -39q24 0 41 7l8 -35q-40 -19 -87 -19q-30 0 -49 17
t-19 51q0 22 7 59l39 214q2 12 2 19q0 12 -7 14q-18 6 -78 6q-72 0 -87 -4q-12 -4 -15 -26l-44 -244q-5 -28 -5 -36q0 -15 17 -21q13 -4 59 -8z" />
    <glyph glyph-name="Wgrave" unicode="&#x1e80;" horiz-adv-x="894" 
d="M235 -5h-49l-37 515q-6 79 -21 87t-56 11l6 36q122 -2 126 -2q93 0 133 2l-8 -36q-17 -2 -39.5 -4t-28.5 -3q-33 -5 -34 -36q0 -44 2 -77l22 -352l257 507h42l63 -509l151 349q30 67 30 91q0 18 -20 23q-31 8 -65 11l5 36q94 -2 123 -2q41 0 111 2l-5 -36q-52 -6 -66 -18
q-5 -4 -8.5 -8.5t-9 -15t-9.5 -20.5t-14 -33t-19 -43l-213 -475h-48l-63 505zM605 705l-22 -25l-122 86q-32 22 -32 46q1 16 12.5 28t26.5 12q18 0 44 -32z" />
    <glyph glyph-name="wgrave" unicode="&#x1e81;" horiz-adv-x="641" 
d="M290 96q-100 -107 -179 -107q-47 0 -47 52q0 36 16 105l28 132q7 35 10 74q0 14 -11 14q-18 0 -57 -10l-9 30q82 45 129 45q24 0 24 -26q0 -24 -16 -103l-26 -121q-16 -73 -16 -97q0 -26 25 -26q27 0 66.5 29t66.5 61l56 268l62 -3l-45 -227q-12 -63 -12 -93
q0 -35 26 -35q23 0 56 19.5t61 57.5q59 78 61 190q0 44 -30 72q36 33 62 33q17 0 23 -17q8 -24 8 -57q-2 -132 -89 -244q-44 -56 -96.5 -89.5t-95.5 -33.5q-26 0 -36.5 15.5t-13.5 49.5q-1 11 -1 42zM432 520l-27 -20l-99 113q-24 28 -24 47q0 15 12.5 26t27.5 11
q12 0 20.5 -8.5t20.5 -32.5z" />
    <glyph glyph-name="Wacute" unicode="&#x1e82;" horiz-adv-x="894" 
d="M235 -5h-49l-37 515q-6 79 -21 87t-56 11l6 36q122 -2 126 -2q93 0 133 2l-8 -36q-17 -2 -39.5 -4t-28.5 -3q-33 -5 -34 -36q0 -44 2 -77l22 -352l257 507h42l63 -509l151 349q30 67 30 91q0 18 -20 23q-31 8 -65 11l5 36q94 -2 123 -2q41 0 111 2l-5 -36q-52 -6 -66 -18
q-5 -4 -8.5 -8.5t-9 -15t-9.5 -20.5t-14 -33t-19 -43l-213 -475h-48l-63 505zM503 681l-18 26l122 107q30 26 46 26q14 0 24.5 -12t10.5 -28q0 -20 -43 -44z" />
    <glyph glyph-name="wacute" unicode="&#x1e83;" horiz-adv-x="641" 
d="M290 96q-100 -107 -179 -107q-47 0 -47 52q0 36 16 105l28 132q7 35 10 74q0 14 -11 14q-18 0 -57 -10l-9 30q82 45 129 45q24 0 24 -26q0 -24 -16 -103l-26 -121q-16 -73 -16 -97q0 -26 25 -26q27 0 66.5 29t66.5 61l56 268l62 -3l-45 -227q-12 -63 -12 -93
q0 -35 26 -35q23 0 56 19.5t61 57.5q59 78 61 190q0 44 -30 72q36 33 62 33q17 0 23 -17q8 -24 8 -57q-2 -132 -89 -244q-44 -56 -96.5 -89.5t-95.5 -33.5q-26 0 -36.5 15.5t-13.5 49.5q-1 11 -1 42zM344 500l-21 22l110 128q18 22 27.5 28.5t20.5 6.5q14 0 24 -9.5
t10 -26.5q0 -19 -38 -49z" />
    <glyph glyph-name="Wdieresis" unicode="&#x1e84;" horiz-adv-x="894" 
d="M235 -5h-49l-37 515q-6 79 -21 87t-56 11l6 36q122 -2 126 -2q93 0 133 2l-8 -36q-17 -2 -39.5 -4t-28.5 -3q-33 -5 -34 -36q0 -44 2 -77l22 -352l257 507h42l63 -509l151 349q30 67 30 91q0 18 -20 23q-31 8 -65 11l5 36q94 -2 123 -2q41 0 111 2l-5 -36q-52 -6 -66 -18
q-5 -4 -8.5 -8.5t-9 -15t-9.5 -20.5t-14 -33t-19 -43l-213 -475h-48l-63 505zM504 754q0 -22 -13 -37t-33 -15q-40 0 -40 43q0 24 14.5 38.5t33.5 14.5q18 0 28 -12.5t10 -31.5zM664 754q0 -23 -12.5 -37.5t-33.5 -14.5q-40 0 -40 43q0 24 14 38.5t34 14.5q38 0 38 -44z" />
    <glyph glyph-name="wdieresis" unicode="&#x1e85;" horiz-adv-x="641" 
d="M290 96q-100 -107 -179 -107q-47 0 -47 52q0 36 16 105l28 132q7 35 10 74q0 14 -11 14q-18 0 -57 -10l-9 30q82 45 129 45q24 0 24 -26q0 -24 -16 -103l-26 -121q-16 -73 -16 -97q0 -26 25 -26q27 0 66.5 29t66.5 61l56 268l62 -3l-45 -227q-12 -63 -12 -93
q0 -35 26 -35q23 0 56 19.5t61 57.5q59 78 61 190q0 44 -30 72q36 33 62 33q17 0 23 -17q8 -24 8 -57q-2 -132 -89 -244q-44 -56 -96.5 -89.5t-95.5 -33.5q-26 0 -36.5 15.5t-13.5 49.5q-1 11 -1 42zM374 594q-1 -23 -13 -38t-32 -15q-18 0 -29 12.5t-11 32.5q0 25 13.5 39
t33.5 14q38 0 38 -45zM522 594q-1 -23 -13 -38t-33 -15q-19 0 -29.5 12.5t-10.5 32.5q1 25 14.5 39t33.5 14q18 0 28 -12.5t10 -32.5z" />
    <glyph glyph-name="Ygrave" unicode="&#x1ef2;" horiz-adv-x="590" 
d="M383 -1q-96 2 -130 2q-25 0 -127 -2l6 36q69 4 82 20q8 9 15 47l30 165l-103 261q-22 57 -33 66q-10 9 -55 14l7 36q55 -2 117 -2q73 0 127 2l-6 -36q-42 -3 -62 -6q-26 -5 -26 -19q0 -23 27 -94l67 -169l136 181q52 68 52 86q0 11 -12 14q-15 4 -61 7l7 36q46 -2 117 -2
q50 0 93 2l-7 -36q-33 -4 -45 -13q-16 -12 -79 -91l-186 -236l-28 -164q-4 -21 -4 -39q0 -17 17 -21q28 -5 71 -9zM450 705l-22 -25l-122 86q-32 22 -32 46q1 16 12.5 28t26.5 12q18 0 44 -32z" />
    <glyph glyph-name="ygrave" unicode="&#x1ef3;" horiz-adv-x="491" 
d="M442 418l-88 -416q-27 -129 -95.5 -200t-165.5 -71q-34 0 -58.5 10t-24.5 28q0 26 20 54q38 -27 109 -27q46 0 75 30t52 112q8 28 35 136q-41 -37 -96 -63q-42 -19 -81 -19q-58 0 -58 61q0 36 15 101l27 115q14 55 16 86q0 16 -12 16q-24 0 -58 -11l-8 27q36 21 72.5 33
t52.5 12q32 0 32 -28q0 -19 -17 -91l-25 -104q-22 -88 -22 -113q0 -21 7.5 -29.5t28.5 -8.5q49 0 133 58l68 308zM335 520l-27 -20l-99 113q-24 28 -24 47q0 15 12.5 26t27.5 11q12 0 20.5 -8.5t20.5 -32.5z" />
    <glyph glyph-name="endash" unicode="&#x2013;" horiz-adv-x="575" 
d="M58 264h475l-12 -59h-474z" />
    <glyph glyph-name="emdash" unicode="&#x2014;" horiz-adv-x="806" 
d="M58 264h706l-12 -59h-705z" />
    <glyph glyph-name="quoteleft" unicode="&#x2018;" horiz-adv-x="162" 
d="M205 679l18 -30q-90 -60 -91 -110q0 -15 10.5 -34.5t10.5 -33.5q0 -20 -14 -33t-35 -13q-48 0 -48 63q0 101 149 191z" />
    <glyph glyph-name="quoteright" unicode="&#x2019;" horiz-adv-x="164" 
d="M49 418l-19 30q90 59 91 110q0 14 -10.5 33t-10.5 34q0 21 14 33.5t35 12.5q49 0 49 -64q0 -100 -149 -189z" />
    <glyph glyph-name="quotesinglbase" unicode="&#x201a;" horiz-adv-x="162" 
d="M-60 -164l-20 30q89 57 89 110q0 14 -10 33t-10 34q0 21 14 34t36 13q49 0 49 -64q-2 -101 -148 -190z" />
    <glyph glyph-name="quotedblleft" unicode="&#x201c;" horiz-adv-x="301" 
d="M352 679l18 -30q-89 -60 -90 -110q0 -15 10.5 -34.5t10.5 -33.5q0 -20 -14.5 -33t-35.5 -13q-48 0 -48 63q0 101 149 191zM205 679l18 -30q-90 -60 -91 -110q0 -15 10.5 -34.5t10.5 -33.5q0 -20 -13.5 -33t-34.5 -13q-49 0 -49 63q0 101 149 191z" />
    <glyph glyph-name="quotedblright" unicode="&#x201d;" horiz-adv-x="301" 
d="M49 418l-19 30q90 59 91 110q0 14 -10.5 33t-10.5 34q0 21 14 33.5t35 12.5q49 0 49 -64q0 -100 -149 -189zM196 418l-19 30q90 58 91 110q0 14 -10.5 33t-10.5 34q0 21 14 33.5t35 12.5q49 0 49 -64q0 -100 -149 -189z" />
    <glyph glyph-name="quotedblbase" unicode="&#x201e;" horiz-adv-x="301" 
d="M-60 -164l-20 30q89 57 89 110q0 14 -10 33t-10 34q0 21 14 34t36 13q49 0 49 -64q-2 -101 -148 -190zM86 -164l-20 30q90 58 90 110q0 14 -10 33t-10 34q0 21 14 34t36 13q49 0 49 -64q0 -101 -149 -190z" />
    <glyph glyph-name="dagger" unicode="&#x2020;" horiz-adv-x="367" 
d="M161 -76h-62q11 58 42 225.5t49 259.5q-46 -2 -141 -2l11 61q95 0 140 -2q20 119 35 196h61q-7 -33 -19 -98t-19 -98q48 2 146 2l-11 -61q-97 0 -146 2q-4 -24 -86 -485z" />
    <glyph glyph-name="daggerdbl" unicode="&#x2021;" horiz-adv-x="394" 
d="M174 -79h-63q8 43 16 86.5t16.5 84t10.5 53.5q-48 -2 -147 -2l11 64q99 0 147 -2q15 94 40 220q-48 -2 -147 -2l12 65q99 0 146 -2q14 90 36 204h63q-17 -101 -39 -204q50 2 152 2l-12 -65q-97 0 -152 2q-11 -70 -39 -220q50 2 152 2l-12 -64q-53 0 -151 2
q-2 -8 -15.5 -87t-24.5 -137z" />
    <glyph glyph-name="bullet" unicode="&#x2022;" horiz-adv-x="315" 
d="M283 293q0 -55 -34.5 -89.5t-87.5 -34.5q-50 0 -78.5 30.5t-28.5 78.5q0 56 33.5 91.5t87.5 35.5q49 0 78.5 -30.5t29.5 -81.5z" />
    <glyph glyph-name="ellipsis" unicode="&#x2026;" horiz-adv-x="845" 
d="M156 49q-1 -27 -17.5 -43t-41.5 -16q-24 0 -38 15t-14 39q1 25 17 42.5t41 17.5q24 0 38.5 -15.5t14.5 -39.5zM437 49q0 -27 -16.5 -43t-43.5 -16q-23 0 -35.5 15t-12.5 39q0 25 15.5 42.5t38.5 17.5q26 0 40 -15t14 -40zM719 49q0 -26 -17 -42.5t-42 -16.5
q-23 0 -36.5 15t-13.5 39q1 25 16.5 42.5t40.5 17.5q24 0 38 -15t14 -40z" />
    <glyph glyph-name="perthousand" unicode="&#x2030;" horiz-adv-x="1149" 
d="M354 486q0 -107 -57 -187q-50 -67 -119 -67q-60 0 -93 40.5t-33 112.5q0 107 55 182q49 68 124 68q61 0 92 -39t31 -110zM296 500q0 100 -67 100q-53 0 -84 -61q-36 -75 -36 -166q0 -105 71 -105q49 0 76 56q17 35 28.5 89t11.5 87zM265 -4h-47l336 640h46zM765 245
q0 -108 -58 -187q-49 -67 -119 -67q-60 0 -93 40.5t-33 112.5q0 106 56 182q49 68 123 68q61 0 92.5 -39t31.5 -110zM706 259q0 100 -67 100q-53 0 -83 -61q-37 -74 -37 -166q0 -105 71 -105q50 0 77 56q17 34 28 88.5t11 87.5zM1123 245q0 -108 -58 -187q-49 -67 -119 -67
q-60 0 -93 40.5t-33 112.5q0 106 56 182q49 68 123 68q61 0 92.5 -39t31.5 -110zM1064 259q0 100 -67 100q-53 0 -83 -61q-37 -74 -37 -166q0 -105 71 -105q50 0 77 56q17 34 28 88.5t11 87.5z" />
    <glyph glyph-name="guilsinglleft" unicode="&#x2039;" horiz-adv-x="252" 
d="M184 51l-23 -19l-131 157q-10 13 -10 25t20 29l183 148l20 -21l-146 -159z" />
    <glyph glyph-name="guilsinglright" unicode="&#x203a;" horiz-adv-x="252" 
d="M68 372l22 19l131 -158q9 -13 9 -25q0 -14 -18 -29l-185 -148l-19 22l146 158z" />
    <glyph glyph-name="fraction" unicode="&#x2044;" horiz-adv-x="98" 
d="M-82 -4h-47l336 640h46z" />
    <glyph glyph-name="zero.superior" unicode="&#x2070;" 
d="M384 644q0 -107 -58 -186q-48 -68 -119 -68q-60 0 -93 41t-33 112q0 107 56 182q49 68 123 68q61 0 92.5 -38.5t31.5 -110.5zM325 658q0 101 -67 101q-52 0 -83 -62q-37 -74 -37 -166q0 -105 71 -105q50 0 77 56q17 34 28 88.5t11 87.5z" />
    <glyph glyph-name="four.superior" unicode="&#x2074;" 
d="M313 540h60l-8 -48h-59l-20 -113h-56l21 113h-185l7 30l240 267h47q-7 -30 -18 -92zM136 538h124q13 82 36 182z" />
    <glyph glyph-name="five.superior" unicode="&#x2075;" 
d="M186 656q155 -9 155 -113q0 -56 -43 -97.5t-94.5 -58t-97.5 -16.5q-30 0 -30 23q0 4 4 24q101 0 150.5 22t49.5 85q0 77 -146 84l63 178h189l-18 -53h-154z" />
    <glyph glyph-name="six.superior" unicode="&#x2076;" 
d="M161 602q42 44 103 44q51 0 75 -31t24 -76q0 -64 -40.5 -106.5t-111.5 -42.5q-59 0 -89.5 38.5t-30.5 94.5q0 95 72 177q72 83 209 122l10 -30q-90 -34 -141.5 -76t-79.5 -114zM153 560q-6 -23 -6 -48q0 -44 19 -66t49 -22q40 0 65.5 29t25.5 75q0 34 -16.5 55.5
t-49.5 21.5q-25 0 -50.5 -14t-36.5 -31z" />
    <glyph glyph-name="seven.superior" unicode="&#x2077;" 
d="M330 737h-219l11 49h263l6 -13l-241 -406l-40 18z" />
    <glyph glyph-name="eight.superior" unicode="&#x2078;" 
d="M205 580q-69 -30 -69 -92q0 -29 20.5 -48t52.5 -19q29 0 51.5 19t22.5 50q0 26 -17.5 45.5t-60.5 44.5zM186 596q-48 35 -48 93q1 46 33.5 76t87.5 30q53 0 80 -24t27 -63q0 -68 -92 -102q69 -50 69 -103q0 -50 -38 -81.5t-97 -31.5q-55 0 -88.5 27.5t-33.5 69.5
q0 76 100 109zM254 620q65 32 65 87q0 25 -16 40t-45 15t-47 -16.5t-18 -45.5q0 -46 61 -80z" />
    <glyph glyph-name="nine.superior" unicode="&#x2079;" 
d="M300 584q-40 -44 -102 -44q-50 0 -75.5 31t-25.5 76q0 64 40.5 106.5t111.5 42.5q59 0 90 -38.5t31 -94.5q0 -98 -69 -177q-72 -82 -210 -122l-10 28q90 36 140.5 78t78.5 114zM308 626q6 23 6 49q0 43 -20 65t-51 22q-40 0 -65 -30.5t-25 -76.5q0 -33 17 -54t50 -21
q26 0 52 14t36 32z" />
    <glyph glyph-name="parenleft.superior" unicode="&#x207d;" horiz-adv-x="209" 
d="M237 312l-21 -20q-101 101 -101 253q0 191 204 336l16 -22q-57 -53 -88.5 -90.5t-55 -96t-23.5 -128.5q0 -130 69 -232z" />
    <glyph glyph-name="parenright.superior" unicode="&#x207e;" horiz-adv-x="209" 
d="M89 860l21 18q101 -99 101 -252q0 -191 -201 -335l-17 22q86 80 126 147t40 168q0 122 -70 232z" />
    <glyph glyph-name="zero.inferior" unicode="&#x2080;" 
d="M294 101q0 -107 -58 -186q-48 -68 -119 -68q-60 0 -93 41t-33 112q0 107 56 182q49 68 123 68q61 0 92.5 -38.5t31.5 -110.5zM235 115q0 101 -67 101q-52 0 -83 -62q-37 -74 -37 -166q0 -105 71 -105q50 0 77 56q17 34 28 88.5t11 87.5z" />
    <glyph glyph-name="one.inferior" unicode="&#x2081;" 
d="M212 -144q-54 2 -89 2q-68 0 -96 -2l5 30q52 4 59 14q6 7 12 36l27 153q10 57 10 74q0 11 -2 14.5t-10 3.5q-22 0 -44 -5l-7 25q126 50 131 52l10 -9q-16 -70 -31 -155l-28 -155q-4 -22 -4 -27q0 -12 15 -16q16 -3 47 -5z" />
    <glyph glyph-name="two.inferior" unicode="&#x2082;" 
d="M243 -143h-276l6 36q129 83 187 137.5t58 107.5q0 29 -17 49t-51 20q-47 0 -99 -44l-18 28q68 60 140 60q51 0 78.5 -27.5t27.5 -71.5q0 -64 -52 -117t-173 -127q51 2 198 2z" />
    <glyph glyph-name="three.inferior" unicode="&#x2083;" 
d="M160 74q90 -6 90 -82q0 -40 -27 -73t-67 -51t-78.5 -27.5t-67.5 -9.5q-24 0 -26 25q0 10 5 23q102 0 152 21.5t50 80.5q0 64 -75 64q-26 0 -46 -4v35q66 12 98 32.5t32 56.5q0 20 -11.5 32.5t-34.5 12.5q-38 0 -93 -34l-15 27q67 48 132 48q40 0 61 -20.5t21 -50.5
q0 -31 -23.5 -60t-76.5 -46z" />
    <glyph glyph-name="four.inferior" unicode="&#x2084;" 
d="M224 -3h60l-8 -48h-59l-20 -113h-56l21 113h-185l7 30l240 267h47q-7 -30 -18 -92zM47 -5h124q13 82 36 182z" />
    <glyph glyph-name="five.inferior" unicode="&#x2085;" 
d="M97 113q155 -9 155 -113q0 -56 -43 -97.5t-94.5 -58t-97.5 -16.5q-30 0 -30 23q0 4 4 24q101 0 150.5 22t49.5 85q0 77 -146 84l63 178h189l-18 -53h-154z" />
    <glyph glyph-name="six.inferior" unicode="&#x2086;" 
d="M72 59q42 44 103 44q51 0 75 -31t24 -76q0 -64 -40.5 -106.5t-111.5 -42.5q-59 0 -89.5 38.5t-30.5 94.5q0 95 72 177q72 83 209 122l10 -30q-90 -34 -141.5 -76t-79.5 -114zM64 17q-6 -23 -6 -48q0 -44 19 -66t49 -22q40 0 65.5 29t25.5 75q0 34 -16.5 55.5t-49.5 21.5
q-25 0 -50.5 -14t-36.5 -31z" />
    <glyph glyph-name="seven.inferior" unicode="&#x2087;" 
d="M241 194h-219l11 49h263l6 -13l-241 -406l-40 18z" />
    <glyph glyph-name="eight.inferior" unicode="&#x2088;" 
d="M116 37q-69 -30 -69 -92q0 -29 20.5 -48t52.5 -19q29 0 51.5 19t22.5 50q0 26 -17.5 45.5t-60.5 44.5zM97 53q-48 35 -48 93q1 46 33.5 76t87.5 30q53 0 80 -24t27 -63q0 -68 -92 -102q69 -50 69 -103q0 -50 -38 -81.5t-97 -31.5q-55 0 -88.5 27.5t-33.5 69.5
q0 76 100 109zM165 77q65 32 65 87q0 25 -16 40t-45 15t-47 -16.5t-18 -45.5q0 -46 61 -80z" />
    <glyph glyph-name="nine.inferior" unicode="&#x2089;" 
d="M211 41q-40 -44 -102 -44q-50 0 -75.5 31t-25.5 76q0 64 40.5 106.5t111.5 42.5q59 0 90 -38.5t31 -94.5q0 -98 -69 -177q-72 -82 -210 -122l-10 28q90 36 140.5 78t78.5 114zM219 83q6 23 6 49q0 43 -20 65t-51 22q-40 0 -65 -30.5t-25 -76.5q0 -33 17 -54t50 -21
q26 0 52 14t36 32z" />
    <glyph glyph-name="parenleft.inferior" unicode="&#x208d;" horiz-adv-x="209" 
d="M148 -231l-21 -20q-101 101 -101 253q0 191 204 336l16 -22q-57 -53 -88.5 -90.5t-55 -96t-23.5 -128.5q0 -130 69 -232z" />
    <glyph glyph-name="parenright.inferior" unicode="&#x208e;" horiz-adv-x="209" 
d="M0 317l21 18q101 -99 101 -252q0 -191 -201 -335l-17 22q86 80 126 147t40 168q0 122 -70 232z" />
    <glyph glyph-name="Euro" unicode="&#x20ac;" horiz-adv-x="624" 
d="M470 241h-230v-9q0 -89 38 -136.5t107 -47.5q83 0 180 60l18 -36q-66 -45 -118 -64.5t-109 -19.5q-97 0 -146.5 62.5t-49.5 172.5v18h-77l7 43h74q3 40 15 76h-75l8 42h79q41 111 120.5 181t191.5 70q79 0 121 -25q22 -11 22 -33q0 -23 -33 -60q-47 63 -142 63
q-74 0 -126.5 -55t-79.5 -141h233l-7 -42h-236q-9 -32 -13 -76h235z" />
    <glyph glyph-name="afii61289" unicode="&#x2113;" horiz-adv-x="426" 
d="M362 30q-81 -42 -148 -42q-120 0 -125 134q0 29 3 46q-23 -14 -56 -30l-14 44q32 15 80 41q40 214 101.5 313.5t161.5 99.5q46 0 73 -29.5t27 -72.5q0 -42 -20.5 -83.5t-48 -72.5t-72.5 -66t-77 -55t-79 -47q-8 -40 -8 -68q0 -99 76 -99q42 0 107 33zM180 270
q103 68 162 129.5t59 124.5q0 60 -50 60q-113 0 -171 -314z" />
    <glyph glyph-name="trademark" unicode="&#x2122;" horiz-adv-x="706" 
d="M249 360q-20 1 -74 1q-41 0 -71 -1l4 23q39 4 45 13q3 3 9 33l34 185q-48 0 -61 -6q-12 -6 -31 -51l-20 2q1 6 6 30t8 34q6 20 20 20h216q17 0 17 -21q0 -5 -0.5 -16t-1.5 -23l-2 -24h-21q-3 36 -10 45q-6 10 -72 10l-35 -183q-3 -15 -3 -27q0 -11 13 -15q7 -2 34 -6z
M453 360q-21 1 -57 1q-42 0 -66 -1l4 23q33 3 38 8q8 8 12 27q34 151 37 165q0 3 1 7.5t1.5 8t0.5 4.5q0 8 -8 11q-6 3 -32 5l4 24q21 -1 58 -1q33 0 39 1q5 -26 12 -61.5t13.5 -70t16.5 -81.5q99 179 116 213q12 -1 48 -1q30 0 45 1l-4 -24q-31 -2 -36 -7q-4 -4 -9 -22
q-17 -119 -23 -165q-3 -18 -3 -23q0 -13 12 -16q10 -3 30 -3l-3 -23q-12 0 -38 0.5t-32 0.5q-4 0 -27 -0.5t-38 -0.5l2 23q34 3 39 8q4 4 8 21q1 5 29 170q-88 -156 -126 -222h-23q-41 203 -44 222q-19 -84 -35 -166q-2 -8 -2 -16q0 -12 11 -14q21 -3 33 -3z" />
    <glyph glyph-name="Omega" unicode="&#x2126;" horiz-adv-x="742" 
d="M295 0h-215q-15 0 -22.5 5t-9 11.5t-1.5 18.5q2 74 10 144l32 2q12 -80 25 -95q13 -14 38 -18t95 -4l2 8q-59 28 -99.5 95.5t-40.5 155.5q0 140 91 237t231 97q109 0 174.5 -63t65.5 -178q0 -225 -220 -343l-2 -9q67 0 96.5 4.5t45.5 17.5q17 14 52 95l32 -2
q-16 -101 -28 -144q-3 -13 -6 -19t-11.5 -11t-24.5 -5h-221l11 86q93 58 141 136.5t49 190.5q0 97 -46 146t-116 49q-107 0 -170 -91t-64 -213q0 -81 33 -136t86 -83z" />
    <glyph glyph-name="estimated" unicode="&#x212e;" horiz-adv-x="758" 
d="M753 305h-565q-5 0 -5 -5v-179q0 -10 8 -20q88 -94 213 -94q136 0 225 105h53q-49 -58 -122.5 -92t-156.5 -34q-145 0 -247 96t-102 232q0 134 103.5 230t248.5 96q144 0 245.5 -95.5t101.5 -230.5v-9zM628 328l1 179q0 10 -10 22q-89 91 -212 91q-125 0 -215 -95
q-9 -9 -9 -22v-175q0 -5 5 -5h434q6 0 6 5z" />
    <glyph glyph-name="onethird" unicode="&#x2153;" horiz-adv-x="816" 
d="M269 -4h-47l336 640h46zM272 241q-54 2 -88 2q-41 0 -97 -2l6 29q51 6 58 14q8 9 12 36l28 154q10 58 10 74q0 18 -12 18q-13 0 -45 -5l-6 24q2 1 53.5 21t76.5 31l11 -8q-14 -57 -32 -155l-28 -156q-3 -15 -3 -26q0 -14 15 -16q5 -1 13 -2t18 -2t15 -2zM622 217
q90 -6 90 -82q0 -40 -27 -73t-67 -51t-78.5 -27.5t-67.5 -9.5q-24 0 -26 25q0 11 5 23q102 0 152 21.5t50 80.5q0 64 -75 64q-26 0 -46 -4v35q66 12 98 32.5t32 56.5q0 20 -11.5 32.5t-34.5 12.5q-38 0 -93 -34l-15 27q67 48 132 48q40 0 61 -20.5t21 -50.5q0 -31 -23.5 -60
t-76.5 -46z" />
    <glyph glyph-name="twothirds" unicode="&#x2154;" horiz-adv-x="816" 
d="M323 -4h-47l336 640h46zM348 242h-276l6 36q130 84 188 138t58 106q0 29 -17 49t-52 20q-48 0 -99 -43l-17 27q67 61 140 61q51 0 78 -27.5t27 -72.5q0 -63 -52.5 -117t-171.5 -126q51 1 198 1zM669 217q90 -6 90 -82q0 -40 -27 -73t-67 -51t-78.5 -27.5t-67.5 -9.5
q-24 0 -26 25q0 11 5 23q102 0 152 21.5t50 80.5q0 64 -75 64q-26 0 -46 -4v35q66 12 98 32.5t32 56.5q0 20 -11.5 32.5t-34.5 12.5q-38 0 -93 -34l-15 27q67 48 132 48q40 0 61 -20.5t21 -50.5q0 -31 -23.5 -60t-76.5 -46z" />
    <glyph glyph-name="oneeighth" unicode="&#x215b;" horiz-adv-x="816" 
d="M269 -4h-47l336 640h46zM267 241q-54 2 -88 2q-41 0 -97 -2l6 29q51 6 58 14q8 9 12 36l28 154q10 58 10 74q0 18 -12 18t-45 -5l-6 24q2 1 53.5 21t76.5 31l11 -8q-14 -57 -32 -155l-28 -156q-3 -15 -3 -26q0 -14 15 -16q5 -1 13 -2t18 -2t15 -2zM579 180
q-69 -30 -69 -92q0 -29 20.5 -48t52.5 -19q29 0 51.5 19t22.5 50q0 26 -17.5 45.5t-60.5 44.5zM560 196q-48 35 -48 93q1 46 33.5 76t87.5 30q53 0 80 -24t27 -63q0 -68 -92 -102q69 -50 69 -103q0 -50 -38 -81.5t-97 -31.5q-55 0 -88.5 27.5t-33.5 69.5q0 76 100 109z
M628 220q65 32 65 87q0 25 -16 40t-45 15t-47 -16.5t-18 -45.5q0 -46 61 -80z" />
    <glyph glyph-name="threeeighths" unicode="&#x215c;" horiz-adv-x="816" 
d="M282 -4h-47l336 640h46zM244 459q90 -6 90 -83q0 -40 -27 -73t-67 -50.5t-78.5 -27t-67.5 -9.5q-26 0 -26 24q0 4 4 24q103 0 152.5 21.5t49.5 80.5q0 64 -75 64q-15 0 -47 -4l2 35q67 12 98.5 32t31.5 57q0 20 -12 32t-34 12q-40 0 -93 -33l-15 27q67 48 132 48
q40 0 61 -20.5t21 -50.5q0 -31 -23.5 -60t-76.5 -46zM592 180q-69 -30 -69 -92q0 -29 20.5 -48t52.5 -19q29 0 51.5 19t22.5 50q0 26 -17.5 45.5t-60.5 44.5zM573 196q-48 35 -48 93q1 46 33.5 76t87.5 30q53 0 80 -24t27 -63q0 -68 -92 -102q69 -50 69 -103
q0 -50 -38 -81.5t-97 -31.5q-55 0 -88.5 27.5t-33.5 69.5q0 76 100 109zM641 220q65 32 65 87q0 25 -16 40t-45 15t-47 -16.5t-18 -45.5q0 -46 61 -80z" />
    <glyph glyph-name="fiveeighths" unicode="&#x215d;" horiz-adv-x="816" 
d="M276 -4h-47l336 640h46zM177 498q155 -9 155 -114q0 -42 -24.5 -76.5t-62 -54t-76 -30t-71.5 -10.5q-16 0 -23 5t-7 18t4 23q101 0 150.5 22t49.5 86q0 77 -147 84l64 178h188l-18 -53h-154zM587 180q-69 -30 -69 -92q0 -29 20.5 -48t52.5 -19q29 0 51.5 19t22.5 50
q0 26 -17.5 45.5t-60.5 44.5zM568 196q-48 35 -48 93q1 46 33.5 76t87.5 30q53 0 80 -24t27 -63q0 -68 -92 -102q69 -50 69 -103q0 -50 -38 -81.5t-97 -31.5q-55 0 -88.5 27.5t-33.5 69.5q0 76 100 109zM636 220q65 32 65 87q0 25 -16 40t-45 15t-47 -16.5t-18 -45.5
q0 -46 61 -80z" />
    <glyph glyph-name="seveneighths" unicode="&#x215e;" horiz-adv-x="816" 
d="M251 -4h-47l336 640h46zM333 579h-219l11 49h264l5 -13l-241 -406l-39 18zM567 180q-69 -30 -69 -92q0 -29 20.5 -48t52.5 -19q29 0 51.5 19t22.5 50q0 26 -17.5 45.5t-60.5 44.5zM548 196q-48 35 -48 93q1 46 33.5 76t87.5 30q53 0 80 -24t27 -63q0 -68 -92 -102
q69 -50 69 -103q0 -50 -38 -81.5t-97 -31.5q-55 0 -88.5 27.5t-33.5 69.5q0 76 100 109zM616 220q65 32 65 87q0 25 -16 40t-45 15t-47 -16.5t-18 -45.5q0 -46 61 -80z" />
    <glyph glyph-name="partialdiff" unicode="&#x2202;" horiz-adv-x="476" 
d="M193 596l-9 43q43 16 99 16q169 -3 169 -218q0 -68 -18 -157.5t-53 -156.5q-73 -137 -203 -137q-72 0 -112.5 46.5t-40.5 122.5q0 96 62 177q61 82 170 82q36 0 69 -14t46 -35q8 46 8 78q0 74 -30.5 118.5t-81.5 44.5q-42 0 -75 -10zM359 301q-8 30 -38 47.5t-60 17.5
q-75 0 -116 -63q-47 -74 -47 -160q0 -54 24.5 -82t61.5 -28q74 0 121 89q30 56 54 179z" />
    <glyph glyph-name="Delta" unicode="&#x2206;" horiz-adv-x="622" 
d="M564 0h-577l-6 17l388 628h49l159 -627zM483 71l-116 470l-290 -470h406z" />
    <glyph glyph-name="product" unicode="&#x220f;" horiz-adv-x="731" 
d="M211 -171q-80 2 -132 2q-37 0 -121 -2l7 38q69 6 78 15q8 8 19 64l106 582q7 40 7 49q-1 9 -4.5 13.5t-14.5 6.5q-32 6 -65 8l7 39q70 -2 340 -2q254 0 324 2l-8 -39q-8 -1 -19.5 -2t-21 -2.5t-19.5 -3.5q-16 -3 -24 -18q-6 -13 -13 -51l-108 -581q-5 -30 -5 -51
q0 -11 4.5 -15.5t17.5 -6.5q5 -1 13.5 -2t22.5 -2.5t23 -2.5l-6 -38q-80 2 -126 2q-49 0 -127 -2l6 38q74 5 84 17q10 10 18 58l106 580q6 30 6 46q0 13 -5 18q-7 7 -33 8q-28 1 -117 1q-99 0 -129 -1q-32 -1 -38 -9q-13 -15 -21 -61l-106 -582q-6 -33 -6 -45q0 -19 20 -23
q4 -1 67 -7z" />
    <glyph glyph-name="summation" unicode="&#x2211;" horiz-adv-x="575" 
d="M-66 -169l6 34l361 377l-203 369l5 32h427q26 0 26 -29q-4 -78 -9 -141h-35q-15 97 -33 108q-16 10 -86 11q-76 2 -197 2l187 -338l-336 -351q35 -1 218 -1q80 1 114 6.5t52 21.5q16 13 55 100l35 -2q-13 -89 -32 -158q-5 -21 -15.5 -31t-35.5 -10h-504z" />
    <glyph glyph-name="minus" unicode="&#x2212;" horiz-adv-x="551" 
d="M494 267h-422l13 61h421z" />
    <glyph glyph-name="uni2215" unicode="&#x2215;" horiz-adv-x="95" 
d="M-82 -4h-47l336 640h46z" />
    <glyph glyph-name="uni2219" unicode="&#x2219;" horiz-adv-x="207" 
d="M160 237q-1 -27 -18 -43t-42 -16q-24 0 -37.5 15t-13.5 39q1 25 16.5 42.5t40.5 17.5t39.5 -15.5t14.5 -39.5z" />
    <glyph glyph-name="radical" unicode="&#x221a;" horiz-adv-x="618" 
d="M179 220l85 -280l316 703h65l-368 -798h-58l-98 306l-60 -24l-13 41z" />
    <glyph glyph-name="infinity" unicode="&#x221e;" horiz-adv-x="615" 
d="M323 335q42 51 77 72t73 21q53 0 83 -31.5t30 -87.5q-1 -64 -40.5 -110.5t-101.5 -46.5q-78 0 -132 93q-42 -48 -76 -70t-74 -22q-55 0 -83.5 34t-28.5 86q1 67 41.5 111.5t102.5 44.5q42 0 71 -22.5t58 -71.5zM286 291q-25 45 -48 65.5t-51 20.5q-40 0 -61 -28.5
t-22 -70.5q0 -74 61 -74q31 0 58 20.5t63 66.5zM349 292q27 -47 49.5 -68t50.5 -21q38 0 60.5 29.5t22.5 69.5q0 33 -15.5 53.5t-46.5 20.5q-54 0 -121 -84z" />
    <glyph glyph-name="integral" unicode="&#x222b;" horiz-adv-x="295" 
d="M342 598q-18 10 -51 10q-45 0 -57 -63q-7 -33 -45.5 -292t-43.5 -290q-23 -125 -129 -125q-37 0 -69 16l18 42q22 -13 52 -13q46 0 59 76q0 3 38.5 259.5t46.5 301.5q21 132 127 132q42 0 69 -12z" />
    <glyph glyph-name="approxequal" unicode="&#x2248;" horiz-adv-x="549" 
d="M74 154l-36 37q67 91 140 91q22 0 42.5 -8t63.5 -36q45 -30 73 -30q46 0 99 68l37 -37q-66 -91 -138 -91q-42 0 -94 34q-61 39 -90 39q-25 0 -47 -15t-50 -52zM111 315l-37 37q67 91 140 91q23 0 43.5 -8t62.5 -36q45 -30 73 -30q46 0 99 68l37 -37q-66 -92 -138 -92
q-42 0 -94 34q-61 40 -89 40q-25 0 -47 -15t-50 -52z" />
    <glyph glyph-name="notequal" unicode="&#x2260;" horiz-adv-x="551" 
d="M482 540l-93 -133h135l-12 -60h-162l-72 -104h209l-12 -60h-237l-96 -138h-51l97 138h-137l15 60h162l72 104h-210l12 60h238l92 133h50z" />
    <glyph glyph-name="lessequal" unicode="&#x2264;" horiz-adv-x="568" 
d="M413 12h-365l14 59h365zM441 129l-324 184l14 62l409 187l-16 -73l-342 -149l273 -146z" />
    <glyph glyph-name="greaterequal" unicode="&#x2265;" horiz-adv-x="551" 
d="M399 12h-367l15 59h366zM160 562l325 -183l-16 -63l-409 -187l17 72l342 150l-273 146z" />
    <glyph glyph-name="lozenge" unicode="&#x25ca;" horiz-adv-x="551" 
d="M253 0h-60l-71 303l212 297h60l66 -304zM397 303l-47 234l-165 -240l48 -234z" />
    <glyph glyph-name="s_t" unicode="&#xfb06;" horiz-adv-x="600" 
d="M562 55q-96 -64 -149 -64q-44 0 -44 48q0 35 16 112l44 209q-35 1 -72 7l7 33q26 4 51 11q26 5 38 30q28 54 28 107q0 44 -27.5 66.5t-67.5 22.5q-57 0 -92 -34t-35 -88q0 -68 35 -95q16 -8 16 -23q0 -22 -20 -48q-42 28 -104 28q-26 0 -41 -13.5t-16 -35.5q0 -27 33 -55
l76 -65q45 -38 45 -90t-44 -91t-121 -39q-57 0 -90 23q-20 14 -20 33q0 20 26 47q17 -21 48.5 -35.5t64.5 -14.5q36 0 55 15.5t19 37.5q0 29 -44 67l-70 58q-38 32 -38 85q0 57 44 91.5t114 34.5q9 0 17 -2q-12 13 -21 39.5t-9 49.5q1 77 54 126t133 49q60 0 97 -32t37 -94
q0 -60 -30 -155q47 0 100 -8l-8 -36q-30 -5 -100 -7l-41 -207q-13 -67 -13 -82q0 -18 15 -18q26 0 90 28z" />
    <glyph glyph-name="Dotlessi" horiz-adv-x="306" 
d="M246 -1q-76 2 -132 2q-36 0 -124 -2l7 36q67 5 77 15q9 14 18 65l77 419q5 27 5 40q0 18 -18 24q-26 6 -67 10l7 36q88 -2 131 -2q42 0 126 2l-7 -36q-69 -5 -80 -16t-19 -55l-78 -426q-5 -25 -5 -45q0 -16 15 -21q21 -5 74 -10z" />
    <glyph glyph-name="Euro.denominator" horiz-adv-x="401" 
d="M285 144h-142v-9q0 -100 89 -100q51 0 112 36l15 -26q-81 -54 -145 -54q-63 0 -97.5 39t-34.5 105v9h-48l5 30h46q1 9 4.5 26.5t4.5 20.5h-46l6 30h49q13 39 43 73q62 73 159 73q47 0 77 -14q16 -7 16 -21t-22 -42q-28 36 -96 36q-60 0 -94 -54q-16 -24 -25 -51h144
l-5 -30h-146q-3 -12 -9 -47h146z" />
    <glyph glyph-name="Euro.inferior" horiz-adv-x="401" 
d="M261 1h-142v-9q0 -100 89 -100q51 0 112 36l15 -26q-81 -54 -145 -54q-63 0 -97.5 39t-34.5 105v9h-48l5 30h46q1 9 4.5 26.5t4.5 20.5h-46l6 30h49q13 39 43 73q62 73 159 73q47 0 77 -14q16 -7 16 -21t-22 -42q-28 36 -96 36q-60 0 -94 -54q-16 -24 -25 -51h144l-5 -30
h-146q-3 -12 -9 -47h146z" />
    <glyph glyph-name="Euro.numerator" horiz-adv-x="400" 
d="M321 386h-143v-9q0 -101 90 -101q51 0 112 36l15 -25q-83 -54 -146 -54t-97 38.5t-34 104.5v10h-49l6 30h46q1 15 9 47h-47l6 30h50q12 39 42 73q63 73 159 73q47 0 78 -14q15 -7 15 -21q0 -17 -21 -42q-30 36 -96 36q-61 0 -95 -54q-17 -31 -24 -51h143l-5 -30h-145
q-7 -22 -9 -47h145z" />
    <glyph glyph-name="Euro.oldstyle" horiz-adv-x="622" 
d="M451 203h-213q0 -159 136 -159q77 0 168 53l19 -36q-114 -73 -214 -73q-93 0 -141 56t-48 159h-71l9 44h65q2 23 12 66h-66l9 45h71q39 100 106 153q75 61 185 61q70 0 110 -23q21 -11 21 -31q0 -17 -29 -54q-46 57 -138 57q-61 0 -110 -47q-43 -43 -69 -116h217l-10 -45
h-219q-9 -33 -12 -66h221z" />
    <glyph glyph-name="Euro.superior" horiz-adv-x="401" 
d="M350 544h-142v-9q0 -100 89 -100q51 0 112 36l15 -26q-81 -54 -145 -54q-63 0 -97.5 39t-34.5 105v9h-48l5 30h46q1 9 4.5 26.5t4.5 20.5h-46l6 30h49q13 39 43 73q62 73 159 73q47 0 77 -14q16 -7 16 -21t-22 -42q-29 36 -96 36q-60 0 -94 -54q-16 -24 -25 -51h144
l-5 -30h-146q-3 -12 -9 -47h146z" />
    <glyph glyph-name="Kgreenlandic" horiz-adv-x="609" 
d="M551 -26q-69 18 -125 74q-43 43 -100 122.5t-101 158.5q90 74 204 190q48 48 48 68t-65 21l6 36q42 -2 130 -2q62 0 104 2l-7 -36q-30 -3 -55 -16q-30 -15 -64 -47q-41 -39 -114.5 -106t-102.5 -94q75 -131 134 -206t127 -135zM245 -1q-76 2 -131 2q-36 0 -124 -2l7 36
q67 6 76 16q11 12 19 60l77 424q5 27 5 38q0 19 -18 25q-25 6 -68 10l8 36q88 -2 134 -2q40 0 124 2l-8 -36q-71 -5 -81 -17q-11 -12 -18 -55l-78 -426q-5 -25 -5 -43q0 -17 15 -22q24 -6 74 -10z" />
    <glyph glyph-name="S_S" horiz-adv-x="987" 
d="M557 185q15 -84 31 -108q13 -18 42 -30t67 -12q69 0 104.5 28.5t35.5 76.5q0 64 -91 133l-49 37q-104 76 -104 168q0 90 63 134.5t167 44.5q64 0 114 -21q21 -9 21 -31q-2 -81 -8 -132h-36q-8 64 -18 92q-6 20 -25 29q-32 15 -72 15q-59 0 -94 -28t-35 -78q0 -56 77 -116
l52 -41q65 -51 92 -91.5t27 -84.5q0 -88 -64.5 -136.5t-168.5 -48.5q-87 0 -140 34q-21 15 -23 46q-3 45 -3 120h38zM64 185q15 -84 31 -108q13 -18 42 -30t67 -12q69 0 104.5 28.5t35.5 76.5q0 64 -91 133l-49 37q-104 76 -104 168q0 90 63 134.5t167 44.5q64 0 114 -21
q21 -9 21 -31q-2 -81 -8 -132h-36q-8 64 -18 92q-6 20 -25 29q-32 15 -72 15q-59 0 -94 -28t-35 -78q0 -56 77 -116l52 -41q65 -51 92 -91.5t27 -84.5q0 -88 -64.5 -136.5t-168.5 -48.5q-87 0 -140 34q-21 15 -23 46q-3 45 -3 120h38z" />
    <glyph glyph-name="a.sc" horiz-adv-x="483" 
d="M163 -1q-70 2 -102 2q-31 0 -99 -2l8 35q40 4 50 14q12 11 48 72l198 340h45l63 -343q12 -61 21 -70t52 -13l-7 -35q-66 2 -101 2q-67 0 -109 -2l7 35q37 3 55 8q18 6 18 21q0 10 -8 56l-7 40h-150l-22 -38q-26 -46 -26 -60q0 -15 15 -19q22 -6 58 -8zM167 203h123
q-12 66 -29 168q-12 -24 -94 -168z" />
    <glyph glyph-name="aacute.sc" horiz-adv-x="516" 
d="M163 -1q-70 2 -102 2q-31 0 -99 -2l8 35q40 4 50 14q12 11 48 72l198 340h45l63 -343q12 -61 21 -70t52 -13l-7 -35q-66 2 -101 2q-67 0 -109 -2l7 35q37 3 55 8q18 6 18 21q0 10 -8 56l-7 40h-150l-22 -38q-26 -46 -26 -60q0 -15 15 -19q22 -6 58 -8zM167 203h123
q-12 66 -29 168q-12 -24 -94 -168zM254 525l-21 22l110 128q18 22 27 28.5t21 6.5q14 0 24 -9.5t10 -26.5q0 -19 -38 -49z" />
    <glyph glyph-name="abreve.sc" horiz-adv-x="516" 
d="M163 -1q-70 2 -102 2q-31 0 -99 -2l8 35q40 4 50 14q12 11 48 72l198 340h45l63 -343q12 -61 21 -70t52 -13l-7 -35q-66 2 -101 2q-67 0 -109 -2l7 35q37 3 55 8q18 6 18 21q0 10 -8 56l-7 40h-150l-22 -38q-26 -46 -26 -60q0 -15 15 -19q22 -6 58 -8zM167 203h123
q-12 66 -29 168q-12 -24 -94 -168zM392 672l34 -2q-9 -68 -46 -106t-92 -38q-103 0 -103 118q0 17 2 24l33 4q2 -84 74 -84q74 0 98 84z" />
    <glyph glyph-name="acircumflex.sc" horiz-adv-x="516" 
d="M163 -1q-70 2 -102 2q-31 0 -99 -2l8 35q40 4 50 14q12 11 48 72l198 340h45l63 -343q12 -61 21 -70t52 -13l-7 -35q-66 2 -101 2q-67 0 -109 -2l7 35q37 3 55 8q18 6 18 21q0 10 -8 56l-7 40h-150l-22 -38q-26 -46 -26 -60q0 -15 15 -19q22 -6 58 -8zM167 203h123
q-12 66 -29 168q-12 -24 -94 -168zM419 530l-24 -18l-89 104l-125 -104l-22 21l129 143q18 19 29 19q19 0 28 -19z" />
    <glyph glyph-name="acute.cap" horiz-adv-x="290" 
d="M74 681l-18 26l122 107q30 26 46 26q14 0 24.5 -12t10.5 -28q0 -20 -43 -44z" />
    <glyph glyph-name="acute.sc" horiz-adv-x="290" 
d="M76 525l-21 22l110 128q18 22 27.5 28.5t20.5 6.5q14 0 24 -9.5t10 -26.5q0 -19 -38 -49z" />
    <glyph glyph-name="adieresis.sc" horiz-adv-x="516" 
d="M163 -1q-70 2 -102 2q-31 0 -99 -2l8 35q40 4 50 14q12 11 48 72l198 340h45l63 -343q12 -61 21 -70t52 -13l-7 -35q-66 2 -101 2q-67 0 -109 -2l7 35q37 3 55 8q18 6 18 21q0 10 -8 56l-7 40h-150l-22 -38q-26 -46 -26 -60q0 -15 15 -19q22 -6 58 -8zM167 203h123
q-12 66 -29 168q-12 -24 -94 -168zM266 619q-1 -23 -13 -38t-32 -15q-18 0 -29 12.5t-11 32.5q0 25 13.5 39t33.5 14q38 0 38 -45zM414 619q-1 -23 -13 -38t-33 -15q-19 0 -29.5 12.5t-10.5 32.5q1 25 14.5 39t33.5 14q18 0 28 -12.5t10 -32.5z" />
    <glyph glyph-name="ae.sc" horiz-adv-x="695" 
d="M171 -1q-68 2 -113 2q-25 0 -95 -2l8 35q31 3 48 14q16 12 69 73l212 250q23 28 23 36q0 9 -14 12q-22 3 -57 5l7 34h373q23 0 29 -6t6 -23q0 -11 -9 -92h-32q-8 60 -15 67q-14 14 -88 14q-43 0 -60 -1l-29 -161h8q55 0 73 2.5t28 10.5q11 10 25 46h33q-17 -68 -29 -161
h-33q0 43 -7 51q-6 8 -23.5 9.5t-76.5 1.5h-6l-22 -122q-3 -15 -3 -30q0 -14 16 -18q21 -5 53 -5q88 0 110 20q15 13 48 74l31 -6q-17 -75 -35 -110q-10 -19 -54 -19h-323l6 34q58 6 69 20q11 15 16 50l11 66h-160l-41 -50q-38 -48 -40 -63q0 -13 16 -15q36 -6 54 -8z
M222 210h136l33 190q2 8 2 9q0 5 -3 5q-4 0 -10 -7q-16 -23 -158 -197z" />
    <glyph glyph-name="aeacute.sc" horiz-adv-x="737" 
d="M171 -1q-68 2 -113 2q-25 0 -95 -2l8 35q31 3 48 14q16 12 69 73l212 250q23 28 23 36q0 9 -14 12q-22 3 -57 5l7 34h373q23 0 29 -6t6 -23q0 -11 -9 -92h-32q-8 60 -15 67q-14 14 -88 14q-43 0 -60 -1l-29 -161h8q55 0 73 2.5t28 10.5q11 10 25 46h33q-17 -68 -29 -161
h-33q0 43 -7 51q-6 8 -23.5 9.5t-76.5 1.5h-6l-22 -122q-3 -15 -3 -30q0 -14 16 -18q21 -5 53 -5q88 0 110 20q15 13 48 74l31 -6q-17 -75 -35 -110q-10 -19 -54 -19h-323l6 34q58 6 69 20q11 15 16 50l11 66h-160l-41 -50q-38 -48 -40 -63q0 -13 16 -15q36 -6 54 -8z
M222 210h136l33 190q2 8 2 9q0 5 -3 5q-4 0 -10 -7q-16 -23 -158 -197zM457 525l-21 22l110 128q18 22 27 28.5t21 6.5q14 0 24 -9.5t10 -26.5q0 -19 -38 -49z" />
    <glyph glyph-name="agrave.sc" horiz-adv-x="516" 
d="M163 -1q-70 2 -102 2q-31 0 -99 -2l8 35q40 4 50 14q12 11 48 72l198 340h45l63 -343q12 -61 21 -70t52 -13l-7 -35q-66 2 -101 2q-67 0 -109 -2l7 35q37 3 55 8q18 6 18 21q0 10 -8 56l-7 40h-150l-22 -38q-26 -46 -26 -60q0 -15 15 -19q22 -6 58 -8zM167 203h123
q-12 66 -29 168q-12 -24 -94 -168zM340 545l-27 -20l-99 113q-24 28 -24 47q0 15 12.5 26t27.5 11q12 0 20.5 -8.5t20.5 -32.5z" />
    <glyph glyph-name="amacron.sc" horiz-adv-x="516" 
d="M163 -1q-70 2 -102 2q-31 0 -99 -2l8 35q40 4 50 14q12 11 48 72l198 340h45l63 -343q12 -61 21 -70t52 -13l-7 -35q-66 2 -101 2q-67 0 -109 -2l7 35q37 3 55 8q18 6 18 21q0 10 -8 56l-7 40h-150l-22 -38q-26 -46 -26 -60q0 -15 15 -19q22 -6 58 -8zM167 203h123
q-12 66 -29 168q-12 -24 -94 -168zM408 557h-230l10 58h231z" />
    <glyph glyph-name="ampersand.sc" horiz-adv-x="531" 
d="M474 -10l-22 -34q-78 31 -129 76q-65 -45 -147 -45q-73 0 -115 37.5t-42 94.5q0 92 124 137q-27 43 -27 91q1 51 38 87.5t101 36.5q55 0 83.5 -25.5t28.5 -65.5q0 -48 -36 -78t-100 -52q40 -67 112 -143q26 27 41 63q6 16 6 21q0 15 -20 20q-6 1 -23 2.5t-23 2.5l6 39
q22 -2 100 -2q67 0 90 2l-5 -39q-37 -1 -51 -12q-10 -9 -27 -38q-34 -61 -62 -89q28 -33 99 -87zM211 282q48 18 73 38.5t25 51.5q0 51 -56 51q-29 0 -48 -15.5t-20 -49.5q0 -31 26 -76zM164 222q-34 -17 -53.5 -37.5t-19.5 -57.5q0 -35 24.5 -61t75.5 -26q58 0 98 24
q-73 73 -125 158z" />
    <glyph glyph-name="aogonek.sc" horiz-adv-x="475" 
d="M163 -1q-70 2 -102 2q-31 0 -99 -2l8 35q40 4 50 14q12 11 48 72l198 340h45l63 -343q12 -61 21 -70t52 -13l-7 -35q-46 2 -72 2q-57 -54 -81 -87.5t-24 -65.5q0 -47 49 -47q34 0 64 13l11 -29q-54 -36 -106 -36q-37 0 -56.5 22.5t-19.5 56.5q0 45 28 82t95 91
q-61 0 -98 -2l7 35q37 3 55 8q18 6 18 21q0 10 -8 56l-7 40h-150l-22 -38q-26 -46 -26 -60q0 -15 15 -19q22 -6 58 -8zM167 203h123q-12 66 -29 168q-12 -24 -94 -168z" />
    <glyph glyph-name="aring.sc" horiz-adv-x="516" 
d="M163 -1q-70 2 -102 2q-31 0 -99 -2l8 35q40 4 50 14q12 11 48 72l198 340h45l63 -343q12 -61 21 -70t52 -13l-7 -35q-66 2 -101 2q-67 0 -109 -2l7 35q37 3 55 8q18 6 18 21q0 10 -8 56l-7 40h-150l-22 -38q-26 -46 -26 -60q0 -15 15 -19q22 -6 58 -8zM167 203h123
q-12 66 -29 168q-12 -24 -94 -168zM387 616q0 -42 -26 -69.5t-65 -27.5q-35 0 -57.5 23.5t-22.5 61.5q1 40 27.5 68t64.5 28q37 0 58 -22.5t21 -61.5zM350 614q0 24 -13 37.5t-32 13.5q-21 0 -36 -16t-15 -42q0 -24 12 -38t33 -14q22 0 36 16.5t15 42.5z" />
    <glyph glyph-name="aringacute.sc" horiz-adv-x="484" 
d="M163 -1q-70 2 -102 2q-31 0 -99 -2l8 35q40 4 50 14q12 11 48 72l198 340h45l63 -343q12 -61 21 -70t52 -13l-7 -35q-66 2 -101 2q-67 0 -109 -2l7 35q37 3 55 8q18 6 18 21q0 10 -8 56l-7 40h-150l-22 -38q-26 -46 -26 -60q0 -15 15 -19q22 -6 58 -8zM167 203h123
q-12 66 -29 168q-12 -24 -94 -168zM390 607q0 -42 -26 -69.5t-65 -27.5q-35 0 -57.5 23.5t-22.5 61.5q1 40 27.5 68t64.5 28q37 0 58 -22t21 -62zM353 605q0 24 -13 37.5t-32 13.5q-21 0 -35.5 -15.5t-14.5 -42.5q0 -52 44 -52q22 0 36 16.5t15 42.5zM310 719l-22 22
l111 128q19 22 28 28.5t20 6.5q14 0 24 -10t10 -26q0 -19 -38 -49z" />
    <glyph glyph-name="atilde.sc" horiz-adv-x="516" 
d="M163 -1q-70 2 -102 2q-31 0 -99 -2l8 35q40 4 50 14q12 11 48 72l198 340h45l63 -343q12 -61 21 -70t52 -13l-7 -35q-66 2 -101 2q-67 0 -109 -2l7 35q37 3 55 8q18 6 18 21q0 10 -8 56l-7 40h-150l-22 -38q-26 -46 -26 -60q0 -15 15 -19q22 -6 58 -8zM167 203h123
q-12 66 -29 168q-12 -24 -94 -168zM186 542l-26 12q39 98 93 98q19 0 49 -13l23 -11q29 -13 40 -13q23 0 51 48l26 -13q-40 -97 -85 -97q-18 0 -55 16l-22 10q-24 10 -39 10q-14 0 -26 -10.5t-29 -36.5z" />
    <glyph glyph-name="b.sc" horiz-adv-x="455" 
d="M-8 -1l6 35q52 5 64 13q14 7 21 48l52 270q2 13 2 28q0 19 -14 22q-21 6 -59 9l5 34h148q77 0 113 -6q92 -15 92 -89q0 -97 -111 -120q51 -7 77.5 -34t26.5 -66q0 -86 -80 -122q-48 -22 -142 -22q-13 0 -43.5 1t-50.5 1q-49 0 -107 -2zM182 261h18q60 0 85 7q65 17 65 81
q0 47 -44 59q-26 8 -94 8zM175 218l-24 -127q-3 -16 -3 -25q0 -15 16 -18q32 -5 49 -5q51 0 88.5 21t38.5 72q0 45 -33 63q-35 19 -117 19h-15z" />
    <glyph glyph-name="braceleft.cap" horiz-adv-x="294" 
d="M214 -111q-80 0 -115 28t-35 87q0 25 23 134q11 55 11 80q0 78 -72 83l5 32q57 6 78.5 35.5t37.5 111.5l17 88q16 86 57.5 125t147.5 39l-8 -37q-62 0 -89.5 -25t-41.5 -104l-21 -119q-12 -67 -35 -93.5t-79 -38.5q69 -17 69 -96q0 -25 -10 -79q-23 -127 -23 -134
q0 -42 19.5 -61.5t68.5 -19.5z" />
    <glyph glyph-name="braceright.cap" horiz-adv-x="294" 
d="M114 732q80 0 115 -29t35 -88q0 -17 -22 -135q-9 -46 -9 -79q0 -39 15 -59t55 -24l-6 -32q-57 -6 -77.5 -33t-37.5 -112l-18 -89q-17 -89 -56.5 -126t-146.5 -37l6 35q60 0 88.5 25.5t42.5 103.5l23 120q14 73 35.5 97.5t77.5 33.5q-69 16 -69 98q0 29 11 83
q21 104 21 128q0 42 -20.5 61.5t-69.5 19.5z" />
    <glyph glyph-name="bracketleft.cap" horiz-adv-x="284" 
d="M193 -103h-175l149 821h176l-8 -40h-108l-136 -739h109z" />
    <glyph glyph-name="bracketright.cap" horiz-adv-x="284" 
d="M106 720h175l-147 -823h-175l7 42h108l136 740h-110z" />
    <glyph glyph-name="breve.cap" horiz-adv-x="287" 
d="M258 841l36 -2q-10 -68 -52.5 -106.5t-101.5 -38.5q-54 0 -86.5 28.5t-33.5 87.5q0 16 3 29l34 3q3 -85 88 -85q87 0 113 84z" />
    <glyph glyph-name="breve.sc" horiz-adv-x="287" 
d="M240 672l34 -2q-9 -68 -46 -106t-92 -38q-103 0 -103 118q0 17 2 24l33 4q2 -84 74 -84q74 0 98 84z" />
    <glyph glyph-name="bullet.cap" horiz-adv-x="329" 
d="M296 305q-1 -58 -37 -93.5t-92 -35.5q-51 0 -81.5 32t-29.5 82q2 58 36 94.5t91 36.5q51 0 82.5 -31.5t30.5 -84.5z" />
    <glyph glyph-name="c.sc" horiz-adv-x="501" 
d="M452 130q-12 -51 -31 -99q-8 -19 -31 -27q-50 -17 -134 -17q-98 0 -158 56t-60 150q0 126 79.5 202.5t210.5 76.5q74 0 116 -17q18 -7 18 -27q0 -69 -1 -105l-35 -2q-9 57 -19 74q-9 16 -23 21q-29 10 -65 10q-94 0 -149.5 -63t-55.5 -167q0 -76 42 -119.5t115 -43.5
q68 0 95 24q25 22 52 81z" />
    <glyph glyph-name="c_t" horiz-adv-x="619" 
d="M323 68q-104 -81 -194 -81q-103 0 -103 129q0 65 24 130.5t66 113.5q61 72 147 72q10 0 15 -1q-31 36 -31 90q0 77 49.5 124t126.5 47q57 0 93.5 -32t36.5 -94q0 -77 -31 -155q49 0 100 -8l-8 -36q-32 -5 -99 -7l-41 -207q-14 -80 -14 -82q0 -18 16 -18q22 0 90 28
l13 -26q-96 -64 -148 -64q-45 0 -45 49q0 30 17 110l43 210q-34 1 -68 7l7 33q7 1 24.5 5t26.5 6q20 5 33 30q30 52 30 109q0 43 -26.5 65t-63.5 22q-54 0 -84.5 -32t-30.5 -87q0 -71 35 -94q23 -5 23 -24t-20 -52q-52 26 -92 26q-45 0 -76 -34q-25 -29 -44 -87.5
t-19 -119.5q0 -85 60 -85q67 0 145 48z" />
    <glyph glyph-name="cacute.sc" horiz-adv-x="485" 
d="M452 130q-12 -51 -31 -99q-8 -19 -31 -27q-50 -17 -134 -17q-98 0 -158 56t-60 150q0 126 79.5 202.5t210.5 76.5q74 0 116 -17q18 -7 18 -27q0 -69 -1 -105l-35 -2q-9 57 -19 74q-9 16 -23 21q-29 10 -65 10q-94 0 -149.5 -63t-55.5 -167q0 -76 42 -119.5t115 -43.5
q68 0 95 24q25 22 52 81zM286 525l-21 22l110 128q18 22 27.5 28.5t20.5 6.5q14 0 24 -9.5t10 -26.5q0 -19 -38 -49z" />
    <glyph glyph-name="caron.alt" horiz-adv-x="301" 
d="M98 441l-18 25q79 50 79 94q0 13 -9 29t-9 28q0 18 12.5 29.5t31.5 11.5q45 0 45 -55q-2 -85 -132 -162z" />
    <glyph glyph-name="caron.cap" horiz-adv-x="287" 
d="M16 837l26 20l103 -86l132 86l19 -24l-134 -127q-19 -19 -31 -19q-16 0 -28 19z" />
    <glyph glyph-name="caron.sc" horiz-adv-x="287" 
d="M22 680l25 18l90 -104l125 104l22 -21l-128 -144q-18 -19 -31 -19q-17 0 -28 19z" />
    <glyph glyph-name="ccaron.sc" horiz-adv-x="485" 
d="M452 130q-12 -51 -31 -99q-8 -19 -31 -27q-50 -17 -134 -17q-98 0 -158 56t-60 150q0 126 79.5 202.5t210.5 76.5q74 0 116 -17q18 -7 18 -27q0 -69 -1 -105l-35 -2q-9 57 -19 74q-9 16 -23 21q-29 10 -65 10q-94 0 -149.5 -63t-55.5 -167q0 -76 42 -119.5t115 -43.5
q68 0 95 24q25 22 52 81zM203 680l25 18l90 -104l125 104l22 -21l-128 -144q-18 -19 -31 -19q-17 0 -28 19z" />
    <glyph glyph-name="ccedilla.sc" horiz-adv-x="494" 
d="M139 -260l-6 37q56 15 83 32t28 42q0 14 -8.5 23.5t-29.5 23.5q-16 10 -16 26q2 23 26 66q-82 11 -130 65t-48 138q0 126 79.5 202.5t210.5 76.5q74 0 116 -17q18 -7 18 -27q0 -69 -1 -105l-35 -2q-9 57 -19 74q-9 16 -23 21q-29 10 -65 10q-94 0 -149.5 -63t-55.5 -167
q0 -76 42 -119.5t115 -43.5q68 0 95 24q25 22 52 81l34 -8q-12 -51 -31 -99q-8 -19 -31 -27q-50 -17 -134 -17h-5q-11 -22 -11 -31q0 -15 13 -22q54 -29 54 -68q0 -52 -49 -82.5t-119 -43.5z" />
    <glyph glyph-name="ccircumflex.sc" horiz-adv-x="485" 
d="M452 130q-12 -51 -31 -99q-8 -19 -31 -27q-50 -17 -134 -17q-98 0 -158 56t-60 150q0 126 79.5 202.5t210.5 76.5q74 0 116 -17q18 -7 18 -27q0 -69 -1 -105l-35 -2q-9 57 -19 74q-9 16 -23 21q-29 10 -65 10q-94 0 -149.5 -63t-55.5 -167q0 -76 42 -119.5t115 -43.5
q68 0 95 24q25 22 52 81zM452 530l-24 -18l-89 104l-125 -104l-22 21l129 143q18 19 29 19q18 0 28 -19z" />
    <glyph glyph-name="cdotaccent.sc" horiz-adv-x="485" 
d="M452 130q-12 -51 -31 -99q-8 -19 -31 -27q-50 -17 -134 -17q-98 0 -158 56t-60 150q0 126 79.5 202.5t210.5 76.5q74 0 116 -17q18 -7 18 -27q0 -69 -1 -105l-35 -2q-9 57 -19 74q-9 16 -23 21q-29 10 -65 10q-94 0 -149.5 -63t-55.5 -167q0 -76 42 -119.5t115 -43.5
q68 0 95 24q25 22 52 81zM384 619q-1 -22 -13.5 -37.5t-32.5 -15.5q-40 0 -40 45q0 25 13.5 39t33.5 14q39 0 39 -45z" />
    <glyph glyph-name="cedilla.cap" horiz-adv-x="287" 
d="M57 -270l-7 38q113 30 114 76q0 27 -38 50q-18 11 -18 27q0 21 36 84h38q-23 -39 -23 -54q0 -12 14 -20q56 -31 56 -70q0 -54 -50 -85.5t-122 -45.5z" />
    <glyph glyph-name="cedilla.sc" horiz-adv-x="287" 
d="M59 -260l-6 37q56 15 83 32t28 42q0 13 -8 22.5t-30 24.5q-16 11 -16 26q1 22 35 81h37q-22 -36 -22 -49q0 -15 13 -22q54 -29 54 -68q0 -52 -49 -82.5t-119 -43.5z" />
    <glyph glyph-name="cent.denominator" horiz-adv-x="295" 
d="M132 -70h-32l14 68q-86 1 -86 89q0 35 15 73.5t40 63.5q30 33 80 42l11 64h31l-11 -61h6q30 0 47 -11q11 -6 11 -16q0 -15 -17 -35q-22 20 -55 21l-34 -189q27 3 72 27l12 -21q-49 -33 -90 -44zM83 100q0 -54 38 -60l34 188q-20 -3 -39 -25q-13 -15 -23 -45.5t-10 -57.5z
" />
    <glyph glyph-name="cent.inferior" horiz-adv-x="295" 
d="M108 -213h-32l14 68q-86 1 -86 89q0 35 15 73.5t40 63.5q30 33 80 42l11 64h31l-11 -61h6q30 0 47 -11q11 -5 11 -16q0 -15 -17 -35q-22 20 -55 21l-34 -189q27 3 72 27l12 -21q-49 -33 -90 -44zM59 -43q0 -54 38 -60l34 188q-20 -3 -39 -25q-13 -15 -23 -45.5t-10 -57.5
z" />
    <glyph glyph-name="cent.numerator" horiz-adv-x="295" 
d="M167 172h-31l13 68q-86 1 -86 88q0 36 15 74t40 63q31 32 80 43l12 64h30l-11 -61h6q30 0 47 -11q11 -6 11 -16q0 -13 -16 -36q-23 21 -55 21l-34 -188q24 3 72 26l12 -21q-46 -31 -91 -43zM119 342q0 -55 37 -60l34 187q-19 -2 -38 -24q-13 -15 -23 -45.5t-10 -57.5z
" />
    <glyph glyph-name="cent.oldstyle" horiz-adv-x="449" 
d="M220 -106h-40l17 102h-7q-50 0 -84.5 33.5t-34.5 92.5q0 130 89 222q43 45 112 60l18 102h40l-16 -96q14 1 36 1q31 -2 48 -8q19 -6 19 -23q0 -22 -21 -55q-41 24 -92 26l-56 -293q59 9 115 39l19 -29q-68 -54 -143 -67zM146 138q0 -75 63 -82l54 293q-29 -4 -48 -25
q-28 -28 -48.5 -80t-20.5 -106z" />
    <glyph glyph-name="cent.superior" horiz-adv-x="295" 
d="M197 330h-32l14 68q-86 1 -86 89q0 35 15 73.5t40 63.5q30 33 80 42l11 64h31l-11 -61h6q30 0 47 -11q11 -6 11 -16q0 -15 -17 -35q-22 20 -55 21l-34 -189q27 3 72 27l12 -21q-49 -33 -90 -44zM148 500q0 -54 38 -60l34 188q-20 -3 -39 -25q-13 -15 -23 -45.5t-10 -57.5
z" />
    <glyph glyph-name="circumflex.cap" horiz-adv-x="287" 
d="M295 695l-24 -21l-103 86l-132 -85l-21 24l134 126q21 19 32 19q16 0 28 -19z" />
    <glyph glyph-name="circumflex.sc" horiz-adv-x="287" 
d="M281 530l-24 -18l-89 104l-125 -104l-22 21l129 143q18 19 29 19q19 0 28 -19z" />
    <glyph glyph-name="comma.denominator" horiz-adv-x="133" 
d="M-27 -103l-16 23q56 33 56 67q0 11 -6 21.5t-6 19.5q0 12 9.5 21.5t25.5 9.5q18 0 27.5 -12t9.5 -29q-1 -67 -100 -121z" />
    <glyph glyph-name="comma.inferior" horiz-adv-x="133" 
d="M-53 -246l-15 23q55 32 55 67q0 11 -5.5 21.5t-5.5 19.5q0 12 9 21.5t25 9.5q19 0 28.5 -12t9.5 -29q-1 -66 -101 -121z" />
    <glyph glyph-name="comma.numerator" horiz-adv-x="133" 
d="M9 139l-14 23q54 31 54 67q0 10 -5.5 21t-5.5 20q0 12 9.5 21.5t25.5 9.5q37 0 37 -41q0 -66 -101 -121z" />
    <glyph glyph-name="comma.superior" horiz-adv-x="133" 
d="M41 297l-16 23q56 33 56 67q0 11 -6 21.5t-6 19.5q0 12 9.5 21.5t25.5 9.5q18 0 28 -12t10 -29q-1 -66 -101 -121z" />
    <glyph glyph-name="commaaccent" horiz-adv-x="301" 
d="M85 -274l-18 26q76 48 78 94q0 13 -8.5 29.5t-8.5 28.5q0 17 12 28t31 11q46 0 46 -54q-1 -85 -132 -163z" />
    <glyph glyph-name="commaaccent.sc" horiz-adv-x="301" 
d="M85 -276l-18 25q76 48 78 94q0 13 -8.5 29.5t-8.5 28.5q0 17 12 28t31 11q46 0 46 -54q-1 -86 -132 -162z" />
    </font>
</defs>
</svg>
