<?xml version="1.0" standalone="no"?>
<!DOCTYPE svg PUBLIC "-//W3C//DTD SVG 1.1//EN" "http://www.w3.org/Graphics/SVG/1.1/DTD/svg11.dtd" >
<svg xmlns="http://www.w3.org/2000/svg" xmlns:xlink="http://www.w3.org/1999/xlink" version="1.1">
<metadata>
Created by FontForge 20190112 at Mon Jun 17 11:13:36 2013
 By David Mongeau-Petitpas
Copyright (c) 2012 by Dieter Hofrichter. All rights reserved.
</metadata>
<defs>
<font id="SinaNovaBolIta" horiz-adv-x="354" >
  <font-face 
    font-family="SinaNovaBolIta"
    font-weight="700"
    font-stretch="normal"
    units-per-em="1000"
    panose-1="2 0 0 0 0 0 0 0 0 0"
    ascent="729"
    descent="-271"
    x-height="422"
    cap-height="644"
    bbox="-153 -300 1158 971"
    underline-thickness="0"
    underline-position="0"
    unicode-range="U+0020-FB06"
  />
<missing-glyph horiz-adv-x="295" 
 />
    <glyph glyph-name="f_f" unicode="ff" horiz-adv-x="585" 
d="M223 350l-56 -281q-27 -136 -64 -204q-32 -59 -86 -97.5t-124 -38.5q-18 0 -32 9.5t-14 27.5q0 27 18 60q28 -12 68 -12q36 0 57.5 16.5t33.5 60.5q10 37 41 216l43 243q-50 3 -74 7l8 45q7 2 26 5t30 6q18 4 25 29q17 71 27.5 100t27.5 57q32 51 84.5 83.5t108.5 32.5
q42 0 63 -13q13 -9 13 -27q0 -30 -27 -69q-35 26 -77 26q-53 0 -75 -59q-15 -40 -30 -127l-5 -31h79q41 0 61 5q18 5 23 30q19 78 30.5 109t29.5 58q35 53 89.5 84.5t120.5 31.5q47 0 73 -13q16 -10 16 -28q0 -9 -9 -31t-21 -38q-45 28 -100 28q-58 0 -82 -61
q-14 -37 -29 -121l-10 -53q77 -2 110 -10l-10 -49q-42 -7 -110 -7l-51 -260q-26 -132 -65 -203q-77 -133 -202 -133q-19 0 -33.5 9.5t-14.5 26.5q0 29 16 59q37 -16 62 -16q37 0 58.5 17t34.5 61q8 30 41 217l38 222h-155z" />
    <glyph glyph-name="fi" unicode="fi" horiz-adv-x="545" 
d="M223 350l-56 -281q-26 -130 -65 -204q-32 -59 -85 -97.5t-121 -38.5q-20 0 -34.5 9.5t-14.5 27.5q0 27 18 60q28 -12 68 -12q36 0 57.5 16t33.5 61q6 23 41 215l43 244q-50 3 -74 7l8 45q7 2 25.5 5t29.5 6q20 5 25 29q31 124 63 176q34 53 89.5 83.5t122.5 30.5t103 -22
q23 -13 23 -36q0 -33 -33 -82q-26 24 -62.5 40t-68.5 16q-63 0 -86 -57q-17 -44 -30 -120l-10 -56h84q32 0 56 2q20 2 48 7t38 5q32 0 32 -33q0 -26 -13 -79l-37 -153q-16 -66 -16 -77q0 -15 13 -15q14 0 64 20l14 -37q-35 -28 -86 -46t-78 -18q-43 0 -43 38q0 27 24 130
l23 98q10 43 10 71q0 14 -15 18q-9 4 -45 4h-83z" />
    <glyph glyph-name="fl" unicode="fl" horiz-adv-x="551" 
d="M223 350l-56 -281q-27 -134 -65 -204q-79 -136 -207 -136q-48 0 -48 37q0 30 18 60q28 -12 68 -12q37 0 58 16t32 61q12 42 42 216l43 243q-50 3 -74 7l8 45q7 2 26 5t30 6q18 4 25 30q34 132 62 176q34 52 91.5 82.5t122.5 30.5q33 0 70 -15q39 12 63 12q30 0 30 -31
q0 -22 -17 -99q-52 -242 -99 -434q-14 -63 -14 -82q0 -14 12 -14q15 0 66 20l15 -35q-36 -27 -86 -45t-75 -18q-48 0 -48 38q0 21 23 129l86 396q7 31 7 50q0 11 -5 20q-16 26 -71 26q-62 0 -85 -62q-12 -36 -29 -125l-9 -47q67 -2 105 -10l-10 -49q-41 -7 -105 -7z" />
    <glyph glyph-name="f_f_i" unicode="ffi" horiz-adv-x="816" 
d="M223 350l-56 -281q-27 -136 -64 -204q-32 -59 -86 -97.5t-124 -38.5q-18 0 -32 9.5t-14 27.5q0 27 18 60q28 -12 68 -12q36 0 57.5 16t33.5 61q12 50 41 216l43 243q-50 3 -74 7l8 45q7 2 26 5t30 6q18 4 25 29q17 71 27.5 100t27.5 57q32 51 84.5 83.5t108.5 32.5
q42 0 63 -13q13 -9 13 -27q0 -30 -27 -69q-35 26 -77 26q-53 0 -75 -59q-15 -40 -30 -127l-5 -31h80q41 0 61 5q17 6 23 30q30 122 60 168q33 53 88.5 83.5t123.5 30.5q65 0 103 -22q23 -13 23 -36q0 -32 -34 -82q-25 23 -62 39.5t-68 16.5q-63 0 -86 -57q-17 -44 -30 -120
l-10 -56h83q33 0 57 2q20 2 48 7t38 5q32 0 32 -33q0 -22 -14 -79l-36 -153q-16 -66 -16 -77q0 -15 12 -15q15 0 65 20l14 -37q-35 -28 -86.5 -46t-78.5 -18q-42 0 -42 38q0 31 23 130l24 98q11 47 11 71q0 14 -15 18q-11 4 -46 4h-84l-51 -260q-27 -136 -65 -203
q-75 -133 -201 -133q-19 0 -33.5 9.5t-14.5 26.5q0 29 16 59q37 -16 62 -16q37 0 58.5 17t34.5 61q6 20 40 217l39 222h-156z" />
    <glyph glyph-name="f_f_l" unicode="ffl" horiz-adv-x="821" 
d="M223 350l-56 -281q-27 -136 -64 -204q-32 -59 -86 -97.5t-124 -38.5q-18 0 -32 9.5t-14 27.5q0 27 18 60q28 -12 68 -12q36 0 57.5 16t33.5 61q12 50 41 216l43 243q-50 3 -74 7l8 45q7 2 26 5t30 6q18 4 25 29q17 71 27.5 100t27.5 57q32 51 84.5 83.5t108.5 32.5
q42 0 63 -13q13 -9 13 -27q0 -30 -27 -69q-35 26 -77 26q-53 0 -75 -59q-15 -40 -30 -127l-5 -31h79q41 0 61 5q18 5 23 29q30 125 59 170q34 51 91.5 82t122.5 31q34 0 70 -15q39 12 64 12q29 0 29 -31q0 -26 -16 -99q-77 -339 -99 -434q-15 -68 -15 -82t13 -14q15 0 65 20
l15 -35q-36 -27 -86 -45t-75 -18q-48 0 -48 38q0 16 24 129l85 397q7 31 7 48q0 12 -4 21q-15 26 -72 26q-61 0 -84 -62q-12 -36 -29 -125l-9 -47q67 -2 105 -10l-10 -49q-41 -7 -106 -7l-50 -260q-26 -132 -65 -203q-77 -133 -202 -133q-19 0 -33.5 9.5t-14.5 26.5
q0 29 16 59q37 -16 62 -16q36 0 57.5 16.5t35.5 61.5q7 24 41 217l38 222h-155z" />
    <glyph glyph-name="T_h" unicode="Th" horiz-adv-x="998" 
d="M407 -1q-66 2 -155 2q-71 0 -149 -2l8 48q71 6 85 24q9 11 17 59l86 455q-102 -2 -125 -14q-14 -8 -27.5 -33.5t-40.5 -89.5l-46 3q35 160 36 164q7 28 34 28h406q67 0 101 10q31 10 61 36q44 40 72 40q22 0 22 -22q0 -11 -3 -23q-4 -19 -32 -139.5t-40 -173.5
q88 63 168 63q77 0 77 -114q0 -53 -23 -135.5t-60 -127.5q-56 -66 -135 -66q-42 0 -42 35q0 20 17 52q20 -10 43 -10q32 0 48 18q18 19 29.5 82.5t11.5 120.5q0 61 -41 61q-51 0 -104 -29l-75 -325l-100 9l124 580h-234l-86 -453q-8 -40 -8 -52q0 -18 18 -23q14 -3 70 -10z
" />
    <glyph glyph-name="Tcaron_h" unicode="&#x164;h" horiz-adv-x="999" 
d="M407 -1q-66 2 -155 2q-71 0 -149 -2l8 48q71 6 85 24q9 11 17 59l86 455q-102 -2 -125 -14q-14 -8 -27.5 -33.5t-40.5 -89.5l-46 3q35 160 36 164q7 28 34 28h406q67 0 101 10q31 10 61 36q44 40 72 40q22 0 22 -22q0 -11 -3 -23q-4 -19 -32 -139.5t-40 -173.5
q88 63 168 63q77 0 77 -114q0 -53 -23 -135.5t-60 -127.5q-56 -66 -135 -66q-42 0 -42 35q0 20 17 52q20 -10 43 -10q32 0 48 18q18 19 29.5 82.5t11.5 120.5q0 61 -41 61q-51 0 -104 -29l-75 -325l-100 9l124 580h-234l-86 -453q-8 -40 -8 -52q0 -18 18 -23q14 -3 70 -10z
M255 838l29 25l110 -84l130 84l25 -29l-134 -132q-21 -21 -37 -21q-22 0 -35 20z" />
    <glyph glyph-name="f_b" unicode="fb" horiz-adv-x="782" 
d="M223 350l-56 -281q-27 -134 -65 -204q-33 -59 -85.5 -97.5t-121.5 -38.5q-48 0 -48 37q0 30 18 60q28 -12 68 -12q37 0 58 16t32 61q12 42 42 216l43 243q-50 3 -74 7l8 45q5 1 24.5 5t31.5 7q18 4 25 30q33 131 62 175q34 52 91.5 82.5t122.5 30.5q31 0 69 -15
q39 12 63 12q30 0 30 -31q0 -21 -17 -98q-11 -49 -32 -138l-20 -88q87 63 162 63q91 0 91 -109q0 -58 -20.5 -123.5t-54.5 -114.5q-32 -45 -83 -73t-104 -28q-151 0 -151 116q0 30 17 106l75 345q7 31 7 48q0 11 -5 20q-16 26 -70 26q-62 0 -85 -62q-12 -36 -29 -125l-9 -47
q67 -2 105 -10l-10 -49q-41 -7 -105 -7zM482 326l-32 -151q-11 -49 -11 -74q0 -51 59 -51q53 0 77 42q25 43 40.5 107t15.5 100q0 33 -11 46t-33 13q-44 0 -105 -32z" />
    <glyph glyph-name="f_f_b" unicode="ffb" horiz-adv-x="1053" 
d="M223 350l-56 -281q-27 -136 -64 -204q-32 -59 -86 -97.5t-124 -38.5q-18 0 -32 9.5t-14 27.5q0 27 18 60q28 -12 68 -12q36 0 57.5 16t33.5 61q12 50 41 216l43 243q-50 3 -74 7l8 45q7 2 26 5t30 6q18 4 25 29q17 71 27.5 100t27.5 57q32 51 84.5 83.5t108.5 32.5
q42 0 63 -13q13 -9 13 -27q0 -30 -27 -69q-35 26 -77 26q-53 0 -75 -59q-15 -40 -30 -127l-5 -31h79q41 0 61 5q18 5 23 30q30 124 60 169q34 52 91.5 82.5t122.5 30.5q32 0 68 -15q40 12 64 12q30 0 30 -31q0 -22 -17 -99q-7 -29 -19.5 -84t-20.5 -91t-12 -50q87 63 163 63
q90 0 90 -109q0 -58 -20.5 -123.5t-54.5 -114.5q-32 -45 -83 -73t-104 -28q-150 0 -150 116q0 35 16 106l75 345q7 31 7 48q0 12 -5 21q-13 25 -71 25q-61 0 -84 -62q-12 -36 -29 -125l-9 -47q67 -2 105 -10l-10 -49q-41 -7 -105 -7l-51 -260q-26 -132 -65 -203
q-77 -133 -202 -133q-19 0 -33.5 9.5t-14.5 26.5q0 29 16 59q37 -16 62 -16q36 0 57.5 16.5t35.5 61.5q7 24 41 217l38 222h-155zM753 326l-32 -151q-11 -49 -11 -74q0 -51 59 -51q53 0 77 42q25 43 40.5 107t15.5 100q0 33 -10.5 46t-32.5 13q-45 0 -106 -32z" />
    <glyph glyph-name="f_f_h" unicode="ffh" horiz-adv-x="1044" 
d="M223 350l-56 -281q-27 -136 -64 -204q-32 -59 -86 -97.5t-124 -38.5q-18 0 -32 9.5t-14 27.5q0 27 18 60q28 -12 68 -12q36 0 57.5 16t33.5 61q12 50 41 216l43 243q-50 3 -74 7l8 45q7 2 26 5t30 6q18 4 25 29q17 71 27.5 100t27.5 57q32 51 84.5 83.5t108.5 32.5
q45 0 63 -13q13 -7 13 -27q0 -30 -27 -69q-35 26 -77 26q-53 0 -75 -59q-15 -40 -30 -127l-5 -31h79q41 0 61 5q18 5 23 29q30 125 59 170q34 51 91.5 82t122.5 31q34 0 70 -15q39 12 64 12q29 0 29 -31q0 -30 -15 -98q-37 -160 -54 -228q92 62 167 62q78 0 78 -110
q0 -57 -22.5 -137.5t-60.5 -128.5q-55 -67 -133 -67q-45 0 -45 32q0 25 18 55q25 -10 46 -10q29 0 44 18q18 21 30 84t12 118q0 62 -41 62q-52 0 -104 -30l-75 -324l-100 9l118 550q7 31 7 48q0 12 -4 21q-15 26 -72 26q-61 0 -84 -62q-12 -36 -29 -125l-9 -47
q67 -2 105 -10l-10 -49q-41 -7 -106 -7l-50 -260q-26 -132 -65 -203q-77 -133 -202 -133q-19 0 -33.5 9.5t-14.5 26.5q0 29 16 59q37 -16 62 -16q36 0 57.5 16.5t35.5 61.5q7 24 41 217l38 222h-155z" />
    <glyph glyph-name="f_f_j" unicode="ffj" horiz-adv-x="817" 
d="M223 350l-56 -281q-27 -136 -64 -204q-32 -59 -86 -97.5t-124 -38.5q-18 0 -32 9.5t-14 27.5q0 27 18 60q28 -12 68 -12q36 0 57.5 16t33.5 61q12 50 41 216l43 243q-50 3 -74 7l8 45q7 2 25.5 5t29.5 6q19 4 26 29q17 71 27.5 100t27.5 57q32 51 84.5 83.5t108.5 32.5
q41 0 63 -14q13 -9 13 -27q-2 -33 -27 -68q-35 26 -77 26q-53 0 -75 -59q-15 -40 -30 -127l-5 -31h79q41 0 61 5q18 6 23 30q17 74 29.5 106.5t31.5 61.5q33 53 88.5 83.5t123.5 30.5q65 0 103 -22q23 -13 23 -36q0 -32 -34 -82q-25 23 -62 39.5t-68 16.5q-63 0 -86 -57
q-17 -44 -30 -120l-10 -56h83q33 0 57 2q20 2 48 7t38 5q32 0 32 -33q0 -25 -12 -80l-46 -214q-28 -134 -66 -199q-78 -134 -195 -134q-46 0 -46 36q0 23 16 57q29 -11 63 -11q33 0 52 19t32 62q15 52 44 206l23 118q10 50 10 72q0 14 -15 18q-9 4 -46 4h-83l-51 -260
q-26 -132 -65 -203q-77 -133 -202 -133q-19 0 -33.5 9.5t-14.5 26.5q0 29 16 59q37 -16 62 -16q36 0 57.5 16.5t35.5 61.5q7 24 41 217l38 222h-155z" />
    <glyph glyph-name="f_f_k" unicode="ffk" horiz-adv-x="1064" 
d="M223 350l-56 -281q-27 -136 -64 -204q-32 -59 -86 -97.5t-124 -38.5q-18 0 -32 9.5t-14 27.5q0 27 18 60q28 -12 68 -12q36 0 57.5 16t33.5 61q12 50 41 216l43 243q-50 3 -74 7l8 45q7 2 26 5t30 6q18 4 25 29q17 71 27.5 100t27.5 57q32 51 84.5 83.5t108.5 32.5
q42 0 63 -13q13 -9 13 -27q0 -30 -27 -69q-35 26 -77 26q-53 0 -75 -59q-15 -40 -30 -127l-5 -31h79q41 0 61 5q18 5 23 29q30 125 59 170q34 51 91.5 82t122.5 31q34 0 70 -15q39 12 64 12q29 0 29 -31q0 -26 -16 -99q-43 -204 -137 -603l-103 9l119 550q7 31 7 48
q0 12 -4 21q-15 26 -72 26q-61 0 -84 -62q-12 -36 -29 -125l-9 -47q67 -2 105 -10l-10 -49q-41 -7 -106 -7l-50 -260q-26 -132 -65 -203q-77 -133 -202 -133q-19 0 -33.5 9.5t-14.5 26.5q0 29 16 59q37 -16 62 -16q36 0 57.5 16.5t35.5 61.5q7 24 41 217l38 222h-155z
M1050 53q-34 -27 -74.5 -45.5t-70.5 -18.5q-41 0 -64 39q-55 98 -86 229q27 39 91 102q81 77 146 77q49 0 49 -34q0 -35 -22 -68q-22 6 -37 6q-71 0 -133 -59q29 -92 77 -174q23 -40 45 -40q21 0 63 20z" />
    <glyph glyph-name="f_h" unicode="fh" horiz-adv-x="773" 
d="M223 350l-56 -281q-27 -134 -65 -204q-79 -136 -207 -136q-48 0 -48 37q0 30 18 60q28 -12 68 -12q37 0 58 16t32 61q12 42 42 216l43 243q-50 3 -74 7l8 45q7 2 26 5t30 6q18 4 25 29q34 134 62 177q34 52 91.5 82.5t122.5 30.5q33 0 70 -15q39 12 63 12q30 0 30 -31
q0 -21 -17 -98q-11 -54 -52 -228q90 62 167 62t77 -110q0 -58 -21.5 -138.5t-60.5 -127.5q-57 -67 -133 -67q-45 0 -45 32q0 23 17 55q25 -10 46 -10q28 0 45 18q18 20 29.5 83t11.5 119q0 62 -41 62q-51 0 -103 -30l-76 -324l-100 9l119 550q7 32 7 49q0 11 -5 20
q-16 26 -71 26q-62 0 -85 -62q-12 -36 -29 -125l-9 -47q67 -2 105 -10l-10 -49q-41 -7 -105 -7z" />
    <glyph glyph-name="f_j" unicode="fj" horiz-adv-x="545" 
d="M223 350l-56 -281q-26 -133 -65 -204q-32 -59 -85 -97.5t-121 -38.5q-20 0 -34.5 9.5t-14.5 27.5q0 27 18 60q28 -12 68 -12q36 0 57.5 17.5t33.5 62.5q10 40 41 212l43 244q-50 3 -74 7l8 45q7 2 25.5 5t29.5 6q20 5 25 29q31 124 63 176q34 53 89.5 83.5t122.5 30.5
t103 -22q23 -13 23 -36q0 -33 -33 -82q-26 24 -62.5 40t-68.5 16q-63 0 -86 -57q-17 -44 -30 -120l-10 -56h84q32 0 56 2q20 2 48 7t38 5q32 0 32 -33q0 -25 -12 -80l-50 -234q-28 -134 -66 -199q-78 -134 -195 -134q-46 0 -46 36q0 23 16 57q29 -11 63 -11q33 0 52 19
t32 62q17 60 45 209l26 135q10 50 10 72q0 14 -15 18q-9 4 -45 4h-83z" />
    <glyph glyph-name="f_k" unicode="fk" horiz-adv-x="793" 
d="M223 350l-56 -281q-27 -134 -65 -204q-33 -59 -85.5 -97.5t-121.5 -38.5q-48 0 -48 37q0 30 18 60q28 -12 68 -12q37 0 58 16t32 61q12 42 42 216l43 243q-50 3 -74 7l8 45q36 8 56 11q18 3 25 29q34 134 62 177q34 52 91.5 82.5t122.5 30.5q33 0 70 -15q39 12 63 12
q30 0 30 -31q0 -22 -17 -98q-55 -259 -136 -604l-103 9l119 550q7 32 7 49q0 11 -5 20q-13 26 -71 26q-62 0 -85 -62q-12 -36 -29 -125l-9 -47q67 -2 105 -10l-10 -49q-41 -7 -105 -7zM779 53q-33 -26 -74 -45t-70 -19q-42 0 -65 39q-56 102 -86 229q32 45 92 102
q81 77 145 77q49 0 49 -34q0 -35 -22 -68q-20 6 -37 6q-71 0 -133 -59q29 -92 77 -174q23 -40 46 -40q21 0 63 20z" />
    <glyph glyph-name="uni0162_h" unicode="&#x162;h" horiz-adv-x="998" 
d="M150 -278l-7 49q107 32 108 72q0 15 -8.5 25.5t-27.5 25.5q-16 12 -16 29q0 20 31 78q-61 0 -127 -2l8 48q71 6 85 24q9 11 17 59l86 455q-102 -2 -125 -14q-14 -8 -27.5 -33.5t-40.5 -89.5l-46 3q35 160 36 164q7 28 34 28h406q67 0 101 10q31 10 61 36q44 40 72 40
q22 0 22 -22q0 -11 -3 -23q-4 -19 -32 -139.5t-40 -173.5q88 63 168 63q77 0 77 -114q0 -53 -23 -135.5t-60 -127.5q-56 -66 -135 -66q-42 0 -42 35q0 20 17 52q20 -10 43 -10q32 0 48 18q18 19 29.5 82.5t11.5 120.5q0 61 -41 61q-51 0 -104 -29l-75 -325l-100 9l125 580
h-235l-86 -453q-8 -40 -8 -52q0 -18 18 -23q14 -3 70 -10l-8 -48q-13 1 -60.5 1.5t-65.5 0.5q-18 -34 -18 -48q0 -11 15 -20q54 -32 54 -73q0 -97 -182 -138z" />
    <glyph glyph-name="uni021A_h" unicode="&#x21a;h" horiz-adv-x="998" 
d="M407 -1q-66 2 -155 2q-71 0 -149 -2l8 48q71 6 85 24q9 11 17 59l86 455q-102 -2 -125 -14q-14 -8 -27.5 -33.5t-40.5 -89.5l-46 3q35 160 36 164q7 28 34 28h406q67 0 101 10q31 10 61 36q44 40 72 40q22 0 22 -22q0 -11 -3 -23q-4 -19 -32 -139.5t-40 -173.5
q88 63 168 63q77 0 77 -114q0 -53 -23 -135.5t-60 -127.5q-56 -66 -135 -66q-42 0 -42 35q0 20 17 52q20 -10 43 -10q32 0 48 18q18 19 29.5 82.5t11.5 120.5q0 61 -41 61q-51 0 -104 -29l-75 -325l-100 9l124 580h-234l-86 -453q-8 -40 -8 -52q0 -18 18 -23q14 -3 70 -10z
M173 -299l-24 33q73 54 73 94q0 17 -9 33t-9 32q0 20 13 33.5t36 13.5q57 0 57 -64q0 -91 -137 -175z" />
    <glyph glyph-name=".notdef" horiz-adv-x="295" 
 />
    <glyph glyph-name=".null" horiz-adv-x="0" 
 />
    <glyph glyph-name="nonmarkingreturn" horiz-adv-x="333" 
 />
    <glyph glyph-name="space" unicode=" " horiz-adv-x="208" 
 />
    <glyph glyph-name="exclam" unicode="!" horiz-adv-x="283" 
d="M167 212h-52q31 366 36 399q10 62 72 62q29 0 45 -15t16 -38q0 -21 -10 -61q-7 -23 -42 -135t-65 -212zM186 64q-1 -34 -20.5 -53.5t-51.5 -19.5q-30 0 -48 19.5t-18 50.5q0 30 20 50.5t50 20.5q31 0 49.5 -19t18.5 -49z" />
    <glyph glyph-name="quotedbl" unicode="&#x22;" horiz-adv-x="309" 
d="M125 398h-43q9 191 14 227q8 51 61 51q21 0 32 -13t11 -30q-1 -20 -12 -54t-63 -181zM274 398h-43q8 198 12 227q11 51 61 51q22 0 32.5 -12.5t10.5 -30.5q-1 -20 -13 -59t-60 -176z" />
    <glyph glyph-name="numbersign" unicode="#" horiz-adv-x="527" 
d="M129 -12h-49l62 201h-101l9 90h119l27 90h-99l11 90h116l55 179h50l-55 -179h96l55 179h50l-55 -179h96l-9 -90h-114l-28 -90h94l-9 -90h-112l-62 -201h-50l62 201h-96zM219 279h96l28 90h-97z" />
    <glyph glyph-name="dollar" unicode="$" horiz-adv-x="509" 
d="M238 -109h-56l19 104q-117 5 -163 60q-9 13 -9 34q1 26 42 72q14 -34 52.5 -65t88.5 -38l36 195l-25 16q-112 72 -112 176q0 80 58 126t146 53l19 102h55l-18 -102q84 -6 117 -35q12 -10 12 -29q-2 -27 -41 -73q-15 26 -43 46t-59 26l-37 -201l9 -6q75 -50 101 -85
t26 -94q0 -69 -54.5 -120t-147.5 -58zM219 479q0 -48 53 -87l30 169q-37 -4 -60 -25t-23 -57zM351 135q0 23 -10.5 42t-44.5 43l-29 -160q38 5 61 24t23 51z" />
    <glyph glyph-name="percent" unicode="%" horiz-adv-x="813" 
d="M367 481q0 -106 -56 -181q-51 -68 -126 -68q-62 0 -98 40.5t-36 111.5q0 46 15.5 99t45.5 89q53 62 123 62q64 0 98 -40.5t34 -112.5zM286 510q0 39 -10.5 59.5t-41.5 20.5q-41 0 -67 -57q-15 -32 -25.5 -83.5t-10.5 -87.5q0 -86 55 -86q40 0 62 47q17 36 27.5 93.5
t10.5 93.5zM284 -3h-55l330 639h55zM789 240q0 -106 -56 -181q-50 -68 -126 -68q-62 0 -98 40.5t-36 111.5q0 46 16 99t46 89q51 62 122 62q64 0 98 -40.5t34 -112.5zM709 269q0 38 -11 59t-42 21q-40 0 -67 -57q-15 -32 -25.5 -83.5t-10.5 -87.5q0 -86 55 -86q41 0 62 47
q17 37 28 94.5t11 92.5z" />
    <glyph glyph-name="ampersand" unicode="&#x26;" horiz-adv-x="684" 
d="M627 -4l-30 -48q-118 33 -184 93q-90 -53 -183 -53t-146.5 45.5t-53.5 121.5q0 73 42 117t126 78q-30 58 -30 120q0 33 10.5 63.5t33 59.5t66 46.5t102.5 17.5q63 0 100.5 -32.5t37.5 -82.5q0 -65 -41.5 -105.5t-135.5 -79.5q59 -109 127 -186q74 75 88 180q34 -1 54 -16
t20 -33q0 -24 -23 -65q-38 -66 -98 -116q37 -49 118 -125zM315 406q66 30 92.5 60.5t26.5 66.5q0 29 -17 47.5t-44 18.5q-40 0 -62 -26t-22 -71q0 -46 26 -96zM223 297q-36 -28 -50.5 -54t-14.5 -66q0 -48 28 -82t76 -34q53 0 104 28q-82 90 -143 208z" />
    <glyph glyph-name="quotesingle" unicode="'" horiz-adv-x="161" 
d="M125 398h-43q9 191 14 227q8 51 61 51q21 0 32 -13t11 -30q-1 -20 -12 -54t-63 -181z" />
    <glyph glyph-name="parenleft" unicode="(" horiz-adv-x="314" 
d="M231 -156l-32 -28q-164 173 -164 414q0 297 325 510l25 -34q-59 -55 -99.5 -102.5t-76.5 -107t-54 -128.5t-18 -148q0 -188 94 -376z" />
    <glyph glyph-name="parenright" unicode=")" horiz-adv-x="314" 
d="M95 710l33 30q163 -172 163 -414q0 -298 -323 -510l-25 33q59 56 99 103.5t76 107t54 128t18 147.5q0 191 -95 375z" />
    <glyph glyph-name="asterisk" unicode="*" horiz-adv-x="386" 
d="M265 506q89 48 115 48q19 0 28.5 -11t9.5 -29q0 -43 -43 -43q-27 0 -110 11q49 -47 66.5 -71t17.5 -41t-13 -28.5t-29 -11.5q-30 0 -40 25t-22 115q-33 -68 -52 -91.5t-38 -23.5q-13 0 -29.5 11.5t-16.5 32.5q0 39 122 89q-7 2 -43.5 9t-52.5 12q-43 12 -43 39
q0 20 11.5 36t31.5 16q14 0 37 -19.5t71 -70.5q-14 92 -14 105q0 50 39 50q20 0 32.5 -10t12.5 -28q0 -23 -48 -121z" />
    <glyph glyph-name="plus" unicode="+" horiz-adv-x="565" 
d="M283 67h-78l43 190h-176l18 82h176l43 189h79l-44 -189h173l-17 -82h-174z" />
    <glyph glyph-name="comma" unicode="," horiz-adv-x="213" 
d="M-29 -195l-31 41q52 41 74.5 70t22.5 60q0 16 -15 40.5t-15 44.5q0 26 17.5 44.5t46.5 18.5q36 0 55 -23.5t19 -60.5q0 -121 -174 -235z" />
    <glyph glyph-name="hyphen" unicode="-" horiz-adv-x="274" 
d="M254 279l-16 -87h-215l15 87h216z" />
    <glyph glyph-name="period" unicode="." horiz-adv-x="213" 
d="M149 64q-1 -34 -20.5 -53.5t-51.5 -19.5q-30 0 -48 19.5t-18 50.5q0 29 20 50t49 21q31 0 50 -19t19 -49z" />
    <glyph glyph-name="slash" unicode="/" horiz-adv-x="325" 
d="M385 687l-345 -757h-67l342 757h70z" />
    <glyph glyph-name="zero" unicode="0" horiz-adv-x="522" 
d="M513 402q0 -79 -27 -169.5t-77 -151.5q-76 -93 -183 -93q-92 0 -141.5 65t-49.5 173q0 81 27 167t75 146q79 97 191 97q94 0 139.5 -62.5t45.5 -171.5zM397 438q0 135 -77 135q-58 0 -98 -73q-32 -59 -52 -149t-20 -162q0 -140 86 -140q31 0 54 20t45 66q28 59 45 148.5
t17 154.5z" />
    <glyph glyph-name="one" unicode="1" horiz-adv-x="522" 
d="M384 -1q-72 2 -148 2q-65 0 -149 -2l9 48q75 9 84 21q11 13 19 57l40 227q19 104 19 130q0 14 -4 19.5t-16 5.5q-23 0 -65 -8l-8 43q11 5 98 42.5t126 56.5l17 -15q-24 -116 -48 -244l-46 -254q-5 -29 -5 -45q0 -20 23 -27q15 -4 64 -9z" />
    <glyph glyph-name="two" unicode="2" horiz-adv-x="522" 
d="M432 0h-441l14 71q193 122 272 211t79 168q0 98 -88 98q-76 0 -152 -65l-32 48q48 48 110 76.5t119 28.5q87 0 128.5 -42t41.5 -113q0 -51 -20.5 -99t-50 -84.5t-79 -75t-90 -64t-99.5 -59.5q89 2 306 2z" />
    <glyph glyph-name="three" unicode="3" horiz-adv-x="522" 
d="M310 352q142 -3 142 -124q0 -61 -42 -113t-104.5 -83t-128 -48t-118.5 -17q-18 0 -28 14t-10 34q0 22 4 33q71 0 120 5.5t93.5 22t67 50t22.5 84.5q0 44 -26.5 67t-73.5 23q-48 0 -81 -6l7 61q48 6 85 18q106 37 106 114q0 71 -70 71q-64 0 -136 -53l-27 53
q105 77 207 77q141 0 141 -125q0 -102 -150 -158z" />
    <glyph glyph-name="four" unicode="4" horiz-adv-x="522" 
d="M372 -27h-113l30 167h-272l11 54l362 434h101q-7 -29 -74 -402h88l-14 -85h-89zM305 223q39 215 56 287l-234 -287h178z" />
    <glyph glyph-name="five" unicode="5" horiz-adv-x="522" 
d="M196 417q254 -15 254 -183q0 -63 -37.5 -116.5t-94.5 -85.5t-120 -50t-118 -18q-50 0 -50 48q0 26 2 34q54 0 92.5 2.5t80 11.5t67 25.5t42 46t16.5 70.5q0 55 -50 88t-174 41l106 291h299l-30 -99h-245z" />
    <glyph glyph-name="six" unicode="6" horiz-adv-x="522" 
d="M191 345q24 26 62.5 41.5t76.5 15.5q82 0 121 -50t39 -120q0 -107 -68 -175.5t-169 -68.5q-102 0 -152.5 61.5t-50.5 157.5q0 95 36 174.5t98.5 135t137 93.5t162.5 61l18 -57q-131 -50 -201.5 -108.5t-109.5 -160.5zM176 268q-8 -52 -8 -76q0 -68 24 -104.5t66 -36.5
q61 0 88 47t27 121q0 110 -87 110q-31 0 -62 -17.5t-48 -43.5z" />
    <glyph glyph-name="seven" unicode="7" horiz-adv-x="522" 
d="M405 520h-331l18 102h413l7 -21l-370 -645l-68 28z" />
    <glyph glyph-name="eight" unicode="8" horiz-adv-x="522" 
d="M190 311q-69 61 -69 145q0 76 54.5 128t153.5 52q83 0 128 -39t45 -98q0 -104 -137 -157q102 -72 102 -162q0 -83 -65.5 -138.5t-168.5 -55.5q-92 0 -143 44.5t-51 112.5q0 62 37.5 102.5t113.5 65.5zM222 282q-50 -30 -73 -58.5t-23 -72.5t28.5 -73.5t75.5 -29.5
q52 0 83 25t31 69q0 37 -27.5 68t-94.5 72zM325 372q92 50 92 123q0 37 -21.5 61.5t-65.5 24.5q-48 0 -72 -25.5t-25 -65.5q0 -64 92 -118z" />
    <glyph glyph-name="nine" unicode="9" horiz-adv-x="522" 
d="M361 279q-24 -25 -62.5 -41t-76.5 -16q-82 0 -120.5 49.5t-38.5 119.5q0 109 68.5 177t169.5 68q102 0 152.5 -62t50.5 -158q0 -95 -36.5 -174.5t-100 -135t-138.5 -93.5t-163 -61l-16 58q130 50 199 108t112 161zM376 356q8 51 8 75q-1 69 -24.5 105t-65.5 36
q-60 0 -87 -47.5t-27 -120.5q0 -109 87 -109q30 0 60.5 17t48.5 44z" />
    <glyph glyph-name="colon" unicode=":" horiz-adv-x="241" 
d="M181 63q-1 -34 -20 -53.5t-51 -19.5q-29 0 -47 19.5t-18 50.5q0 30 19.5 50.5t48.5 20.5q32 0 50 -18.5t18 -49.5zM236 349q-1 -33 -20.5 -53t-51.5 -20q-29 0 -47.5 19.5t-18.5 49.5q1 31 20.5 51.5t48.5 20.5q31 0 50 -19t19 -49z" />
    <glyph glyph-name="semicolon" unicode=";" horiz-adv-x="241" 
d="M4 -194l-30 43q54 44 76 71t22 57q0 16 -15 40.5t-15 44.5q0 26 17.5 44.5t45.5 18.5q35 0 53.5 -23.5t18.5 -60.5q-1 -123 -173 -235zM236 348q-1 -33 -20.5 -52.5t-51.5 -19.5q-29 0 -47.5 19.5t-18.5 49.5q1 31 20.5 51.5t48.5 20.5q31 0 50 -19t19 -50z" />
    <glyph glyph-name="less" unicode="&#x3c;" horiz-adv-x="565" 
d="M431 61l-327 192l20 83l412 190l-21 -96l-318 -140l254 -139z" />
    <glyph glyph-name="equal" unicode="=" horiz-adv-x="565" 
d="M477 167h-424l19 82h423zM516 346h-422l17 81h425z" />
    <glyph glyph-name="greater" unicode="&#x3e;" horiz-adv-x="565" 
d="M170 526l324 -190l-18 -84l-412 -191l21 96l318 141l-253 138z" />
    <glyph glyph-name="question" unicode="?" horiz-adv-x="387" 
d="M165 201h-51q9 106 21 138q9 21 23.5 32.5t43.5 21.5q61 21 84 41.5t23 60.5q0 79 -133 79q-35 0 -61 -6q0 59 17 83q14 24 59 24q80 0 147.5 -51t67.5 -128q0 -72 -44 -118.5t-140 -83.5q-32 -13 -41 -37q-4 -12 -16 -56zM193 64q-1 -34 -20.5 -53.5t-50.5 -19.5
q-30 0 -48.5 19.5t-18.5 50.5q0 30 20 50.5t50 20.5q31 0 49.5 -19t18.5 -49z" />
    <glyph glyph-name="at" unicode="@" horiz-adv-x="715" 
d="M648 -10q-134 -120 -311 -120q-136 0 -215 79.5t-79 215.5q0 108 49.5 202.5t141 153t202.5 58.5q73 0 125.5 -23.5t78 -61.5t36 -74.5t10.5 -74.5q0 -74 -38 -139t-102 -113q-30 -22 -67 -36t-57 -14q-35 0 -35 38q0 9 3 25q-85 -64 -149 -64q-29 0 -45 21.5t-16 60.5
q0 58 35.5 125.5t87.5 114.5q45 40 105 51q29 5 81 5l10 23l59 -6l-67 -215q-19 -63 -19 -91q0 -17 10 -17q21 0 56 32q87 78 87 201q0 88 -52 136t-143 48q-138 0 -228.5 -106t-90.5 -258q0 -110 65.5 -177.5t169.5 -67.5q158 0 277 103zM396 141l56 191q3 8 3 18t-10 14
q-13 5 -30 5q-52 0 -83 -40t-48.5 -89.5t-18.5 -87.5q0 -43 30 -43q31 0 101 32z" />
    <glyph glyph-name="A" unicode="A" horiz-adv-x="670" 
d="M235 -1q-96 2 -138 2q-33 0 -125 -2l9 48q49 5 64 19q21 20 65 99l271 480h82l86 -484q14 -84 27 -98q11 -11 62 -16l-10 -48q-90 2 -139 2q-51 0 -161 -2l8 48q53 6 71 14q22 9 22 34t-8 70l-11 63h-186l-32 -62q-39 -75 -39 -87q0 -16 20 -22q19 -5 71 -10zM254 288
h147q-32 205 -33 214q-35 -71 -114 -214z" />
    <glyph glyph-name="B" unicode="B" horiz-adv-x="596" 
d="M-17 -1l9 48q49 4 63 10q12 6 17.5 18t11.5 47l72 401q5 25 5 38q0 18 -22 25q-21 7 -60 10l9 47h207q95 0 153 -9q117 -20 117 -125q0 -130 -151 -165q67 -9 103 -47.5t36 -94.5q0 -116 -115 -172q-27 -14 -80 -23t-104 -9q-19 0 -72.5 1.5t-79.5 1.5q-43 0 -119 -2z
M249 369h16q57 0 92 10q39 10 61.5 41.5t22.5 75.5q0 63 -49 78q-32 10 -106 10zM237 308l-32 -181q-4 -22 -4 -36q0 -23 18 -25q23 -4 52 -4q69 0 111.5 35t42.5 108q0 56 -34 80q-32 23 -136 23h-18z" />
    <glyph glyph-name="C" unicode="C" horiz-adv-x="646" 
d="M597 184q-16 -76 -43 -138q-9 -20 -36 -34q-55 -26 -196 -26q-128 0 -201 76t-73 205q0 181 110.5 285.5t281.5 104.5q111 0 164 -21q23 -9 23 -41q0 -73 -2 -139l-46 -3q-13 74 -23 94q-9 18 -34 31q-36 16 -85 16q-108 0 -183 -85t-75 -240q0 -106 45 -162t134 -56
q84 0 117 26q34 29 78 116z" />
    <glyph glyph-name="D" unicode="D" horiz-adv-x="680" 
d="M-18 -1l9 48q63 6 73 17q12 13 20 56l71 396q6 32 6 41q0 12 -7 19q-12 12 -75 20l9 47h158q144 0 216.5 -14t117.5 -45q86 -58 86 -199q0 -179 -108 -283t-292 -104q-10 0 -78 1t-85 1q-74 0 -121 -1zM205 126q0 -3 -2 -17t-2 -17q0 -21 22 -25q23 -4 68 -4q63 0 111 27
t75.5 73t41 101t13.5 118q0 122 -64 165q-55 36 -179 36z" />
    <glyph glyph-name="E" unicode="E" horiz-adv-x="563" 
d="M530 181q-25 -106 -49 -155q-8 -16 -22.5 -21t-46.5 -5h-429l8 47q55 4 71 16q13 11 22 63l71 392q5 27 5 44q0 16 -16 22q-20 8 -65 12l9 47h408q34 0 43 -7.5t9 -25.5q0 -51 -18 -137h-42q-7 75 -21 89q-17 20 -110 20q-20 0 -70 -2l-39 -221h7q105 0 129 18
q14 11 34 64h43q-27 -129 -41 -222h-42q0 56 -8 68q-8 10 -32 12.5t-94 2.5h-7l-30 -168q-5 -30 -5 -40q0 -11 4 -16t16 -9q29 -8 78 -8q93 0 121 24q20 18 69 103z" />
    <glyph glyph-name="F" unicode="F" horiz-adv-x="548" 
d="M287 -1q-72 2 -159 2q-61 0 -145 -2l9 48q62 6 72 16q11 10 20 61l72 395q5 23 5 40q0 20 -18 26q-20 7 -64 11l9 47h414q35 0 44.5 -8t9.5 -26q0 -35 -20 -140h-42q-8 83 -20 94q-10 9 -31.5 12t-80.5 5q-47 0 -75 -2l-40 -226h7q109 0 132 19q13 11 33 64h45
q-20 -94 -42 -229h-43q0 52 -8 68q-5 10 -29.5 13t-93.5 3h-13l-28 -158q-6 -32 -6 -52q0 -21 29 -26q18 -4 67 -7z" />
    <glyph glyph-name="G" unicode="G" horiz-adv-x="670" 
d="M648 251q-39 -6 -49 -16q-10 -12 -16 -51l-20 -115q-4 -27 -15.5 -38t-38.5 -19q-79 -26 -189 -26q-126 0 -199 75.5t-73 202.5q0 179 110 286t287 107q105 0 163 -21q24 -9 24 -40q0 -72 -4 -140l-45 -2q-13 73 -25 98q-8 16 -26 25q-31 17 -99 17q-117 0 -185.5 -95.5
t-68.5 -231.5q0 -101 44 -158t120 -57q41 0 69 9q23 8 28 17q9 14 24 107q3 19 3 32q0 19 -19 24q-16 4 -54 10l9 48q28 -2 124 -2q81 0 131 2z" />
    <glyph glyph-name="H" unicode="H" horiz-adv-x="723" 
d="M274 -1q-84 2 -146 2q-49 0 -145 -2l9 48q61 8 72 17q11 10 20 60l72 396q4 23 4 41q0 19 -17 24q-21 7 -64 11l10 48q96 -2 153 -2q49 0 139 2l-9 -48q-63 -6 -75 -18q-11 -10 -19 -54l-28 -155h267l28 152q4 24 4 40q0 19 -17 24q-21 7 -63 11l9 48q96 -2 154 -2
q52 0 138 2l-9 -48q-64 -6 -76 -18q-11 -11 -18 -54l-73 -400q-5 -30 -5 -43q0 -18 17 -24q8 -3 66 -10l-8 -48q-88 2 -147 2q-49 0 -145 -2l8 48q62 6 74 17q9 8 19 60l33 181h-268l-32 -181q-5 -30 -5 -44q0 -18 14 -22q14 -5 68 -11z" />
    <glyph glyph-name="I" unicode="I" horiz-adv-x="332" 
d="M274 -1q-84 2 -146 2q-49 0 -145 -2l9 47q64 8 72 17q12 9 21 61l71 397q4 23 4 40q0 19 -17 24q-21 7 -64 11l10 48q96 -2 147 -2q52 0 144 2l-9 -48q-62 -6 -74 -18q-11 -10 -19 -54l-72 -401q-5 -30 -5 -43q0 -19 14 -23q2 -1 68 -11z" />
    <glyph glyph-name="J" unicode="J" horiz-adv-x="318" 
d="M-40 -174l-29 39q115 101 149 266q36 174 71 386q5 37 5 42q0 22 -22 29q-20 5 -61 8l9 48q94 -2 156 -2q46 0 136 2l-9 -48q-63 -8 -73 -18q-11 -11 -19 -54q-15 -80 -35.5 -198.5t-28.5 -163.5q-19 -108 -60 -165q-25 -36 -76 -82.5t-113 -88.5z" />
    <glyph glyph-name="K" unicode="K" horiz-adv-x="654" 
d="M588 -27q-103 20 -172 101q-87 103 -160 252q91 75 193 181q43 43 43 64q0 23 -63 25l9 48q42 -2 135 -2q44 0 116 2l-9 -48q-27 -2 -57 -18q-25 -13 -62 -46q-35 -33 -93.5 -86t-91.5 -84q70 -135 120 -207t116 -145zM274 -1q-86 2 -147 2q-48 0 -144 -2l9 48
q61 6 72 16t20 60l72 397q4 23 4 39q0 21 -17 26q-21 7 -64 11l9 48q96 -2 154 -2q49 0 139 2l-9 -48q-60 -6 -76 -20q-10 -9 -19 -53l-71 -400q-5 -30 -5 -43q0 -18 15 -22q15 -5 67 -11z" />
    <glyph glyph-name="L" unicode="L" horiz-adv-x="543" 
d="M532 180q-21 -88 -51 -156q-7 -16 -21 -20t-47 -4h-430l9 47q56 4 71 15q12 10 22 65l70 388q5 30 5 46q0 20 -21 25q-27 7 -60 10l10 48q96 -2 153 -2q49 0 141 2l-9 -48q-66 -5 -78 -19q-11 -13 -18 -54l-72 -402q-4 -22 -4 -28q0 -21 20 -26q29 -8 75 -8q95 0 125 25
q3 2 6 5.5t7 8t7 8.5t7 10.5t7 11t8.5 13t8.5 14t9 16t10 16.5z" />
    <glyph glyph-name="M" unicode="M" horiz-adv-x="838" 
d="M222 -1q-80 2 -124 2q-24 0 -122 -2l8 48q64 6 74 14q10 9 27 82q61 273 87 398q3 12 3 22q0 16 -19 22q-24 7 -68 11l9 48q41 -2 120 -2q81 0 108 2q5 -40 79 -460q215 421 232 460q25 -2 111 -2q91 0 117 2l-9 -48q-65 -3 -77 -15t-18 -53q-6 -33 -46 -389
q-6 -51 -6 -62q0 -16 24 -22q13 -3 64 -8l-9 -48q-90 2 -166 2q-21 0 -137 -2l8 48q71 6 81 19q10 12 14 45q50 358 58 410q-37 -76 -272 -521h-52q-84 450 -94 509q-14 -74 -45 -224t-36 -178q-3 -14 -3 -27q0 -20 20 -24q37 -7 67 -9z" />
    <glyph glyph-name="N" unicode="N" horiz-adv-x="699" 
d="M225 -1q-94 2 -123 2q-23 0 -121 -2l9 48q65 4 76 20q8 10 22 81q55 275 64 345q9 48 9 67q0 22 -29 27q-22 5 -55 9l9 48q44 -2 112 -2q24 0 85 3q42 -79 126 -235t120 -223q36 197 52 307q8 47 8 65q0 22 -20 27q-13 4 -63 10l8 48q104 -2 132 -2q8 0 110 2l-10 -48
q-63 -9 -75 -18q-9 -9 -23 -82q-21 -103 -60 -329q-4 -21 -9.5 -53.5t-11 -68.5t-7.5 -46h-73q-11 24 -272 508q-10 -57 -23 -135.5t-24.5 -148t-12.5 -77.5q-8 -47 -8 -68q0 -12 6.5 -16.5t20.5 -7.5q29 -5 59 -7z" />
    <glyph glyph-name="O" unicode="O" horiz-adv-x="667" 
d="M654 382q0 -168 -91 -279q-45 -56 -109 -86.5t-136 -30.5q-132 0 -201 79.5t-69 205.5q0 170 107 288q43 48 105.5 72.5t128.5 24.5q129 0 197 -73.5t68 -200.5zM524 386q0 110 -34 158.5t-106 48.5q-78 0 -135 -81q-29 -42 -49.5 -114t-20.5 -141q0 -207 142 -207
q89 0 142 86q27 43 44 115t17 135z" />
    <glyph glyph-name="P" unicode="P" horiz-adv-x="576" 
d="M280 -1q-94 2 -151 2q-37 0 -147 -2l10 48q59 7 70 16q13 9 22 59l72 398q4 25 4 43t-21 23q-14 6 -60 10l10 47h214q103 0 163 -13q125 -29 125 -150q0 -76 -41 -127.5t-102.5 -72.5t-138.5 -21q-43 0 -78 5l-25 -137q-5 -32 -5 -47q0 -20 24 -25q32 -6 64 -8zM241 322
q24 -4 53 -4q73 0 117.5 38.5t44.5 114.5q0 82 -55 101q-39 14 -113 14z" />
    <glyph glyph-name="Q" unicode="Q" horiz-adv-x="667" 
d="M654 382q0 -168 -91 -279q-56 -70 -138 -99q84 -71 140 -99q86 -42 148 -58l-15 -50q-139 5 -241 60q-84 44 -195 133q-106 17 -160 93t-54 188q0 170 107 288q43 48 105.5 72.5t128.5 24.5q129 0 197 -73.5t68 -200.5zM524 384q0 111 -33 161t-105 50q-85 0 -137 -80
q-28 -42 -49 -115.5t-21 -141.5q0 -210 142 -210q89 0 143 87q26 44 43 115.5t17 133.5z" />
    <glyph glyph-name="R" unicode="R" horiz-adv-x="630" 
d="M274 -1q-94 2 -179 2q-6 0 -112 -2l9 48q65 6 76 20q9 12 17 60l71 392q4 21 4 42q0 19 -18 25q-23 6 -63 10l10 47h148q151 0 211 -13q123 -27 123 -143q0 -70 -43 -120.5t-112 -69.5q61 -141 99 -197q42 -63 71 -92l-28 -37q-92 28 -143 87q-72 80 -127 218
q-36 0 -54 2l-27 -149q-6 -33 -6 -49q0 -20 22 -24q23 -5 60 -9zM245 337q19 -3 43 -3q69 0 109.5 37t40.5 106q0 75 -49 96q-33 15 -100 15z" />
    <glyph glyph-name="S" unicode="S" horiz-adv-x="492" 
d="M78 204q23 -100 38 -118q30 -37 98 -37q121 0 121 88q0 29 -17 52.5t-56 50.5l-53 38q-63 44 -89.5 86.5t-26.5 94.5q0 95 67.5 146.5t187.5 51.5q65 0 114 -21q24 -11 24 -37q0 -61 -7 -145h-49q-7 61 -16 91q-5 22 -21 32q-30 19 -72 19q-51 0 -82 -22.5t-31 -67.5
t63 -95l55 -43q74 -59 101 -98t27 -88q0 -93 -66 -144.5t-182 -51.5q-92 0 -147 35q-25 15 -28 52q-3 30 -3 131h50z" />
    <glyph glyph-name="T" unicode="T" horiz-adv-x="605" 
d="M409 -1q-66 2 -155 2q-72 0 -148 -2l8 48q72 7 85 24q8 10 17 60l82 454q-98 0 -122 -13q-14 -8 -27.5 -33.5t-40.5 -90.5l-45 3q19 107 35 164q7 28 35 28h471q18 0 24.5 -6t6.5 -23q0 -42 -19 -161l-47 -2q-7 101 -20 116q-14 17 -129 18l-83 -451q-7 -40 -7 -53
q0 -19 18 -23q33 -8 70 -11z" />
    <glyph glyph-name="U" unicode="U" horiz-adv-x="687" 
d="M738 597q-66 -7 -77 -25q-10 -16 -17 -60l-40 -221q-16 -91 -36.5 -142.5t-53.5 -86.5q-72 -77 -217 -77q-91 0 -152 42.5t-61 136.5q0 47 17 135q7 38 21 112.5t20 109.5q5 25 5 40q0 20 -15 25q-19 8 -63 11l8 47q72 -2 160 -2q66 0 142 2l-9 -47q-72 -4 -88 -21
q-9 -10 -17 -51q-4 -21 -42 -220q-14 -81 -14 -116q0 -130 130 -130q94 0 138 52q17 20 31 56t20 62.5t19 88.5q7 36 31 199q3 24 3 45q0 20 -25 27q-20 5 -60 8l9 46q36 -1 126 -1q78 0 114 1z" />
    <glyph glyph-name="V" unicode="V" horiz-adv-x="668" 
d="M322 -4h-80l-84 489q-14 83 -28 96q-12 12 -62 15l9 48q48 -2 149 -2q100 0 154 2l-10 -48q-43 -4 -62 -10q-28 -8 -28 -32q0 -21 8 -74q10 -68 22 -145.5t19 -124.5t9 -65q8 18 33 65t66.5 124t75.5 144q34 65 34 83q0 21 -25 26q-29 7 -62 9l10 48q94 -2 133 -2
q81 0 124 2l-10 -48q-43 -3 -63 -18q-17 -14 -63 -98z" />
    <glyph glyph-name="W" unicode="W" horiz-adv-x="923" 
d="M264 -4h-80l-36 504q-5 74 -21 84q-13 8 -56 12l8 48q122 -2 149 -2q120 0 158 2l-10 -48q-42 -3 -61 -7q-22 -4 -32 -13t-10 -33q0 -37 1 -61l16 -298l223 459h74l56 -464l124 291q28 65 28 91q0 17 -21 23q-27 7 -65 12l8 48q96 -2 129 -2q54 0 122 2l-7 -48
q-52 -5 -66 -19q-4 -4 -7.5 -8.5t-6.5 -9.5t-8 -16t-9 -20t-12.5 -28.5t-16.5 -36.5l-206 -462h-82l-57 456z" />
    <glyph glyph-name="X" unicode="X" horiz-adv-x="676" 
d="M247 -1q-104 2 -150 2q-17 0 -125 -2l9 48q51 5 71 21q13 10 73 74l164 181l-95 195q-24 50 -42 64q-15 11 -54 14l9 48q120 -2 160 -2q81 0 141 2l-11 -48q-34 -2 -58 -10q-17 -6 -17 -20q0 -18 18 -57l54 -117l85 99q47 55 47 77q0 14 -18 20q-9 3 -53 8l11 48
q70 -2 127 -2q36 0 118 2l-11 -48q-32 -2 -51 -14q-14 -9 -84 -87l-142 -158l94 -191q31 -65 48 -79q19 -15 70 -20l-9 -48q-120 2 -159 2q-40 0 -156 -2l9 48q38 3 54 7q27 7 27 26q0 16 -12 42l-71 144l-114 -137q-32 -38 -32 -52q0 -16 25 -22q20 -5 58 -8z" />
    <glyph glyph-name="Y" unicode="Y" horiz-adv-x="622" 
d="M416 -1q-100 2 -150 2q-46 0 -148 -2l9 48q69 4 83 20q7 8 14 48l28 155l-97 247q-19 50 -35 64q-15 13 -57 15l8 48q108 -2 142 -2q44 0 152 2l-8 -48q-27 -1 -61 -7q-21 -5 -21 -19q0 -27 24 -94l51 -137l108 144q52 68 52 90q0 12 -14 16q-11 3 -55 7l8 48
q86 -2 130 -2q19 0 99 2l-9 -48q-28 -3 -45 -15q-22 -16 -80 -90l-175 -219l-26 -154q-4 -19 -4 -39q0 -19 21 -23q21 -5 65 -9z" />
    <glyph glyph-name="Z" unicode="Z" horiz-adv-x="595" 
d="M-9 1l6 37l438 548q-141 -2 -182.5 -5.5t-54.5 -10.5q-14 -9 -25.5 -28.5t-37.5 -77.5l-40 4q16 92 29 136q10 39 42 39h442l-6 -37l-436 -542q42 -3 103 -3q107 0 143.5 6t56.5 23q12 10 53 106l41 -4q-19 -112 -32 -156q-5 -19 -14.5 -27t-35.5 -8h-490z" />
    <glyph glyph-name="bracketleft" unicode="[" horiz-adv-x="303" 
d="M206 -168h-205l162 909h205l-8 -51h-108l-145 -806h107z" />
    <glyph glyph-name="backslash" unicode="\" horiz-adv-x="341" 
d="M227 -72l-138 782h65l139 -782h-66z" />
    <glyph glyph-name="bracketright" unicode="]" horiz-adv-x="303" 
d="M113 741h204l-162 -909h-204l8 52h109l145 806h-110z" />
    <glyph glyph-name="asciicircum" unicode="^" horiz-adv-x="567" 
d="M497 345h-85l-49 251l-162 -252h-96l233 349h87z" />
    <glyph glyph-name="underscore" unicode="_" horiz-adv-x="476" 
d="M410 -130h-478l12 55h478z" />
    <glyph glyph-name="grave" unicode="`" horiz-adv-x="286" 
d="M234 519l-35 -25l-96 112q-30 36 -30 59q0 17 15.5 30t33.5 13q14 0 24.5 -11.5t24.5 -41.5z" />
    <glyph glyph-name="a" unicode="a" horiz-adv-x="499" 
d="M481 58q-97 -67 -166 -67q-44 0 -44 53q0 14 1 25q-98 -80 -175 -80q-83 0 -83 97q0 72 31 146t84 127q67 68 179 68q40 0 59 -4l17 35l77 -13l-53 -209q-22 -85 -22 -136q0 -24 17 -24q21 0 62 17zM273 111l52 218q1 5 1 18q0 11 -10 15q-15 6 -37 6q-49 0 -82 -48
q-30 -44 -48 -101.5t-18 -98.5q0 -44 36 -44q44 0 106 35z" />
    <glyph glyph-name="b" unicode="b" horiz-adv-x="490" 
d="M199 374q87 63 163 63q90 0 90 -109q0 -58 -20.5 -123.5t-54.5 -114.5q-32 -45 -83 -73t-104 -28q-150 0 -150 116q0 35 16 106l76 343q10 51 12 79q0 14 -13 14q-15 0 -48 -7l-9 38q44 22 91.5 36.5t72.5 14.5q31 0 31 -32q0 -23 -17 -99q-42 -182 -53 -224zM189 326
l-32 -151q-11 -50 -11 -74q0 -51 59 -51q53 0 77 42q25 43 40.5 107t15.5 100q0 33 -10.5 46t-32.5 13q-45 0 -106 -32z" />
    <glyph glyph-name="c" unicode="c" horiz-adv-x="384" 
d="M347 74q-50 -40 -109.5 -63.5t-108.5 -23.5q-110 0 -110 134q0 60 24 127t62 111q66 79 168 79q57 0 85 -13q20 -9 20 -28q0 -28 -29 -67q-49 33 -104 33q-39 0 -61 -25q-22 -24 -36 -80t-14 -116q0 -74 56 -74q62 0 135 42z" />
    <glyph glyph-name="d" unicode="d" horiz-adv-x="510" 
d="M486 58q-95 -67 -166 -67q-45 0 -45 54q0 3 0.5 11t0.5 10q-97 -77 -175 -77q-85 0 -85 98q0 75 28 151.5t78 126.5q66 67 173 67q25 0 55 -4l26 122q12 55 14 83q0 14 -13 14t-48 -7l-10 38q107 51 166 51q31 0 31 -34q0 -16 -19 -98l-92 -397q-12 -48 -14 -98
q0 -26 18 -26q21 0 61 17zM277 110l48 224q3 15 3 18q0 12 -10 16t-40 4q-59 0 -89 -47q-28 -45 -42 -101.5t-14 -99.5q0 -48 37 -48q43 0 107 34z" />
    <glyph glyph-name="e" unicode="e" horiz-adv-x="399" 
d="M355 77q-54 -42 -115 -66t-103 -24q-118 0 -118 131q0 78 31.5 155t91.5 120q60 44 132 44q52 0 82 -23.5t30 -64.5q0 -64 -60 -99t-190 -57q-4 -30 -4 -55q0 -71 57 -71q66 0 144 44zM143 235q142 44 142 100q0 43 -38 43q-31 0 -56 -28q-29 -32 -48 -115z" />
    <glyph glyph-name="f" unicode="f" horiz-adv-x="313" 
d="M223 350l-56 -281q-27 -136 -64 -204q-32 -59 -86 -97.5t-124 -38.5q-18 0 -32 9.5t-14 27.5q0 32 18 60q28 -12 68 -12q36 0 57.5 16t32.5 60q8 27 42 217l43 243q-50 3 -74 7l8 45q7 2 26 5t30 6q18 4 25 29q28 124 61 174q34 53 89.5 84.5t120.5 31.5q48 0 74 -14
q15 -8 15 -25q0 -25 -29 -69q-41 27 -100 27t-82 -63q-16 -45 -30 -125l-9 -47q75 -2 109 -10l-9 -49q-43 -7 -110 -7z" />
    <glyph glyph-name="g" unicode="g" horiz-adv-x="473" 
d="M305 319q0 63 -52 63q-35 0 -55 -34q-13 -23 -22.5 -60t-9.5 -66q0 -62 50 -62q38 0 60 38q12 21 20.5 59t8.5 62zM161 115q-9 -8 -15 -19q-5 -9 -5 -16q0 -15 25 -23q42 -13 125 -34q73 -18 104.5 -48.5t31.5 -76.5q0 -80 -71.5 -128.5t-181.5 -48.5q-91 0 -151.5 35.5
t-60.5 97.5q0 40 34 69t111 51q-67 16 -67 61q0 26 21 51q19 22 53 46q-58 38 -58 112q0 86 56 139.5t147 53.5q50 0 94 -22q86 0 137 -5l-10 -61q-38 -5 -72 -5q7 -24 7 -50q-2 -84 -58.5 -134.5t-143.5 -50.5q-30 0 -52 6zM207 -61q-26 6 -36 6q-23 0 -49 -9
q-65 -26 -65 -71q0 -33 36 -58t96 -25q59 0 90 24t31 59q0 26 -23.5 43.5t-79.5 30.5z" />
    <glyph glyph-name="h" unicode="h" horiz-adv-x="486" 
d="M119 -4l-100 9l117 546q13 57 14 81q0 15 -13 15q-21 0 -48 -7l-9 38q105 51 165 51q31 0 31 -32q0 -22 -18 -102q-3 -15 -26 -109t-27 -114q92 62 167 62q77 0 77 -110q0 -57 -22 -137.5t-60 -128.5q-55 -67 -133 -67q-45 0 -45 32q0 25 18 55q25 -10 45 -10q28 0 45 18
q18 20 29.5 83t11.5 119q0 62 -40 62q-52 0 -104 -30z" />
    <glyph glyph-name="i" unicode="i" horiz-adv-x="288" 
d="M249 55q-39 -27 -89 -45.5t-77 -18.5q-43 0 -43 38q0 15 26 129l26 106q15 64 15 80q0 14 -15 14q-21 0 -48 -7l-9 37q100 50 164 50q29 0 29 -35q0 -27 -14 -80l-40 -158q-16 -61 -16 -78q0 -15 11 -15q15 0 66 20zM257 629q0 -32 -18 -53t-47 -21q-27 0 -41.5 16
t-14.5 43q0 36 19 56t48 20q26 0 40 -16.5t14 -44.5z" />
    <glyph glyph-name="j" unicode="j" horiz-adv-x="272" 
d="M41 351l-9 37q95 50 164 50q29 0 29 -35q0 -29 -10 -80l-53 -261q-27 -134 -65 -200q-74 -133 -192 -133q-43 0 -43 36q0 27 16 58q27 -11 58 -11q34 0 54 17.5t31 59.5q15 55 42 212l29 160q10 53 10 84q0 13 -12 13q-18 0 -49 -7zM260 629q0 -32 -18 -53t-48 -21
q-27 0 -41.5 16t-14.5 43q0 35 19.5 55.5t47.5 20.5q27 0 41 -16.5t14 -44.5z" />
    <glyph glyph-name="k" unicode="k" horiz-adv-x="508" 
d="M493 53q-34 -27 -74.5 -45.5t-70.5 -18.5q-41 0 -63 39q-56 97 -87 229q30 44 91 102q81 77 146 77q49 0 49 -34q0 -35 -22 -68q-20 6 -37 6q-74 0 -133 -59q29 -92 77 -174q23 -40 45 -40t64 20zM122 -4l-103 9l120 549q10 43 12 78q0 15 -13 15q-19 0 -48 -7l-9 38
q105 51 166 51q30 0 30 -32q0 -20 -17 -97q-65 -306 -138 -604z" />
    <glyph glyph-name="l" unicode="l" horiz-adv-x="265" 
d="M240 54q-38 -28 -86.5 -45.5t-76.5 -17.5q-46 0 -46 40q0 12 23 127l81 393q13 62 14 80q0 16 -14 16q-15 0 -48 -7l-9 38q107 51 165 51q31 0 31 -32q0 -23 -17 -99q-67 -312 -96 -435q-14 -56 -14 -80q0 -14 11 -14q16 0 67 20z" />
    <glyph glyph-name="m" unicode="m" horiz-adv-x="738" 
d="M137 -4l-102 9l56 258q10 46 13 81q0 14 -12 14q-17 0 -47 -7l-10 37q105 50 163 50q13 0 22 -8t9 -23q-2 -22 -5 -41q35 28 82 47q49 20 89 20q55 0 55 -53q0 -2 -0.5 -7t-0.5 -6q29 22 81 43q52 23 95 23q56 0 56 -55q0 -25 -23 -113l-27 -99q-17 -63 -17 -83
q0 -14 12 -14q15 0 65 20l13 -34q-42 -30 -89.5 -47t-75.5 -17q-43 0 -43 39q0 13 16 82l27 110q22 86 22 109q0 13 -5 18t-19 5q-45 0 -94 -33q-1 -8 -12 -51l-70 -274l-102 9l54 219q21 80 21 108q0 22 -23 22q-43 0 -97 -33z" />
    <glyph glyph-name="n" unicode="n" horiz-adv-x="513" 
d="M137 -4l-102 9l57 261q8 33 12 78q0 14 -12 14q-17 0 -47 -7l-10 37q105 50 163 50q13 0 22 -8t9 -23q0 -3 -5 -40q32 23 84 46q50 21 92 21q56 0 56 -54q0 -32 -22 -115l-27 -96q-18 -64 -18 -86q0 -14 11 -14q18 0 66 20l14 -35q-92 -63 -166 -63q-43 0 -43 40
q0 19 16 83l29 112q21 79 21 105q0 23 -23 23q-47 0 -100 -33z" />
    <glyph glyph-name="o" unicode="o" horiz-adv-x="465" 
d="M433 278q0 -129 -62 -210t-182 -81q-77 0 -121.5 46t-44.5 123q0 122 63 201.5t184 79.5q75 0 119 -43t44 -116zM324 300q0 46 -15.5 65t-46.5 19q-47 0 -76 -46q-20 -31 -36 -96.5t-16 -115.5q0 -86 64 -86q50 0 76 48q18 34 34 99.5t16 112.5z" />
    <glyph glyph-name="p" unicode="p" horiz-adv-x="503" 
d="M80 -272l-103 9l108 488q18 83 18 117q0 10 -3.5 13t-11.5 3q-16 0 -44 -7l-10 37q102 50 161 50q32 0 32 -38q0 -13 -5 -35q92 69 167 69q84 0 84 -99q0 -75 -30 -150t-82 -126q-63 -62 -168 -62q-25 0 -51 3zM214 320l-50 -227q-3 -11 -3 -16q0 -11 13 -16q15 -5 33 -5
q56 0 86 46q31 45 47.5 102t17.5 98q0 48 -42 48q-48 0 -102 -30z" />
    <glyph glyph-name="q" unicode="q" horiz-adv-x="490" 
d="M273 110l49 219q3 15 3 18q0 12 -10 15q-13 5 -37 5q-55 0 -87 -47q-29 -42 -43.5 -98t-14.5 -98q0 -48 36 -48q41 0 104 34zM295 -272l-103 9l71 320q-89 -68 -165 -68q-82 0 -82 100q0 72 30 145.5t81 127.5q64 67 182 67q15 0 55 -4l16 33l80 -14z" />
    <glyph glyph-name="r" unicode="r" horiz-adv-x="385" 
d="M137 -4l-102 9l51 235q16 73 16 98q0 20 -13 20q-15 0 -47 -7l-10 37q101 49 156 49q34 0 34 -39q0 -19 -5 -44q34 48 83 69q22 10 46 10q38 0 38 -38q0 -37 -28 -73q-21 13 -50 13q-51 0 -94 -24z" />
    <glyph glyph-name="s" unicode="s" horiz-adv-x="355" 
d="M33 115q17 -21 55.5 -37t74.5 -16q56 0 56 36q0 12 -9.5 22t-35.5 30l-62 46q-50 38 -50 100q0 64 45.5 102t126.5 38q59 0 87 -16q16 -11 16 -26q0 -26 -27 -67q-18 15 -50.5 27.5t-58.5 12.5q-21 0 -32.5 -10t-11.5 -24q0 -20 34 -46l55 -41q37 -28 52 -52.5t15 -57.5
q0 -62 -49 -105.5t-138 -43.5q-65 0 -101 25q-23 17 -23 37q1 32 31 66z" />
    <glyph glyph-name="t" unicode="t" horiz-adv-x="315" 
d="M270 54q-96 -63 -161 -63q-31 0 -47.5 14.5t-16.5 51.5q0 33 18 115l38 178q-39 1 -74 7l8 45q9 2 29.5 6.5t26.5 5.5q19 4 30 18t23 42l27 62l78 7l-25 -127q55 0 105 -10l-9 -49q-42 -7 -106 -7l-39 -183q-13 -65 -13 -78q0 -18 16 -18q20 0 78 18z" />
    <glyph glyph-name="u" unicode="u" horiz-adv-x="522" 
d="M502 54q-97 -63 -165 -63q-21 0 -32.5 14.5t-11.5 37.5q0 2 0.5 9t0.5 10q-93 -72 -177 -72q-60 0 -60 66q0 30 9 73l35 160q9 41 9 53q0 16 -11 16q-21 0 -51 -7l-10 37q40 21 87.5 35.5t70.5 14.5q35 0 35 -36q0 -26 -7 -54l-44 -188q-7 -28 -7 -52q0 -27 26 -27
q35 0 97 31l69 314l104 -6l-50 -234q-15 -73 -15 -86q0 -25 16 -25q24 0 68 16z" />
    <glyph glyph-name="v" unicode="v" horiz-adv-x="463" 
d="M47 350l-10 38q100 50 161 50q14 0 22.5 -9t8.5 -23q0 -24 -16 -97l-27 -122q-14 -59 -14 -82t22 -23q50 0 101 55q37 40 51.5 92.5t14.5 93.5q0 43 -29 72q41 39 72 39q18 0 28 -18t10 -59q-2 -124 -97 -242q-45 -55 -108.5 -90.5t-113.5 -35.5q-66 0 -66 66q0 33 13 92
l27 121q11 48 11 76q0 14 -13 14q-16 0 -48 -8z" />
    <glyph glyph-name="w" unicode="w" horiz-adv-x="683" 
d="M297 73v12q-100 -96 -177 -96q-63 0 -63 67q0 32 12 89l28 124q11 45 11 75q0 14 -11 14q-18 0 -50 -8l-10 38q94 50 162 50q30 0 30 -32q0 -24 -16 -97l-27 -122q-13 -55 -14 -81q0 -10 6.5 -17t17.5 -7q22 0 51 16.5t52 43.5l60 279l99 -4l-45 -229q-10 -53 -10 -79
q0 -27 24 -27q46 0 93 54q58 68 61 186q0 44 -30 74q41 39 73 39q20 0 28 -19q9 -27 9 -59q-2 -133 -91 -243q-45 -57 -101.5 -91t-108.5 -34q-33 0 -48 24t-15 60z" />
    <glyph glyph-name="x" unicode="x" horiz-adv-x="483" 
d="M442 56q-93 -65 -147 -65q-39 0 -52 39q-15 43 -36 127q-58 -88 -95 -126q-38 -40 -87 -40q-22 0 -34.5 11t-12.5 30q0 22 25 59q23 -9 41 -9q30 0 57 28q34 35 86 109q-16 60 -35 115q-9 26 -24 26q-25 0 -57 -13l-10 35q94 56 138 56q20 0 31 -11.5t19 -39.5
q4 -16 8.5 -31t9 -35t8.5 -33q56 80 88 111q39 38 84 38q21 0 34.5 -9t13.5 -24q0 -25 -22 -60q-18 6 -37 6q-31 0 -57 -26q-57 -57 -87 -96q20 -74 42 -130q11 -28 31 -28q23 0 60 20z" />
    <glyph glyph-name="y" unicode="y" horiz-adv-x="520" 
d="M484 426l-92 -410q-15 -68 -42 -120.5t-58.5 -84t-69 -51.5t-70.5 -27t-66 -7t-56.5 11.5t-23.5 32.5q0 32 26 69q44 -27 116 -27q40 0 65.5 24t47.5 99q5 16 34 131q-31 -29 -87 -56q-45 -20 -85 -20q-34 0 -50 17.5t-16 46.5q0 31 15 101l24 108q12 58 14 79
q0 17 -12 17q-20 0 -49 -8l-11 37q38 21 87 35.5t72 14.5q35 0 35 -33q0 -26 -15 -86l-20 -89q-24 -109 -24 -118q0 -31 27 -31q45 0 102 36l75 315z" />
    <glyph glyph-name="z" unicode="z" horiz-adv-x="437" 
d="M409 163q-12 -73 -27 -125q-11 -38 -58 -38h-330l5 36l269 332q-80 0 -108 -4q-23 -3 -39 -26q-12 -15 -34 -66l-41 7q11 59 23 101q7 26 17.5 34t39.5 8h294l-8 -42l-270 -326q126 0 163 14q15 5 28 27q13 23 33 72z" />
    <glyph glyph-name="braceleft" unicode="{" horiz-adv-x="303" 
d="M215 -175q-87 0 -128 31t-41 94q0 14 14 89q22 119 22 143q0 85 -70 91l6 39q57 6 79.5 35.5t36.5 109.5l20 112q14 83 65 124t160 41l-9 -45q-62 0 -87 -27t-39 -105l-24 -138q-11 -66 -39.5 -92t-88.5 -38q82 -20 82 -107q0 -34 -22 -146q-12 -63 -12 -90
q0 -39 18 -57.5t63 -18.5z" />
    <glyph glyph-name="bar" unicode="|" horiz-adv-x="258" 
d="M97 -174h-87l164 905h87z" />
    <glyph glyph-name="braceright" unicode="}" horiz-adv-x="303" 
d="M105 734q168 0 168 -126q0 -17 -14 -89q-22 -118 -22 -142q0 -84 70 -90l-7 -39q-57 -7 -78 -35.5t-36 -109.5l-21 -113q-15 -82 -65 -123.5t-159 -41.5l8 44q61 0 86 27t39 106l25 137q12 67 40.5 93.5t87.5 38.5q-82 19 -82 108q0 32 21 145q14 75 14 88
q0 39 -18.5 57.5t-65.5 18.5z" />
    <glyph glyph-name="asciitilde" unicode="~" horiz-adv-x="559" 
d="M105 188l-48 58q75 92 148 92q23 0 43.5 -7.5t66.5 -35.5q43 -28 69 -28q23 0 45 14t52 52l47 -56q-74 -95 -146 -95q-41 0 -90 32q-64 39 -91 39q-49 0 -96 -65z" />
    <glyph glyph-name="exclamdown" unicode="&#xa1;" horiz-adv-x="283" 
d="M115 265h51q-25 -328 -34 -399q-7 -62 -72 -62q-30 0 -46 15t-16 38q0 21 10 61q7 26 21.5 72.5t39 124.5t46.5 150zM234 416q0 -30 -19.5 -50.5t-49.5 -20.5t-49 19t-19 49q1 34 20 53.5t51 19.5q30 0 48 -19t18 -51z" />
    <glyph glyph-name="cent" unicode="&#xa2;" horiz-adv-x="460" 
d="M246 -109h-54l19 107h-13q-57 0 -92.5 39t-35.5 97q0 131 82 221q50 57 137 72l18 96h56l-19 -94q42 0 69 -11q21 -7 21 -28q-2 -28 -29 -61q-29 30 -73 35l-51 -288q44 10 98 41l21 -37q-63 -50 -132 -70zM179 150q0 -57 45 -71l54 288q-23 -4 -42 -26q-23 -27 -40 -81
t-17 -110z" />
    <glyph glyph-name="sterling" unicode="&#xa3;" horiz-adv-x="555" 
d="M487 0h-475l14 82q26 3 52 11q44 13 73 60t30 101h-96l13 64h85q0 6 -2 49t-2 63q1 96 67.5 150.5t162.5 54.5q114 0 148 -36q14 -16 14 -29q-1 -27 -41 -71q-16 28 -48.5 50.5t-74.5 22.5q-104 0 -106 -127q0 -12 1 -58t1 -69h148l-11 -64h-139q-13 -98 -117 -155
q59 1 321 3z" />
    <glyph glyph-name="currency" unicode="&#xa4;" horiz-adv-x="572" 
d="M475 58l-62 65q-53 -37 -122 -37q-73 0 -121 37l-63 -66l-62 66l64 66q-38 52 -38 124t38 125l-64 65l62 65l63 -65q51 38 121 38q68 0 122 -38l62 65l62 -65l-63 -65q37 -46 37 -125q0 -74 -37 -124l63 -66zM420 313q0 60 -36.5 99.5t-92.5 39.5q-55 0 -92.5 -39.5
t-37.5 -97.5q0 -61 36.5 -101t93.5 -40q55 0 92 40t37 99z" />
    <glyph glyph-name="yen" unicode="&#xa5;" horiz-adv-x="630" 
d="M516 183h-153l-12 -68q-3 -17 -3 -38q0 -17 20 -22q9 -2 68 -8l-9 -48q-98 2 -154 2q-45 0 -147 -2l9 48q72 4 84 20q6 7 14 48l12 68h-148l9 52h149l5 27l-15 36h-128l10 53h97l-60 146q-20 49 -34 64q-11 13 -55 15l9 47q110 -2 140 -2q44 0 150 2l-9 -47
q-45 -4 -54 -6q-27 -4 -27 -25q0 -26 25 -91l49 -125l101 133q52 69 52 91q0 12 -19 16q-12 3 -52 7l9 47q82 -2 129 -2q19 0 103 2l-10 -47q-35 -5 -49 -16q-5 -4 -13.5 -14t-35.5 -43t-52 -63l-74 -89h100l-11 -53h-131l-28 -34l-4 -29h154z" />
    <glyph glyph-name="brokenbar" unicode="&#xa6;" horiz-adv-x="258" 
d="M196 349h-86l57 321h86zM111 -113h-86l58 320h86z" />
    <glyph glyph-name="section" unicode="&#xa7;" horiz-adv-x="475" 
d="M301 109q44 -52 44 -118t-57 -121t-149 -55q-58 0 -99 24q-28 16 -28 41q1 25 34 59q22 -26 57.5 -42.5t72.5 -16.5q32 0 57.5 21.5t25.5 49.5q0 25 -17 51.5t-59 72.5l-69 74q-60 63 -60 126q2 97 125 147q-30 50 -30 97q1 62 52 113.5t141 51.5q51 0 86 -21
q29 -15 29 -36q0 -25 -39 -59q-18 24 -47.5 41.5t-60.5 17.5q-37 0 -53.5 -22t-16.5 -50q0 -46 62 -106l53 -51q77 -74 77 -140q0 -95 -131 -149zM278 142q60 29 60 68q0 24 -11 43.5t-48 57.5l-41 42q-31 31 -37 38q-53 -26 -54 -71q0 -23 9.5 -41.5t37.5 -48.5l41 -43
q34 -34 43 -45z" />
    <glyph glyph-name="dieresis" unicode="&#xa8;" horiz-adv-x="283" 
d="M127 591q-1 -29 -15.5 -46.5t-41.5 -17.5q-51 0 -51 53q0 30 16.5 47.5t42.5 17.5q49 0 49 -54zM288 591q-1 -29 -15.5 -46.5t-41.5 -17.5q-51 0 -51 53q0 30 16.5 47.5t42.5 17.5q49 0 49 -54z" />
    <glyph glyph-name="copyright" unicode="&#xa9;" horiz-adv-x="748" 
d="M530 240q-7 -44 -27 -85q-9 -18 -25 -26q-37 -16 -106 -16q-86 0 -135.5 51.5t-49.5 137.5q0 104 68.5 167t171.5 63q60 0 100 -15q15 -5 15 -33q0 -56 -3 -83l-30 -2q-10 43 -15 58q-4 11 -15 21q-20 14 -65 14q-70 -1 -107.5 -54.5t-37.5 -132.5q0 -73 30.5 -111
t81.5 -38q29 0 56 10q15 6 27 18q10 11 37 62zM719 325q0 -144 -96 -242t-235 -98q-145 0 -241.5 96.5t-96.5 240.5q0 140 97.5 237t238.5 97q139 0 236 -96.5t97 -234.5zM668 319q0 127 -79.5 212t-201.5 85t-204.5 -85t-82.5 -209t83.5 -209.5t205.5 -85.5q118 0 198.5 84
t80.5 208z" />
    <glyph glyph-name="ordfeminine" unicode="&#xaa;" horiz-adv-x="394" 
d="M424 356q-80 -53 -134 -53q-37 0 -37 44q0 10 1 15q-78 -61 -142 -61q-65 0 -65 78q0 59 24 117.5t66 99.5q56 55 142 55q15 0 49 -2l15 26l62 -12l-41 -166q-18 -75 -18 -107q0 -19 16 -19q15 0 48 14zM255 399l40 176q1 4 1 11q0 8 -9 11q-13 5 -29 5q-42 0 -65 -35
q-24 -35 -37 -80.5t-14 -78.5q0 -36 27 -36q35 0 86 27z" />
    <glyph glyph-name="guillemotleft" unicode="&#xab;" horiz-adv-x="418" 
d="M194 48l-33 -24l-136 162q-11 13 -11 26q0 18 16 30l194 158l30 -31l-140 -159zM358 48l-32 -24l-136 162q-11 13 -11 26q0 18 16 30l196 158l27 -31l-139 -159z" />
    <glyph glyph-name="logicalnot" unicode="&#xac;" horiz-adv-x="565" 
d="M451 71h-79l43 186h-344l18 84h422z" />
    <glyph glyph-name="uni00AD" unicode="&#xad;" horiz-adv-x="274" 
d="M254 279l-16 -87h-215l15 87h216z" />
    <glyph glyph-name="registered" unicode="&#xae;" horiz-adv-x="749" 
d="M362 141q-32 1 -91 1q-50 0 -86 -1l6 30q37 5 46 12q5 5 11 35l45 231q3 13 3 28q0 12 -14 15q-12 4 -36 5l6 29h110q72 0 107 -7q37 -7 56.5 -31t19.5 -58q0 -41 -26.5 -70.5t-67.5 -41.5q22 -61 59 -114q10 -16 46 -52l-21 -26q-38 17 -71 46q-51 48 -85 135
q-17 0 -43 2l-17 -87q-3 -20 -3 -27t3 -10.5t13 -5.5q6 -2 20 -4.5t17 -3.5zM344 347q11 -3 28 -3q40 0 67 20t27 62q0 40 -24 54q-22 12 -72 12zM719 325q0 -144 -96 -242t-235 -98q-145 0 -241.5 96.5t-96.5 240.5q0 140 97.5 237t238.5 97q139 0 236 -96.5t97 -234.5z
M668 319q0 127 -79.5 212t-201.5 85t-204.5 -85t-82.5 -209t83.5 -209.5t205.5 -85.5q118 0 198.5 84t80.5 208z" />
    <glyph glyph-name="macron" unicode="&#xaf;" horiz-adv-x="283" 
d="M265 524h-243l15 74h241z" />
    <glyph glyph-name="degree" unicode="&#xb0;" horiz-adv-x="319" 
d="M217 667q54 0 89.5 -33t35.5 -93q0 -57 -36.5 -91t-90.5 -34t-90 33t-36 91q0 57 37 92t91 35zM215 619q-32 0 -52 -22t-20 -56t19.5 -56t52.5 -22q35 0 55 22t20 55q0 36 -20 57.5t-55 21.5z" />
    <glyph glyph-name="plusminus" unicode="&#xb1;" horiz-adv-x="565" 
d="M310 179h-79l41 181h-173l18 79h173l42 181h77l-41 -181h172l-18 -79h-172zM454 35h-423l20 81h423z" />
    <glyph glyph-name="twosuperior" unicode="&#xb2;" 
d="M340 400h-290l7 51q132 79 184 131.5t52 99.5q0 26 -15.5 40t-42.5 14q-45 0 -102 -44l-21 36q32 30 74 48.5t78 18.5q55 0 82.5 -27t27.5 -70q0 -66 -48.5 -115t-169.5 -114q54 2 196 2z" />
    <glyph glyph-name="threesuperior" unicode="&#xb3;" 
d="M257 618q92 -3 92 -78q0 -41 -29.5 -74.5t-72.5 -52t-84 -28t-71 -9.5q-27 0 -27 28q0 16 5 28q101 0 148.5 19t47.5 76q0 27 -18 42t-47 15q-21 0 -49 -5v41q67 10 96.5 30t29.5 53q0 39 -42 39q-45 0 -92 -33l-19 37q75 49 140 49q46 0 69 -21.5t23 -51.5
q0 -75 -100 -104z" />
    <glyph glyph-name="acute" unicode="&#xb4;" horiz-adv-x="286" 
d="M82 494l-29 26l100 129q31 42 58 42q15 0 27.5 -12t12.5 -31q0 -25 -42 -57z" />
    <glyph glyph-name="mu" unicode="&#xb5;" horiz-adv-x="574" 
d="M540 58q-101 -67 -168 -67q-26 0 -36 28q-5 13 -5 43q-22 -32 -49 -48.5t-49 -16.5q-35 0 -42 18q-9 -47 -19.5 -117t-12.5 -80q-9 -49 -66 -49q-49 0 -49 44q0 27 10 62l78 380q14 74 14 84q0 16 -10 16q-13 0 -52 -8l-10 37q39 21 86 36t72 15q36 0 36 -35
q0 -20 -16 -88l-25 -106q-17 -77 -17 -98q0 -31 30 -31q32 0 93 32l70 317l104 -6l-51 -238q-10 -50 -10 -77q0 -28 15 -28q23 0 65 17z" />
    <glyph glyph-name="paragraph" unicode="&#xb6;" horiz-adv-x="529" 
d="M227 -241l-36 26q77 107 110 243q15 65 26 129l67 366q5 28 5 42q0 13 -8.5 17.5t-29.5 4.5q-35 0 -49 -12q-23 -21 -50 -168q-17 -92 -17 -126q0 -28 13 -40q12 -10 61 -16l-10 -52q-13 -2 -59 -2q-84 0 -133.5 45t-49.5 144q0 133 75 208t207 75h224l-9 -50
q-66 -6 -75 -15q-11 -13 -20 -63q-3 -16 -30 -176.5t-34 -196.5q-23 -123 -61 -202.5t-117 -180.5z" />
    <glyph glyph-name="periodcentered" unicode="&#xb7;" horiz-adv-x="206" 
d="M176 243q-1 -34 -21 -53.5t-51 -19.5q-30 0 -48.5 19.5t-18.5 50.5q0 29 20.5 50t49.5 21q31 0 50 -19.5t19 -48.5z" />
    <glyph glyph-name="cedilla" unicode="&#xb8;" horiz-adv-x="283" 
d="M52 -268l-9 45q108 31 109 73q0 21 -35 48q-16 13 -16 28q0 18 33 79h51q-20 -37 -20 -49t14 -21q53 -30 53 -70q0 -95 -180 -133z" />
    <glyph glyph-name="onesuperior" unicode="&#xb9;" 
d="M314 399q-52 2 -100 2q-52 0 -106 -2l6 38q46 4 56 14q7 5 13 36l25 142q7 41 9 63q0 18 -12 18q-19 0 -45 -4l-5 32q3 1 66.5 25t89.5 36l11 -9q-11 -51 -30 -155l-26 -148q-4 -22 -4 -26q0 -12 12 -16q6 -2 21.5 -4t24.5 -4z" />
    <glyph glyph-name="ordmasculine" unicode="&#xba;" horiz-adv-x="387" 
d="M402 529q0 -102 -50 -165.5t-147 -63.5q-62 0 -99.5 37.5t-37.5 98.5q0 98 51.5 161t150.5 63q60 0 96 -36t36 -95zM313 549q0 38 -12.5 53t-37.5 15q-36 0 -59 -36q-16 -26 -29 -77.5t-13 -91.5q0 -68 50 -68q40 0 60 37q15 25 28 77.5t13 90.5z" />
    <glyph glyph-name="guillemotright" unicode="&#xbb;" horiz-adv-x="418" 
d="M221 375l32 24l137 -163q11 -13 11 -26q0 -17 -16 -29l-196 -158l-27 32l139 157zM56 375l32 24l136 -163q11 -15 11 -26q0 -17 -16 -29l-195 -158l-27 32l138 157z" />
    <glyph glyph-name="onequarter" unicode="&#xbc;" horiz-adv-x="821" 
d="M297 -3h-55l330 639h55zM294 240q-52 2 -99 2q-52 0 -106 -2l5 38q48 5 57 14q7 6 13 36l24 142q7 41 9 63q0 18 -12 18q-5 0 -44 -3l-6 31q151 59 156 61l12 -9q-11 -47 -31 -154l-26 -148q-3 -18 -3 -27q0 -13 12 -16q5 -2 20.5 -4t24.5 -4zM696 149h60l-11 -62h-59
l-18 -105h-77l19 105h-180l7 41l236 265h68q-3 -15 -10.5 -55.5t-9.5 -52.5zM516 149h105q18 99 32 158z" />
    <glyph glyph-name="onehalf" unicode="&#xbd;" horiz-adv-x="821" 
d="M288 -3h-55l330 639h55zM285 240q-52 2 -99 2q-52 0 -106 -2l5 38q48 5 57 14q7 6 13 36l24 142q7 41 9 63q0 18 -12 18q-5 0 -44 -3l-6 31q151 59 156 61l12 -9q-11 -47 -31 -154l-26 -148q-3 -18 -3 -27q0 -13 12 -16q5 -2 20.5 -4t24.5 -4zM729 0h-290l7 51
q132 79 184 131.5t52 99.5q0 26 -15.5 40t-42.5 14q-45 0 -102 -44l-21 36q32 30 74 48.5t78 18.5q55 0 82.5 -27t27.5 -70q0 -66 -48.5 -115t-169.5 -114q54 2 196 2z" />
    <glyph glyph-name="threequarters" unicode="&#xbe;" horiz-adv-x="821" 
d="M296 -3h-55l330 639h55zM244 459q93 -1 93 -78q0 -41 -29.5 -74.5t-72.5 -52t-84 -28t-72 -9.5q-25 0 -27 28q0 19 6 28q100 0 148 19.5t48 75.5q0 27 -18 42t-47 15q-23 0 -50 -5v42q67 9 96.5 28.5t29.5 53.5q0 40 -42 40q-43 0 -92 -34l-18 37q75 49 140 49
q45 0 68.5 -21.5t23.5 -51.5q0 -73 -101 -104zM692 149h60l-11 -62h-59l-18 -105h-77l19 105h-180l7 41l236 265h68q-3 -15 -10.5 -55.5t-9.5 -52.5zM512 149h105q18 99 32 158z" />
    <glyph glyph-name="questiondown" unicode="&#xbf;" horiz-adv-x="387" 
d="M229 275h51q-8 -104 -21 -138q-8 -21 -23 -32.5t-44 -21.5q-61 -23 -84 -42.5t-23 -58.5q0 -79 134 -79q40 0 60 6q0 -60 -17 -84q-14 -23 -58 -23q-81 0 -148 50.5t-67 128.5q0 72 44 118.5t140 83.5q32 12 40 37q10 30 16 55zM339 416q0 -30 -19.5 -50.5t-49.5 -20.5
t-49 19t-19 49q1 33 20.5 53t51.5 20q30 0 47.5 -19t17.5 -51z" />
    <glyph glyph-name="Agrave" unicode="&#xc0;" horiz-adv-x="670" 
d="M235 -1q-96 2 -138 2q-33 0 -125 -2l9 48q49 5 64 19q21 20 65 99l271 480h82l86 -484q14 -84 27 -98q11 -11 62 -16l-10 -48q-90 2 -139 2q-51 0 -161 -2l8 48q53 6 71 14q22 9 22 34t-8 70l-11 63h-186l-32 -62q-39 -75 -39 -87q0 -16 20 -22q19 -5 71 -10zM254 288
h147q-32 205 -33 214q-35 -71 -114 -214zM497 710l-30 -30l-110 83q-40 30 -40 54q0 19 14.5 33.5t32.5 14.5q13 0 24 -8.5t29 -34.5z" />
    <glyph glyph-name="Aacute" unicode="&#xc1;" horiz-adv-x="670" 
d="M235 -1q-96 2 -138 2q-33 0 -125 -2l9 48q49 5 64 19q21 20 65 99l271 480h82l86 -484q14 -84 27 -98q11 -11 62 -16l-10 -48q-90 2 -139 2q-51 0 -161 -2l8 48q53 6 71 14q22 9 22 34t-8 70l-11 63h-186l-32 -62q-39 -75 -39 -87q0 -16 20 -22q19 -5 71 -10zM254 288
h147q-32 205 -33 214q-35 -71 -114 -214zM377 680l-26 31l117 109q38 36 58 36q14 0 26.5 -14.5t12.5 -34.5q0 -25 -49 -52z" />
    <glyph glyph-name="Acircumflex" unicode="&#xc2;" horiz-adv-x="670" 
d="M235 -1q-96 2 -138 2q-33 0 -125 -2l9 48q49 5 64 19q21 20 65 99l271 480h82l86 -484q14 -84 27 -98q11 -11 62 -16l-10 -48q-90 2 -139 2q-51 0 -161 -2l8 48q53 6 71 14q22 9 22 34t-8 70l-11 63h-186l-32 -62q-39 -75 -39 -87q0 -16 20 -22q19 -5 71 -10zM254 288
h147q-32 205 -33 214q-35 -71 -114 -214zM572 694l-29 -25l-109 84l-131 -83l-26 28l133 133q22 20 39 20q22 0 36 -22z" />
    <glyph glyph-name="Atilde" unicode="&#xc3;" horiz-adv-x="670" 
d="M235 -1q-96 2 -138 2q-33 0 -125 -2l9 48q49 5 64 19q21 20 65 99l271 480h82l86 -484q14 -84 27 -98q11 -11 62 -16l-10 -48q-90 2 -139 2q-51 0 -161 -2l8 48q53 6 71 14q22 9 22 34t-8 70l-11 63h-186l-32 -62q-39 -75 -39 -87q0 -16 20 -22q19 -5 71 -10zM254 288
h147q-32 205 -33 214q-35 -71 -114 -214zM317 694l-36 12q12 46 36 78t58 32q21 0 57 -15l25 -11q29 -12 49 -12q23 0 46 45l36 -12q-12 -50 -34 -80t-50 -30q-21 0 -66 17l-24 10q-29 12 -46 12q-15 0 -24.5 -9.5t-26.5 -36.5z" />
    <glyph glyph-name="Adieresis" unicode="&#xc4;" horiz-adv-x="670" 
d="M235 -1q-96 2 -138 2q-33 0 -125 -2l9 48q49 5 64 19q21 20 65 99l271 480h82l86 -484q14 -84 27 -98q11 -11 62 -16l-10 -48q-90 2 -139 2q-51 0 -161 -2l8 48q53 6 71 14q22 9 22 34t-8 70l-11 63h-186l-32 -62q-39 -75 -39 -87q0 -16 20 -22q19 -5 71 -10zM254 288
h147q-32 205 -33 214q-35 -71 -114 -214zM392 761q-1 -29 -15.5 -46.5t-41.5 -17.5q-51 0 -51 53q0 30 16.5 47.5t42.5 17.5q49 0 49 -54zM568 761q-1 -29 -15.5 -46.5t-41.5 -17.5q-51 0 -51 53q0 30 16.5 47.5t42.5 17.5q49 0 49 -54z" />
    <glyph glyph-name="Aring" unicode="&#xc5;" horiz-adv-x="670" 
d="M235 -1q-96 2 -138 2q-33 0 -125 -2l9 48q49 5 64 19q21 20 65 99l271 480h82l86 -484q14 -84 27 -98q11 -11 62 -16l-10 -48q-90 2 -139 2q-51 0 -161 -2l8 48q53 6 71 14q22 9 22 34t-8 70l-11 63h-186l-32 -62q-39 -75 -39 -87q0 -16 20 -22q19 -5 71 -10zM254 288
h147q-32 205 -33 214q-35 -71 -114 -214zM522 765q0 -42 -27 -70.5t-66 -28.5q-38 0 -62 25.5t-24 66.5t27 69t66 28q40 0 63 -24.5t23 -65.5zM477 764q0 23 -12.5 35.5t-30.5 12.5q-19 0 -33 -13.5t-14 -37.5q0 -23 11.5 -37t32.5 -14q19 0 32.5 14.5t13.5 39.5z" />
    <glyph glyph-name="AE" unicode="&#xc6;" horiz-adv-x="961" 
d="M257 -1q-94 2 -147 2q-13 0 -142 -3l9 49q45 5 67 18q38 21 100 97l293 361q21 25 23 44q0 14 -21 19q-23 5 -71 9l8 48h518q34 0 43 -8t9 -27q0 -50 -15 -137h-44q-7 77 -19 90q-20 21 -111 21q-45 0 -70 -2l-41 -225h9q64 0 89 3.5t37 14.5q12 9 35 66h43
q-10 -40 -40 -227h-43q0 60 -8 70t-31 12.5t-92 2.5h-9l-32 -171q-4 -20 -4 -31q0 -22 20 -28q34 -9 73 -9q102 0 130 28q20 18 66 104l40 -8q-29 -120 -50 -156q-8 -15 -22.5 -20.5t-45.5 -5.5h-430l8 47q63 4 73 17q14 18 26 89l15 81h-217l-57 -73q-22 -30 -36 -51
q-13 -20 -13 -33q0 -14 21 -20q17 -5 66 -10zM332 292h180l48 257q3 15 3 20q0 6 -6 6q-7 0 -13 -9q-14 -18 -41.5 -53.5t-74.5 -97t-96 -123.5z" />
    <glyph glyph-name="Ccedilla" unicode="&#xc7;" horiz-adv-x="646" 
d="M219 -278l-7 49q107 32 108 72q0 15 -8.5 25.5t-27.5 25.5q-16 12 -16 29t24 65q-115 9 -179.5 83.5t-64.5 195.5q0 181 110.5 285.5t281.5 104.5q111 0 164 -21q23 -9 23 -41q0 -73 -2 -139l-46 -3q-13 74 -23 94q-9 18 -34 31q-36 16 -85 16q-108 0 -183 -85t-75 -240
q0 -106 45 -162t134 -56q84 0 117 26q34 29 78 116l44 -9q-16 -76 -43 -138q-9 -20 -36 -34q-51 -24 -175 -26q-11 -20 -11 -33q0 -11 15 -20q54 -32 54 -73q0 -97 -182 -138z" />
    <glyph glyph-name="Egrave" unicode="&#xc8;" horiz-adv-x="563" 
d="M530 181q-25 -106 -49 -155q-8 -16 -22.5 -21t-46.5 -5h-429l8 47q55 4 71 16q13 11 22 63l71 392q5 27 5 44q0 16 -16 22q-20 8 -65 12l9 47h408q34 0 43 -7.5t9 -25.5q0 -51 -18 -137h-42q-7 75 -21 89q-17 20 -110 20q-20 0 -70 -2l-39 -221h7q105 0 129 18
q14 11 34 64h43q-27 -129 -41 -222h-42q0 56 -8 68q-8 10 -32 12.5t-94 2.5h-7l-30 -168q-5 -30 -5 -40q0 -11 4 -16t16 -9q29 -8 78 -8q93 0 121 24q20 18 69 103zM408 709l-30 -30l-110 83q-40 30 -40 54q0 19 14.5 33.5t32.5 14.5q13 0 24 -8.5t29 -34.5z" />
    <glyph glyph-name="Eacute" unicode="&#xc9;" horiz-adv-x="563" 
d="M530 181q-25 -106 -49 -155q-8 -16 -22.5 -21t-46.5 -5h-429l8 47q55 4 71 16q13 11 22 63l71 392q5 27 5 44q0 16 -16 22q-20 8 -65 12l9 47h408q34 0 43 -7.5t9 -25.5q0 -51 -18 -137h-42q-7 75 -21 89q-17 20 -110 20q-20 0 -70 -2l-39 -221h7q105 0 129 18
q14 11 34 64h43q-27 -129 -41 -222h-42q0 56 -8 68q-8 10 -32 12.5t-94 2.5h-7l-30 -168q-5 -30 -5 -40q0 -11 4 -16t16 -9q29 -8 78 -8q93 0 121 24q20 18 69 103zM302 680l-26 31l117 109q38 36 58 36q14 0 26.5 -14.5t12.5 -34.5q0 -25 -49 -52z" />
    <glyph glyph-name="Ecircumflex" unicode="&#xca;" horiz-adv-x="563" 
d="M530 181q-25 -106 -49 -155q-8 -16 -22.5 -21t-46.5 -5h-429l8 47q55 4 71 16q13 11 22 63l71 392q5 27 5 44q0 16 -16 22q-20 8 -65 12l9 47h408q34 0 43 -7.5t9 -25.5q0 -51 -18 -137h-42q-7 75 -21 89q-17 20 -110 20q-20 0 -70 -2l-39 -221h7q105 0 129 18
q14 11 34 64h43q-27 -129 -41 -222h-42q0 56 -8 68q-8 10 -32 12.5t-94 2.5h-7l-30 -168q-5 -30 -5 -40q0 -11 4 -16t16 -9q29 -8 78 -8q93 0 121 24q20 18 69 103zM497 694l-29 -25l-109 84l-131 -83l-26 28l133 133q22 20 39 20q22 0 36 -22z" />
    <glyph glyph-name="Edieresis" unicode="&#xcb;" horiz-adv-x="563" 
d="M530 181q-25 -106 -49 -155q-8 -16 -22.5 -21t-46.5 -5h-429l8 47q55 4 71 16q13 11 22 63l71 392q5 27 5 44q0 16 -16 22q-20 8 -65 12l9 47h408q34 0 43 -7.5t9 -25.5q0 -51 -18 -137h-42q-7 75 -21 89q-17 20 -110 20q-20 0 -70 -2l-39 -221h7q105 0 129 18
q14 11 34 64h43q-27 -129 -41 -222h-42q0 56 -8 68q-8 10 -32 12.5t-94 2.5h-7l-30 -168q-5 -30 -5 -40q0 -11 4 -16t16 -9q29 -8 78 -8q93 0 121 24q20 18 69 103zM330 761q-1 -29 -15.5 -46.5t-41.5 -17.5q-51 0 -51 53q0 30 16.5 47.5t42.5 17.5q49 0 49 -54zM506 761
q-1 -29 -15.5 -46.5t-41.5 -17.5q-51 0 -51 53q0 30 16.5 47.5t42.5 17.5q49 0 49 -54z" />
    <glyph glyph-name="Igrave" unicode="&#xcc;" horiz-adv-x="332" 
d="M274 -1q-84 2 -146 2q-49 0 -145 -2l9 47q64 8 72 17q12 9 21 61l71 397q4 23 4 40q0 19 -17 24q-21 7 -64 11l10 48q96 -2 147 -2q52 0 144 2l-9 -48q-62 -6 -74 -18q-11 -10 -19 -54l-72 -401q-5 -30 -5 -43q0 -19 14 -23q2 -1 68 -11zM306 709l-30 -30l-110 83
q-40 30 -40 54q0 19 14.5 33.5t32.5 14.5q13 0 24 -8.5t29 -34.5z" />
    <glyph glyph-name="Iacute" unicode="&#xcd;" horiz-adv-x="332" 
d="M274 -1q-84 2 -146 2q-49 0 -145 -2l9 47q64 8 72 17q12 9 21 61l71 397q4 23 4 40q0 19 -17 24q-21 7 -64 11l10 48q96 -2 147 -2q52 0 144 2l-9 -48q-62 -6 -74 -18q-11 -10 -19 -54l-72 -401q-5 -30 -5 -43q0 -19 14 -23q2 -1 68 -11zM205 680l-26 31l117 109
q38 36 58 36q14 0 26.5 -14.5t12.5 -34.5q0 -25 -49 -52z" />
    <glyph glyph-name="Icircumflex" unicode="&#xce;" horiz-adv-x="332" 
d="M274 -1q-84 2 -146 2q-49 0 -145 -2l9 47q64 8 72 17q12 9 21 61l71 397q4 23 4 40q0 19 -17 24q-21 7 -64 11l10 48q96 -2 147 -2q52 0 144 2l-9 -48q-62 -6 -74 -18q-11 -10 -19 -54l-72 -401q-5 -30 -5 -43q0 -19 14 -23q2 -1 68 -11zM400 694l-29 -25l-109 84
l-131 -83l-26 28l133 133q22 20 39 20q22 0 36 -22z" />
    <glyph glyph-name="Idieresis" unicode="&#xcf;" horiz-adv-x="332" 
d="M274 -1q-84 2 -146 2q-49 0 -145 -2l9 47q64 8 72 17q12 9 21 61l71 397q4 23 4 40q0 19 -17 24q-21 7 -64 11l10 48q96 -2 147 -2q52 0 144 2l-9 -48q-62 -6 -74 -18q-11 -10 -19 -54l-72 -401q-5 -30 -5 -43q0 -19 14 -23q2 -1 68 -11zM224 761q-1 -29 -15.5 -46.5
t-41.5 -17.5q-51 0 -51 53q0 30 16.5 47.5t42.5 17.5q49 0 49 -54zM400 761q-1 -29 -15.5 -46.5t-41.5 -17.5q-51 0 -51 53q0 30 16.5 47.5t42.5 17.5q49 0 49 -54z" />
    <glyph glyph-name="Eth" unicode="&#xd0;" horiz-adv-x="680" 
d="M19 303l12 58h96l28 155q6 32 6 41q0 11 -7 18q-13 13 -75 21l9 47h158q144 0 216.5 -14t117.5 -45q86 -58 86 -199q0 -179 -108 -283t-292 -104q-10 0 -78 1t-85 1q-74 0 -121 -1l9 48q63 6 73 17q12 13 20 56l33 183h-98zM205 126q0 -3 -2 -17t-2 -17q0 -21 22 -25
q23 -4 68 -4q63 0 111 27t75.5 73t41 101t13.5 118q0 122 -64 165q-55 36 -179 36l-41 -222h137l-11 -58h-137z" />
    <glyph glyph-name="Ntilde" unicode="&#xd1;" horiz-adv-x="699" 
d="M225 -1q-94 2 -123 2q-23 0 -121 -2l9 48q65 4 76 20q8 10 22 81q55 275 64 345q9 48 9 67q0 22 -29 27q-22 5 -55 9l9 48q44 -2 112 -2q24 0 85 3q42 -79 126 -235t120 -223q36 197 52 307q8 47 8 65q0 22 -20 27q-13 4 -63 10l8 48q104 -2 132 -2q8 0 110 2l-10 -48
q-63 -9 -75 -18q-9 -9 -23 -82q-21 -103 -60 -329q-4 -21 -9.5 -53.5t-11 -68.5t-7.5 -46h-73q-11 24 -272 508q-10 -57 -23 -135.5t-24.5 -148t-12.5 -77.5q-8 -47 -8 -68q0 -12 6.5 -16.5t20.5 -7.5q29 -5 59 -7zM324 694l-36 12q12 46 36 78t58 32q21 0 57 -15l25 -11
q28 -12 49 -12q23 0 46 45l36 -12q-12 -50 -34 -80t-50 -30q-21 0 -66 17l-24 10q-28 12 -46 12q-15 0 -24.5 -9.5t-26.5 -36.5z" />
    <glyph glyph-name="Ograve" unicode="&#xd2;" horiz-adv-x="667" 
d="M654 382q0 -168 -91 -279q-45 -56 -109 -86.5t-136 -30.5q-132 0 -201 79.5t-69 205.5q0 170 107 288q43 48 105.5 72.5t128.5 24.5q129 0 197 -73.5t68 -200.5zM524 386q0 110 -34 158.5t-106 48.5q-78 0 -135 -81q-29 -42 -49.5 -114t-20.5 -141q0 -207 142 -207
q89 0 142 86q27 43 44 115t17 135zM484 709l-30 -30l-110 83q-40 30 -40 54q0 19 14.5 33.5t32.5 14.5q13 0 24 -8.5t29 -34.5z" />
    <glyph glyph-name="Oacute" unicode="&#xd3;" horiz-adv-x="667" 
d="M654 382q0 -168 -91 -279q-45 -56 -109 -86.5t-136 -30.5q-132 0 -201 79.5t-69 205.5q0 170 107 288q43 48 105.5 72.5t128.5 24.5q129 0 197 -73.5t68 -200.5zM524 386q0 110 -34 158.5t-106 48.5q-78 0 -135 -81q-29 -42 -49.5 -114t-20.5 -141q0 -207 142 -207
q89 0 142 86q27 43 44 115t17 135zM359 680l-26 31l117 109q38 36 58 36q14 0 26.5 -14.5t12.5 -34.5q0 -25 -49 -52z" />
    <glyph glyph-name="Ocircumflex" unicode="&#xd4;" horiz-adv-x="667" 
d="M654 382q0 -168 -91 -279q-45 -56 -109 -86.5t-136 -30.5q-132 0 -201 79.5t-69 205.5q0 170 107 288q43 48 105.5 72.5t128.5 24.5q129 0 197 -73.5t68 -200.5zM524 386q0 110 -34 158.5t-106 48.5q-78 0 -135 -81q-29 -42 -49.5 -114t-20.5 -141q0 -207 142 -207
q89 0 142 86q27 43 44 115t17 135zM556 694l-29 -25l-109 84l-131 -83l-26 28l133 133q22 20 39 20q22 0 36 -22z" />
    <glyph glyph-name="Otilde" unicode="&#xd5;" horiz-adv-x="667" 
d="M654 382q0 -168 -91 -279q-45 -56 -109 -86.5t-136 -30.5q-132 0 -201 79.5t-69 205.5q0 170 107 288q43 48 105.5 72.5t128.5 24.5q129 0 197 -73.5t68 -200.5zM524 386q0 110 -34 158.5t-106 48.5q-78 0 -135 -81q-29 -42 -49.5 -114t-20.5 -141q0 -207 142 -207
q89 0 142 86q27 43 44 115t17 135zM294 694l-36 12q12 46 36 78t58 32q21 0 57 -15l25 -11q28 -12 49 -12q23 0 46 45l36 -12q-12 -50 -34 -80t-50 -30q-21 0 -66 17l-24 10q-28 12 -46 12q-15 0 -24.5 -9.5t-26.5 -36.5z" />
    <glyph glyph-name="Odieresis" unicode="&#xd6;" horiz-adv-x="667" 
d="M654 382q0 -168 -91 -279q-45 -56 -109 -86.5t-136 -30.5q-132 0 -201 79.5t-69 205.5q0 170 107 288q43 48 105.5 72.5t128.5 24.5q129 0 197 -73.5t68 -200.5zM524 386q0 110 -34 158.5t-106 48.5q-78 0 -135 -81q-29 -42 -49.5 -114t-20.5 -141q0 -207 142 -207
q89 0 142 86q27 43 44 115t17 135zM381 761q-1 -29 -15.5 -46.5t-41.5 -17.5q-51 0 -51 53q0 30 16.5 47.5t42.5 17.5q49 0 49 -54zM557 761q-1 -29 -15.5 -46.5t-41.5 -17.5q-51 0 -51 53q0 30 16.5 47.5t42.5 17.5q49 0 49 -54z" />
    <glyph glyph-name="multiply" unicode="&#xd7;" horiz-adv-x="571" 
d="M451 167l-63 -57l-101 132l-148 -133l-44 58l149 134l-101 132l64 58l99 -131l147 132l46 -59l-149 -134z" />
    <glyph glyph-name="Oslash" unicode="&#xd8;" horiz-adv-x="667" 
d="M82 -24l-42 37l61 71q-53 74 -53 187q0 170 107 288q43 48 105.5 72.5t128.5 24.5q98 0 163 -45l63 73l45 -39l-64 -74q58 -72 58 -189q0 -168 -91 -279q-45 -56 -109 -86.5t-136 -30.5q-110 0 -178 57zM524 384q0 52 -8 94l-312 -361q34 -69 117 -69q89 0 143 87
q26 44 43 115.5t17 133.5zM179 258q0 -39 5 -77l309 360q-34 54 -107 54q-85 0 -137 -80q-28 -42 -49 -115.5t-21 -141.5z" />
    <glyph glyph-name="Ugrave" unicode="&#xd9;" horiz-adv-x="687" 
d="M738 597q-66 -7 -77 -25q-10 -16 -17 -60l-40 -221q-16 -91 -36.5 -142.5t-53.5 -86.5q-72 -77 -217 -77q-91 0 -152 42.5t-61 136.5q0 47 17 135q7 38 21 112.5t20 109.5q5 25 5 40q0 20 -15 25q-19 8 -63 11l8 47q72 -2 160 -2q66 0 142 2l-9 -47q-72 -4 -88 -21
q-9 -10 -17 -51q-4 -21 -42 -220q-14 -81 -14 -116q0 -130 130 -130q94 0 138 52q17 20 31 56t20 62.5t19 88.5q7 36 31 199q3 24 3 45q0 20 -25 27q-20 5 -60 8l9 46q36 -1 126 -1q78 0 114 1zM493 709l-30 -30l-110 83q-40 30 -40 54q0 19 14.5 33.5t32.5 14.5
q13 0 24 -8.5t29 -34.5z" />
    <glyph glyph-name="Uacute" unicode="&#xda;" horiz-adv-x="687" 
d="M738 597q-66 -7 -77 -25q-10 -16 -17 -60l-40 -221q-16 -91 -36.5 -142.5t-53.5 -86.5q-72 -77 -217 -77q-91 0 -152 42.5t-61 136.5q0 47 17 135q7 38 21 112.5t20 109.5q5 25 5 40q0 20 -15 25q-19 8 -63 11l8 47q72 -2 160 -2q66 0 142 2l-9 -47q-72 -4 -88 -21
q-9 -10 -17 -51q-4 -21 -42 -220q-14 -81 -14 -116q0 -130 130 -130q94 0 138 52q17 20 31 56t20 62.5t19 88.5q7 36 31 199q3 24 3 45q0 20 -25 27q-20 5 -60 8l9 46q36 -1 126 -1q78 0 114 1zM396 680l-26 31l117 109q38 36 58 36q14 0 26.5 -14.5t12.5 -34.5
q0 -25 -49 -52z" />
    <glyph glyph-name="Ucircumflex" unicode="&#xdb;" horiz-adv-x="687" 
d="M738 597q-66 -7 -77 -25q-10 -16 -17 -60l-40 -221q-16 -91 -36.5 -142.5t-53.5 -86.5q-72 -77 -217 -77q-91 0 -152 42.5t-61 136.5q0 47 17 135q7 38 21 112.5t20 109.5q5 25 5 40q0 20 -15 25q-19 8 -63 11l8 47q72 -2 160 -2q66 0 142 2l-9 -47q-72 -4 -88 -21
q-9 -10 -17 -51q-4 -21 -42 -220q-14 -81 -14 -116q0 -130 130 -130q94 0 138 52q17 20 31 56t20 62.5t19 88.5q7 36 31 199q3 24 3 45q0 20 -25 27q-20 5 -60 8l9 46q36 -1 126 -1q78 0 114 1zM585 694l-29 -25l-109 84l-131 -83l-26 28l133 133q22 20 39 20q22 0 36 -22z
" />
    <glyph glyph-name="Udieresis" unicode="&#xdc;" horiz-adv-x="687" 
d="M738 597q-66 -7 -77 -25q-10 -16 -17 -60l-40 -221q-16 -91 -36.5 -142.5t-53.5 -86.5q-72 -77 -217 -77q-91 0 -152 42.5t-61 136.5q0 47 17 135q7 38 21 112.5t20 109.5q5 25 5 40q0 20 -15 25q-19 8 -63 11l8 47q72 -2 160 -2q66 0 142 2l-9 -47q-72 -4 -88 -21
q-9 -10 -17 -51q-4 -21 -42 -220q-14 -81 -14 -116q0 -130 130 -130q94 0 138 52q17 20 31 56t20 62.5t19 88.5q7 36 31 199q3 24 3 45q0 20 -25 27q-20 5 -60 8l9 46q36 -1 126 -1q78 0 114 1zM402 761q-1 -29 -15.5 -46.5t-41.5 -17.5q-51 0 -51 53q0 30 16.5 47.5
t42.5 17.5q49 0 49 -54zM578 761q-1 -29 -15.5 -46.5t-41.5 -17.5q-51 0 -51 53q0 30 16.5 47.5t42.5 17.5q49 0 49 -54z" />
    <glyph glyph-name="Yacute" unicode="&#xdd;" horiz-adv-x="622" 
d="M416 -1q-100 2 -150 2q-46 0 -148 -2l9 48q69 4 83 20q7 8 14 48l28 155l-97 247q-19 50 -35 64q-15 13 -57 15l8 48q108 -2 142 -2q44 0 152 2l-8 -48q-27 -1 -61 -7q-21 -5 -21 -19q0 -27 24 -94l51 -137l108 144q52 68 52 90q0 12 -14 16q-11 3 -55 7l8 48
q86 -2 130 -2q19 0 99 2l-9 -48q-28 -3 -45 -15q-22 -16 -80 -90l-175 -219l-26 -154q-4 -19 -4 -39q0 -19 21 -23q21 -5 65 -9zM374 680l-26 31l117 109q38 36 58 36q14 0 26.5 -14.5t12.5 -34.5q0 -25 -49 -52z" />
    <glyph glyph-name="Thorn" unicode="&#xde;" horiz-adv-x="576" 
d="M279 -1q-94 2 -150 2q-39 0 -147 -2l10 47q59 7 70 17q12 9 22 62l71 392q5 32 5 43q0 14 -5.5 19t-20.5 9q-26 6 -56 9l10 47q96 -2 155 -2q46 0 138 2l-10 -47q-67 -6 -78 -19q-8 -8 -15 -45l-3 -17q18 1 54 1q71 0 118 -12q125 -32 125 -152q0 -77 -41 -128
t-101.5 -71.5t-137.5 -20.5q-55 0 -84 4l-3 -18q-5 -27 -5 -39q0 -19 24 -25q19 -4 64 -9zM217 196q20 -3 62 -3q72 0 115 38t44 115q0 71 -57 96q-35 14 -84 14q-21 0 -32 -1z" />
    <glyph glyph-name="germandbls" unicode="&#xdf;" horiz-adv-x="568" 
d="M232 100q15 -21 46 -35.5t58 -14.5q74 0 74 56q0 34 -51 88q-60 64 -68 74q-24 28 -24 56q0 14 5 27t17.5 27t20 21.5t26.5 23.5t24 20q97 84 97 144q0 35 -20 55.5t-57 20.5q-102 0 -125 -128q-46 -259 -88 -467q-26 -131 -65 -204q-32 -60 -85.5 -98t-123.5 -38
q-18 0 -32 9.5t-14 26.5q0 28 18 61q26 -12 67 -12q37 0 58 16t33 60q16 59 42 215q9 51 19.5 111.5t17 96.5t6.5 38q-52 3 -74 7l8 45q36 8 42 9q20 4 28 11q8 8 14 37q22 95 51 141.5t73 80.5q68 51 156 51q70 0 106 -37t36 -95q0 -52 -26 -86.5t-80 -77.5
q-35 -27 -47.5 -40.5t-12.5 -26.5q0 -10 10 -23q8 -10 67 -76q32 -37 45.5 -62.5t13.5 -55.5q0 -75 -61.5 -119.5t-143.5 -44.5q-64 0 -98 22q-18 12 -18 34q1 21 35 56z" />
    <glyph glyph-name="agrave" unicode="&#xe0;" horiz-adv-x="499" 
d="M481 58q-97 -67 -166 -67q-44 0 -44 53q0 14 1 25q-98 -80 -175 -80q-83 0 -83 97q0 72 31 146t84 127q67 68 179 68q40 0 59 -4l17 35l77 -13l-53 -209q-22 -85 -22 -136q0 -24 17 -24q21 0 62 17zM273 111l52 218q1 5 1 18q0 11 -10 15q-15 6 -37 6q-49 0 -82 -48
q-30 -44 -48 -101.5t-18 -98.5q0 -44 36 -44q44 0 106 35zM361 519l-35 -25l-96 112q-30 36 -30 59q0 17 15.5 30t33.5 13q14 0 24.5 -11.5t24.5 -41.5z" />
    <glyph glyph-name="aacute" unicode="&#xe1;" horiz-adv-x="499" 
d="M481 58q-97 -67 -166 -67q-44 0 -44 53q0 14 1 25q-98 -80 -175 -80q-83 0 -83 97q0 72 31 146t84 127q67 68 179 68q40 0 59 -4l17 35l77 -13l-53 -209q-22 -85 -22 -136q0 -24 17 -24q21 0 62 17zM273 111l52 218q1 5 1 18q0 11 -10 15q-15 6 -37 6q-49 0 -82 -48
q-30 -44 -48 -101.5t-18 -98.5q0 -44 36 -44q44 0 106 35zM289 494l-29 26l100 129q19 26 31 34t27 8t27.5 -12t12.5 -31q0 -25 -42 -57z" />
    <glyph glyph-name="acircumflex" unicode="&#xe2;" horiz-adv-x="499" 
d="M481 58q-97 -67 -166 -67q-44 0 -44 53q0 14 1 25q-98 -80 -175 -80q-83 0 -83 97q0 72 31 146t84 127q67 68 179 68q40 0 59 -4l17 35l77 -13l-53 -209q-22 -85 -22 -136q0 -24 17 -24q21 0 62 17zM273 111l52 218q1 5 1 18q0 11 -10 15q-15 6 -37 6q-49 0 -82 -48
q-30 -44 -48 -101.5t-18 -98.5q0 -44 36 -44q44 0 106 35zM453 509l-33 -22l-88 103l-126 -103l-29 26l130 150q19 22 37 22q25 0 35 -22z" />
    <glyph glyph-name="atilde" unicode="&#xe3;" horiz-adv-x="499" 
d="M481 58q-97 -67 -166 -67q-44 0 -44 53q0 14 1 25q-98 -80 -175 -80q-83 0 -83 97q0 72 31 146t84 127q67 68 179 68q40 0 59 -4l17 35l77 -13l-53 -209q-22 -85 -22 -136q0 -24 17 -24q21 0 62 17zM273 111l52 218q1 5 1 18q0 11 -10 15q-15 6 -37 6q-49 0 -82 -48
q-30 -44 -48 -101.5t-18 -98.5q0 -44 36 -44q44 0 106 35zM214 512l-32 13q14 45 39.5 77.5t56.5 32.5q18 0 52 -15l23 -11q26 -13 41 -13q14 0 24 10.5t26 37.5l32 -13q-35 -111 -82 -111q-14 0 -63 18l-23 9q-28 11 -40 11q-14 0 -25.5 -10t-28.5 -36z" />
    <glyph glyph-name="adieresis" unicode="&#xe4;" horiz-adv-x="499" 
d="M481 58q-97 -67 -166 -67q-44 0 -44 53q0 14 1 25q-98 -80 -175 -80q-83 0 -83 97q0 72 31 146t84 127q67 68 179 68q40 0 59 -4l17 35l77 -13l-53 -209q-22 -85 -22 -136q0 -24 17 -24q21 0 62 17zM273 111l52 218q1 5 1 18q0 11 -10 15q-15 6 -37 6q-49 0 -82 -48
q-30 -44 -48 -101.5t-18 -98.5q0 -44 36 -44q44 0 106 35zM316 591q-1 -29 -15.5 -46.5t-41.5 -17.5q-51 0 -51 53q0 30 16.5 47.5t42.5 17.5q49 0 49 -54zM477 591q-1 -29 -15.5 -46.5t-41.5 -17.5q-51 0 -51 53q0 30 16.5 47.5t42.5 17.5q49 0 49 -54z" />
    <glyph glyph-name="aring" unicode="&#xe5;" horiz-adv-x="499" 
d="M481 58q-97 -67 -166 -67q-44 0 -44 53q0 14 1 25q-98 -80 -175 -80q-83 0 -83 97q0 72 31 146t84 127q67 68 179 68q40 0 59 -4l17 35l77 -13l-53 -209q-22 -85 -22 -136q0 -24 17 -24q21 0 62 17zM273 111l52 218q1 5 1 18q0 11 -10 15q-15 6 -37 6q-49 0 -82 -48
q-30 -44 -48 -101.5t-18 -98.5q0 -44 36 -44q44 0 106 35zM412 588q0 -42 -27 -70t-66 -28q-38 0 -62 25t-24 67q0 40 27 68t66 28q40 0 63 -24.5t23 -65.5zM367 587q0 23 -12.5 36t-30.5 13q-19 0 -33 -14t-14 -37t11.5 -37.5t32.5 -14.5q19 0 32.5 14.5t13.5 39.5z" />
    <glyph glyph-name="ae" unicode="&#xe6;" horiz-adv-x="659" 
d="M615 77q-53 -42 -114 -66t-101 -24q-97 0 -114 85q-106 -83 -189 -83q-82 0 -82 97q0 73 30 147t83 127q67 67 177 67q32 0 60 -4l17 45l73 -13l-9 -44q39 26 90 26t81 -24t30 -65q0 -64 -59.5 -98.5t-188.5 -57.5q-5 -27 -5 -56q0 -69 55 -69q67 0 145 44zM282 115
q1 23 16 102.5t23 109.5q3 18 3 21q0 11 -11 15q-13 5 -36 5q-48 0 -81 -47q-31 -44 -47.5 -101.5t-16.5 -99.5q0 -44 35 -44q46 0 115 39zM405 235q141 44 141 103q0 39 -39 39q-32 0 -54 -27q-28 -32 -48 -115z" />
    <glyph glyph-name="ccedilla" unicode="&#xe7;" horiz-adv-x="384" 
d="M41 -268l-9 45q108 31 109 73q0 21 -35 48q-16 13 -16 28q0 17 24 62q-95 10 -95 133q0 60 24 127t62 111q66 79 168 79q57 0 85 -13q20 -9 20 -28q0 -28 -29 -67q-49 33 -104 33q-39 0 -61 -25q-22 -24 -36 -80t-14 -116q0 -74 56 -74q62 0 135 42l22 -36
q-84 -67 -181 -84q-12 -21 -12 -34q0 -12 14 -21q53 -30 53 -70q0 -95 -180 -133z" />
    <glyph glyph-name="egrave" unicode="&#xe8;" horiz-adv-x="399" 
d="M355 77q-54 -42 -115 -66t-103 -24q-118 0 -118 131q0 78 31.5 155t91.5 120q60 44 132 44q52 0 82 -23.5t30 -64.5q0 -64 -60 -99t-190 -57q-4 -30 -4 -55q0 -71 57 -71q66 0 144 44zM143 235q142 44 142 100q0 43 -38 43q-31 0 -56 -28q-29 -32 -48 -115zM320 519
l-35 -25l-96 112q-30 36 -30 59q0 17 15.5 30t33.5 13q14 0 24.5 -11.5t24.5 -41.5z" />
    <glyph glyph-name="eacute" unicode="&#xe9;" horiz-adv-x="399" 
d="M355 77q-54 -42 -115 -66t-103 -24q-118 0 -118 131q0 78 31.5 155t91.5 120q60 44 132 44q52 0 82 -23.5t30 -64.5q0 -64 -60 -99t-190 -57q-4 -30 -4 -55q0 -71 57 -71q66 0 144 44zM143 235q142 44 142 100q0 43 -38 43q-31 0 -56 -28q-29 -32 -48 -115zM242 494
l-29 26l100 129q31 42 58 42q15 0 27.5 -12t12.5 -31q0 -25 -42 -57z" />
    <glyph glyph-name="ecircumflex" unicode="&#xea;" horiz-adv-x="399" 
d="M355 77q-54 -42 -115 -66t-103 -24q-118 0 -118 131q0 78 31.5 155t91.5 120q60 44 132 44q52 0 82 -23.5t30 -64.5q0 -64 -60 -99t-190 -57q-4 -30 -4 -55q0 -71 57 -71q66 0 144 44zM143 235q142 44 142 100q0 43 -38 43q-31 0 -56 -28q-29 -32 -48 -115zM412 509
l-33 -22l-88 103l-126 -103l-29 26l130 150q19 22 37 22q25 0 35 -22z" />
    <glyph glyph-name="edieresis" unicode="&#xeb;" horiz-adv-x="399" 
d="M355 77q-54 -42 -115 -66t-103 -24q-118 0 -118 131q0 78 31.5 155t91.5 120q60 44 132 44q52 0 82 -23.5t30 -64.5q0 -64 -60 -99t-190 -57q-4 -30 -4 -55q0 -71 57 -71q66 0 144 44zM143 235q142 44 142 100q0 43 -38 43q-31 0 -56 -28q-29 -32 -48 -115zM276 591
q-1 -29 -15.5 -46.5t-41.5 -17.5q-51 0 -51 53q0 30 16.5 47.5t42.5 17.5q49 0 49 -54zM437 591q-1 -29 -15.5 -46.5t-41.5 -17.5q-51 0 -51 53q0 30 16.5 47.5t42.5 17.5q49 0 49 -54z" />
    <glyph glyph-name="igrave" unicode="&#xec;" horiz-adv-x="288" 
d="M232 519l-35 -25l-96 112q-30 36 -30 59q0 17 15.5 30t33.5 13q14 0 24.5 -11.5t24.5 -41.5zM251 55q-39 -27 -88.5 -45.5t-76.5 -18.5q-44 0 -44 38q0 16 25 129l24 106q12 58 12 81q0 13 -13 13q-21 0 -48 -7l-9 37q98 50 163 50q30 0 30 -35q0 -25 -13 -80l-38 -158
q-16 -69 -16 -78q0 -15 12 -15q15 0 65 20z" />
    <glyph glyph-name="iacute" unicode="&#xed;" horiz-adv-x="288" 
d="M146 494l-29 26l100 129q31 42 58 42q15 0 27.5 -12t12.5 -31q0 -25 -42 -57zM251 55q-39 -27 -88.5 -45.5t-76.5 -18.5q-44 0 -44 38q0 16 25 129l24 106q12 58 12 81q0 13 -13 13q-21 0 -48 -7l-9 37q98 50 163 50q30 0 30 -35q0 -25 -13 -80l-38 -158q-16 -69 -16 -78
q0 -15 12 -15q15 0 65 20z" />
    <glyph glyph-name="icircumflex" unicode="&#xee;" horiz-adv-x="288" 
d="M251 55q-39 -27 -88.5 -45.5t-76.5 -18.5q-44 0 -44 38q0 16 25 129l24 106q12 58 12 81q0 13 -13 13q-21 0 -48 -7l-9 37q98 50 163 50q30 0 30 -35q0 -25 -13 -80l-38 -158q-16 -69 -16 -78q0 -15 12 -15q15 0 65 20zM314 509l-33 -22l-88 103l-126 -103l-29 26
l130 150q19 22 37 22q25 0 35 -22z" />
    <glyph glyph-name="idieresis" unicode="&#xef;" horiz-adv-x="288" 
d="M166 591q-1 -29 -15.5 -46.5t-41.5 -17.5q-51 0 -51 53q0 30 16.5 47.5t42.5 17.5q49 0 49 -54zM327 591q-1 -29 -15.5 -46.5t-41.5 -17.5q-51 0 -51 53q0 30 16.5 47.5t42.5 17.5q49 0 49 -54zM251 55q-39 -27 -88.5 -45.5t-76.5 -18.5q-44 0 -44 38q0 16 25 129l24 106
q12 58 12 81q0 13 -13 13q-21 0 -48 -7l-9 37q98 50 163 50q30 0 30 -35q0 -25 -13 -80l-38 -158q-16 -69 -16 -78q0 -15 12 -15q15 0 65 20z" />
    <glyph glyph-name="eth" unicode="&#xf0;" horiz-adv-x="465" 
d="M421 630l-77 -43q91 -126 91 -286q0 -138 -60.5 -226t-186.5 -88q-77 0 -121 46.5t-44 122.5q0 119 59 194.5t174 75.5q49 0 69 -19q-14 66 -61 134l-124 -68l-23 48l114 63q-61 74 -138 108l22 52q114 -33 195 -115l86 48zM323 291q0 84 -62 84q-48 0 -78 -46
q-19 -31 -34 -93t-15 -112q0 -84 65 -84q49 0 75 46q18 33 33.5 96t15.5 109z" />
    <glyph glyph-name="ntilde" unicode="&#xf1;" horiz-adv-x="513" 
d="M137 -4l-102 9l57 261q8 33 12 78q0 14 -12 14q-17 0 -47 -7l-10 37q105 50 163 50q13 0 22 -8t9 -23q0 -3 -5 -40q32 23 84 46q50 21 92 21q56 0 56 -54q0 -32 -22 -115l-27 -96q-18 -64 -18 -86q0 -14 11 -14q18 0 66 20l14 -35q-92 -63 -166 -63q-43 0 -43 40
q0 19 16 83l29 112q21 79 21 105q0 23 -23 23q-47 0 -100 -33zM193 512l-32 13q14 45 39.5 77.5t56.5 32.5q18 0 52 -15l23 -11q26 -13 41 -13q14 0 24 10.5t26 37.5l32 -13q-35 -111 -82 -111q-14 0 -63 18l-23 9q-28 11 -40 11q-14 0 -25.5 -10t-28.5 -36z" />
    <glyph glyph-name="ograve" unicode="&#xf2;" horiz-adv-x="465" 
d="M433 278q0 -129 -62 -210t-182 -81q-77 0 -121.5 46t-44.5 123q0 122 63 201.5t184 79.5q75 0 119 -43t44 -116zM324 300q0 46 -15.5 65t-46.5 19q-47 0 -76 -46q-20 -31 -36 -96.5t-16 -115.5q0 -86 64 -86q50 0 76 48q18 34 34 99.5t16 112.5zM324 519l-35 -25l-96 112
q-30 36 -30 59q0 17 15.5 30t33.5 13q14 0 24.5 -11.5t24.5 -41.5z" />
    <glyph glyph-name="oacute" unicode="&#xf3;" horiz-adv-x="465" 
d="M433 278q0 -129 -62 -210t-182 -81q-77 0 -121.5 46t-44.5 123q0 122 63 201.5t184 79.5q75 0 119 -43t44 -116zM324 300q0 46 -15.5 65t-46.5 19q-47 0 -76 -46q-20 -31 -36 -96.5t-16 -115.5q0 -86 64 -86q50 0 76 48q18 34 34 99.5t16 112.5zM245 494l-29 26l100 129
q19 26 31 34t27 8t27.5 -12t12.5 -31q0 -25 -42 -57z" />
    <glyph glyph-name="ocircumflex" unicode="&#xf4;" horiz-adv-x="465" 
d="M433 278q0 -129 -62 -210t-182 -81q-77 0 -121.5 46t-44.5 123q0 122 63 201.5t184 79.5q75 0 119 -43t44 -116zM324 300q0 46 -15.5 65t-46.5 19q-47 0 -76 -46q-20 -31 -36 -96.5t-16 -115.5q0 -86 64 -86q50 0 76 48q18 34 34 99.5t16 112.5zM418 509l-33 -22l-88 103
l-126 -103l-29 26l130 150q19 22 37 22q25 0 35 -22z" />
    <glyph glyph-name="otilde" unicode="&#xf5;" horiz-adv-x="465" 
d="M433 278q0 -129 -62 -210t-182 -81q-77 0 -121.5 46t-44.5 123q0 122 63 201.5t184 79.5q75 0 119 -43t44 -116zM324 300q0 46 -15.5 65t-46.5 19q-47 0 -76 -46q-20 -31 -36 -96.5t-16 -115.5q0 -86 64 -86q50 0 76 48q18 34 34 99.5t16 112.5zM178 512l-32 13
q14 45 39.5 77.5t56.5 32.5q18 0 52 -15l23 -11q26 -13 41 -13q14 0 24 10.5t26 37.5l32 -13q-35 -111 -82 -111q-14 0 -63 18l-23 9q-28 11 -40 11q-14 0 -25.5 -10t-28.5 -36z" />
    <glyph glyph-name="odieresis" unicode="&#xf6;" horiz-adv-x="465" 
d="M433 278q0 -129 -62 -210t-182 -81q-77 0 -121.5 46t-44.5 123q0 122 63 201.5t184 79.5q75 0 119 -43t44 -116zM324 300q0 46 -15.5 65t-46.5 19q-47 0 -76 -46q-20 -31 -36 -96.5t-16 -115.5q0 -86 64 -86q50 0 76 48q18 34 34 99.5t16 112.5zM283 591
q-1 -29 -15.5 -46.5t-41.5 -17.5q-51 0 -51 53q0 30 16.5 47.5t42.5 17.5q49 0 49 -54zM444 591q-1 -29 -15.5 -46.5t-41.5 -17.5q-51 0 -51 53q0 30 16.5 47.5t42.5 17.5q49 0 49 -54z" />
    <glyph glyph-name="divide" unicode="&#xf7;" horiz-adv-x="565" 
d="M387 453q0 -26 -18.5 -44t-43.5 -18q-22 0 -35.5 15t-12.5 38q0 28 18 47t44 19q48 0 48 -57zM500 256h-423l18 84h422zM316 147q0 -26 -17.5 -44t-43.5 -18q-22 0 -35.5 14.5t-13.5 37.5q1 29 18.5 48.5t44.5 19.5q23 0 35.5 -15.5t11.5 -42.5z" />
    <glyph glyph-name="oslash" unicode="&#xf8;" horiz-adv-x="465" 
d="M42 -41l-39 35l49 57q-29 43 -29 105q0 122 63 201.5t184 79.5q55 0 93 -23l51 59l40 -33l-52 -61q31 -40 31 -101q0 -129 -62 -210t-182 -81q-57 0 -100 27zM277 88q18 31 33.5 95.5t17.5 109.5l-189 -220q15 -33 57 -33q54 0 81 48zM183 338q-18 -30 -34 -88t-19 -108
l186 216q-15 26 -53 26q-52 0 -80 -46z" />
    <glyph glyph-name="ugrave" unicode="&#xf9;" horiz-adv-x="522" 
d="M502 54q-97 -63 -165 -63q-21 0 -32.5 14.5t-11.5 37.5q0 2 0.5 9t0.5 10q-93 -72 -177 -72q-60 0 -60 66q0 30 9 73l35 160q9 41 9 53q0 16 -11 16q-21 0 -51 -7l-10 37q40 21 87.5 35.5t70.5 14.5q35 0 35 -36q0 -26 -7 -54l-44 -188q-7 -28 -7 -52q0 -27 26 -27
q35 0 97 31l69 314l104 -6l-50 -234q-15 -73 -15 -86q0 -25 16 -25q24 0 68 16zM350 519l-35 -25l-96 112q-30 36 -30 59q0 17 15.5 30t33.5 13q14 0 24.5 -11.5t24.5 -41.5z" />
    <glyph glyph-name="uacute" unicode="&#xfa;" horiz-adv-x="522" 
d="M502 54q-97 -63 -165 -63q-21 0 -32.5 14.5t-11.5 37.5q0 2 0.5 9t0.5 10q-93 -72 -177 -72q-60 0 -60 66q0 30 9 73l35 160q9 41 9 53q0 16 -11 16q-21 0 -51 -7l-10 37q40 21 87.5 35.5t70.5 14.5q35 0 35 -36q0 -26 -7 -54l-44 -188q-7 -28 -7 -52q0 -27 26 -27
q35 0 97 31l69 314l104 -6l-50 -234q-15 -73 -15 -86q0 -25 16 -25q24 0 68 16zM273 494l-29 26l100 129q19 26 31 34t27 8t27.5 -12t12.5 -31q0 -25 -42 -57z" />
    <glyph glyph-name="ucircumflex" unicode="&#xfb;" horiz-adv-x="522" 
d="M502 54q-97 -63 -165 -63q-21 0 -32.5 14.5t-11.5 37.5q0 2 0.5 9t0.5 10q-93 -72 -177 -72q-60 0 -60 66q0 30 9 73l35 160q9 41 9 53q0 16 -11 16q-21 0 -51 -7l-10 37q40 21 87.5 35.5t70.5 14.5q35 0 35 -36q0 -26 -7 -54l-44 -188q-7 -28 -7 -52q0 -27 26 -27
q35 0 97 31l69 314l104 -6l-50 -234q-15 -73 -15 -86q0 -25 16 -25q24 0 68 16zM443 509l-33 -22l-88 103l-126 -103l-29 26l130 150q19 22 37 22q25 0 35 -22z" />
    <glyph glyph-name="udieresis" unicode="&#xfc;" horiz-adv-x="522" 
d="M502 54q-97 -63 -165 -63q-21 0 -32.5 14.5t-11.5 37.5q0 2 0.5 9t0.5 10q-93 -72 -177 -72q-60 0 -60 66q0 30 9 73l35 160q9 41 9 53q0 16 -11 16q-21 0 -51 -7l-10 37q40 21 87.5 35.5t70.5 14.5q35 0 35 -36q0 -26 -7 -54l-44 -188q-7 -28 -7 -52q0 -27 26 -27
q35 0 97 31l69 314l104 -6l-50 -234q-15 -73 -15 -86q0 -25 16 -25q24 0 68 16zM291 591q-1 -29 -15.5 -46.5t-41.5 -17.5q-51 0 -51 53q0 30 16.5 47.5t42.5 17.5q49 0 49 -54zM452 591q-1 -29 -15.5 -46.5t-41.5 -17.5q-51 0 -51 53q0 30 16.5 47.5t42.5 17.5q49 0 49 -54
z" />
    <glyph glyph-name="yacute" unicode="&#xfd;" horiz-adv-x="520" 
d="M484 426l-92 -410q-15 -68 -42 -120.5t-58.5 -84t-69 -51.5t-70.5 -27t-66 -7t-56.5 11.5t-23.5 32.5q0 32 26 69q44 -27 116 -27q40 0 65.5 24t47.5 99q5 16 34 131q-31 -29 -87 -56q-45 -20 -85 -20q-34 0 -50 17.5t-16 46.5q0 31 15 101l24 108q12 58 14 79
q0 17 -12 17q-20 0 -49 -8l-11 37q38 21 87 35.5t72 14.5q35 0 35 -33q0 -26 -15 -86l-20 -89q-24 -109 -24 -118q0 -31 27 -31q45 0 102 36l75 315zM279 494l-29 26l100 129q19 26 31 34t27 8t27.5 -12t12.5 -31q0 -25 -42 -57z" />
    <glyph glyph-name="thorn" unicode="&#xfe;" horiz-adv-x="487" 
d="M65 -272l-102 9l178 815q12 53 12 80q0 15 -12 15q-17 0 -48 -7l-9 38q109 51 164 51q31 0 31 -33q0 -27 -16 -98q-5 -20 -23 -100t-30 -131q86 67 164 67q83 0 83 -99q0 -73 -29 -149.5t-80 -126.5q-64 -63 -165 -63q-23 0 -55 5zM199 319l-49 -225q-2 -10 -2 -16
q0 -13 10 -17q15 -5 33 -5q60 0 90 46q31 45 46 102t15 98q0 48 -39 48q-49 0 -104 -31z" />
    <glyph glyph-name="ydieresis" unicode="&#xff;" horiz-adv-x="520" 
d="M484 426l-92 -410q-15 -68 -42 -120.5t-58.5 -84t-69 -51.5t-70.5 -27t-66 -7t-56.5 11.5t-23.5 32.5q0 32 26 69q44 -27 116 -27q40 0 65.5 24t47.5 99q5 16 34 131q-31 -29 -87 -56q-45 -20 -85 -20q-34 0 -50 17.5t-16 46.5q0 31 15 101l24 108q12 58 14 79
q0 17 -12 17q-20 0 -49 -8l-11 37q38 21 87 35.5t72 14.5q35 0 35 -33q0 -26 -15 -86l-20 -89q-24 -109 -24 -118q0 -31 27 -31q45 0 102 36l75 315zM287 591q-1 -29 -15.5 -46.5t-41.5 -17.5q-51 0 -51 53q0 30 16.5 47.5t42.5 17.5q49 0 49 -54zM448 591
q-1 -29 -15.5 -46.5t-41.5 -17.5q-51 0 -51 53q0 30 16.5 47.5t42.5 17.5q49 0 49 -54z" />
    <glyph glyph-name="Amacron" unicode="&#x100;" horiz-adv-x="670" 
d="M235 -1q-96 2 -138 2q-33 0 -125 -2l9 48q49 5 64 19q21 20 65 99l271 480h82l86 -484q14 -84 27 -98q11 -11 62 -16l-10 -48q-90 2 -139 2q-51 0 -161 -2l8 48q53 6 71 14q22 9 22 34t-8 70l-11 63h-186l-32 -62q-39 -75 -39 -87q0 -16 20 -22q19 -5 71 -10zM254 288
h147q-32 205 -33 214q-35 -71 -114 -214zM559 713h-263l14 76h263z" />
    <glyph glyph-name="amacron" unicode="&#x101;" horiz-adv-x="499" 
d="M481 58q-97 -67 -166 -67q-44 0 -44 53q0 14 1 25q-98 -80 -175 -80q-83 0 -83 97q0 72 31 146t84 127q67 68 179 68q40 0 59 -4l17 35l77 -13l-53 -209q-22 -85 -22 -136q0 -24 17 -24q21 0 62 17zM273 111l52 218q1 5 1 18q0 11 -10 15q-15 6 -37 6q-49 0 -82 -48
q-30 -44 -48 -101.5t-18 -98.5q0 -44 36 -44q44 0 106 35zM443 524h-243l15 74h241z" />
    <glyph glyph-name="Abreve" unicode="&#x102;" horiz-adv-x="670" 
d="M235 -1q-96 2 -138 2q-33 0 -125 -2l9 48q49 5 64 19q21 20 65 99l271 480h82l86 -484q14 -84 27 -98q11 -11 62 -16l-10 -48q-90 2 -139 2q-51 0 -161 -2l8 48q53 6 71 14q22 9 22 34t-8 70l-11 63h-186l-32 -62q-39 -75 -39 -87q0 -16 20 -22q19 -5 71 -10zM254 288
h147q-32 205 -33 214q-35 -71 -114 -214zM544 848l48 -2q-11 -73 -55 -114t-107 -41q-55 0 -87.5 30t-32.5 93q0 18 3 31l43 3q2 -38 23.5 -60t59.5 -22q78 0 105 82z" />
    <glyph glyph-name="abreve" unicode="&#x103;" horiz-adv-x="499" 
d="M481 58q-97 -67 -166 -67q-44 0 -44 53q0 14 1 25q-98 -80 -175 -80q-83 0 -83 97q0 72 31 146t84 127q67 68 179 68q40 0 59 -4l17 35l77 -13l-53 -209q-22 -85 -22 -136q0 -24 17 -24q21 0 62 17zM273 111l52 218q1 5 1 18q0 11 -10 15q-15 6 -37 6q-49 0 -82 -48
q-30 -44 -48 -101.5t-18 -98.5q0 -44 36 -44q44 0 106 35zM428 651l44 -2q-10 -73 -49.5 -113.5t-99.5 -40.5q-52 0 -82 30.5t-30 93.5q0 2 3 29l41 3q2 -36 21 -58t54 -22q72 0 98 80z" />
    <glyph glyph-name="Aogonek" unicode="&#x104;" horiz-adv-x="670" 
d="M235 -1q-96 2 -138 2q-33 0 -125 -2l9 48q49 5 64 19q21 20 65 99l271 480h82l86 -484q14 -84 27 -98q11 -11 62 -16l-10 -48q-70 2 -111 2q-56 -54 -79 -86.5t-23 -64.5q0 -48 45 -48q32 0 70 11l13 -41q-58 -35 -114 -35q-43 0 -67 25.5t-24 62.5q0 45 30 84.5t97 91.5
q-45 0 -137 -2l8 48q53 6 71 14q22 9 22 34t-8 70l-11 63h-186l-32 -62q-39 -75 -39 -87q0 -16 20 -22q19 -5 71 -10zM254 288h147q-32 205 -33 214q-35 -71 -114 -214z" />
    <glyph glyph-name="aogonek" unicode="&#x105;" horiz-adv-x="499" 
d="M482 58q-51 -37 -110 -57q-53 -50 -75.5 -83t-23.5 -64q0 -47 45 -47q37 0 68 11l12 -40q-54 -35 -111 -35q-42 0 -64.5 25t-22.5 61q0 42 26 78.5t84 83.5q-38 3 -38 53q0 14 1 25q-98 -80 -175 -80q-83 0 -83 97q0 73 30 147t82 126q67 68 179 68q40 0 59 -4l17 35
l77 -13l-51 -209q-21 -88 -21 -136q0 -24 17 -24q21 0 62 17zM274 111l49 218q1 5 1 18q0 11 -10 15q-15 6 -37 6q-49 0 -82 -48q-30 -43 -46.5 -100t-16.5 -100q0 -44 36 -44q44 0 106 35z" />
    <glyph glyph-name="Cacute" unicode="&#x106;" horiz-adv-x="646" 
d="M597 184q-16 -76 -43 -138q-9 -20 -36 -34q-55 -26 -196 -26q-128 0 -201 76t-73 205q0 181 110.5 285.5t281.5 104.5q111 0 164 -21q23 -9 23 -41q0 -73 -2 -139l-46 -3q-13 74 -23 94q-9 18 -34 31q-36 16 -85 16q-108 0 -183 -85t-75 -240q0 -106 45 -162t134 -56
q84 0 117 26q34 29 78 116zM388 680l-26 31l117 109q38 36 58 36q14 0 26.5 -14.5t12.5 -34.5q0 -25 -49 -52z" />
    <glyph glyph-name="cacute" unicode="&#x107;" horiz-adv-x="384" 
d="M347 74q-50 -40 -109.5 -63.5t-108.5 -23.5q-110 0 -110 134q0 60 24 127t62 111q66 79 168 79q57 0 85 -13q20 -9 20 -28q0 -28 -29 -67q-49 33 -104 33q-39 0 -61 -25q-22 -24 -36 -80t-14 -116q0 -74 56 -74q62 0 135 42zM242 494l-29 26l100 129q31 42 58 42
q15 0 27.5 -12t12.5 -31q0 -25 -42 -57z" />
    <glyph glyph-name="Ccircumflex" unicode="&#x108;" horiz-adv-x="646" 
d="M597 184q-16 -76 -43 -138q-9 -20 -36 -34q-55 -26 -196 -26q-128 0 -201 76t-73 205q0 181 110.5 285.5t281.5 104.5q111 0 164 -21q23 -9 23 -41q0 -73 -2 -139l-46 -3q-13 74 -23 94q-9 18 -34 31q-36 16 -85 16q-108 0 -183 -85t-75 -240q0 -106 45 -162t134 -56
q84 0 117 26q34 29 78 116zM574 694l-29 -25l-109 84l-131 -83l-26 28l133 133q22 20 39 20q22 0 36 -22z" />
    <glyph glyph-name="ccircumflex" unicode="&#x109;" horiz-adv-x="384" 
d="M347 74q-50 -40 -109.5 -63.5t-108.5 -23.5q-110 0 -110 134q0 60 24 127t62 111q66 79 168 79q57 0 85 -13q20 -9 20 -28q0 -28 -29 -67q-49 33 -104 33q-39 0 -61 -25q-22 -24 -36 -80t-14 -116q0 -74 56 -74q62 0 135 42zM415 509l-33 -22l-88 103l-126 -103l-29 26
l130 150q19 22 37 22q25 0 35 -22z" />
    <glyph glyph-name="Cdotaccent" unicode="&#x10a;" horiz-adv-x="646" 
d="M597 184q-16 -76 -43 -138q-9 -20 -36 -34q-55 -26 -196 -26q-128 0 -201 76t-73 205q0 181 110.5 285.5t281.5 104.5q111 0 164 -21q23 -9 23 -41q0 -73 -2 -139l-46 -3q-13 74 -23 94q-9 18 -34 31q-36 16 -85 16q-108 0 -183 -85t-75 -240q0 -106 45 -162t134 -56
q84 0 117 26q34 29 78 116zM492 761q-1 -29 -15.5 -46.5t-41.5 -17.5q-51 0 -51 53q0 30 16.5 47.5t42.5 17.5q49 0 49 -54z" />
    <glyph glyph-name="cdotaccent" unicode="&#x10b;" horiz-adv-x="384" 
d="M347 74q-50 -40 -109.5 -63.5t-108.5 -23.5q-110 0 -110 134q0 60 24 127t62 111q66 79 168 79q57 0 85 -13q20 -9 20 -28q0 -28 -29 -67q-49 33 -104 33q-39 0 -61 -25q-22 -24 -36 -80t-14 -116q0 -74 56 -74q62 0 135 42zM350 591q-1 -29 -15.5 -46.5t-41.5 -17.5
q-51 0 -51 53q0 30 16.5 47.5t42.5 17.5q49 0 49 -54z" />
    <glyph glyph-name="Ccaron" unicode="&#x10c;" horiz-adv-x="646" 
d="M597 184q-16 -76 -43 -138q-9 -20 -36 -34q-55 -26 -196 -26q-128 0 -201 76t-73 205q0 181 110.5 285.5t281.5 104.5q111 0 164 -21q23 -9 23 -41q0 -73 -2 -139l-46 -3q-13 74 -23 94q-9 18 -34 31q-36 16 -85 16q-108 0 -183 -85t-75 -240q0 -106 45 -162t134 -56
q84 0 117 26q34 29 78 116zM302 838l29 25l110 -84l130 84l25 -29l-134 -132q-21 -21 -37 -21q-23 0 -35 20z" />
    <glyph glyph-name="ccaron" unicode="&#x10d;" horiz-adv-x="384" 
d="M347 74q-50 -40 -109.5 -63.5t-108.5 -23.5q-110 0 -110 134q0 60 24 127t62 111q66 79 168 79q57 0 85 -13q20 -9 20 -28q0 -28 -29 -67q-49 33 -104 33q-39 0 -61 -25q-22 -24 -36 -80t-14 -116q0 -74 56 -74q62 0 135 42zM150 661l32 22l89 -104l125 104l31 -26
l-131 -150q-20 -21 -38 -21q-25 0 -35 21z" />
    <glyph glyph-name="Dcaron" unicode="&#x10e;" horiz-adv-x="680" 
d="M-18 -1l9 48q63 6 73 17q12 13 20 56l71 396q6 32 6 41q0 12 -7 19q-12 12 -75 20l9 47h158q144 0 216.5 -14t117.5 -45q86 -58 86 -199q0 -179 -108 -283t-292 -104q-10 0 -78 1t-85 1q-74 0 -121 -1zM205 126q0 -3 -2 -17t-2 -17q0 -21 22 -25q23 -4 68 -4q63 0 111 27
t75.5 73t41 101t13.5 118q0 122 -64 165q-55 36 -179 36zM240 838l29 25l110 -84l130 84l25 -29l-134 -132q-21 -21 -37 -21q-23 0 -35 20z" />
    <glyph glyph-name="dcaron" unicode="&#x10f;" horiz-adv-x="510" 
d="M486 58q-95 -67 -166 -67q-38 0 -43 38q-3 16 -1 37q-97 -77 -175 -77q-85 0 -85 98q0 75 28 151.5t78 126.5q66 67 173 67q25 0 55 -4l26 122q12 55 14 83q0 14 -13 14t-48 -7l-10 38q107 51 166 51q31 0 31 -34q0 -16 -19 -98l-92 -397q-12 -48 -14 -98q0 -26 18 -26
q21 0 61 17zM277 110l48 224q3 15 3 18q0 10 -10 16q-13 4 -40 4q-59 0 -89 -47q-28 -45 -42 -101.5t-14 -99.5q0 -48 37 -48q43 0 107 34zM547 506l-23 34q70 54 70 93q0 17 -9 33t-9 32q0 20 13 33.5t35 13.5q54 0 54 -64q0 -90 -131 -175z" />
    <glyph glyph-name="Dcroat" unicode="&#x110;" horiz-adv-x="680" 
d="M19 303l12 58h96l28 155q6 32 6 41q0 11 -7 18q-13 13 -75 21l9 47h158q144 0 216.5 -14t117.5 -45q86 -58 86 -199q0 -179 -108 -283t-292 -104q-10 0 -78 1t-85 1q-74 0 -121 -1l9 48q63 6 73 17q12 13 20 56l33 183h-98zM205 126q0 -3 -2 -17t-2 -17q0 -21 22 -25
q23 -4 68 -4q63 0 111 27t75.5 73t41 101t13.5 118q0 122 -64 165q-55 36 -179 36l-41 -222h137l-11 -58h-137z" />
    <glyph glyph-name="dcroat" unicode="&#x111;" horiz-adv-x="510" 
d="M559 554l-13 -56h-72l-69 -298q-12 -48 -14 -98q0 -26 18 -26q21 0 61 17l16 -35q-95 -67 -166 -67q-45 0 -45 56q0 3 0.5 10t0.5 9q-97 -77 -175 -77q-85 0 -85 98q0 75 28 151.5t78 126.5q66 67 173 67q25 0 55 -4l15 70h-135l12 56h135q11 45 13 79q0 14 -13 14
t-48 -7l-10 38q107 51 166 51q31 0 31 -34q0 -16 -19 -98l-10 -43h72zM277 110l48 224q3 15 3 18q0 10 -10 16q-13 4 -40 4q-59 0 -89 -47q-28 -45 -42 -101.5t-14 -99.5q0 -48 37 -48q43 0 107 34z" />
    <glyph glyph-name="Emacron" unicode="&#x112;" horiz-adv-x="563" 
d="M530 181q-25 -106 -49 -155q-8 -16 -22.5 -21t-46.5 -5h-429l8 47q55 4 71 16q13 11 22 63l71 392q5 27 5 44q0 16 -16 22q-20 8 -65 12l9 47h408q34 0 43 -7.5t9 -25.5q0 -51 -18 -137h-42q-7 75 -21 89q-17 20 -110 20q-20 0 -70 -2l-39 -221h7q105 0 129 18
q14 11 34 64h43q-27 -129 -41 -222h-42q0 56 -8 68q-8 10 -32 12.5t-94 2.5h-7l-30 -168q-5 -30 -5 -40q0 -11 4 -16t16 -9q29 -8 78 -8q93 0 121 24q20 18 69 103zM482 713h-263l14 76h263z" />
    <glyph glyph-name="emacron" unicode="&#x113;" horiz-adv-x="399" 
d="M355 77q-54 -42 -115 -66t-103 -24q-118 0 -118 131q0 78 31.5 155t91.5 120q60 44 132 44q52 0 82 -23.5t30 -64.5q0 -64 -60 -99t-190 -57q-4 -30 -4 -55q0 -71 57 -71q66 0 144 44zM143 235q142 44 142 100q0 43 -38 43q-31 0 -56 -28q-29 -32 -48 -115zM394 524h-243
l15 74h241z" />
    <glyph glyph-name="Ebreve" unicode="&#x114;" horiz-adv-x="563" 
d="M530 181q-25 -106 -49 -155q-8 -16 -22.5 -21t-46.5 -5h-429l8 47q55 4 71 16q13 11 22 63l71 392q5 27 5 44q0 16 -16 22q-20 8 -65 12l9 47h408q34 0 43 -7.5t9 -25.5q0 -51 -18 -137h-42q-7 75 -21 89q-17 20 -110 20q-20 0 -70 -2l-39 -221h7q105 0 129 18
q14 11 34 64h43q-27 -129 -41 -222h-42q0 56 -8 68q-8 10 -32 12.5t-94 2.5h-7l-30 -168q-5 -30 -5 -40q0 -11 4 -16t16 -9q29 -8 78 -8q93 0 121 24q20 18 69 103zM459 848l48 -2q-11 -73 -55 -114t-107 -41q-55 0 -87.5 30t-32.5 93q0 18 3 31l43 3q2 -38 23.5 -60
t59.5 -22q78 0 105 82z" />
    <glyph glyph-name="ebreve" unicode="&#x115;" horiz-adv-x="399" 
d="M355 77q-54 -42 -115 -66t-103 -24q-118 0 -118 131q0 78 31.5 155t91.5 120q60 44 132 44q52 0 82 -23.5t30 -64.5q0 -64 -60 -99t-190 -57q-4 -30 -4 -55q0 -71 57 -71q66 0 144 44zM143 235q142 44 142 100q0 43 -38 43q-31 0 -56 -28q-29 -32 -48 -115zM377 651
l44 -2q-10 -73 -49.5 -113.5t-99.5 -40.5q-52 0 -82 30.5t-30 93.5q0 2 3 29l41 3q2 -36 21 -58t54 -22q72 0 98 80z" />
    <glyph glyph-name="Edotaccent" unicode="&#x116;" horiz-adv-x="563" 
d="M530 181q-25 -106 -49 -155q-8 -16 -22.5 -21t-46.5 -5h-429l8 47q55 4 71 16q13 11 22 63l71 392q5 27 5 44q0 16 -16 22q-20 8 -65 12l9 47h408q34 0 43 -7.5t9 -25.5q0 -51 -18 -137h-42q-7 75 -21 89q-17 20 -110 20q-20 0 -70 -2l-39 -221h7q105 0 129 18
q14 11 34 64h43q-27 -129 -41 -222h-42q0 56 -8 68q-8 10 -32 12.5t-94 2.5h-7l-30 -168q-5 -30 -5 -40q0 -11 4 -16t16 -9q29 -8 78 -8q93 0 121 24q20 18 69 103zM407 761q-1 -29 -15.5 -46.5t-41.5 -17.5q-51 0 -51 53q0 30 16.5 47.5t42.5 17.5q49 0 49 -54z" />
    <glyph glyph-name="edotaccent" unicode="&#x117;" horiz-adv-x="399" 
d="M355 77q-54 -42 -115 -66t-103 -24q-118 0 -118 131q0 78 31.5 155t91.5 120q60 44 132 44q52 0 82 -23.5t30 -64.5q0 -64 -60 -99t-190 -57q-4 -30 -4 -55q0 -71 57 -71q66 0 144 44zM143 235q142 44 142 100q0 43 -38 43q-31 0 -56 -28q-29 -32 -48 -115zM343 591
q-1 -29 -15.5 -46.5t-41.5 -17.5q-51 0 -51 53q0 30 16.5 47.5t42.5 17.5q49 0 49 -54z" />
    <glyph glyph-name="Eogonek" unicode="&#x118;" horiz-adv-x="563" 
d="M530 181q-25 -106 -49 -155q-12 -25 -51 -26q-55 -53 -78 -85.5t-23 -64.5q0 -48 45 -48q32 0 70 11l13 -41q-58 -35 -114 -35q-43 0 -67 25.5t-24 62.5q0 45 30 85t96 90h-395l8 47q55 4 71 16q13 11 22 63l71 392q5 27 5 44q0 16 -16 22q-20 8 -65 12l9 47h408
q34 0 43 -7.5t9 -25.5q0 -51 -18 -137h-42q-7 75 -21 89q-17 20 -110 20q-20 0 -70 -2l-39 -221h7q105 0 129 18q14 11 34 64h43q-27 -129 -41 -222h-42q0 56 -8 68q-8 10 -32 12.5t-94 2.5h-7l-30 -168q-5 -30 -5 -40q0 -11 4 -16t16 -9q29 -8 78 -8q93 0 121 24
q20 18 69 103z" />
    <glyph glyph-name="eogonek" unicode="&#x119;" horiz-adv-x="399" 
d="M355 77q-67 -53 -145 -77q-53 -51 -75 -83.5t-23 -62.5q0 -47 45 -47q37 0 68 11l12 -40q-54 -35 -111 -35q-42 0 -64.5 25t-22.5 61q0 41 25 77t80 81h-7q-118 0 -118 131q0 78 31.5 155t91.5 120q60 44 132 44q52 0 82 -23.5t30 -64.5q0 -64 -60 -99t-190 -57
q-4 -30 -4 -55q0 -71 57 -71q66 0 144 44zM143 235q142 44 142 100q0 43 -38 43q-31 0 -56 -28q-29 -32 -48 -115z" />
    <glyph glyph-name="Ecaron" unicode="&#x11a;" horiz-adv-x="563" 
d="M530 181q-25 -106 -49 -155q-8 -16 -22.5 -21t-46.5 -5h-429l8 47q55 4 71 16q13 11 22 63l71 392q5 27 5 44q0 16 -16 22q-20 8 -65 12l9 47h408q34 0 43 -7.5t9 -25.5q0 -51 -18 -137h-42q-7 75 -21 89q-17 20 -110 20q-20 0 -70 -2l-39 -221h7q105 0 129 18
q14 11 34 64h43q-27 -129 -41 -222h-42q0 56 -8 68q-8 10 -32 12.5t-94 2.5h-7l-30 -168q-5 -30 -5 -40q0 -11 4 -16t16 -9q29 -8 78 -8q93 0 121 24q20 18 69 103zM214 838l29 25l110 -84l130 84l25 -29l-134 -132q-21 -21 -37 -21q-23 0 -35 20z" />
    <glyph glyph-name="ecaron" unicode="&#x11b;" horiz-adv-x="399" 
d="M355 77q-54 -42 -115 -66t-103 -24q-118 0 -118 131q0 78 31.5 155t91.5 120q60 44 132 44q52 0 82 -23.5t30 -64.5q0 -64 -60 -99t-190 -57q-4 -30 -4 -55q0 -71 57 -71q66 0 144 44zM143 235q142 44 142 100q0 43 -38 43q-31 0 -56 -28q-29 -32 -48 -115zM153 661
l32 22l89 -104l125 104l31 -26l-131 -150q-19 -21 -38 -21q-25 0 -35 21z" />
    <glyph glyph-name="Gcircumflex" unicode="&#x11c;" horiz-adv-x="670" 
d="M648 251q-39 -6 -49 -16q-10 -12 -16 -51l-20 -115q-4 -27 -15.5 -38t-38.5 -19q-79 -26 -189 -26q-126 0 -199 75.5t-73 202.5q0 179 110 286t287 107q105 0 163 -21q24 -9 24 -40q0 -72 -4 -140l-45 -2q-13 73 -25 98q-8 16 -26 25q-31 17 -99 17q-117 0 -185.5 -95.5
t-68.5 -231.5q0 -101 44 -158t120 -57q41 0 69 9q23 8 28 17q9 14 24 107q3 19 3 32q0 19 -19 24q-16 4 -54 10l9 48q28 -2 124 -2q81 0 131 2zM587 694l-29 -25l-109 84l-131 -83l-26 28l133 133q22 20 39 20q22 0 36 -22z" />
    <glyph glyph-name="gcircumflex" unicode="&#x11d;" horiz-adv-x="473" 
d="M305 319q0 63 -52 63q-35 0 -55 -34q-13 -23 -22.5 -60t-9.5 -66q0 -62 50 -62q38 0 60 38q12 21 20.5 59t8.5 62zM161 115q-9 -8 -15 -19q-5 -9 -5 -16q0 -15 25 -23q42 -13 125 -34q73 -18 104.5 -48.5t31.5 -76.5q0 -80 -71.5 -128.5t-181.5 -48.5q-91 0 -151.5 35.5
t-60.5 97.5q0 40 34 69t111 51q-67 16 -67 61q0 26 21 51q19 22 53 46q-58 38 -58 112q0 86 56 139.5t147 53.5q50 0 94 -22q86 0 137 -5l-10 -61q-38 -5 -72 -5q7 -24 7 -50q-2 -84 -58.5 -134.5t-143.5 -50.5q-30 0 -52 6zM207 -61q-26 6 -36 6q-23 0 -49 -9
q-65 -26 -65 -71q0 -33 36 -58t96 -25q59 0 90 24t31 59q0 26 -23.5 43.5t-79.5 30.5zM415 509l-33 -22l-88 103l-126 -103l-29 26l130 150q19 22 37 22q25 0 35 -22z" />
    <glyph glyph-name="Gbreve" unicode="&#x11e;" horiz-adv-x="670" 
d="M648 251q-39 -6 -49 -16q-10 -12 -16 -51l-20 -115q-4 -27 -15.5 -38t-38.5 -19q-79 -26 -189 -26q-126 0 -199 75.5t-73 202.5q0 179 110 286t287 107q105 0 163 -21q24 -9 24 -40q0 -72 -4 -140l-45 -2q-13 73 -25 98q-8 16 -26 25q-31 17 -99 17q-117 0 -185.5 -95.5
t-68.5 -231.5q0 -101 44 -158t120 -57q41 0 69 9q23 8 28 17q9 14 24 107q3 19 3 32q0 19 -19 24q-16 4 -54 10l9 48q28 -2 124 -2q81 0 131 2zM550 848l48 -2q-11 -73 -55 -114t-107 -41q-55 0 -87.5 30t-32.5 93q0 18 3 31l43 3q2 -38 23.5 -60t59.5 -22q78 0 105 82z" />
    <glyph glyph-name="gbreve" unicode="&#x11f;" horiz-adv-x="473" 
d="M305 319q0 63 -52 63q-35 0 -55 -34q-13 -23 -22.5 -60t-9.5 -66q0 -62 50 -62q38 0 60 38q12 21 20.5 59t8.5 62zM161 115q-9 -8 -15 -19q-5 -9 -5 -16q0 -15 25 -23q42 -13 125 -34q73 -18 104.5 -48.5t31.5 -76.5q0 -80 -71.5 -128.5t-181.5 -48.5q-91 0 -151.5 35.5
t-60.5 97.5q0 40 34 69t111 51q-67 16 -67 61q0 26 21 51q19 22 53 46q-58 38 -58 112q0 86 56 139.5t147 53.5q50 0 94 -22q86 0 137 -5l-10 -61q-38 -5 -72 -5q7 -24 7 -50q-2 -84 -58.5 -134.5t-143.5 -50.5q-30 0 -52 6zM207 -61q-26 6 -36 6q-23 0 -49 -9
q-65 -26 -65 -71q0 -33 36 -58t96 -25q59 0 90 24t31 59q0 26 -23.5 43.5t-79.5 30.5zM382 651l44 -2q-10 -73 -49.5 -113.5t-99.5 -40.5q-52 0 -82 30.5t-30 93.5q0 2 3 29l41 3q2 -36 21 -58t54 -22q72 0 98 80z" />
    <glyph glyph-name="Gdotaccent" unicode="&#x120;" horiz-adv-x="670" 
d="M648 251q-39 -6 -49 -16q-10 -12 -16 -51l-20 -115q-4 -27 -15.5 -38t-38.5 -19q-79 -26 -189 -26q-126 0 -199 75.5t-73 202.5q0 179 110 286t287 107q105 0 163 -21q24 -9 24 -40q0 -72 -4 -140l-45 -2q-13 73 -25 98q-8 16 -26 25q-31 17 -99 17q-117 0 -185.5 -95.5
t-68.5 -231.5q0 -101 44 -158t120 -57q41 0 69 9q23 8 28 17q9 14 24 107q3 19 3 32q0 19 -19 24q-16 4 -54 10l9 48q28 -2 124 -2q81 0 131 2zM503 761q-1 -29 -15.5 -46.5t-41.5 -17.5q-51 0 -51 53q0 30 16.5 47.5t42.5 17.5q49 0 49 -54z" />
    <glyph glyph-name="gdotaccent" unicode="&#x121;" horiz-adv-x="473" 
d="M305 319q0 63 -52 63q-35 0 -55 -34q-13 -23 -22.5 -60t-9.5 -66q0 -62 50 -62q38 0 60 38q12 21 20.5 59t8.5 62zM161 115q-9 -8 -15 -19q-5 -9 -5 -16q0 -15 25 -23q42 -13 125 -34q73 -18 104.5 -48.5t31.5 -76.5q0 -80 -71.5 -128.5t-181.5 -48.5q-91 0 -151.5 35.5
t-60.5 97.5q0 40 34 69t111 51q-67 16 -67 61q0 26 21 51q19 22 53 46q-58 38 -58 112q0 86 56 139.5t147 53.5q50 0 94 -22q86 0 137 -5l-10 -61q-38 -5 -72 -5q7 -24 7 -50q-2 -84 -58.5 -134.5t-143.5 -50.5q-30 0 -52 6zM207 -61q-26 6 -36 6q-23 0 -49 -9
q-65 -26 -65 -71q0 -33 36 -58t96 -25q59 0 90 24t31 59q0 26 -23.5 43.5t-79.5 30.5zM354 591q-1 -29 -15.5 -46.5t-41.5 -17.5q-51 0 -51 53q0 30 16.5 47.5t42.5 17.5q49 0 49 -54z" />
    <glyph glyph-name="Gcommaaccent" unicode="&#x122;" horiz-adv-x="670" 
d="M648 251q-39 -6 -49 -16q-10 -12 -16 -51l-20 -115q-4 -27 -15.5 -38t-38.5 -19q-79 -26 -189 -26q-126 0 -199 75.5t-73 202.5q0 179 110 286t287 107q105 0 163 -21q24 -9 24 -40q0 -72 -4 -140l-45 -2q-13 73 -25 98q-8 16 -26 25q-31 17 -99 17q-117 0 -185.5 -95.5
t-68.5 -231.5q0 -101 44 -158t120 -57q41 0 69 9q23 8 28 17q9 14 24 107q3 19 3 32q0 19 -19 24q-16 4 -54 10l9 48q28 -2 124 -2q81 0 131 2zM268 -299l-24 33q73 54 73 94q0 17 -9 33t-9 32q0 20 13 33.5t36 13.5q57 0 57 -64q0 -91 -137 -175z" />
    <glyph glyph-name="gcommaaccent" unicode="&#x123;" horiz-adv-x="473" 
d="M364 746l23 -35q-72 -54 -72 -92q0 -17 10 -33t10 -32q0 -19 -14 -33.5t-35 -14.5q-55 0 -55 64q1 92 133 176zM305 322q0 32 -12.5 46t-39.5 14q-34 0 -55 -35q-32 -52 -32 -125q0 -62 50 -62q39 0 59 38q12 22 21 61t9 63zM161 115q-9 -8 -15 -19q-5 -9 -5 -16
q0 -15 25 -23q42 -13 125 -34q73 -18 104.5 -48.5t31.5 -76.5q0 -80 -71.5 -128.5t-181.5 -48.5q-91 0 -151.5 35.5t-60.5 97.5q0 40 34 69t111 51q-67 16 -67 61q0 26 21 51q19 22 53 46q-58 38 -58 112q0 86 56 139.5t147 53.5q50 0 94 -22q86 0 137 -5l-10 -61
q-38 -5 -72 -5q7 -24 7 -50q-2 -84 -58.5 -134.5t-143.5 -50.5q-30 0 -52 6zM207 -61q-26 6 -36 6q-23 0 -49 -9q-65 -26 -65 -71q0 -33 36 -58t96 -25q59 0 90 24t31 59q0 26 -23.5 44t-79.5 30z" />
    <glyph glyph-name="Hcircumflex" unicode="&#x124;" horiz-adv-x="723" 
d="M274 -1q-84 2 -146 2q-49 0 -145 -2l9 48q61 8 72 17q11 10 20 60l72 396q4 23 4 41q0 19 -17 24q-21 7 -64 11l10 48q96 -2 153 -2q49 0 139 2l-9 -48q-63 -6 -75 -18q-11 -10 -19 -54l-28 -155h267l28 152q4 24 4 40q0 19 -17 24q-21 7 -63 11l9 48q96 -2 154 -2
q52 0 138 2l-9 -48q-64 -6 -76 -18q-11 -11 -18 -54l-73 -400q-5 -30 -5 -43q0 -18 17 -24q8 -3 66 -10l-8 -48q-88 2 -147 2q-49 0 -145 -2l8 48q62 6 74 17q9 8 19 60l33 181h-268l-32 -181q-5 -30 -5 -44q0 -18 14 -22q14 -5 68 -11zM599 694l-29 -25l-109 84l-131 -83
l-26 28l133 133q22 20 39 20q22 0 36 -22z" />
    <glyph glyph-name="hcircumflex" unicode="&#x125;" horiz-adv-x="486" 
d="M119 -4l-100 9l117 546q13 57 14 81q0 15 -13 15q-21 0 -48 -7l-9 38q105 51 164 51q31 0 31 -32q0 -19 -17 -102q-3 -15 -26 -109t-27 -114q92 62 167 62q77 0 77 -110q0 -57 -22 -137.5t-60 -128.5q-55 -67 -133 -67q-45 0 -45 32q0 25 18 55q25 -10 45 -10q28 0 45 18
q18 20 29.5 83t11.5 119q0 62 -40 62q-52 0 -104 -30zM373 739l-29 -25l-109 84l-131 -83l-26 28l133 133q22 20 39 20q22 0 36 -22z" />
    <glyph glyph-name="Hbar" unicode="&#x126;" horiz-adv-x="723" 
d="M733 433h-83l-56 -309q-5 -30 -5 -43q0 -18 17 -24q8 -3 66 -10l-8 -48q-88 2 -147 2q-49 0 -145 -2l8 48q62 6 74 17q10 9 19 60l33 181h-268l-32 -181q-5 -30 -5 -44q0 -18 14 -22q13 -5 68 -11l-9 -48q-84 2 -146 2q-49 0 -145 -2l9 48q61 8 72 17q11 10 20 60l56 309
h-85l11 61h85l5 26q4 23 4 41q0 19 -17 24q-21 7 -64 11l10 48q96 -2 153 -2q49 0 139 2l-9 -48q-63 -6 -75 -18q-11 -10 -19 -54l-6 -30h268l5 27q4 24 4 40q0 19 -17 24q-21 7 -63 11l9 48q96 -2 154 -2q52 0 138 2l-9 -48q-64 -6 -76 -18q-11 -11 -18 -54l-6 -30h83z
M250 369h267l12 64h-268z" />
    <glyph glyph-name="hbar" unicode="&#x127;" horiz-adv-x="486" 
d="M380 554l-12 -56h-134q-23 -95 -29 -126q92 62 167 62q77 0 77 -110q0 -57 -22 -137.5t-60 -128.5q-55 -67 -133 -67q-45 0 -45 32q0 25 18 55q25 -10 45 -10q28 0 45 18q18 20 29.5 83t11.5 119q0 62 -40 62q-52 0 -104 -30l-75 -324l-100 9l106 493h-74l12 56h74
q11 50 13 78q0 15 -13 15q-21 0 -48 -7l-9 38q105 51 164 51q31 0 31 -32q0 -35 -17 -101l-11 -42h133z" />
    <glyph glyph-name="Itilde" unicode="&#x128;" horiz-adv-x="332" 
d="M274 -1q-84 2 -146 2q-49 0 -145 -2l9 47q64 8 72 17q12 9 21 61l71 397q4 23 4 40q0 19 -17 24q-21 7 -64 11l10 48q96 -2 147 -2q52 0 144 2l-9 -48q-62 -6 -74 -18q-11 -10 -19 -54l-72 -401q-5 -30 -5 -43q0 -19 14 -23q2 -1 68 -11zM135 694l-36 12q12 46 36 78
t58 32q21 0 57 -15l25 -11q29 -12 49 -12q23 0 46 45l36 -12q-12 -50 -34 -80t-50 -30q-21 0 -66 17l-24 10q-28 12 -46 12q-15 0 -24.5 -9.5t-26.5 -36.5z" />
    <glyph glyph-name="itilde" unicode="&#x129;" horiz-adv-x="288" 
d="M76 512l-32 13q14 45 39.5 77.5t56.5 32.5q18 0 52 -15l23 -11q26 -13 41 -13q14 0 24 10.5t26 37.5l32 -13q-35 -111 -82 -111q-14 0 -63 18l-23 9q-28 11 -40 11q-14 0 -25.5 -10t-28.5 -36zM251 55q-39 -27 -88.5 -45.5t-76.5 -18.5q-44 0 -44 38q0 16 25 129l24 106
q12 58 12 81q0 13 -13 13q-21 0 -48 -7l-9 37q98 50 163 50q30 0 30 -35q0 -25 -13 -80l-38 -158q-16 -69 -16 -78q0 -15 12 -15q15 0 65 20z" />
    <glyph glyph-name="Imacron" unicode="&#x12a;" horiz-adv-x="332" 
d="M274 -1q-84 2 -146 2q-49 0 -145 -2l9 47q64 8 72 17q12 9 21 61l71 397q4 23 4 40q0 19 -17 24q-21 7 -64 11l10 48q96 -2 147 -2q52 0 144 2l-9 -48q-62 -6 -74 -18q-11 -10 -19 -54l-72 -401q-5 -30 -5 -43q0 -19 14 -23q2 -1 68 -11zM371 738h-243l15 74h241z" />
    <glyph glyph-name="imacron" unicode="&#x12b;" horiz-adv-x="288" 
d="M304 524h-243l15 74h241zM251 55q-39 -27 -88.5 -45.5t-76.5 -18.5q-44 0 -44 38q0 16 25 129l24 106q12 58 12 81q0 13 -13 13q-21 0 -48 -7l-9 37q98 50 163 50q30 0 30 -35q0 -25 -13 -80l-38 -158q-16 -69 -16 -78q0 -15 12 -15q15 0 65 20z" />
    <glyph glyph-name="Ibreve" unicode="&#x12c;" horiz-adv-x="332" 
d="M274 -1q-84 2 -146 2q-49 0 -145 -2l9 47q64 8 72 17q12 9 21 61l71 397q4 23 4 40q0 19 -17 24q-21 7 -64 11l10 48q96 -2 147 -2q52 0 144 2l-9 -48q-62 -6 -74 -18q-11 -10 -19 -54l-72 -401q-5 -30 -5 -43q0 -19 14 -23q2 -1 68 -11zM360 848l48 -2q-11 -73 -55 -114
t-107 -41q-55 0 -87.5 30t-32.5 93q0 18 3 31l43 3q2 -38 23.5 -60t59.5 -22q78 0 105 82z" />
    <glyph glyph-name="ibreve" unicode="&#x12d;" horiz-adv-x="288" 
d="M280 651l44 -2q-10 -73 -49.5 -113.5t-99.5 -40.5q-52 0 -82 30.5t-30 93.5q0 2 3 29l41 3q2 -36 21 -58t54 -22q72 0 98 80zM251 55q-39 -27 -88.5 -45.5t-76.5 -18.5q-44 0 -44 38q0 16 25 129l24 106q12 58 12 81q0 13 -13 13q-21 0 -48 -7l-9 37q98 50 163 50
q30 0 30 -35q0 -25 -13 -80l-38 -158q-16 -69 -16 -78q0 -15 12 -15q15 0 65 20z" />
    <glyph glyph-name="Iogonek" unicode="&#x12e;" horiz-adv-x="332" 
d="M274 -1l-114 2q-56 -54 -79 -86.5t-23 -64.5q0 -48 45 -48q31 0 70 11l13 -41q-58 -35 -114 -35q-43 0 -67 25.5t-24 62.5q0 45 30 84.5t97 91.5q-45 0 -125 -2l9 47q61 8 72 17q12 12 21 61l71 397q4 23 4 40q0 19 -17 24q-21 7 -64 11l10 48q96 -2 147 -2q52 0 144 2
l-9 -48q-62 -6 -74 -18q-11 -10 -19 -54l-72 -401q-5 -30 -5 -43q0 -19 14 -23q2 -1 68 -11z" />
    <glyph glyph-name="iogonek" unicode="&#x12f;" horiz-adv-x="288" 
d="M251 55q-49 -34 -113 -54q-53 -52 -75.5 -84.5t-23.5 -62.5q0 -47 45 -47q37 0 68 11l12 -40q-54 -35 -111 -35q-42 0 -64.5 25t-22.5 61q0 42 26.5 79.5t83.5 83.5q-34 4 -34 37q0 19 25 129l24 106q12 58 12 81q0 13 -13 13q-21 0 -48 -7l-9 37q98 50 163 50
q30 0 30 -35q0 -25 -13 -80l-38 -158q-16 -69 -16 -78q0 -15 12 -15q15 0 65 20zM257 629q0 -32 -18 -53t-47 -21q-27 0 -41.5 16t-14.5 43q0 36 19 56t48 20q26 0 40 -16.5t14 -44.5z" />
    <glyph glyph-name="Idotaccent" unicode="&#x130;" horiz-adv-x="332" 
d="M274 -1q-84 2 -146 2q-49 0 -145 -2l9 47q64 8 72 17q12 9 21 61l71 397q4 23 4 40q0 19 -17 24q-21 7 -64 11l10 48q96 -2 147 -2q52 0 144 2l-9 -48q-62 -6 -74 -18q-11 -10 -19 -54l-72 -401q-5 -30 -5 -43q0 -19 14 -23q2 -1 68 -11zM309 761q-1 -29 -15.5 -46.5
t-41.5 -17.5q-51 0 -51 53q0 30 16.5 47.5t42.5 17.5q49 0 49 -54z" />
    <glyph glyph-name="dotlessi" unicode="&#x131;" horiz-adv-x="288" 
d="M251 55q-39 -27 -88.5 -45.5t-76.5 -18.5q-44 0 -44 38q0 16 25 129l24 106q12 58 12 81q0 13 -13 13q-21 0 -48 -7l-9 37q98 50 163 50q30 0 30 -35q0 -25 -13 -80l-38 -158q-16 -69 -16 -78q0 -15 12 -15q15 0 65 20z" />
    <glyph glyph-name="IJ" unicode="&#x132;" horiz-adv-x="651" 
d="M274 -1q-84 2 -146 2q-49 0 -145 -2l9 47q64 8 72 17q12 9 21 61l71 397q4 23 4 40q0 19 -17 24q-21 7 -64 11l10 48q96 -2 147 -2q52 0 144 2l-9 -48q-62 -6 -74 -18q-11 -10 -19 -54l-72 -401q-5 -30 -5 -43q0 -19 14 -23q2 -1 68 -11zM292 -174l-29 39
q115 101 149 266q36 174 71 386q5 37 5 42q0 22 -22 29q-20 5 -61 8l9 48q94 -2 156 -2q46 0 136 2l-9 -48q-63 -8 -73 -18q-11 -11 -19 -54q-15 -80 -35.5 -198.5t-28.5 -163.5q-19 -108 -60 -165q-25 -36 -76 -82.5t-113 -88.5z" />
    <glyph glyph-name="ij" unicode="&#x133;" horiz-adv-x="560" 
d="M249 55q-39 -27 -89 -45.5t-77 -18.5q-43 0 -43 38q0 15 26 129l26 106q15 64 15 80q0 14 -15 14q-21 0 -48 -7l-9 37q100 50 164 50q29 0 29 -35q0 -27 -14 -80l-40 -158q-16 -61 -16 -78q0 -15 11 -15q15 0 66 20zM257 629q0 -32 -18 -53t-47 -21q-27 0 -41.5 16
t-14.5 43q0 36 19 56t48 20q26 0 40 -16.5t14 -44.5zM328 351l-9 37q95 50 164 50q29 0 29 -35q0 -29 -10 -80l-53 -261q-27 -134 -65 -200q-74 -133 -192 -133q-43 0 -43 36q0 27 16 58q27 -11 58 -11q34 0 54 17.5t31 59.5q15 55 42 212l29 160q10 53 10 84q0 13 -12 13
q-18 0 -49 -7zM547 629q0 -32 -18 -53t-48 -21q-27 0 -41.5 16t-14.5 43q0 35 19.5 55.5t47.5 20.5q27 0 41 -16.5t14 -44.5z" />
    <glyph glyph-name="Jcircumflex" unicode="&#x134;" horiz-adv-x="318" 
d="M-40 -174l-29 39q115 101 149 266q29 142 71 386q5 25 5 42q0 22 -22 29q-20 5 -61 8l9 48q94 -2 156 -2q46 0 136 2l-9 -48q-63 -8 -73 -18q-11 -11 -19 -54q-15 -80 -35.5 -198.5t-28.5 -163.5q-19 -108 -60 -165q-25 -36 -76 -82.5t-113 -88.5zM389 699l-30 -25
l-105 88l-129 -87l-26 28l132 136q18 20 38 20q19 0 34 -20z" />
    <glyph glyph-name="jcircumflex" unicode="&#x135;" horiz-adv-x="272" 
d="M42 343l-10 41q44 23 91 37t73 14q30 0 30 -35q0 -25 -11 -81l-53 -253q-29 -138 -65 -202q-74 -135 -193 -135q-18 0 -31 9t-12 27q0 26 16 61q30 -12 58 -12q35 0 54 17.5t31 60.5q8 28 43 209l29 156q11 61 11 82q0 13 -12 13q-21 0 -49 -9zM305 501l-33 -22l-89 103
l-125 -103l-30 26l132 150q19 22 36 22q25 0 35 -22z" />
    <glyph glyph-name="Kcommaaccent" unicode="&#x136;" horiz-adv-x="654" 
d="M588 -27q-103 20 -172 101q-87 103 -160 252q91 75 193 181q43 43 43 64q0 23 -63 25l9 48q42 -2 135 -2q44 0 116 2l-9 -48q-27 -2 -57 -18q-25 -13 -62 -46q-35 -33 -93.5 -86t-91.5 -84q70 -135 120 -207t116 -145zM274 -1q-86 2 -147 2q-48 0 -144 -2l9 48
q61 6 72 16t20 60l72 397q4 23 4 39q0 21 -17 26q-21 7 -64 11l9 48q96 -2 154 -2q49 0 139 2l-9 -48q-60 -6 -76 -20q-10 -9 -19 -53l-71 -400q-5 -30 -5 -43q0 -18 15 -22q15 -5 67 -11zM240 -299l-24 33q73 54 73 94q0 17 -9 33t-9 32q0 20 13 33.5t36 13.5q57 0 57 -64
q0 -91 -137 -175z" />
    <glyph glyph-name="kcommaaccent" unicode="&#x137;" horiz-adv-x="508" 
d="M489 53q-34 -27 -74.5 -45.5t-70.5 -18.5q-41 0 -63 39q-56 97 -87 229q30 44 91 102q81 77 146 77q49 0 49 -34q0 -35 -22 -68q-20 6 -37 6q-74 0 -133 -59q29 -92 77 -174q23 -40 45 -40t64 20zM118 -4l-103 9l120 549q10 43 12 78q0 15 -13 15q-19 0 -48 -7l-9 38
q105 51 166 51q30 0 30 -32q0 -20 -17 -97q-65 -306 -138 -604zM138 -299l-24 33q73 54 73 94q0 17 -9 33t-9 32q0 20 13 33.5t36 13.5q57 0 57 -64q0 -91 -137 -175z" />
    <glyph glyph-name="kgreenlandic" unicode="&#x138;" horiz-adv-x="508" 
d="M505 50q-79 -61 -142 -61q-46 0 -67 39q-63 114 -91 210q40 58 96 114q84 84 147 84q49 0 49 -35q0 -30 -23 -67q-20 6 -38 6q-56 0 -135 -75q18 -49 78 -158q20 -37 45 -37q26 0 65 17zM137 -4l-103 9l51 253q13 61 13 85q0 14 -13 14q-17 0 -46 -6l-10 37
q107 50 161 50q32 0 32 -31q0 -20 -16 -98q0 -1 -29 -132.5t-40 -180.5z" />
    <glyph glyph-name="Lacute" unicode="&#x139;" horiz-adv-x="543" 
d="M532 180q-21 -88 -51 -156q-7 -16 -21 -20t-47 -4h-430l9 47q56 4 71 15q12 10 22 65l70 388q5 30 5 46q0 20 -21 25q-27 7 -60 10l10 48q96 -2 153 -2q49 0 141 2l-9 -48q-66 -5 -78 -19q-11 -13 -18 -54l-72 -402q-4 -22 -4 -28q0 -21 20 -26q29 -8 75 -8q95 0 125 25
q3 2 6 5.5t7 8t7 8.5t7 10.5t7 11t8.5 13t8.5 14t9 16t10 16.5zM210 680l-26 31l117 109q38 36 58 36q14 0 26.5 -14.5t12.5 -34.5q0 -25 -49 -52z" />
    <glyph glyph-name="lacute" unicode="&#x13a;" horiz-adv-x="265" 
d="M240 54q-38 -28 -86.5 -45.5t-76.5 -17.5q-46 0 -46 40q0 12 23 127l81 393q13 62 14 80q0 16 -14 16q-15 0 -48 -7l-9 38q107 51 165 51q31 0 31 -32q0 -23 -17 -99q-67 -312 -96 -435q-14 -56 -14 -80q0 -14 11 -14q16 0 67 20zM182 747l-26 31l117 109q38 36 58 36
q14 0 26.5 -14.5t12.5 -34.5q0 -25 -49 -52z" />
    <glyph glyph-name="Lcommaaccent" unicode="&#x13b;" horiz-adv-x="543" 
d="M532 180q-21 -88 -51 -156q-7 -16 -21 -20t-47 -4h-430l9 47q56 4 71 15q12 10 22 65l70 388q5 30 5 46q0 20 -21 25q-27 7 -60 10l10 48q96 -2 153 -2q49 0 141 2l-9 -48q-66 -5 -78 -19q-11 -13 -18 -54l-72 -402q-4 -22 -4 -28q0 -21 20 -26q29 -8 75 -8q95 0 125 25
q3 2 6 5.5t7 8t7 8.5t7 10.5t7 11t8.5 13t8.5 14t9 16t10 16.5zM173 -299l-24 33q73 54 73 94q0 17 -9 33t-9 32q0 20 13 33.5t36 13.5q57 0 57 -64q0 -91 -137 -175z" />
    <glyph glyph-name="lcommaaccent" unicode="&#x13c;" horiz-adv-x="265" 
d="M240 54q-38 -28 -86.5 -45.5t-76.5 -17.5q-46 0 -46 40q0 12 23 127l81 393q13 62 14 80q0 16 -14 16q-15 0 -48 -7l-9 38q107 51 165 51q31 0 31 -32q0 -23 -17 -99q-67 -312 -96 -435q-14 -56 -14 -80q0 -14 11 -14q16 0 67 20zM11 -299l-24 33q73 54 73 94q0 17 -9 33
t-9 32q0 20 13 33.5t36 13.5q57 0 57 -64q0 -91 -137 -175z" />
    <glyph glyph-name="Lcaron" unicode="&#x13d;" horiz-adv-x="543" 
d="M532 180q-23 -97 -51 -156q-6 -15 -20.5 -19.5t-47.5 -4.5h-430l9 47q56 4 71 15q10 9 21 59q1 4 1 6l70 388q5 30 5 46q0 20 -21 25q-27 7 -60 10l10 48q96 -2 153 -2q49 0 141 2l-9 -48q-66 -5 -78 -19q-11 -13 -18 -54l-72 -402q-4 -22 -4 -28q0 -21 20 -26
q29 -8 75 -8q95 0 125 25q3 2 6 5.5t7 8t7 8.5t7 10.5t7 11t8.5 13t8.5 14t9 16t10 16.5zM416 443l-23 34q71 53 71 93q0 17 -9.5 33t-9.5 32q0 20 13 34t35 14q54 0 54 -65q0 -91 -131 -175z" />
    <glyph glyph-name="lcaron" unicode="&#x13e;" horiz-adv-x="265" 
d="M239 54q-38 -28 -86.5 -45.5t-76.5 -17.5q-46 0 -46 40q0 12 23 127l84 393q13 62 14 80q0 16 -14 16q-15 0 -48 -7l-9 38q107 51 165 51q31 0 31 -32q0 -23 -17 -99q-34 -159 -99 -435q-14 -56 -14 -80q0 -14 11 -14q16 0 67 20zM305 506l-23 34q70 54 70 93q0 17 -9 33
t-9 32q0 20 13 33.5t35 13.5q54 0 54 -64q0 -90 -131 -175z" />
    <glyph glyph-name="Ldot" unicode="&#x13f;" horiz-adv-x="543" 
d="M532 180q-21 -88 -51 -156q-7 -16 -21 -20t-47 -4h-430l9 47q56 4 71 15q12 10 22 65l70 388q5 30 5 46q0 20 -21 25q-27 7 -60 10l10 48q96 -2 153 -2q49 0 141 2l-9 -48q-66 -5 -78 -19q-11 -13 -18 -54l-72 -402q-4 -22 -4 -28q0 -21 20 -26q29 -8 75 -8q95 0 125 25
q3 2 6 5.5t7 8t7 8.5t7 10.5t7 11t8.5 13t8.5 14t9 16t10 16.5zM520 336q-1 -33 -20.5 -53t-49.5 -20q-28 0 -45.5 20t-17.5 50q1 30 19.5 51t46.5 21q30 0 48.5 -19.5t18.5 -49.5z" />
    <glyph glyph-name="ldot" unicode="&#x140;" horiz-adv-x="361" 
d="M239 54q-38 -28 -86.5 -45.5t-76.5 -17.5q-46 0 -46 40q0 12 23 127l84 393q13 62 14 80q0 16 -14 16q-15 0 -48 -7l-9 38q107 51 165 51q31 0 31 -32q0 -23 -17 -99q-34 -159 -99 -435q-14 -56 -14 -80q0 -14 11 -14q16 0 67 20zM389 346q0 -32 -18.5 -51.5t-47.5 -19.5
q-27 0 -42.5 18t-15.5 48q0 29 18.5 49t45.5 20q28 0 44 -17.5t16 -46.5z" />
    <glyph glyph-name="Lslash" unicode="&#x141;" horiz-adv-x="543" 
d="M395 403l-155 -90l-34 -192q-4 -22 -4 -28q0 -21 20 -26q29 -8 75 -8q95 0 125 25q3 2 6 5.5t7 8t7 8.5t7 10.5t7 11t8.5 13t8.5 14t9 16t10 16.5l40 -7q-21 -88 -51 -156q-7 -16 -21 -20t-47 -4h-430l9 47q56 4 71 15q12 10 22 65l19 111l-73 -43l-24 52l110 64l38 204
q5 30 5 46q0 20 -21 25q-27 7 -60 10l10 48q96 -2 153 -2q49 0 141 2l-9 -48q-66 -5 -78 -19q-11 -13 -18 -54l-24 -136l115 68z" />
    <glyph glyph-name="lslash" unicode="&#x142;" horiz-adv-x="265" 
d="M305 423l-103 -68l-41 -192q-14 -66 -14 -80t11 -14q16 0 67 20l15 -35q-38 -28 -86.5 -45.5t-76.5 -17.5q-46 0 -46 40q0 12 23 127l22 115l-55 -36l-26 48l97 64l43 202q13 62 14 80q0 16 -14 16q-15 0 -48 -7l-9 38q107 51 165 51q31 0 31 -32q0 -23 -17 -99l-37 -167
l58 39z" />
    <glyph glyph-name="Nacute" unicode="&#x143;" horiz-adv-x="699" 
d="M225 -1q-94 2 -123 2q-23 0 -121 -2l9 48q65 4 76 20q8 10 22 81q55 275 64 345q9 48 9 67q0 22 -29 27q-22 5 -55 9l9 48q44 -2 112 -2q24 0 85 3q42 -79 126 -235t120 -223q36 197 52 307q8 47 8 65q0 22 -20 27q-13 4 -63 10l8 48q104 -2 132 -2q8 0 110 2l-10 -48
q-63 -9 -75 -18q-9 -9 -23 -82q-21 -103 -60 -329q-4 -21 -9.5 -53.5t-11 -68.5t-7.5 -46h-73q-11 24 -272 508q-10 -57 -23 -135.5t-24.5 -148t-12.5 -77.5q-8 -47 -8 -68q0 -12 6.5 -16.5t20.5 -7.5q29 -5 59 -7zM392 680l-26 31l117 109q38 36 58 36q14 0 26.5 -14.5
t12.5 -34.5q0 -25 -49 -52z" />
    <glyph glyph-name="nacute" unicode="&#x144;" horiz-adv-x="513" 
d="M137 -4l-102 9l57 261q8 33 12 78q0 14 -12 14q-17 0 -47 -7l-10 37q105 50 163 50q13 0 22 -8t9 -23q0 -3 -5 -40q32 23 84 46q50 21 92 21q56 0 56 -54q0 -32 -22 -115l-27 -96q-18 -64 -18 -86q0 -14 11 -14q18 0 66 20l14 -35q-92 -63 -166 -63q-43 0 -43 40
q0 19 16 83l29 112q21 79 21 105q0 23 -23 23q-47 0 -100 -33zM264 494l-29 26l100 129q31 42 58 42q15 0 27.5 -12t12.5 -31q0 -25 -42 -57z" />
    <glyph glyph-name="Ncommaaccent" unicode="&#x145;" horiz-adv-x="699" 
d="M225 -1q-94 2 -123 2q-23 0 -121 -2l9 48q65 4 76 20q8 10 22 81q55 275 64 345q9 48 9 67q0 22 -29 27q-22 5 -55 9l9 48q44 -2 112 -2q24 0 85 3q42 -79 126 -235t120 -223q36 197 52 307q8 47 8 65q0 22 -20 27q-13 4 -63 10l8 48q104 -2 132 -2q8 0 110 2l-10 -48
q-63 -9 -75 -18q-9 -9 -23 -82q-21 -103 -60 -329q-4 -21 -9.5 -53.5t-11 -68.5t-7.5 -46h-73q-11 24 -272 508q-10 -57 -23 -135.5t-24.5 -148t-12.5 -77.5q-8 -47 -8 -68q0 -12 6.5 -16.5t20.5 -7.5q29 -5 59 -7zM247 -299l-24 33q73 54 73 94q0 17 -9 33t-9 32
q0 20 13 33.5t36 13.5q57 0 57 -64q0 -91 -137 -175z" />
    <glyph glyph-name="ncommaaccent" unicode="&#x146;" horiz-adv-x="513" 
d="M137 -4l-102 9l57 261q8 33 12 78q0 14 -12 14q-17 0 -47 -7l-10 37q105 50 163 50q13 0 22 -8t9 -23q0 -3 -5 -40q32 23 84 46q50 21 92 21q56 0 56 -54q0 -32 -22 -115l-27 -96q-18 -64 -18 -86q0 -14 11 -14q18 0 66 20l14 -35q-92 -63 -166 -63q-43 0 -43 40
q0 19 16 83l29 112q21 79 21 105q0 23 -23 23q-47 0 -100 -33zM135 -299l-24 33q73 54 73 94q0 17 -9 33t-9 32q0 20 13 33.5t36 13.5q57 0 57 -64q0 -91 -137 -175z" />
    <glyph glyph-name="Ncaron" unicode="&#x147;" horiz-adv-x="699" 
d="M225 -1q-94 2 -123 2q-23 0 -121 -2l9 48q65 4 76 20q8 10 22 81q55 275 64 345q9 48 9 67q0 22 -29 27q-22 5 -55 9l9 48q44 -2 112 -2q24 0 85 3q42 -79 126 -235t120 -223q36 197 52 307q8 47 8 65q0 22 -20 27q-13 4 -63 10l8 48q104 -2 132 -2q8 0 110 2l-10 -48
q-63 -9 -75 -18q-9 -9 -23 -82q-21 -103 -60 -329q-4 -21 -9.5 -53.5t-11 -68.5t-7.5 -46h-73q-11 24 -272 508q-10 -57 -23 -135.5t-24.5 -148t-12.5 -77.5q-8 -47 -8 -68q0 -12 6.5 -16.5t20.5 -7.5q29 -5 59 -7zM294 838l29 25l110 -84l130 84l25 -29l-134 -132
q-21 -21 -37 -21q-23 0 -35 20z" />
    <glyph glyph-name="ncaron" unicode="&#x148;" horiz-adv-x="513" 
d="M137 -4l-102 9l57 261q8 33 12 78q0 14 -12 14q-17 0 -47 -7l-10 37q105 50 163 50q13 0 22 -8t9 -23q0 -3 -5 -40q32 23 84 46q50 21 92 21q56 0 56 -54q0 -32 -22 -115l-27 -96q-18 -64 -18 -86q0 -14 11 -14q18 0 66 20l14 -35q-92 -63 -166 -63q-43 0 -43 40
q0 19 16 83l29 112q21 79 21 105q0 23 -23 23q-47 0 -100 -33zM173 661l32 22l89 -104l125 104l31 -26l-131 -150q-19 -21 -38 -21q-25 0 -35 21z" />
    <glyph glyph-name="napostrophe" unicode="&#x149;" horiz-adv-x="513" 
d="M137 -4l-102 9l57 261q8 33 12 78q0 14 -12 14q-17 0 -47 -7l-10 37q105 50 163 50q13 0 22 -8t9 -23q0 -3 -5 -40q32 23 84 46q50 21 92 21q56 0 56 -54q0 -32 -22 -115l-27 -96q-18 -64 -18 -86q0 -14 11 -14q18 0 66 20l14 -35q-92 -63 -166 -63q-43 0 -43 40
q0 19 16 83l29 112q21 79 21 105q0 23 -23 23q-47 0 -100 -33zM71 466l-24 33q73 54 73 94q0 17 -9 33t-9 32q0 20 13 33.5t36 13.5q57 0 57 -64q0 -91 -137 -175z" />
    <glyph glyph-name="Eng" unicode="&#x14a;" horiz-adv-x="699" 
d="M225 -1q-48 2 -121 2q-17 0 -123 -2l9 48q68 4 77 21q8 14 22 83q11 54 22.5 116.5t19 105t14.5 81t8 43.5q9 51 9 65q0 20 -30 27q-21 5 -56 7l10 48q44 -2 112 -2q23 0 86 3q47 -87 140 -257t107 -196q44 263 50 305q8 47 8 63q0 23 -20 28q-21 7 -64 8l9 48
q104 -2 132 -2q8 0 110 2l-10 -48q-62 -5 -74 -16q-9 -8 -24 -81q-17 -81 -77 -440q-21 -120 -65 -188q-72 -110 -173 -110q-55 0 -55 39q0 28 21 57q34 -17 71 -17t57.5 19t36.5 62q13 35 24 85q-85 158 -274 499q-3 -20 -58 -355q-9 -56 -9 -70q0 -22 27 -26q29 -5 59 -7z
" />
    <glyph glyph-name="eng" unicode="&#x14b;" horiz-adv-x="503" 
d="M140 -4l-103 9l51 254q12 58 12 86q0 13 -13 13q-15 0 -46 -7l-10 37q103 50 161 50q14 0 23 -8t9 -23q0 -20 -3 -40q35 25 80 46q46 21 96 21q55 0 55 -56q0 -27 -19 -111l-45 -206q-27 -121 -69 -185q-78 -119 -186 -119q-54 0 -54 39q0 20 20 54q28 -17 64 -17
q34 0 50.5 20t30.5 67q9 30 70 302q20 91 20 108q0 24 -24 24q-48 0 -99 -33z" />
    <glyph glyph-name="Omacron" unicode="&#x14c;" horiz-adv-x="667" 
d="M654 382q0 -168 -91 -279q-45 -56 -109 -86.5t-136 -30.5q-132 0 -201 79.5t-69 205.5q0 170 107 288q43 48 105.5 72.5t128.5 24.5q129 0 197 -73.5t68 -200.5zM524 386q0 110 -34 158.5t-106 48.5q-78 0 -135 -81q-29 -42 -49.5 -114t-20.5 -141q0 -207 142 -207
q89 0 142 86q27 43 44 115t17 135zM548 713h-263l14 76h263z" />
    <glyph glyph-name="omacron" unicode="&#x14d;" horiz-adv-x="465" 
d="M433 278q0 -129 -62 -210t-182 -81q-77 0 -121.5 46t-44.5 123q0 122 63 201.5t184 79.5q75 0 119 -43t44 -116zM324 300q0 46 -15.5 65t-46.5 19q-47 0 -76 -46q-20 -31 -36 -96.5t-16 -115.5q0 -86 64 -86q50 0 76 48q18 34 34 99.5t16 112.5zM411 524h-243l15 74h241z
" />
    <glyph glyph-name="Obreve" unicode="&#x14e;" horiz-adv-x="667" 
d="M654 382q0 -168 -91 -279q-45 -56 -109 -86.5t-136 -30.5q-132 0 -201 79.5t-69 205.5q0 170 107 288q43 48 105.5 72.5t128.5 24.5q129 0 197 -73.5t68 -200.5zM524 386q0 110 -34 158.5t-106 48.5q-78 0 -135 -81q-29 -42 -49.5 -114t-20.5 -141q0 -207 142 -207
q89 0 142 86q27 43 44 115t17 135zM535 848l48 -2q-11 -73 -55 -114t-107 -41q-55 0 -87.5 30t-32.5 93q0 18 3 31l43 3q2 -38 23.5 -60t59.5 -22q78 0 105 82z" />
    <glyph glyph-name="obreve" unicode="&#x14f;" horiz-adv-x="465" 
d="M433 278q0 -129 -62 -210t-182 -81q-77 0 -121.5 46t-44.5 123q0 122 63 201.5t184 79.5q75 0 119 -43t44 -116zM324 300q0 46 -15.5 65t-46.5 19q-47 0 -76 -46q-20 -31 -36 -96.5t-16 -115.5q0 -86 64 -86q50 0 76 48q18 34 34 99.5t16 112.5zM389 651l44 -2
q-10 -73 -49.5 -113.5t-99.5 -40.5q-52 0 -82 30.5t-30 93.5q0 2 3 29l41 3q2 -36 21 -58t54 -22q72 0 98 80z" />
    <glyph glyph-name="Ohungarumlaut" unicode="&#x150;" horiz-adv-x="667" 
d="M654 382q0 -168 -91 -279q-45 -56 -109 -86.5t-136 -30.5q-132 0 -201 79.5t-69 205.5q0 170 107 288q43 48 105.5 72.5t128.5 24.5q129 0 197 -73.5t68 -200.5zM524 386q0 110 -34 158.5t-106 48.5q-78 0 -135 -81q-29 -42 -49.5 -114t-20.5 -141q0 -207 142 -207
q89 0 142 86q27 43 44 115t17 135zM325 679l-28 29l98 115q33 40 56 40q13 0 24.5 -12t11.5 -28q0 -22 -44 -55zM477 679l-31 29l100 115q22 25 32.5 32.5t22.5 7.5t24 -12t12 -28q0 -22 -43 -55z" />
    <glyph glyph-name="ohungarumlaut" unicode="&#x151;" horiz-adv-x="465" 
d="M433 278q0 -129 -62 -210t-182 -81q-77 0 -121.5 46t-44.5 123q0 122 63 201.5t184 79.5q75 0 119 -43t44 -116zM324 300q0 46 -15.5 65t-46.5 19q-47 0 -76 -46q-20 -31 -36 -96.5t-16 -115.5q0 -86 64 -86q50 0 76 48q18 34 34 99.5t16 112.5zM199 494l-33 23l78 136
q28 50 53 50q14 0 26.5 -10t12.5 -26q0 -23 -33 -60zM337 495l-33 22l79 137q17 29 28.5 39t24.5 10t26 -10t13 -26q0 -22 -34 -60z" />
    <glyph glyph-name="OE" unicode="&#x152;" horiz-adv-x="927" 
d="M895 181q-21 -97 -50 -155q-8 -17 -20.5 -21.5t-45.5 -4.5h-273q-29 0 -94.5 -3.5t-93.5 -3.5q-136 0 -203 72t-67 193q0 168 101.5 280t270.5 112q28 0 90.5 -3.5t82.5 -3.5h268q34 0 42.5 -7t8.5 -25t-6 -68.5t-10 -70.5h-43q-9 79 -20 90q-20 20 -110 20q-21 0 -71 -2
l-39 -221h9q102 0 127 19q16 13 34 64h43q-23 -109 -40 -223h-43q0 58 -9 68q-8 10 -32 12.5t-94 2.5h-6l-30 -166q-4 -20 -4 -40q0 -22 17 -27q26 -8 79 -8q97 0 124 25q15 13 67 102zM457 163l56 318q0 3 4 23.5t4 26.5q0 23 -7 34q-20 25 -102 25q-79 0 -134 -53.5
t-78 -127t-23 -154.5q0 -93 39 -145.5t111 -52.5q84 0 109 39q10 15 21 67z" />
    <glyph glyph-name="oe" unicode="&#x153;" horiz-adv-x="679" 
d="M635 77q-56 -43 -115 -66.5t-104 -23.5q-66 0 -86 52q-55 -52 -140 -52q-78 0 -122.5 46t-44.5 124q0 121 63.5 200.5t182.5 79.5q93 0 129 -69q30 33 72.5 51t83.5 18q54 0 83.5 -24.5t29.5 -65.5q0 -63 -60.5 -97.5t-190.5 -57.5q-6 -32 -6 -57q0 -33 16 -50.5
t43 -17.5q65 0 145 44zM323 301q0 83 -62 83q-47 0 -74 -45q-20 -32 -36.5 -97.5t-16.5 -116.5q0 -85 64 -85q46 0 75 47q18 31 34 98.5t16 115.5zM423 235q142 44 142 103q0 18 -10 28.5t-28 10.5q-31 0 -56 -29q-26 -28 -48 -113z" />
    <glyph glyph-name="Racute" unicode="&#x154;" horiz-adv-x="630" 
d="M274 -1q-94 2 -179 2q-6 0 -112 -2l9 48q65 6 76 20q9 12 17 60l71 392q4 21 4 42q0 19 -18 25q-23 6 -63 10l10 47h148q151 0 211 -13q123 -27 123 -143q0 -70 -43 -120.5t-112 -69.5q61 -141 99 -197q42 -63 71 -92l-28 -37q-92 28 -143 87q-72 80 -127 218
q-36 0 -54 2l-27 -149q-6 -33 -6 -49q0 -20 22 -24q23 -5 60 -9zM245 337q19 -3 43 -3q69 0 109.5 37t40.5 106q0 75 -49 96q-33 15 -100 15zM225 -299l-24 33q73 54 73 94q0 17 -9 33t-9 32q0 20 13 33.5t36 13.5q57 0 57 -64q0 -91 -137 -175z" />
    <glyph glyph-name="racute" unicode="&#x155;" horiz-adv-x="385" 
d="M137 -4l-102 9l51 235q16 73 16 98q0 20 -13 20q-15 0 -47 -7l-10 37q101 49 156 49q34 0 34 -39q0 -19 -5 -44q34 48 83 69q22 10 46 10q38 0 38 -38q0 -37 -28 -73q-21 13 -50 13q-51 0 -94 -24zM213 494l-29 26l100 129q19 26 31 34t27 8t27.5 -12t12.5 -31
q0 -25 -42 -57z" />
    <glyph glyph-name="Rcommaaccent" unicode="&#x156;" horiz-adv-x="630" 
d="M274 -1q-94 2 -179 2q-6 0 -112 -2l9 48q65 6 76 20q9 12 17 60l71 392q4 21 4 42q0 19 -18 25q-23 6 -63 10l10 47h148q151 0 211 -13q123 -27 123 -143q0 -70 -43 -120.5t-112 -69.5q61 -141 99 -197q42 -63 71 -92l-28 -37q-92 28 -143 87q-72 80 -127 218
q-36 0 -54 2l-27 -149q-6 -33 -6 -49q0 -20 22 -24q23 -5 60 -9zM245 337q19 -3 43 -3q69 0 109.5 37t40.5 106q0 75 -49 96q-33 15 -100 15zM226 -299l-24 33q73 54 73 94q0 17 -9 33t-9 32q0 20 13 33.5t36 13.5q57 0 57 -64q0 -91 -137 -175z" />
    <glyph glyph-name="rcommaaccent" unicode="&#x157;" horiz-adv-x="385" 
d="M137 -4l-102 9l51 235q16 73 16 98q0 20 -13 20q-15 0 -47 -7l-10 37q101 49 156 49q34 0 34 -39q0 -19 -5 -44q34 48 83 69q22 10 46 10q38 0 38 -38q0 -37 -28 -73q-21 13 -50 13q-51 0 -94 -24zM-1 -299l-24 33q73 54 73 94q0 17 -9 33t-9 32q0 20 13 33.5t36 13.5
q57 0 57 -64q0 -91 -137 -175z" />
    <glyph glyph-name="Rcaron" unicode="&#x158;" horiz-adv-x="630" 
d="M274 -1q-94 2 -179 2q-6 0 -112 -2l9 48q65 6 76 20q9 12 17 60l71 392q4 21 4 42q0 19 -18 25q-23 6 -63 10l10 47h148q151 0 211 -13q123 -27 123 -143q0 -70 -43 -120.5t-112 -69.5q61 -141 99 -197q42 -63 71 -92l-28 -37q-92 28 -143 87q-72 80 -127 218
q-36 0 -54 2l-27 -149q-6 -33 -6 -49q0 -20 22 -24q23 -5 60 -9zM245 337q19 -3 43 -3q69 0 109.5 37t40.5 106q0 75 -49 96q-33 15 -100 15zM210 838l29 25l110 -84l130 84l25 -29l-134 -132q-21 -21 -37 -21q-23 0 -35 20z" />
    <glyph glyph-name="rcaron" unicode="&#x159;" horiz-adv-x="385" 
d="M137 -4l-102 9l51 235q16 73 16 98q0 20 -13 20q-15 0 -47 -7l-10 37q101 49 156 49q34 0 34 -39q0 -19 -5 -44q34 48 83 69q22 10 46 10q38 0 38 -38q0 -37 -28 -73q-21 13 -50 13q-51 0 -94 -24zM110 661l32 22l89 -104l125 104l31 -26l-131 -150q-20 -21 -38 -21
q-25 0 -35 21z" />
    <glyph glyph-name="Sacute" unicode="&#x15a;" horiz-adv-x="492" 
d="M78 204q23 -100 38 -118q30 -37 98 -37q121 0 121 88q0 29 -17 52.5t-56 50.5l-53 38q-63 44 -89.5 86.5t-26.5 94.5q0 95 67.5 146.5t187.5 51.5q65 0 114 -21q24 -11 24 -37q0 -61 -7 -145h-49q-7 61 -16 91q-5 22 -21 32q-30 19 -72 19q-51 0 -82 -22.5t-31 -67.5
t63 -95l55 -43q74 -59 101 -98t27 -88q0 -93 -66 -144.5t-182 -51.5q-92 0 -147 35q-25 15 -28 52q-3 30 -3 131h50zM289 680l-26 31l117 109q38 36 58 36q14 0 26.5 -14.5t12.5 -34.5q0 -25 -49 -52z" />
    <glyph glyph-name="sacute" unicode="&#x15b;" horiz-adv-x="355" 
d="M33 115q17 -21 55.5 -37t74.5 -16q56 0 56 36q0 12 -9.5 22t-35.5 30l-62 46q-50 38 -50 100q0 64 45.5 102t126.5 38q59 0 87 -16q16 -11 16 -26q0 -26 -27 -67q-18 15 -50.5 27.5t-58.5 12.5q-21 0 -32.5 -10t-11.5 -24q0 -20 34 -46l55 -41q37 -28 52 -52.5t15 -57.5
q0 -62 -49 -105.5t-138 -43.5q-65 0 -101 25q-23 17 -23 37q1 32 31 66zM208 494l-29 26l100 129q31 42 58 42q15 0 27.5 -12t12.5 -31q0 -25 -42 -57z" />
    <glyph glyph-name="Scircumflex" unicode="&#x15c;" horiz-adv-x="492" 
d="M78 204q23 -100 38 -118q30 -37 98 -37q121 0 121 88q0 29 -17 52.5t-56 50.5l-53 38q-63 44 -89.5 86.5t-26.5 94.5q0 95 67.5 146.5t187.5 51.5q65 0 114 -21q24 -11 24 -37q0 -61 -7 -145h-49q-7 61 -16 91q-5 22 -21 32q-30 19 -72 19q-51 0 -82 -22.5t-31 -67.5
t63 -95l55 -43q74 -59 101 -98t27 -88q0 -93 -66 -144.5t-182 -51.5q-92 0 -147 35q-25 15 -28 52q-3 30 -3 131h50zM492 694l-29 -25l-109 84l-131 -83l-26 28l133 133q22 20 39 20q22 0 36 -22z" />
    <glyph glyph-name="scircumflex" unicode="&#x15d;" horiz-adv-x="355" 
d="M33 115q17 -21 55.5 -37t74.5 -16q56 0 56 36q0 12 -9.5 22t-35.5 30l-62 46q-50 38 -50 100q0 64 45.5 102t126.5 38q59 0 87 -16q16 -11 16 -26q0 -26 -27 -67q-18 15 -50.5 27.5t-58.5 12.5q-21 0 -32.5 -10t-11.5 -24q0 -20 34 -46l55 -41q37 -28 52 -52.5t15 -57.5
q0 -62 -49 -105.5t-138 -43.5q-65 0 -101 25q-23 17 -23 37q1 32 31 66zM368 509l-33 -22l-88 103l-126 -103l-29 26l130 150q19 22 37 22q25 0 35 -22z" />
    <glyph glyph-name="Scedilla" unicode="&#x15e;" horiz-adv-x="492" 
d="M123 -271l-9 46q109 31 110 74q0 22 -36 48q-16 13 -16 28q1 19 23 61q-87 3 -136 35q-25 15 -28 52q-3 30 -3 131h50q23 -100 38 -118q30 -37 98 -37q121 0 121 88q0 29 -17 52.5t-56 50.5l-53 38q-63 44 -89.5 86.5t-26.5 94.5q0 95 67.5 146.5t187.5 51.5
q65 0 114 -21q24 -11 24 -37q0 -61 -7 -145h-49q-7 61 -16 91q-5 22 -21 32q-30 19 -72 19q-51 0 -82 -22.5t-31 -67.5t63 -95l55 -43q74 -59 101 -98t27 -88q0 -84 -54.5 -134.5t-152.5 -59.5q-11 -22 -11 -33t15 -20q30 -18 42 -34t12 -37q0 -94 -182 -135z" />
    <glyph glyph-name="scedilla" unicode="&#x15f;" horiz-adv-x="355" 
d="M41 -268l-9 45q108 31 109 73q0 21 -35 48q-16 13 -16 28q0 17 23 62q-60 4 -88 24q-23 17 -23 37q1 32 31 66q17 -21 55.5 -37t74.5 -16q56 0 56 36q0 12 -9.5 22t-35.5 30l-62 46q-50 38 -50 100q0 64 45.5 102t126.5 38q59 0 87 -16q16 -11 16 -26q0 -26 -27 -67
q-18 15 -50.5 27.5t-58.5 12.5q-21 0 -32.5 -10t-11.5 -24q0 -20 34 -46l55 -41q37 -28 52 -52.5t15 -57.5q0 -54 -38.5 -95.5t-108.5 -50.5q-12 -23 -12 -34q0 -12 14 -21q53 -30 53 -70q0 -95 -180 -133z" />
    <glyph glyph-name="Scaron" unicode="&#x160;" horiz-adv-x="492" 
d="M78 204q23 -100 38 -118q30 -37 98 -37q121 0 121 88q0 29 -17 52.5t-56 50.5l-53 38q-63 44 -89.5 86.5t-26.5 94.5q0 95 67.5 146.5t187.5 51.5q65 0 114 -21q24 -11 24 -37q0 -61 -7 -145h-49q-7 61 -16 91q-5 22 -21 32q-30 19 -72 19q-51 0 -82 -22.5t-31 -67.5
t63 -95l55 -43q74 -59 101 -98t27 -88q0 -93 -66 -144.5t-182 -51.5q-92 0 -147 35q-25 15 -28 52q-3 30 -3 131h50zM217 838l29 25l110 -84l130 84l25 -29l-134 -132q-21 -21 -37 -21q-22 0 -35 20z" />
    <glyph glyph-name="scaron" unicode="&#x161;" horiz-adv-x="355" 
d="M33 115q17 -21 55.5 -37t74.5 -16q56 0 56 36q0 12 -9.5 22t-35.5 30l-62 46q-50 38 -50 100q0 64 45.5 102t126.5 38q59 0 87 -16q16 -11 16 -26q0 -26 -27 -67q-18 15 -50.5 27.5t-58.5 12.5q-21 0 -32.5 -10t-11.5 -24q0 -20 34 -46l55 -41q37 -28 52 -52.5t15 -57.5
q0 -62 -49 -105.5t-138 -43.5q-65 0 -101 25q-23 17 -23 37q1 32 31 66zM112 661l32 22l89 -104l125 104l31 -26l-131 -150q-20 -21 -38 -21q-25 0 -35 21z" />
    <glyph glyph-name="uni0162" unicode="&#x162;" horiz-adv-x="605" 
d="M158 -271l-9 46q108 31 109 74q0 25 -35 48q-17 12 -17 28q1 22 31 76q-65 0 -131 -2l8 48q72 7 85 24q8 10 17 60l82 454q-98 0 -122 -13q-14 -8 -27.5 -33.5t-40.5 -90.5l-45 3q29 143 35 164q8 28 35 28h471q18 0 24.5 -6t6.5 -23q0 -42 -19 -161l-47 -2q-1 9 -2 24
l-1.5 22.5t-2 19t-2.5 17.5t-2.5 13.5t-3.5 12t-5 7.5q-14 17 -130 18l-83 -451q-7 -40 -7 -53q0 -19 18 -23q33 -8 70 -11l-9 -48q-13 1 -57.5 1.5t-62.5 0.5q-18 -33 -18 -46q0 -11 14 -20q30 -18 42 -34t12 -37q0 -94 -181 -135z" />
    <glyph glyph-name="uni0163" unicode="&#x163;" horiz-adv-x="315" 
d="M16 -268l-9 45q108 31 109 73q0 21 -35 48q-16 13 -16 28q0 18 26 67q-46 7 -46 64q0 33 18 115l36 178q-39 1 -74 7l8 45q9 2 29.5 6.5t26.5 5.5q19 4 30 18t23 42l27 62l78 7l-25 -127q55 0 105 -10l-9 -49q-42 -7 -106 -7l-37 -183q-13 -65 -13 -78q0 -18 16 -18
q20 0 78 18l14 -35q-68 -45 -126 -58q-15 -28 -15 -40t14 -21q53 -30 53 -70q0 -95 -180 -133z" />
    <glyph glyph-name="Tcaron" unicode="&#x164;" horiz-adv-x="605" 
d="M409 -1q-66 2 -155 2q-72 0 -148 -2l8 48q72 7 85 24q8 10 17 60l82 454q-98 0 -122 -13q-14 -8 -27.5 -33.5t-40.5 -90.5l-45 3q19 107 35 164q7 28 35 28h471q18 0 24.5 -6t6.5 -23q0 -42 -19 -161l-47 -2q-7 101 -20 116q-14 17 -129 18l-83 -451q-7 -40 -7 -53
q0 -19 18 -23q33 -8 70 -11zM248 838l29 25l110 -84l130 84l25 -29l-134 -132q-21 -21 -37 -21q-23 0 -35 20z" />
    <glyph glyph-name="tcaron" unicode="&#x165;" horiz-adv-x="315" 
d="M270 54q-96 -63 -161 -63q-31 0 -47.5 14.5t-16.5 51.5q0 33 18 115l36 178q-39 1 -74 7l8 45l56 12q19 4 30 18t23 42l27 62l78 7l-25 -127q55 0 105 -10l-9 -49q-42 -7 -106 -7l-37 -183q-13 -65 -13 -78q0 -18 16 -18q20 0 78 18zM281 442l-23 33q71 55 71 93
q0 17 -9.5 33.5t-9.5 32.5q0 19 13 33t35 14q55 0 55 -64q-1 -93 -132 -175z" />
    <glyph glyph-name="Tbar" unicode="&#x166;" horiz-adv-x="605" 
d="M508 377l-13 -64h-125l-33 -179q-7 -40 -7 -53q0 -19 18 -23q33 -8 70 -11l-9 -48q-66 2 -155 2q-72 0 -148 -2l8 48q72 7 85 24q8 10 17 60l33 182h-122l13 64h120l38 208q-98 0 -122 -13q-14 -8 -27.5 -33.5t-40.5 -90.5l-45 3q22 112 35 164q7 28 35 28h471
q18 0 24.5 -6t6.5 -23q0 -42 -19 -161l-47 -3q-5 101 -19 117q-14 17 -130 18l-38 -208h126z" />
    <glyph glyph-name="tbar" unicode="&#x167;" horiz-adv-x="315" 
d="M295 275l-11 -55h-99l-10 -53q-13 -65 -13 -78q0 -18 16 -18q20 0 78 18l14 -35q-96 -63 -161 -63q-31 0 -47.5 14.5t-16.5 51.5q0 28 18 118l9 45h-68l11 55h68l16 75q-39 1 -74 7l8 45q4 1 15.5 3t22 4.5t18.5 4.5q19 5 30 19t23 41l27 62l78 7l-25 -127q55 0 105 -10
l-9 -49q-42 -7 -106 -7l-16 -75h99z" />
    <glyph glyph-name="Utilde" unicode="&#x168;" horiz-adv-x="687" 
d="M738 597q-66 -7 -77 -25q-10 -16 -17 -60l-40 -221q-16 -91 -36.5 -142.5t-53.5 -86.5q-72 -77 -217 -77q-91 0 -152 42.5t-61 136.5q0 47 17 135q7 38 21 112.5t20 109.5q5 25 5 40q0 20 -15 25q-19 8 -63 11l8 47q72 -2 160 -2q66 0 142 2l-9 -47q-72 -4 -88 -21
q-9 -10 -17 -51q-4 -21 -42 -220q-14 -81 -14 -116q0 -130 130 -130q94 0 138 52q17 20 31 56t20 62.5t19 88.5q7 36 31 199q3 24 3 45q0 20 -25 27q-20 5 -60 8l9 46q36 -1 126 -1q78 0 114 1zM326 694l-36 12q12 46 36 78t58 32q21 0 57 -15l25 -11q29 -12 49 -12
q23 0 46 45l36 -12q-12 -50 -34 -80t-50 -30q-21 0 -66 17l-24 10q-28 12 -46 12q-15 0 -24.5 -9.5t-26.5 -36.5z" />
    <glyph glyph-name="utilde" unicode="&#x169;" horiz-adv-x="522" 
d="M502 54q-97 -63 -165 -63q-21 0 -32.5 14.5t-11.5 37.5q0 2 0.5 9t0.5 10q-93 -72 -177 -72q-60 0 -60 66q0 30 9 73l35 160q9 41 9 53q0 16 -11 16q-21 0 -51 -7l-10 37q40 21 87.5 35.5t70.5 14.5q35 0 35 -36q0 -26 -7 -54l-44 -188q-7 -28 -7 -52q0 -27 26 -27
q35 0 97 31l69 314l104 -6l-50 -234q-15 -73 -15 -86q0 -25 16 -25q24 0 68 16zM194 512l-32 13q14 45 39.5 77.5t56.5 32.5q18 0 52 -15l23 -11q26 -13 41 -13q14 0 24 10.5t26 37.5l32 -13q-35 -111 -82 -111q-14 0 -63 18l-23 9q-28 11 -40 11q-14 0 -25.5 -10t-28.5 -36
z" />
    <glyph glyph-name="Umacron" unicode="&#x16a;" horiz-adv-x="687" 
d="M738 597q-66 -7 -77 -25q-10 -16 -17 -60l-40 -221q-16 -91 -36.5 -142.5t-53.5 -86.5q-72 -77 -217 -77q-91 0 -152 42.5t-61 136.5q0 47 17 135q7 38 21 112.5t20 109.5q5 25 5 40q0 20 -15 25q-19 8 -63 11l8 47q72 -2 160 -2q66 0 142 2l-9 -47q-72 -4 -88 -21
q-9 -10 -17 -51q-4 -21 -42 -220q-14 -81 -14 -116q0 -130 130 -130q94 0 138 52q17 20 31 56t20 62.5t19 88.5q7 36 31 199q3 24 3 45q0 20 -25 27q-20 5 -60 8l9 46q36 -1 126 -1q78 0 114 1zM574 713h-263l14 76h263z" />
    <glyph glyph-name="umacron" unicode="&#x16b;" horiz-adv-x="522" 
d="M502 54q-97 -63 -165 -63q-21 0 -32.5 14.5t-11.5 37.5q0 2 0.5 9t0.5 10q-93 -72 -177 -72q-60 0 -60 66q0 30 9 73l35 160q9 41 9 53q0 16 -11 16q-21 0 -51 -7l-10 37q40 21 87.5 35.5t70.5 14.5q35 0 35 -36q0 -26 -7 -54l-44 -188q-7 -28 -7 -52q0 -27 26 -27
q35 0 97 31l69 314l104 -6l-50 -234q-15 -73 -15 -86q0 -25 16 -25q24 0 68 16zM427 524h-243l15 74h241z" />
    <glyph glyph-name="Ubreve" unicode="&#x16c;" horiz-adv-x="687" 
d="M738 597q-66 -7 -77 -25q-10 -16 -17 -60l-40 -221q-16 -91 -36.5 -142.5t-53.5 -86.5q-72 -77 -217 -77q-91 0 -152 42.5t-61 136.5q0 47 17 135q7 38 21 112.5t20 109.5q5 25 5 40q0 20 -15 25q-19 8 -63 11l8 47q72 -2 160 -2q66 0 142 2l-9 -47q-72 -4 -88 -21
q-9 -10 -17 -51q-4 -21 -42 -220q-14 -81 -14 -116q0 -130 130 -130q94 0 138 52q17 20 31 56t20 62.5t19 88.5q7 36 31 199q3 24 3 45q0 20 -25 27q-20 5 -60 8l9 46q36 -1 126 -1q78 0 114 1zM542 848l48 -2q-11 -73 -55 -114t-107 -41q-55 0 -87.5 30t-32.5 93q0 18 3 31
l43 3q2 -38 23.5 -60t59.5 -22q78 0 105 82z" />
    <glyph glyph-name="ubreve" unicode="&#x16d;" horiz-adv-x="522" 
d="M502 54q-97 -63 -165 -63q-21 0 -32.5 14.5t-11.5 37.5q0 2 0.5 9t0.5 10q-93 -72 -177 -72q-60 0 -60 66q0 30 9 73l35 160q9 41 9 53q0 16 -11 16q-21 0 -51 -7l-10 37q40 21 87.5 35.5t70.5 14.5q35 0 35 -36q0 -26 -7 -54l-44 -188q-7 -28 -7 -52q0 -27 26 -27
q35 0 97 31l69 314l104 -6l-50 -234q-15 -73 -15 -86q0 -25 16 -25q24 0 68 16zM408 651l44 -2q-10 -73 -49.5 -113.5t-99.5 -40.5q-52 0 -82 30.5t-30 93.5q0 2 3 29l41 3q2 -36 21 -58t54 -22q72 0 98 80z" />
    <glyph glyph-name="Uring" unicode="&#x16e;" horiz-adv-x="687" 
d="M738 597q-66 -7 -77 -25q-10 -16 -17 -60l-40 -221q-16 -91 -36.5 -142.5t-53.5 -86.5q-72 -77 -217 -77q-91 0 -152 42.5t-61 136.5q0 47 17 135q7 38 21 112.5t20 109.5q5 25 5 40q0 20 -15 25q-19 8 -63 11l8 47q72 -2 160 -2q66 0 142 2l-9 -47q-72 -4 -88 -21
q-9 -10 -17 -51q-4 -21 -42 -220q-14 -81 -14 -116q0 -130 130 -130q94 0 138 52q17 20 31 56t20 62.5t19 88.5q7 36 31 199q3 24 3 45q0 20 -25 27q-20 5 -60 8l9 46q36 -1 126 -1q78 0 114 1zM517 765q0 -42 -27 -70.5t-66 -28.5q-38 0 -62 25.5t-24 66.5t27 69t66 28
t62.5 -24.5t23.5 -65.5zM472 764q0 23 -12.5 35.5t-30.5 12.5q-19 0 -33 -13.5t-14 -37.5q0 -23 11.5 -37t32.5 -14q19 0 32.5 14.5t13.5 39.5z" />
    <glyph glyph-name="uring" unicode="&#x16f;" horiz-adv-x="522" 
d="M502 54q-97 -63 -165 -63q-21 0 -32.5 14.5t-11.5 37.5q0 2 0.5 9t0.5 10q-93 -72 -177 -72q-60 0 -60 66q0 30 9 73l35 160q9 41 9 53q0 16 -11 16q-21 0 -51 -7l-10 37q40 21 87.5 35.5t70.5 14.5q35 0 35 -36q0 -26 -7 -54l-44 -188q-7 -28 -7 -52q0 -27 26 -27
q35 0 97 31l69 314l104 -6l-50 -234q-15 -73 -15 -86q0 -25 16 -25q24 0 68 16zM400 588q0 -42 -27 -70t-66 -28q-38 0 -62 25t-24 67q0 40 27 68t66 28q40 0 63 -24.5t23 -65.5zM355 587q0 23 -12.5 36t-30.5 13q-19 0 -33 -14t-14 -37t11.5 -37.5t32.5 -14.5
q19 0 32.5 14.5t13.5 39.5z" />
    <glyph glyph-name="Uhungarumlaut" unicode="&#x170;" horiz-adv-x="687" 
d="M738 597q-66 -7 -77 -25q-10 -16 -17 -60l-40 -221q-16 -91 -36.5 -142.5t-53.5 -86.5q-72 -77 -217 -77q-91 0 -152 42.5t-61 136.5q0 47 17 135q7 38 21 112.5t20 109.5q5 25 5 40q0 20 -15 25q-19 8 -63 11l8 47q72 -2 160 -2q66 0 142 2l-9 -47q-72 -4 -88 -21
q-9 -10 -17 -51q-4 -21 -42 -220q-14 -81 -14 -116q0 -130 130 -130q94 0 138 52q17 20 31 56t20 62.5t19 88.5q7 36 31 199q3 24 3 45q0 20 -25 27q-20 5 -60 8l9 46q36 -1 126 -1q78 0 114 1zM327 679l-28 29l98 115q33 40 56 40q13 0 24.5 -12t11.5 -28q0 -22 -44 -55z
M479 679l-31 29l100 115q22 25 32.5 32.5t22.5 7.5t24 -12t12 -28q0 -22 -43 -55z" />
    <glyph glyph-name="uhungarumlaut" unicode="&#x171;" horiz-adv-x="522" 
d="M502 54q-97 -63 -165 -63q-21 0 -32.5 14.5t-11.5 37.5q0 2 0.5 9t0.5 10q-93 -72 -177 -72q-60 0 -60 66q0 30 9 73l35 160q9 41 9 53q0 16 -11 16q-21 0 -51 -7l-10 37q40 21 87.5 35.5t70.5 14.5q35 0 35 -36q0 -26 -7 -54l-44 -188q-7 -28 -7 -52q0 -27 26 -27
q35 0 97 31l69 314l104 -6l-50 -234q-15 -73 -15 -86q0 -25 16 -25q24 0 68 16zM225 494l-33 23l78 136q28 50 53 50q14 0 26.5 -10t12.5 -26q0 -23 -33 -60zM363 495l-33 22l79 137q17 29 28.5 39t24.5 10t26 -10t13 -26q0 -22 -34 -60z" />
    <glyph glyph-name="Uogonek" unicode="&#x172;" horiz-adv-x="687" 
d="M738 597q-66 -7 -77 -25q-10 -16 -17 -60l-40 -221q-16 -91 -36.5 -142.5t-53.5 -86.5q-58 -61 -163 -74q-47 -46 -67.5 -77t-20.5 -61q0 -48 45 -48q32 0 70 11l13 -41q-58 -35 -114 -35q-43 0 -67 25.5t-24 62.5q0 41 25.5 78t81.5 82q-90 1 -149.5 43t-59.5 136
q0 47 17 135q7 38 21 112.5t20 109.5q5 25 5 40q0 20 -15 25q-19 8 -63 11l8 47q72 -2 160 -2q66 0 142 2l-9 -47q-72 -4 -88 -21q-9 -10 -17 -51q-4 -21 -42 -220q-14 -81 -14 -116q0 -130 130 -130q94 0 138 52q17 20 31 56t20 62.5t19 88.5q7 36 31 199q3 24 3 45
q0 20 -25 27q-20 5 -60 8l9 46q36 -1 126 -1q78 0 114 1z" />
    <glyph glyph-name="uogonek" unicode="&#x173;" horiz-adv-x="522" 
d="M502 54q-63 -41 -117 -55q-51 -51 -73 -83t-23 -62q0 -47 45 -47q37 0 68 11l12 -40q-54 -35 -111 -35q-42 0 -64.5 25t-22.5 61q0 43 26.5 79.5t84.5 83.5q-34 7 -34 51q0 2 0.5 9t0.5 10q-93 -72 -177 -72q-60 0 -60 65q0 36 15 100l22 100q15 69 15 87q0 16 -11 16
q-20 0 -50 -7l-10 37q40 21 87.5 35.5t70.5 14.5q35 0 35 -36q0 -27 -15 -89l-26 -111q-17 -70 -17 -94q0 -27 26 -27q35 0 97 31l69 314l104 -6l-50 -234q-15 -73 -15 -86q0 -25 16 -25q24 0 68 16z" />
    <glyph glyph-name="Wcircumflex" unicode="&#x174;" horiz-adv-x="923" 
d="M264 -4h-80l-36 504q-5 74 -21 84q-13 8 -56 12l8 48q122 -2 149 -2q120 0 158 2l-10 -48q-42 -3 -61 -7q-22 -4 -32 -13t-10 -33q0 -37 1 -61l16 -298l223 459h74l56 -464l124 291q28 65 28 91q0 17 -21 23q-27 7 -65 12l8 48q96 -2 129 -2q54 0 122 2l-7 -48
q-52 -5 -66 -19q-4 -4 -7.5 -8.5t-6.5 -9.5t-8 -16t-9 -20t-12.5 -28.5t-16.5 -36.5l-206 -462h-82l-57 456zM704 694l-29 -25l-109 84l-131 -83l-26 28l133 133q22 20 39 20q22 0 36 -22z" />
    <glyph glyph-name="wcircumflex" unicode="&#x175;" horiz-adv-x="683" 
d="M297 73v12q-100 -96 -177 -96q-63 0 -63 67q0 32 12 89l28 124q11 45 11 75q0 14 -11 14q-18 0 -50 -8l-10 38q94 50 162 50q30 0 30 -32q0 -24 -16 -97l-27 -122q-13 -55 -14 -81q0 -10 6.5 -17t17.5 -7q22 0 51 16.5t52 43.5l60 279l99 -4l-45 -229q-10 -53 -10 -79
q0 -27 24 -27q46 0 93 54q58 68 61 186q0 44 -30 74q41 39 73 39q20 0 28 -19q9 -27 9 -59q-2 -133 -91 -243q-45 -57 -101.5 -91t-108.5 -34q-33 0 -48 24t-15 60zM547 509l-33 -22l-88 103l-126 -103l-29 26l130 150q19 22 37 22q25 0 35 -22z" />
    <glyph glyph-name="Ycircumflex" unicode="&#x176;" horiz-adv-x="622" 
d="M416 -1q-100 2 -150 2q-46 0 -148 -2l9 48q69 4 83 20q7 8 14 48l28 155l-97 247q-19 50 -35 64q-15 13 -57 15l8 48q108 -2 142 -2q44 0 152 2l-8 -48q-27 -1 -61 -7q-21 -5 -21 -19q0 -27 24 -94l51 -137l108 144q52 68 52 90q0 12 -14 16q-11 3 -55 7l8 48
q86 -2 130 -2q19 0 99 2l-9 -48q-28 -3 -45 -15q-22 -16 -80 -90l-175 -219l-26 -154q-4 -19 -4 -39q0 -19 21 -23q21 -5 65 -9zM562 694l-29 -25l-109 84l-131 -83l-26 28l133 133q22 20 39 20q22 0 36 -22z" />
    <glyph glyph-name="ycircumflex" unicode="&#x177;" horiz-adv-x="520" 
d="M484 426l-92 -410q-15 -68 -42 -120.5t-58.5 -84t-69 -51.5t-70.5 -27t-66 -7t-56.5 11.5t-23.5 32.5q0 32 26 69q44 -27 116 -27q40 0 65.5 24t47.5 99q5 16 34 131q-31 -29 -87 -56q-45 -20 -85 -20q-34 0 -50 17.5t-16 46.5q0 31 15 101l24 108q12 58 14 79
q0 17 -12 17q-20 0 -49 -8l-11 37q38 21 87 35.5t72 14.5q35 0 35 -33q0 -26 -15 -86l-20 -89q-24 -109 -24 -118q0 -31 27 -31q45 0 102 36l75 315zM440 509l-33 -22l-88 103l-126 -103l-29 26l130 150q19 22 37 22q25 0 35 -22z" />
    <glyph glyph-name="Ydieresis" unicode="&#x178;" horiz-adv-x="622" 
d="M416 -1q-100 2 -150 2q-46 0 -148 -2l9 48q69 4 83 20q7 8 14 48l28 155l-97 247q-19 50 -35 64q-15 13 -57 15l8 48q108 -2 142 -2q44 0 152 2l-8 -48q-27 -1 -61 -7q-21 -5 -21 -19q0 -27 24 -94l51 -137l108 144q52 68 52 90q0 12 -14 16q-11 3 -55 7l8 48
q86 -2 130 -2q19 0 99 2l-9 -48q-28 -3 -45 -15q-22 -16 -80 -90l-175 -219l-26 -154q-4 -19 -4 -39q0 -19 21 -23q21 -5 65 -9zM368 761q-1 -29 -15.5 -46.5t-41.5 -17.5q-51 0 -51 53q0 30 16.5 47.5t42.5 17.5q49 0 49 -54zM544 761q-1 -29 -15.5 -46.5t-41.5 -17.5
q-51 0 -51 53q0 30 16.5 47.5t42.5 17.5q49 0 49 -54z" />
    <glyph glyph-name="Zacute" unicode="&#x179;" horiz-adv-x="595" 
d="M-9 1l6 37l438 548q-141 -2 -182.5 -5.5t-54.5 -10.5q-14 -9 -25.5 -28.5t-37.5 -77.5l-40 4q16 92 29 136q10 39 42 39h442l-6 -37l-436 -542q42 -3 103 -3q107 0 143.5 6t56.5 23q12 10 53 106l41 -4q-19 -112 -32 -156q-5 -19 -14.5 -27t-35.5 -8h-490zM338 680
l-26 31l117 109q38 36 58 36q14 0 26.5 -14.5t12.5 -34.5q0 -25 -49 -52z" />
    <glyph glyph-name="zacute" unicode="&#x17a;" horiz-adv-x="437" 
d="M409 163q-12 -73 -27 -125q-11 -38 -58 -38h-330l5 36l269 332q-80 0 -108 -4q-23 -3 -39 -26q-12 -15 -34 -66l-41 7q11 59 23 101q7 26 17.5 34t39.5 8h294l-8 -42l-270 -326q126 0 163 14q15 5 28 27q13 23 33 72zM234 494l-29 26l100 129q31 42 58 42q15 0 27.5 -12
t12.5 -31q0 -25 -42 -57z" />
    <glyph glyph-name="Zdotaccent" unicode="&#x17b;" horiz-adv-x="595" 
d="M-9 1l6 37l438 548q-141 -2 -182.5 -5.5t-54.5 -10.5q-14 -9 -25.5 -28.5t-37.5 -77.5l-40 4q16 92 29 136q10 39 42 39h442l-6 -37l-436 -542q42 -3 103 -3q107 0 143.5 6t56.5 23q12 10 53 106l41 -4q-19 -112 -32 -156q-5 -19 -14.5 -27t-35.5 -8h-490zM438 761
q-1 -29 -15.5 -46.5t-41.5 -17.5q-51 0 -51 53q0 30 16.5 47.5t42.5 17.5q49 0 49 -54z" />
    <glyph glyph-name="zdotaccent" unicode="&#x17c;" horiz-adv-x="437" 
d="M409 163q-12 -73 -27 -125q-11 -38 -58 -38h-330l5 36l269 332q-80 0 -108 -4q-23 -3 -39 -26q-12 -15 -34 -66l-41 7q11 59 23 101q7 26 17.5 34t39.5 8h294l-8 -42l-270 -326q126 0 163 14q15 5 28 27q13 23 33 72zM326 591q-1 -29 -15.5 -46.5t-41.5 -17.5
q-51 0 -51 53q0 30 16.5 47.5t42.5 17.5q49 0 49 -54z" />
    <glyph glyph-name="Zcaron" unicode="&#x17d;" horiz-adv-x="595" 
d="M-9 1l6 37l438 548q-141 -2 -182.5 -5.5t-54.5 -10.5q-14 -9 -25.5 -28.5t-37.5 -77.5l-40 4q16 92 29 136q10 39 42 39h442l-6 -37l-436 -542q42 -3 103 -3q107 0 143.5 6t56.5 23q12 10 53 106l41 -4q-19 -112 -32 -156q-5 -19 -14.5 -27t-35.5 -8h-490zM247 838l29 25
l110 -84l130 84l25 -29l-134 -132q-21 -21 -37 -21q-22 0 -35 20z" />
    <glyph glyph-name="zcaron" unicode="&#x17e;" horiz-adv-x="437" 
d="M409 163q-12 -73 -27 -125q-11 -38 -58 -38h-330l5 36l269 332q-80 0 -108 -4q-23 -3 -39 -26q-12 -15 -34 -66l-41 7q11 59 23 101q7 26 17.5 34t39.5 8h294l-8 -42l-270 -326q126 0 163 14q15 5 28 27q13 23 33 72zM142 661l32 22l89 -104l125 104l31 -26l-131 -150
q-20 -21 -38 -21q-25 0 -35 21z" />
    <glyph glyph-name="longs" unicode="&#x17f;" horiz-adv-x="280" 
d="M243 463l-76 -395q-26 -133 -65 -204q-32 -59 -86 -97.5t-123 -38.5q-18 0 -32 9.5t-14 26.5q0 31 18 61q26 -12 67 -12q37 0 58.5 16t32.5 60q10 40 42 216l43 245q-50 3 -74 7l8 45q7 2 25.5 5t29.5 6q18 4 25 29q28 121 62 174t89.5 84.5t120.5 31.5q48 0 74 -14
q15 -8 15 -25q0 -25 -30 -71q-42 29 -99 29t-81 -63q-12 -35 -30 -125z" />
    <glyph glyph-name="florin" unicode="&#x192;" horiz-adv-x="505" 
d="M432 320h-125l-32 -158q-29 -147 -58 -202q-74 -141 -210 -141q-33 0 -50 12t-17 28q0 26 23 59q40 -24 70 -24q41 0 57.5 19t34.5 75q13 42 30 139l35 193h-93l11 66h95q26 109 54 156q69 112 203 112q51 0 87 -18q19 -10 19 -33q0 -22 -34 -67q-52 48 -101 48
q-48 0 -73 -63q-15 -34 -33 -117l-4 -18h122z" />
    <glyph glyph-name="Aringacute" unicode="&#x1fa;" horiz-adv-x="670" 
d="M517 718q0 -61 -52 -88l84 -469q1 -7 3.5 -19t3.5 -19t3 -16.5t3.5 -15t4 -11.5t4.5 -10t5 -7q13 -12 62 -16l-10 -48q-90 2 -139 2q-51 0 -161 -2l8 48q53 6 71 14q22 9 22 34t-8 70l-11 63h-186l-32 -62q-39 -75 -39 -87q0 -16 20 -22q19 -5 71 -10l-9 -48
q-96 2 -138 2q-33 0 -125 -2l9 48q49 5 64 19q21 20 65 99l265 470q-36 25 -36 77q1 40 28 68t65 28q39 0 62 -24.5t23 -65.5zM254 288h147q-32 205 -33 214q-35 -71 -114 -214zM419 827l-21 32l93 86q29 26 46 26q16 0 25.5 -11t9.5 -28q0 -24 -38 -44zM473 717
q0 23 -13 36t-30 13q-19 0 -32.5 -14t-13.5 -37t11 -37t32 -14q19 0 32 14t14 39z" />
    <glyph glyph-name="aringacute" unicode="&#x1fb;" horiz-adv-x="499" 
d="M482 58q-97 -67 -166 -67q-45 0 -45 51q0 7 2 27q-98 -80 -175 -80q-83 0 -83 97q0 73 30 147t82 126q67 68 179 68q40 0 59 -4l17 35l77 -13l-51 -209q-21 -87 -21 -136q0 -24 17 -24q21 0 62 17zM274 111l49 218q1 5 1 18q0 11 -10 15q-15 6 -37 6q-49 0 -82 -48
q-30 -43 -46.5 -100t-16.5 -100q0 -44 36 -44q44 0 106 35zM398 588q0 -42 -27 -70t-67 -28q-38 0 -62 25t-24 67q0 40 27.5 68t66.5 28q40 0 63 -24.5t23 -65.5zM353 587q0 23 -13 36t-31 13t-32 -14t-14 -37t11.5 -37.5t32.5 -14.5q19 0 32.5 14.5t13.5 39.5zM315 701
l-30 27l100 128q21 26 32.5 34t25.5 8q16 0 28 -12t12 -31q0 -24 -43 -57z" />
    <glyph glyph-name="AEacute" unicode="&#x1fc;" horiz-adv-x="961" 
d="M257 -1q-94 2 -147 2q-13 0 -142 -3l9 49q45 5 67 18q38 21 100 97l293 361q21 25 23 44q0 14 -21 19q-23 5 -71 9l8 48h518q34 0 43 -8t9 -27q0 -50 -15 -137h-44q-7 77 -19 90q-20 21 -111 21q-45 0 -70 -2l-41 -225h9q64 0 89 3.5t37 14.5q12 9 35 66h43
q-10 -40 -40 -227h-43q0 60 -8 70t-31 12.5t-92 2.5h-9l-32 -171q-4 -20 -4 -31q0 -22 20 -28q34 -9 73 -9q102 0 130 28q20 18 66 104l40 -8q-29 -120 -50 -156q-8 -15 -22.5 -20.5t-45.5 -5.5h-430l8 47q63 4 73 17q14 18 26 89l15 81h-217l-57 -73q-22 -30 -36 -51
q-13 -20 -13 -33q0 -14 21 -20q17 -5 66 -10zM332 292h180l48 257q3 15 3 20q0 6 -6 6q-7 0 -13 -9q-14 -18 -41.5 -53.5t-74.5 -97t-96 -123.5zM647 680l-26 31l117 109q38 36 58 36q14 0 26.5 -14.5t12.5 -34.5q0 -25 -49 -52z" />
    <glyph glyph-name="aeacute" unicode="&#x1fd;" horiz-adv-x="659" 
d="M615 77q-53 -42 -114 -66t-101 -24q-97 0 -114 85q-106 -83 -189 -83q-82 0 -82 97q0 73 30 147t83 127q67 67 177 67q32 0 60 -4l17 45l73 -13l-9 -44q39 26 90 26t81 -24t30 -65q0 -64 -59.5 -98.5t-188.5 -57.5q-5 -27 -5 -56q0 -69 55 -69q67 0 145 44zM282 115
q1 23 16 102.5t23 109.5q3 18 3 21q0 11 -11 15q-13 5 -36 5q-48 0 -81 -47q-31 -44 -47.5 -101.5t-16.5 -99.5q0 -44 35 -44q46 0 115 39zM405 235q141 44 141 103q0 39 -39 39q-32 0 -54 -27q-28 -32 -48 -115zM377 494l-29 26l100 129q31 42 58 42q15 0 27.5 -12
t12.5 -31q0 -25 -42 -57z" />
    <glyph glyph-name="Oslashacute" unicode="&#x1fe;" horiz-adv-x="667" 
d="M82 -24l-42 37l61 71q-53 74 -53 187q0 170 107 288q43 48 105.5 72.5t128.5 24.5q98 0 163 -45l63 73l45 -39l-64 -74q58 -72 58 -189q0 -168 -91 -279q-45 -56 -109 -86.5t-136 -30.5q-110 0 -178 57zM524 384q0 52 -8 94l-312 -361q34 -69 117 -69q89 0 143 87
q26 44 43 115.5t17 133.5zM179 258q0 -39 5 -77l309 360q-34 54 -107 54q-85 0 -137 -80q-28 -42 -49 -115.5t-21 -141.5zM364 680l-26 31l117 109q38 36 58 36q14 0 26.5 -14.5t12.5 -34.5q0 -25 -49 -52z" />
    <glyph glyph-name="oslashacute" unicode="&#x1ff;" horiz-adv-x="465" 
d="M245 494l-29 26l100 129q19 26 31 34t27 8t27.5 -12t12.5 -31q0 -25 -42 -57zM42 -41l-39 35l49 57q-29 43 -29 105q0 122 63 201.5t184 79.5q55 0 93 -23l51 59l40 -33l-52 -61q31 -40 31 -101q0 -129 -62 -210t-182 -81q-57 0 -100 27zM277 88q18 31 33.5 95.5
t17.5 109.5l-189 -220q15 -33 57 -33q54 0 81 48zM183 338q-18 -30 -34 -88t-19 -108l186 216q-15 26 -53 26q-52 0 -80 -46z" />
    <glyph glyph-name="uni0218" unicode="&#x218;" horiz-adv-x="492" 
d="M78 204q23 -100 38 -118q30 -37 98 -37q121 0 121 88q0 29 -17 52.5t-56 50.5l-53 38q-63 44 -89.5 86.5t-26.5 94.5q0 95 67.5 146.5t187.5 51.5q65 0 114 -21q24 -11 24 -37q0 -61 -7 -145h-49q-7 61 -16 91q-5 22 -21 32q-30 19 -72 19q-51 0 -82 -22.5t-31 -67.5
t63 -95l55 -43q74 -59 101 -98t27 -88q0 -93 -66 -144.5t-182 -51.5q-92 0 -147 35q-25 15 -28 52q-3 30 -3 131h50zM136 -299l-24 33q73 54 73 94q0 17 -9 33t-9 32q0 20 13 33.5t36 13.5q57 0 57 -64q0 -91 -137 -175z" />
    <glyph glyph-name="uni0219" unicode="&#x219;" horiz-adv-x="355" 
d="M33 115q17 -21 55.5 -37t74.5 -16q56 0 56 36q0 12 -9.5 22t-35.5 30l-62 46q-50 38 -50 100q0 64 45.5 102t126.5 38q59 0 87 -16q16 -11 16 -26q0 -26 -27 -67q-18 15 -50.5 27.5t-58.5 12.5q-21 0 -32.5 -10t-11.5 -24q0 -20 34 -46l55 -41q37 -28 52 -52.5t15 -57.5
q0 -62 -49 -105.5t-138 -43.5q-65 0 -101 25q-23 17 -23 37q1 32 31 66zM63 -299l-24 33q73 54 73 94q0 17 -9 33t-9 32q0 20 13 33.5t36 13.5q57 0 57 -64q0 -91 -137 -175z" />
    <glyph glyph-name="uni021A" unicode="&#x21a;" horiz-adv-x="605" 
d="M409 -1q-66 2 -155 2q-72 0 -148 -2l8 48q72 7 85 24q8 10 17 60l82 454q-98 0 -122 -13q-14 -8 -27.5 -33.5t-40.5 -90.5l-45 3q19 107 35 164q7 28 35 28h471q18 0 24.5 -6t6.5 -23q0 -42 -19 -161l-47 -2q-7 101 -20 116q-14 17 -129 18l-83 -451q-7 -40 -7 -53
q0 -19 18 -23q33 -8 70 -11zM180 -299l-24 33q73 54 73 94q0 17 -9 33t-9 32q0 20 13 33.5t36 13.5q57 0 57 -64q0 -91 -137 -175z" />
    <glyph glyph-name="uni021B" unicode="&#x21b;" horiz-adv-x="315" 
d="M270 54q-96 -63 -161 -63q-31 0 -47.5 14.5t-16.5 51.5q0 33 18 115l38 178q-39 1 -74 7l8 45q9 2 29.5 6.5t26.5 5.5q19 4 30 18t23 42l27 62l78 7l-25 -127q55 0 105 -10l-9 -49q-42 -7 -106 -7l-39 -183q-13 -65 -13 -78q0 -18 16 -18q20 0 78 18zM34 -299l-24 33
q73 54 73 94q0 17 -9 33t-9 32q0 20 13 33.5t36 13.5q57 0 57 -64q0 -91 -137 -175z" />
    <glyph glyph-name="circumflex" unicode="&#x2c6;" horiz-adv-x="283" 
d="M288 509l-33 -22l-88 103l-126 -103l-29 26l130 150q19 22 37 22q25 0 35 -22z" />
    <glyph glyph-name="caron" unicode="&#x2c7;" horiz-adv-x="283" 
d="M14 661l32 22l89 -104l125 104l31 -26l-131 -150q-20 -21 -38 -21q-25 0 -35 21z" />
    <glyph glyph-name="breve" unicode="&#x2d8;" horiz-adv-x="283" 
d="M238 651l44 -2q-10 -73 -49.5 -113.5t-99.5 -40.5q-52 0 -82 30.5t-30 93.5q0 2 3 29l41 3q2 -36 21 -58t54 -22q72 0 98 80z" />
    <glyph glyph-name="dotaccent" unicode="&#x2d9;" horiz-adv-x="283" 
d="M206 591q-1 -29 -15.5 -46.5t-41.5 -17.5q-51 0 -51 53q0 30 16.5 47.5t42.5 17.5q49 0 49 -54z" />
    <glyph glyph-name="ring" unicode="&#x2da;" horiz-adv-x="283" 
d="M241 588q0 -42 -27 -70t-66 -28q-38 0 -62 25t-24 67q0 40 27 68t66 28t62.5 -24.5t23.5 -65.5zM196 587q0 23 -12.5 36t-30.5 13q-19 0 -33 -14t-14 -37t11.5 -37.5t32.5 -14.5q19 0 32.5 14.5t13.5 39.5z" />
    <glyph glyph-name="ogonek" unicode="&#x2db;" horiz-adv-x="283" 
d="M163 3h49q-54 -53 -77 -86t-24 -63q0 -47 45 -47q37 0 68 11l12 -40q-54 -35 -111 -35q-42 0 -64.5 25t-22.5 61q0 44 29.5 83t95.5 91z" />
    <glyph glyph-name="tilde" unicode="&#x2dc;" horiz-adv-x="283" 
d="M36 512l-32 13q14 45 39.5 77.5t56.5 32.5q18 0 52 -15l23 -11q26 -13 41 -13q14 0 24 10.5t26 37.5l32 -13q-35 -111 -82 -111q-14 0 -63 18l-23 9q-28 11 -40 11q-14 0 -25.5 -10t-28.5 -36z" />
    <glyph glyph-name="hungarumlaut" unicode="&#x2dd;" horiz-adv-x="286" 
d="M31 494l-33 23l78 136q28 50 53 50q14 0 26.5 -10t12.5 -26q0 -23 -33 -60zM169 495l-33 22l79 137q17 29 28.5 39t24.5 10t26 -10t13 -26q0 -22 -34 -60z" />
    <glyph glyph-name="uni0394" unicode="&#x394;" horiz-adv-x="643" 
d="M588 0h-602l-7 22l385 622h78l161 -623zM455 101l-97 401l-246 -401h343z" />
    <glyph glyph-name="uni03A9" unicode="&#x3a9;" horiz-adv-x="735" 
d="M308 0h-241q-22 0 -28 9t-6 28q2 91 14 169l38 2q10 -77 26 -95q12 -14 38.5 -18t95.5 -4l2 8q-64 27 -103 91t-39 148q0 139 92.5 229t233.5 90q114 0 180.5 -60t66.5 -174q0 -110 -58.5 -192.5t-159.5 -130.5l-2 -9q67 0 96.5 4.5t45.5 17.5q17 14 52 95l37 -2
q-13 -93 -32 -171q-3 -13 -6 -19t-11.5 -11t-23.5 -5h-246l15 113q161 99 161 314q0 87 -35 126.5t-89 39.5q-65 0 -110.5 -48t-63.5 -112t-18 -134q0 -136 94 -187z" />
    <glyph glyph-name="uni03BC" unicode="&#x3bc;" horiz-adv-x="574" 
d="M540 58q-101 -67 -168 -67q-26 0 -36 28q-5 13 -5 43q-22 -32 -49 -48.5t-49 -16.5q-35 0 -42 18q-9 -47 -19.5 -117t-12.5 -80q-9 -49 -66 -49q-49 0 -49 44q0 2 10 62l78 380q14 74 14 84q0 16 -10 16q-13 0 -52 -8l-10 37q39 21 86 36t72 15q36 0 36 -35
q0 -20 -16 -88l-25 -106q-17 -77 -17 -98q0 -31 30 -31q32 0 93 32l70 317l104 -6l-51 -238q-10 -50 -10 -77q0 -28 15 -28q23 0 65 17z" />
    <glyph glyph-name="pi" unicode="&#x3c0;" horiz-adv-x="583" 
d="M261 -1q-74 2 -129 2q-47 0 -129 -2l9 51q54 6 67 19q9 9 16 49l35 188q4 21 4 37q0 18 -15 23q-14 4 -56 7l8 50q80 -2 264 -2q164 0 242 2l-8 -50q-58 -6 -67 -16q-8 -10 -15 -48l-30 -158q-6 -32 -6 -53q0 -39 34 -39q24 0 39 4l6 -48q-48 -20 -108 -20q-36 0 -59 21
t-23 60q0 22 8 68l33 181q2 14 2 21q0 12 -7 15q-18 6 -58 6q-50 0 -62 -4q-12 -5 -16 -28l-38 -214q-6 -29 -6 -40q0 -18 17 -22q16 -4 59 -9z" />
    <glyph glyph-name="Wgrave" unicode="&#x1e80;" horiz-adv-x="923" 
d="M264 -4h-80l-36 504q-5 74 -21 84q-13 8 -56 12l8 48q122 -2 149 -2q120 0 158 2l-10 -48q-42 -3 -61 -7q-22 -4 -32 -13t-10 -33q0 -37 1 -61l16 -298l223 459h74l56 -464l124 291q28 65 28 91q0 17 -21 23q-27 7 -65 12l8 48q96 -2 129 -2q54 0 122 2l-7 -48
q-52 -5 -66 -19q-4 -4 -7.5 -8.5t-6.5 -9.5t-8 -16t-9 -20t-12.5 -28.5t-16.5 -36.5l-206 -462h-82l-57 456zM635 709l-30 -30l-110 83q-40 30 -40 54q0 19 14.5 33.5t32.5 14.5q13 0 24 -8.5t29 -34.5z" />
    <glyph glyph-name="wgrave" unicode="&#x1e81;" horiz-adv-x="683" 
d="M297 73v12q-100 -96 -177 -96q-63 0 -63 67q0 32 12 89l28 124q11 45 11 75q0 14 -11 14q-18 0 -50 -8l-10 38q94 50 162 50q30 0 30 -32q0 -24 -16 -97l-27 -122q-13 -55 -14 -81q0 -10 6.5 -17t17.5 -7q22 0 51 16.5t52 43.5l60 279l99 -4l-45 -229q-10 -53 -10 -79
q0 -27 24 -27q46 0 93 54q58 68 61 186q0 44 -30 74q41 39 73 39q20 0 28 -19q9 -27 9 -59q-2 -133 -91 -243q-45 -57 -101.5 -91t-108.5 -34q-33 0 -48 24t-15 60zM465 519l-35 -25l-96 112q-30 36 -30 59q0 17 15.5 30t33.5 13q14 0 24.5 -11.5t24.5 -41.5z" />
    <glyph glyph-name="Wacute" unicode="&#x1e82;" horiz-adv-x="923" 
d="M264 -4h-80l-36 504q-5 74 -21 84q-13 8 -56 12l8 48q122 -2 149 -2q120 0 158 2l-10 -48q-42 -3 -61 -7q-22 -4 -32 -13t-10 -33q0 -37 1 -61l16 -298l223 459h74l56 -464l124 291q28 65 28 91q0 17 -21 23q-27 7 -65 12l8 48q96 -2 129 -2q54 0 122 2l-7 -48
q-52 -5 -66 -19q-4 -4 -7.5 -8.5t-6.5 -9.5t-8 -16t-9 -20t-12.5 -28.5t-16.5 -36.5l-206 -462h-82l-57 456zM526 680l-26 31l117 109q38 36 58 36q14 0 26.5 -14.5t12.5 -34.5q0 -25 -49 -52z" />
    <glyph glyph-name="wacute" unicode="&#x1e83;" horiz-adv-x="683" 
d="M297 73v12q-100 -96 -177 -96q-63 0 -63 67q0 32 12 89l28 124q11 45 11 75q0 14 -11 14q-18 0 -50 -8l-10 38q94 50 162 50q30 0 30 -32q0 -24 -16 -97l-27 -122q-13 -55 -14 -81q0 -10 6.5 -17t17.5 -7q22 0 51 16.5t52 43.5l60 279l99 -4l-45 -229q-10 -53 -10 -79
q0 -27 24 -27q46 0 93 54q58 68 61 186q0 44 -30 74q41 39 73 39q20 0 28 -19q9 -27 9 -59q-2 -133 -91 -243q-45 -57 -101.5 -91t-108.5 -34q-33 0 -48 24t-15 60zM370 494l-29 26l100 129q31 42 58 42q15 0 27.5 -12t12.5 -31q0 -25 -42 -57z" />
    <glyph glyph-name="Wdieresis" unicode="&#x1e84;" horiz-adv-x="923" 
d="M264 -4h-80l-36 504q-5 74 -21 84q-13 8 -56 12l8 48q122 -2 149 -2q120 0 158 2l-10 -48q-42 -3 -61 -7q-22 -4 -32 -13t-10 -33q0 -37 1 -61l16 -298l223 459h74l56 -464l124 291q28 65 28 91q0 17 -21 23q-27 7 -65 12l8 48q96 -2 129 -2q54 0 122 2l-7 -48
q-52 -5 -66 -19q-4 -4 -7.5 -8.5t-6.5 -9.5t-8 -16t-9 -20t-12.5 -28.5t-16.5 -36.5l-206 -462h-82l-57 456zM530 761q-1 -29 -15.5 -46.5t-41.5 -17.5q-51 0 -51 53q0 30 16.5 47.5t42.5 17.5q49 0 49 -54zM706 761q-1 -29 -15.5 -46.5t-41.5 -17.5q-51 0 -51 53
q0 30 16.5 47.5t42.5 17.5q49 0 49 -54z" />
    <glyph glyph-name="wdieresis" unicode="&#x1e85;" horiz-adv-x="683" 
d="M297 73v12q-100 -96 -177 -96q-63 0 -63 67q0 32 12 89l28 124q11 45 11 75q0 14 -11 14q-18 0 -50 -8l-10 38q94 50 162 50q30 0 30 -32q0 -24 -16 -97l-27 -122q-13 -55 -14 -81q0 -10 6.5 -17t17.5 -7q22 0 51 16.5t52 43.5l60 279l99 -4l-45 -229q-10 -53 -10 -79
q0 -27 24 -27q46 0 93 54q58 68 61 186q0 44 -30 74q41 39 73 39q20 0 28 -19q9 -27 9 -59q-2 -133 -91 -243q-45 -57 -101.5 -91t-108.5 -34q-33 0 -48 24t-15 60zM395 591q-1 -29 -15.5 -46.5t-41.5 -17.5q-51 0 -51 53q0 30 16.5 47.5t42.5 17.5q49 0 49 -54zM556 591
q-1 -29 -15.5 -46.5t-41.5 -17.5q-51 0 -51 53q0 30 16.5 47.5t42.5 17.5q49 0 49 -54z" />
    <glyph glyph-name="Ygrave" unicode="&#x1ef2;" horiz-adv-x="622" 
d="M416 -1q-100 2 -150 2q-46 0 -148 -2l9 48q69 4 83 20q7 8 14 48l28 155l-97 247q-19 50 -35 64q-15 13 -57 15l8 48q108 -2 142 -2q44 0 152 2l-8 -48q-27 -1 -61 -7q-21 -5 -21 -19q0 -27 24 -94l51 -137l108 144q52 68 52 90q0 12 -14 16q-11 3 -55 7l8 48
q86 -2 130 -2q19 0 99 2l-9 -48q-28 -3 -45 -15q-22 -16 -80 -90l-175 -219l-26 -154q-4 -19 -4 -39q0 -19 21 -23q21 -5 65 -9zM466 709l-30 -30l-110 83q-40 30 -40 54q0 19 14.5 33.5t32.5 14.5q13 0 24 -8.5t29 -34.5z" />
    <glyph glyph-name="ygrave" unicode="&#x1ef3;" horiz-adv-x="520" 
d="M484 426l-92 -410q-15 -68 -42 -120.5t-58.5 -84t-69 -51.5t-70.5 -27t-66 -7t-56.5 11.5t-23.5 32.5q0 32 26 69q44 -27 116 -27q40 0 65.5 24t47.5 99q5 16 34 131q-31 -29 -87 -56q-45 -20 -85 -20q-34 0 -50 17.5t-16 46.5q0 31 15 101l24 108q12 58 14 79
q0 17 -12 17q-20 0 -49 -8l-11 37q38 21 87 35.5t72 14.5q35 0 35 -33q0 -26 -15 -86l-20 -89q-24 -109 -24 -118q0 -31 27 -31q45 0 102 36l75 315zM356 519l-35 -25l-96 112q-30 36 -30 59q0 17 15.5 30t33.5 13q14 0 24.5 -11.5t24.5 -41.5z" />
    <glyph glyph-name="endash" unicode="&#x2013;" horiz-adv-x="583" 
d="M59 277h485l-16 -81h-483z" />
    <glyph glyph-name="emdash" unicode="&#x2014;" horiz-adv-x="813" 
d="M59 277h714l-15 -81h-713z" />
    <glyph glyph-name="quoteleft" unicode="&#x2018;" horiz-adv-x="180" 
d="M209 680l27 -40q-49 -36 -69.5 -61.5t-20.5 -51.5q0 -19 13 -39t13 -39q0 -23 -16 -39t-43 -16q-63 0 -63 74q0 113 159 212z" />
    <glyph glyph-name="quoteright" unicode="&#x2019;" horiz-adv-x="186" 
d="M59 390l-28 39q49 37 70 62t21 52q0 18 -13 38t-13 40q0 22 16.5 38t42.5 16q63 0 63 -75q-1 -113 -159 -210z" />
    <glyph glyph-name="quotesinglbase" unicode="&#x201a;" horiz-adv-x="180" 
d="M-51 -182l-27 41q48 35 68 60.5t20 52.5q0 18 -13 38.5t-13 40.5q0 22 16.5 38t43.5 16q63 0 63 -76q0 -111 -158 -211z" />
    <glyph glyph-name="quotedblleft" unicode="&#x201c;" horiz-adv-x="341" 
d="M372 680l28 -40q-49 -36 -69.5 -61.5t-20.5 -51.5q0 -19 13.5 -39t13.5 -39q0 -22 -17 -38.5t-43 -16.5q-63 0 -63 74q0 112 158 212zM209 680l27 -40q-49 -36 -69.5 -61.5t-20.5 -51.5q0 -19 13 -39t13 -39q0 -23 -16 -39t-43 -16q-63 0 -63 74q0 113 159 212z" />
    <glyph glyph-name="quotedblright" unicode="&#x201d;" horiz-adv-x="341" 
d="M59 390l-28 39q49 37 70 62t21 52q0 18 -13 38t-13 40q0 22 16.5 38t42.5 16q63 0 63 -75q-1 -113 -159 -210zM223 390l-29 39q49 36 69.5 61.5t21.5 52.5q0 18 -13 38t-13 40q0 22 16.5 38t42.5 16q63 0 63 -75q0 -112 -158 -210z" />
    <glyph glyph-name="quotedblbase" unicode="&#x201e;" horiz-adv-x="341" 
d="M-51 -182l-27 41q48 35 68 60.5t20 52.5q0 18 -13 38.5t-13 40.5q0 22 16.5 38t43.5 16q63 0 63 -76q0 -111 -158 -211zM112 -182l-28 41q49 35 70 60.5t21 52.5q0 18 -13.5 38t-13.5 41q0 22 16.5 38t43.5 16q63 0 63 -76q0 -112 -159 -211z" />
    <glyph glyph-name="dagger" unicode="&#x2020;" horiz-adv-x="363" 
d="M174 -76h-84q12 63 41 221.5t47 249.5q-47 -2 -141 -2l17 86q92 0 138 -2q6 38 17.5 105.5t13.5 79.5h85q-20 -110 -35 -185q47 2 144 2l-15 -86q-97 0 -144 2q-38 -219 -84 -471z" />
    <glyph glyph-name="daggerdbl" unicode="&#x2021;" horiz-adv-x="414" 
d="M195 -79h-88q26 142 41 216q-46 -2 -144 -2l15 88q97 0 145 -2q8 53 34 190q-49 -2 -145 -2l15 89q99 0 146 -2q15 101 33 194h87q-28 -150 -37 -194q50 2 151 2l-17 -89q-98 0 -149 2q-16 -102 -34 -190q50 2 150 2l-15 -88q-99 0 -150 2q-24 -139 -38 -216z" />
    <glyph glyph-name="bullet" unicode="&#x2022;" horiz-adv-x="342" 
d="M318 298q0 -64 -41 -107.5t-104 -43.5q-57 0 -91 37.5t-34 94.5q0 64 39.5 106t101.5 42q60 0 94.5 -36t34.5 -93z" />
    <glyph glyph-name="ellipsis" unicode="&#x2026;" horiz-adv-x="846" 
d="M172 64q-1 -34 -21 -53.5t-51 -19.5q-30 0 -48.5 19.5t-18.5 50.5q0 30 20 50.5t50 20.5q31 0 50 -19t19 -49zM453 64q-1 -34 -20.5 -53.5t-51.5 -19.5q-29 0 -46.5 19.5t-17.5 50.5q0 30 19 50.5t49 20.5q31 0 49.5 -19t18.5 -49zM735 64q-1 -34 -20.5 -53.5
t-49.5 -19.5t-48 19.5t-18 50.5q0 30 19.5 50.5t49.5 20.5t48.5 -19t18.5 -49z" />
    <glyph glyph-name="perthousand" unicode="&#x2030;" horiz-adv-x="1182" 
d="M367 481q0 -106 -56 -181q-51 -68 -126 -68q-62 0 -98 40.5t-36 111.5q0 46 15.5 99t45.5 89q53 62 123 62q64 0 98 -40.5t34 -112.5zM286 510q0 39 -10.5 59.5t-41.5 20.5q-41 0 -67 -57q-15 -32 -25.5 -83.5t-10.5 -87.5q0 -86 55 -86q40 0 62 47q17 36 27.5 93.5
t10.5 93.5zM284 -3h-55l330 639h55zM789 240q0 -106 -56 -181q-50 -68 -126 -68q-62 0 -98 40.5t-36 111.5q0 46 16 99t46 89q51 62 122 62q64 0 98 -40.5t34 -112.5zM709 269q0 38 -11 59t-42 21q-40 0 -67 -57q-15 -32 -25.5 -83.5t-10.5 -87.5q0 -86 55 -86q41 0 62 47
q17 37 28 94.5t11 92.5zM1158 240q0 -106 -56 -181q-51 -68 -126 -68q-62 0 -98 40.5t-36 111.5q0 46 15.5 99t45.5 89q53 62 123 62q64 0 98 -40.5t34 -112.5zM1077 269q0 39 -10.5 59.5t-41.5 20.5q-41 0 -67 -57q-15 -32 -25.5 -83.5t-10.5 -87.5q0 -86 55 -86
q40 0 62 47q17 36 27.5 93.5t10.5 93.5z" />
    <glyph glyph-name="guilsinglleft" unicode="&#x2039;" horiz-adv-x="253" 
d="M194 48l-33 -24l-136 162q-11 13 -11 26q0 18 16 30l194 158l30 -31l-140 -159z" />
    <glyph glyph-name="guilsinglright" unicode="&#x203a;" horiz-adv-x="253" 
d="M56 375l32 24l136 -163q11 -15 11 -26q0 -17 -16 -29l-195 -158l-27 32l138 157z" />
    <glyph glyph-name="fraction" unicode="&#x2044;" horiz-adv-x="82" 
d="M-79 -3h-55l330 639h55z" />
    <glyph glyph-name="zero.superior" unicode="&#x2070;" 
d="M392 640q0 -108 -56 -181q-50 -68 -125 -68q-62 0 -98 40.5t-36 111.5q0 46 15.5 99t45.5 89q52 61 122 61q64 0 98 -40t34 -112zM312 669q0 38 -11 58.5t-41 20.5q-40 0 -67 -57q-15 -32 -26 -83t-11 -87q0 -86 55 -86q41 0 62 46q17 37 28 94.5t11 93.5z" />
    <glyph glyph-name="four.superior" unicode="&#x2074;" 
d="M323 549h60l-11 -62h-59l-18 -105h-77l19 105h-180l7 41l236 265h68q-3 -15 -10.5 -55.5t-9.5 -52.5zM143 549h105q18 99 32 158z" />
    <glyph glyph-name="five.superior" unicode="&#x2075;" 
d="M191 667q84 -5 123 -37.5t39 -83.5q0 -43 -26.5 -78t-66.5 -54t-80.5 -29t-75.5 -10q-32 0 -32 30q0 15 4 25q107 0 149 19t42 75q0 69 -143 77l71 192h198l-25 -73h-158z" />
    <glyph glyph-name="six.superior" unicode="&#x2076;" 
d="M177 617q17 16 44 26.5t51 10.5q54 0 78 -31.5t24 -76.5q0 -67 -43 -111t-121 -44q-65 0 -96.5 40t-31.5 99q0 101 81 184q73 76 207 109l12 -36q-84 -32 -129.5 -69t-75.5 -101zM169 568q-7 -27 -7 -53q0 -85 55 -85q37 0 57.5 32t20.5 75q0 70 -56 70
q-19 0 -39.5 -11.5t-30.5 -27.5z" />
    <glyph glyph-name="seven.superior" unicode="&#x2077;" 
d="M315 728h-212l13 63h271l3 -14l-247 -407l-47 19z" />
    <glyph glyph-name="eight.superior" unicode="&#x2078;" 
d="M196 577q-58 -30 -58 -84q0 -28 18.5 -46t50.5 -18q29 0 49 17.5t20 43.5q0 22 -17.5 41t-62.5 46zM174 596q-44 34 -44 92q1 45 35.5 76.5t95.5 31.5t90 -24t29 -64q0 -64 -89 -94q69 -49 69 -107q-1 -50 -43 -83t-107 -33q-60 0 -96 29t-36 72q0 77 96 104zM265 633
q58 27 58 77q0 21 -15.5 35t-44.5 14q-27 0 -42.5 -15.5t-15.5 -38.5q0 -38 60 -72z" />
    <glyph glyph-name="nine.superior" unicode="&#x2079;" 
d="M286 573q-15 -15 -42.5 -25.5t-51.5 -10.5q-54 0 -78.5 31t-24.5 76q0 67 43 111t121 44q66 0 97 -40t31 -99q0 -101 -80 -184q-75 -76 -207 -109l-12 36q84 32 129.5 69t74.5 101zM295 622q6 28 6 54q0 85 -56 85q-37 0 -57 -32.5t-20 -76.5q0 -69 56 -69q19 0 40 11.5
t31 27.5z" />
    <glyph glyph-name="parenleft.superior" unicode="&#x207d;" horiz-adv-x="216" 
d="M245 315l-23 -24q-55 46 -85.5 112t-30.5 141q0 93 56 182t161 156l18 -26q-41 -39 -66.5 -67.5t-50 -67t-35.5 -82.5t-11 -98q0 -127 67 -226z" />
    <glyph glyph-name="parenright.superior" unicode="&#x207e;" horiz-adv-x="216" 
d="M83 859l22 22q55 -45 85.5 -111t30.5 -141q0 -93 -55.5 -182t-160.5 -155l-18 26q41 39 66.5 67.5t50 67t35.5 82.5t11 98q0 123 -67 226z" />
    <glyph glyph-name="zero.inferior" unicode="&#x2080;" 
d="M304 97q0 -108 -56 -181q-50 -68 -125 -68q-62 0 -98 40.5t-36 111.5q0 46 15.5 99t45.5 89q52 61 122 61q64 0 98 -40t34 -112zM224 126q0 38 -11 58.5t-41 20.5q-40 0 -67 -57q-15 -32 -26 -83t-11 -87q0 -86 55 -86q41 0 62 46q17 37 28 94.5t11 93.5z" />
    <glyph glyph-name="one.inferior" unicode="&#x2081;" 
d="M226 -144q-52 2 -100 2q-52 0 -106 -2l6 38q46 4 56 14q7 5 13 36l25 142q7 41 9 63q0 18 -12 18q-19 0 -45 -4l-5 32q3 1 66.5 25t89.5 36l11 -9q-11 -51 -30 -155l-26 -148q-4 -22 -4 -26q0 -12 12 -16q6 -2 21.5 -4t24.5 -4z" />
    <glyph glyph-name="two.inferior" unicode="&#x2082;" 
d="M252 -143h-290l7 51q132 79 184 131.5t52 99.5q0 26 -15.5 40t-42.5 14q-45 0 -102 -44l-21 36q32 30 74 48.5t78 18.5q55 0 82.5 -27t27.5 -70q0 -66 -48.5 -115t-169.5 -114q54 2 196 2z" />
    <glyph glyph-name="three.inferior" unicode="&#x2083;" 
d="M169 75q92 -3 92 -78q0 -41 -29.5 -74.5t-72.5 -52t-84 -28t-71 -9.5q-27 0 -27 28q0 16 5 28q101 0 148.5 19t47.5 76q0 27 -18 42t-47 15q-21 0 -49 -5v41q67 10 96.5 30t29.5 53q0 39 -42 39q-45 0 -92 -33l-19 37q75 49 140 49q46 0 69 -21.5t23 -51.5
q0 -75 -100 -104z" />
    <glyph glyph-name="four.inferior" unicode="&#x2084;" 
d="M235 6h60l-11 -62h-59l-18 -105h-77l19 105h-180l7 41l236 265h68q-3 -15 -10.5 -55.5t-9.5 -52.5zM55 6h105q18 99 32 158z" />
    <glyph glyph-name="five.inferior" unicode="&#x2085;" 
d="M103 124q84 -5 123 -37.5t39 -83.5q0 -43 -26.5 -78t-66.5 -54t-80.5 -29t-75.5 -10q-32 0 -32 30q0 15 4 25q107 0 149 19t42 75q0 69 -143 77l71 192h198l-25 -73h-158z" />
    <glyph glyph-name="six.inferior" unicode="&#x2086;" 
d="M89 74q17 16 44 26.5t51 10.5q54 0 78 -31.5t24 -76.5q0 -67 -43 -111t-121 -44q-65 0 -96.5 40t-31.5 99q0 101 81 184q73 76 207 109l12 -36q-84 -32 -129.5 -69t-75.5 -101zM81 25q-7 -27 -7 -53q0 -85 55 -85q37 0 57.5 32t20.5 75q0 70 -56 70q-19 0 -39.5 -11.5
t-30.5 -27.5z" />
    <glyph glyph-name="seven.inferior" unicode="&#x2087;" 
d="M227 185h-212l13 63h271l3 -14l-247 -407l-47 19z" />
    <glyph glyph-name="eight.inferior" unicode="&#x2088;" 
d="M108 34q-58 -30 -58 -84q0 -28 18.5 -46t50.5 -18q29 0 49 17.5t20 43.5q0 22 -17.5 41t-62.5 46zM86 53q-44 34 -44 92q1 45 35.5 76.5t95.5 31.5t90 -24t29 -64q0 -64 -89 -94q69 -49 69 -107q-1 -50 -43 -83t-107 -33q-60 0 -96 29t-36 72q0 77 96 104zM177 90
q58 27 58 77q0 21 -15.5 35t-44.5 14q-27 0 -42.5 -15.5t-15.5 -38.5q0 -38 60 -72z" />
    <glyph glyph-name="nine.inferior" unicode="&#x2089;" 
d="M198 30q-15 -15 -42.5 -25.5t-51.5 -10.5q-54 0 -78.5 31t-24.5 76q0 67 43 111t121 44q66 0 97 -40t31 -99q0 -101 -80 -184q-75 -76 -207 -109l-12 36q84 32 129.5 69t74.5 101zM207 79q6 28 6 54q0 85 -56 85q-37 0 -57 -32.5t-20 -76.5q0 -69 56 -69q19 0 40 11.5
t31 27.5z" />
    <glyph glyph-name="parenleft.inferior" unicode="&#x208d;" horiz-adv-x="216" 
d="M157 -228l-23 -24q-55 46 -85.5 112t-30.5 141q0 93 56 182t161 156l18 -26q-41 -39 -66.5 -67.5t-50 -67t-35.5 -82.5t-11 -98q0 -127 67 -226z" />
    <glyph glyph-name="parenright.inferior" unicode="&#x208e;" horiz-adv-x="216" 
d="M-5 316l22 22q55 -45 85.5 -111t30.5 -141q0 -93 -55.5 -182t-160.5 -155l-18 26q41 39 66.5 67.5t50 67t35.5 82.5t11 98q0 123 -67 226z" />
    <glyph glyph-name="Euro" unicode="&#x20ac;" horiz-adv-x="627" 
d="M474 230h-195v-8q0 -76 35 -115t88 -39q90 0 168 48l22 -45q-122 -83 -231 -83q-103 0 -153.5 59.5t-50.5 167.5v15h-71l11 53h63q4 35 12 64h-65l8 52h73q39 109 118.5 175t197.5 66q80 0 123 -27q20 -12 20 -36q0 -25 -39 -75q-57 71 -141 71q-63 0 -104.5 -49
t-60.5 -125h200l-10 -52h-202q-9 -34 -10 -64h203z" />
    <glyph glyph-name="afii61289" unicode="&#x2113;" horiz-adv-x="447" 
d="M384 38q-96 -50 -173 -50q-62 0 -96.5 34t-34.5 92q0 29 3 46q-34 -18 -54 -27l-19 61q52 22 87 40q13 70 24.5 118.5t33.5 106.5t48.5 93.5t68 59.5t94.5 24q55 0 85 -31.5t30 -75.5q0 -45 -19 -87t-45 -72.5t-69 -63t-74.5 -51.5t-78.5 -44q-9 -45 -9 -68q0 -78 65 -78
q40 0 107 35zM213 291q77 47 129.5 109t52.5 125q0 45 -42 45q-95 0 -140 -279z" />
    <glyph glyph-name="trademark" unicode="&#x2122;" horiz-adv-x="709" 
d="M254 359q-40 2 -78 2q-17 0 -77 -2l5 28q40 6 44 12q3 4 8 29l33 183q-38 0 -50 -6q-11 -6 -32 -54l-24 2q7 41 16 71q7 19 20 19h216q16 0 16 -20q0 -25 -5 -70h-25q-5 39 -12 48q-7 10 -60 10l-33 -174q-3 -15 -3 -28t13 -16q16 -4 34 -6zM458 360q-21 1 -64 1
q-44 0 -67 -1l4 27q33 4 40 9q6 4 11 27q4 16 35 150q3 12 3 26q0 10 -12 13q-5 2 -29 4l5 28q21 -1 66 -1q37 0 43 1q38 -173 42 -192q12 23 45 81t62 111q11 -1 52 -1q36 0 50 1l-5 -28q-30 -3 -36 -9q-5 -5 -9 -22q-9 -56 -21 -152q-2 -12 -2 -24q0 -9 2.5 -12.5
t10.5 -5.5q3 -1 28 -4l-4 -27q-12 0 -41 0.5t-34 0.5t-31 -0.5t-41 -0.5l5 27q34 5 38 8q5 4 9 23q1 6 8.5 55.5t15.5 92.5q-6 -10 -14.5 -25t-37.5 -65.5t-67 -115.5h-22q-39 173 -45 209q-29 -122 -32 -147q-2 -8 -2 -16q0 -12 12 -14q16 -3 34 -5z" />
    <glyph glyph-name="Omega" unicode="&#x2126;" horiz-adv-x="735" 
d="M308 0h-241q-22 0 -28 9t-6 28q2 91 14 169l38 2q10 -77 26 -95q12 -14 38.5 -18t95.5 -4l2 8q-64 27 -103 91t-39 148q0 139 92.5 229t233.5 90q114 0 180.5 -60t66.5 -174q0 -110 -58.5 -192.5t-159.5 -130.5l-2 -9q67 0 96.5 4.5t45.5 17.5q17 14 52 95l37 -2
q-13 -93 -32 -171q-3 -13 -6 -19t-11.5 -11t-23.5 -5h-246l15 113q161 99 161 314q0 87 -35 126.5t-89 39.5q-65 0 -110.5 -48t-63.5 -112t-18 -134q0 -136 94 -187z" />
    <glyph glyph-name="estimated" unicode="&#x212e;" horiz-adv-x="765" 
d="M746 312h-559q-4 0 -4 -5v-183q0 -12 6 -20q86 -97 210 -97q65 0 123 28.5t99 79.5h52q-48 -60 -121 -95t-155 -35q-143 0 -243.5 98.5t-98.5 237.5q1 90 48.5 167t128 122t174.5 45q142 0 241 -97t99 -237v-9zM621 336l3 184q0 13 -9 22q-87 92 -208 92q-123 0 -213 -96
q-9 -9 -9 -23v-179q0 -5 4 -5h427q5 0 5 5z" />
    <glyph glyph-name="onethird" unicode="&#x2153;" horiz-adv-x="821" 
d="M284 -3h-55l330 639h55zM289 240q-52 2 -99 2q-52 0 -106 -2l5 38q48 5 57 14q7 6 13 36l24 142q7 41 9 63q0 18 -12 18q-5 0 -44 -3l-6 31q151 59 156 61l12 -9q-11 -47 -31 -154l-26 -148q-3 -18 -3 -27q0 -13 12 -16q5 -2 20.5 -4t24.5 -4zM647 218q92 -3 92 -78
q0 -41 -29.5 -74.5t-72.5 -52t-84 -28t-71 -9.5q-27 0 -27 28q0 16 5 28q101 0 148.5 19t47.5 76q0 27 -18 42t-47 15q-21 0 -49 -5v41q67 10 96.5 30t29.5 53q0 39 -42 39q-45 0 -92 -33l-19 37q75 49 140 49q46 0 69 -21.5t23 -51.5q0 -75 -100 -104z" />
    <glyph glyph-name="twothirds" unicode="&#x2154;" horiz-adv-x="821" 
d="M330 -3h-55l330 639h55zM355 241h-290l7 51q132 79 183.5 131.5t51.5 99.5q0 26 -15 40t-42 14q-49 0 -102 -44l-22 36q74 67 153 67q55 0 82.5 -27t27.5 -70q0 -66 -48.5 -114.5t-169.5 -113.5q54 1 196 1zM679 218q92 -3 92 -78q0 -41 -29.5 -74.5t-72.5 -52t-84 -28
t-71 -9.5q-27 0 -27 28q0 16 5 28q101 0 148.5 19t47.5 76q0 27 -18 42t-47 15q-21 0 -49 -5v41q67 10 96.5 30t29.5 53q0 39 -42 39q-45 0 -92 -33l-19 37q75 49 140 49q46 0 69 -21.5t23 -51.5q0 -75 -100 -104z" />
    <glyph glyph-name="oneeighth" unicode="&#x215b;" horiz-adv-x="821" 
d="M279 -3h-55l330 639h55zM282 240q-52 2 -99 2q-52 0 -106 -2l5 38q48 5 57 14q7 6 13 36l24 142q7 41 9 63q0 18 -12 18q-5 0 -44 -3l-6 31q151 59 156 61l12 -9q-11 -47 -31 -154l-26 -148q-3 -18 -3 -27q0 -13 12 -16q5 -2 20.5 -4t24.5 -4zM574 177q-58 -30 -58 -84
q0 -28 18.5 -46t50.5 -18q29 0 49 17.5t20 43.5q0 22 -17.5 41t-62.5 46zM552 196q-44 34 -44 92q1 45 35.5 76.5t95.5 31.5t90 -24t29 -64q0 -64 -89 -94q69 -49 69 -107q-1 -50 -43 -83t-107 -33q-60 0 -96 29t-36 72q0 77 96 104zM643 233q58 27 58 77q0 21 -15.5 35
t-44.5 14q-27 0 -42.5 -15.5t-15.5 -38.5q0 -38 60 -72z" />
    <glyph glyph-name="threeeighths" unicode="&#x215c;" horiz-adv-x="821" 
d="M282 -3h-55l330 639h55zM241 459q93 -1 93 -78q0 -41 -29.5 -74.5t-72.5 -52t-84 -28t-72 -9.5q-25 0 -27 28q0 19 6 28q100 0 148 19.5t48 75.5q0 27 -18 42t-47 15q-23 0 -50 -5v42q67 9 96.5 28.5t29.5 53.5q0 40 -42 40q-43 0 -92 -34l-18 37q75 49 140 49
q45 0 68.5 -21.5t23.5 -51.5q0 -73 -101 -104zM578 177q-58 -30 -58 -84q0 -28 18.5 -46t50.5 -18q29 0 49 17.5t20 43.5q0 22 -17.5 41t-62.5 46zM556 196q-44 34 -44 92q1 45 35.5 76.5t95.5 31.5t90 -24t29 -64q0 -64 -89 -94q69 -49 69 -107q-1 -50 -43 -83t-107 -33
q-60 0 -96 29t-36 72q0 77 96 104zM647 233q58 27 58 77q0 21 -15.5 35t-44.5 14q-27 0 -42.5 -15.5t-15.5 -38.5q0 -38 60 -72z" />
    <glyph glyph-name="fiveeighths" unicode="&#x215d;" horiz-adv-x="821" 
d="M292 -3h-55l330 639h55zM186 508q162 -10 162 -121q0 -43 -26 -77.5t-66 -54t-80.5 -29.5t-75.5 -10q-33 0 -33 30q0 6 4 26q107 0 149 19t42 74q0 70 -142 78l70 191h198l-24 -73h-158zM592 177q-58 -30 -58 -84q0 -28 18.5 -46t50.5 -18q29 0 49 17.5t20 43.5
q0 22 -17.5 41t-62.5 46zM570 196q-44 34 -44 92q1 45 35.5 76.5t95.5 31.5t90 -24t29 -64q0 -64 -89 -94q69 -49 69 -107q-1 -50 -43 -83t-107 -33q-60 0 -96 29t-36 72q0 77 96 104zM661 233q58 27 58 77q0 21 -15.5 35t-44.5 14q-27 0 -42.5 -15.5t-15.5 -38.5
q0 -38 60 -72z" />
    <glyph glyph-name="seveneighths" unicode="&#x215e;" horiz-adv-x="821" 
d="M248 -3h-55l330 639h55zM317 569h-212l13 63h270l3 -14l-246 -406l-48 18zM555 177q-58 -30 -58 -84q0 -28 18.5 -46t50.5 -18q29 0 49 17.5t20 43.5q0 22 -17.5 41t-62.5 46zM533 196q-44 34 -44 92q1 45 35.5 76.5t95.5 31.5t90 -24t29 -64q0 -64 -89 -94
q69 -49 69 -107q-1 -50 -43 -83t-107 -33q-60 0 -96 29t-36 72q0 77 96 104zM624 233q58 27 58 77q0 21 -15.5 35t-44.5 14q-27 0 -42.5 -15.5t-15.5 -38.5q0 -38 60 -72z" />
    <glyph glyph-name="partialdiff" unicode="&#x2202;" horiz-adv-x="503" 
d="M195 575l-14 62q45 19 113 19q192 -2 192 -225q0 -63 -18.5 -155t-55.5 -154q-80 -135 -218 -135q-82 0 -126 47.5t-44 123.5q0 52 18 103.5t52 88.5q61 67 166 67q34 0 65.5 -11.5t42.5 -27.5q9 52 9 73q0 68 -29 102t-77 34q-37 0 -76 -12zM352 302q-9 25 -32.5 38.5
t-47.5 13.5q-62 0 -94 -50q-20 -30 -32.5 -77t-12.5 -89q0 -46 19.5 -68t48.5 -22q60 0 103 82q22 44 48 172z" />
    <glyph glyph-name="Delta" unicode="&#x2206;" horiz-adv-x="643" 
d="M588 0h-602l-7 22l385 622h78l161 -623zM455 101l-97 401l-246 -401h343z" />
    <glyph glyph-name="product" unicode="&#x220f;" horiz-adv-x="778" 
d="M250 -171q-82 2 -152 2q-57 0 -137 -2l8 51q63 7 75 21q11 11 21 64l100 551q5 26 5 46q0 19 -17 22q-26 6 -64 8l9 52q68 -2 368 -2q282 0 350 2l-10 -52q-5 -1 -25 -3t-33 -5q-17 -4 -25 -18q-4 -6 -12 -51l-102 -549q-5 -27 -5 -52q0 -20 21 -25q28 -6 56 -9l-8 -51
q-80 2 -143 2q-70 0 -146 -2l7 51q67 7 79 21q11 12 19 61l100 549q5 30 5 44t-6 20q-4 4 -31 6q-28 1 -101 1q-85 0 -115 -1q-31 -1 -37 -9q-10 -12 -19 -61l-101 -550q-6 -35 -6 -48q0 -19 20 -24q24 -5 59 -9z" />
    <glyph glyph-name="summation" unicode="&#x2211;" horiz-adv-x="599" 
d="M-68 -169l8 49l347 349l-202 367l8 47h456q24 0 24 -32q-3 -85 -10 -156l-43 -2q-13 94 -33 110q-13 12 -86 13q-78 2 -169 2l174 -316l-318 -319q140 0 195 2q82 3 113.5 8t48.5 20q17 14 53 92l43 -2q-26 -139 -36 -181q-4 -16 -8.5 -25.5t-18 -17.5t-35.5 -8h-511z
" />
    <glyph glyph-name="minus" unicode="&#x2212;" horiz-adv-x="565" 
d="M497 257h-422l18 84h422z" />
    <glyph glyph-name="uni2215" unicode="&#x2215;" horiz-adv-x="81" 
d="M-79 -3h-55l330 639h55z" />
    <glyph glyph-name="uni2219" unicode="&#x2219;" horiz-adv-x="206" 
d="M176 243q-1 -34 -21 -53.5t-51 -19.5q-30 0 -49 19.5t-18 50.5q0 29 20.5 50t49.5 21q31 0 50 -19.5t19 -48.5z" />
    <glyph glyph-name="radical" unicode="&#x221a;" horiz-adv-x="623" 
d="M200 226l79 -248l295 665h93l-366 -798h-88l-94 276l-53 -24l-22 65z" />
    <glyph glyph-name="infinity" unicode="&#x221e;" horiz-adv-x="622" 
d="M330 355q74 86 148 86q55 0 86 -34.5t31 -94.5q0 -69 -42.5 -117.5t-107.5 -48.5q-39 0 -69.5 20t-59.5 67q-75 -86 -147 -86q-58 0 -88 37t-30 92q0 71 43.5 118.5t108.5 47.5q42 0 69.5 -20.5t57.5 -66.5zM279 294q-23 42 -41.5 59.5t-43.5 17.5q-33 0 -52 -25.5
t-19 -59.5q0 -30 13.5 -49t39.5 -19q25 0 48 17t55 59zM367 295q25 -43 43.5 -60.5t42.5 -17.5q31 0 50 25.5t20 59.5q0 29 -14 48t-40 19q-46 0 -102 -74z" />
    <glyph glyph-name="integral" unicode="&#x222b;" horiz-adv-x="326" 
d="M368 580q-20 10 -52 10q-42 0 -54 -61q-6 -31 -41.5 -273t-42.5 -281q-26 -137 -153 -137q-45 0 -81 20l26 60q26 -13 52 -13q43 0 56 76q8 45 42 272.5t40 263.5q11 62 46.5 99t98.5 37q55 0 83 -12z" />
    <glyph glyph-name="approxequal" unicode="&#x2248;" horiz-adv-x="559" 
d="M85 137l-49 57q76 93 149 93q24 0 45 -7.5t65 -36.5q45 -29 69 -29q23 0 44.5 14.5t52.5 52.5l46 -57q-71 -92 -145 -92q-40 0 -91 32q-62 38 -91 38q-49 0 -95 -65zM122 314l-48 58q73 91 149 91q23 0 43.5 -8t65.5 -36t70 -28q44 0 95 68l48 -56q-76 -95 -146 -95
q-39 0 -91 33q-61 38 -90 38q-49 0 -96 -65z" />
    <glyph glyph-name="notequal" unicode="&#x2260;" horiz-adv-x="565" 
d="M497 550l-85 -123h123l-20 -81h-156l-66 -97h201l-18 -82h-240l-84 -123h-65l85 123h-120l19 82h158l66 97h-202l18 81h238l84 123h64z" />
    <glyph glyph-name="lessequal" unicode="&#x2264;" horiz-adv-x="571" 
d="M424 35h-368l20 81h368zM455 164l-328 181l19 82l409 182l-20 -96l-316 -130l256 -129z" />
    <glyph glyph-name="greaterequal" unicode="&#x2265;" horiz-adv-x="565" 
d="M408 35h-369l20 81h369zM171 609l328 -180l-19 -84l-411 -181l23 94l314 131l-255 128z" />
    <glyph glyph-name="lozenge" unicode="&#x25ca;" horiz-adv-x="565" 
d="M270 1h-78l-71 296l205 290h80l65 -297zM388 297l-42 206l-143 -213l45 -206z" />
    <glyph glyph-name="s_t" unicode="&#xfb06;" horiz-adv-x="654" 
d="M610 54q-96 -63 -162 -63q-63 0 -63 66q0 30 18 118l36 175q-41 2 -75 7l9 44q29 3 69 17q22 8 34 29q31 47 31 100q0 40 -24.5 61t-69.5 21q-55 0 -88 -34t-33 -88q0 -52 23 -84q22 -13 22 -29q0 -24 -27 -67q-20 16 -51.5 28t-58.5 12q-21 0 -32 -10.5t-11 -25.5
q0 -18 34 -44l58 -43q36 -26 49.5 -52t13.5 -64q0 -55 -50 -98t-137 -43q-68 0 -100 25q-23 15 -23 39q1 29 31 64q17 -21 55.5 -37t73.5 -16q57 0 57 36q0 12 -10.5 22.5t-35.5 29.5l-61 47q-50 36 -50 99q0 64 46.5 102t125.5 38q13 0 27 -2q-27 35 -27 84q1 82 58.5 131
t140.5 49q69 0 111.5 -32.5t42.5 -96.5q0 -69 -26 -153q51 0 106 -10l-10 -49q-43 -7 -105 -7l-38 -181q-12 -62 -12 -80t16 -18q21 0 78 18z" />
    <glyph glyph-name="Dotlessi" horiz-adv-x="332" 
d="M274 -1q-84 2 -146 2q-49 0 -145 -2l9 47q64 8 72 17q12 9 21 61l71 397q4 23 4 40q0 19 -17 24q-21 7 -64 11l10 48q96 -2 147 -2q52 0 144 2l-9 -48q-62 -6 -74 -18q-11 -10 -19 -54l-72 -401q-5 -30 -5 -43q0 -19 14 -23q2 -1 68 -11z" />
    <glyph glyph-name="Euro.denominator" horiz-adv-x="410" 
d="M292 140h-122v-8q0 -41 23.5 -63t58.5 -22q55 0 105 30l18 -32q-81 -53 -151 -53q-66 0 -103.5 37.5t-37.5 100.5v10h-48l7 37h44q2 23 7 41h-43l8 36h46q13 40 38 69q63 71 166 71q44 0 75 -13q21 -8 21 -25q0 -21 -27 -50q-30 37 -92 37q-55 0 -83 -51q-11 -18 -17 -38
h129l-7 -36h-130q-2 -8 -6 -41h128z" />
    <glyph glyph-name="Euro.inferior" horiz-adv-x="410" 
d="M266 -3h-122v-8q0 -41 23.5 -63t58.5 -22q55 0 105 30l18 -32q-81 -53 -151 -53q-66 0 -103.5 37.5t-37.5 100.5v10h-48l7 37h44q2 23 7 41h-43l8 36h46q13 40 38 69q63 71 166 71q44 0 75 -13q21 -8 21 -25q0 -21 -27 -50q-30 37 -92 37q-55 0 -83 -51q-11 -18 -17 -38
h129l-7 -36h-130q-2 -8 -6 -41h128z" />
    <glyph glyph-name="Euro.numerator" horiz-adv-x="409" 
d="M328 381h-121v-8q0 -41 23 -62.5t59 -21.5q56 0 105 29l18 -32q-82 -53 -152 -53q-66 0 -103 37.5t-37 100.5v10h-48l7 38h43q2 23 7 40h-43l8 37h46q14 40 39 69q60 70 166 70q43 0 74 -13q21 -9 21 -25q0 -22 -26 -50q-31 38 -93 38q-54 0 -83 -52q-11 -19 -16 -37h129
l-7 -37h-130q-6 -20 -6 -40h127z" />
    <glyph glyph-name="Euro.oldstyle" horiz-adv-x="623" 
d="M451 201h-184q1 -69 34 -103.5t84 -34.5q79 0 160 44l23 -45q-120 -74 -222 -74q-96 0 -146.5 57.5t-51.5 155.5h-67l9 53h61q1 25 10 56h-60l10 54h65q37 98 112 155q74 56 188 56q73 0 117 -27q21 -13 21 -34q0 -32 -38 -68q-49 67 -132 67q-59 0 -101 -47
q-29 -32 -54 -102h192l-11 -54h-194q-7 -30 -8 -56h193z" />
    <glyph glyph-name="Euro.superior" horiz-adv-x="410" 
d="M354 540h-122v-8q0 -41 23.5 -63t58.5 -22q55 0 105 30l18 -32q-81 -53 -151 -53q-66 0 -103.5 37.5t-37.5 100.5v10h-48l7 37h44q2 23 7 41h-43l8 36h46q13 40 38 69q63 71 166 71q44 0 75 -13q21 -8 21 -25q0 -21 -27 -50q-30 37 -92 37q-55 0 -83 -51q-11 -18 -17 -38
h129l-7 -36h-130q-2 -8 -6 -41h128z" />
    <glyph glyph-name="Kgreenlandic" horiz-adv-x="654" 
d="M588 -27q-103 20 -172 101q-87 103 -160 252q91 75 193 181q43 43 43 64q0 23 -63 25l9 48q42 -2 135 -2q44 0 116 2l-9 -48q-27 -2 -57 -18q-25 -13 -62 -46q-35 -33 -93.5 -86t-91.5 -84q70 -135 120 -207t116 -145zM274 -1q-86 2 -147 2q-48 0 -144 -2l9 48
q61 6 72 16t20 60l72 397q4 23 4 39q0 21 -17 26q-21 7 -64 11l9 48q96 -2 154 -2q49 0 139 2l-9 -48q-60 -6 -76 -20q-10 -9 -19 -53l-71 -400q-5 -30 -5 -43q0 -18 15 -22q15 -5 67 -11z" />
    <glyph glyph-name="S_S" horiz-adv-x="1025" 
d="M590 204q23 -100 38 -118q30 -37 98 -37q121 0 121 88q0 29 -17 52.5t-56 50.5l-53 38q-63 44 -89.5 86.5t-26.5 94.5q0 95 67.5 146.5t187.5 51.5q65 0 114 -21q24 -11 24 -37q0 -61 -7 -145h-49q-7 61 -16 91q-5 22 -21 32q-30 19 -72 19q-51 0 -82 -22.5t-31 -67.5
t63 -95l55 -43q74 -59 101 -98t27 -88q0 -93 -66 -144.5t-182 -51.5q-92 0 -147 35q-25 15 -28 52q-3 30 -3 131h50zM78 204q23 -100 38 -118q30 -37 98 -37q121 0 121 88q0 29 -17 52.5t-56 50.5l-53 38q-63 44 -89.5 86.5t-26.5 94.5q0 95 67.5 146.5t187.5 51.5
q65 0 114 -21q24 -11 24 -37q0 -61 -7 -145h-49q-7 61 -16 91q-5 22 -21 32q-30 19 -72 19q-51 0 -82 -22.5t-31 -67.5t63 -95l55 -43q74 -59 101 -98t27 -88q0 -93 -66 -144.5t-182 -51.5q-92 0 -147 35q-25 15 -28 52q-3 30 -3 131h50z" />
    <glyph glyph-name="a.sc" horiz-adv-x="522" 
d="M177 -1q-68 2 -105 2q-43 0 -111 -2l10 48q38 3 51 14q16 15 49 71l193 330h79l68 -332q12 -58 22 -69q10 -12 53 -14l-9 -48q-66 2 -121 2q-49 0 -133 -2l10 48q40 4 56 10q13 5 13 21q0 24 -5 52l-5 23h-138l-12 -22q-26 -47 -26 -58q0 -13 16 -18q15 -5 55 -8z
M180 209h103q-14 79 -23 142q-22 -41 -80 -142z" />
    <glyph glyph-name="aacute.sc" horiz-adv-x="510" 
d="M177 -1q-68 2 -105 2q-43 0 -111 -2l10 48q38 3 51 14q16 15 49 71l193 330h79l68 -332q12 -58 22 -69q10 -12 53 -14l-9 -48q-66 2 -121 2q-49 0 -133 -2l10 48q40 4 56 10q13 5 13 21q0 24 -5 52l-5 23h-138l-12 -22q-26 -47 -26 -58q0 -13 16 -18q15 -5 55 -8z
M180 209h103q-14 79 -23 142q-22 -41 -80 -142zM275 519l-29 26l100 129q19 26 31 34t27 8t27.5 -12t12.5 -31q0 -25 -42 -57z" />
    <glyph glyph-name="abreve.sc" horiz-adv-x="510" 
d="M177 -1q-68 2 -105 2q-43 0 -111 -2l10 48q38 3 51 14q16 15 49 71l193 330h79l68 -332q12 -58 22 -69q10 -12 53 -14l-9 -48q-66 2 -121 2q-49 0 -133 -2l10 48q40 4 56 10q13 5 13 21q0 24 -5 52l-5 23h-138l-12 -22q-26 -47 -26 -58q0 -13 16 -18q15 -5 55 -8z
M180 209h103q-14 79 -23 142q-22 -41 -80 -142zM409 676l44 -2q-10 -73 -49.5 -113.5t-99.5 -40.5q-52 0 -82 30.5t-30 93.5q0 2 3 29l41 3q2 -36 21 -58t54 -22q72 0 98 80z" />
    <glyph glyph-name="acircumflex.sc" horiz-adv-x="510" 
d="M177 -1q-68 2 -105 2q-43 0 -111 -2l10 48q38 3 51 14q16 15 49 71l193 330h79l68 -332q12 -58 22 -69q10 -12 53 -14l-9 -48q-66 2 -121 2q-49 0 -133 -2l10 48q40 4 56 10q13 5 13 21q0 24 -5 52l-5 23h-138l-12 -22q-26 -47 -26 -58q0 -13 16 -18q15 -5 55 -8z
M180 209h103q-14 79 -23 142q-22 -41 -80 -142zM445 534l-33 -22l-88 103l-126 -103l-29 26l130 150q19 22 37 22q25 0 35 -22z" />
    <glyph glyph-name="acute.cap" horiz-adv-x="286" 
d="M72 680l-26 31l117 109q38 36 58 36q14 0 26.5 -14.5t12.5 -34.5q0 -25 -49 -52z" />
    <glyph glyph-name="acute.sc" horiz-adv-x="286" 
d="M82 519l-29 26l100 129q31 42 58 42q15 0 27.5 -12t12.5 -31q0 -25 -42 -57z" />
    <glyph glyph-name="adieresis.sc" horiz-adv-x="510" 
d="M177 -1q-68 2 -105 2q-43 0 -111 -2l10 48q38 3 51 14q16 15 49 71l193 330h79l68 -332q12 -58 22 -69q10 -12 53 -14l-9 -48q-66 2 -121 2q-49 0 -133 -2l10 48q40 4 56 10q13 5 13 21q0 24 -5 52l-5 23h-138l-12 -22q-26 -47 -26 -58q0 -13 16 -18q15 -5 55 -8z
M180 209h103q-14 79 -23 142q-22 -41 -80 -142zM283 616q-1 -29 -15.5 -46.5t-41.5 -17.5q-51 0 -51 53q0 30 16.5 47.5t42.5 17.5q49 0 49 -54zM444 616q-1 -29 -15.5 -46.5t-41.5 -17.5q-51 0 -51 53q0 30 16.5 47.5t42.5 17.5q49 0 49 -54z" />
    <glyph glyph-name="ae.sc" horiz-adv-x="728" 
d="M198 -1q-68 2 -131 2q-38 0 -108 -2l11 48q38 3 52 14q22 14 68 70l190 230q20 26 20 33q0 11 -18 15q-13 3 -56 6l9 46h426q25 0 31 -7t6 -28q0 -46 -10 -96h-40q-5 51 -17 63q-13 14 -83 14q-34 0 -52 -1l-25 -143h8q42 0 55.5 2.5t23.5 10.5q12 9 25 47h40
q-19 -90 -30 -177h-41q0 47 -5 54q-6 7 -20 9t-62 2h-4l-16 -93q-5 -25 -5 -36q0 -17 14 -21q24 -6 56 -6q68 0 92 20q17 15 50 74l39 -8q-22 -83 -40 -122q-6 -12 -17 -15.5t-36 -3.5h-346l8 47q56 5 65 26q5 11 14 58l5 34h-152l-24 -32q-37 -50 -37 -63q0 -14 15 -16
q22 -4 61 -7zM233 216h121l31 173q2 10 2 12q0 5 -4 5t-9 -7q-17 -26 -141 -183z" />
    <glyph glyph-name="aeacute.sc" horiz-adv-x="730" 
d="M198 -1q-68 2 -131 2q-38 0 -108 -2l11 48q38 3 52 14q22 14 68 70l190 230q20 26 20 33q0 11 -18 15q-13 3 -56 6l9 46h426q25 0 31 -7t6 -28q0 -46 -10 -96h-40q-5 51 -17 63q-13 14 -83 14q-34 0 -52 -1l-25 -143h8q42 0 55.5 2.5t23.5 10.5q12 9 25 47h40
q-19 -90 -30 -177h-41q0 47 -5 54q-6 7 -20 9t-62 2h-4l-16 -93q-5 -25 -5 -36q0 -17 14 -21q24 -6 56 -6q68 0 92 20q17 15 50 74l39 -8q-22 -83 -40 -122q-6 -12 -17 -15.5t-36 -3.5h-346l8 47q56 5 65 26q5 11 14 58l5 34h-152l-24 -32q-37 -50 -37 -63q0 -14 15 -16
q22 -4 61 -7zM233 216h121l31 173q2 10 2 12q0 5 -4 5t-9 -7q-17 -26 -141 -183zM454 519l-29 26l100 129q31 42 58 42q15 0 27.5 -12t12.5 -31q0 -25 -42 -57z" />
    <glyph glyph-name="agrave.sc" horiz-adv-x="510" 
d="M177 -1q-68 2 -105 2q-43 0 -111 -2l10 48q38 3 51 14q16 15 49 71l193 330h79l68 -332q12 -58 22 -69q10 -12 53 -14l-9 -48q-66 2 -121 2q-49 0 -133 -2l10 48q40 4 56 10q13 5 13 21q0 24 -5 52l-5 23h-138l-12 -22q-26 -47 -26 -58q0 -13 16 -18q15 -5 55 -8z
M180 209h103q-14 79 -23 142q-22 -41 -80 -142zM363 544l-35 -25l-97 113q-29 35 -29 58q0 17 15.5 30t33.5 13q14 0 24.5 -11.5t24.5 -41.5z" />
    <glyph glyph-name="amacron.sc" horiz-adv-x="510" 
d="M177 -1q-68 2 -105 2q-43 0 -111 -2l10 48q38 3 51 14q16 15 49 71l193 330h79l68 -332q12 -58 22 -69q10 -12 53 -14l-9 -48q-66 2 -121 2q-49 0 -133 -2l10 48q40 4 56 10q13 5 13 21q0 24 -5 52l-5 23h-138l-12 -22q-26 -47 -26 -58q0 -13 16 -18q15 -5 55 -8z
M180 209h103q-14 79 -23 142q-22 -41 -80 -142zM428 549h-243l15 74h241z" />
    <glyph glyph-name="ampersand.sc" horiz-adv-x="547" 
d="M491 -1l-26 -42q-92 24 -146 67q-65 -36 -146 -36q-79 0 -121 35.5t-42 96.5q0 92 124 133q-25 45 -25 97q0 49 40 87t120 38q62 0 93.5 -26.5t31.5 -67.5q0 -44 -32 -73t-96 -52q51 -83 98 -128q16 18 23 36q6 12 6 19q0 14 -20 19q-6 2 -43 6l5 51q20 -1 98 -1
q75 0 98 1l-4 -51q-26 -1 -48 -13q-13 -7 -27 -32q-24 -43 -51 -73q24 -32 90 -91zM242 295q42 19 58 36t16 42q0 43 -47 43q-24 0 -38 -14.5t-14 -37.5q0 -29 25 -69zM160 209q-41 -32 -41 -74q0 -34 22.5 -56.5t59.5 -22.5q39 0 70 12q-63 65 -111 141z" />
    <glyph glyph-name="aogonek.sc" horiz-adv-x="497" 
d="M177 -1q-68 2 -105 2q-43 0 -111 -2l10 48q38 3 51 14q16 15 49 71l193 330h79l68 -332q12 -58 22 -69q10 -12 53 -14l-9 -48q-52 2 -96 2q-54 -52 -76.5 -84.5t-22.5 -62.5q0 -47 44 -47q37 0 68 11l12 -40q-53 -35 -111 -35q-42 0 -64.5 25t-22.5 61q0 44 29 82.5
t94 89.5q-42 0 -108 -2l10 48q40 4 56 10q13 5 13 21q0 24 -5 52l-5 23h-138l-12 -21q-26 -47 -26 -59q0 -14 16 -19q17 -4 55 -7zM180 209h103q-14 79 -23 142q-21 -42 -80 -142z" />
    <glyph glyph-name="aring.sc" horiz-adv-x="510" 
d="M177 -1q-68 2 -105 2q-43 0 -111 -2l10 48q38 3 51 14q16 15 49 71l193 330h79l68 -332q12 -58 22 -69q10 -12 53 -14l-9 -48q-66 2 -121 2q-49 0 -133 -2l10 48q40 4 56 10q13 5 13 21q0 24 -5 52l-5 23h-138l-12 -22q-26 -47 -26 -58q0 -13 16 -18q15 -5 55 -8z
M180 209h103q-14 79 -23 142q-22 -41 -80 -142zM405 613q0 -42 -27 -70t-66 -28q-38 0 -62 25t-24 67q0 40 27 68t66 28t62.5 -24.5t23.5 -65.5zM360 612q0 23 -12.5 36t-30.5 13q-19 0 -33 -14t-14 -37t11.5 -37.5t32.5 -14.5q19 0 32.5 14.5t13.5 39.5z" />
    <glyph glyph-name="aringacute.sc" horiz-adv-x="521" 
d="M177 -1q-68 2 -105 2q-43 0 -111 -2l10 48q38 3 51 14q16 15 49 71l193 330h79l68 -332q12 -58 22 -69q10 -12 53 -14l-9 -48q-66 2 -121 2q-49 0 -133 -2l10 48q40 4 56 10q13 5 13 21q0 20 -5 48l-5 27h-138l-12 -22q-26 -47 -26 -58q0 -14 16 -19q6 -2 55 -7zM180 209
h103q-14 79 -23 142q-25 -48 -80 -142zM402 593q0 -42 -27 -70t-67 -28q-38 0 -62 25t-24 67q0 40 27.5 68t66.5 28q40 0 63 -24.5t23 -65.5zM357 592q0 23 -13 36t-31 13t-32 -14t-14 -37t11.5 -37.5t32.5 -14.5q19 0 32.5 14.5t13.5 39.5zM319 706l-30 27l100 128
q21 26 32.5 34t25.5 8q16 0 28 -12t12 -31q0 -24 -43 -57z" />
    <glyph glyph-name="atilde.sc" horiz-adv-x="510" 
d="M177 -1q-68 2 -105 2q-43 0 -111 -2l10 48q38 3 51 14q16 15 49 71l193 330h79l68 -332q12 -58 22 -69q10 -12 53 -14l-9 -48q-66 2 -121 2q-49 0 -133 -2l10 48q40 4 56 10q13 5 13 21q0 24 -5 52l-5 23h-138l-12 -22q-26 -47 -26 -58q0 -13 16 -18q15 -5 55 -8z
M180 209h103q-14 79 -23 142q-22 -41 -80 -142zM200 537l-32 13q14 45 39.5 77.5t56.5 32.5q18 0 52 -15l23 -11q26 -13 41 -13q14 0 24 10.5t26 37.5l32 -13q-35 -111 -82 -111q-14 0 -63 18l-23 9q-28 11 -40 11q-14 0 -25.5 -10t-28.5 -36z" />
    <glyph glyph-name="b.sc" horiz-adv-x="486" 
d="M-19 -1l9 48q52 4 67 14q13 10 19 46l43 245q4 26 4 30q0 11 -3.5 16t-16.5 9q-21 5 -52 8l9 46h181q81 0 118 -6q92 -12 92 -89q0 -92 -109 -122q100 -15 100 -100q0 -42 -22 -75t-62 -49q-52 -21 -148 -21q-14 0 -51 1t-57 1q-65 0 -121 -2zM211 269h14q43 0 63 5
q22 7 36.5 27.5t14.5 46.5q0 40 -29 51q-20 8 -73 8zM202 214l-22 -117q-2 -9 -2 -20q0 -15 18 -19q10 -2 33 -2q40 0 68 23t29 65q0 40 -22 54q-23 16 -92 16h-10z" />
    <glyph glyph-name="braceleft.cap" horiz-adv-x="303" 
d="M225 -114q-86 0 -126.5 30.5t-40.5 94.5q0 19 12 82q18 89 18 119q0 85 -70 90l8 41q56 5 77 34t37 111l15 81q16 83 66 124t159 41l-8 -45q-63 0 -88 -26.5t-39 -105.5l-18 -107q-11 -66 -40 -92.5t-89 -38.5q83 -20 83 -110q0 -27 -17 -121q-14 -70 -14 -81
q0 -39 18.5 -57.5t65.5 -18.5z" />
    <glyph glyph-name="braceright.cap" horiz-adv-x="303" 
d="M106 734q168 0 168 -126q0 -15 -13 -82q-17 -85 -17 -119q0 -84 68 -90l-7 -39q-57 -6 -77 -33.5t-37 -111.5l-16 -82q-17 -85 -65.5 -125t-157.5 -40l7 43q61 0 86.5 27.5t39.5 105.5l20 108q12 68 39.5 93.5t87.5 37.5q-81 18 -81 108q0 23 18 121q12 63 12 82
q0 39 -18.5 57.5t-65.5 18.5z" />
    <glyph glyph-name="bracketleft.cap" horiz-adv-x="294" 
d="M210 -102h-199l148 819h198l-9 -49h-104l-131 -721h106z" />
    <glyph glyph-name="bracketright.cap" horiz-adv-x="294" 
d="M107 718h198l-146 -820h-197l8 49h104l130 721h-106z" />
    <glyph glyph-name="breve.cap" horiz-adv-x="283" 
d="M250 848l48 -2q-11 -73 -55 -114t-107 -41q-55 0 -87.5 30t-32.5 93q0 18 3 31l43 3q2 -38 23.5 -60t59.5 -22q78 0 105 82z" />
    <glyph glyph-name="breve.sc" horiz-adv-x="283" 
d="M238 676l44 -2q-10 -73 -49.5 -113.5t-99.5 -40.5q-52 0 -82 30.5t-30 93.5q0 2 3 29l41 3q2 -36 21 -58t54 -22q72 0 98 80z" />
    <glyph glyph-name="bullet.cap" horiz-adv-x="356" 
d="M330 311q-2 -67 -43 -112t-107 -45q-60 0 -95 39t-33 98q1 67 41 110t104 43q63 0 98.5 -37t34.5 -96z" />
    <glyph glyph-name="c.sc" horiz-adv-x="511" 
d="M461 142q-17 -73 -35 -111q-8 -20 -30 -27q-50 -17 -133 -17q-109 0 -169.5 56.5t-60.5 152.5q0 128 81 203t212 75q74 0 123 -20q18 -8 20 -29q2 -22 2 -112l-43 -3q-10 53 -18 71q-7 17 -21 22q-22 11 -63 11q-82 0 -127 -61.5t-45 -155.5q0 -72 33.5 -111.5
t91.5 -39.5q65 0 88 22t52 83z" />
    <glyph glyph-name="c_t" horiz-adv-x="665" 
d="M347 74q-50 -40 -109 -63.5t-108 -23.5q-111 0 -111 134q0 62 23.5 127.5t62.5 110.5q66 79 167 79q15 0 22 -1q-27 27 -27 85q0 82 55 129t137 47q60 0 99.5 -33t39.5 -96q0 -69 -26 -153q51 0 106 -10l-10 -49q-43 -7 -106 -7l-37 -181q-13 -61 -13 -80q0 -18 18 -18
q20 0 76 18l15 -35q-99 -63 -162 -63q-31 0 -47.5 14.5t-16.5 52.5q0 27 18 115l36 177q-36 2 -63 7l9 44q23 5 59 17q15 5 32 29q34 51 34 104q0 38 -23.5 58t-59.5 20q-54 0 -83 -32.5t-29 -87.5q0 -56 23 -82q21 -7 21 -28q0 -30 -28 -67q-47 31 -95 31q-38 0 -61 -24
t-37 -80t-14 -118q0 -73 54 -73q65 0 137 42z" />
    <glyph glyph-name="cacute.sc" horiz-adv-x="479" 
d="M461 142q-17 -73 -35 -111q-8 -20 -30 -27q-50 -17 -133 -17q-109 0 -169.5 56.5t-60.5 152.5q0 128 81 203t212 75q74 0 123 -20q18 -8 20 -29q2 -22 2 -112l-43 -3q-10 53 -18 71q-7 17 -21 22q-22 11 -63 11q-82 0 -127 -61.5t-45 -155.5q0 -72 33.5 -111.5
t91.5 -39.5q65 0 88 22t52 83zM296 519l-29 26l100 129q31 42 58 42q15 0 27.5 -12t12.5 -31q0 -25 -42 -57z" />
    <glyph glyph-name="caron.alt" horiz-adv-x="294" 
d="M102 442l-25 35q74 53 74 92q0 17 -10 33t-10 33q0 19 14 33t36 14q57 0 57 -64q0 -91 -136 -176z" />
    <glyph glyph-name="caron.cap" horiz-adv-x="283" 
d="M9 838l29 25l110 -84l130 84l25 -29l-134 -132q-21 -21 -37 -21q-22 0 -35 20z" />
    <glyph glyph-name="caron.sc" horiz-adv-x="283" 
d="M14 686l32 22l89 -104l125 104l31 -26l-131 -150q-20 -21 -38 -21q-25 0 -35 21z" />
    <glyph glyph-name="ccaron.sc" horiz-adv-x="479" 
d="M461 142q-17 -73 -35 -111q-8 -20 -30 -27q-50 -17 -133 -17q-109 0 -169.5 56.5t-60.5 152.5q0 128 81 203t212 75q74 0 123 -20q18 -8 20 -29q2 -22 2 -112l-43 -3q-10 53 -18 71q-7 17 -21 22q-22 11 -63 11q-82 0 -127 -61.5t-45 -155.5q0 -72 33.5 -111.5
t91.5 -39.5q65 0 88 22t52 83zM198 686l32 22l89 -104l125 104l31 -26l-131 -150q-20 -21 -38 -21q-25 0 -35 21z" />
    <glyph glyph-name="ccedilla.sc" horiz-adv-x="509" 
d="M140 -268l-7 48q106 30 107 70q0 21 -35 48q-16 13 -16 28q0 18 25 65q-86 12 -133.5 66.5t-47.5 138.5q0 128 81 203t212 75q74 0 123 -20q18 -8 20 -29q2 -22 2 -112l-43 -3q-10 53 -18 71q-7 17 -21 22q-22 11 -63 11q-82 0 -127 -61.5t-45 -155.5q0 -72 33.5 -111.5
t91.5 -39.5q65 0 88 22t52 83l42 -9q-17 -73 -35 -111q-8 -20 -30 -27q-50 -17 -133 -17q-10 -22 -10 -31q0 -12 14 -21q53 -30 53 -70q0 -95 -180 -133z" />
    <glyph glyph-name="ccircumflex.sc" horiz-adv-x="479" 
d="M461 142q-17 -73 -35 -111q-8 -20 -30 -27q-50 -17 -133 -17q-109 0 -169.5 56.5t-60.5 152.5q0 128 81 203t212 75q74 0 123 -20q18 -8 20 -29q2 -22 2 -112l-43 -3q-10 53 -18 71q-7 17 -21 22q-22 11 -63 11q-82 0 -127 -61.5t-45 -155.5q0 -72 33.5 -111.5
t91.5 -39.5q65 0 88 22t52 83zM464 534l-33 -22l-88 103l-126 -103l-29 26l130 150q19 22 37 22q25 0 35 -22z" />
    <glyph glyph-name="cdotaccent.sc" horiz-adv-x="479" 
d="M461 142q-17 -73 -35 -111q-8 -20 -30 -27q-50 -17 -133 -17q-109 0 -169.5 56.5t-60.5 152.5q0 128 81 203t212 75q74 0 123 -20q18 -8 20 -29q2 -22 2 -112l-43 -3q-10 53 -18 71q-7 17 -21 22q-22 11 -63 11q-82 0 -127 -61.5t-45 -155.5q0 -72 33.5 -111.5
t91.5 -39.5q65 0 88 22t52 83zM396 616q-1 -29 -15.5 -46.5t-41.5 -17.5q-51 0 -51 53q0 30 16.5 47.5t42.5 17.5q49 0 49 -54z" />
    <glyph glyph-name="cedilla.cap" horiz-adv-x="283" 
d="M51 -278l-7 49q107 32 108 72q0 15 -8.5 25.5t-27.5 25.5q-16 12 -16 29q0 20 34 82h51q-21 -40 -21 -52q0 -11 15 -20q54 -32 54 -73q0 -97 -182 -138z" />
    <glyph glyph-name="cedilla.sc" horiz-adv-x="283" 
d="M52 -268l-7 48q106 30 107 70q0 24 -35 48q-16 13 -16 28q0 18 33 79h51q-20 -37 -20 -49t14 -21q54 -31 53 -70q0 -95 -180 -133z" />
    <glyph glyph-name="cent.denominator" horiz-adv-x="298" 
d="M143 -69h-38l14 71q-95 0 -95 84q2 83 50 137q33 40 94 49l11 64h38l-11 -63q27 0 45 -9q12 -7 12 -17q0 -18 -19 -41q-23 18 -47 19l-32 -173q25 4 64 24l14 -25q-33 -25 -85 -44zM101 100q0 -40 26 -47l32 172q-14 -4 -27 -19q-11 -14 -21 -45t-10 -61z" />
    <glyph glyph-name="cent.inferior" horiz-adv-x="298" 
d="M117 -212h-38l14 71q-95 0 -95 84q2 83 50 137q33 40 94 49l11 64h38l-11 -63q27 0 45 -9q12 -7 12 -17q0 -18 -19 -41q-23 18 -47 19l-32 -173q25 4 64 24l14 -25q-33 -25 -85 -44zM75 -43q0 -40 26 -47l32 172q-14 -4 -27 -19q-11 -14 -21 -45t-10 -61z" />
    <glyph glyph-name="cent.numerator" horiz-adv-x="298" 
d="M180 172h-38l14 71q-95 1 -95 84q2 79 50 137q34 40 94 50l11 64h37l-11 -63q29 0 45 -9q13 -7 13 -18q0 -16 -19 -41q-22 19 -48 19l-31 -173q26 4 63 25l15 -26q-36 -27 -86 -43zM138 341q0 -40 25 -47l32 172q-12 -4 -26 -19q-11 -14 -21 -45t-10 -61z" />
    <glyph glyph-name="cent.oldstyle" horiz-adv-x="459" 
d="M231 -110h-52l19 106q-4 -1 -14 -1q-59 0 -94 37t-35 99q0 60 23 119t62 104q53 60 136 73l19 104h51l-18 -100q21 0 32 -1q29 -3 46 -10q20 -8 20 -27q0 -30 -29 -69q-38 27 -83 29l-50 -275q51 8 105 37l22 -36q-67 -55 -139 -75zM165 149q0 -62 49 -71l50 274
q-23 -4 -42 -23q-24 -25 -40.5 -75.5t-16.5 -104.5z" />
    <glyph glyph-name="cent.superior" horiz-adv-x="298" 
d="M205 331h-38l14 71q-95 0 -95 84q2 83 50 137q33 40 94 49l11 64h38l-11 -63q27 0 45 -9q12 -7 12 -17q0 -18 -19 -41q-23 18 -47 19l-32 -173q25 4 64 24l14 -25q-33 -25 -85 -44zM163 500q0 -40 26 -47l32 172q-14 -4 -27 -19q-11 -14 -21 -45t-10 -61z" />
    <glyph glyph-name="circumflex.cap" horiz-adv-x="283" 
d="M301 694l-29 -25l-109 84l-131 -83l-26 28l133 133q22 20 39 20q22 0 36 -22z" />
    <glyph glyph-name="circumflex.sc" horiz-adv-x="283" 
d="M288 534l-33 -22l-88 103l-126 -103l-29 26l130 150q19 22 37 22q25 0 35 -22z" />
    <glyph glyph-name="comma.denominator" horiz-adv-x="135" 
d="M-21 -111l-21 28q59 41 59 71q0 14 -9 26.5t-9 26.5t12 25t30 11q23 0 35 -14t12 -35q-1 -75 -109 -139z" />
    <glyph glyph-name="comma.inferior" horiz-adv-x="135" 
d="M-48 -254l-21 28q59 41 59 71q0 14 -9 26.5t-9 26.5t12 25t30 11q23 0 35 -14t12 -35q-1 -75 -109 -139z" />
    </font>
</defs>
</svg>
