<?xml version="1.0" standalone="no"?>
<!DOCTYPE svg PUBLIC "-//W3C//DTD SVG 1.1//EN" "http://www.w3.org/Graphics/SVG/1.1/DTD/svg11.dtd" >
<svg xmlns="http://www.w3.org/2000/svg" xmlns:xlink="http://www.w3.org/1999/xlink" version="1.1">
<metadata>
Created by FontForge 20190112 at Fri Jun 14 04:28:00 2013
 By David Mongeau-Petitpas
Copyright (c) 2012 by Dieter Hofrichter. All rights reserved.
</metadata>
<defs>
<font id="SinaNovaBol" horiz-adv-x="353" >
  <font-face 
    font-family="SinaNovaBol"
    font-weight="700"
    font-stretch="normal"
    units-per-em="1000"
    panose-1="2 0 0 0 0 0 0 0 0 0"
    ascent="729"
    descent="-271"
    x-height="425"
    cap-height="644"
    bbox="-117 -304 1126 981"
    underline-thickness="0"
    underline-position="0"
    unicode-range="U+0020-FB06"
  />
<missing-glyph horiz-adv-x="313" 
 />
    <glyph glyph-name="f_f" unicode="ff" horiz-adv-x="608" 
d="M279 -1q-94 2 -134 2q-42 0 -124 -2v45q54 8 62 18q6 7 6 46q0 56 -0.5 113.5t-0.5 92.5v34q-49 2 -74 7v44q22 7 50 13q15 4 18.5 11.5t4.5 37.5q3 148 90 210q57 42 139 42q44 0 73 -15q16 -8 16 -27q0 -22 -35 -73q-43 40 -92 40q-37 0 -54 -22q-24 -27 -24 -136v-67
h122q32 0 41 5q18 7 19 47q4 91 27.5 142t66.5 82q60 43 144 43q44 0 72 -16q18 -10 18 -28q0 -32 -35 -76q-45 44 -101 44q-38 0 -57 -24q-23 -31 -23 -131v-87q55 0 112 -5v-54q-44 -5 -112 -5v-13v-32t-0.5 -46t-0.5 -62.5v-73.5q0 -49 12 -63q9 -10 78 -16v-45
q-94 2 -142 2q-39 0 -125 -2v45q52 7 61 18q7 8 7 46v114v93l-1 35h-183v-13t-0.5 -32t-1 -46t-0.5 -62.5v-73.5q0 -53 13 -63q10 -10 68 -16v-45z" />
    <glyph glyph-name="fi" unicode="fi" horiz-adv-x="577" 
d="M280 0q-92 2 -134 2q-43 0 -125 -2v45q54 8 62 18q6 8 6 46q0 56 -0.5 113.5t-0.5 91.5v34q-49 2 -74 7v44q3 1 13.5 3.5t20.5 5l18 4.5q12 2 16 11.5t5 40.5q3 100 27 150t68 79q61 39 155 39q65 0 104 -25q18 -11 18 -30q0 -30 -38 -79q-64 60 -137 60q-40 0 -61 -24
q-22 -27 -22 -122v-95h67q66 0 103 7q10 2 39 10t44 8q31 0 31 -39q0 -31 -0.5 -100.5t-0.5 -128.5v-63q0 -37 9 -50q8 -10 64 -16v-45q-84 2 -128 2q-29 0 -111 -2v45q39 4 49 12q10 9 10 46q0 135 -2 174q-1 36 -13 52q-13 21 -89 21h-72v-13t-0.5 -32t-1 -46t-0.5 -62
v-73q0 -52 12 -63q13 -10 69 -16v-45z" />
    <glyph glyph-name="fl" unicode="fl" horiz-adv-x="577" 
d="M284 -1q-92 2 -139 2q-42 0 -124 -2v46q55 9 62 18q6 7 6 46q0 56 -0.5 113.5t-0.5 91.5v34q-50 2 -74 7v44q6 2 24 6t26 6q14 4 18 12.5t5 38.5q6 101 28.5 150.5t66.5 80.5q57 39 148 39q46 0 77 -15q36 18 57 18q25 0 25 -33q0 -52 -0.5 -257t-0.5 -329q0 -43 9 -56
q8 -10 61 -15v-46q-82 2 -131 2q-22 0 -104 -2v46q39 5 48 13q10 9 10 49q0 66 -0.5 225.5t-0.5 200.5q0 85 -19 104q-23 22 -72 22q-45 0 -65 -24q-23 -29 -23 -134v-87q66 0 110 -4v-55q-43 -5 -110 -5l-1 -30q0 -30 -1 -84t-1 -112q0 -51 13 -63q10 -10 73 -16v-46z" />
    <glyph glyph-name="f_f_i" unicode="ffi" horiz-adv-x="873" 
d="M279 -1q-94 2 -134 2q-42 0 -124 -2v45q54 8 62 18q6 7 6 46q0 56 -0.5 113.5t-0.5 92.5v34q-49 2 -74 7v44q4 1 50 13q15 4 18.5 11.5t4.5 37.5q3 148 90 210q57 42 139 42q46 0 73 -15q16 -8 16 -27q0 -22 -35 -73q-43 40 -92 40q-37 0 -54 -22q-24 -27 -24 -136v-67
h122q32 0 41 5q18 7 19 47q4 100 27.5 150t67.5 78q62 39 154 39q67 0 105 -25q18 -11 18 -30q0 -30 -38 -79q-64 60 -137 60q-40 0 -61 -24q-22 -27 -22 -122v-95h65q69 0 107 7q8 2 37.5 10t45.5 8q31 0 31 -39q0 -42 -0.5 -167t-0.5 -126q0 -41 8 -50q7 -10 64 -16v-45
q-84 2 -127 2q-28 0 -110 -2v45q38 4 47 12q10 9 10 46q0 136 -2 175q-1 36 -13 52q-13 21 -90 21h-74v-13v-32t-0.5 -46t-0.5 -62.5v-73.5q0 -52 12 -63q10 -10 74 -16v-45q-92 2 -138 2q-39 0 -125 -2v45q52 7 61 18q7 8 7 46v114v93l-1 35h-183v-13t-0.5 -32t-1 -46
t-0.5 -62.5v-73.5q0 -53 13 -63q10 -10 68 -16v-45z" />
    <glyph glyph-name="f_f_l" unicode="ffl" horiz-adv-x="871" 
d="M279 0q-94 2 -134 2q-42 0 -124 -2v45q53 9 62 19q6 7 6 45q0 56 -0.5 113.5t-0.5 91.5v34q-49 2 -74 7v44q36 10 50 13q15 4 18.5 11.5t4.5 37.5q3 148 90 210q57 42 139 42q44 0 73 -15q16 -8 16 -27q0 -22 -35 -73q-43 40 -92 40q-37 0 -54 -22q-24 -27 -24 -136v-67
h122q32 0 41 5q18 7 19 47q4 163 95 227q57 39 146 39q46 0 77 -15q37 18 57 18q26 0 26 -33q0 -52 -0.5 -256.5t-0.5 -329.5q0 -45 8 -55q10 -11 62 -16v-45q-84 2 -131 2q-23 0 -105 -2v45q39 5 49 13q10 9 10 49q0 66 -1 226t-1 201q0 85 -18 103q-23 22 -72 22
q-46 0 -65 -24q-24 -33 -24 -133v-87q67 0 112 -4v-55q-44 -5 -112 -5v-13v-32t-0.5 -46t-0.5 -62v-73q0 -52 12 -63q10 -10 76 -16v-45q-94 2 -140 2q-39 0 -125 -2v45q53 8 61 18q7 8 7 46v113.5v92.5l-1 35h-183v-13t-0.5 -32t-1 -46t-0.5 -62v-73q0 -51 13 -63
q14 -11 68 -16v-45z" />
    <glyph glyph-name="T_h" unicode="Th" horiz-adv-x="1059" 
d="M451 -1q-70 2 -126 2q-105 0 -181 -2v48q77 5 86 24q5 10 5 59v455q-102 0 -120 -13q-19 -13 -47 -121l-45 3q2 91 8 161q2 28 30 28h413q69 0 99 10q26 9 52 36q39 41 60 41q29 0 29 -34q0 -25 -0.5 -140.5t-0.5 -176.5q77 60 135 60q56 0 88 -27q40 -34 40 -115
q0 -4 -1.5 -91.5t-1.5 -92.5q0 -43 6 -51q8 -12 65 -17v-46q-74 2 -130 2q-28 0 -106 -2v46q42 7 49 15t7 54q0 139 -2 164q-2 44 -15 59q-18 21 -51 21q-47 0 -82 -17q0 -11 -0.5 -120t-0.5 -110q0 -42 8 -51q7 -9 51 -15v-46q-84 2 -128 2q-63 0 -104 -2v46q46 5 54 16
q11 11 11 43q0 396 -1 481h-247v-454q0 -51 6 -62q10 -16 88 -22v-48z" />
    <glyph glyph-name="Tcaron_h" unicode="&#x164;h" horiz-adv-x="1059" 
d="M451 -1q-70 2 -126 2q-105 0 -181 -2v48q77 5 86 24q5 10 5 59v455q-102 0 -120 -13q-19 -13 -47 -121l-45 3q2 91 8 161q2 28 30 28h413q69 0 99 10q26 9 52 36q39 41 60 41q29 0 29 -34q0 -25 -0.5 -140.5t-0.5 -176.5q77 60 135 60q56 0 88 -27q40 -34 40 -115
q0 -4 -1.5 -91.5t-1.5 -92.5q0 -43 6 -51q8 -12 65 -17v-46q-74 2 -130 2q-28 0 -106 -2v46q42 7 49 15t7 54q0 139 -2 164q-2 44 -15 59q-18 21 -51 21q-47 0 -82 -17q0 -11 -0.5 -120t-0.5 -110q0 -42 8 -51q7 -9 51 -15v-46q-84 2 -128 2q-63 0 -104 -2v46q46 5 54 16
q11 11 11 43q0 396 -1 481h-247v-454q0 -51 6 -62q10 -16 88 -22v-48zM156 834l28 27l119 -84l118 84l29 -25l-113 -136q-17 -20 -36 -20t-35 20z" />
    <glyph glyph-name="f_b" unicode="fb" horiz-adv-x="824" 
d="M284 -1q-92 2 -139 2q-42 0 -124 -2v46q55 9 62 18q6 7 6 46q0 56 -0.5 113.5t-0.5 91.5v34q-50 2 -74 7v44q6 2 24 6t26 6q13 4 17 13.5t6 39.5q6 101 28 149.5t67 79.5q57 39 148 39q41 0 72 -15q37 18 57 18q26 0 26 -34q0 -209 -1 -317q79 54 135 54
q84 0 128.5 -58.5t44.5 -150.5q0 -105 -64 -170t-176 -65q-64 0 -118 16l-14 -32l-46 8q2 58 2 160q0 262 -1 387q0 85 -19 104q-23 22 -67 22q-45 0 -65 -24q-23 -29 -23 -131v-90q66 0 110 -4v-55q-43 -5 -110 -5l-1 -30q0 -30 -1 -84t-1 -112q0 -51 13 -63q10 -10 73 -16
v-46zM484 340q0 -206 1 -227q0 -27 15 -42q21 -19 70 -19q56 0 81.5 36.5t25.5 119.5q0 147 -109 147q-39 0 -84 -15z" />
    <glyph glyph-name="f_f_b" unicode="ffb" horiz-adv-x="1117" 
d="M279 -1q-94 2 -134 2q-42 0 -124 -2v45q54 7 62 18q6 7 6 46q0 56 -0.5 113.5t-0.5 92.5v34q-49 2 -74 7v44q36 10 50 13q15 4 18.5 11.5t4.5 37.5q3 148 90 210q57 42 139 42q44 0 73 -15q16 -8 16 -27q0 -22 -35 -73q-43 40 -92 40q-37 0 -54 -22q-24 -27 -24 -136v-67
h122q32 0 41 5q18 7 19 47q4 100 26.5 149t66.5 79q57 39 148 39q41 0 72 -15q36 18 57 18q26 0 26 -34q0 -24 -0.5 -140.5t-0.5 -176.5q79 54 135 54q84 0 128.5 -58.5t44.5 -150.5q0 -104 -64 -169.5t-176 -65.5q-64 0 -118 16l-15 -32l-46 8q3 58 3 160q0 262 -1 387
q0 85 -19 104q-23 22 -66 22q-47 0 -65 -24q-24 -29 -24 -131v-90q67 0 112 -4v-55q-44 -5 -112 -5v-13v-32t-0.5 -46t-0.5 -62.5v-73.5q0 -49 12 -63q9 -10 78 -16v-45q-94 2 -142 2q-39 0 -125 -2v45q52 7 61 18q7 8 7 46v114v93l-1 35h-183v-13t-0.5 -32t-1 -46
t-0.5 -62.5v-73.5q0 -53 13 -63q10 -10 68 -16v-45zM776 340q0 -185 2 -227q0 -27 15 -42q19 -19 69 -19q57 0 82.5 36.5t25.5 119.5q0 147 -109 147q-39 0 -85 -15z" />
    <glyph glyph-name="f_f_h" unicode="ffh" horiz-adv-x="1129" 
d="M279 0q-94 2 -134 2q-42 0 -124 -2v45q55 9 62 18q6 7 6 46q0 56 -0.5 113.5t-0.5 91.5v34q-49 2 -74 7v44l50 13q15 3 18.5 11t4.5 38q3 148 90 210q57 42 139 42q44 0 73 -15q16 -8 16 -27q0 -22 -35 -73q-43 40 -92 40q-37 0 -54 -22q-24 -27 -24 -136v-67h122
q32 0 41 5q18 7 19 47q4 163 95 227q57 39 146 39q47 0 77 -15q37 18 57 18q27 0 27 -33q0 -25 -0.5 -143t-0.5 -179q78 60 135 60q55 0 87 -27q41 -35 41 -116q0 -4 -2 -90.5t-2 -91.5q0 -42 7 -52q11 -12 65 -17v-46q-76 2 -132 2q-24 0 -104 -2v46q42 7 49 15t7 54
q0 113 -2 163q-2 42 -15 60q-17 21 -51 21q-46 0 -83 -16q0 -11 -0.5 -120t-0.5 -110q0 -44 7 -52q7 -9 51 -15v-46q-84 2 -126 2q-62 0 -104 -2v46q44 5 54 15q11 11 11 44q0 241 -2 429q0 86 -18 103q-23 22 -72 22q-48 0 -65 -24q-24 -29 -24 -133v-87q67 0 112 -4v-55
q-44 -5 -112 -5v-13v-32t-0.5 -46t-0.5 -62v-73q0 -52 12 -63q11 -11 68 -16v-45q-92 2 -132 2q-39 0 -125 -2v45q54 9 61 18q7 8 7 46v113.5v92.5l-1 35h-183v-13t-0.5 -32t-1 -46t-0.5 -62v-73q0 -54 13 -63q10 -10 68 -16v-45z" />
    <glyph glyph-name="f_f_j" unicode="ffj" horiz-adv-x="846" 
d="M279 -1q-17 0 -48 1t-53.5 1.5t-32.5 0.5q-1 0 -124 -3v45q54 9 62 19q6 7 6 46q0 56 -0.5 113.5t-0.5 91.5v34q-49 2 -74 7v44q7 3 50 13q15 3 18.5 11t4.5 38q3 148 90 210q57 42 139 42q46 0 73 -15q16 -8 16 -27q0 -22 -35 -73q-43 40 -92 40q-37 0 -54 -22
q-24 -27 -24 -136v-67h122q32 0 41 5q18 7 19 47q4 95 28 145t66 80q57 42 155 42q63 0 104 -25q18 -11 18 -30q0 -31 -39 -79q-62 60 -137 60q-39 0 -60 -24q-23 -28 -23 -122v-95h63q66 0 103 7q10 2 39 10t44 8q31 0 31 -39q0 -61 0.5 -194.5t0.5 -188.5q0 -119 -45 -179
q-35 -48 -113 -109l-34 38q38 42 55 77q24 47 26 135q1 79 1 294q0 34 -14 53q-13 21 -89 21h-68v-13v-32t-0.5 -46t-0.5 -62.5v-73.5q0 -52 12 -63q10 -10 78 -16v-45q-94 2 -142 2q-39 0 -125 -2v45q53 9 61 19q7 8 7 45v114v93l-1 35h-183v-13t-0.5 -32t-1 -46
t-0.5 -62.5v-73.5q0 -53 13 -63q10 -10 68 -16v-45z" />
    <glyph glyph-name="f_f_k" unicode="ffk" horiz-adv-x="1099" 
d="M279 0q-94 2 -134 2q-42 0 -124 -2v45q54 9 62 19q6 7 6 45q0 56 -0.5 113.5t-0.5 91.5v34q-49 2 -74 7v44q34 10 50 14q15 4 18.5 11.5t4.5 36.5q3 148 90 210q57 42 139 42q44 0 73 -15q16 -8 16 -27q0 -22 -35 -73q-43 40 -92 40q-37 0 -54 -22q-24 -27 -24 -136v-67
h122q32 0 41 5q18 7 19 47q4 163 95 227q57 39 146 39q47 0 77 -15q36 18 57 18q27 0 27 -33q0 -63 -1 -318.5t-1 -266.5q0 -48 7 -55q10 -12 61 -16v-46q-84 2 -130 2q-26 0 -110 -2v46q44 6 53 15q11 9 11 47q0 332 -1 426q0 86 -18 103q-23 22 -72 22q-46 0 -65 -24
q-24 -33 -24 -133v-87q67 0 112 -4v-55q-44 -5 -112 -5v-13v-32t-0.5 -46t-0.5 -62v-73q0 -52 12 -63q11 -11 68 -16v-45q-92 2 -132 2q-39 0 -125 -2v45q53 9 61 19q7 8 7 45v113.5v92.5l-1 35h-183v-13t-0.5 -32t-1 -46t-0.5 -62v-73q0 -51 13 -63q12 -10 68 -16v-45z
M1072 -23q-71 12 -130 59q-15 12 -30 27.5t-25 26.5t-26 32t-22 30t-24 35t-23 33q40 36 87 87q26 28 26 49t-52 23v47q41 -2 121 -2q48 0 91 2v-47q-31 -3 -45 -10q-20 -8 -57 -45q-42 -44 -64 -64q91 -150 198 -241z" />
    <glyph glyph-name="f_h" unicode="fh" horiz-adv-x="835" 
d="M284 -1q-92 2 -139 2q-42 0 -124 -2v46q55 9 62 18q6 7 6 46q0 56 -0.5 113.5t-0.5 91.5v34q-50 2 -74 7v44q6 2 24 6t26 6q13 4 17 14t6 41q6 101 28.5 148.5t66.5 78.5q57 39 148 39q46 0 77 -15q36 18 57 18q26 0 26 -35q0 -25 -0.5 -142.5t-0.5 -178.5q78 60 135 60
q56 0 87 -27q41 -35 41 -116q0 -4 -2 -90.5t-2 -91.5q0 -42 7 -52q11 -12 65 -17v-46q-76 2 -132 2q-24 0 -104 -2v46q42 7 49 15t7 54q0 113 -2 163q-2 42 -15 60q-16 21 -51 21q-46 0 -82 -16q0 -11 -0.5 -120t-0.5 -110q0 -43 8 -52q7 -9 51 -15v-46q-86 2 -128 2
q-62 0 -104 -2v46q44 5 54 15q11 11 11 44q0 336 -1 429q-1 86 -19 104q-23 22 -72 22q-45 0 -65 -24q-23 -29 -23 -134v-87q66 0 110 -4v-55q-43 -5 -110 -5l-1 -30q0 -30 -1 -84t-1 -112q0 -51 13 -63q10 -10 73 -16v-46z" />
    <glyph glyph-name="f_j" unicode="fj" horiz-adv-x="552" 
d="M280 0q-92 2 -134 2q-43 0 -125 -2v45q54 8 62 18q6 8 6 46q0 56 -0.5 113.5t-0.5 91.5v34q-49 2 -74 7v44q3 1 13.5 3.5t20.5 5l18 4.5q12 2 16 11.5t5 40.5q3 100 27 150t68 79q61 39 155 39q65 0 104 -25q18 -11 18 -30q0 -30 -38 -79q-64 60 -137 60q-40 0 -61 -24
q-22 -27 -22 -122v-95h62q65 0 104 7q8 2 37.5 10t45.5 8q31 0 31 -39q0 -61 -0.5 -194.5t-0.5 -188.5q0 -122 -43 -179q-33 -45 -113 -109l-34 38q41 46 55 77q22 49 24 135q2 82 2 294q0 35 -13 53q-13 21 -90 21h-67v-13t-0.5 -32t-1 -46t-0.5 -62v-73q0 -52 12 -63
q13 -10 69 -16v-45z" />
    <glyph glyph-name="f_k" unicode="fk" horiz-adv-x="806" 
d="M284 -1q-92 2 -139 2q-42 0 -124 -2v46q55 9 62 18q6 7 6 46q0 56 -0.5 113.5t-0.5 91.5v34q-50 2 -74 7v44q6 2 24 6t26 6q14 4 18 12.5t5 38.5q6 101 28.5 150.5t66.5 80.5q57 39 148 39q46 0 77 -15q36 18 57 18q26 0 26 -35q0 -63 -0.5 -318t-0.5 -266q0 -48 7 -55
q10 -12 61 -16v-46q-84 2 -130 2q-27 0 -111 -2v46q44 6 53 15q12 10 12 47q0 69 -0.5 226.5t-0.5 199.5q0 85 -19 104q-23 22 -72 22q-45 0 -65 -24q-23 -29 -23 -134v-87q66 0 110 -4v-55q-43 -5 -110 -5l-1 -30q0 -30 -1 -84t-1 -112q0 -51 13 -63q10 -10 73 -16v-46z
M779 -23q-71 12 -130 59q-29 24 -57.5 56.5t-46.5 58t-47 69.5q37 32 88 87q26 28 26 49t-52 23v47q41 -2 121 -2q48 0 91 2v-47q-31 -3 -45 -10q-18 -7 -57 -45q-15 -15 -36 -36.5t-28 -27.5q91 -150 198 -241z" />
    <glyph glyph-name="uni0162_h" unicode="&#x162;h" horiz-adv-x="1059" 
d="M224 -279l-12 50q99 30 99 73q0 15 -10 25.5t-32 24.5q-20 12 -20 30q0 27 23 77q-20 0 -67 -0.5t-61 -1.5v48q77 5 86 24q5 10 5 59v455q-102 0 -120 -13q-19 -13 -47 -121l-45 3q2 91 8 161q2 28 30 28h413q69 0 99 10q26 9 52 36q40 41 59 41q30 0 30 -34
q0 -25 -0.5 -140.5t-0.5 -176.5q77 60 135 60q56 0 88 -27q40 -34 40 -115q0 -4 -1.5 -91.5t-1.5 -92.5q0 -43 6 -51q11 -12 65 -17v-46q-74 2 -130 2q-28 0 -106 -2v46q42 7 49 15t7 54q0 139 -2 164q-2 44 -15 59q-18 21 -51 21q-47 0 -82 -17q0 -11 -0.5 -120t-0.5 -110
q0 -42 8 -51q7 -9 51 -15v-46q-84 2 -128 2q-63 0 -104 -2v46q46 5 54 16q11 11 11 43q0 396 -1 481h-247v-454q0 -54 6 -62q9 -16 88 -22v-48q-68 2 -127 2q-13 -33 -13 -45q0 -13 18 -23q37 -20 50.5 -37.5t13.5 -44.5q0 -92 -169 -130z" />
    <glyph glyph-name="uni021A_h" unicode="&#x21a;h" horiz-adv-x="1064" 
d="M451 -1q-70 2 -126 2q-105 0 -181 -2v48q77 5 86 24q5 10 5 59v455q-102 -2 -120 -13q-19 -14 -47 -121l-45 3q2 91 8 161q2 28 30 28h413q69 0 99 10q22 7 52 36q37 41 60 41q29 0 29 -34q0 -25 -0.5 -140.5t-0.5 -176.5q77 60 135 60q56 0 88 -27q40 -34 40 -115
q0 -4 -1.5 -91.5t-1.5 -92.5q0 -41 6 -51q11 -12 65 -17v-46q-74 2 -130 2q-28 0 -106 -2v46q42 7 49 15t7 54q0 139 -2 164q-2 44 -15 59q-18 21 -51 21q-47 0 -82 -17q0 -11 -0.5 -120t-0.5 -110q0 -42 8 -51q7 -9 51 -15v-46q-84 2 -128 2q-63 0 -104 -2v46q46 5 54 16
q11 11 11 43q0 403 -1 488q-14 -7 -67 -7h-180v-454q0 -54 6 -62q8 -16 88 -22v-48zM263 -301l-30 30q52 61 52 96q0 17 -20 43q-13 12 -13 34q0 18 13.5 32t36.5 14q28 0 42.5 -19t14.5 -52q0 -88 -96 -178z" />
    <glyph glyph-name=".notdef" horiz-adv-x="313" 
 />
    <glyph glyph-name=".null" horiz-adv-x="0" 
 />
    <glyph glyph-name="nonmarkingreturn" horiz-adv-x="333" 
 />
    <glyph glyph-name="space" unicode=" " horiz-adv-x="206" 
 />
    <glyph glyph-name="exclam" unicode="!" horiz-adv-x="279" 
d="M183 212h-51q-40 397 -40 401q0 27 17.5 43.5t50.5 16.5q34 0 50.5 -17t16.5 -43q0 -13 -5 -57t-16.5 -144t-22.5 -200zM228 64q0 -34 -20 -53.5t-51 -19.5t-51 20t-20 51q0 30 20 50t50 20q31 0 51.5 -19t20.5 -49z" />
    <glyph glyph-name="quotedbl" unicode="&#x22;" horiz-adv-x="308" 
d="M100 398h-42q-30 203 -30 227q0 51 52 51q51 0 51 -51q0 -32 -31 -227zM248 398h-43q-29 206 -29 227q0 51 52 51q51 0 51 -51q0 -15 -31 -227z" />
    <glyph glyph-name="numbersign" unicode="#" horiz-adv-x="520" 
d="M146 -12h-49l40 201h-100v90h119l18 90h-97v91h115l36 178h51l-37 -178h95l37 178h50l-37 -178h96v-91h-114l-20 -90h93v-90h-111l-40 -201h-50l40 201h-94zM205 279h95l19 90h-95z" />
    <glyph glyph-name="dollar" unicode="$" horiz-adv-x="506" 
d="M287 -109h-53v103h-6q-54 0 -100.5 16.5t-66.5 37.5q-17 17 -17 33q0 35 41 78q20 -35 59.5 -64t89.5 -33v190l-26 15q-76 42 -110.5 86t-34.5 103q0 68 46 112t125 55v103h53v-100h6q90 0 131 -34q14 -10 14 -26q0 -31 -36 -81q-15 25 -47.5 46t-67.5 26v-192l26 -15
q82 -45 111.5 -83t29.5 -97q0 -60 -46 -108.5t-121 -62.5v-108zM354 134q0 47 -67 87v-156q32 5 49.5 23t17.5 46zM167 485q0 -32 15.5 -51t51.5 -39v161q-67 -12 -67 -71z" />
    <glyph glyph-name="percent" unicode="%" horiz-adv-x="779" 
d="M327 446q0 -103 -41 -158.5t-111 -55.5q-71 0 -111.5 51.5t-40.5 141.5q0 97 44 154t113 57q68 0 107.5 -51.5t39.5 -138.5zM245 431q0 91 -17.5 125.5t-50.5 34.5q-69 0 -69 -155q0 -88 17.5 -123.5t52.5 -35.5q33 0 50 34t17 120zM756 205q0 -103 -41 -158.5
t-111 -55.5q-71 0 -111 51.5t-40 141.5q0 97 44 154t112 57t107.5 -51.5t39.5 -138.5zM674 190q0 90 -17.5 125t-50.5 35q-69 0 -69 -156q0 -87 18 -123t52 -36q33 0 50 34.5t17 120.5zM496 634h54l-259 -635h-56z" />
    <glyph glyph-name="ampersand" unicode="&#x26;" horiz-adv-x="676" 
d="M635 -2l-26 -45q-101 25 -182 88q-81 -53 -175 -53q-100 0 -159 48t-59 132q0 69 35.5 110t108.5 73q-47 76 -47 141q0 67 46.5 116t146.5 49q68 0 109 -35.5t41 -90.5q0 -59 -35.5 -98t-118.5 -76q77 -121 148 -188q16 17 34 65q5 15 5 33q-2 23 -25 28q-22 5 -49 7v51
q52 -2 104 -2q62 0 122 2v-51q-38 -1 -61 -18q-8 -6 -26 -49q-37 -75 -64 -108q56 -66 127 -129zM288 405q58 29 79.5 57.5t21.5 62.5q-1 33 -19.5 53t-48.5 20q-72 0 -72 -86q0 -45 39 -107zM210 297q-50 -42 -50 -114q0 -51 32 -85t85 -34q56 0 98 25q-79 77 -165 208z
" />
    <glyph glyph-name="quotesingle" unicode="'" horiz-adv-x="159" 
d="M100 398h-42q-30 203 -30 227q0 51 52 51q51 0 51 -51q0 -32 -31 -227z" />
    <glyph glyph-name="parenleft" unicode="(" horiz-adv-x="311" 
d="M304 -152l-25 -32q-114 84 -177.5 205.5t-63.5 254.5q0 130 60 250.5t179 213.5l27 -32q-88 -105 -125.5 -199.5t-37.5 -232.5q0 -223 163 -428z" />
    <glyph glyph-name="parenright" unicode=")" horiz-adv-x="311" 
d="M6 707l24 32q114 -85 177 -205.5t63 -255.5q0 -131 -59.5 -251t-178.5 -212l-25 31q87 106 125 200.5t38 231.5q0 223 -164 429z" />
    <glyph glyph-name="asterisk" unicode="*" horiz-adv-x="390" 
d="M209 508q54 42 73.5 55t33.5 13q17 0 28.5 -12.5t11.5 -30.5q0 -38 -39 -42q-23 -3 -104 -7q61 -43 81 -64t20 -41q0 -16 -14.5 -27.5t-29.5 -11.5q-25 0 -37 22.5t-39 106.5q-23 -81 -38.5 -105t-38.5 -24q-14 0 -28 13t-14 29q0 36 103 104q-69 1 -104 6q-20 2 -30 11
t-10 29q0 18 12 33t30 15q11 0 33 -14.5t78 -57.5q-5 15 -12 37t-11 33.5t-7 24.5t-3 22q0 41 41 41t41 -40q0 -22 -27 -118z" />
    <glyph glyph-name="plus" unicode="+" horiz-adv-x="584" 
d="M332 67h-80v189h-172v83h172v189h80v-189h171v-83h-171v-189z" />
    <glyph glyph-name="comma" unicode="," horiz-adv-x="209" 
d="M56 -208l-41 34q40 48 55.5 77t15.5 58q0 25 -30 56q-16 16 -16 45q0 25 18.5 43.5t47.5 18.5q37 0 57 -26.5t20 -69.5q0 -111 -127 -236z" />
    <glyph glyph-name="hyphen" unicode="-" horiz-adv-x="267" 
d="M238 279v-89h-210v89h210z" />
    <glyph glyph-name="period" unicode="." horiz-adv-x="204" 
d="M173 64q0 -34 -20 -53.5t-51 -19.5t-51 20t-20 51q0 30 20 50t50 20t51 -19t21 -49z" />
    <glyph glyph-name="slash" unicode="/" horiz-adv-x="323" 
d="M308 687l-221 -757h-69l221 757h69z" />
    <glyph glyph-name="zero" unicode="0" horiz-adv-x="522" 
d="M491 333q0 -165 -62.5 -256t-168.5 -91q-107 0 -168 84.5t-61 228.5q0 154 66.5 245.5t173.5 91.5q103 0 161.5 -82t58.5 -221zM373 308q0 103 -14.5 164t-37 81.5t-56.5 20.5q-54 0 -83.5 -59t-29.5 -200q0 -150 28 -209t86 -59q53 0 80 58t27 203z" />
    <glyph glyph-name="one" unicode="1" horiz-adv-x="522" 
d="M427 -1q-78 2 -145 2q-71 0 -151 -2v48q72 5 84 19q8 11 8 59v231q0 93 -4 125q-3 27 -25 27q-28 0 -64 -9l-13 44q163 76 203 98l21 -15q-5 -120 -5 -244v-256q0 -49 6 -57q11 -17 85 -22v-48z" />
    <glyph glyph-name="two" unicode="2" horiz-adv-x="522" 
d="M458 0h-431v70q168 119 235.5 206t67.5 165q0 110 -101 110q-71 0 -142 -69l-38 47q43 49 100 78t115 29q94 0 141 -47t47 -132q0 -91 -77 -177t-229 -181q109 2 312 2v-101z" />
    <glyph glyph-name="three" unicode="3" horiz-adv-x="522" 
d="M284 351q161 -1 161 -145q0 -58 -39.5 -106.5t-96.5 -76.5t-113 -43.5t-97 -15.5q-39 0 -48 45q-4 16 -4 35q143 0 210 33t67 116q0 50 -32.5 79t-80.5 29q-38 0 -76 -8l-7 59q51 7 76 17q91 31 91 117q0 31 -17.5 51.5t-54.5 20.5q-28 0 -65 -15t-66 -40l-35 52
q96 78 196 78q78 0 117 -35t39 -90q0 -105 -125 -157z" />
    <glyph glyph-name="four" unicode="4" horiz-adv-x="522" 
d="M408 226h89v-85h-88v-168h-113v167h-268v55l280 432h101q-1 -43 -1 -135v-266zM119 223h177q0 167 4 287z" />
    <glyph glyph-name="five" unicode="5" horiz-adv-x="522" 
d="M167 418q275 -13 275 -208q0 -59 -35 -108t-87.5 -78t-108 -44.5t-102.5 -15.5q-48 0 -55 46q-4 16 -4 34q152 0 214 35t62 114q0 57 -53.5 93t-185.5 46l69 290h294l-17 -99h-242z" />
    <glyph glyph-name="six" unicode="6" horiz-adv-x="522" 
d="M171 339q21 27 59 44t77 17q64 0 105 -30t55.5 -71.5t14.5 -93.5q0 -93 -58.5 -156t-164.5 -63q-101 0 -157 72.5t-56 174.5q0 84 26 154.5t64 116t91.5 82.5t97.5 56t93 33l21 -55q-120 -52 -180.5 -114t-87.5 -167zM367 186q0 70 -25.5 107t-74.5 37q-31 0 -58 -18
t-43 -45v-17q0 -105 29.5 -154.5t76.5 -49.5q46 0 70.5 36.5t24.5 103.5z" />
    <glyph glyph-name="seven" unicode="7" horiz-adv-x="522" 
d="M376 524h-321v98h409l9 -21l-281 -644l-72 26z" />
    <glyph glyph-name="eight" unicode="8" horiz-adv-x="522" 
d="M169 306q-94 64 -94 165q0 70 51 117.5t146 47.5q85 0 129 -37.5t44 -104.5q0 -86 -108 -144q74 -43 103 -85t29 -99q0 -74 -61 -127t-155 -53q-91 0 -147.5 44.5t-56.5 118.5q0 104 120 157zM207 279q-38 -29 -54.5 -57t-16.5 -68q0 -46 32.5 -76t82.5 -30q43 0 72.5 25
t29.5 63q0 44 -29.5 71t-116.5 72zM293 375q70 51 70 119q0 38 -24.5 62.5t-67.5 24.5t-66.5 -23t-23.5 -59q0 -37 23.5 -64.5t88.5 -59.5z" />
    <glyph glyph-name="nine" unicode="9" horiz-adv-x="522" 
d="M350 281q-22 -27 -60 -44t-75 -17q-49 0 -84.5 17t-55 46t-28 62t-8.5 71q0 94 58.5 157t163.5 63q102 0 158 -72.5t56 -175.5q0 -70 -17.5 -131t-49 -105t-67.5 -78.5t-81.5 -59.5t-82.5 -40t-77 -27l-21 54q120 52 181 113.5t90 166.5zM154 436q0 -145 99 -145
q31 0 59 18t43 45v18q0 103 -30 153t-76 50q-95 0 -95 -139z" />
    <glyph glyph-name="colon" unicode=":" horiz-adv-x="224" 
d="M192 64q0 -34 -19.5 -53.5t-50.5 -19.5t-50.5 20t-19.5 51q0 30 19.5 50t49.5 20q31 0 50.5 -19t20.5 -49zM192 355q0 -34 -19.5 -54t-50.5 -20t-50.5 20t-19.5 50q0 31 19.5 51t49.5 20q31 0 50.5 -19t20.5 -48z" />
    <glyph glyph-name="semicolon" unicode=";" horiz-adv-x="224" 
d="M72 -208l-42 34q40 49 56 78t16 57q0 27 -30 56q-17 16 -17 45q0 26 18.5 44t48.5 18q37 0 57 -26.5t20 -69.5q0 -111 -127 -236zM192 355q0 -34 -19.5 -54t-50.5 -20t-50.5 20t-19.5 50q0 31 19.5 51t49.5 20q31 0 50.5 -19t20.5 -48z" />
    <glyph glyph-name="less" unicode="&#x3c;" horiz-adv-x="583" 
d="M469 62l-377 198v87l377 197v-96l-290 -144l290 -143v-99z" />
    <glyph glyph-name="equal" unicode="=" horiz-adv-x="583" 
d="M509 173h-437v85h437v-85zM509 357h-437v84h437v-84z" />
    <glyph glyph-name="greater" unicode="&#x3e;" horiz-adv-x="583" 
d="M114 544l376 -197v-87l-376 -198v96l290 145l-290 142v99z" />
    <glyph glyph-name="question" unicode="?" horiz-adv-x="383" 
d="M172 201h-50q-9 58 -9 118q0 51 59 75q51 20 70 37t19 48q0 39 -33 67t-116 28q-35 0 -59 -6q0 1 -2.5 20.5t-2.5 32.5q1 24 17 39t45 15q54 0 110 -25t97 -73t41 -106q0 -63 -33.5 -103.5t-115.5 -73.5q-27 -12 -32 -48q-1 -6 -2 -20t-3 -25zM222 64q0 -34 -20.5 -53.5
t-51.5 -19.5q-30 0 -50 20t-20 51q0 30 20.5 50t49.5 20q31 0 51.5 -19t20.5 -49z" />
    <glyph glyph-name="at" unicode="@" horiz-adv-x="722" 
d="M671 -10q-131 -122 -305 -122q-143 0 -231 86t-88 234q0 104 44 193.5t129 146.5t194 57q59 0 106.5 -17t76.5 -42.5t48 -58.5t26.5 -63t7.5 -58q0 -152 -122 -249q-30 -24 -64.5 -38.5t-58.5 -14.5q-35 0 -35 40q0 11 1 23q-79 -65 -142 -65q-31 0 -50 22t-19 62
q0 61 26.5 126.5t71.5 112.5q56 57 135 59q23 0 50 -3l11 25l59 -6l-50 -219q-12 -55 -12 -90q0 -18 11 -18q24 0 56 31q74 71 74 204q0 86 -58.5 137t-150.5 51q-133 0 -215 -97.5t-82 -254.5q0 -119 72 -190.5t183 -71.5q161 0 272 103zM403 143l41 194q2 10 2 14
q0 11 -12 14q-18 5 -30 5q-54 0 -80 -40q-53 -78 -53 -177q0 -43 34 -43q32 0 98 33z" />
    <glyph glyph-name="A" unicode="A" horiz-adv-x="662" 
d="M262 -1q-96 2 -132 2q-37 0 -125 -2v48q48 5 61 18q18 18 49 100l181 480h84l172 -484q30 -84 43 -99q10 -10 62 -15v-48q-94 2 -113 2q-84 0 -192 -2v48q51 5 66.5 13t15.5 24q0 28 -18 81l-21 59h-187l-19 -57q-21 -63 -21 -87q0 -15 17 -21t77 -12v-48zM228 283h147
q-35 105 -70 217q-17 -51 -77 -217z" />
    <glyph glyph-name="B" unicode="B" horiz-adv-x="589" 
d="M22 -1v48q57 6 66 11q7 5 10 9t5.5 16.5t2.5 36.5v403q0 44 -9 53q-14 14 -75 20v47h203q115 0 152 -6q143 -22 143 -144q0 -117 -127 -150q80 -10 122.5 -49.5t42.5 -106.5q0 -51 -19 -88t-67 -66q-58 -35 -174 -35q-18 0 -72.5 1.5t-80.5 1.5q-51 0 -123 -2zM226 370
h19q58 0 83 9q67 21 67 106q0 71 -60 92q-27 9 -109 9v-216zM226 97q0 -18 6.5 -25t22.5 -10q19 -3 45 -3q130 0 130 121q0 74 -50 105q-37 24 -137 24h-17v-212z" />
    <glyph glyph-name="C" unicode="C" horiz-adv-x="637" 
d="M591 188q-9 -88 -29 -140q-12 -30 -35 -38q-61 -24 -169 -24q-145 0 -234 84.5t-89 238.5q0 161 92 254.5t244 93.5q109 0 168 -22q21 -7 29 -32q10 -40 10 -151l-48 -2q-17 76 -27 94q-12 22 -28 29q-38 19 -97 19q-95 0 -154.5 -71t-59.5 -202q0 -129 55 -198.5
t148 -69.5q57 0 93 16q23 11 36 27q20 23 47 101z" />
    <glyph glyph-name="D" unicode="D" horiz-adv-x="679" 
d="M22 -1v48q65 6 74 17q10 13 10 57v399q0 43 -6 53q-5 9 -18.5 13t-59.5 10v47h152q148 0 221.5 -13t124.5 -42q124 -70 124 -255q0 -166 -90 -250.5t-249 -84.5q-10 0 -76 1t-83 1q-79 0 -124 -1zM227 104q0 -18 7 -26.5t25 -10.5q28 -4 60 -4q191 0 191 262
q0 166 -98 223q-57 33 -185 33v-477z" />
    <glyph glyph-name="E" unicode="E" horiz-adv-x="555" 
d="M533 178q-6 -112 -25 -155q-6 -15 -18.5 -19t-44.5 -4h-423v47q65 5 73 16q11 15 11 62v396q0 46 -7 54q-11 12 -77 21v47h402q35 0 45.5 -7t13.5 -25q7 -34 7 -136l-43 -2q-18 79 -33 92q-20 18 -118 18q-45 0 -70 -2v-219h9q107 0 124 18q9 9 21 64h44q-1 -24 -1 -109
q0 -76 1 -117h-42q-11 56 -20 68q-10 10 -33.5 12.5t-94.5 2.5h-8v-190q0 -37 26 -44q33 -9 75 -9q94 0 116 25q18 21 49 103z" />
    <glyph glyph-name="F" unicode="F" horiz-adv-x="535" 
d="M331 -1q-78 2 -159 2q-68 0 -150 -2v48q61 5 72 16q12 13 12 60v401q0 44 -8 52q-9 12 -76 20v47h409q34 0 44.5 -9t13.5 -27q7 -42 7 -133l-43 -2q-20 79 -36 94q-18 16 -114 17q-49 0 -77 -2v-231h9q66 0 92 4t36 15q12 12 20 65h44q-2 -50 -2 -112q0 -7 0.5 -50
t0.5 -66h-42q-9 56 -19 69q-6 10 -30.5 12.5t-95.5 2.5h-13v-161q0 -49 11 -62q15 -15 94 -20v-48z" />
    <glyph glyph-name="G" unicode="G" horiz-adv-x="666" 
d="M583 69q0 -27 -9.5 -38t-33.5 -19q-77 -26 -182 -26q-145 0 -234 85.5t-89 239.5q0 157 90 251.5t252 94.5q109 0 166 -22q23 -9 30 -35q9 -35 9 -146l-48 -2q-16 77 -30 99q-12 17 -30 25q-37 16 -98 16q-90 0 -151 -69.5t-61 -203.5q0 -130 54.5 -199t144.5 -69
q43 0 70 9q21 6 26 15q6 12 6 72v37q0 39 -9 48q-10 9 -70 18v49q27 -1 129 -1q72 0 122 1v-49q-42 -8 -47 -17q-7 -7 -7 -50v-114z" />
    <glyph glyph-name="H" unicode="H" horiz-adv-x="721" 
d="M311 -1q-90 2 -141 2q-52 0 -148 -2v48q63 6 73 16q11 11 11 59v399q0 45 -10 57q-8 9 -74 18v48q96 -2 148 -2q51 0 141 2v-48q-67 -9 -76 -19q-8 -11 -8 -53v-155h266v152q0 47 -8 57q-9 9 -74 18v48q94 -2 147 -2q51 0 141 2v-48q-65 -8 -76 -19q-9 -9 -9 -53v-405
q0 -43 9 -54t76 -18v-48q-90 2 -141 2q-53 0 -147 -2v48q63 6 73 16q9 9 9 59v183h-266v-186q0 -43 8 -54q9 -11 76 -18v-48z" />
    <glyph glyph-name="I" unicode="I" horiz-adv-x="333" 
d="M311 0q-90 2 -140 2q-53 0 -149 -2v47q65 6 73 16q11 13 11 59v399q0 48 -10 57q-12 11 -74 18v48q96 -2 149 -2q50 0 140 2v-48q-67 -9 -76 -19q-9 -13 -9 -53v-405q0 -43 8 -54q10 -11 77 -18v-47z" />
    <glyph glyph-name="J" unicode="J" horiz-adv-x="321" 
d="M35 -174l-31 37q97 101 98 269q1 158 1 385q0 52 -10 62q-12 10 -75 17v48q96 -2 149 -2q51 0 135 2v-48q-56 -9 -68 -19q-9 -8 -9 -54q0 -80 0.5 -199t0.5 -162q0 -101 -33 -164q-18 -35 -61 -83t-97 -89z" />
    <glyph glyph-name="K" unicode="K" horiz-adv-x="648" 
d="M620 -26q-111 27 -181 97q-92 90 -198 255q74 73 162 183q32 40 32 62q0 20 -65 25v48q42 -2 141 -2q46 0 116 2v-48q-46 -8 -59 -16q-21 -11 -52 -47q0 -1 -151 -165q100 -144 157.5 -217.5t121.5 -139.5zM310 0q-44 1 -139 1q-101 0 -149 -1v47q63 6 73 16q11 11 11 59
v399q0 48 -10 57q-11 9 -74 18v48q96 -2 149 -2q51 0 139 2v-48q-67 -9 -75 -19q-8 -9 -8 -53v-405q0 -41 9 -54q9 -12 74 -18v-47z" />
    <glyph glyph-name="L" unicode="L" horiz-adv-x="557" 
d="M534 177q-10 -107 -23 -147q-5 -18 -17.5 -24t-44.5 -6h-427v47q64 4 74 16q10 13 10 63v395q0 45 -10 57q-10 11 -74 18v48q102 -2 149 -2q51 0 143 2v-48q-64 -5 -77 -17q-10 -10 -10 -55v-412q0 -38 27 -45q34 -8 74 -8q93 0 116 25q18 19 48 101z" />
    <glyph glyph-name="M" unicode="M" horiz-adv-x="830" 
d="M258 -1q-82 2 -118 2q-29 0 -127 -2v48q62 3 72 13q12 12 15 79q16 362 16 408q0 25 -6 32q-8 11 -80 17v48q43 -2 121 -2q87 0 104 2q8 -24 156 -458q140 381 165 458q46 -2 110 -2q97 0 124 2v-48q-77 -6 -84 -16q-8 -9 -8 -53v-15.5t0.5 -35.5t1 -62.5t2 -111.5
t2.5 -167q1 -58 7 -70q5 -8 20 -11.5t65 -6.5v-48q-94 2 -162 2q-27 0 -139 -2v48q71 4 80 18q7 11 7 48q0 211 1 414q-31 -90 -197 -527h-53q-136 381 -178 510q-8 -294 -8 -407q0 -34 9 -42q6 -6 19 -8.5t63 -5.5v-48z" />
    <glyph glyph-name="N" unicode="N" horiz-adv-x="701" 
d="M265 -1q-102 2 -119 2q-20 0 -124 -2v48q67 4 77 20q7 9 7 80v132v151l1 66q0 63 -5 73q-9 14 -32 19q-31 7 -52 8v48q44 -2 113 -2q38 0 89 2q81 -117 316 -443q-2 75 -3.5 179.5t-1.5 115.5q-3 70 -11 82q-9 12 -79 18v48q104 -2 129 -2q13 0 115 2v-48q-70 -7 -79 -17
q-7 -7 -7 -83q0 -31 -0.5 -149.5t-0.5 -178.5q0 -25 0.5 -88t0.5 -80h-74q-7 9 -57 80.5t-131.5 185.5t-165.5 229q0 -55 1 -138t2 -142.5t1 -69.5q0 -72 7 -81q11 -12 83 -17v-48z" />
    <glyph glyph-name="O" unicode="O" horiz-adv-x="686" 
d="M651 325q0 -149 -86 -244t-219 -95q-149 0 -230 93t-81 243q0 148 87 241.5t221 93.5q149 0 228.5 -87t79.5 -245zM523 310q0 138 -47 210t-133 72q-83 0 -131 -66t-48 -193q0 -282 183 -282q83 0 129.5 65t46.5 194z" />
    <glyph glyph-name="P" unicode="P" horiz-adv-x="580" 
d="M323 -1q-96 2 -150 2q-43 0 -151 -2v48q57 6 71 17q13 12 13 57v403q0 45 -10 54q-11 11 -74 18v47h212q115 0 163 -9q73 -14 113 -58.5t40 -118.5q0 -95 -64.5 -146t-181.5 -51q-53 0 -78 3v-139q0 -48 12 -60q14 -12 85 -17v-48zM226 321q19 -2 53 -2q136 0 136 130
q0 99 -72 122q-34 11 -117 11v-261z" />
    <glyph glyph-name="Q" unicode="Q" horiz-adv-x="686" 
d="M651 325q0 -119 -56.5 -205.5t-150.5 -118.5q82 -64 138 -93q81 -41 147 -58l-12 -53q-139 5 -241 59q-88 47 -197 136q-118 20 -181 109t-63 221q0 148 87 241.5t221 93.5q149 0 228.5 -87t79.5 -245zM523 310q0 138 -47 210t-133 72q-83 0 -131 -66t-48 -193
q0 -282 183 -282q83 0 129.5 65t46.5 194z" />
    <glyph glyph-name="R" unicode="R" horiz-adv-x="623" 
d="M314 -1q-96 2 -176 2q-12 0 -116 -2v48q64 4 76 20q8 11 8 58v395q0 43 -7 55q-8 13 -77 21v47h145q164 0 221 -11q68 -12 107 -55t39 -112q0 -55 -30.5 -99t-89.5 -67q71 -132 121 -197q43 -57 83 -89l-24 -42q-100 31 -155 84q-78 78 -155 220q-41 0 -57 2v-150
q0 -48 7 -57q6 -6 9.5 -9t21.5 -7.5t49 -6.5v-48zM227 340q13 -3 39 -3q135 0 135 122q0 88 -69 115q-33 13 -105 13v-247z" />
    <glyph glyph-name="S" unicode="S" horiz-adv-x="485" 
d="M85 197q20 -92 43 -113q40 -35 105 -35q52 0 81 23.5t29 59.5q0 38 -18.5 60.5t-71.5 49.5l-57 31q-84 45 -115.5 90t-31.5 111q0 82 64 132t169 51q76 0 120 -16q22 -9 27 -36q8 -38 8 -143l-48 -2q-14 70 -28 95q-22 40 -99 40q-47 0 -76 -22.5t-29 -64.5
q0 -30 18 -53.5t60 -47.5l59 -35q93 -56 126 -96.5t33 -105.5q0 -82 -61 -133t-165 -51q-85 0 -149 24q-19 7 -27 18t-10 34q-6 50 -6 132z" />
    <glyph glyph-name="T" unicode="T" horiz-adv-x="596" 
d="M451 -1q-70 2 -126 2q-103 0 -181 -2v48q77 5 86 24q5 9 5 60v454q-101 -2 -119 -14q-13 -8 -23 -33.5t-25 -86.5l-45 3q2 91 8 161q2 28 30 28h478q16 0 21.5 -6t7.5 -23q5 -45 5 -158l-47 -2q-19 94 -36 109q-22 19 -133 22v-453q0 -55 5 -63q9 -16 89 -22v-48z" />
    <glyph glyph-name="U" unicode="U" horiz-adv-x="691" 
d="M675 596q-66 -8 -73 -23q-6 -13 -6 -61v-221q0 -158 -52 -228q-59 -78 -202 -78q-80 0 -134.5 25.5t-77.5 65.5q-19 32 -27 76.5t-8 139.5q0 44 0.5 122t0.5 107q0 42 -6 52q-9 16 -75 23v48q70 -2 154 -2q72 0 144 2v-48q-73 -6 -86 -21q-9 -12 -10 -50q-1 -58 -1 -231
q0 -116 21 -163q31 -73 133 -73q39 0 74.5 13.5t52.5 38.5q21 29 27.5 76t6.5 128q0 86 -4 206q-2 53 -14 60q-5 4 -13.5 6t-14.5 3t-22.5 3.5t-26.5 3.5v48q36 -2 123 -2q48 0 116 2v-48z" />
    <glyph glyph-name="V" unicode="V" horiz-adv-x="658" 
d="M365 -4h-83l-170 488q-26 75 -45 96q-9 10 -61 16v48q94 -2 153 -2q44 0 152 2v-48q-53 -6 -69 -12.5t-16 -23.5q0 -21 19 -81q22 -69 48.5 -146t42 -123t20.5 -64q5 16 22 63t44 122.5t50 145.5q18 51 18 82q0 17 -16.5 25t-71.5 12v48q100 -2 127 -2q36 0 124 2v-48
q-44 -6 -60 -20q-17 -15 -47 -97z" />
    <glyph glyph-name="W" unicode="W" horiz-adv-x="907" 
d="M310 -4h-83l-125 504q-19 76 -35 85q-17 7 -55 11v48q120 -2 149 -2q118 0 156 2v-48q-60 -4 -77.5 -12t-17.5 -27q0 -14 14 -75l69 -300l140 460h74l139 -462l69 288q14 58 14 84q0 20 -17.5 29t-75.5 15v48q94 -2 129 -2q48 0 118 2v-48q-49 -8 -61 -20q-2 -2 -4 -5
l-4 -6t-3.5 -7.5t-3 -8t-3.5 -10t-3.5 -11t-4 -14t-4 -15.5t-5 -18.5t-5.5 -21.5l-121 -463h-83l-137 452z" />
    <glyph glyph-name="X" unicode="X" horiz-adv-x="676" 
d="M666 -1q-120 2 -157 2q-53 0 -161 -2v48q46 3 61.5 8.5t15.5 19.5q0 10 -22 45l-95 146l-91 -139q-22 -33 -22 -51q0 -15 16 -20t68 -9v-48q-104 2 -140 2q-23 0 -129 -2v48q56 6 72 20q21 17 61 73l129 179l-133 199q-35 53 -52 64q-20 13 -53 14v48q116 -2 158 -2
q86 0 148 2v-48q-72 -2 -72 -26q0 -19 26 -61l74 -117l68 101q36 54 36 77q0 12 -13 17t-59 9v48q74 -2 118 -2q34 0 120 2v-48q-37 -3 -54 -15q-17 -15 -69 -85l-112 -153l132 -199q40 -60 59 -78q16 -15 72 -19v-48z" />
    <glyph glyph-name="Y" unicode="Y" horiz-adv-x="612" 
d="M456 -1q-104 2 -148 2q-52 0 -150 -2v48q73 5 83 20q6 8 6 47v156l-142 247q-29 51 -46 64q-16 12 -55 15v48q108 -2 136 -2q52 0 156 2v-48q-32 -2 -48.5 -6t-20.5 -8t-4 -11q0 -18 42 -97l74 -134l78 141q38 71 38 92q0 13 -15 17.5t-58 5.5v48q86 -2 123 -2
q23 0 103 2v-48q-37 -7 -48 -16q-19 -15 -63 -88l-133 -220v-158q0 -34 3 -45q3 -10 20.5 -14.5t68.5 -7.5v-48z" />
    <glyph glyph-name="Z" unicode="Z" horiz-adv-x="587" 
d="M25 0v37l351 549q-218 -3 -238 -17q-13 -11 -22 -29.5t-23 -69.5l-40 2q4 95 7 132q3 39 34 39h441v-37l-351 -541q42 -3 108 -3q106 0 139.5 6t49.5 22q10 12 37 103l40 -2q-2 -106 -9 -156q-3 -18 -11.5 -26.5t-32.5 -8.5h-480z" />
    <glyph glyph-name="bracketleft" unicode="[" horiz-adv-x="291" 
d="M283 -162h-199v880h199v-50h-105v-780h105v-50z" />
    <glyph glyph-name="backslash" unicode="\" horiz-adv-x="323" 
d="M242 -70l-221 757h68l221 -757h-68z" />
    <glyph glyph-name="bracketright" unicode="]" horiz-adv-x="291" 
d="M9 718h197v-880h-197v50h104v780h-104v50z" />
    <glyph glyph-name="asciicircum" unicode="^" horiz-adv-x="583" 
d="M487 334h-86l-111 240l-109 -240h-86l158 337h79z" />
    <glyph glyph-name="underscore" unicode="_" horiz-adv-x="466" 
d="M467 -130h-469v55h469v-55z" />
    <glyph glyph-name="grave" unicode="`" horiz-adv-x="283" 
d="M228 520l-35 -26l-109 106q-32 35 -32 54q0 18 13.5 31t30.5 13q16 0 27.5 -8.5t27.5 -37.5z" />
    <glyph glyph-name="a" unicode="a" horiz-adv-x="465" 
d="M457 33q-60 -45 -113 -45q-48 0 -70 54q-32 -30 -58 -41.5t-67 -11.5q-53 0 -87.5 36.5t-34.5 88.5q0 30 9.5 51.5t34.5 39.5t73 27.5t120 10.5q0 66 -14 85q-16 24 -65 24q-64 0 -116 -28q-13 23 -13 49q0 30 45 47q51 21 127 21q86 0 120 -42q26 -32 26 -101
q0 -8 -1 -74t-1 -72q0 -46 7.5 -65.5t29.5 -19.5q6 0 33 6zM267 83l-3 105q-74 -3 -98 -19t-24 -48q0 -25 15.5 -39.5t42.5 -14.5q31 0 67 16z" />
    <glyph glyph-name="b" unicode="b" horiz-adv-x="523" 
d="M118 -22l-46 8q3 58 3 160q0 228 -1 353q-1 95 -12 111q-13 18 -53 26v30q100 63 151 63q24 0 24 -34q0 -24 -0.5 -137.5t-0.5 -173.5q79 54 135 54q84 0 128.5 -58.5t44.5 -150.5q0 -104 -64 -169.5t-176 -65.5q-64 0 -118 16zM183 340q0 -206 1 -227q0 -28 15 -42
q19 -19 70 -19q56 0 81 36.5t25 119.5q0 147 -108 147q-39 0 -84 -15z" />
    <glyph glyph-name="c" unicode="c" horiz-adv-x="419" 
d="M401 61q-84 -74 -170 -74q-92 0 -146 58t-54 155q0 103 65.5 172t163.5 69q67 0 105 -23q19 -11 19 -31q0 -31 -38 -77q-46 52 -116 52q-46 0 -73.5 -32t-27.5 -95q0 -82 42 -119.5t107 -37.5q42 0 102 26z" />
    <glyph glyph-name="d" unicode="d" horiz-adv-x="545" 
d="M529 28q-94 -43 -136 -43q-20 0 -31 12.5t-16 45.5q-65 -56 -140 -56q-80 0 -127.5 59t-47.5 147q0 108 68.5 176t174.5 68q31 0 70 -7v73q0 94 -13 111q-13 18 -53 25v30q105 63 149 63q26 0 26 -33q0 -51 -0.5 -253.5t-0.5 -285.5q0 -55 8 -71.5t28 -16.5q22 0 41 3
v-47zM344 86v220q0 40 -10 51q-19 21 -75 21q-51 0 -81.5 -33.5t-30.5 -105.5q0 -91 32 -132.5t84 -41.5q44 0 81 21z" />
    <glyph glyph-name="e" unicode="e" horiz-adv-x="445" 
d="M422 57q-89 -70 -187 -70q-90 0 -147 60t-57 153q0 116 63.5 178.5t155.5 62.5q78 0 121 -49t43 -124q0 -17 -7.5 -25t-28.5 -8h-244v-6q0 -73 38 -113t104 -40q68 0 124 26zM135 285l178 9q-8 88 -87 88q-37 0 -63 -25t-28 -72z" />
    <glyph glyph-name="f" unicode="f" horiz-adv-x="310" 
d="M289 -1q-90 2 -144 2q-42 0 -124 -2v46q6 1 17.5 3t16.5 3t12 3t10.5 4t5.5 5q6 8 6 47q0 56 -0.5 113t-0.5 91v34q-52 3 -74 7v44q12 4 50 12q15 3 18.5 11.5t4.5 39.5q2 96 23.5 145.5t65.5 81.5q58 43 148 43q46 0 74 -16q14 -9 14 -30q0 -30 -33 -70q-19 20 -49.5 31
t-54.5 11q-34 0 -52 -21q-22 -27 -22 -130v-93q66 0 110 -4v-55q-43 -5 -110 -5v-12.5t-0.5 -32t-1 -46t-0.5 -61.5v-73q0 -53 12 -64q10 -9 78 -16v-46z" />
    <glyph glyph-name="g" unicode="g" horiz-adv-x="484" 
d="M300 249q0 75 -18.5 108.5t-56.5 33.5q-31 0 -49.5 -23.5t-18.5 -64.5q0 -143 75 -143q68 0 68 89zM157 116q-18 -18 -18 -38q0 -17 18 -24q17 -7 83 -12q101 -7 113 -9q65 -11 94 -36.5t29 -82.5q0 -84 -74 -138.5t-190 -54.5q-95 0 -150 38t-55 97q0 36 31 61
q35 27 84 45q-72 24 -72 75q0 42 65 99q-74 40 -74 137q0 73 53 120.5t135 47.5q55 0 102 -22q83 0 147 -6v-57q-20 -3 -78 -6q12 -25 12 -71q0 -78 -53.5 -123.5t-141.5 -45.5q-39 0 -60 6zM217 -59q-32 0 -56 -9t-40 -26.5t-16 -39.5q0 -85 133 -85q59 0 94 25t35 66
q0 34 -33.5 51.5t-116.5 17.5z" />
    <glyph glyph-name="h" unicode="h" horiz-adv-x="541" 
d="M252 -1q-84 2 -126 2q-28 0 -110 -2v46q55 8 62 15q9 11 9 44q0 65 -0.5 211.5t-0.5 186.5q0 85 -10 105q-13 26 -53 32v30q102 63 146 63q27 0 27 -32q0 -26 -0.5 -143t-0.5 -178q78 60 135 60q56 0 87 -27q41 -35 41 -116q0 -4 -2 -90.5t-2 -91.5q0 -44 7 -52
q9 -12 65 -17v-46q-76 2 -132 2q-24 0 -104 -2v46q43 7 49 15q7 8 7 54q0 113 -2 163q-2 42 -15 60q-17 21 -51 21q-46 0 -83 -16q0 -11 -0.5 -120t-0.5 -110q0 -44 7 -52q6 -7 51 -15v-46z" />
    <glyph glyph-name="i" unicode="i" horiz-adv-x="288" 
d="M271 -1q-84 2 -127 2q-39 0 -123 -2v46q52 9 59 15q9 8 9 43q0 127 -1 167q-1 39 -11 51q-13 16 -54 22v32q89 67 140 67q36 0 36 -49q0 -42 -0.5 -162t-0.5 -121q0 -44 8 -51q8 -8 65 -14v-46zM201 620q0 -28 -17.5 -48t-47.5 -20q-28 0 -46 20t-18 47q0 29 18.5 49
t46.5 20q31 0 47.5 -19t16.5 -49z" />
    <glyph glyph-name="j" unicode="j" horiz-adv-x="257" 
d="M28 -268l-34 38q34 38 55 77q23 47 25 135q2 76 2 167q0 77 -2 121q-2 43 -12 52q-16 16 -53 21v32q86 67 142 67q35 0 35 -47q0 -12 -1 -91.5t-1 -98.5q0 -27 0.5 -98t0.5 -87q0 -121 -44 -179q-35 -48 -113 -109zM187 620q0 -28 -17.5 -48t-47.5 -20q-28 0 -45.5 20
t-17.5 47q0 29 18 49t46 20q31 0 47.5 -19t16.5 -49z" />
    <glyph glyph-name="k" unicode="k" horiz-adv-x="515" 
d="M263 -1q-84 2 -130 2q-35 0 -117 -2v46q54 7 62 15q9 8 9 47q0 65 -0.5 208t-0.5 183q0 92 -10 112q-13 23 -53 29v30q100 63 146 63q27 0 27 -34q0 -70 -0.5 -312.5t-0.5 -269.5q0 -48 7 -55q10 -12 61 -16v-46zM488 -23q-72 12 -131 59q-15 12 -30 27t-25 26.5
t-25.5 32t-22 29.5t-24.5 35t-24 34q5 5 19 18t32 30.5t37 38.5q26 27 26 49q0 21 -52 23v47q41 -2 122 -2q47 0 90 2v-47q-31 -3 -45 -10q-18 -7 -57 -45q-15 -15 -36 -36.5t-28 -27.5q92 -152 199 -241z" />
    <glyph glyph-name="l" unicode="l" horiz-adv-x="282" 
d="M263 -1q-84 2 -130 2q-35 0 -117 -2v46q54 7 62 15q9 8 9 47q0 65 -0.5 208t-0.5 183q0 94 -10 112q-13 22 -53 29v30q100 63 146 63q27 0 27 -34q0 -70 -0.5 -312.5t-0.5 -269.5q0 -48 7 -55q10 -12 61 -16v-46z" />
    <glyph glyph-name="m" unicode="m" horiz-adv-x="799" 
d="M254 0q-82 2 -125 2q-24 0 -108 -2v45q51 6 60 15q8 8 8 43q0 118 -1 161q-2 43 -10 54q-11 16 -55 25v33q86 66 137 66q34 0 37 -62q67 59 137 59q82 0 108 -59q76 58 146 58q53 0 85 -26q41 -35 41 -116q0 -4 -1.5 -91t-1.5 -92q0 -39 6 -49q8 -14 65 -19v-45
q-76 2 -131 2q-25 0 -103 -2v45q40 7 47 15q9 11 9 53q0 113 -2 161q-2 43 -17 60q-19 21 -52 21q-42 0 -81 -18q3 -19 3 -45q0 -4 -1.5 -89t-1.5 -90q0 -39 7 -50q6 -11 55 -18v-45q-78 2 -121 2q-26 0 -104 -2v45q40 5 47 15q8 9 8 53q0 2 -0.5 77.5t-0.5 90.5
q0 40 -17 60q-14 17 -50 17t-77 -19q0 -11 -0.5 -119t-0.5 -109q0 -46 7 -52q9 -8 49 -14v-45z" />
    <glyph glyph-name="n" unicode="n" horiz-adv-x="542" 
d="M257 -1q-86 2 -128 2q-24 0 -108 -2v46q51 8 60 15q8 8 8 44q0 124 -1 167q-2 38 -12 51q-12 15 -53 21v32q81 67 137 67q33 0 37 -63q61 60 139 60q55 0 85 -27q39 -34 39 -117q0 -4 -1 -92t-1 -93q0 -35 4 -43q3 -8 15 -12.5t49 -9.5v-46q-76 2 -120 2q-32 0 -114 -2
v46q39 6 50 17q7 6 7 52q0 79 -3 163q-2 44 -15 61q-16 20 -51 20q-45 0 -81 -20q0 -11 -0.5 -117t-0.5 -110q0 -44 8 -51q11 -8 51 -15v-46z" />
    <glyph glyph-name="o" unicode="o" horiz-adv-x="500" 
d="M468 222q0 -108 -62 -171.5t-158 -63.5q-105 0 -160.5 62.5t-55.5 166.5q0 98 62.5 161.5t159.5 63.5q107 0 160.5 -59.5t53.5 -159.5zM349 188q0 198 -99 198q-47 0 -72.5 -37t-25.5 -110q0 -193 103 -193q94 0 94 142z" />
    <glyph glyph-name="p" unicode="p" horiz-adv-x="526" 
d="M184 338l-1 -208q0 -48 10 -58q18 -21 75 -21q46 0 77.5 33.5t31.5 102.5q0 170 -113 170q-45 0 -80 -19zM264 -255q-80 2 -135 2q-41 0 -123 -2v46q53 6 62 15q9 8 9 41q0 184 -2 424q0 35 -13 50q-12 16 -53 22v32q83 67 138 67q32 0 35 -62q69 59 137 59
q79 0 126.5 -60t47.5 -148q0 -108 -65.5 -174t-172.5 -66q-25 0 -72 7v-136q0 -48 10 -55q10 -9 71 -16v-46z" />
    <glyph glyph-name="q" unicode="q" horiz-adv-x="531" 
d="M523 -255q-82 2 -125 2q-58 0 -134 -2v46q63 8 71 16q10 9 10 82v151q-69 -49 -132 -49q-83 0 -132.5 53.5t-49.5 148.5q0 105 67.5 174.5t169.5 69.5q63 0 115 -11l26 43l49 -11q-6 -76 -6 -157v-414q0 -71 9 -81q9 -9 62 -15v-46zM344 84v210q0 47 -9 59q-17 26 -76 26
q-51 0 -82.5 -36.5t-31.5 -112.5q0 -84 32.5 -124.5t84.5 -40.5q30 0 82 19z" />
    <glyph glyph-name="r" unicode="r" horiz-adv-x="368" 
d="M282 -1q-80 2 -153 2q-24 0 -108 -2v46q51 7 60 15q8 8 8 43q0 100 -1 168q-2 39 -11 51q-11 15 -54 21v32q88 67 137 67q17 0 26 -15t12 -57q11 21 33 41q32 29 68 29q29 0 51 -15q14 -10 14 -28q0 -35 -36 -80q-40 32 -72 32q-29 0 -57 -21q0 -12 -0.5 -112.5
t-0.5 -101.5q0 -44 9 -53q12 -11 75 -16v-46z" />
    <glyph glyph-name="s" unicode="s" horiz-adv-x="403" 
d="M81 152q17 -63 27 -75q22 -31 83 -31q64 0 64 45q0 17 -11.5 29t-43.5 27l-58 27q-49 23 -70.5 54t-21.5 77q0 58 46 97t125 39q66 0 98 -14q19 -8 22 -31q5 -34 5 -93l-45 -3q-10 36 -20 54q-18 30 -70 30q-29 0 -43.5 -12.5t-14.5 -30.5q0 -19 10 -32t46 -30l49 -23
q64 -30 83.5 -58t19.5 -73q0 -59 -47.5 -98.5t-142.5 -39.5q-55 0 -99 17q-29 11 -33 41q-5 37 -5 104z" />
    <glyph glyph-name="t" unicode="t" horiz-adv-x="308" 
d="M304 23q-60 -30 -119 -30q-46 0 -78 28t-32 92q0 35 1.5 118.5t1.5 116.5q-38 2 -74 7v47q8 3 22.5 6.5t25 6.5t15.5 6q14 7 22 31q3 10 9 28.5t11.5 33.5t10.5 28h68v-128q56 0 111 -4v-55q-15 -2 -112 -6q0 -4 -0.5 -84t-0.5 -81q0 -56 2 -76q3 -23 12 -33t30 -10
q33 0 59 10z" />
    <glyph glyph-name="u" unicode="u" horiz-adv-x="542" 
d="M525 28q-94 -43 -135 -43q-20 0 -31.5 12.5t-16.5 47.5q-64 -54 -133 -54q-74 0 -105 40.5t-31 126.5q0 8 1 60t1 71q0 52 -11 63q-17 15 -57 21v41q92 20 152 20q32 0 32 -33q0 -13 -2.5 -88t-2.5 -110q0 -73 17.5 -103.5t67.5 -30.5q32 0 68 19v203q0 50 -11 61
q-12 14 -63 21v41q94 20 153 20q36 0 36 -37q0 -6 -3 -91t-3 -146q0 -49 6 -67q8 -21 31 -21q21 0 40 3v-47z" />
    <glyph glyph-name="v" unicode="v" horiz-adv-x="485" 
d="M279 -4h-76l-128 316q-19 48 -33 58q-11 7 -37 10v46q84 -2 114 -2q40 0 124 2v-46q-35 -4 -38 -4q-21 -4 -21 -21q0 -9 16 -52l70 -188l65 178q18 49 18 62q0 15 -13 19q-14 4 -47 6v46q64 -2 101 -2q24 0 86 2v-46q-29 -2 -40 -13q-13 -12 -38 -73z" />
    <glyph glyph-name="w" unicode="w" horiz-adv-x="721" 
d="M251 -4h-77l-94 304q-16 52 -26 63q-10 12 -46 17v46q42 -2 121 -2t126 2v-46q-40 -3 -46 -4q-22 -3 -22 -20q0 -14 14 -65l43 -155l107 289h68l108 -290l40 140q19 68 19 82q0 13 -14 17q-9 2 -55 6v46q37 -2 108 -2q53 0 88 2v-46q-30 -4 -42 -12q-13 -11 -37 -82
l-95 -290h-75l-102 287z" />
    <glyph glyph-name="x" unicode="x" horiz-adv-x="518" 
d="M219 -1q-41 2 -108 2q-29 0 -101 -2v46q35 4 53 18q24 19 50 47l85 94l-97 128q-24 32 -37 39q-12 6 -40 9v46q46 -2 127 -2q74 0 120 2v-46q-28 -2 -37.5 -6.5t-9.5 -14.5t24 -43l37 -47l32 37q35 40 35 54q0 17 -47 20v46q76 -2 96 -2q25 0 91 2v-46q-25 -2 -40 -12
q-13 -9 -65 -64l-71 -76l87 -108q28 -35 53 -56q18 -16 52 -19v-46q-92 2 -126 2q-39 0 -135 -2v46q53 4 53 23q0 12 -29 48l-39 48l-35 -44q-29 -35 -29 -50q0 -20 51 -25v-46z" />
    <glyph glyph-name="y" unicode="y" horiz-adv-x="499" 
d="M49 -221q50 31 94 79.5t89 138.5h-28l-131 315q-21 50 -32 57t-37 11v46q82 -2 116 -2q41 0 123 2v-46q-19 0 -39 -4t-20 -22q0 -17 15 -55l80 -205l69 196q17 48 17 65q0 16 -12 19q-13 4 -47 6v46q60 -2 104 -2q19 0 83 2v-46q-30 -3 -42 -14q-14 -14 -35 -71
q-101 -278 -171 -412q-40 -79 -77 -121q-28 -34 -57 -34q-37 0 -62 51z" />
    <glyph glyph-name="z" unicode="z" horiz-adv-x="455" 
d="M28 0v39l233 330q-92 -2 -116 -5q-25 -3 -34 -21q-8 -19 -25 -71l-42 4q1 7 2 28.5t3 43t4 37.5q4 25 13.5 32.5t37.5 7.5h302v-43l-232 -325q122 0 161 13q17 6 26 30q5 10 25 73l43 -2q0 -62 -9 -132q-3 -19 -13.5 -29t-37.5 -10h-341z" />
    <glyph glyph-name="braceleft" unicode="{" horiz-adv-x="300" 
d="M292 -175q-100 0 -145.5 38.5t-45.5 122.5v134q0 68 -19 101.5t-71 37.5v39q55 5 71.5 36.5t16.5 113.5v113q0 83 43.5 128t149.5 45v-45q-62 0 -81 -27t-19 -107v-142q0 -64 -24.5 -91.5t-81.5 -42.5q55 -11 80.5 -39.5t25.5 -94.5v-147q0 -71 20 -99.5t80 -28.5v-45z
" />
    <glyph glyph-name="bar" unicode="|" horiz-adv-x="255" 
d="M170 -174h-86v905h86v-905z" />
    <glyph glyph-name="braceright" unicode="}" horiz-adv-x="300" 
d="M10 734q100 0 145.5 -38.5t45.5 -122.5v-134q0 -69 18.5 -102t71.5 -37v-38q-55 -6 -71.5 -37t-16.5 -114v-112q0 -84 -43.5 -129t-149.5 -45v44q63 0 82 27.5t19 107.5v141q0 65 24.5 93t80.5 41q-55 13 -80.5 41t-25.5 93v149q0 71 -19.5 98.5t-80.5 27.5v46z" />
    <glyph glyph-name="asciitilde" unicode="~" horiz-adv-x="583" 
d="M112 187l-57 59q68 93 143 93q23 0 44.5 -7.5t67.5 -35.5q49 -28 72 -28q44 0 92 65l54 -57q-68 -94 -143 -94q-37 0 -91 31q-68 39 -92 39q-51 0 -90 -65z" />
    <glyph glyph-name="exclamdown" unicode="&#xa1;" horiz-adv-x="279" 
d="M97 264h52q36 -373 36 -402q0 -27 -16 -43.5t-48 -16.5q-66 0 -66 60q0 5 42 402zM191 424q0 -35 -18.5 -54.5t-49.5 -19.5t-50 20t-19 51q0 30 19 50.5t49 20.5t49.5 -19.5t19.5 -48.5z" />
    <glyph glyph-name="cent" unicode="&#xa2;" horiz-adv-x="448" 
d="M288 -109h-55v105q-77 6 -123.5 62t-46.5 143q0 85 47 147.5t123 79.5v101h55v-97h16q52 0 84 -20q15 -10 15 -27q0 -23 -38 -71q-24 29 -77 41v-270h11q40 0 100 23l20 -46q-65 -53 -131 -63v-108zM153 240q0 -110 80 -144v261q-80 -9 -80 -117z" />
    <glyph glyph-name="sterling" unicode="&#xa3;" horiz-adv-x="549" 
d="M514 0h-471v85q22 2 50 11q32 10 57.5 48t25.5 80q0 4 -1 13t-1 15h-95v66h89q-21 91 -21 135q0 85 60.5 134t152.5 49q89 0 143 -35q15 -11 15 -26q0 -24 -33 -75q-17 24 -56 46t-76 22q-49 0 -67.5 -25.5t-18.5 -77.5q0 -29 18 -147h145v-66h-137v-10q0 -81 -104 -140
q56 1 325 3v-105z" />
    <glyph glyph-name="currency" unicode="&#xa4;" horiz-adv-x="582" 
d="M475 58l-62 65q-53 -37 -122 -37q-73 0 -121 37l-63 -66l-62 66l64 66q-38 52 -38 124t38 125l-64 65l62 65l63 -65q51 38 121 38q68 0 122 -38l62 65l62 -65l-63 -65q37 -46 37 -125q0 -74 -37 -124l63 -66zM420 313q0 60 -36.5 99.5t-92.5 39.5q-55 0 -92.5 -39.5
t-37.5 -97.5q0 -61 36.5 -101t93.5 -40q55 0 92 40t37 99z" />
    <glyph glyph-name="yen" unicode="&#xa5;" horiz-adv-x="624" 
d="M524 184h-154v-71q0 -33 5 -45q2 -9 19 -13.5t67 -6.5v-49q-100 2 -147 2q-52 0 -148 -2v49q76 3 83 18q5 9 5 47v71h-150v51h150v27l-23 37h-127v51h99l-85 145q-29 49 -44 65q-12 12 -56 14v49q108 -2 137 -2q47 0 155 2v-49q-33 -1 -50 -4.5t-21.5 -7.5t-4.5 -11
q0 -22 41 -96l70 -126l76 133q38 68 38 91q0 13 -15 16.5t-58 4.5v49q84 -2 119 -2q62 0 104 2v-49q-36 -3 -49 -15q-14 -13 -80 -119l-57 -90h101v-51h-133l-21 -35v-29h154v-51z" />
    <glyph glyph-name="brokenbar" unicode="&#xa6;" horiz-adv-x="255" 
d="M170 349h-86v321h86v-321zM170 -113h-86v320h86v-320z" />
    <glyph glyph-name="section" unicode="&#xa7;" horiz-adv-x="470" 
d="M316 105q39 -39 52.5 -68t13.5 -69q0 -59 -50.5 -106t-128.5 -47q-64 0 -102 21q-31 18 -31 41q0 26 31 60q24 -23 63.5 -39t71.5 -16q28 0 46 14t18 38q0 26 -20 51t-75 76l-82 75q-46 42 -63.5 76.5t-17.5 73.5q0 93 102 138q-48 51 -48 117q0 55 43.5 99t117.5 44
q70 0 109 -27q18 -12 18 -32t-35 -58q-21 25 -53 41.5t-63 16.5q-28 0 -42.5 -14.5t-14.5 -36.5q0 -25 17 -48t68 -66l61 -51q59 -50 80 -86t21 -75q0 -82 -107 -143zM289 134q47 34 47 67q0 17 -2.5 28.5t-20 35t-51.5 50.5l-51 41q-2 2 -41 38q-18 -11 -31 -31.5
t-13 -40.5q0 -45 62 -98l50 -43q11 -9 51 -47z" />
    <glyph glyph-name="dieresis" unicode="&#xa8;" horiz-adv-x="280" 
d="M58 527q-24 0 -39.5 16.5t-15.5 43.5q0 25 15.5 41.5t41.5 16.5q24 0 39 -17t15 -41q0 -25 -15.5 -42.5t-40.5 -17.5zM221 527q-24 0 -39.5 16.5t-15.5 43.5q0 25 15.5 41.5t41.5 16.5q24 0 39 -17t15 -41q0 -25 -15.5 -42.5t-40.5 -17.5z" />
    <glyph glyph-name="copyright" unicode="&#xa9;" horiz-adv-x="748" 
d="M518 243q-14 -83 -15 -87q-5 -19 -23 -26q-38 -15 -103 -15q-85 0 -141 54t-56 149q0 100 59 158.5t155 58.5q62 0 97 -14q14 -6 17 -21q3 -13 3 -92l-31 -2q-7 36 -16 56q-6 12 -18 19q-21 13 -59 13q-54 0 -89.5 -43t-35.5 -127q0 -79 34 -122.5t85 -43.5q34 0 56 10
q10 4 22 18q9 12 30 62zM708 325q0 -144 -96 -242t-235 -98q-145 0 -241.5 96.5t-96.5 240.5q0 140 97.5 237t238.5 97q139 0 236 -96.5t97 -234.5zM657 319q0 127 -79.5 212t-201.5 85t-204 -85t-82 -209t83 -209.5t205 -85.5q118 0 198.5 84t80.5 208z" />
    <glyph glyph-name="ordfeminine" unicode="&#xaa;" horiz-adv-x="346" 
d="M346 335q-48 -35 -84 -35q-19 0 -30 10.5t-21 32.5q-49 -41 -98 -41q-40 0 -65 30t-25 71q0 49 38.5 75t141.5 27q0 53 -9 67q-13 19 -53 19q-47 0 -85 -22q-10 18 -10 35q0 25 33 39q38 17 96 17q64 0 92 -34q20 -25 20 -79q0 -6 -0.5 -56.5t-0.5 -55.5q0 -36 5 -51.5
t20 -15.5q10 0 26 4zM206 379l-3 80q-57 -4 -75 -15t-18 -34q0 -20 11 -32t32 -12q22 0 53 13z" />
    <glyph glyph-name="guillemotleft" unicode="&#xab;" horiz-adv-x="414" 
d="M231 52l-30 -28l-166 162q-10 9 -10 27t12 29l165 157l30 -27l-108 -157zM394 52l-31 -28l-165 162q-11 11 -11 27t13 29l164 157l31 -27l-109 -157z" />
    <glyph glyph-name="logicalnot" unicode="&#xac;" horiz-adv-x="583" 
d="M487 70h-78v186h-341v83h419v-269z" />
    <glyph glyph-name="uni00AD" unicode="&#xad;" horiz-adv-x="260" 
d="M232 270v-86h-205v86h205z" />
    <glyph glyph-name="registered" unicode="&#xae;" horiz-adv-x="748" 
d="M388 141q-34 1 -90 1q-53 0 -87 -1v30q41 5 46 12t5 34v235q0 30 -5 35q-6 7 -46 10v29h105q73 0 108 -7q93 -17 93 -101q0 -64 -72 -97q52 -95 70 -117q25 -32 49 -50l-20 -28q-44 17 -75 46q-54 50 -98 135q-7 -1 -20 -1q-3 0 -19 2v-90q0 -29 5 -34q6 -8 51 -13v-30z
M332 347q12 -2 25 -2q40 0 61.5 19.5t21.5 50.5q0 49 -33 66q-24 11 -75 11v-145zM708 325q0 -144 -96 -242t-235 -98q-145 0 -241.5 96.5t-96.5 240.5q0 140 97.5 237t238.5 97q139 0 236 -96.5t97 -234.5zM657 319q0 127 -79.5 212t-201.5 85t-204 -85t-82 -209t83 -209.5
t205 -85.5q118 0 198.5 84t80.5 208z" />
    <glyph glyph-name="macron" unicode="&#xaf;" horiz-adv-x="280" 
d="M265 523h-249v77h249v-77z" />
    <glyph glyph-name="degree" unicode="&#xb0;" horiz-adv-x="330" 
d="M166 667q54 0 89.5 -33t35.5 -93q0 -57 -36.5 -91t-90.5 -34t-90 33t-36 91q0 57 37 92t91 35zM164 619q-32 0 -52 -21.5t-20 -56.5q0 -34 19 -56t53 -22q35 0 55 22t20 55q0 36 -20 57.5t-55 21.5z" />
    <glyph glyph-name="plusminus" unicode="&#xb1;" horiz-adv-x="583" 
d="M331 142h-79v182h-173v81h173v182h79v-182h172v-81h-172v-182zM503 0h-424v82h424v-82z" />
    <glyph glyph-name="twosuperior" unicode="&#xb2;" 
d="M307 400h-280v51q111 76 153 125t42 96q0 31 -17 49t-46 18q-48 0 -98 -45l-24 33q71 68 146 68q121 0 121 -116q0 -57 -42.5 -103t-142.5 -106q52 2 188 2v-72z" />
    <glyph glyph-name="threesuperior" unicode="&#xb3;" 
d="M197 617q58 -1 81.5 -24t23.5 -64q0 -37 -26.5 -68t-65 -48.5t-75.5 -27.5t-63 -10q-25 0 -31 27q-2 8 -2 27q95 0 139 19.5t44 71.5q0 31 -20.5 47t-54.5 16q-24 0 -49 -5l-5 41q31 4 51 10q59 17 59 72q0 41 -47 41q-44 0 -87 -35l-23 38q68 49 129 49q53 0 78 -22
t25 -57q0 -68 -81 -98z" />
    <glyph glyph-name="acute" unicode="&#xb4;" horiz-adv-x="283" 
d="M88 494l-34 26l77 132q17 28 28.5 37.5t27.5 9.5q18 0 30.5 -12t12.5 -30q0 -25 -33 -57z" />
    <glyph glyph-name="mu" unicode="&#xb5;" horiz-adv-x="568" 
d="M546 28q-86 -43 -123 -43q-50 0 -57 60q-43 -49 -94 -49q-44 0 -69 22q2 -37 5 -84.5t5 -76.5t2 -37q0 -26 -16 -40t-43 -14q-60 0 -60 59v464q0 52 -11 63q-17 15 -57 21v41q93 20 152 20q32 0 32 -33q0 -13 -2.5 -90.5t-2.5 -112.5q0 -74 17 -101.5t68 -27.5
q34 0 68 18v204q0 50 -11 61q-12 14 -63 21v41q94 20 153 20q36 0 36 -37q0 -8 -3 -92.5t-3 -144.5q0 -49 6 -67q8 -21 31 -21q20 0 40 3v-47z" />
    <glyph glyph-name="paragraph" unicode="&#xb6;" horiz-adv-x="528" 
d="M313 -240l-42 24q58 107 65 244q4 73 4 129v369q0 42 -5 50q-9 13 -40 13q-36 0 -46 -11q-19 -19 -19 -169q0 -93 5.5 -124t18.5 -43q13 -11 66 -17v-52q-15 -2 -60 -2q-97 0 -159 56.5t-62 180.5q0 110 64 172.5t184 62.5h213v-48q-67 -5 -75 -14q-9 -10 -9 -63
q0 -16 2 -175t2 -194q0 -97 -9 -152.5t-32 -109.5q-28 -65 -66 -127z" />
    <glyph glyph-name="periodcentered" unicode="&#xb7;" horiz-adv-x="204" 
d="M172 243q0 -34 -20 -53.5t-51 -19.5q-30 0 -50.5 20t-20.5 51q0 30 20.5 50t49.5 20q31 0 51.5 -19t20.5 -49z" />
    <glyph glyph-name="cedilla" unicode="&#xb8;" horiz-adv-x="280" 
d="M65 -268l-13 47q97 29 97 71q0 14 -9.5 23.5t-31.5 24.5q-20 12 -20 29q0 16 24 78h52q-14 -37 -14 -46q0 -15 17 -23q35 -18 48.5 -35.5t13.5 -43.5q0 -88 -164 -125z" />
    <glyph glyph-name="onesuperior" unicode="&#xb9;" 
d="M294 399q-56 2 -97 2q-52 0 -108 -2v38q44 3 56 13q6 6 6 36v143q0 41 -3 64q-2 18 -16 18q-16 0 -42 -6l-10 31q70 29 141 63l15 -9q-3 -68 -3 -153v-150q0 -29 4 -36q9 -12 57 -14v-38z" />
    <glyph glyph-name="ordmasculine" unicode="&#xba;" horiz-adv-x="393" 
d="M364 487q0 -86 -47.5 -136.5t-120.5 -50.5q-80 0 -122.5 50t-42.5 132q0 76 48.5 127t121.5 51q80 0 121.5 -47t41.5 -126zM271 461q0 149 -75 149q-32 0 -52 -27t-20 -82q0 -145 77 -145q70 0 70 105z" />
    <glyph glyph-name="guillemotright" unicode="&#xbb;" horiz-adv-x="414" 
d="M183 372l30 27l165 -162q12 -12 12 -27q0 -16 -13 -29l-165 -157l-30 28l108 156zM21 372l30 27l165 -162q11 -11 11 -27q0 -17 -13 -29l-164 -157l-29 28l107 156z" />
    <glyph glyph-name="onequarter" unicode="&#xbc;" horiz-adv-x="760" 
d="M485 633h55l-259 -633h-55zM264 240q-56 2 -97 2q-52 0 -108 -2v38q44 3 56 13q6 6 6 36v143q0 42 -3 64q-2 18 -16 18q-16 0 -42 -6l-10 31q9 4 63.5 27.5t77.5 35.5l15 -9q-3 -67 -3 -153v-150q0 -29 4 -36q9 -12 57 -14v-38zM653 149h58v-62h-57v-105h-77v105h-178v42
l186 265h69q-1 -28 -1 -109v-136zM468 149h109q0 125 2 163z" />
    <glyph glyph-name="onehalf" unicode="&#xbd;" horiz-adv-x="760" 
d="M485 633h55l-259 -633h-55zM266 240q-56 2 -97 2q-52 0 -108 -2v38q44 3 56 13q6 6 6 36v143q0 42 -3 64q-2 18 -16 18q-16 0 -42 -6l-10 31q9 4 63.5 27.5t77.5 35.5l15 -9q-3 -67 -3 -153v-150q0 -29 4 -36q9 -12 57 -14v-38zM725 0h-280v51q111 76 153 125t42 96
q0 31 -17 49t-46 18q-48 0 -98 -45l-24 33q71 68 146 68q121 0 121 -116q0 -57 -42.5 -103t-142.5 -106q52 2 188 2v-72z" />
    <glyph glyph-name="threequarters" unicode="&#xbe;" horiz-adv-x="760" 
d="M499 633h55l-259 -633h-55zM200 458q58 -1 81.5 -24t23.5 -64q0 -37 -26.5 -68t-65 -48.5t-75.5 -27.5t-63 -10q-25 0 -31 27q-2 8 -2 27q95 0 139 19.5t44 71.5q0 31 -20.5 47t-54.5 16q-24 0 -49 -5l-5 41q31 4 51 10q59 17 59 72q0 41 -47 41q-44 0 -87 -35l-23 38
q68 49 129 49q53 0 78 -22t25 -57q0 -68 -81 -98zM666 149h58v-62h-57v-105h-77v105h-178v42l186 265h69q-1 -28 -1 -109v-136zM481 149h109q0 125 2 163z" />
    <glyph glyph-name="questiondown" unicode="&#xbf;" horiz-adv-x="382" 
d="M222 275h50q9 -83 9 -118q0 -30 -15 -46.5t-44 -28.5q-52 -20 -71.5 -37t-19.5 -48q0 -39 33 -67t117 -28q37 0 60 5q3 -36 3 -53q0 -23 -16 -38t-45 -15q-86 0 -167.5 59t-81.5 144q0 61 34 101t115 75q28 13 33 49q0 1 2 17t4 29zM313 424q0 -35 -19 -54.5t-50 -19.5
q-30 0 -49 20t-19 51q0 30 19 50.5t48 20.5q31 0 50.5 -19.5t19.5 -48.5z" />
    <glyph glyph-name="Agrave" unicode="&#xc0;" horiz-adv-x="662" 
d="M262 -1q-96 2 -132 2q-37 0 -125 -2v48q48 5 61 18q18 18 49 100l181 480h84l172 -484q30 -84 43 -99q10 -10 62 -15v-48q-94 2 -113 2q-84 0 -192 -2v48q51 5 66.5 13t15.5 24q0 28 -18 81l-21 59h-187l-19 -57q-21 -63 -21 -87q0 -15 17 -21t77 -12v-48zM228 283h147
q-35 105 -70 217q-17 -51 -77 -217zM418 714l-28 -34l-128 80q-42 25 -42 50q0 20 12 33.5t30 13.5q20 0 52 -33z" />
    <glyph glyph-name="Aacute" unicode="&#xc1;" horiz-adv-x="662" 
d="M262 -1q-96 2 -132 2q-37 0 -125 -2v48q48 5 61 18q18 18 49 100l181 480h84l172 -484q30 -84 43 -99q10 -10 62 -15v-48q-94 2 -113 2q-84 0 -192 -2v48q51 5 66.5 13t15.5 24q0 28 -18 81l-21 59h-187l-19 -57q-21 -63 -21 -87q0 -15 17 -21t77 -12v-48zM228 283h147
q-35 105 -70 217q-17 -51 -77 -217zM287 679l-28 34l102 109q32 35 54 35q18 0 30.5 -13.5t12.5 -33.5q0 -26 -41 -51z" />
    <glyph glyph-name="Acircumflex" unicode="&#xc2;" horiz-adv-x="662" 
d="M262 -1q-96 2 -132 2q-37 0 -125 -2v48q48 5 61 18q18 18 49 100l181 480h84l172 -484q30 -84 43 -99q10 -10 62 -15v-48q-94 2 -113 2q-84 0 -192 -2v48q51 5 66.5 13t15.5 24q0 28 -18 81l-21 59h-187l-19 -57q-21 -63 -21 -87q0 -15 17 -21t77 -12v-48zM228 283h147
q-35 105 -70 217q-17 -51 -77 -217zM487 705l-28 -27l-120 84l-116 -84l-30 25l112 136q16 21 36 21q19 0 36 -21z" />
    <glyph glyph-name="Atilde" unicode="&#xc3;" horiz-adv-x="662" 
d="M262 -1q-96 2 -132 2q-37 0 -125 -2v48q48 5 61 18q18 18 49 100l181 480h84l172 -484q30 -84 43 -99q10 -10 62 -15v-48q-94 2 -113 2q-84 0 -192 -2v48q51 5 66.5 13t15.5 24q0 28 -18 81l-21 59h-187l-19 -57q-21 -63 -21 -87q0 -15 17 -21t77 -12v-48zM228 283h147
q-35 105 -70 217q-17 -51 -77 -217zM235 694l-36 12q10 46 33 78t56 32q22 0 57 -14l30 -13q26 -12 46 -12q12 0 21.5 10t22.5 35l35 -11q-9 -50 -29 -80t-47 -30q-22 0 -70 17l-25 10q-27 12 -46 12q-15 0 -24.5 -10t-23.5 -36z" />
    <glyph glyph-name="Adieresis" unicode="&#xc4;" horiz-adv-x="662" 
d="M262 -1q-96 2 -132 2q-37 0 -125 -2v48q48 5 61 18q18 18 49 100l181 480h84l172 -484q30 -84 43 -99q10 -10 62 -15v-48q-94 2 -113 2q-84 0 -192 -2v48q51 5 66.5 13t15.5 24q0 28 -18 81l-21 59h-187l-19 -57q-21 -63 -21 -87q0 -15 17 -21t77 -12v-48zM228 283h147
q-35 105 -70 217q-17 -51 -77 -217zM247 698q-24 0 -39.5 16.5t-15.5 43.5q0 25 15.5 41.5t41.5 16.5q24 0 39 -17t15 -41q0 -25 -15.5 -42.5t-40.5 -17.5zM428 698q-24 0 -39.5 16.5t-15.5 43.5q0 25 15.5 41.5t41.5 16.5q24 0 39 -17t15 -41q0 -25 -15.5 -42.5
t-40.5 -17.5z" />
    <glyph glyph-name="Aring" unicode="&#xc5;" horiz-adv-x="662" 
d="M262 -1q-96 2 -132 2q-37 0 -125 -2v48q48 5 61 18q18 18 49 100l181 480h84l172 -484q30 -84 43 -99q10 -10 62 -15v-48q-94 2 -113 2q-84 0 -192 -2v48q51 5 66.5 13t15.5 24q0 28 -18 81l-21 59h-187l-19 -57q-21 -63 -21 -87q0 -15 17 -21t77 -12v-48zM228 283h147
q-35 105 -70 217q-17 -51 -77 -217zM426 760q0 -39 -26.5 -65t-63.5 -26q-38 0 -63.5 24.5t-25.5 64.5q0 39 26.5 64.5t64.5 25.5q39 0 63.5 -24.5t24.5 -63.5zM380 760q0 23 -12.5 35.5t-30.5 12.5q-19 0 -32 -13t-13 -35t12.5 -36t32.5 -14q19 0 31 13.5t12 36.5z" />
    <glyph glyph-name="AE" unicode="&#xc6;" horiz-adv-x="929" 
d="M283 -1q-96 2 -140 2q-52 0 -140 -2v48q49 6 65 19q36 28 80 98l228 362q16 24 16 40q0 14 -26 20q-19 4 -72 10v47h505q34 0 44 -7t13 -25q8 -41 8 -136l-43 -2q-17 75 -34 92q-19 18 -119 18q-45 0 -69 -2v-224h7q105 0 124 18q11 10 21 65h44q-1 -25 -1 -110
q0 -76 1 -117h-43q-8 56 -18 68q-9 11 -33 13t-97 2h-5v-184q0 -39 25 -45q29 -8 75 -8q96 0 119 28q17 21 47 99l43 -9q-17 -131 -25 -151q-6 -17 -18.5 -21.5t-44.5 -4.5h-425v47q49 6 60 9q19 6 21 25q2 15 2 75v76h-210l-43 -69q-32 -53 -32 -80q0 -22 28 -29
q19 -5 62 -7v-48zM304 291h174v273q0 10 -4 10q-5 0 -10 -10q-65 -117 -160 -273z" />
    <glyph glyph-name="Ccedilla" unicode="&#xc7;" horiz-adv-x="637" 
d="M255 -279l-12 50q99 31 99 73q0 25 -42 50q-20 14 -20 30q0 23 18 67q-120 16 -191.5 98.5t-71.5 219.5q0 161 92 254.5t244 93.5q109 0 168 -22q21 -7 29 -32q10 -40 10 -151l-48 -2q-17 76 -27 94q-12 22 -28 29q-38 19 -97 19q-95 0 -154.5 -71t-59.5 -202
q0 -129 55 -198.5t148 -69.5q57 0 93 16q23 11 36 27q20 23 47 101l48 -7q-9 -88 -29 -140q-12 -30 -35 -38q-61 -24 -169 -24h-9q-7 -21 -7 -30q0 -13 18 -23q37 -19 50.5 -37t13.5 -45q0 -92 -169 -130z" />
    <glyph glyph-name="Egrave" unicode="&#xc8;" horiz-adv-x="555" 
d="M533 178q-6 -112 -25 -155q-6 -15 -18.5 -19t-44.5 -4h-423v47q65 5 73 16q11 15 11 62v396q0 46 -7 54q-11 12 -77 21v47h402q35 0 45.5 -7t13.5 -25q7 -34 7 -136l-43 -2q-18 79 -33 92q-20 18 -118 18q-45 0 -70 -2v-219h9q107 0 124 18q9 9 21 64h44q-1 -24 -1 -109
q0 -76 1 -117h-42q-11 56 -20 68q-10 10 -33.5 12.5t-94.5 2.5h-8v-190q0 -37 26 -44q33 -9 75 -9q94 0 116 25q18 21 49 103zM335 713l-28 -34l-128 80q-42 25 -42 50q0 20 12 33.5t30 13.5q21 0 52 -33z" />
    <glyph glyph-name="Eacute" unicode="&#xc9;" horiz-adv-x="555" 
d="M533 178q-6 -112 -25 -155q-6 -15 -18.5 -19t-44.5 -4h-423v47q65 5 73 16q11 15 11 62v396q0 46 -7 54q-11 12 -77 21v47h402q35 0 45.5 -7t13.5 -25q7 -34 7 -136l-43 -2q-18 79 -33 92q-20 18 -118 18q-45 0 -70 -2v-219h9q107 0 124 18q9 9 21 64h44q-1 -24 -1 -109
q0 -76 1 -117h-42q-11 56 -20 68q-10 10 -33.5 12.5t-94.5 2.5h-8v-190q0 -37 26 -44q33 -9 75 -9q94 0 116 25q18 21 49 103zM245 679l-28 34l102 109q32 35 54 35q18 0 30.5 -13.5t12.5 -33.5q0 -26 -41 -51z" />
    <glyph glyph-name="Ecircumflex" unicode="&#xca;" horiz-adv-x="555" 
d="M533 178q-6 -112 -25 -155q-6 -15 -18.5 -19t-44.5 -4h-423v47q65 5 73 16q11 15 11 62v396q0 46 -7 54q-11 12 -77 21v47h402q35 0 45.5 -7t13.5 -25q7 -34 7 -136l-43 -2q-18 79 -33 92q-20 18 -118 18q-45 0 -70 -2v-219h9q107 0 124 18q9 9 21 64h44q-1 -24 -1 -109
q0 -76 1 -117h-42q-11 56 -20 68q-10 10 -33.5 12.5t-94.5 2.5h-8v-190q0 -37 26 -44q33 -9 75 -9q94 0 116 25q18 21 49 103zM414 705l-28 -27l-120 84l-116 -84l-30 25l112 136q16 21 36 21q19 0 36 -21z" />
    <glyph glyph-name="Edieresis" unicode="&#xcb;" horiz-adv-x="555" 
d="M533 178q-6 -112 -25 -155q-6 -15 -18.5 -19t-44.5 -4h-423v47q65 5 73 16q11 15 11 62v396q0 46 -7 54q-11 12 -77 21v47h402q35 0 45.5 -7t13.5 -25q7 -34 7 -136l-43 -2q-18 79 -33 92q-20 18 -118 18q-45 0 -70 -2v-219h9q107 0 124 18q9 9 21 64h44q-1 -24 -1 -109
q0 -76 1 -117h-42q-11 56 -20 68q-10 10 -33.5 12.5t-94.5 2.5h-8v-190q0 -37 26 -44q33 -9 75 -9q94 0 116 25q18 21 49 103zM186 698q-24 0 -39.5 16.5t-15.5 43.5q0 25 15.5 41.5t41.5 16.5q24 0 39 -17t15 -41q0 -25 -15.5 -42.5t-40.5 -17.5zM367 698q-24 0 -39.5 16.5
t-15.5 43.5q0 25 15.5 41.5t41.5 16.5q24 0 39 -17t15 -41q0 -25 -15.5 -42.5t-40.5 -17.5z" />
    <glyph glyph-name="Igrave" unicode="&#xcc;" horiz-adv-x="333" 
d="M311 0q-90 2 -140 2q-53 0 -149 -2v47q65 6 73 16q11 13 11 59v399q0 48 -10 57q-12 11 -74 18v48q96 -2 149 -2q50 0 140 2v-48q-67 -9 -76 -19q-9 -13 -9 -53v-405q0 -43 8 -54q10 -11 77 -18v-47zM231 713l-28 -34l-128 80q-42 25 -42 50q0 20 12 33.5t30 13.5
q21 0 52 -33z" />
    <glyph glyph-name="Iacute" unicode="&#xcd;" horiz-adv-x="333" 
d="M311 0q-90 2 -140 2q-53 0 -149 -2v47q65 6 73 16q11 13 11 59v399q0 48 -10 57q-12 11 -74 18v48q96 -2 149 -2q50 0 140 2v-48q-67 -9 -76 -19q-9 -13 -9 -53v-405q0 -43 8 -54q10 -11 77 -18v-47zM134 679l-28 34l102 109q32 35 54 35q18 0 30.5 -13.5t12.5 -33.5
q0 -26 -41 -51z" />
    <glyph glyph-name="Icircumflex" unicode="&#xce;" horiz-adv-x="333" 
d="M311 0q-90 2 -140 2q-53 0 -149 -2v47q65 6 73 16q11 13 11 59v399q0 48 -10 57q-12 11 -74 18v48q96 -2 149 -2q50 0 140 2v-48q-67 -9 -76 -19q-9 -13 -9 -53v-405q0 -43 8 -54q10 -11 77 -18v-47zM316 705l-28 -27l-120 84l-116 -84l-30 25l112 136q16 21 36 21
q19 0 36 -21z" />
    <glyph glyph-name="Idieresis" unicode="&#xcf;" horiz-adv-x="333" 
d="M311 0q-90 2 -140 2q-53 0 -149 -2v47q65 6 73 16q11 13 11 59v399q0 48 -10 57q-12 11 -74 18v48q96 -2 149 -2q50 0 140 2v-48q-67 -9 -76 -19q-9 -13 -9 -53v-405q0 -43 8 -54q10 -11 77 -18v-47zM74 698q-24 0 -39.5 16.5t-15.5 43.5q0 25 15.5 41.5t41.5 16.5
q24 0 39 -17t15 -41q0 -25 -15.5 -42.5t-40.5 -17.5zM255 698q-24 0 -39.5 16.5t-15.5 43.5q0 25 15.5 41.5t41.5 16.5q24 0 39 -17t15 -41q0 -25 -15.5 -42.5t-40.5 -17.5z" />
    <glyph glyph-name="Eth" unicode="&#xd0;" horiz-adv-x="679" 
d="M18 300v63h88v157q0 43 -6 53q-5 9 -18.5 13t-59.5 10v47h152q148 0 221.5 -13t124.5 -42q124 -70 124 -255q0 -166 -90 -250.5t-249 -84.5q-10 0 -76 1t-83 1q-79 0 -124 -1v48q66 6 74 17q10 10 10 57v179h-88zM227 104q0 -18 7 -26.5t25 -10.5q28 -4 60 -4
q191 0 191 262q0 166 -98 223q-57 33 -185 33v-218h140v-63h-140v-196z" />
    <glyph glyph-name="Ntilde" unicode="&#xd1;" horiz-adv-x="701" 
d="M265 -1q-102 2 -119 2q-20 0 -124 -2v48q67 4 77 20q7 9 7 80v132v151l1 66q0 63 -5 73q-9 14 -32 19q-31 7 -52 8v48q44 -2 113 -2q38 0 89 2q81 -117 316 -443q-2 75 -3.5 179.5t-1.5 115.5q-3 70 -11 82q-9 12 -79 18v48q104 -2 129 -2q13 0 115 2v-48q-70 -7 -79 -17
q-7 -7 -7 -83q0 -31 -0.5 -149.5t-0.5 -178.5q0 -25 0.5 -88t0.5 -80h-74q-7 9 -57 80.5t-131.5 185.5t-165.5 229q0 -55 1 -138t2 -142.5t1 -69.5q0 -72 7 -81q11 -12 83 -17v-48zM255 694l-36 12q10 46 33 78t56 32q22 0 57 -14l30 -13q25 -12 46 -12q12 0 21.5 10
t22.5 35l35 -11q-9 -50 -29 -80t-47 -30q-22 0 -70 17l-25 10q-27 12 -46 12q-15 0 -24.5 -10t-23.5 -36z" />
    <glyph glyph-name="Ograve" unicode="&#xd2;" horiz-adv-x="686" 
d="M651 325q0 -149 -86 -244t-219 -95q-149 0 -230 93t-81 243q0 148 87 241.5t221 93.5q149 0 228.5 -87t79.5 -245zM523 310q0 138 -47 210t-133 72q-83 0 -131 -66t-48 -193q0 -282 183 -282q83 0 129.5 65t46.5 194zM430 713l-28 -34l-128 80q-42 25 -42 50
q0 20 12 33.5t30 13.5q20 0 52 -33z" />
    <glyph glyph-name="Oacute" unicode="&#xd3;" horiz-adv-x="686" 
d="M651 325q0 -149 -86 -244t-219 -95q-149 0 -230 93t-81 243q0 148 87 241.5t221 93.5q149 0 228.5 -87t79.5 -245zM523 310q0 138 -47 210t-133 72q-83 0 -131 -66t-48 -193q0 -282 183 -282q83 0 129.5 65t46.5 194zM319 679l-28 34l102 109q32 35 54 35
q18 0 30.5 -13.5t12.5 -33.5q0 -26 -41 -51z" />
    <glyph glyph-name="Ocircumflex" unicode="&#xd4;" horiz-adv-x="686" 
d="M651 325q0 -149 -86 -244t-219 -95q-149 0 -230 93t-81 243q0 148 87 241.5t221 93.5q149 0 228.5 -87t79.5 -245zM523 310q0 138 -47 210t-133 72q-83 0 -131 -66t-48 -193q0 -282 183 -282q83 0 129.5 65t46.5 194zM492 705l-28 -27l-120 84l-116 -84l-30 25l112 136
q16 21 36 21q19 0 36 -21z" />
    <glyph glyph-name="Otilde" unicode="&#xd5;" horiz-adv-x="686" 
d="M651 325q0 -149 -86 -244t-219 -95q-149 0 -230 93t-81 243q0 148 87 241.5t221 93.5q149 0 228.5 -87t79.5 -245zM523 310q0 138 -47 210t-133 72q-83 0 -131 -66t-48 -193q0 -282 183 -282q83 0 129.5 65t46.5 194zM234 694l-36 12q10 46 33 78t56 32q22 0 57 -14
l30 -13q26 -12 46 -12q12 0 21.5 10t22.5 35l35 -11q-9 -50 -29 -80t-47 -30q-22 0 -70 17l-25 10q-27 12 -46 12q-15 0 -24.5 -10t-23.5 -36z" />
    <glyph glyph-name="Odieresis" unicode="&#xd6;" horiz-adv-x="686" 
d="M651 325q0 -149 -86 -244t-219 -95q-149 0 -230 93t-81 243q0 148 87 241.5t221 93.5q149 0 228.5 -87t79.5 -245zM523 310q0 138 -47 210t-133 72q-83 0 -131 -66t-48 -193q0 -282 183 -282q83 0 129.5 65t46.5 194zM253 698q-24 0 -39.5 16.5t-15.5 43.5
q0 25 15.5 41.5t41.5 16.5q24 0 39 -17t15 -41q0 -25 -15.5 -42.5t-40.5 -17.5zM434 698q-24 0 -39.5 16.5t-15.5 43.5q0 25 15.5 41.5t41.5 16.5q24 0 39 -17t15 -41q0 -25 -15.5 -42.5t-40.5 -17.5z" />
    <glyph glyph-name="multiply" unicode="&#xd7;" horiz-adv-x="565" 
d="M473 157l-57 -58l-134 142l-133 -142l-55 54l135 146l-137 145l57 58l134 -142l131 142l56 -54l-133 -146z" />
    <glyph glyph-name="Oslash" unicode="&#xd8;" horiz-adv-x="686" 
d="M113 -46l-46 34l57 82q-89 91 -89 252q0 148 87 241.5t221 93.5q98 0 167 -39l61 87l48 -36l-61 -86q93 -87 93 -258q0 -149 -86 -244t-219 -95q-103 0 -177 47zM523 310q0 109 -31 179l-271 -383q45 -55 126 -55q83 0 129.5 65t46.5 194zM164 333q0 -104 25 -171
l268 381q-44 49 -114 49q-83 0 -131 -66t-48 -193z" />
    <glyph glyph-name="Ugrave" unicode="&#xd9;" horiz-adv-x="691" 
d="M675 596q-66 -8 -73 -23q-6 -13 -6 -61v-221q0 -158 -52 -228q-59 -78 -202 -78q-80 0 -134.5 25.5t-77.5 65.5q-19 32 -27 76.5t-8 139.5q0 44 0.5 122t0.5 107q0 42 -6 52q-9 16 -75 23v48q70 -2 154 -2q72 0 144 2v-48q-73 -6 -86 -21q-9 -12 -10 -50q-1 -58 -1 -231
q0 -116 21 -163q31 -73 133 -73q39 0 74.5 13.5t52.5 38.5q21 29 27.5 76t6.5 128q0 86 -4 206q-2 53 -14 60q-5 4 -13.5 6t-14.5 3t-22.5 3.5t-26.5 3.5v48q36 -2 123 -2q48 0 116 2v-48zM431 713l-28 -34l-128 80q-42 25 -42 50q0 20 12 33.5t30 13.5q21 0 52 -33z" />
    <glyph glyph-name="Uacute" unicode="&#xda;" horiz-adv-x="691" 
d="M675 596q-66 -8 -73 -23q-6 -13 -6 -61v-221q0 -158 -52 -228q-59 -78 -202 -78q-80 0 -134.5 25.5t-77.5 65.5q-19 32 -27 76.5t-8 139.5q0 44 0.5 122t0.5 107q0 42 -6 52q-9 16 -75 23v48q70 -2 154 -2q72 0 144 2v-48q-73 -6 -86 -21q-9 -12 -10 -50q-1 -58 -1 -231
q0 -116 21 -163q31 -73 133 -73q39 0 74.5 13.5t52.5 38.5q21 29 27.5 76t6.5 128q0 86 -4 206q-2 53 -14 60q-5 4 -13.5 6t-14.5 3t-22.5 3.5t-26.5 3.5v48q36 -2 123 -2q48 0 116 2v-48zM330 679l-28 34l102 109q32 35 54 35q18 0 30.5 -13.5t12.5 -33.5q0 -26 -41 -51z
" />
    <glyph glyph-name="Ucircumflex" unicode="&#xdb;" horiz-adv-x="691" 
d="M675 596q-66 -8 -73 -23q-6 -13 -6 -61v-221q0 -158 -52 -228q-59 -78 -202 -78q-80 0 -134.5 25.5t-77.5 65.5q-19 32 -27 76.5t-8 139.5q0 44 0.5 122t0.5 107q0 42 -6 52q-9 16 -75 23v48q70 -2 154 -2q72 0 144 2v-48q-73 -6 -86 -21q-9 -12 -10 -50q-1 -58 -1 -231
q0 -116 21 -163q31 -73 133 -73q39 0 74.5 13.5t52.5 38.5q21 29 27.5 76t6.5 128q0 86 -4 206q-2 53 -14 60q-5 4 -13.5 6t-14.5 3t-22.5 3.5t-26.5 3.5v48q36 -2 123 -2q48 0 116 2v-48zM514 705l-28 -27l-120 84l-116 -84l-30 25l112 136q16 21 36 21q19 0 36 -21z" />
    <glyph glyph-name="Udieresis" unicode="&#xdc;" horiz-adv-x="691" 
d="M675 596q-66 -8 -73 -23q-6 -13 -6 -61v-221q0 -158 -52 -228q-59 -78 -202 -78q-80 0 -134.5 25.5t-77.5 65.5q-19 32 -27 76.5t-8 139.5q0 44 0.5 122t0.5 107q0 42 -6 52q-9 16 -75 23v48q70 -2 154 -2q72 0 144 2v-48q-73 -6 -86 -21q-9 -12 -10 -50q-1 -58 -1 -231
q0 -116 21 -163q31 -73 133 -73q39 0 74.5 13.5t52.5 38.5q21 29 27.5 76t6.5 128q0 86 -4 206q-2 53 -14 60q-5 4 -13.5 6t-14.5 3t-22.5 3.5t-26.5 3.5v48q36 -2 123 -2q48 0 116 2v-48zM263 698q-24 0 -39.5 16.5t-15.5 43.5q0 25 15.5 41.5t41.5 16.5q24 0 39 -17
t15 -41q0 -25 -15.5 -42.5t-40.5 -17.5zM444 698q-24 0 -39.5 16.5t-15.5 43.5q0 25 15.5 41.5t41.5 16.5q24 0 39 -17t15 -41q0 -25 -15.5 -42.5t-40.5 -17.5z" />
    <glyph glyph-name="Yacute" unicode="&#xdd;" horiz-adv-x="612" 
d="M456 -1q-104 2 -148 2q-52 0 -150 -2v48q73 5 83 20q6 8 6 47v156l-142 247q-29 51 -46 64q-16 12 -55 15v48q108 -2 136 -2q52 0 156 2v-48q-32 -2 -48.5 -6t-20.5 -8t-4 -11q0 -18 42 -97l74 -134l78 141q38 71 38 92q0 13 -15 17.5t-58 5.5v48q86 -2 123 -2
q23 0 103 2v-48q-37 -7 -48 -16q-19 -15 -63 -88l-133 -220v-158q0 -34 3 -45q3 -10 20.5 -14.5t68.5 -7.5v-48zM302 679l-28 34l102 109q32 35 54 35q18 0 30.5 -13.5t12.5 -33.5q0 -26 -41 -51z" />
    <glyph glyph-name="Thorn" unicode="&#xde;" horiz-adv-x="580" 
d="M320 -1q-96 2 -150 2q-42 0 -150 -2v47q61 8 71 17q12 11 12 59v396q0 49 -10 59t-73 18v49q94 -2 147 -2q54 0 142 2v-49q-70 -7 -78 -19q-8 -10 -8 -47v-13q42 2 60 2q63 0 111 -8q72 -12 112 -56.5t40 -122.5q0 -95 -63 -146.5t-179 -51.5q-52 0 -81 4v-19
q0 -43 11 -55q10 -12 86 -17v-47zM223 196q19 -3 54 -3q136 0 136 130q0 100 -72 123q-35 10 -82 10q-23 0 -36 -1v-259z" />
    <glyph glyph-name="germandbls" unicode="&#xdf;" horiz-adv-x="568" 
d="M201 0q-18 0 -36 1t-29 1q-42 0 -116 -2v45q54 9 61 18q8 11 8 48q0 61 -0.5 116t-0.5 86.5v34.5q-48 2 -75 7v44q12 4 38 10q22 6 26 8q8 7 9 47q2 91 25 140t68 85q56 43 141 43q74 0 116 -40t42 -99q0 -48 -18 -78.5t-59 -72.5q-46 -46 -46 -62q0 -15 14 -28
q8 -8 33.5 -27.5t46.5 -37.5q82 -68 82 -142q0 -70 -51.5 -113.5t-125.5 -43.5q-59 0 -99 21q-26 14 -26 39q0 23 29 57q17 -24 46.5 -37.5t56.5 -13.5q68 0 68 57q0 19 -13.5 39t-54.5 55q-67 55 -80 67q-32 32 -32 63q0 23 14 44t57 68q34 37 49.5 65.5t15.5 65.5
q0 40 -22.5 62.5t-60.5 22.5q-54 0 -76.5 -30.5t-24.5 -96.5q-4 -168 -4 -403q0 -37 4 -133z" />
    <glyph glyph-name="agrave" unicode="&#xe0;" horiz-adv-x="465" 
d="M280 520l-35 -26l-109 106q-32 35 -32 54q0 18 13.5 31t30.5 13q16 0 27.5 -8.5t27.5 -37.5zM457 33q-60 -45 -113 -45q-48 0 -70 54q-32 -30 -58 -41.5t-67 -11.5q-53 0 -87.5 36.5t-34.5 88.5q0 30 9.5 51.5t34.5 39.5t73 27.5t120 10.5q0 66 -14 85q-16 24 -65 24
q-64 0 -116 -28q-13 23 -13 49q0 30 45 47q51 21 127 21q86 0 120 -42q26 -32 26 -101q0 -8 -1 -74t-1 -72q0 -46 7.5 -65.5t29.5 -19.5q6 0 33 6zM267 83l-3 105q-74 -3 -98 -19t-24 -48q0 -25 15.5 -39.5t42.5 -14.5q31 0 67 16z" />
    <glyph glyph-name="aacute" unicode="&#xe1;" horiz-adv-x="465" 
d="M457 33q-60 -45 -113 -45q-48 0 -70 54q-32 -30 -58 -41.5t-67 -11.5q-53 0 -87.5 36.5t-34.5 88.5q0 30 9.5 51.5t34.5 39.5t73 27.5t120 10.5q0 66 -14 85q-16 24 -65 24q-64 0 -116 -28q-13 23 -13 49q0 30 45 47q51 21 127 21q86 0 120 -42q26 -32 26 -101
q0 -8 -1 -74t-1 -72q0 -46 7.5 -65.5t29.5 -19.5q6 0 33 6zM267 83l-3 105q-74 -3 -98 -19t-24 -48q0 -25 15.5 -39.5t42.5 -14.5q31 0 67 16zM201 494l-34 26l77 132q17 28 28.5 37.5t27.5 9.5q18 0 30.5 -12t12.5 -30q0 -25 -33 -57z" />
    <glyph glyph-name="acircumflex" unicode="&#xe2;" horiz-adv-x="465" 
d="M360 505l-34 -26l-104 103l-104 -103l-32 25l103 151q15 22 35 22q21 0 35 -21zM457 33q-60 -45 -113 -45q-48 0 -70 54q-32 -30 -58 -41.5t-67 -11.5q-53 0 -87.5 36.5t-34.5 88.5q0 30 9.5 51.5t34.5 39.5t73 27.5t120 10.5q0 66 -14 85q-16 24 -65 24q-64 0 -116 -28
q-13 23 -13 49q0 30 45 47q51 21 127 21q86 0 120 -42q26 -32 26 -101q0 -8 -1 -74t-1 -72q0 -46 7.5 -65.5t29.5 -19.5q6 0 33 6zM267 83l-3 105q-74 -3 -98 -19t-24 -48q0 -25 15.5 -39.5t42.5 -14.5q31 0 67 16z" />
    <glyph glyph-name="atilde" unicode="&#xe3;" horiz-adv-x="465" 
d="M110 510l-34 13q9 45 32 78t55 33q21 0 53 -15l25 -11q26 -13 45 -13q12 0 21 10.5t23 36.5l34 -13q-9 -51 -29 -81t-46 -30q-20 0 -65 18l-23 9q-28 11 -42 11q-15 0 -25.5 -10t-23.5 -36zM457 33q-60 -45 -113 -45q-48 0 -70 54q-32 -30 -58 -41.5t-67 -11.5
q-53 0 -87.5 36.5t-34.5 88.5q0 30 9.5 51.5t34.5 39.5t73 27.5t120 10.5q0 66 -14 85q-16 24 -65 24q-64 0 -116 -28q-13 23 -13 49q0 30 45 47q51 21 127 21q86 0 120 -42q26 -32 26 -101q0 -8 -1 -74t-1 -72q0 -46 7.5 -65.5t29.5 -19.5q6 0 33 6zM267 83l-3 105
q-74 -3 -98 -19t-24 -48q0 -25 15.5 -39.5t42.5 -14.5q31 0 67 16z" />
    <glyph glyph-name="adieresis" unicode="&#xe4;" horiz-adv-x="465" 
d="M138 527q-24 0 -39.5 16.5t-15.5 43.5q0 25 15.5 41.5t41.5 16.5q24 0 39 -17t15 -41q0 -25 -15.5 -42.5t-40.5 -17.5zM301 527q-24 0 -39.5 16.5t-15.5 43.5q0 25 15.5 41.5t41.5 16.5q24 0 39 -17t15 -41q0 -25 -15.5 -42.5t-40.5 -17.5zM457 33q-60 -45 -113 -45
q-48 0 -70 54q-32 -30 -58 -41.5t-67 -11.5q-53 0 -87.5 36.5t-34.5 88.5q0 30 9.5 51.5t34.5 39.5t73 27.5t120 10.5q0 66 -14 85q-16 24 -65 24q-64 0 -116 -28q-13 23 -13 49q0 30 45 47q51 21 127 21q86 0 120 -42q26 -32 26 -101q0 -8 -1 -74t-1 -72q0 -46 7.5 -65.5
t29.5 -19.5q6 0 33 6zM267 83l-3 105q-74 -3 -98 -19t-24 -48q0 -25 15.5 -39.5t42.5 -14.5q31 0 67 16z" />
    <glyph glyph-name="aring" unicode="&#xe5;" horiz-adv-x="465" 
d="M310 585q0 -39 -26 -65t-63 -26q-38 0 -64 25t-26 64t26.5 65t64.5 26q39 0 63.5 -24.5t24.5 -64.5zM264 585q0 24 -12.5 36.5t-30.5 12.5q-19 0 -32 -13t-13 -36q0 -22 12.5 -35.5t32.5 -13.5q19 0 31 13t12 36zM457 33q-60 -45 -113 -45q-48 0 -70 54
q-32 -30 -58 -41.5t-67 -11.5q-53 0 -87.5 36.5t-34.5 88.5q0 30 9.5 51.5t34.5 39.5t73 27.5t120 10.5q0 66 -14 85q-16 24 -65 24q-64 0 -116 -28q-13 23 -13 49q0 30 45 47q51 21 127 21q86 0 120 -42q26 -32 26 -101q0 -8 -1 -74t-1 -72q0 -46 7.5 -65.5t29.5 -19.5
q6 0 33 6zM267 83l-3 105q-74 -3 -98 -19t-24 -48q0 -25 15.5 -39.5t42.5 -14.5q31 0 67 16z" />
    <glyph glyph-name="ae" unicode="&#xe6;" horiz-adv-x="674" 
d="M652 55q-90 -70 -187 -70q-87 0 -140 56q-81 -54 -159 -54q-64 0 -101.5 38.5t-37.5 89.5q0 61 50 92.5t187 33.5q0 67 -14 89q-15 24 -66 24q-65 0 -116 -27q-12 29 -12 47q0 30 44 46q55 21 124 21q89 0 114 -56q55 56 139 56q82 0 124.5 -49t42.5 -124q0 -17 -8 -25
t-28 -8h-243v-7q0 -70 37 -112t101 -42q73 0 128 26zM287 91q-17 34 -21 100q-74 -2 -99 -20t-25 -49q0 -26 17 -43t45 -17q41 0 83 29zM366 285l178 9q-7 88 -90 88q-34 0 -60 -24.5t-28 -72.5z" />
    <glyph glyph-name="ccedilla" unicode="&#xe7;" horiz-adv-x="419" 
d="M145 -268l-13 47q97 29 97 71q0 14 -9.5 23.5t-31.5 24.5q-20 12 -20 29t17 62q-72 14 -113 70t-41 141q0 103 65.5 172t163.5 69q67 0 105 -23q19 -11 19 -31q0 -31 -38 -77q-46 52 -116 52q-46 0 -73.5 -32t-27.5 -95q0 -82 42.5 -120.5t106.5 -38.5q42 0 102 26
l21 -43q-81 -71 -165 -74q-6 -17 -6 -26q0 -15 17 -23q35 -18 48.5 -35.5t13.5 -43.5q0 -88 -164 -125z" />
    <glyph glyph-name="egrave" unicode="&#xe8;" horiz-adv-x="445" 
d="M422 57q-89 -70 -187 -70q-90 0 -147 60t-57 153q0 116 63.5 178.5t155.5 62.5q78 0 121 -49t43 -124q0 -17 -7.5 -25t-28.5 -8h-244v-6q0 -73 38 -113t104 -40q68 0 124 26zM135 285l178 9q-8 88 -87 88q-37 0 -63 -25t-28 -72zM296 520l-35 -26l-109 106q-32 35 -32 54
q0 18 13.5 31t30.5 13q16 0 27.5 -8.5t27.5 -37.5z" />
    <glyph glyph-name="eacute" unicode="&#xe9;" horiz-adv-x="445" 
d="M422 57q-89 -70 -187 -70q-90 0 -147 60t-57 153q0 116 63.5 178.5t155.5 62.5q78 0 121 -49t43 -124q0 -17 -7.5 -25t-28.5 -8h-244v-6q0 -73 38 -113t104 -40q68 0 124 26zM135 285l178 9q-8 88 -87 88q-37 0 -63 -25t-28 -72zM213 494l-34 26l77 132q17 28 28.5 37.5
t27.5 9.5q18 0 30.5 -12t12.5 -30q0 -25 -33 -57z" />
    <glyph glyph-name="ecircumflex" unicode="&#xea;" horiz-adv-x="445" 
d="M422 57q-89 -70 -187 -70q-90 0 -147 60t-57 153q0 116 63.5 178.5t155.5 62.5q78 0 121 -49t43 -124q0 -17 -7.5 -25t-28.5 -8h-244v-6q0 -73 38 -113t104 -40q68 0 124 26zM135 285l178 9q-8 88 -87 88q-37 0 -63 -25t-28 -72zM372 505l-34 -26l-104 103l-104 -103
l-32 25l103 151q15 22 35 22q21 0 35 -21z" />
    <glyph glyph-name="edieresis" unicode="&#xeb;" horiz-adv-x="445" 
d="M422 57q-89 -70 -187 -70q-90 0 -147 60t-57 153q0 116 63.5 178.5t155.5 62.5q78 0 121 -49t43 -124q0 -17 -7.5 -25t-28.5 -8h-244v-6q0 -73 38 -113t104 -40q68 0 124 26zM135 285l178 9q-8 88 -87 88q-37 0 -63 -25t-28 -72zM157 527q-24 0 -39.5 16.5t-15.5 43.5
q0 25 15.5 41.5t41.5 16.5q24 0 39 -17t15 -41q0 -25 -15.5 -42.5t-40.5 -17.5zM320 527q-24 0 -39.5 16.5t-15.5 43.5q0 25 15.5 41.5t41.5 16.5q24 0 39 -17t15 -41q0 -25 -15.5 -42.5t-40.5 -17.5z" />
    <glyph glyph-name="igrave" unicode="&#xec;" horiz-adv-x="288" 
d="M207 520l-35 -26l-109 106q-32 35 -32 54q0 18 13.5 31t30.5 13q16 0 27.5 -8.5t27.5 -37.5zM271 -1q-84 2 -127 2q-39 0 -123 -2v46q52 9 59 15q9 8 9 43q0 127 -1 167q-1 39 -11 51q-13 16 -54 22v32q89 67 140 67q36 0 36 -49q0 -42 -0.5 -162t-0.5 -121q0 -44 8 -51
q8 -8 65 -14v-46z" />
    <glyph glyph-name="iacute" unicode="&#xed;" horiz-adv-x="288" 
d="M102 494l-34 26l77 132q17 28 28.5 37.5t27.5 9.5q18 0 30.5 -12t12.5 -30q0 -25 -33 -57zM271 -1q-84 2 -127 2q-39 0 -123 -2v46q52 9 59 15q9 8 9 43q0 127 -1 167q-1 39 -11 51q-13 16 -54 22v32q89 67 140 67q36 0 36 -49q0 -42 -0.5 -162t-0.5 -121q0 -44 8 -51
q8 -8 65 -14v-46z" />
    <glyph glyph-name="icircumflex" unicode="&#xee;" horiz-adv-x="288" 
d="M271 -1q-84 2 -127 2q-39 0 -123 -2v46q52 9 59 15q9 8 9 43q0 127 -1 167q-1 39 -11 51q-13 16 -54 22v32q89 67 140 67q36 0 36 -49q0 -42 -0.5 -162t-0.5 -121q0 -44 8 -51q8 -8 65 -14v-46zM270 505l-34 -26l-104 103l-104 -103l-32 25l103 151q15 22 35 22
q21 0 35 -21z" />
    <glyph glyph-name="idieresis" unicode="&#xef;" horiz-adv-x="288" 
d="M54 527q-24 0 -39.5 16.5t-15.5 43.5q0 25 15.5 41.5t41.5 16.5q24 0 39 -17t15 -41q0 -25 -15.5 -42.5t-40.5 -17.5zM217 527q-24 0 -39.5 16.5t-15.5 43.5q0 25 15.5 41.5t41.5 16.5q24 0 39 -17t15 -41q0 -25 -15.5 -42.5t-40.5 -17.5zM271 -1q-84 2 -127 2
q-39 0 -123 -2v46q52 9 59 15q9 8 9 43q0 127 -1 167q-1 39 -11 51q-13 16 -54 22v32q89 67 140 67q36 0 36 -49q0 -42 -0.5 -162t-0.5 -121q0 -44 8 -51q8 -8 65 -14v-46z" />
    <glyph glyph-name="eth" unicode="&#xf0;" horiz-adv-x="498" 
d="M407 608l-66 -39q127 -136 127 -346q0 -108 -61.5 -172t-157.5 -64q-106 0 -161.5 57.5t-55.5 154.5q0 93 57 152t150 59q58 0 86 -25q-19 68 -71 131l-98 -59l-26 43l92 55q-64 69 -142 103l23 54q121 -37 202 -106l75 45zM349 177q0 180 -99 180q-98 0 -98 -136
q0 -177 102 -177q95 0 95 133z" />
    <glyph glyph-name="ntilde" unicode="&#xf1;" horiz-adv-x="542" 
d="M257 -1q-86 2 -128 2q-24 0 -108 -2v46q51 8 60 15q8 8 8 44q0 124 -1 167q-2 38 -12 51q-12 15 -53 21v32q81 67 137 67q33 0 37 -63q61 60 139 60q55 0 85 -27q39 -34 39 -117q0 -4 -1 -92t-1 -93q0 -35 4 -43q3 -8 15 -12.5t49 -9.5v-46q-76 2 -120 2q-32 0 -114 -2
v46q39 6 50 17q7 6 7 52q0 79 -3 163q-2 44 -15 61q-16 20 -51 20q-45 0 -81 -20q0 -11 -0.5 -117t-0.5 -110q0 -44 8 -51q11 -8 51 -15v-46zM159 512l-34 13q9 45 32 78t55 33q21 0 53 -15l25 -11q26 -13 45 -13q12 0 21 10.5t23 36.5l34 -13q-9 -51 -29 -81t-46 -30
q-20 0 -65 18l-23 9q-28 11 -42 11q-15 0 -25.5 -10t-23.5 -36z" />
    <glyph glyph-name="ograve" unicode="&#xf2;" horiz-adv-x="500" 
d="M468 222q0 -108 -62 -171.5t-158 -63.5q-105 0 -160.5 62.5t-55.5 166.5q0 98 62.5 161.5t159.5 63.5q107 0 160.5 -59.5t53.5 -159.5zM349 188q0 198 -99 198q-47 0 -72.5 -37t-25.5 -110q0 -193 103 -193q94 0 94 142zM306 520l-35 -26l-109 106q-32 35 -32 54
q0 18 13.5 31t30.5 13q16 0 27.5 -8.5t27.5 -37.5z" />
    <glyph glyph-name="oacute" unicode="&#xf3;" horiz-adv-x="500" 
d="M468 222q0 -108 -62 -171.5t-158 -63.5q-105 0 -160.5 62.5t-55.5 166.5q0 98 62.5 161.5t159.5 63.5q107 0 160.5 -59.5t53.5 -159.5zM349 188q0 198 -99 198q-47 0 -72.5 -37t-25.5 -110q0 -193 103 -193q94 0 94 142zM218 494l-34 26l77 132q17 28 28.5 37.5t27.5 9.5
q18 0 30.5 -12t12.5 -30q0 -25 -33 -57z" />
    <glyph glyph-name="ocircumflex" unicode="&#xf4;" horiz-adv-x="500" 
d="M468 222q0 -108 -62 -171.5t-158 -63.5q-105 0 -160.5 62.5t-55.5 166.5q0 98 62.5 161.5t159.5 63.5q107 0 160.5 -59.5t53.5 -159.5zM349 188q0 198 -99 198q-47 0 -72.5 -37t-25.5 -110q0 -193 103 -193q94 0 94 142zM388 505l-34 -26l-104 103l-104 -103l-32 25
l103 151q15 22 35 22q21 0 35 -21z" />
    <glyph glyph-name="otilde" unicode="&#xf5;" horiz-adv-x="500" 
d="M468 222q0 -108 -62 -171.5t-158 -63.5q-105 0 -160.5 62.5t-55.5 166.5q0 98 62.5 161.5t159.5 63.5q107 0 160.5 -59.5t53.5 -159.5zM349 188q0 198 -99 198q-47 0 -72.5 -37t-25.5 -110q0 -193 103 -193q94 0 94 142zM140 513l-34 13q9 45 32 78t55 33q21 0 53 -15
l25 -11q26 -13 45 -13q12 0 21 10.5t23 36.5l34 -13q-9 -51 -29 -81t-46 -30q-20 0 -65 18l-23 9q-28 11 -42 11q-15 0 -25.5 -10t-23.5 -36z" />
    <glyph glyph-name="odieresis" unicode="&#xf6;" horiz-adv-x="500" 
d="M468 222q0 -108 -62 -171.5t-158 -63.5q-105 0 -160.5 62.5t-55.5 166.5q0 98 62.5 161.5t159.5 63.5q107 0 160.5 -59.5t53.5 -159.5zM349 188q0 198 -99 198q-47 0 -72.5 -37t-25.5 -110q0 -193 103 -193q94 0 94 142zM170 527q-24 0 -39.5 16.5t-15.5 43.5
q0 25 15.5 41.5t41.5 16.5q24 0 39 -17t15 -41q0 -25 -15.5 -42.5t-40.5 -17.5zM333 527q-24 0 -39.5 16.5t-15.5 43.5q0 25 15.5 41.5t41.5 16.5q24 0 39 -17t15 -41q0 -25 -15.5 -42.5t-40.5 -17.5z" />
    <glyph glyph-name="divide" unicode="&#xf7;" horiz-adv-x="583" 
d="M349 465q0 -28 -16.5 -45.5t-42.5 -17.5q-25 0 -41.5 18t-16.5 46q0 26 16.5 43.5t41.5 17.5q26 0 42.5 -17.5t16.5 -44.5zM509 264h-437v86h437v-86zM349 148q0 -26 -17 -44t-42 -18t-41.5 18t-16.5 45t16.5 45t41.5 18q26 0 42.5 -18t16.5 -46z" />
    <glyph glyph-name="oslash" unicode="&#xf8;" horiz-adv-x="500" 
d="M94 -38l-41 30l38 53q-60 61 -60 171q0 98 63 161.5t160 63.5q62 0 109 -22l45 62l41 -31l-44 -60q63 -57 63 -168q0 -108 -62 -171.5t-158 -63.5q-67 0 -116 27zM354 188q0 68 -13 114l-159 -219q26 -37 73 -37q99 0 99 142zM147 239q0 -59 11 -103l158 218
q-26 32 -66 32q-103 0 -103 -147z" />
    <glyph glyph-name="ugrave" unicode="&#xf9;" horiz-adv-x="542" 
d="M525 28q-94 -43 -135 -43q-20 0 -31.5 12.5t-16.5 47.5q-64 -54 -133 -54q-74 0 -105 40.5t-31 126.5q0 8 1 60t1 71q0 52 -11 63q-17 15 -57 21v41q92 20 152 20q32 0 32 -33q0 -13 -2.5 -88t-2.5 -110q0 -73 17.5 -103.5t67.5 -30.5q32 0 68 19v203q0 50 -11 61
q-12 14 -63 21v41q94 20 153 20q36 0 36 -37q0 -6 -3 -91t-3 -146q0 -49 6 -67q8 -21 31 -21q21 0 40 3v-47zM324 520l-35 -26l-109 106q-32 35 -32 54q0 18 13.5 31t30.5 13q16 0 27.5 -8.5t27.5 -37.5z" />
    <glyph glyph-name="uacute" unicode="&#xfa;" horiz-adv-x="542" 
d="M525 28q-94 -43 -135 -43q-20 0 -31.5 12.5t-16.5 47.5q-64 -54 -133 -54q-74 0 -105 40.5t-31 126.5q0 8 1 60t1 71q0 52 -11 63q-17 15 -57 21v41q92 20 152 20q32 0 32 -33q0 -13 -2.5 -88t-2.5 -110q0 -73 17.5 -103.5t67.5 -30.5q32 0 68 19v203q0 50 -11 61
q-12 14 -63 21v41q94 20 153 20q36 0 36 -37q0 -6 -3 -91t-3 -146q0 -49 6 -67q8 -21 31 -21q21 0 40 3v-47zM238 494l-34 26l77 132q17 28 28.5 37.5t27.5 9.5q18 0 30.5 -12t12.5 -30q0 -25 -33 -57z" />
    <glyph glyph-name="ucircumflex" unicode="&#xfb;" horiz-adv-x="542" 
d="M525 28q-94 -43 -135 -43q-20 0 -31.5 12.5t-16.5 47.5q-64 -54 -133 -54q-74 0 -105 40.5t-31 126.5q0 8 1 60t1 71q0 52 -11 63q-17 15 -57 21v41q92 20 152 20q32 0 32 -33q0 -13 -2.5 -88t-2.5 -110q0 -73 17.5 -103.5t67.5 -30.5q32 0 68 19v203q0 50 -11 61
q-12 14 -63 21v41q94 20 153 20q36 0 36 -37q0 -6 -3 -91t-3 -146q0 -49 6 -67q8 -21 31 -21q21 0 40 3v-47zM405 505l-34 -26l-104 103l-104 -103l-32 25l103 151q15 22 35 22q21 0 35 -21z" />
    <glyph glyph-name="udieresis" unicode="&#xfc;" horiz-adv-x="542" 
d="M525 28q-94 -43 -135 -43q-20 0 -31.5 12.5t-16.5 47.5q-64 -54 -133 -54q-74 0 -105 40.5t-31 126.5q0 8 1 60t1 71q0 52 -11 63q-17 15 -57 21v41q92 20 152 20q32 0 32 -33q0 -13 -2.5 -88t-2.5 -110q0 -73 17.5 -103.5t67.5 -30.5q32 0 68 19v203q0 50 -11 61
q-12 14 -63 21v41q94 20 153 20q36 0 36 -37q0 -6 -3 -91t-3 -146q0 -49 6 -67q8 -21 31 -21q21 0 40 3v-47zM182 527q-24 0 -39.5 16.5t-15.5 43.5q0 25 15.5 41.5t41.5 16.5q24 0 39 -17t15 -41q0 -25 -15.5 -42.5t-40.5 -17.5zM345 527q-24 0 -39.5 16.5t-15.5 43.5
q0 25 15.5 41.5t41.5 16.5q24 0 39 -17t15 -41q0 -25 -15.5 -42.5t-40.5 -17.5z" />
    <glyph glyph-name="yacute" unicode="&#xfd;" horiz-adv-x="499" 
d="M49 -221q50 31 94 79.5t89 138.5h-28l-131 315q-21 50 -32 57t-37 11v46q82 -2 116 -2q41 0 123 2v-46q-19 0 -39 -4t-20 -22q0 -17 15 -55l80 -205l69 196q17 48 17 65q0 16 -12 19q-13 4 -47 6v46q60 -2 104 -2q19 0 83 2v-46q-30 -3 -42 -14q-14 -14 -35 -71
q-101 -278 -171 -412q-40 -79 -77 -121q-28 -34 -57 -34q-37 0 -62 51zM250 494l-34 26l77 132q17 28 28.5 37.5t27.5 9.5q18 0 30.5 -12t12.5 -30q0 -25 -33 -57z" />
    <glyph glyph-name="thorn" unicode="&#xfe;" horiz-adv-x="528" 
d="M187 338v-208q0 -48 10 -58q19 -21 76 -21q45 0 76 33.5t31 101.5q0 171 -116 171q-37 0 -77 -19zM267 -255q-78 2 -136 2q-42 0 -122 -2v46q52 6 61 15q10 8 10 41q0 126 -2 670q0 81 -12 97q-11 17 -51 25v30q100 63 144 63q28 0 28 -36q0 -58 -0.5 -178t-0.5 -136
q70 57 138 57q80 0 126 -59.5t46 -148.5q0 -108 -65.5 -174t-172.5 -66q-34 0 -72 7v-136q0 -48 10 -55q10 -9 71 -16v-46z" />
    <glyph glyph-name="ydieresis" unicode="&#xff;" horiz-adv-x="499" 
d="M49 -221q50 31 94 79.5t89 138.5h-28l-131 315q-21 50 -32 57t-37 11v46q82 -2 116 -2q41 0 123 2v-46q-19 0 -39 -4t-20 -22q0 -17 15 -55l80 -205l69 196q17 48 17 65q0 16 -12 19q-13 4 -47 6v46q60 -2 104 -2q19 0 83 2v-46q-30 -3 -42 -14q-14 -14 -35 -71
q-101 -278 -171 -412q-40 -79 -77 -121q-28 -34 -57 -34q-37 0 -62 51zM181 527q-24 0 -39.5 16.5t-15.5 43.5q0 25 15.5 41.5t41.5 16.5q24 0 39 -17t15 -41q0 -25 -15.5 -42.5t-40.5 -17.5zM344 527q-24 0 -39.5 16.5t-15.5 43.5q0 25 15.5 41.5t41.5 16.5q24 0 39 -17
t15 -41q0 -25 -15.5 -42.5t-40.5 -17.5z" />
    <glyph glyph-name="Amacron" unicode="&#x100;" horiz-adv-x="662" 
d="M262 -1q-96 2 -132 2q-37 0 -125 -2v48q48 5 61 18q18 18 49 100l181 480h84l172 -484q30 -84 43 -99q10 -10 62 -15v-48q-94 2 -113 2q-84 0 -192 -2v48q51 5 66.5 13t15.5 24q0 28 -18 81l-21 59h-187l-19 -57q-21 -63 -21 -87q0 -15 17 -21t77 -12v-48zM228 283h147
q-35 105 -70 217q-17 -51 -77 -217zM478 718h-266v69h266v-69z" />
    <glyph glyph-name="amacron" unicode="&#x101;" horiz-adv-x="465" 
d="M343 523h-249v77h249v-77zM457 33q-60 -45 -113 -45q-48 0 -70 54q-32 -30 -58 -41.5t-67 -11.5q-53 0 -87.5 36.5t-34.5 88.5q0 30 9.5 51.5t34.5 39.5t73 27.5t120 10.5q0 66 -14 85q-16 24 -65 24q-64 0 -116 -28q-13 23 -13 49q0 30 45 47q51 21 127 21q86 0 120 -42
q26 -32 26 -101q0 -8 -1 -74t-1 -72q0 -46 7.5 -65.5t29.5 -19.5q6 0 33 6zM267 83l-3 105q-74 -3 -98 -19t-24 -48q0 -25 15.5 -39.5t42.5 -14.5q31 0 67 16z" />
    <glyph glyph-name="Abreve" unicode="&#x102;" horiz-adv-x="662" 
d="M262 -1q-96 2 -132 2q-37 0 -125 -2v48q48 5 61 18q18 18 49 100l181 480h84l172 -484q30 -84 43 -99q10 -10 62 -15v-48q-94 2 -113 2q-84 0 -192 -2v48q51 5 66.5 13t15.5 24q0 28 -18 81l-21 59h-187l-19 -57q-21 -63 -21 -87q0 -15 17 -21t77 -12v-48zM228 283h147
q-35 105 -70 217q-17 -51 -77 -217zM440 848l44 -2q-1 -73 -39 -114t-102 -41q-62 0 -99 38t-38 115l44 4q6 -37 30 -58.5t64 -21.5q78 0 96 80z" />
    <glyph glyph-name="abreve" unicode="&#x103;" horiz-adv-x="465" 
d="M305 651l42 -3q-1 -72 -36.5 -112.5t-94.5 -40.5q-127 0 -128 152l42 4q5 -36 27.5 -57.5t59.5 -21.5q73 0 88 79zM457 33q-60 -45 -113 -45q-48 0 -70 54q-32 -30 -58 -41.5t-67 -11.5q-53 0 -87.5 36.5t-34.5 88.5q0 30 9.5 51.5t34.5 39.5t73 27.5t120 10.5
q0 66 -14 85q-16 24 -65 24q-64 0 -116 -28q-13 23 -13 49q0 30 45 47q51 21 127 21q86 0 120 -42q26 -32 26 -101q0 -8 -1 -74t-1 -72q0 -46 7.5 -65.5t29.5 -19.5q6 0 33 6zM267 83l-3 105q-74 -3 -98 -19t-24 -48q0 -25 15.5 -39.5t42.5 -14.5q31 0 67 16z" />
    <glyph glyph-name="Aogonek" unicode="&#x104;" horiz-adv-x="662" 
d="M262 -1q-96 2 -132 2q-37 0 -125 -2v48q48 5 61 18q18 18 49 100l181 480h84l172 -484q30 -84 43 -99q10 -10 62 -15v-48q-94 2 -113 2h-23q-45 -50 -64 -83.5t-19 -64.5q0 -51 49 -51q35 0 68 14l16 -41q-19 -15 -51 -26.5t-61 -11.5q-46 0 -70 27t-24 68t25 79.5
t79 88.5q-87 0 -117 -1v48q51 5 66.5 13t15.5 24q0 28 -18 81l-21 59h-187l-19 -57q-21 -63 -21 -87q0 -15 17 -21t77 -12v-48zM228 283h147q-35 105 -70 217q-17 -51 -77 -217z" />
    <glyph glyph-name="aogonek" unicode="&#x105;" horiz-adv-x="465" 
d="M457 33q-31 -23 -60 -33q-80 -90 -80 -143q0 -50 49 -50q32 0 65 14l16 -41q-52 -37 -109 -37q-45 0 -69 27t-24 66q0 38 21.5 73t68.5 80q-40 3 -61 53q-32 -30 -58 -41.5t-67 -11.5q-53 0 -87.5 36.5t-34.5 88.5q0 30 9.5 51.5t34.5 39.5t73 27.5t120 10.5q0 66 -14 85
q-16 24 -65 24q-64 0 -116 -28q-13 23 -13 49q0 30 45 47q51 21 127 21q86 0 120 -42q26 -32 26 -101q0 -8 -1 -74t-1 -72q0 -46 7.5 -65.5t29.5 -19.5q6 0 33 6zM267 83l-3 105q-74 -3 -98 -19t-24 -48q0 -25 15.5 -39.5t42.5 -14.5q31 0 67 16z" />
    <glyph glyph-name="Cacute" unicode="&#x106;" horiz-adv-x="637" 
d="M591 188q-9 -88 -29 -140q-12 -30 -35 -38q-61 -24 -169 -24q-145 0 -234 84.5t-89 238.5q0 161 92 254.5t244 93.5q109 0 168 -22q21 -7 29 -32q10 -40 10 -151l-48 -2q-17 76 -27 94q-12 22 -28 29q-38 19 -97 19q-95 0 -154.5 -71t-59.5 -202q0 -129 55 -198.5
t148 -69.5q57 0 93 16q23 11 36 27q20 23 47 101zM327 679l-28 34l102 109q32 35 54 35q18 0 30.5 -13.5t12.5 -33.5q0 -26 -41 -51z" />
    <glyph glyph-name="cacute" unicode="&#x107;" horiz-adv-x="419" 
d="M401 61q-84 -74 -170 -74q-92 0 -146 58t-54 155q0 103 65.5 172t163.5 69q67 0 105 -23q19 -11 19 -31q0 -31 -38 -77q-46 52 -116 52q-46 0 -73.5 -32t-27.5 -95q0 -82 42 -119.5t107 -37.5q42 0 102 26zM203 494l-34 26l77 132q17 28 28.5 37.5t27.5 9.5
q18 0 30.5 -12t12.5 -30q0 -25 -33 -57z" />
    <glyph glyph-name="Ccircumflex" unicode="&#x108;" horiz-adv-x="637" 
d="M591 188q-9 -88 -29 -140q-12 -30 -35 -38q-61 -24 -169 -24q-145 0 -234 84.5t-89 238.5q0 161 92 254.5t244 93.5q109 0 168 -22q21 -7 29 -32q10 -40 10 -151l-48 -2q-17 76 -27 94q-12 22 -28 29q-38 19 -97 19q-95 0 -154.5 -71t-59.5 -202q0 -129 55 -198.5
t148 -69.5q57 0 93 16q23 11 36 27q20 23 47 101zM517 705l-28 -27l-120 84l-116 -84l-30 25l112 136q16 21 36 21q19 0 36 -21z" />
    <glyph glyph-name="ccircumflex" unicode="&#x109;" horiz-adv-x="419" 
d="M401 61q-84 -74 -170 -74q-92 0 -146 58t-54 155q0 103 65.5 172t163.5 69q67 0 105 -23q19 -11 19 -31q0 -31 -38 -77q-46 52 -116 52q-46 0 -73.5 -32t-27.5 -95q0 -82 42 -119.5t107 -37.5q42 0 102 26zM366 505l-34 -26l-104 103l-104 -103l-32 25l103 151
q15 22 35 22q21 0 35 -21z" />
    <glyph glyph-name="Cdotaccent" unicode="&#x10a;" horiz-adv-x="637" 
d="M591 188q-9 -88 -29 -140q-12 -30 -35 -38q-61 -24 -169 -24q-145 0 -234 84.5t-89 238.5q0 161 92 254.5t244 93.5q109 0 168 -22q21 -7 29 -32q10 -40 10 -151l-48 -2q-17 76 -27 94q-12 22 -28 29q-38 19 -97 19q-95 0 -154.5 -71t-59.5 -202q0 -129 55 -198.5
t148 -69.5q57 0 93 16q23 11 36 27q20 23 47 101zM356 698q-24 0 -39.5 16.5t-15.5 43.5q0 25 15.5 41.5t41.5 16.5q24 0 39 -17t15 -41q0 -25 -15.5 -42.5t-40.5 -17.5z" />
    <glyph glyph-name="cdotaccent" unicode="&#x10b;" horiz-adv-x="419" 
d="M401 61q-84 -74 -170 -74q-92 0 -146 58t-54 155q0 103 65.5 172t163.5 69q67 0 105 -23q19 -11 19 -31q0 -31 -38 -77q-46 52 -116 52q-46 0 -73.5 -32t-27.5 -95q0 -82 42 -119.5t107 -37.5q42 0 102 26zM223 527q-24 0 -39.5 16.5t-15.5 43.5q0 25 15.5 41.5
t41.5 16.5q24 0 39 -17t15 -41q0 -25 -15.5 -42.5t-40.5 -17.5z" />
    <glyph glyph-name="Ccaron" unicode="&#x10c;" horiz-adv-x="637" 
d="M591 188q-9 -88 -29 -140q-12 -30 -35 -38q-61 -24 -169 -24q-145 0 -234 84.5t-89 238.5q0 161 92 254.5t244 93.5q109 0 168 -22q21 -7 29 -32q10 -40 10 -151l-48 -2q-17 76 -27 94q-12 22 -28 29q-38 19 -97 19q-95 0 -154.5 -71t-59.5 -202q0 -129 55 -198.5
t148 -69.5q57 0 93 16q23 11 36 27q20 23 47 101zM210 834l28 27l119 -84l118 84l29 -25l-113 -136q-17 -20 -36 -20t-35 20z" />
    <glyph glyph-name="ccaron" unicode="&#x10d;" horiz-adv-x="419" 
d="M401 61q-84 -74 -170 -74q-92 0 -146 58t-54 155q0 103 65.5 172t163.5 69q67 0 105 -23q19 -11 19 -31q0 -31 -38 -77q-46 52 -116 52q-46 0 -73.5 -32t-27.5 -95q0 -82 42 -119.5t107 -37.5q42 0 102 26zM96 649l32 27l105 -104l103 104l34 -26l-103 -150
q-13 -22 -36 -22q-20 0 -34 21z" />
    <glyph glyph-name="Dcaron" unicode="&#x10e;" horiz-adv-x="679" 
d="M22 -1v48q65 6 74 17q10 13 10 57v399q0 43 -6 53q-5 9 -18.5 13t-59.5 10v47h152q148 0 221.5 -13t124.5 -42q124 -70 124 -255q0 -166 -90 -250.5t-249 -84.5q-10 0 -76 1t-83 1q-79 0 -124 -1zM227 104q0 -18 7 -26.5t25 -10.5q28 -4 60 -4q191 0 191 262
q0 166 -98 223q-57 33 -185 33v-477zM163 834l28 27l119 -84l118 84l29 -25l-113 -136q-17 -20 -36 -20t-35 20z" />
    <glyph glyph-name="dcaron" unicode="&#x10f;" horiz-adv-x="545" 
d="M529 28q-94 -43 -136 -43q-20 0 -31 12.5t-16 45.5q-65 -56 -140 -56q-80 0 -127.5 59t-47.5 147q0 108 68.5 176t174.5 68q31 0 70 -7v73q0 94 -13 111q-13 18 -53 25v30q105 63 149 63q26 0 26 -33q0 -51 -0.5 -253.5t-0.5 -285.5q0 -55 8 -71.5t28 -16.5q22 0 41 3
v-47zM344 86v220q0 40 -10 51q-19 21 -75 21q-51 0 -81.5 -33.5t-30.5 -105.5q0 -91 32 -132.5t84 -41.5q44 0 81 21zM528 481l-32 31q53 58 53 95q0 21 -20 42q-13 13 -13 35q0 18 14 32.5t38 14.5q29 0 44 -19.5t15 -52.5q0 -87 -99 -178z" />
    <glyph glyph-name="Dcroat" unicode="&#x110;" horiz-adv-x="679" 
d="M18 300v63h88v157q0 43 -6 53q-5 9 -18.5 13t-59.5 10v47h152q148 0 221.5 -13t124.5 -42q124 -70 124 -255q0 -166 -90 -250.5t-249 -84.5q-10 0 -76 1t-83 1q-79 0 -124 -1v48q65 6 74 17q10 13 10 57v179h-88zM227 104q0 -18 7 -26.5t25 -10.5q28 -4 60 -4
q191 0 191 262q0 166 -98 223q-57 33 -185 33v-218h140v-63h-140v-196z" />
    <glyph glyph-name="dcroat" unicode="&#x111;" horiz-adv-x="545" 
d="M523 558v-58h-70q-1 -117 -1 -340q0 -55 8 -71.5t28 -16.5q22 0 41 3v-47q-94 -43 -136 -43q-20 0 -31 12.5t-16 45.5q-65 -56 -140 -56q-80 0 -127.5 59t-47.5 147q0 108 68.5 176t174.5 68q31 0 70 -7v70h-146v58h145q-1 41 -12 56q-13 18 -53 25v30q105 63 149 63
q26 0 26 -33v-141h70zM344 86v220q0 40 -10 51q-24 22 -75 22t-82 -34t-31 -106q0 -91 32.5 -133t84.5 -42q42 0 81 22z" />
    <glyph glyph-name="Emacron" unicode="&#x112;" horiz-adv-x="555" 
d="M533 178q-6 -112 -25 -155q-6 -15 -18.5 -19t-44.5 -4h-423v47q65 5 73 16q11 15 11 62v396q0 46 -7 54q-11 12 -77 21v47h402q35 0 45.5 -7t13.5 -25q7 -34 7 -136l-43 -2q-18 79 -33 92q-20 18 -118 18q-45 0 -70 -2v-219h9q107 0 124 18q9 9 21 64h44q-1 -24 -1 -109
q0 -76 1 -117h-42q-11 56 -20 68q-10 10 -33.5 12.5t-94.5 2.5h-8v-190q0 -37 26 -44q33 -9 75 -9q94 0 116 25q18 21 49 103zM403 718h-266v69h266v-69z" />
    <glyph glyph-name="emacron" unicode="&#x113;" horiz-adv-x="445" 
d="M422 57q-89 -70 -187 -70q-90 0 -147 60t-57 153q0 116 63.5 178.5t155.5 62.5q78 0 121 -49t43 -124q0 -17 -7.5 -25t-28.5 -8h-244v-6q0 -73 38 -113t104 -40q68 0 124 26zM135 285l178 9q-8 88 -87 88q-37 0 -63 -25t-28 -72zM369 523h-249v77h249v-77z" />
    <glyph glyph-name="Ebreve" unicode="&#x114;" horiz-adv-x="555" 
d="M533 178q-6 -112 -25 -155q-6 -15 -18.5 -19t-44.5 -4h-423v47q65 5 73 16q11 15 11 62v396q0 46 -7 54q-11 12 -77 21v47h402q35 0 45.5 -7t13.5 -25q7 -34 7 -136l-43 -2q-18 79 -33 92q-20 18 -118 18q-45 0 -70 -2v-219h9q107 0 124 18q9 9 21 64h44q-1 -24 -1 -109
q0 -76 1 -117h-42q-11 56 -20 68q-10 10 -33.5 12.5t-94.5 2.5h-8v-190q0 -37 26 -44q33 -9 75 -9q94 0 116 25q18 21 49 103zM373 848l44 -2q-1 -73 -39 -114t-102 -41q-62 0 -99 38t-38 115l44 4q6 -37 30 -58.5t64 -21.5q78 0 96 80z" />
    <glyph glyph-name="ebreve" unicode="&#x115;" horiz-adv-x="445" 
d="M422 57q-89 -70 -187 -70q-90 0 -147 60t-57 153q0 116 63.5 178.5t155.5 62.5q78 0 121 -49t43 -124q0 -17 -7.5 -25t-28.5 -8h-244v-6q0 -73 38 -113t104 -40q68 0 124 26zM135 285l178 9q-8 88 -87 88q-37 0 -63 -25t-28 -72zM322 651l42 -3q-1 -72 -36.5 -112.5
t-94.5 -40.5q-127 0 -128 152l42 4q5 -36 27.5 -57.5t59.5 -21.5q73 0 88 79z" />
    <glyph glyph-name="Edotaccent" unicode="&#x116;" horiz-adv-x="555" 
d="M533 178q-6 -112 -25 -155q-6 -15 -18.5 -19t-44.5 -4h-423v47q65 5 73 16q11 15 11 62v396q0 46 -7 54q-11 12 -77 21v47h402q35 0 45.5 -7t13.5 -25q7 -34 7 -136l-43 -2q-18 79 -33 92q-20 18 -118 18q-45 0 -70 -2v-219h9q107 0 124 18q9 9 21 64h44q-1 -24 -1 -109
q0 -76 1 -117h-42q-11 56 -20 68q-10 10 -33.5 12.5t-94.5 2.5h-8v-190q0 -37 26 -44q33 -9 75 -9q94 0 116 25q18 21 49 103zM280 698q-24 0 -39.5 16.5t-15.5 43.5q0 25 15.5 41.5t41.5 16.5q24 0 39 -17t15 -41q0 -25 -15.5 -42.5t-40.5 -17.5z" />
    <glyph glyph-name="edotaccent" unicode="&#x117;" horiz-adv-x="445" 
d="M422 57q-89 -70 -187 -70q-90 0 -147 60t-57 153q0 116 63.5 178.5t155.5 62.5q78 0 121 -49t43 -124q0 -17 -7.5 -25t-28.5 -8h-244v-6q0 -73 38 -113t104 -40q68 0 124 26zM135 285l178 9q-8 88 -87 88q-37 0 -63 -25t-28 -72zM241 527q-24 0 -39.5 16.5t-15.5 43.5
q0 25 15.5 41.5t41.5 16.5q24 0 39 -17t15 -41q0 -25 -15.5 -42.5t-40.5 -17.5z" />
    <glyph glyph-name="Eogonek" unicode="&#x118;" horiz-adv-x="555" 
d="M533 178q-6 -112 -25 -155q-6 -14 -17 -18.5t-37 -4.5q-82 -92 -82 -147q0 -51 49 -51q35 0 68 14l16 -41q-19 -15 -51 -26.5t-61 -11.5q-46 0 -70 27t-24 68t24.5 79.5t78.5 88.5h-380v47q65 5 73 16q11 15 11 62v396q0 46 -7 54q-11 12 -77 21v47h402q35 0 45.5 -7
t13.5 -25q7 -34 7 -136l-43 -2q-18 79 -33 92q-20 18 -118 18q-45 0 -70 -2v-219h9q107 0 124 18q9 9 21 64h44q-1 -24 -1 -109q0 -76 1 -117h-42q-11 56 -20 68q-10 10 -33.5 12.5t-94.5 2.5h-8v-190q0 -37 26 -44q33 -9 75 -9q94 0 116 25q18 21 49 103z" />
    <glyph glyph-name="eogonek" unicode="&#x119;" horiz-adv-x="445" 
d="M422 55q-64 -50 -121 -62q-73 -84 -73 -136q0 -50 49 -50q32 0 65 14l16 -41q-52 -37 -109 -37q-45 0 -69 27t-24 66q0 37 21 71t66 78h-8q-89 0 -146.5 61t-57.5 154q0 116 63.5 178.5t155.5 62.5q78 0 121 -49t43 -124q0 -17 -7.5 -25t-28.5 -8h-244v-6q0 -73 38 -114
t104 -41q68 0 124 26zM135 285l178 9q-8 88 -87 88q-37 0 -63 -25t-28 -72z" />
    <glyph glyph-name="Ecaron" unicode="&#x11a;" horiz-adv-x="555" 
d="M533 178q-6 -112 -25 -155q-6 -15 -18.5 -19t-44.5 -4h-423v47q65 5 73 16q11 15 11 62v396q0 46 -7 54q-11 12 -77 21v47h402q35 0 45.5 -7t13.5 -25q7 -34 7 -136l-43 -2q-18 79 -33 92q-20 18 -118 18q-45 0 -70 -2v-219h9q107 0 124 18q9 9 21 64h44q-1 -24 -1 -109
q0 -76 1 -117h-42q-11 56 -20 68q-10 10 -33.5 12.5t-94.5 2.5h-8v-190q0 -37 26 -44q33 -9 75 -9q94 0 116 25q18 21 49 103zM140 834l28 27l119 -84l118 84l29 -25l-113 -136q-17 -20 -36 -20t-35 20z" />
    <glyph glyph-name="ecaron" unicode="&#x11b;" horiz-adv-x="445" 
d="M422 57q-89 -70 -187 -70q-90 0 -147 60t-57 153q0 116 63.5 178.5t155.5 62.5q78 0 121 -49t43 -124q0 -17 -7.5 -25t-28.5 -8h-244v-6q0 -73 38 -113t104 -40q68 0 124 26zM135 285l178 9q-8 88 -87 88q-37 0 -63 -25t-28 -72zM102 649l32 27l105 -104l103 104l34 -26
l-103 -150q-13 -22 -36 -22q-20 0 -34 21z" />
    <glyph glyph-name="Gcircumflex" unicode="&#x11c;" horiz-adv-x="666" 
d="M583 69q0 -27 -9.5 -38t-33.5 -19q-77 -26 -182 -26q-145 0 -234 85.5t-89 239.5q0 157 90 251.5t252 94.5q109 0 166 -22q23 -9 30 -35q9 -35 9 -146l-48 -2q-16 77 -30 99q-12 17 -30 25q-37 16 -98 16q-90 0 -151 -69.5t-61 -203.5q0 -130 54.5 -199t144.5 -69
q43 0 70 9q21 6 26 15q6 12 6 72v37q0 39 -9 48q-10 9 -70 18v49q27 -1 129 -1q72 0 122 1v-49q-42 -8 -47 -17q-7 -7 -7 -50v-114zM515 705l-28 -27l-120 84l-116 -84l-30 25l112 136q16 21 36 21q19 0 36 -21z" />
    <glyph glyph-name="gcircumflex" unicode="&#x11d;" horiz-adv-x="484" 
d="M300 249q0 75 -18.5 108.5t-56.5 33.5q-31 0 -49.5 -23.5t-18.5 -64.5q0 -143 75 -143q68 0 68 89zM157 116q-18 -18 -18 -38q0 -17 18 -24q17 -7 83 -12q101 -7 113 -9q65 -11 94 -36.5t29 -82.5q0 -84 -74 -138.5t-190 -54.5q-95 0 -150 38t-55 97q0 36 31 61
q35 27 84 45q-72 24 -72 75q0 42 65 99q-74 40 -74 137q0 73 53 120.5t135 47.5q55 0 102 -22q83 0 147 -6v-57q-20 -3 -78 -6q12 -25 12 -71q0 -78 -53.5 -123.5t-141.5 -45.5q-39 0 -60 6zM217 -59q-32 0 -56 -9t-40 -26.5t-16 -39.5q0 -85 133 -85q59 0 94 25t35 66
q0 34 -33.5 51.5t-116.5 17.5zM371 505l-34 -26l-104 103l-104 -103l-32 25l103 151q15 22 35 22q21 0 35 -21z" />
    <glyph glyph-name="Gbreve" unicode="&#x11e;" horiz-adv-x="666" 
d="M583 69q0 -27 -9.5 -38t-33.5 -19q-77 -26 -182 -26q-145 0 -234 85.5t-89 239.5q0 157 90 251.5t252 94.5q109 0 166 -22q23 -9 30 -35q9 -35 9 -146l-48 -2q-16 77 -30 99q-12 17 -30 25q-37 16 -98 16q-90 0 -151 -69.5t-61 -203.5q0 -130 54.5 -199t144.5 -69
q43 0 70 9q21 6 26 15q6 12 6 72v37q0 39 -9 48q-10 9 -70 18v49q27 -1 129 -1q72 0 122 1v-49q-42 -8 -47 -17q-7 -7 -7 -50v-114zM460 848l44 -2q-1 -73 -39 -114t-102 -41q-62 0 -99 38t-38 115l44 4q6 -37 30 -58.5t64 -21.5q78 0 96 80z" />
    <glyph glyph-name="gbreve" unicode="&#x11f;" horiz-adv-x="484" 
d="M300 249q0 75 -18.5 108.5t-56.5 33.5q-31 0 -49.5 -23.5t-18.5 -64.5q0 -143 75 -143q68 0 68 89zM157 116q-18 -18 -18 -38q0 -17 18 -24q17 -7 83 -12q101 -7 113 -9q65 -11 94 -36.5t29 -82.5q0 -84 -74 -138.5t-190 -54.5q-95 0 -150 38t-55 97q0 36 31 61
q35 27 84 45q-72 24 -72 75q0 42 65 99q-74 40 -74 137q0 73 53 120.5t135 47.5q55 0 102 -22q83 0 147 -6v-57q-20 -3 -78 -6q12 -25 12 -71q0 -78 -53.5 -123.5t-141.5 -45.5q-39 0 -60 6zM217 -59q-32 0 -56 -9t-40 -26.5t-16 -39.5q0 -85 133 -85q59 0 94 25t35 66
q0 34 -33.5 51.5t-116.5 17.5zM321 651l42 -3q-1 -72 -36.5 -112.5t-94.5 -40.5q-127 0 -128 152l42 4q5 -36 27.5 -57.5t59.5 -21.5q73 0 88 79z" />
    <glyph glyph-name="Gdotaccent" unicode="&#x120;" horiz-adv-x="666" 
d="M583 69q0 -27 -9.5 -38t-33.5 -19q-77 -26 -182 -26q-145 0 -234 85.5t-89 239.5q0 157 90 251.5t252 94.5q109 0 166 -22q23 -9 30 -35q9 -35 9 -146l-48 -2q-16 77 -30 99q-12 17 -30 25q-37 16 -98 16q-90 0 -151 -69.5t-61 -203.5q0 -130 54.5 -199t144.5 -69
q43 0 70 9q21 6 26 15q6 12 6 72v37q0 39 -9 48q-10 9 -70 18v49q27 -1 129 -1q72 0 122 1v-49q-42 -8 -47 -17q-7 -7 -7 -50v-114zM369 698q-24 0 -39.5 16.5t-15.5 43.5q0 25 15.5 41.5t41.5 16.5q24 0 39 -17t15 -41q0 -25 -15.5 -42.5t-40.5 -17.5z" />
    <glyph glyph-name="gdotaccent" unicode="&#x121;" horiz-adv-x="484" 
d="M300 249q0 75 -18.5 108.5t-56.5 33.5q-31 0 -49.5 -23.5t-18.5 -64.5q0 -143 75 -143q68 0 68 89zM157 116q-18 -18 -18 -38q0 -17 18 -24q17 -7 83 -12q101 -7 113 -9q65 -11 94 -36.5t29 -82.5q0 -84 -74 -138.5t-190 -54.5q-95 0 -150 38t-55 97q0 36 31 61
q35 27 84 45q-72 24 -72 75q0 42 65 99q-74 40 -74 137q0 73 53 120.5t135 47.5q55 0 102 -22q83 0 147 -6v-57q-20 -3 -78 -6q12 -25 12 -71q0 -78 -53.5 -123.5t-141.5 -45.5q-39 0 -60 6zM217 -59q-32 0 -56 -9t-40 -26.5t-16 -39.5q0 -85 133 -85q59 0 94 25t35 66
q0 34 -33.5 51.5t-116.5 17.5zM231 527q-24 0 -39.5 16.5t-15.5 43.5q0 25 15.5 41.5t41.5 16.5q24 0 39 -17t15 -41q0 -25 -15.5 -42.5t-40.5 -17.5z" />
    <glyph glyph-name="Gcommaaccent" unicode="&#x122;" horiz-adv-x="666" 
d="M583 69q0 -27 -9.5 -38t-33.5 -19q-77 -26 -182 -26q-145 0 -234 85.5t-89 239.5q0 157 90 251.5t252 94.5q109 0 166 -22q23 -9 30 -35q9 -35 9 -146l-48 -2q-16 77 -30 99q-12 17 -30 25q-37 16 -98 16q-90 0 -151 -69.5t-61 -203.5q0 -130 54.5 -199t144.5 -69
q43 0 70 9q21 6 26 15q6 12 6 72v37q0 39 -9 48q-10 9 -70 18v49q27 -1 129 -1q72 0 122 1v-49q-42 -8 -47 -17q-7 -7 -7 -50v-114zM326 -301l-32 30q53 59 53 96q0 22 -20 43q-13 12 -13 34q0 18 14 32t38 14q29 0 44 -19t15 -52q0 -88 -99 -178z" />
    <glyph glyph-name="gcommaaccent" unicode="&#x123;" horiz-adv-x="484" 
d="M300 249q0 75 -18.5 108.5t-56.5 33.5q-31 0 -49.5 -23.5t-18.5 -64.5q0 -143 75 -143q68 0 68 89zM157 116q-18 -18 -18 -38q0 -17 18 -24q21 -9 84 -11q75 -3 112 -10q65 -11 94 -36.5t29 -82.5q0 -84 -74 -138.5t-190 -54.5q-95 0 -150 38t-55 97q0 36 31 61
q35 27 84 45q-72 24 -72 75q0 42 65 99q-74 40 -74 137q0 73 53 120.5t135 47.5q55 0 102 -22q83 0 147 -6v-57q-20 -3 -78 -6q12 -25 12 -71q0 -78 -53.5 -123.5t-141.5 -45.5q-39 0 -60 6zM217 -59q-32 0 -56 -9t-40 -26.5t-16 -39.5q0 -85 133 -85q59 0 94 25t35 66
q0 34 -33.5 51.5t-116.5 17.5zM272 754l30 -30q-52 -60 -52 -97q0 -18 20 -41q12 -12 12 -34q0 -19 -13.5 -33t-35.5 -14q-28 0 -42.5 19.5t-14.5 52.5q0 84 96 177z" />
    <glyph glyph-name="Hcircumflex" unicode="&#x124;" horiz-adv-x="721" 
d="M311 -1q-90 2 -141 2q-52 0 -148 -2v48q63 6 73 16q11 11 11 59v399q0 45 -10 57q-8 9 -74 18v48q96 -2 148 -2q51 0 141 2v-48q-67 -9 -76 -19q-8 -11 -8 -53v-155h266v152q0 47 -8 57q-9 9 -74 18v48q94 -2 147 -2q51 0 141 2v-48q-65 -8 -76 -19q-9 -9 -9 -53v-405
q0 -43 9 -54t76 -18v-48q-90 2 -141 2q-53 0 -147 -2v48q63 6 73 16q9 9 9 59v183h-266v-186q0 -43 8 -54q9 -11 76 -18v-48zM514 705l-28 -27l-120 84l-116 -84l-30 25l112 136q16 21 36 21q19 0 36 -21z" />
    <glyph glyph-name="hcircumflex" unicode="&#x125;" horiz-adv-x="541" 
d="M252 -1q-84 2 -126 2q-28 0 -110 -2v46q55 8 62 15q9 11 9 44q0 65 -0.5 211.5t-0.5 186.5q0 85 -10 105q-13 26 -53 32v30q102 63 146 63q27 0 27 -32q0 -26 -0.5 -143t-0.5 -178q78 60 135 60q56 0 87 -27q41 -35 41 -116q0 -4 -2 -90.5t-2 -91.5q0 -44 7 -52
q9 -12 65 -17v-46q-76 2 -132 2q-24 0 -104 -2v46q43 7 49 15q7 8 7 54q0 113 -2 163q-2 42 -15 60q-17 21 -51 21q-46 0 -83 -16q0 -11 -0.5 -120t-0.5 -110q0 -44 7 -52q6 -7 51 -15v-46zM278 768l-34 -26l-104 103l-104 -103l-32 25l103 151q15 22 35 22q21 0 35 -21z
" />
    <glyph glyph-name="Hbar" unicode="&#x126;" horiz-adv-x="721" 
d="M700 432h-86v-313q0 -43 9 -54t76 -18v-48q-90 2 -141 2q-53 0 -147 -2v48q63 6 73 16q9 9 9 59v183h-266v-186q0 -43 8 -54q9 -11 76 -18v-48q-90 2 -141 2q-52 0 -148 -2v48q63 6 73 16q11 11 11 59v310h-87v63h87v26q0 44 -11 57q-8 9 -73 18v48q96 -2 148 -2
q51 0 141 2v-48q-67 -9 -76 -19q-8 -11 -8 -53v-29h266v26q0 47 -8 57q-9 9 -74 18v48q94 -2 147 -2q51 0 141 2v-48q-65 -8 -76 -19q-9 -9 -9 -53v-29h86v-63zM227 369h266v63h-266v-63z" />
    <glyph glyph-name="hbar" unicode="&#x127;" horiz-adv-x="541" 
d="M340 558v-58h-145v-121q78 60 135 60q56 0 87 -27q41 -35 41 -116q0 -4 -2 -90.5t-2 -91.5q0 -44 7 -52q9 -12 65 -17v-46q-76 2 -132 2q-24 0 -104 -2v46q43 7 49 15q7 8 7 54q0 113 -2 163q-2 42 -15 60q-17 21 -51 21q-45 0 -82 -16q0 -11 -0.5 -120t-0.5 -110
q0 -44 7 -52q6 -7 52 -15v-46q-86 2 -128 2q-28 0 -110 -2v46q55 8 62 15q9 11 9 44q0 64 -0.5 209.5t-0.5 186.5h-71v58h70q-1 35 -9 49q-11 26 -53 32v30q102 63 146 63q27 0 27 -32q0 -12 -0.5 -61t-0.5 -81h145z" />
    <glyph glyph-name="Itilde" unicode="&#x128;" horiz-adv-x="333" 
d="M311 0q-90 2 -140 2q-53 0 -149 -2v47q65 6 73 16q11 13 11 59v399q0 48 -10 57q-12 11 -74 18v48q96 -2 149 -2q50 0 140 2v-48q-67 -9 -76 -19q-9 -13 -9 -53v-405q0 -43 8 -54q10 -11 77 -18v-47zM51 694l-36 12q10 46 33 78t56 32q22 0 57 -14l30 -13q25 -12 46 -12
q12 0 21.5 10t22.5 35l35 -11q-9 -50 -29 -80t-47 -30q-22 0 -70 17l-25 10q-27 12 -46 12q-15 0 -24.5 -10t-23.5 -36z" />
    <glyph glyph-name="itilde" unicode="&#x129;" horiz-adv-x="288" 
d="M30 513l-34 13q9 45 32 78t55 33q21 0 53 -15l25 -11q26 -13 45 -13q12 0 21 10.5t23 36.5l34 -13q-9 -51 -29 -81t-46 -30q-20 0 -65 18l-23 9q-28 11 -42 11q-15 0 -25.5 -10t-23.5 -36zM271 -1q-84 2 -127 2q-39 0 -123 -2v46q52 9 59 15q9 8 9 43q0 127 -1 167
q-1 39 -11 51q-13 16 -54 22v32q89 67 140 67q36 0 36 -49q0 -42 -0.5 -162t-0.5 -121q0 -44 8 -51q8 -8 65 -14v-46z" />
    <glyph glyph-name="Imacron" unicode="&#x12a;" horiz-adv-x="333" 
d="M311 0q-90 2 -140 2q-53 0 -149 -2v47q65 6 73 16q11 13 11 59v399q0 48 -10 57q-12 11 -74 18v48q96 -2 149 -2q50 0 140 2v-48q-67 -9 -76 -19q-9 -13 -9 -53v-405q0 -43 8 -54q10 -11 77 -18v-47zM290 737h-249v77h249v-77z" />
    <glyph glyph-name="imacron" unicode="&#x12b;" horiz-adv-x="288" 
d="M265 523h-249v77h249v-77zM271 -1q-84 2 -127 2q-39 0 -123 -2v46q52 9 59 15q9 8 9 43q0 127 -1 167q-1 39 -11 51q-13 16 -54 22v32q89 67 140 67q36 0 36 -49q0 -42 -0.5 -162t-0.5 -121q0 -44 8 -51q8 -8 65 -14v-46z" />
    <glyph glyph-name="Ibreve" unicode="&#x12c;" horiz-adv-x="333" 
d="M311 0q-90 2 -140 2q-53 0 -149 -2v47q65 6 73 16q11 13 11 59v399q0 48 -10 57q-12 11 -74 18v48q96 -2 149 -2q50 0 140 2v-48q-67 -9 -76 -19q-9 -13 -9 -53v-405q0 -43 8 -54q10 -11 77 -18v-47zM263 848l44 -2q-1 -73 -39 -114t-102 -41q-62 0 -99 38t-38 115l44 4
q6 -37 30 -58.5t64 -21.5q78 0 96 80z" />
    <glyph glyph-name="ibreve" unicode="&#x12d;" horiz-adv-x="288" 
d="M223 651l42 -3q-1 -72 -36.5 -112.5t-94.5 -40.5q-127 0 -128 152l42 4q5 -36 27.5 -57.5t59.5 -21.5q73 0 88 79zM271 -1q-84 2 -127 2q-39 0 -123 -2v46q52 9 59 15q9 8 9 43q0 127 -1 167q-1 39 -11 51q-13 16 -54 22v32q89 67 140 67q36 0 36 -49q0 -42 -0.5 -162
t-0.5 -121q0 -44 8 -51q8 -8 65 -14v-46z" />
    <glyph glyph-name="Iogonek" unicode="&#x12e;" horiz-adv-x="333" 
d="M311 0q-45 0 -109 2q-84 -93 -84 -149q0 -51 49 -51q35 0 68 14l16 -41q-19 -15 -51 -26.5t-61 -11.5q-46 0 -70 27t-24 68q0 42 25.5 80.5t80.5 89.5q-49 0 -129 -2v47q65 6 73 16q11 13 11 59v399q0 48 -10 57q-12 11 -74 18v48q96 -2 149 -2q50 0 140 2v-48
q-67 -9 -76 -19q-9 -13 -9 -53v-405q0 -43 8 -54q10 -11 77 -18v-47z" />
    <glyph glyph-name="iogonek" unicode="&#x12f;" horiz-adv-x="288" 
d="M271 -1l-88 2q-81 -91 -81 -144q0 -50 49 -50q32 0 65 14l16 -41q-52 -37 -109 -37q-45 0 -69 27t-24 66q0 40 24.5 77t79.5 88q-39 0 -113 -2v46q52 9 59 15q9 8 9 43q0 127 -1 167q-1 39 -11 51q-13 16 -54 22v32q89 67 140 67q36 0 36 -49q0 -42 -0.5 -162t-0.5 -121
q0 -44 8 -51q8 -8 65 -14v-46zM201 620q0 -28 -17.5 -48t-47.5 -20q-28 0 -46 20t-18 47q0 29 18.5 49t46.5 20q31 0 47.5 -19t16.5 -49z" />
    <glyph glyph-name="Idotaccent" unicode="&#x130;" horiz-adv-x="333" 
d="M311 0q-90 2 -140 2q-53 0 -149 -2v47q65 6 73 16q11 13 11 59v399q0 48 -10 57q-12 11 -74 18v48q96 -2 149 -2q50 0 140 2v-48q-67 -9 -76 -19q-9 -13 -9 -53v-405q0 -43 8 -54q10 -11 77 -18v-47zM165 698q-24 0 -39.5 16.5t-15.5 43.5q0 25 15.5 41.5t41.5 16.5
q24 0 39 -17t15 -41q0 -25 -15.5 -42.5t-40.5 -17.5z" />
    <glyph glyph-name="dotlessi" unicode="&#x131;" horiz-adv-x="288" 
d="M271 -1q-84 2 -127 2q-39 0 -123 -2v46q52 9 59 15q9 8 9 43q0 127 -1 167q-1 39 -11 51q-13 16 -54 22v32q89 67 140 67q36 0 36 -49q0 -42 -0.5 -162t-0.5 -121q0 -44 8 -51q8 -8 65 -14v-46z" />
    <glyph glyph-name="IJ" unicode="&#x132;" horiz-adv-x="654" 
d="M311 0q-90 2 -140 2q-53 0 -149 -2v47q65 6 73 16q11 13 11 59v399q0 48 -10 57q-12 11 -74 18v48q96 -2 149 -2q50 0 140 2v-48q-67 -9 -76 -19q-9 -13 -9 -53v-405q0 -43 8 -54q10 -11 77 -18v-47zM368 -174l-31 37q97 101 98 269q1 158 1 385q0 52 -10 62
q-12 10 -75 17v48q96 -2 149 -2q51 0 135 2v-48q-56 -9 -68 -19q-9 -8 -9 -54q0 -80 0.5 -199t0.5 -162q0 -101 -33 -164q-18 -35 -61 -83t-97 -89z" />
    <glyph glyph-name="ij" unicode="&#x133;" horiz-adv-x="545" 
d="M271 -1q-84 2 -127 2q-39 0 -123 -2v46q52 9 59 15q9 8 9 43q0 127 -1 167q-1 39 -11 51q-13 16 -54 22v32q89 67 140 67q36 0 36 -49q0 -42 -0.5 -162t-0.5 -121q0 -44 8 -51q8 -8 65 -14v-46zM201 620q0 -28 -17.5 -48t-47.5 -20q-28 0 -46 20t-18 47q0 29 18.5 49
t46.5 20q31 0 47.5 -19t16.5 -49zM316 -268l-34 38q34 38 55 77q23 47 25 135q2 76 2 167q0 77 -2 121q-2 43 -12 52q-16 16 -53 21v32q86 67 142 67q35 0 35 -47q0 -12 -1 -91.5t-1 -98.5q0 -27 0.5 -98t0.5 -87q0 -121 -44 -179q-35 -48 -113 -109zM475 620
q0 -28 -17.5 -48t-47.5 -20q-28 0 -45.5 20t-17.5 47q0 29 18 49t46 20q31 0 47.5 -19t16.5 -49z" />
    <glyph glyph-name="Jcircumflex" unicode="&#x134;" horiz-adv-x="321" 
d="M35 -174l-31 37q97 101 98 269q1 158 1 385q0 52 -10 62q-12 10 -75 17v48q96 -2 149 -2q51 0 135 2v-48q-56 -9 -68 -19q-9 -8 -9 -54q0 -80 0.5 -199t0.5 -162q0 -101 -33 -164q-18 -35 -61 -83t-97 -89zM304 719l-34 -26l-104 103l-104 -103l-32 25l103 151
q15 22 35 22q21 0 35 -21z" />
    <glyph glyph-name="jcircumflex" unicode="&#x135;" horiz-adv-x="257" 
d="M30 -270l-34 42q33 39 53 75q23 47 25 135q2 76 2 167q0 74 -2 118q-1 38 -12 51q-14 15 -53 21v36q96 67 145 67q31 0 31 -40q0 -13 -0.5 -95.5t-0.5 -101.5q0 -27 0.5 -98t0.5 -87q0 -122 -43 -180q-38 -50 -112 -110zM255 505l-33 -26l-106 103l-102 -103l-34 25
l103 151q16 22 36 22q23 0 35 -21z" />
    <glyph glyph-name="Kcommaaccent" unicode="&#x136;" horiz-adv-x="648" 
d="M620 -26q-111 27 -181 97q-92 90 -198 255q74 73 162 183q32 40 32 62q0 20 -65 25v48q42 -2 141 -2q46 0 116 2v-48q-46 -8 -59 -16q-21 -11 -52 -47q0 -1 -151 -165q100 -144 157.5 -217.5t121.5 -139.5zM310 0q-44 1 -139 1q-101 0 -149 -1v47q63 6 73 16q11 11 11 59
v399q0 48 -10 57q-11 9 -74 18v48q96 -2 149 -2q51 0 139 2v-48q-67 -9 -75 -19q-8 -9 -8 -53v-405q0 -41 9 -54q9 -12 74 -18v-47zM307 -301l-32 30q53 59 53 96q0 22 -20 43q-13 12 -13 34q0 18 14 32t38 14q29 0 44 -19t15 -52q0 -88 -99 -178z" />
    <glyph glyph-name="kcommaaccent" unicode="&#x137;" horiz-adv-x="515" 
d="M263 -1q-84 2 -130 2q-35 0 -117 -2v46q54 7 62 15q9 8 9 47q0 65 -0.5 208t-0.5 183q0 92 -10 112q-13 23 -53 29v30q100 63 146 63q27 0 27 -34q0 -70 -0.5 -312.5t-0.5 -269.5q0 -48 7 -55q10 -12 61 -16v-46zM488 -23q-72 12 -131 59q-15 12 -30 27t-25 26.5
t-25.5 32t-22 29.5t-24.5 35t-24 34q5 5 19 18t32 30.5t37 38.5q26 27 26 49q0 21 -52 23v47q41 -2 122 -2q47 0 90 2v-47q-31 -3 -45 -10q-18 -7 -57 -45q-15 -15 -36 -36.5t-28 -27.5q92 -152 199 -241zM230 -301l-32 30q53 59 53 96q0 22 -20 43q-13 12 -13 34
q0 18 14 32t38 14q29 0 44 -19t15 -52q0 -88 -99 -178z" />
    <glyph glyph-name="kgreenlandic" unicode="&#x138;" horiz-adv-x="515" 
d="M266 -1q-82 2 -130 2q-33 0 -115 -2v47q52 6 59 14q9 11 9 48q0 121 -1.5 158t-7.5 50q-11 21 -57 27v32q85 67 142 67q15 0 25 -12t10 -32q0 -77 -1.5 -160t-1.5 -122q0 -45 8 -56q10 -10 61 -14v-47zM490 -23q-87 23 -126 56q-67 55 -155 187q31 26 88 87q25 27 25 45
q0 25 -51 27v47q41 -2 121 -2q48 0 91 2v-47q-29 -3 -45 -10q-18 -8 -60 -50l-34 -34t-27 -26q99 -159 198 -239z" />
    <glyph glyph-name="Lacute" unicode="&#x139;" horiz-adv-x="557" 
d="M534 177q-10 -107 -23 -147q-5 -18 -17.5 -24t-44.5 -6h-427v47q64 4 74 16q10 13 10 63v395q0 45 -10 57q-10 11 -74 18v48q102 -2 149 -2q51 0 143 2v-48q-64 -5 -77 -17q-10 -10 -10 -55v-412q0 -38 27 -45q34 -8 74 -8q93 0 116 25q18 19 48 101zM143 679l-28 34
l102 109q32 35 54 35q18 0 30.5 -13.5t12.5 -33.5q0 -26 -41 -51z" />
    <glyph glyph-name="lacute" unicode="&#x13a;" horiz-adv-x="282" 
d="M263 -1q-84 2 -130 2q-35 0 -117 -2v46q54 7 62 15q9 8 9 47q0 65 -0.5 208t-0.5 183q0 94 -10 112q-13 22 -53 29v30q100 63 146 63q27 0 27 -34q0 -70 -0.5 -312.5t-0.5 -269.5q0 -48 7 -55q10 -12 61 -16v-46zM73 745l-28 34l102 109q32 35 54 35q18 0 30.5 -13.5
t12.5 -33.5q0 -26 -41 -51z" />
    <glyph glyph-name="Lcommaaccent" unicode="&#x13b;" horiz-adv-x="557" 
d="M534 177q-10 -107 -23 -147q-5 -18 -17.5 -24t-44.5 -6h-427v47q64 4 74 16q10 13 10 63v395q0 45 -10 57q-10 11 -74 18v48q102 -2 149 -2q51 0 143 2v-48q-64 -5 -77 -17q-10 -10 -10 -55v-412q0 -38 27 -45q34 -8 74 -8q93 0 116 25q18 19 48 101zM254 -301l-32 30
q53 59 53 96q0 22 -20 43q-13 12 -13 34q0 18 14 32t38 14q29 0 44 -19t15 -52q0 -88 -99 -178z" />
    <glyph glyph-name="lcommaaccent" unicode="&#x13c;" horiz-adv-x="282" 
d="M263 -1q-84 2 -130 2q-35 0 -117 -2v46q54 7 62 15q9 8 9 47q0 65 -0.5 208t-0.5 183q0 94 -10 112q-13 22 -53 29v30q100 63 146 63q27 0 27 -34q0 -70 -0.5 -312.5t-0.5 -269.5q0 -48 7 -55q10 -12 61 -16v-46zM112 -301l-32 30q53 59 53 96q0 22 -20 43q-13 12 -13 34
q0 18 14 32t38 14q29 0 44 -19t15 -52q0 -88 -99 -178z" />
    <glyph glyph-name="Lcaron" unicode="&#x13d;" horiz-adv-x="557" 
d="M534 177q-10 -107 -23 -147q-5 -18 -17.5 -24t-44.5 -6h-427v47q64 4 74 16q10 13 10 63v395q0 45 -10 57q-13 12 -74 18v48q102 -2 149 -2q51 0 143 2v-48q-64 -5 -77 -17q-10 -10 -10 -55v-412q0 -38 27 -45q34 -8 74 -8q93 0 116 25q18 19 48 101zM384 447l-30 30
q52 61 52 96q0 19 -20 42q-13 13 -13 35q0 19 13.5 33t36.5 14q28 0 42.5 -20t14.5 -53q0 -86 -96 -177z" />
    <glyph glyph-name="lcaron" unicode="&#x13e;" horiz-adv-x="282" 
d="M263 -1q-84 2 -130 2q-35 0 -117 -2v46q54 7 62 15q9 8 9 47q0 65 -0.5 208t-0.5 183q0 94 -10 112q-13 22 -53 29v30q100 63 146 63q27 0 27 -34q0 -70 -0.5 -312.5t-0.5 -269.5q0 -48 7 -55q10 -12 61 -16v-46zM275 482l-31 30q52 58 52 96q0 19 -20 42q-12 11 -12 35
q0 19 13 32.5t36 13.5q28 0 43 -19.5t15 -52.5q0 -84 -96 -177z" />
    <glyph glyph-name="Ldot" unicode="&#x13f;" horiz-adv-x="557" 
d="M495 334q0 -32 -16.5 -50.5t-45.5 -18.5q-27 0 -45.5 19t-18.5 48q0 28 18 46.5t45 18.5q28 0 44.5 -17t18.5 -46zM534 177q-10 -107 -23 -147q-5 -18 -17.5 -24t-44.5 -6h-427v47q64 4 74 16q10 13 10 63v395q0 45 -10 57q-10 11 -74 18v48q102 -2 149 -2q51 0 143 2
v-48q-64 -5 -77 -17q-10 -10 -10 -55v-412q0 -38 27 -45q34 -8 74 -8q93 0 116 25q18 19 48 101z" />
    <glyph glyph-name="ldot" unicode="&#x140;" horiz-adv-x="358" 
d="M263 -1q-84 2 -130 2q-35 0 -117 -2v46q54 7 62 15q9 8 9 47q0 65 -0.5 208t-0.5 183q0 94 -10 112q-13 22 -53 29v30q100 63 146 63q27 0 27 -34q0 -70 -0.5 -312.5t-0.5 -269.5q0 -48 7 -55q10 -12 61 -16v-46zM381 343q0 -31 -16.5 -49.5t-44.5 -18.5
q-27 0 -44.5 18.5t-17.5 46.5q0 29 17 47.5t44 18.5q28 0 45 -17t17 -46z" />
    <glyph glyph-name="Lslash" unicode="&#x141;" horiz-adv-x="557" 
d="M381 428l-154 -106v-210q0 -38 27 -45q34 -8 74 -8q93 0 116 25q18 19 48 101l42 -8q-10 -107 -23 -147q-5 -18 -17.5 -24t-44.5 -6h-427v47q64 4 74 16q10 13 10 63v117l-71 -48l-30 50l101 69v207q0 45 -10 57q-11 11 -74 18v48q102 -2 149 -2q51 0 143 2v-48
q-64 -5 -77 -17q-10 -10 -10 -55v-131l123 84z" />
    <glyph glyph-name="lslash" unicode="&#x142;" horiz-adv-x="282" 
d="M282 415l-87 -68v-231q0 -48 7 -55q10 -12 61 -16v-46q-84 2 -130 2q-35 0 -117 -2v46q54 7 62 15q9 8 9 47v158l-62 -48l-28 41l89 71v169q0 94 -10 112q-13 22 -53 29v30q100 63 146 63q27 0 27 -34q0 -23 -0.5 -123.5t-0.5 -163.5l57 45z" />
    <glyph glyph-name="Nacute" unicode="&#x143;" horiz-adv-x="701" 
d="M265 -1q-102 2 -119 2q-20 0 -124 -2v48q67 4 77 20q7 9 7 80v132v151l1 66q0 63 -5 73q-9 14 -32 19q-31 7 -52 8v48q44 -2 113 -2q38 0 89 2q81 -117 316 -443q-2 75 -3.5 179.5t-1.5 115.5q-3 70 -11 82q-9 12 -79 18v48q104 -2 129 -2q13 0 115 2v-48q-70 -7 -79 -17
q-7 -7 -7 -83q0 -31 -0.5 -149.5t-0.5 -178.5q0 -25 0.5 -88t0.5 -80h-74q-7 9 -57 80.5t-131.5 185.5t-165.5 229q0 -55 1 -138t2 -142.5t1 -69.5q0 -72 7 -81q11 -12 83 -17v-48zM322 679l-28 34l102 109q32 35 54 35q18 0 30.5 -13.5t12.5 -33.5q0 -26 -41 -51z" />
    <glyph glyph-name="nacute" unicode="&#x144;" horiz-adv-x="542" 
d="M257 -1q-86 2 -128 2q-24 0 -108 -2v46q51 8 60 15q8 8 8 44q0 124 -1 167q-2 38 -12 51q-12 15 -53 21v32q81 67 137 67q33 0 37 -63q61 60 139 60q55 0 85 -27q39 -34 39 -117q0 -4 -1 -92t-1 -93q0 -35 4 -43q3 -8 15 -12.5t49 -9.5v-46q-76 2 -120 2q-32 0 -114 -2
v46q39 6 50 17q7 6 7 52q0 79 -3 163q-2 44 -15 61q-16 20 -51 20q-45 0 -81 -20q0 -11 -0.5 -117t-0.5 -110q0 -44 8 -51q11 -8 51 -15v-46zM246 494l-34 26l77 132q17 28 28.5 37.5t27.5 9.5q18 0 30.5 -12t12.5 -30q0 -25 -33 -57z" />
    <glyph glyph-name="Ncommaaccent" unicode="&#x145;" horiz-adv-x="701" 
d="M265 -1q-102 2 -119 2q-20 0 -124 -2v48q67 4 77 20q7 9 7 80v132v151l1 66q0 63 -5 73q-9 14 -32 19q-31 7 -52 8v48q44 -2 113 -2q38 0 89 2q81 -117 316 -443q-2 75 -3.5 179.5t-1.5 115.5q-3 70 -11 82q-9 12 -79 18v48q104 -2 129 -2q13 0 115 2v-48q-70 -7 -79 -17
q-7 -7 -7 -83q0 -31 -0.5 -149.5t-0.5 -178.5q0 -25 0.5 -88t0.5 -80h-74q-7 9 -57 80.5t-131.5 185.5t-165.5 229q0 -55 1 -138t2 -142.5t1 -69.5q0 -72 7 -81q11 -12 83 -17v-48zM330 -301l-32 30q53 59 53 96q0 22 -20 43q-13 12 -13 34q0 18 14 32t38 14q29 0 44 -19
t15 -52q0 -88 -99 -178z" />
    <glyph glyph-name="ncommaaccent" unicode="&#x146;" horiz-adv-x="542" 
d="M257 -1q-86 2 -128 2q-24 0 -108 -2v46q51 8 60 15q8 8 8 44q0 124 -1 167q-2 38 -12 51q-12 15 -53 21v32q81 67 137 67q33 0 37 -63q61 60 139 60q55 0 85 -27q39 -34 39 -117q0 -4 -1 -92t-1 -93q0 -35 4 -43q3 -8 15 -12.5t49 -9.5v-46q-76 2 -120 2q-32 0 -114 -2
v46q39 6 50 17q7 6 7 52q0 79 -3 163q-2 44 -15 61q-16 20 -51 20q-45 0 -81 -20q0 -11 -0.5 -117t-0.5 -110q0 -44 8 -51q11 -8 51 -15v-46zM234 -301l-32 30q53 59 53 96q0 22 -20 43q-13 12 -13 34q0 18 14 32t38 14q29 0 44 -19t15 -52q0 -88 -99 -178z" />
    <glyph glyph-name="Ncaron" unicode="&#x147;" horiz-adv-x="701" 
d="M265 -1q-102 2 -119 2q-20 0 -124 -2v48q67 4 77 20q7 9 7 80v132v151l1 66q0 63 -5 73q-9 14 -32 19q-31 7 -52 8v48q44 -2 113 -2q38 0 89 2q81 -117 316 -443q-2 75 -3.5 179.5t-1.5 115.5q-3 70 -11 82q-9 12 -79 18v48q104 -2 129 -2q13 0 115 2v-48q-70 -7 -79 -17
q-7 -7 -7 -83q0 -31 -0.5 -149.5t-0.5 -178.5q0 -25 0.5 -88t0.5 -80h-74q-7 9 -57 80.5t-131.5 185.5t-165.5 229q0 -55 1 -138t2 -142.5t1 -69.5q0 -72 7 -81q11 -12 83 -17v-48zM221 834l28 27l119 -84l118 84l29 -25l-113 -136q-17 -20 -36 -20t-35 20z" />
    <glyph glyph-name="ncaron" unicode="&#x148;" horiz-adv-x="542" 
d="M257 -1q-86 2 -128 2q-24 0 -108 -2v46q51 8 60 15q8 8 8 44q0 124 -1 167q-2 38 -12 51q-12 15 -53 21v32q81 67 137 67q33 0 37 -63q61 60 139 60q55 0 85 -27q39 -34 39 -117q0 -4 -1 -92t-1 -93q0 -35 4 -43q3 -8 15 -12.5t49 -9.5v-46q-76 2 -120 2q-32 0 -114 -2
v46q39 6 50 17q7 6 7 52q0 79 -3 163q-2 44 -15 61q-16 20 -51 20q-45 0 -81 -20q0 -11 -0.5 -117t-0.5 -110q0 -44 8 -51q11 -8 51 -15v-46zM125 649l32 27l105 -104l103 104l34 -26l-103 -150q-13 -22 -36 -22q-20 0 -34 21z" />
    <glyph glyph-name="napostrophe" unicode="&#x149;" horiz-adv-x="542" 
d="M257 -1q-86 2 -128 2q-24 0 -108 -2v46q51 8 60 15q8 8 8 44q0 124 -1 167q-2 38 -12 51q-12 15 -53 21v32q81 67 137 67q33 0 37 -63q61 60 139 60q55 0 85 -27q39 -34 39 -117q0 -4 -1 -92t-1 -93q0 -35 4 -43q3 -8 15 -12.5t49 -9.5v-46q-76 2 -120 2q-32 0 -114 -2
v46q39 6 50 17q7 6 7 52q0 79 -3 163q-2 44 -15 61q-16 20 -51 20q-45 0 -81 -20q0 -11 -0.5 -117t-0.5 -110q0 -44 8 -51q11 -8 51 -15v-46zM63 448l-32 30q53 59 53 96q0 22 -20 43q-13 12 -13 34q0 18 14 32t38 14q29 0 44 -19t15 -52q0 -88 -99 -178z" />
    <glyph glyph-name="Eng" unicode="&#x14a;" horiz-adv-x="701" 
d="M266 -1q-102 2 -120 2q-73 0 -124 -2v48q67 3 77 20q7 9 7 80v132v151l1 66q0 63 -5 73q-9 13 -31 19q-33 7 -53 8v48q44 -2 111 -2q40 0 91 2q45 -65 97 -136.5t118.5 -161t101.5 -137.5q-2 78 -3.5 180.5t-1.5 106.5q-1 71 -10 82q-7 12 -81 18v48q102 -2 130 -2
q13 0 115 2v-48q-72 -8 -80 -17q-8 -8 -8 -83q0 -31 -0.5 -204.5t-0.5 -232.5q0 -126 -29 -189q-22 -45 -62.5 -77t-93.5 -32q-60 0 -60 40q0 23 12 56q34 -17 74 -17q37 0 54.5 19.5t26.5 61.5q8 42 8 85q-62 89 -357 488q2 -305 4 -349q1 -72 10 -82q9 -11 82 -16v-48z
" />
    <glyph glyph-name="eng" unicode="&#x14b;" horiz-adv-x="542" 
d="M271 0q-84 2 -128 2q-40 0 -122 -2v46q50 7 60 15q8 7 8 43q0 124 -1 167q-2 38 -12 51q-12 15 -53 21v33q86 66 136 66q34 0 38 -62q67 59 137 59q57 0 86 -26q40 -32 40 -117q0 -3 0.5 -112t0.5 -123q0 -120 -36 -185q-26 -46 -73.5 -82.5t-102.5 -36.5q-56 0 -56 39
q0 23 14 51q30 -17 67 -17q35 0 49.5 21.5t20.5 67.5q3 25 3 102v254q0 42 -15 62q-19 22 -52 22q-38 0 -81 -20q0 -11 -0.5 -118.5t-0.5 -108.5q0 -42 9 -50q13 -11 64 -16v-46z" />
    <glyph glyph-name="Omacron" unicode="&#x14c;" horiz-adv-x="686" 
d="M651 325q0 -149 -86 -244t-219 -95q-149 0 -230 93t-81 243q0 148 87 241.5t221 93.5q149 0 228.5 -87t79.5 -245zM523 310q0 138 -47 210t-133 72q-83 0 -131 -66t-48 -193q0 -282 183 -282q83 0 129.5 65t46.5 194zM487 718h-266v69h266v-69z" />
    <glyph glyph-name="omacron" unicode="&#x14d;" horiz-adv-x="500" 
d="M468 222q0 -108 -62 -171.5t-158 -63.5q-105 0 -160.5 62.5t-55.5 166.5q0 98 62.5 161.5t159.5 63.5q107 0 160.5 -59.5t53.5 -159.5zM349 188q0 198 -99 198q-47 0 -72.5 -37t-25.5 -110q0 -193 103 -193q94 0 94 142zM373 523h-249v77h249v-77z" />
    <glyph glyph-name="Obreve" unicode="&#x14e;" horiz-adv-x="686" 
d="M651 325q0 -149 -86 -244t-219 -95q-149 0 -230 93t-81 243q0 148 87 241.5t221 93.5q149 0 228.5 -87t79.5 -245zM523 310q0 138 -47 210t-133 72q-83 0 -131 -66t-48 -193q0 -282 183 -282q83 0 129.5 65t46.5 194zM446 848l44 -2q-1 -73 -39 -114t-102 -41
q-62 0 -99 38t-38 115l44 4q6 -37 30 -58.5t64 -21.5q78 0 96 80z" />
    <glyph glyph-name="obreve" unicode="&#x14f;" horiz-adv-x="500" 
d="M468 222q0 -108 -62 -171.5t-158 -63.5q-105 0 -160.5 62.5t-55.5 166.5q0 98 62.5 161.5t159.5 63.5q107 0 160.5 -59.5t53.5 -159.5zM349 188q0 198 -99 198q-47 0 -72.5 -37t-25.5 -110q0 -193 103 -193q94 0 94 142zM336 651l42 -3q-1 -72 -36.5 -112.5t-94.5 -40.5
q-127 0 -128 152l42 4q5 -36 27.5 -57.5t59.5 -21.5q73 0 88 79z" />
    <glyph glyph-name="Ohungarumlaut" unicode="&#x150;" horiz-adv-x="686" 
d="M651 325q0 -149 -86 -244t-219 -95q-149 0 -230 93t-81 243q0 148 87 241.5t221 93.5q149 0 228.5 -87t79.5 -245zM523 310q0 138 -47 210t-133 72q-83 0 -131 -66t-48 -193q0 -282 183 -282q83 0 129.5 65t46.5 194zM271 679l-31 29l85 118q20 27 31 35.5t25 8.5
q13 0 24 -11t11 -27q0 -20 -38 -55zM415 679l-31 29l86 118q19 26 30.5 35t23.5 9q14 0 25 -11t11 -27q0 -20 -38 -55z" />
    <glyph glyph-name="ohungarumlaut" unicode="&#x151;" horiz-adv-x="500" 
d="M468 222q0 -108 -62 -171.5t-158 -63.5q-105 0 -160.5 62.5t-55.5 166.5q0 98 62.5 161.5t159.5 63.5q107 0 160.5 -59.5t53.5 -159.5zM349 188q0 198 -99 198q-47 0 -72.5 -37t-25.5 -110q0 -193 103 -193q94 0 94 142zM177 495l-31 23l69 133q15 28 25.5 37t24.5 9
q15 0 27 -10t12 -26q0 -25 -29 -57zM314 495l-32 22l70 133q14 28 25 37.5t26 9.5q14 0 26 -10t12 -26q0 -25 -29 -57z" />
    <glyph glyph-name="OE" unicode="&#x152;" horiz-adv-x="910" 
d="M889 178q-6 -99 -24 -152q-5 -16 -18.5 -21t-44.5 -5h-262q-29 0 -97.5 -3.5t-96.5 -3.5q-160 0 -235.5 87t-75.5 239q0 147 84.5 239t227.5 92q29 0 89 -3.5t77 -3.5h268q35 0 44.5 -7t12.5 -27q8 -45 8 -134l-43 -2q-18 78 -33 92q-20 18 -119 18q-45 0 -70 -2v-219h8
q104 0 125 18q9 7 22 64h43q-1 -24 -1 -109q0 -76 1 -117h-42q-11 58 -21 68q-9 10 -32.5 12.5t-95.5 2.5h-7v-190q0 -37 27 -44q33 -9 74 -9q93 0 115 24q18 20 50 104zM460 162v320q0 61 -14 80q-23 28 -102 28q-85 0 -133 -69.5t-48 -191.5q0 -273 184 -273q84 0 105 36
q8 14 8 70z" />
    <glyph glyph-name="oe" unicode="&#x153;" horiz-adv-x="768" 
d="M746 54q-95 -69 -190 -69q-48 0 -89 20.5t-64 57.5q-53 -76 -158 -76q-103 0 -158.5 63t-55.5 166q0 96 62.5 160.5t158.5 64.5q114 0 159 -73q25 35 70.5 54t91.5 19q79 0 122 -49.5t43 -123.5q0 -17 -8 -25t-28 -8h-244v-6q0 -72 37.5 -113.5t102.5 -41.5q71 0 127 26z
M349 188q0 197 -99 197q-46 0 -72 -37t-26 -109q0 -193 100 -193q97 0 97 142zM459 285l178 9q-6 88 -88 88q-36 0 -62 -25t-28 -72z" />
    <glyph glyph-name="Racute" unicode="&#x154;" horiz-adv-x="623" 
d="M314 -1q-96 2 -176 2q-12 0 -116 -2v48q64 4 76 20q8 11 8 58v395q0 43 -7 55q-8 13 -77 21v47h145q164 0 221 -11q68 -12 107 -55t39 -112q0 -55 -30.5 -99t-89.5 -67q71 -132 121 -197q43 -57 83 -89l-24 -42q-100 31 -155 84q-78 78 -155 220q-41 0 -57 2v-150
q0 -48 7 -57q6 -6 9.5 -9t21.5 -7.5t49 -6.5v-48zM227 340q13 -3 39 -3q135 0 135 122q0 88 -69 115q-33 13 -105 13v-247zM250 679l-28 34l102 109q32 35 54 35q18 0 30.5 -13.5t12.5 -33.5q0 -26 -41 -51z" />
    <glyph glyph-name="racute" unicode="&#x155;" horiz-adv-x="368" 
d="M282 -1q-80 2 -153 2q-24 0 -108 -2v46q51 7 60 15q8 8 8 43q0 100 -1 168q-2 39 -11 51q-11 15 -54 21v32q88 67 137 67q17 0 26 -15t12 -57q11 21 33 41q32 29 68 29q29 0 51 -15q14 -10 14 -28q0 -35 -36 -80q-40 32 -72 32q-29 0 -57 -21q0 -12 -0.5 -112.5
t-0.5 -101.5q0 -44 9 -53q12 -11 75 -16v-46zM174 494l-34 26l77 132q17 28 28.5 37.5t27.5 9.5q18 0 30.5 -12t12.5 -30q0 -25 -33 -57z" />
    <glyph glyph-name="Rcommaaccent" unicode="&#x156;" horiz-adv-x="623" 
d="M314 -1q-96 2 -176 2q-12 0 -116 -2v48q64 4 76 20q8 11 8 58v395q0 43 -7 55q-8 13 -77 21v47h145q164 0 221 -11q68 -12 107 -55t39 -112q0 -55 -30.5 -99t-89.5 -67q71 -132 121 -197q43 -57 83 -89l-24 -42q-100 31 -155 84q-78 78 -155 220q-41 0 -57 2v-150
q0 -48 7 -57q6 -6 9.5 -9t21.5 -7.5t49 -6.5v-48zM227 340q13 -3 39 -3q135 0 135 122q0 88 -69 115q-33 13 -105 13v-247zM297 -301l-32 30q53 59 53 96q0 22 -20 43q-13 12 -13 34q0 18 14 32t38 14q29 0 44 -19t15 -52q0 -88 -99 -178z" />
    <glyph glyph-name="rcommaaccent" unicode="&#x157;" horiz-adv-x="368" 
d="M282 -1q-80 2 -153 2q-24 0 -108 -2v46q51 7 60 15q8 8 8 43q0 100 -1 168q-2 39 -11 51q-11 15 -54 21v32q88 67 137 67q17 0 26 -15t12 -57q11 21 33 41q32 29 68 29q29 0 51 -15q14 -10 14 -28q0 -35 -36 -80q-40 32 -72 32q-29 0 -57 -21q0 -12 -0.5 -112.5
t-0.5 -101.5q0 -44 9 -53q12 -11 75 -16v-46zM120 -301l-32 30q53 59 53 96q0 22 -20 43q-13 12 -13 34q0 18 14 32t38 14q29 0 44 -19t15 -52q0 -88 -99 -178z" />
    <glyph glyph-name="Rcaron" unicode="&#x158;" horiz-adv-x="623" 
d="M314 -1q-96 2 -176 2q-12 0 -116 -2v48q64 4 76 20q8 11 8 58v395q0 43 -7 55q-8 13 -77 21v47h145q164 0 221 -11q68 -12 107 -55t39 -112q0 -55 -30.5 -99t-89.5 -67q71 -132 121 -197q43 -57 83 -89l-24 -42q-100 31 -155 84q-78 78 -155 220q-41 0 -57 2v-150
q0 -48 7 -57q6 -6 9.5 -9t21.5 -7.5t49 -6.5v-48zM227 340q13 -3 39 -3q135 0 135 122q0 88 -69 115q-33 13 -105 13v-247zM131 834l28 27l119 -84l118 84l29 -25l-113 -136q-17 -20 -36 -20t-35 20z" />
    <glyph glyph-name="rcaron" unicode="&#x159;" horiz-adv-x="368" 
d="M282 -1q-80 2 -153 2q-24 0 -108 -2v46q51 7 60 15q8 8 8 43q0 100 -1 168q-2 39 -11 51q-11 15 -54 21v32q88 67 137 67q17 0 26 -15t12 -57q11 21 33 41q32 29 68 29q29 0 51 -15q14 -10 14 -28q0 -35 -36 -80q-40 32 -72 32q-29 0 -57 -21q0 -12 -0.5 -112.5
t-0.5 -101.5q0 -44 9 -53q12 -11 75 -16v-46zM42 649l32 27l105 -104l103 104l34 -26l-103 -150q-13 -22 -36 -22q-20 0 -34 21z" />
    <glyph glyph-name="Sacute" unicode="&#x15a;" horiz-adv-x="485" 
d="M85 197q20 -92 43 -113q40 -35 105 -35q52 0 81 23.5t29 59.5q0 38 -18.5 60.5t-71.5 49.5l-57 31q-84 45 -115.5 90t-31.5 111q0 82 64 132t169 51q76 0 120 -16q22 -9 27 -36q8 -38 8 -143l-48 -2q-14 70 -28 95q-22 40 -99 40q-47 0 -76 -22.5t-29 -64.5
q0 -30 18 -53.5t60 -47.5l59 -35q93 -56 126 -96.5t33 -105.5q0 -82 -61 -133t-165 -51q-85 0 -149 24q-19 7 -27 18t-10 34q-6 50 -6 132zM226 679l-28 34l102 109q32 35 54 35q18 0 30.5 -13.5t12.5 -33.5q0 -26 -41 -51z" />
    <glyph glyph-name="sacute" unicode="&#x15b;" horiz-adv-x="403" 
d="M81 152q17 -63 27 -75q22 -31 83 -31q64 0 64 45q0 17 -11.5 29t-43.5 27l-58 27q-49 23 -70.5 54t-21.5 77q0 58 46 97t125 39q66 0 98 -14q19 -8 22 -31q5 -34 5 -93l-45 -3q-10 36 -20 54q-18 30 -70 30q-29 0 -43.5 -12.5t-14.5 -30.5q0 -19 10 -32t46 -30l49 -23
q64 -30 83.5 -58t19.5 -73q0 -59 -47.5 -98.5t-142.5 -39.5q-55 0 -99 17q-29 11 -33 41q-5 37 -5 104zM176 494l-34 26l77 132q17 28 28.5 37.5t27.5 9.5q18 0 30.5 -12t12.5 -30q0 -25 -33 -57z" />
    <glyph glyph-name="Scircumflex" unicode="&#x15c;" horiz-adv-x="485" 
d="M85 197q20 -92 43 -113q40 -35 105 -35q52 0 81 23.5t29 59.5q0 38 -18.5 60.5t-71.5 49.5l-57 31q-84 45 -115.5 90t-31.5 111q0 82 64 132t169 51q76 0 120 -16q22 -9 27 -36q8 -38 8 -143l-48 -2q-14 70 -28 95q-22 40 -99 40q-47 0 -76 -22.5t-29 -64.5
q0 -30 18 -53.5t60 -47.5l59 -35q93 -56 126 -96.5t33 -105.5q0 -82 -61 -133t-165 -51q-85 0 -149 24q-19 7 -27 18t-10 34q-6 50 -6 132zM413 705l-28 -27l-120 84l-116 -84l-30 25l112 136q16 21 36 21q19 0 36 -21z" />
    <glyph glyph-name="scircumflex" unicode="&#x15d;" horiz-adv-x="403" 
d="M81 152q17 -63 27 -75q22 -31 83 -31q64 0 64 45q0 17 -11.5 29t-43.5 27l-58 27q-49 23 -70.5 54t-21.5 77q0 58 46 97t125 39q66 0 98 -14q19 -8 22 -31q5 -34 5 -93l-45 -3q-10 36 -20 54q-18 30 -70 30q-29 0 -43.5 -12.5t-14.5 -30.5q0 -19 10 -32t46 -30l49 -23
q64 -30 83.5 -58t19.5 -73q0 -59 -47.5 -98.5t-142.5 -39.5q-55 0 -99 17q-29 11 -33 41q-5 37 -5 104zM345 505l-34 -26l-104 103l-104 -103l-32 25l103 151q15 22 35 22q21 0 35 -21z" />
    <glyph glyph-name="Scedilla" unicode="&#x15e;" horiz-adv-x="485" 
d="M170 -279l-12 50q99 31 99 73q0 25 -42 50q-20 14 -20 30q0 23 16 62q-73 2 -133 24q-19 7 -27 18t-10 34q-6 50 -6 132l50 3q20 -92 43 -113q40 -35 105 -35q52 0 81 23.5t29 59.5q0 38 -18.5 60.5t-71.5 49.5l-57 31q-84 45 -115.5 90t-31.5 111q0 82 64 132t169 51
q76 0 120 -16q22 -9 27 -36q8 -38 8 -143l-48 -2q-14 70 -28 95q-22 40 -99 40q-47 0 -76 -22.5t-29 -64.5q0 -30 18 -53.5t60 -47.5l59 -35q93 -56 126 -96.5t33 -105.5q0 -74 -50 -123t-138 -58q-8 -22 -8 -33q0 -13 18 -23q37 -19 50.5 -37t13.5 -45q0 -92 -169 -130z
" />
    <glyph glyph-name="scedilla" unicode="&#x15f;" horiz-adv-x="403" 
d="M125 -268l-13 47q97 29 97 71q0 14 -9.5 23.5t-31.5 24.5q-20 12 -20 29t17 60q-52 2 -93 17q-29 11 -33 41q-5 37 -5 104l47 3q17 -63 27 -75q22 -31 83 -31q64 0 64 45q0 17 -11.5 29t-43.5 27l-58 27q-49 23 -70.5 54t-21.5 77q0 58 46 97t125 39q66 0 98 -14
q19 -8 22 -31q5 -34 5 -93l-45 -3q-10 36 -20 54q-18 30 -70 30q-29 0 -43.5 -12.5t-14.5 -30.5q0 -19 10 -32t46 -30l49 -23q64 -30 83.5 -58t19.5 -73q0 -51 -36 -88.5t-107 -46.5q-8 -21 -8 -31q0 -15 17 -23q35 -18 48.5 -35.5t13.5 -43.5q0 -88 -164 -125z" />
    <glyph glyph-name="Scaron" unicode="&#x160;" horiz-adv-x="485" 
d="M85 197q20 -92 43 -113q40 -35 105 -35q52 0 81 23.5t29 59.5q0 38 -18.5 60.5t-71.5 49.5l-57 31q-84 45 -115.5 90t-31.5 111q0 82 64 132t169 51q76 0 120 -16q22 -9 27 -36q8 -38 8 -143l-48 -2q-14 70 -28 95q-22 40 -99 40q-47 0 -76 -22.5t-29 -64.5
q0 -30 18 -53.5t60 -47.5l59 -35q93 -56 126 -96.5t33 -105.5q0 -82 -61 -133t-165 -51q-85 0 -149 24q-19 7 -27 18t-10 34q-6 50 -6 132zM125 834l28 27l119 -84l118 84l29 -25l-113 -136q-17 -20 -36 -20t-35 20z" />
    <glyph glyph-name="scaron" unicode="&#x161;" horiz-adv-x="403" 
d="M81 152q17 -63 27 -75q22 -31 83 -31q64 0 64 45q0 17 -11.5 29t-43.5 27l-58 27q-49 23 -70.5 54t-21.5 77q0 58 46 97t125 39q66 0 98 -14q19 -8 22 -31q5 -34 5 -93l-45 -3q-10 36 -20 54q-18 30 -70 30q-29 0 -43.5 -12.5t-14.5 -30.5q0 -19 10 -32t46 -30l49 -23
q64 -30 83.5 -58t19.5 -73q0 -59 -47.5 -98.5t-142.5 -39.5q-55 0 -99 17q-29 11 -33 41q-5 37 -5 104zM67 649l32 27l105 -104l103 104l34 -26l-103 -150q-13 -22 -36 -22q-20 0 -34 21z" />
    <glyph glyph-name="uni0162" unicode="&#x162;" horiz-adv-x="596" 
d="M230 -279l-12 50q99 31 99 73q0 25 -42 50q-20 14 -20 30q0 27 23 77q-21 0 -70.5 -0.5t-63.5 -1.5v48q77 5 86 24q5 9 5 60v454q-101 -2 -119 -14q-13 -8 -23 -33.5t-25 -86.5l-45 3q2 91 8 161q2 28 30 28h478q16 0 21.5 -6t7.5 -23q5 -45 5 -158l-47 -2
q-19 94 -36 109q-22 19 -133 22v-453q0 -55 5 -63q9 -16 89 -22v-48q-66 2 -121 2q-13 -33 -13 -45q0 -13 18 -23q37 -19 50.5 -37t13.5 -45q0 -92 -169 -130z" />
    <glyph glyph-name="uni0163" unicode="&#x163;" horiz-adv-x="308" 
d="M93 -268l-13 47q97 29 97 71q0 14 -9.5 23.5t-31.5 24.5q-20 12 -20 29t22 74q-63 23 -63 112q0 35 1.5 118.5t1.5 116.5q-38 2 -74 7v47q8 3 22.5 6.5t25 6.5t15.5 6q14 7 22 31q3 10 9 28.5t11.5 33.5t10.5 28h68v-128q56 0 111 -4v-55q-15 -2 -112 -6q0 -4 -0.5 -84
t-0.5 -81q0 -56 2 -76q3 -23 12 -33t30 -10q33 0 59 10l15 -52q-54 -28 -117 -30q-9 -27 -9 -34q0 -15 17 -23q35 -18 48.5 -35.5t13.5 -43.5q0 -88 -164 -125z" />
    <glyph glyph-name="Tcaron" unicode="&#x164;" horiz-adv-x="596" 
d="M451 -1q-70 2 -126 2q-103 0 -181 -2v48q77 5 86 24q5 9 5 60v454q-101 -2 -119 -14q-13 -8 -23 -33.5t-25 -86.5l-45 3q2 91 8 161q2 28 30 28h478q16 0 21.5 -6t7.5 -23q5 -45 5 -158l-47 -2q-19 94 -36 109q-22 19 -133 22v-453q0 -55 5 -63q9 -16 89 -22v-48z
M154 834l28 27l119 -84l118 84l29 -25l-113 -136q-17 -20 -36 -20t-35 20z" />
    <glyph glyph-name="tcaron" unicode="&#x165;" horiz-adv-x="308" 
d="M304 23q-60 -30 -119 -30q-46 0 -78 28t-32 92q0 35 1.5 118.5t1.5 116.5q-38 2 -74 7v47q8 3 22.5 6.5t25 6.5t15.5 6q14 7 22 31q3 10 9 28.5t11.5 33.5t10.5 28h68v-128q56 0 111 -4v-55q-15 -2 -112 -6q0 -4 -0.5 -84t-0.5 -81q0 -56 2 -76q3 -23 12 -33t30 -10
q33 0 59 10zM254 444l-32 31q53 58 53 95q0 21 -20 42q-13 13 -13 35q0 19 14 33t38 14q29 0 44 -19.5t15 -52.5q0 -87 -99 -178z" />
    <glyph glyph-name="Tbar" unicode="&#x166;" horiz-adv-x="596" 
d="M478 377v-64h-121v-181q0 -55 5 -63q9 -16 89 -22v-48q-70 2 -126 2q-103 0 -181 -2v48q77 5 86 24q5 9 5 60v182h-121v64h121v208q-102 -2 -120 -14q-12 -8 -21.5 -33t-25.5 -87l-45 3q2 91 8 161q2 28 30 28h478q16 0 21.5 -6t7.5 -23q5 -45 5 -158l-47 -2
q-19 94 -36 109q-22 19 -133 22v-208h121z" />
    <glyph glyph-name="tbar" unicode="&#x167;" horiz-adv-x="308" 
d="M288 279v-56h-102v-39q0 -56 2 -76q3 -23 12 -33t30 -10q33 0 59 10l15 -52q-60 -30 -119 -30q-46 0 -78 28t-32 92q0 69 1 110h-69v56h70q0 45 2 69q-40 2 -75 7v47q8 3 22.5 6.5t25 6.5t15.5 6q14 7 22 31q3 10 9 28t11.5 33t10.5 29h68v-128q56 0 111 -4v-55
q-15 -2 -113 -6v-70h102z" />
    <glyph glyph-name="Utilde" unicode="&#x168;" horiz-adv-x="691" 
d="M675 596q-66 -8 -73 -23q-6 -13 -6 -61v-221q0 -158 -52 -228q-59 -78 -202 -78q-80 0 -134.5 25.5t-77.5 65.5q-19 32 -27 76.5t-8 139.5q0 44 0.5 122t0.5 107q0 42 -6 52q-9 16 -75 23v48q70 -2 154 -2q72 0 144 2v-48q-73 -6 -86 -21q-9 -12 -10 -50q-1 -58 -1 -231
q0 -116 21 -163q31 -73 133 -73q39 0 74.5 13.5t52.5 38.5q21 29 27.5 76t6.5 128q0 86 -4 206q-2 53 -14 60q-5 4 -13.5 6t-14.5 3t-22.5 3.5t-26.5 3.5v48q36 -2 123 -2q48 0 116 2v-48zM242 694l-36 12q10 46 33 78t56 32q22 0 57 -14l30 -13q26 -12 46 -12q12 0 21.5 10
t22.5 35l35 -11q-9 -50 -29 -80t-47 -30q-22 0 -70 17l-25 10q-27 12 -46 12q-15 0 -24.5 -10t-23.5 -36z" />
    <glyph glyph-name="utilde" unicode="&#x169;" horiz-adv-x="542" 
d="M525 28q-94 -43 -135 -43q-20 0 -31.5 12.5t-16.5 47.5q-64 -54 -133 -54q-74 0 -105 40.5t-31 126.5q0 8 1 60t1 71q0 52 -11 63q-17 15 -57 21v41q92 20 152 20q32 0 32 -33q0 -13 -2.5 -88t-2.5 -110q0 -73 17.5 -103.5t67.5 -30.5q32 0 68 19v203q0 50 -11 61
q-12 14 -63 21v41q94 20 153 20q36 0 36 -37q0 -6 -3 -91t-3 -146q0 -49 6 -67q8 -21 31 -21q21 0 40 3v-47zM145 511l-34 13q9 45 32 78t55 33q21 0 53 -15l25 -11q26 -13 45 -13q12 0 21 10.5t23 36.5l34 -13q-9 -51 -29 -81t-46 -30q-20 0 -65 18l-23 9q-28 11 -42 11
q-15 0 -25.5 -10t-23.5 -36z" />
    <glyph glyph-name="Umacron" unicode="&#x16a;" horiz-adv-x="691" 
d="M675 596q-66 -8 -73 -23q-6 -13 -6 -61v-221q0 -158 -52 -228q-59 -78 -202 -78q-80 0 -134.5 25.5t-77.5 65.5q-19 32 -27 76.5t-8 139.5q0 44 0.5 122t0.5 107q0 42 -6 52q-9 16 -75 23v48q70 -2 154 -2q72 0 144 2v-48q-73 -6 -86 -21q-9 -12 -10 -50q-1 -58 -1 -231
q0 -116 21 -163q31 -73 133 -73q39 0 74.5 13.5t52.5 38.5q21 29 27.5 76t6.5 128q0 86 -4 206q-2 53 -14 60q-5 4 -13.5 6t-14.5 3t-22.5 3.5t-26.5 3.5v48q36 -2 123 -2q48 0 116 2v-48zM487 718h-266v69h266v-69z" />
    <glyph glyph-name="umacron" unicode="&#x16b;" horiz-adv-x="542" 
d="M525 28q-94 -43 -135 -43q-20 0 -31.5 12.5t-16.5 47.5q-64 -54 -133 -54q-74 0 -105 40.5t-31 126.5q0 8 1 60t1 71q0 52 -11 63q-17 15 -57 21v41q92 20 152 20q32 0 32 -33q0 -13 -2.5 -88t-2.5 -110q0 -73 17.5 -103.5t67.5 -30.5q32 0 68 19v203q0 50 -11 61
q-12 14 -63 21v41q94 20 153 20q36 0 36 -37q0 -6 -3 -91t-3 -146q0 -49 6 -67q8 -21 31 -21q21 0 40 3v-47zM383 523h-249v77h249v-77z" />
    <glyph glyph-name="Ubreve" unicode="&#x16c;" horiz-adv-x="691" 
d="M675 596q-66 -8 -73 -23q-6 -13 -6 -61v-221q0 -158 -52 -228q-59 -78 -202 -78q-80 0 -134.5 25.5t-77.5 65.5q-19 32 -27 76.5t-8 139.5q0 44 0.5 122t0.5 107q0 42 -6 52q-9 16 -75 23v48q70 -2 154 -2q72 0 144 2v-48q-73 -6 -86 -21q-9 -12 -10 -50q-1 -58 -1 -231
q0 -116 21 -163q31 -73 133 -73q39 0 74.5 13.5t52.5 38.5q21 29 27.5 76t6.5 128q0 86 -4 206q-2 53 -14 60q-5 4 -13.5 6t-14.5 3t-22.5 3.5t-26.5 3.5v48q36 -2 123 -2q48 0 116 2v-48zM455 848l44 -2q-1 -73 -39 -114t-102 -41q-62 0 -99 38t-38 115l44 4
q6 -37 30 -58.5t64 -21.5q78 0 96 80z" />
    <glyph glyph-name="ubreve" unicode="&#x16d;" horiz-adv-x="542" 
d="M525 28q-94 -43 -135 -43q-20 0 -31.5 12.5t-16.5 47.5q-64 -54 -133 -54q-74 0 -105 40.5t-31 126.5q0 8 1 60t1 71q0 52 -11 63q-17 15 -57 21v41q92 20 152 20q32 0 32 -33q0 -13 -2.5 -88t-2.5 -110q0 -73 17.5 -103.5t67.5 -30.5q32 0 68 19v203q0 50 -11 61
q-12 14 -63 21v41q94 20 153 20q36 0 36 -37q0 -6 -3 -91t-3 -146q0 -49 6 -67q8 -21 31 -21q21 0 40 3v-47zM343 651l42 -3q-1 -72 -36.5 -112.5t-94.5 -40.5q-127 0 -128 152l42 4q5 -36 27.5 -57.5t59.5 -21.5q73 0 88 79z" />
    <glyph glyph-name="Uring" unicode="&#x16e;" horiz-adv-x="691" 
d="M675 596q-66 -8 -73 -23q-6 -13 -6 -61v-221q0 -158 -52 -228q-59 -78 -202 -78q-80 0 -134.5 25.5t-77.5 65.5q-19 32 -27 76.5t-8 139.5q0 44 0.5 122t0.5 107q0 42 -6 52q-9 16 -75 23v48q70 -2 154 -2q72 0 144 2v-48q-73 -6 -86 -21q-9 -12 -10 -50q-1 -58 -1 -231
q0 -116 21 -163q31 -73 133 -73q39 0 74.5 13.5t52.5 38.5q21 29 27.5 76t6.5 128q0 86 -4 206q-2 53 -14 60q-5 4 -13.5 6t-14.5 3t-22.5 3.5t-26.5 3.5v48q36 -2 123 -2q48 0 116 2v-48zM451 760q0 -39 -26.5 -65t-63.5 -26q-38 0 -63.5 24.5t-25.5 64.5q0 39 26.5 64.5
t64.5 25.5q39 0 63.5 -24.5t24.5 -63.5zM405 760q0 23 -12.5 35.5t-30.5 12.5q-19 0 -32 -13t-13 -35t12.5 -36t32.5 -14q19 0 31 13.5t12 36.5z" />
    <glyph glyph-name="uring" unicode="&#x16f;" horiz-adv-x="542" 
d="M525 28q-94 -43 -135 -43q-20 0 -31.5 12.5t-16.5 47.5q-64 -54 -133 -54q-74 0 -105 40.5t-31 126.5q0 8 1 60t1 71q0 52 -11 63q-17 15 -57 21v41q92 20 152 20q32 0 32 -33q0 -13 -2.5 -88t-2.5 -110q0 -73 17.5 -103.5t67.5 -30.5q32 0 68 19v203q0 50 -11 61
q-12 14 -63 21v41q94 20 153 20q36 0 36 -37q0 -6 -3 -91t-3 -146q0 -49 6 -67q8 -21 31 -21q21 0 40 3v-47zM351 585q0 -39 -26 -65t-63 -26q-38 0 -64 25t-26 64t26.5 65t64.5 26q39 0 63.5 -24.5t24.5 -64.5zM305 585q0 24 -12.5 36.5t-30.5 12.5q-19 0 -32 -13t-13 -36
q0 -22 12.5 -35.5t32.5 -13.5q19 0 31 13t12 36z" />
    <glyph glyph-name="Uhungarumlaut" unicode="&#x170;" horiz-adv-x="691" 
d="M675 596q-66 -8 -73 -23q-6 -13 -6 -61v-221q0 -158 -52 -228q-59 -78 -202 -78q-80 0 -134.5 25.5t-77.5 65.5q-19 32 -27 76.5t-8 139.5q0 44 0.5 122t0.5 107q0 42 -6 52q-9 16 -75 23v48q70 -2 154 -2q72 0 144 2v-48q-73 -6 -86 -21q-9 -12 -10 -50q-1 -58 -1 -231
q0 -116 21 -163q31 -73 133 -73q39 0 74.5 13.5t52.5 38.5q21 29 27.5 76t6.5 128q0 86 -4 206q-2 53 -14 60q-5 4 -13.5 6t-14.5 3t-22.5 3.5t-26.5 3.5v48q36 -2 123 -2q48 0 116 2v-48zM265 679l-31 29l85 118q20 27 31 35.5t25 8.5q13 0 24 -11t11 -27q0 -20 -38 -55z
M409 679l-31 29l86 118q19 26 30.5 35t23.5 9q14 0 25 -11t11 -27q0 -20 -38 -55z" />
    <glyph glyph-name="uhungarumlaut" unicode="&#x171;" horiz-adv-x="542" 
d="M525 28q-94 -43 -135 -43q-20 0 -31.5 12.5t-16.5 47.5q-64 -54 -133 -54q-74 0 -105 40.5t-31 126.5q0 8 1 60t1 71q0 52 -11 63q-17 15 -57 21v41q92 20 152 20q32 0 32 -33q0 -13 -2.5 -88t-2.5 -110q0 -73 17.5 -103.5t67.5 -30.5q32 0 68 19v203q0 50 -11 61
q-12 14 -63 21v41q94 20 153 20q36 0 36 -37q0 -6 -3 -91t-3 -146q0 -49 6 -67q8 -21 31 -21q21 0 40 3v-47zM168 495l-31 23l69 133q15 28 25.5 37t24.5 9q15 0 27 -10t12 -26q0 -25 -29 -57zM305 495l-32 22l70 133q14 28 25 37.5t26 9.5q14 0 26 -10t12 -26
q0 -25 -29 -57z" />
    <glyph glyph-name="Uogonek" unicode="&#x172;" horiz-adv-x="691" 
d="M675 596q-66 -8 -73 -23q-6 -13 -6 -61v-221q0 -158 -52 -228q-45 -61 -147 -75q-72 -82 -72 -135q0 -51 49 -51q35 0 68 14l16 -41q-19 -15 -51 -26.5t-61 -11.5q-46 0 -70 27t-24 68q0 38 21 73.5t67 79.5q-79 1 -133 26t-77 65q-19 32 -27 76.5t-8 139.5q0 44 0.5 122
t0.5 107q0 42 -6 52q-9 16 -75 23v48q70 -2 154 -2q72 0 144 2v-48q-73 -6 -86 -21q-9 -12 -10 -50q-1 -58 -1 -231q0 -116 21 -163q31 -73 133 -73q39 0 74.5 13.5t52.5 38.5q21 29 27.5 76t6.5 128q0 86 -4 206q-2 53 -14 60q-5 4 -13.5 6t-14.5 3t-22.5 3.5t-26.5 3.5v48
q36 -2 123 -2q48 0 116 2v-48z" />
    <glyph glyph-name="uogonek" unicode="&#x173;" horiz-adv-x="542" 
d="M525 28q-53 -24 -76 -30q-78 -88 -78 -141q0 -50 49 -50q32 0 65 14l16 -41q-52 -37 -109 -37q-45 0 -69 27t-24 66q0 37 21 71t66 78q-19 1 -29.5 14t-14.5 46q-64 -54 -133 -54q-74 0 -105 40.5t-31 126.5q0 8 1 60t1 71q0 52 -11 63q-17 15 -57 21v41q92 20 152 20
q32 0 32 -33q0 -13 -2.5 -88t-2.5 -110q0 -73 17.5 -103.5t67.5 -30.5q32 0 68 19v203q0 50 -11 61q-12 14 -63 21v41q94 20 153 20q36 0 36 -37q0 -8 -3 -92.5t-3 -144.5q0 -49 6 -67q8 -21 31 -21q21 0 40 3v-47z" />
    <glyph glyph-name="Wcircumflex" unicode="&#x174;" horiz-adv-x="907" 
d="M310 -4h-83l-125 504q-19 76 -35 85q-17 7 -55 11v48q120 -2 149 -2q118 0 156 2v-48q-60 -4 -77.5 -12t-17.5 -27q0 -14 14 -75l69 -300l140 460h74l139 -462l69 288q14 58 14 84q0 20 -17.5 29t-75.5 15v48q94 -2 129 -2q48 0 118 2v-48q-49 -8 -61 -20q-2 -2 -4 -5
l-4 -6t-3.5 -7.5t-3 -8t-3.5 -10t-3.5 -11t-4 -14t-4 -15.5t-5 -18.5t-5.5 -21.5l-121 -463h-83l-137 452zM641 705l-28 -27l-120 84l-116 -84l-30 25l112 136q16 21 36 21q19 0 36 -21z" />
    <glyph glyph-name="wcircumflex" unicode="&#x175;" horiz-adv-x="721" 
d="M251 -4h-77l-94 304q-16 52 -26 63q-10 12 -46 17v46q42 -2 121 -2t126 2v-46q-40 -3 -46 -4q-22 -3 -22 -20q0 -14 14 -65l43 -155l107 289h68l108 -290l40 140q19 68 19 82q0 13 -14 17q-9 2 -55 6v46q37 -2 108 -2q53 0 88 2v-46q-30 -4 -42 -12q-13 -11 -37 -82
l-95 -290h-75l-102 287zM521 505l-34 -26l-104 103l-104 -103l-32 25l103 151q15 22 35 22q21 0 35 -21z" />
    <glyph glyph-name="Ycircumflex" unicode="&#x176;" horiz-adv-x="612" 
d="M456 -1q-104 2 -148 2q-52 0 -150 -2v48q73 5 83 20q6 8 6 47v156l-142 247q-29 51 -46 64q-16 12 -55 15v48q108 -2 136 -2q52 0 156 2v-48q-32 -2 -48.5 -6t-20.5 -8t-4 -11q0 -18 42 -97l74 -134l78 141q38 71 38 92q0 13 -15 17.5t-58 5.5v48q86 -2 123 -2
q23 0 103 2v-48q-37 -7 -48 -16q-19 -15 -63 -88l-133 -220v-158q0 -34 3 -45q3 -10 20.5 -14.5t68.5 -7.5v-48zM480 705l-28 -27l-120 84l-116 -84l-30 25l112 136q16 21 36 21q19 0 36 -21z" />
    <glyph glyph-name="ycircumflex" unicode="&#x177;" horiz-adv-x="499" 
d="M49 -221q50 31 94 79.5t89 138.5h-28l-131 315q-21 50 -32 57t-37 11v46q82 -2 116 -2q41 0 123 2v-46q-19 0 -39 -4t-20 -22q0 -17 15 -55l80 -205l69 196q17 48 17 65q0 16 -12 19q-13 4 -47 6v46q60 -2 104 -2q19 0 83 2v-46q-30 -3 -42 -14q-14 -14 -35 -71
q-101 -278 -171 -412q-40 -79 -77 -121q-28 -34 -57 -34q-37 0 -62 51zM400 505l-34 -26l-104 103l-104 -103l-32 25l103 151q15 22 35 22q21 0 35 -21z" />
    <glyph glyph-name="Ydieresis" unicode="&#x178;" horiz-adv-x="612" 
d="M456 -1q-104 2 -148 2q-52 0 -150 -2v48q73 5 83 20q6 8 6 47v156l-142 247q-29 51 -46 64q-16 12 -55 15v48q108 -2 136 -2q52 0 156 2v-48q-32 -2 -48.5 -6t-20.5 -8t-4 -11q0 -18 42 -97l74 -134l78 141q38 71 38 92q0 13 -15 17.5t-58 5.5v48q86 -2 123 -2
q23 0 103 2v-48q-37 -7 -48 -16q-19 -15 -63 -88l-133 -220v-158q0 -34 3 -45q3 -10 20.5 -14.5t68.5 -7.5v-48zM234 698q-24 0 -39.5 16.5t-15.5 43.5q0 25 15.5 41.5t41.5 16.5q24 0 39 -17t15 -41q0 -25 -15.5 -42.5t-40.5 -17.5zM415 698q-24 0 -39.5 16.5t-15.5 43.5
q0 25 15.5 41.5t41.5 16.5q24 0 39 -17t15 -41q0 -25 -15.5 -42.5t-40.5 -17.5z" />
    <glyph glyph-name="Zacute" unicode="&#x179;" horiz-adv-x="587" 
d="M25 0v37l351 549q-218 -3 -238 -17q-13 -11 -22 -29.5t-23 -69.5l-40 2q4 95 7 132q3 39 34 39h441v-37l-351 -541q42 -3 108 -3q106 0 139.5 6t49.5 22q10 12 37 103l40 -2q-2 -106 -9 -156q-3 -18 -11.5 -26.5t-32.5 -8.5h-480zM268 679l-28 34l102 109q32 35 54 35
q18 0 30.5 -13.5t12.5 -33.5q0 -26 -41 -51z" />
    <glyph glyph-name="zacute" unicode="&#x17a;" horiz-adv-x="455" 
d="M28 0v39l233 330q-92 -2 -116 -5q-25 -3 -34 -21q-8 -19 -25 -71l-42 4q1 7 2 28.5t3 43t4 37.5q4 25 13.5 32.5t37.5 7.5h302v-43l-232 -325q122 0 161 13q17 6 26 30q5 10 25 73l43 -2q0 -62 -9 -132q-3 -19 -13.5 -29t-37.5 -10h-341zM212 494l-34 26l77 132
q17 28 28.5 37.5t27.5 9.5q18 0 30.5 -12t12.5 -30q0 -25 -33 -57z" />
    <glyph glyph-name="Zdotaccent" unicode="&#x17b;" horiz-adv-x="587" 
d="M25 0v37l351 549q-218 -3 -238 -17q-13 -11 -22 -29.5t-23 -69.5l-40 2q4 95 7 132q3 39 34 39h441v-37l-351 -541q42 -3 108 -3q106 0 139.5 6t49.5 22q10 12 37 103l40 -2q-2 -106 -9 -156q-3 -18 -11.5 -26.5t-32.5 -8.5h-480zM302 698q-24 0 -39.5 16.5t-15.5 43.5
q0 25 15.5 41.5t41.5 16.5q24 0 39 -17t15 -41q0 -25 -15.5 -42.5t-40.5 -17.5z" />
    <glyph glyph-name="zdotaccent" unicode="&#x17c;" horiz-adv-x="455" 
d="M28 0v39l233 330q-92 -2 -116 -5q-25 -3 -34 -21q-8 -19 -25 -71l-42 4q1 7 2 28.5t3 43t4 37.5q4 25 13.5 32.5t37.5 7.5h302v-43l-232 -325q122 0 161 13q17 6 26 30q5 10 25 73l43 -2q0 -62 -9 -132q-3 -19 -13.5 -29t-37.5 -10h-341zM231 527q-24 0 -39.5 16.5
t-15.5 43.5q0 25 15.5 41.5t41.5 16.5q24 0 39 -17t15 -41q0 -25 -15.5 -42.5t-40.5 -17.5z" />
    <glyph glyph-name="Zcaron" unicode="&#x17d;" horiz-adv-x="587" 
d="M25 0v37l351 549q-218 -3 -238 -17q-13 -11 -22 -29.5t-23 -69.5l-40 2q4 95 7 132q3 39 34 39h441v-37l-351 -541q42 -3 108 -3q106 0 139.5 6t49.5 22q10 12 37 103l40 -2q-2 -106 -9 -156q-3 -18 -11.5 -26.5t-32.5 -8.5h-480zM150 834l28 27l119 -84l118 84l29 -25
l-113 -136q-17 -20 -36 -20t-35 20z" />
    <glyph glyph-name="zcaron" unicode="&#x17e;" horiz-adv-x="455" 
d="M28 0v39l233 330q-92 -2 -116 -5q-25 -3 -34 -21q-8 -19 -25 -71l-42 4q1 7 2 28.5t3 43t4 37.5q4 25 13.5 32.5t37.5 7.5h302v-43l-232 -325q122 0 161 13q17 6 26 30q5 10 25 73l43 -2q0 -62 -9 -132q-3 -19 -13.5 -29t-37.5 -10h-341zM92 649l32 27l105 -104l103 104
l34 -26l-103 -150q-13 -22 -36 -22q-20 0 -34 21z" />
    <glyph glyph-name="longs" unicode="&#x17f;" horiz-adv-x="293" 
d="M287 -1q-90 2 -142 2q-42 0 -124 -2v46q8 2 19 4l16.5 3t11.5 2.5t9.5 3.5t5.5 5q6 8 6 47q0 56 -0.5 113t-0.5 91v34q-52 3 -74 7v44q12 4 50 12q15 3 18.5 11.5t4.5 39.5q2 96 23.5 145.5t65.5 81.5q58 43 140 43q43 0 71 -16q15 -10 15 -30q0 -30 -34 -70
q-41 42 -94 42q-33 0 -51 -21q-23 -28 -23 -130q0 -15 -0.5 -196t-0.5 -186q0 -53 12 -64q10 -9 76 -16v-46z" />
    <glyph glyph-name="florin" unicode="&#x192;" horiz-adv-x="532" 
d="M426 290h-132l-21 -157q-20 -150 -45 -205q-61 -138 -197 -138q-36 0 -55.5 10.5t-19.5 25.5q0 29 19 62q39 -22 70 -22q45 0 61.5 19.5t28.5 72.5q12 51 21 140l21 192h-89v66h98q13 103 41 156q59 112 195 112q53 0 91 -21q20 -10 20 -34q0 -23 -32 -67q-56 50 -102 50
q-49 0 -70 -61q-12 -35 -23 -114l-3 -21h123v-66z" />
    <glyph glyph-name="Aringacute" unicode="&#x1fa;" horiz-adv-x="662" 
d="M424 719q0 -52 -44 -76l172 -482q30 -84 43 -99q10 -10 62 -15v-48q-94 2 -113 2q-84 0 -192 -2v48q51 5 66.5 13t15.5 24q0 28 -18 81l-21 59h-187l-19 -57q-21 -63 -21 -87q0 -15 17 -21t77 -12v-48q-96 2 -132 2q-37 0 -125 -2v48q48 5 61 18q18 18 49 100l180 477
q-45 22 -45 75q0 39 25.5 64.5t63.5 25.5t61.5 -24.5t23.5 -63.5zM228 283h147q-35 105 -70 217q-17 -51 -77 -217zM311 828l-23 27l88 96q27 30 45 30q16 0 26.5 -11t10.5 -28q0 -24 -35 -46zM381 719q0 23 -12.5 35.5t-30.5 12.5q-19 0 -32 -12.5t-13 -35.5
q0 -22 12.5 -35t32.5 -13q18 0 30.5 13t12.5 35z" />
    <glyph glyph-name="aringacute" unicode="&#x1fb;" horiz-adv-x="465" 
d="M457 33q-60 -45 -113 -45q-48 0 -70 54q-32 -30 -58 -41.5t-67 -11.5q-53 0 -87.5 36.5t-34.5 88.5q0 30 9.5 51.5t34.5 39.5t73 27.5t120 10.5q0 66 -14 85q-16 24 -65 24q-64 0 -116 -28q-13 23 -13 49q0 30 45 47q51 21 127 21q86 0 120 -42q26 -32 26 -101
q0 -8 -1 -74t-1 -72q0 -46 7.5 -65.5t29.5 -19.5q6 0 33 6zM267 83l-3 105q-74 -3 -98 -19t-24 -48q0 -25 15.5 -39.5t42.5 -14.5q31 0 67 16zM323 586q0 -39 -26.5 -65t-63.5 -26q-38 0 -63.5 24.5t-25.5 64.5q0 39 26.5 64.5t63.5 25.5q39 0 64 -24.5t25 -63.5zM277 586
q0 23 -13 35.5t-31 12.5t-31 -13t-13 -35t12.5 -36t31.5 -14t31.5 13.5t12.5 36.5zM217 698l-34 27l70 118q28 48 57 48q17 0 29 -12.5t12 -31.5q0 -23 -35 -55z" />
    <glyph glyph-name="AEacute" unicode="&#x1fc;" horiz-adv-x="929" 
d="M283 -1q-96 2 -140 2q-52 0 -140 -2v48q49 6 65 19q36 28 80 98l228 362q16 24 16 40q0 14 -26 20q-19 4 -72 10v47h505q34 0 44 -7t13 -25q8 -41 8 -136l-43 -2q-17 75 -34 92q-19 18 -119 18q-45 0 -69 -2v-224h7q105 0 124 18q11 10 21 65h44q-1 -25 -1 -110
q0 -76 1 -117h-43q-8 56 -18 68q-9 11 -33 13t-97 2h-5v-184q0 -39 25 -45q29 -8 75 -8q96 0 119 28q17 21 47 99l43 -9q-17 -131 -25 -151q-6 -17 -18.5 -21.5t-44.5 -4.5h-425v47q49 6 60 9q19 6 21 25q2 15 2 75v76h-210l-43 -69q-32 -53 -32 -80q0 -22 28 -29
q19 -5 62 -7v-48zM304 291h174v273q0 10 -4 10q-5 0 -10 -10q-65 -117 -160 -273zM562 679l-28 34l102 109q32 35 54 35q18 0 30.5 -13.5t12.5 -33.5q0 -26 -41 -51z" />
    <glyph glyph-name="aeacute" unicode="&#x1fd;" horiz-adv-x="674" 
d="M652 55q-90 -70 -187 -70q-87 0 -140 56q-81 -54 -159 -54q-64 0 -101.5 38.5t-37.5 89.5q0 61 50 92.5t187 33.5q0 67 -14 89q-15 24 -66 24q-65 0 -116 -27q-12 29 -12 47q0 30 44 46q55 21 124 21q89 0 114 -56q55 56 139 56q82 0 124.5 -49t42.5 -124q0 -17 -8 -25
t-28 -8h-243v-7q0 -70 37 -112t101 -42q73 0 128 26zM287 91q-17 34 -21 100q-74 -2 -99 -20t-25 -49q0 -26 17 -43t45 -17q41 0 83 29zM366 285l178 9q-7 88 -90 88q-34 0 -60 -24.5t-28 -72.5zM322 494l-34 26l77 132q17 28 28.5 37.5t27.5 9.5q18 0 30.5 -12t12.5 -30
q0 -25 -33 -57z" />
    <glyph glyph-name="Oslashacute" unicode="&#x1fe;" horiz-adv-x="686" 
d="M113 -46l-46 34l57 82q-89 91 -89 252q0 148 87 241.5t221 93.5q98 0 167 -39l61 87l48 -36l-61 -86q93 -87 93 -258q0 -149 -86 -244t-219 -95q-103 0 -177 47zM523 310q0 109 -31 179l-271 -383q45 -55 126 -55q83 0 129.5 65t46.5 194zM164 333q0 -104 25 -171
l268 381q-44 49 -114 49q-83 0 -131 -66t-48 -193zM327 679l-28 34l102 109q32 35 54 35q18 0 30.5 -13.5t12.5 -33.5q0 -26 -41 -51z" />
    <glyph glyph-name="oslashacute" unicode="&#x1ff;" horiz-adv-x="500" 
d="M234 494l-34 26l77 132q17 28 28.5 37.5t27.5 9.5q18 0 30.5 -12t12.5 -30q0 -25 -33 -57zM94 -38l-41 30l38 53q-60 61 -60 171q0 98 63 161.5t160 63.5q62 0 109 -22l45 62l41 -31l-44 -60q63 -57 63 -168q0 -108 -62 -171.5t-158 -63.5q-67 0 -116 27zM354 188
q0 68 -13 114l-159 -219q26 -37 73 -37q99 0 99 142zM147 239q0 -59 11 -103l158 218q-26 32 -66 32q-103 0 -103 -147z" />
    <glyph glyph-name="uni0218" unicode="&#x218;" horiz-adv-x="485" 
d="M85 197q20 -92 43 -113q40 -35 105 -35q52 0 81 23.5t29 59.5q0 38 -18.5 60.5t-71.5 49.5l-57 31q-84 45 -115.5 90t-31.5 111q0 82 64 132t169 51q76 0 120 -16q22 -9 27 -36q8 -38 8 -143l-48 -2q-14 70 -28 95q-22 40 -99 40q-47 0 -76 -22.5t-29 -64.5
q0 -30 18 -53.5t60 -47.5l59 -35q93 -56 126 -96.5t33 -105.5q0 -82 -61 -133t-165 -51q-85 0 -149 24q-19 7 -27 18t-10 34q-6 50 -6 132zM215 -301l-32 30q53 59 53 96q0 22 -20 43q-13 12 -13 34q0 18 14 32t38 14q29 0 44 -19t15 -52q0 -88 -99 -178z" />
    <glyph glyph-name="uni0219" unicode="&#x219;" horiz-adv-x="403" 
d="M81 152q17 -63 27 -75q22 -31 83 -31q64 0 64 45q0 17 -11.5 29t-43.5 27l-58 27q-49 23 -70.5 54t-21.5 77q0 58 46 97t125 39q66 0 98 -14q19 -8 22 -31q5 -34 5 -93l-45 -3q-10 36 -20 54q-18 30 -70 30q-29 0 -43.5 -12.5t-14.5 -30.5q0 -19 10 -32t46 -30l49 -23
q64 -30 83.5 -58t19.5 -73q0 -59 -47.5 -98.5t-142.5 -39.5q-55 0 -99 17q-29 11 -33 41q-5 37 -5 104zM162 -301l-32 30q53 59 53 96q0 22 -20 43q-13 12 -13 34q0 18 14 32t38 14q29 0 44 -19t15 -52q0 -88 -99 -178z" />
    <glyph glyph-name="uni021A" unicode="&#x21a;" horiz-adv-x="596" 
d="M451 -1q-70 2 -126 2q-103 0 -181 -2v48q77 5 86 24q5 9 5 60v454q-101 -2 -119 -14q-13 -8 -23 -33.5t-25 -86.5l-45 3q2 91 8 161q2 28 30 28h478q16 0 21.5 -6t7.5 -23q5 -45 5 -158l-47 -2q-19 94 -36 109q-22 19 -133 22v-453q0 -55 5 -63q9 -16 89 -22v-48z
M269 -301l-32 30q53 59 53 96q0 22 -20 43q-13 12 -13 34q0 18 14 32t38 14q29 0 44 -19t15 -52q0 -88 -99 -178z" />
    <glyph glyph-name="uni021B" unicode="&#x21b;" horiz-adv-x="308" 
d="M304 23q-60 -30 -119 -30q-46 0 -78 28t-32 92q0 35 1.5 118.5t1.5 116.5q-38 2 -74 7v47q8 3 22.5 6.5t25 6.5t15.5 6q14 7 22 31q3 10 9 28.5t11.5 33.5t10.5 28h68v-128q56 0 111 -4v-55q-15 -2 -112 -6q0 -4 -0.5 -84t-0.5 -81q0 -56 2 -76q3 -23 12 -33t30 -10
q33 0 59 10zM135 -301l-32 30q53 59 53 96q0 22 -20 43q-13 12 -13 34q0 18 14 32t38 14q29 0 44 -19t15 -52q0 -88 -99 -178z" />
    <glyph glyph-name="circumflex" unicode="&#x2c6;" horiz-adv-x="280" 
d="M277 505l-34 -26l-104 103l-104 -103l-32 25l103 151q15 22 35 22q21 0 35 -21z" />
    <glyph glyph-name="caron" unicode="&#x2c7;" horiz-adv-x="280" 
d="M3 649l32 27l105 -104l103 104l34 -26l-103 -150q-13 -22 -36 -22q-20 0 -34 21z" />
    <glyph glyph-name="breve" unicode="&#x2d8;" horiz-adv-x="280" 
d="M227 651l42 -3q-1 -72 -36.5 -112.5t-94.5 -40.5q-127 0 -128 152l42 4q5 -36 27.5 -57.5t59.5 -21.5q73 0 88 79z" />
    <glyph glyph-name="dotaccent" unicode="&#x2d9;" horiz-adv-x="280" 
d="M141 527q-24 0 -39.5 16.5t-15.5 43.5q0 25 15.5 41.5t41.5 16.5q24 0 39 -17t15 -41q0 -25 -15.5 -42.5t-40.5 -17.5z" />
    <glyph glyph-name="ring" unicode="&#x2da;" horiz-adv-x="280" 
d="M230 585q0 -39 -26 -65t-63 -26q-38 0 -64 25t-26 64t26.5 65t64.5 26q39 0 63.5 -24.5t24.5 -64.5zM184 585q0 24 -12.5 36.5t-30.5 12.5q-19 0 -32 -13t-13 -36q0 -22 12.5 -35.5t32.5 -13.5q19 0 31 13t12 36z" />
    <glyph glyph-name="ogonek" unicode="&#x2db;" horiz-adv-x="280" 
d="M144 3h49q-83 -93 -83 -146q0 -50 49 -50q32 0 65 14l16 -41q-52 -37 -109 -37q-45 0 -69 27t-24 66q0 40 25 77.5t81 89.5z" />
    <glyph glyph-name="tilde" unicode="&#x2dc;" horiz-adv-x="280" 
d="M30 513l-34 13q9 45 32 78t55 33q21 0 53 -15l25 -11q26 -13 45 -13q12 0 21 10.5t23 36.5l34 -13q-9 -51 -29 -81t-46 -30q-20 0 -65 18l-23 9q-28 11 -42 11q-15 0 -25.5 -10t-23.5 -36z" />
    <glyph glyph-name="hungarumlaut" unicode="&#x2dd;" horiz-adv-x="283" 
d="M26 495l-31 23l69 133q15 28 25.5 37t24.5 9q15 0 27 -10t12 -26q0 -25 -29 -57zM163 495l-32 22l70 133q14 28 25 37.5t26 9.5q14 0 26 -10t12 -26q0 -25 -29 -57z" />
    <glyph glyph-name="uni0394" unicode="&#x394;" horiz-adv-x="637" 
d="M616 0h-597l-10 22l269 622h78l272 -623zM459 101l-166 401l-173 -401h339z" />
    <glyph glyph-name="uni03A9" unicode="&#x3a9;" horiz-adv-x="727" 
d="M335 0h-246q-21 0 -28 8.5t-9 26.5q-4 56 -4 171l37 2q21 -80 35 -94t42.5 -18.5t96.5 -4.5v9q-76 32 -127 103t-51 162q0 138 81 215t206 77q124 0 198.5 -72t74.5 -212q0 -93 -47 -161.5t-123 -111.5v-9q64 0 92 4.5t42 17.5q16 15 37 95l37 -2q0 -91 -6 -171
q-1 -18 -7.5 -26.5t-28.5 -8.5h-243v113q61 41 88.5 97.5t27.5 153.5q0 123 -41 176t-105 53q-29 0 -54.5 -10.5t-49 -35t-37 -72t-13.5 -113.5q0 -100 31 -159.5t94 -90.5v-112z" />
    <glyph glyph-name="uni03BC" unicode="&#x3bc;" horiz-adv-x="568" 
d="M546 28q-86 -43 -123 -43q-50 0 -57 60q-43 -49 -94 -49q-44 0 -69 22q2 -37 5 -84.5t5 -76.5t2 -37q0 -26 -16 -40t-43 -14q-60 0 -60 59v464q0 52 -11 63q-17 15 -57 21v41q93 20 152 20q32 0 32 -33q0 -13 -2.5 -90.5t-2.5 -112.5q0 -74 17 -101.5t68 -27.5
q34 0 68 18v204q0 50 -11 61q-12 14 -63 21v41q94 20 153 20q36 0 36 -37q0 -8 -3 -92.5t-3 -144.5q0 -49 6 -67q8 -21 31 -21q20 0 40 3v-47z" />
    <glyph glyph-name="pi" unicode="&#x3c0;" horiz-adv-x="559" 
d="M280 -1q-76 2 -123 2q-49 0 -125 -2v49q54 7 62 19q9 8 9 47v199q0 42 -9 51q-4 8 -62 14v48q76 -2 252 -2q161 0 239 2v-48q-61 -6 -68 -15q-6 -8 -6 -47v-171q0 -49 6 -65q11 -24 34 -24q24 0 39 4l11 -45q-47 -20 -100 -20q-56 0 -77 34q-17 31 -17 105v206
q0 23 -10 28q-11 4 -58 4q-50 0 -64 -4q-10 -3 -10 -27v-224q0 -43 7 -51q9 -13 70 -18v-49z" />
    <glyph glyph-name="Wgrave" unicode="&#x1e80;" horiz-adv-x="907" 
d="M310 -4h-83l-125 504q-19 76 -35 85q-17 7 -55 11v48q120 -2 149 -2q118 0 156 2v-48q-60 -4 -77.5 -12t-17.5 -27q0 -14 14 -75l69 -300l140 460h74l139 -462l69 288q14 58 14 84q0 20 -17.5 29t-75.5 15v48q94 -2 129 -2q48 0 118 2v-48q-49 -8 -61 -20q-2 -2 -4 -5
l-4 -6t-3.5 -7.5t-3 -8t-3.5 -10t-3.5 -11t-4 -14t-4 -15.5t-5 -18.5t-5.5 -21.5l-121 -463h-83l-137 452zM546 713l-28 -34l-128 80q-42 25 -42 50q0 20 12 33.5t30 13.5q20 0 52 -33z" />
    <glyph glyph-name="wgrave" unicode="&#x1e81;" horiz-adv-x="721" 
d="M251 -4h-77l-94 304q-16 52 -26 63q-10 12 -46 17v46q42 -2 121 -2t126 2v-46q-40 -3 -46 -4q-22 -3 -22 -20q0 -14 14 -65l43 -155l107 289h68l108 -290l40 140q19 68 19 82q0 13 -14 17q-9 2 -55 6v46q37 -2 108 -2q53 0 88 2v-46q-30 -4 -42 -12q-13 -11 -37 -82
l-95 -290h-75l-102 287zM448 520l-35 -26l-109 106q-32 35 -32 54q0 18 13.5 31t30.5 13q16 0 27.5 -8.5t27.5 -37.5z" />
    <glyph glyph-name="Wacute" unicode="&#x1e82;" horiz-adv-x="907" 
d="M310 -4h-83l-125 504q-19 76 -35 85q-17 7 -55 11v48q120 -2 149 -2q118 0 156 2v-48q-60 -4 -77.5 -12t-17.5 -27q0 -14 14 -75l69 -300l140 460h74l139 -462l69 288q14 58 14 84q0 20 -17.5 29t-75.5 15v48q94 -2 129 -2q48 0 118 2v-48q-49 -8 -61 -20q-2 -2 -4 -5
l-4 -6t-3.5 -7.5t-3 -8t-3.5 -10t-3.5 -11t-4 -14t-4 -15.5t-5 -18.5t-5.5 -21.5l-121 -463h-83l-137 452zM460 679l-28 34l102 109q32 35 54 35q18 0 30.5 -13.5t12.5 -33.5q0 -26 -41 -51z" />
    <glyph glyph-name="wacute" unicode="&#x1e83;" horiz-adv-x="721" 
d="M251 -4h-77l-94 304q-16 52 -26 63q-10 12 -46 17v46q42 -2 121 -2t126 2v-46q-40 -3 -46 -4q-22 -3 -22 -20q0 -14 14 -65l43 -155l107 289h68l108 -290l40 140q19 68 19 82q0 13 -14 17q-9 2 -55 6v46q37 -2 108 -2q53 0 88 2v-46q-30 -4 -42 -12q-13 -11 -37 -82
l-95 -290h-75l-102 287zM367 494l-34 26l77 132q17 28 28.5 37.5t27.5 9.5q18 0 30.5 -12t12.5 -30q0 -25 -33 -57z" />
    <glyph glyph-name="Wdieresis" unicode="&#x1e84;" horiz-adv-x="907" 
d="M310 -4h-83l-125 504q-19 76 -35 85q-17 7 -55 11v48q120 -2 149 -2q118 0 156 2v-48q-60 -4 -77.5 -12t-17.5 -27q0 -14 14 -75l69 -300l140 460h74l139 -462l69 288q14 58 14 84q0 20 -17.5 29t-75.5 15v48q94 -2 129 -2q48 0 118 2v-48q-49 -8 -61 -20q-2 -2 -4 -5
l-4 -6t-3.5 -7.5t-3 -8t-3.5 -10t-3.5 -11t-4 -14t-4 -15.5t-5 -18.5t-5.5 -21.5l-121 -463h-83l-137 452zM403 698q-24 0 -39.5 16.5t-15.5 43.5q0 25 15.5 41.5t41.5 16.5q24 0 39 -17t15 -41q0 -25 -15.5 -42.5t-40.5 -17.5zM584 698q-24 0 -39.5 16.5t-15.5 43.5
q0 25 15.5 41.5t41.5 16.5q24 0 39 -17t15 -41q0 -25 -15.5 -42.5t-40.5 -17.5z" />
    <glyph glyph-name="wdieresis" unicode="&#x1e85;" horiz-adv-x="721" 
d="M251 -4h-77l-94 304q-16 52 -26 63q-10 12 -46 17v46q42 -2 121 -2t126 2v-46q-40 -3 -46 -4q-22 -3 -22 -20q0 -14 14 -65l43 -155l107 289h68l108 -290l40 140q19 68 19 82q0 13 -14 17q-9 2 -55 6v46q37 -2 108 -2q53 0 88 2v-46q-30 -4 -42 -12q-13 -11 -37 -82
l-95 -290h-75l-102 287zM304 527q-24 0 -39.5 16.5t-15.5 43.5q0 25 15.5 41.5t41.5 16.5q24 0 39 -17t15 -41q0 -25 -15.5 -42.5t-40.5 -17.5zM467 527q-24 0 -39.5 16.5t-15.5 43.5q0 25 15.5 41.5t41.5 16.5q24 0 39 -17t15 -41q0 -25 -15.5 -42.5t-40.5 -17.5z" />
    <glyph glyph-name="Ygrave" unicode="&#x1ef2;" horiz-adv-x="612" 
d="M456 -1q-104 2 -148 2q-52 0 -150 -2v48q73 5 83 20q6 8 6 47v156l-142 247q-29 51 -46 64q-16 12 -55 15v48q108 -2 136 -2q52 0 156 2v-48q-32 -2 -48.5 -6t-20.5 -8t-4 -11q0 -18 42 -97l74 -134l78 141q38 71 38 92q0 13 -15 17.5t-58 5.5v48q86 -2 123 -2
q23 0 103 2v-48q-37 -7 -48 -16q-19 -15 -63 -88l-133 -220v-158q0 -34 3 -45q3 -10 20.5 -14.5t68.5 -7.5v-48zM397 713l-28 -34l-128 80q-42 25 -42 50q0 20 12 33.5t30 13.5q21 0 52 -33z" />
    <glyph glyph-name="ygrave" unicode="&#x1ef3;" horiz-adv-x="499" 
d="M49 -221q50 31 94 79.5t89 138.5h-28l-131 315q-21 50 -32 57t-37 11v46q82 -2 116 -2q41 0 123 2v-46q-19 0 -39 -4t-20 -22q0 -17 15 -55l80 -205l69 196q17 48 17 65q0 16 -12 19q-13 4 -47 6v46q60 -2 104 -2q19 0 83 2v-46q-30 -3 -42 -14q-14 -14 -35 -71
q-101 -278 -171 -412q-40 -79 -77 -121q-28 -34 -57 -34q-37 0 -62 51zM311 520l-35 -26l-109 106q-32 35 -32 54q0 18 13.5 31t30.5 13q16 0 27.5 -8.5t27.5 -37.5z" />
    <glyph glyph-name="endash" unicode="&#x2013;" horiz-adv-x="577" 
d="M48 277h479v-81h-479v81z" />
    <glyph glyph-name="emdash" unicode="&#x2014;" horiz-adv-x="804" 
d="M48 277h707v-81h-707v81z" />
    <glyph glyph-name="quoteleft" unicode="&#x2018;" horiz-adv-x="183" 
d="M132 685l35 -34q-37 -41 -51 -66t-14 -49q0 -15 5.5 -24.5t21.5 -27.5q16 -20 16 -40q0 -22 -17 -38.5t-44 -16.5q-32 0 -50 23.5t-18 62.5q0 100 116 210z" />
    <glyph glyph-name="quoteright" unicode="&#x2019;" horiz-adv-x="185" 
d="M44 383l-36 34q37 43 51 67t14 50q0 25 -26 51q-17 14 -17 39q0 22 16.5 38.5t43.5 16.5q33 0 51.5 -23.5t18.5 -61.5q0 -101 -116 -211z" />
    <glyph glyph-name="quotesinglbase" unicode="&#x201a;" horiz-adv-x="181" 
d="M50 -189l-34 34q37 43 51.5 67t14.5 48q0 10 -4 19.5t-8.5 15t-16.5 17.5q-15 15 -15 40q0 22 16.5 38.5t41.5 16.5q34 0 52.5 -23.5t18.5 -62.5q0 -99 -117 -210z" />
    <glyph glyph-name="quotedblleft" unicode="&#x201c;" horiz-adv-x="356" 
d="M308 685l34 -34q-37 -43 -51.5 -67t-14.5 -48q0 -10 4 -19.5t8.5 -15t16.5 -17.5q15 -15 15 -40q0 -22 -16.5 -38.5t-41.5 -16.5q-34 0 -52.5 23.5t-18.5 62.5q0 99 117 210zM132 685l35 -34q-37 -41 -51 -66t-14 -49q0 -15 5.5 -24.5t21.5 -27.5q16 -20 16 -40
q0 -22 -17 -38.5t-44 -16.5q-32 0 -50 23.5t-18 62.5q0 100 116 210z" />
    <glyph glyph-name="quotedblright" unicode="&#x201d;" horiz-adv-x="356" 
d="M50 383l-34 34q37 43 51.5 67t14.5 48q0 10 -4 19.5t-8.5 15t-16.5 17.5q-15 15 -15 40q0 22 16.5 38.5t41.5 16.5q34 0 52.5 -23.5t18.5 -62.5q0 -99 -117 -210zM226 383l-35 34q37 41 51 66t14 49q0 15 -5.5 25t-21.5 27q-16 20 -16 40q0 22 17 38.5t44 16.5
q32 0 50 -23.5t18 -62.5q0 -100 -116 -210z" />
    <glyph glyph-name="quotedblbase" unicode="&#x201e;" horiz-adv-x="356" 
d="M50 -189l-34 34q37 43 51.5 67t14.5 48q0 10 -4 19.5t-8.5 15t-16.5 17.5q-15 15 -15 40q0 22 16.5 38.5t41.5 16.5q34 0 52.5 -23.5t18.5 -62.5q0 -99 -117 -210zM226 -189l-35 34q37 41 51 66t14 49q0 15 -5.5 25t-21.5 27q-16 20 -16 40q0 22 17 38.5t44 16.5
q32 0 50 -23.5t18 -62.5q0 -100 -116 -210z" />
    <glyph glyph-name="dagger" unicode="&#x2020;" horiz-adv-x="359" 
d="M237 -76h-84q0 308 2 471q-46 -2 -138 -2v86q92 0 138 -2q-2 66 -2 185h84q0 -119 -2 -185q47 2 142 2v-86q-44 0 -142 2q2 -163 2 -471z" />
    <glyph glyph-name="daggerdbl" unicode="&#x2021;" horiz-adv-x="393" 
d="M237 -76h-84q0 163 2 208q-46 -2 -138 -2v84q92 0 138 -2q-1 25 -1 87q0 61 1 96q-46 -2 -138 -2v86q92 0 138 -2q-2 59 -2 185h84q0 -126 -2 -185q47 2 142 2v-86q-94 0 -142 2q1 -35 1 -94q0 -64 -1 -89q47 2 142 2v-84q-93 0 -142 2q2 -45 2 -208z" />
    <glyph glyph-name="bullet" unicode="&#x2022;" 
d="M317 303q0 -68 -39.5 -109t-101.5 -41q-63 0 -103.5 42t-40.5 104t40 103t102 41q65 0 104 -40t39 -100z" />
    <glyph glyph-name="ellipsis" unicode="&#x2026;" horiz-adv-x="829" 
d="M209 64q0 -34 -20 -53.5t-51 -19.5q-30 0 -50 20t-20 51q0 30 20 50t49 20q31 0 51.5 -19t20.5 -49zM485 64q0 -34 -20 -53.5t-51 -19.5t-51 20t-20 51q0 30 20 50t50 20t51 -19t21 -49zM761 64q0 -34 -19.5 -53.5t-50.5 -19.5t-51 20t-20 51q0 30 20 50t50 20t50.5 -19
t20.5 -49z" />
    <glyph glyph-name="perthousand" unicode="&#x2030;" horiz-adv-x="1133" 
d="M327 446q0 -103 -41 -158.5t-111 -55.5q-71 0 -111.5 51.5t-40.5 141.5q0 97 44 154t113 57q68 0 107.5 -51.5t39.5 -138.5zM245 431q0 91 -17.5 125.5t-50.5 34.5q-69 0 -69 -155q0 -88 17.5 -123.5t52.5 -35.5q33 0 50 34t17 120zM756 205q0 -103 -41 -158.5
t-111 -55.5q-71 0 -111 51.5t-40 141.5q0 97 44 154t112 57t107.5 -51.5t39.5 -138.5zM674 190q0 90 -17.5 125t-50.5 35q-69 0 -69 -156q0 -87 18 -123t52 -36q33 0 50 34.5t17 120.5zM496 634h54l-259 -635h-56zM1110 205q0 -103 -41.5 -158.5t-111.5 -55.5t-110.5 51.5
t-40.5 141.5q0 97 43.5 154t113.5 57q67 0 107 -52t40 -138zM1027 190q0 90 -17 125t-50 35q-69 0 -69 -156q0 -87 17.5 -123t51.5 -36q33 0 50 34.5t17 120.5z" />
    <glyph glyph-name="guilsinglleft" unicode="&#x2039;" horiz-adv-x="252" 
d="M231 52l-30 -28l-166 162q-10 9 -10 27t12 29l165 157l30 -27l-108 -157z" />
    <glyph glyph-name="guilsinglright" unicode="&#x203a;" horiz-adv-x="252" 
d="M21 372l30 27l165 -162q11 -11 11 -27q0 -17 -13 -29l-164 -157l-29 28l107 156z" />
    <glyph glyph-name="fraction" unicode="&#x2044;" horiz-adv-x="80" 
d="M142 633h55l-259 -633h-55z" />
    <glyph glyph-name="zero.superior" unicode="&#x2070;" 
d="M329 605q0 -103 -41 -158.5t-111 -55.5q-72 0 -112.5 51.5t-40.5 141.5q0 97 44 154t114 57q68 0 107.5 -51.5t39.5 -138.5zM247 590q0 93 -17.5 128t-50.5 35q-71 0 -71 -158q0 -89 18.5 -125.5t53.5 -36.5q67 0 67 157z" />
    <glyph glyph-name="four.superior" unicode="&#x2074;" 
d="M272 549h58v-62h-57v-105h-77v105h-178v42l186 265h69q-1 -28 -1 -109v-136zM87 549h109q0 125 2 163z" />
    <glyph glyph-name="five.superior" unicode="&#x2075;" 
d="M121 664q94 -5 136 -37.5t42 -91.5q0 -51 -40.5 -89t-89.5 -54.5t-92 -16.5q-37 0 -38 33q0 16 1 22q99 0 138 19.5t39 70.5q0 36 -34.5 57t-120.5 26l46 190h196l-13 -72h-156z" />
    <glyph glyph-name="six.superior" unicode="&#x2076;" 
d="M120 615q13 16 38.5 26.5t50.5 10.5q62 0 89 -35t27 -87q0 -59 -38.5 -99t-108.5 -40q-68 0 -105.5 45.5t-37.5 110.5q0 53 17 97t42.5 73t61 51.5t65 34t62.5 20.5l14 -35q-80 -33 -119 -70.5t-58 -102.5zM247 517q0 90 -64 90q-20 0 -38.5 -11.5t-28.5 -27.5v-10
q0 -67 19.5 -98t49.5 -31q62 0 62 88z" />
    <glyph glyph-name="seven.superior" unicode="&#x2077;" 
d="M250 729h-214v62h273l6 -14l-187 -406l-49 17z" />
    <glyph glyph-name="eight.superior" unicode="&#x2078;" 
d="M112 591q-63 42 -63 106q0 42 34.5 72.5t96.5 30.5q56 0 85.5 -24t29.5 -66q0 -54 -72 -90q50 -27 68.5 -52.5t18.5 -63.5q0 -46 -40.5 -79.5t-101.5 -33.5t-98.5 28t-37.5 74q0 63 80 98zM136 574q-43 -30 -43 -78q0 -29 20.5 -47t53.5 -18q27 0 45.5 15.5t18.5 38.5
q0 29 -19 45.5t-76 43.5zM195 636q44 31 44 74q0 24 -15.5 39t-44.5 15q-27 0 -42 -14.5t-15 -36.5q0 -24 14.5 -40.5t58.5 -36.5z" />
    <glyph glyph-name="nine.superior" unicode="&#x2079;" 
d="M231 573q-32 -37 -89 -37q-62 0 -89 36t-27 88q0 59 39 99t108 40q68 0 105.5 -46t37.5 -110q0 -208 -248 -277l-14 36q80 31 119.5 68.5t57.5 102.5zM103 673q0 -89 66 -89q20 0 38.5 11t26.5 28v9q0 65 -19 96t-49 31q-63 0 -63 -86z" />
    <glyph glyph-name="parenleft.superior" unicode="&#x207d;" horiz-adv-x="222" 
d="M221 317l-22 -26q-75 52 -117.5 130t-42.5 163t39 162.5t119 135.5l23 -27q-58 -68 -83.5 -126.5t-25.5 -144.5q0 -137 110 -267z" />
    <glyph glyph-name="parenright.superior" unicode="&#x207e;" horiz-adv-x="222" 
d="M-6 855l23 27q75 -53 116.5 -131t41.5 -163q0 -83 -39 -161t-117 -136l-24 27q58 66 83.5 125t25.5 145q0 139 -110 267z" />
    <glyph glyph-name="zero.inferior" unicode="&#x2080;" 
d="M329 62q0 -103 -41 -158.5t-111 -55.5q-72 0 -112.5 51.5t-40.5 141.5q0 97 44 154t114 57q68 0 107.5 -51.5t39.5 -138.5zM247 47q0 93 -17.5 128t-50.5 35q-71 0 -71 -158q0 -88 18.5 -125t53.5 -37q67 0 67 157z" />
    <glyph glyph-name="one.inferior" unicode="&#x2081;" 
d="M294 -144q-56 2 -97 2q-52 0 -108 -2v38q44 3 56 13q6 6 6 36v143q0 42 -3 64q-2 18 -16 18q-16 0 -42 -6l-10 31q70 29 141 63l15 -9q-3 -67 -3 -153v-150q0 -29 4 -36q9 -12 57 -14v-38z" />
    <glyph glyph-name="two.inferior" unicode="&#x2082;" 
d="M307 -143h-280v51q111 76 153 125t42 96q0 31 -17 49t-46 18q-48 0 -98 -45l-24 33q71 68 146 68q121 0 121 -116q0 -57 -42.5 -103t-142.5 -106q52 2 188 2v-72z" />
    <glyph glyph-name="three.inferior" unicode="&#x2083;" 
d="M197 74q58 -1 81.5 -24t23.5 -64q0 -37 -26.5 -68t-65 -48.5t-75.5 -27.5t-63 -10q-25 0 -31 27q-2 8 -2 27q95 0 139 19.5t44 71.5q0 31 -20.5 47t-54.5 16q-24 0 -49 -5l-5 41q31 4 51 10q59 17 59 72q0 41 -47 41q-44 0 -87 -35l-23 38q68 49 129 49q53 0 78 -22
t25 -57q0 -68 -81 -98z" />
    <glyph glyph-name="four.inferior" unicode="&#x2084;" 
d="M272 6h58v-62h-57v-105h-77v105h-178v42l186 265h69q-1 -28 -1 -109v-136zM87 6h109q0 125 2 163z" />
    <glyph glyph-name="five.inferior" unicode="&#x2085;" 
d="M121 121q94 -5 136 -37.5t42 -91.5q0 -51 -40.5 -89t-89.5 -54.5t-92 -16.5q-37 0 -38 33q0 16 1 22q99 0 138 19.5t39 70.5q0 36 -34.5 57t-120.5 26l46 190h196l-13 -72h-156z" />
    <glyph glyph-name="six.inferior" unicode="&#x2086;" 
d="M120 72q13 16 38.5 26.5t50.5 10.5q62 0 89 -35t27 -87q0 -59 -38.5 -99t-108.5 -40q-68 0 -105.5 45.5t-37.5 110.5q0 53 17 97t42.5 73t61 51.5t65 34t62.5 20.5l14 -35q-80 -33 -119 -70.5t-58 -102.5zM247 -26q0 90 -64 90q-20 0 -38.5 -11.5t-28.5 -27.5v-10
q0 -67 19.5 -98t49.5 -31q62 0 62 88z" />
    <glyph glyph-name="seven.inferior" unicode="&#x2087;" 
d="M250 186h-214v62h273l6 -14l-187 -406l-49 17z" />
    <glyph glyph-name="eight.inferior" unicode="&#x2088;" 
d="M112 48q-63 42 -63 106q0 42 34.5 72.5t96.5 30.5q56 0 85.5 -24t29.5 -66q0 -54 -72 -90q50 -27 68.5 -52.5t18.5 -63.5q0 -46 -40.5 -79.5t-101.5 -33.5t-98.5 28t-37.5 74q0 63 80 98zM136 31q-43 -30 -43 -78q0 -29 20.5 -47t53.5 -18q27 0 45.5 15.5t18.5 38.5
q0 29 -19 45.5t-76 43.5zM195 93q44 31 44 74q0 24 -15.5 39t-44.5 15q-27 0 -42 -14.5t-15 -36.5q0 -24 14.5 -40.5t58.5 -36.5z" />
    <glyph glyph-name="nine.inferior" unicode="&#x2089;" 
d="M231 30q-32 -37 -89 -37q-62 0 -89 36t-27 88q0 59 39 99t108 40q68 0 105.5 -46t37.5 -110q0 -208 -248 -277l-14 36q80 31 119.5 68.5t57.5 102.5zM103 130q0 -89 66 -89q20 0 38.5 11t26.5 28v9q0 65 -19 96t-49 31q-63 0 -63 -86z" />
    <glyph glyph-name="parenleft.inferior" unicode="&#x208d;" horiz-adv-x="222" 
d="M221 -226l-22 -26q-75 52 -117.5 130t-42.5 163t39 162.5t119 135.5l23 -27q-58 -68 -83.5 -126.5t-25.5 -144.5q0 -137 110 -267z" />
    <glyph glyph-name="parenright.inferior" unicode="&#x208e;" horiz-adv-x="222" 
d="M-6 312l23 27q75 -53 116.5 -131t41.5 -163q0 -83 -39 -161t-117 -136l-24 27q58 66 83.5 125t25.5 145q0 139 -110 267z" />
    <glyph glyph-name="Euro" unicode="&#x20ac;" horiz-adv-x="618" 
d="M459 228h-192q13 -81 53.5 -120.5t93.5 -39.5q83 0 154 47l29 -44q-106 -83 -210 -83t-165.5 64.5t-74.5 175.5h-68v53h65q0 42 2 63h-67v52h74q22 111 92 174.5t184 63.5q75 0 127 -26q25 -12 25 -32q0 -29 -30 -75q-65 67 -160 67q-106 0 -124 -172h192v-52h-196
q-1 -19 -1 -63h197v-53z" />
    <glyph glyph-name="afii61289" unicode="&#x2113;" horiz-adv-x="414" 
d="M405 39q-84 -51 -155 -51q-72 0 -112 46.5t-49 129.5q-42 -24 -52 -29l-23 54q4 3 30.5 18t40.5 24q-3 63 -3 97q0 157 43 230q20 34 55.5 56t81.5 22q63 0 94 -36t31 -97q0 -41 -12.5 -79.5t-29.5 -65t-47.5 -56t-51.5 -46t-57 -42.5q4 -153 90 -153q44 0 100 36z
M187 287q57 45 90 100.5t33 112.5q0 69 -50 69q-36 0 -53 -40q-21 -50 -22 -179q0 -40 2 -63z" />
    <glyph glyph-name="trademark" unicode="&#x2122;" horiz-adv-x="694" 
d="M225 359q-40 2 -75 2q-20 0 -78 -2v26q37 4 44 11q3 3 3 29v187q-38 0 -49 -5q-2 -1 -3 -2t-2.5 -3t-2.5 -3.5t-2.5 -5t-2 -5.5t-2 -7t-2.5 -8t-3 -9.5t-3 -10.5l-25 2q3 62 4 68q2 20 16 20h218q20 0 20 -21q2 -38 2 -67h-24q-10 43 -17 49q-10 8 -64 8v-187
q0 -24 4 -29q7 -7 44 -11v-26zM421 360q-20 1 -65 1q-41 0 -64 -1v25q33 4 39 8t7 27q9 152 9 169q0 15 -4 18q-6 6 -37 9v27q19 -1 61 -1q40 0 46 1q20 -51 74 -189q32 79 74 189q11 -1 50 -1q40 0 56 1v-27q-34 -2 -39 -7t-5 -22q0 -20 4 -161q1 -27 5 -31q7 -7 39 -10
v-25q-12 0 -39 0.5t-32 0.5t-32 -0.5t-42 -0.5v25q35 4 39 9q3 3 3 21v27.5t-0.5 59.5t-0.5 66q-15 -43 -83 -208h-22q-66 165 -82 211q-1 -34 -2.5 -74t-2.5 -61t-1 -25q0 -15 6 -19q6 -3 41 -7v-25z" />
    <glyph glyph-name="Omega" unicode="&#x2126;" horiz-adv-x="727" 
d="M335 0h-246q-21 0 -28.5 9t-8.5 26q-4 56 -4 171l37 2q22 -85 35 -98q14 -14 42.5 -18.5t96.5 -4.5v10q-76 32 -127 104.5t-51 163.5q0 138 81 215t206 77q124 0 198.5 -72t74.5 -212q0 -93 -47 -163.5t-123 -112.5v-10q64 0 92 4.5t42 17.5q15 14 37 99l37 -2
q0 -91 -6 -171q-1 -18 -7.5 -26.5t-28.5 -8.5h-243v110q61 40 88.5 98t27.5 156q0 123 -41 177t-105 54t-109 -53.5t-45 -179.5q0 -191 125 -253v-109z" />
    <glyph glyph-name="estimated" unicode="&#x212e;" horiz-adv-x="774" 
d="M733 312h-558q-5 0 -5 -5v-183q0 -10 8 -20q86 -97 211 -97q136 0 223 108h52q-48 -60 -120.5 -95t-155.5 -35q-142 0 -243.5 98.5t-101.5 237.5q0 138 101 236t244 98t244 -98t101 -236v-9zM610 336v184q0 10 -10 22q-89 92 -211 92q-124 0 -210 -96q-9 -9 -9 -23v-179
q0 -5 5 -5h429q6 0 6 5z" />
    <glyph glyph-name="onethird" unicode="&#x2153;" horiz-adv-x="760" 
d="M482 633h55l-259 -633h-55zM267 240q-56 2 -97 2q-52 0 -108 -2v38q44 3 56 13q6 6 6 36v143q0 42 -3 64q-1 18 -16 18q-16 0 -42 -6l-10 31q9 4 63.5 27.5t77.5 35.5l15 -9q-3 -67 -3 -153v-150q0 -29 4 -36q9 -12 57 -14v-38zM602 217q58 -1 81.5 -24t23.5 -64
q0 -37 -26.5 -68t-65 -48.5t-75.5 -27.5t-63 -10q-25 0 -31 27q-2 8 -2 27q95 0 139 19.5t44 71.5q0 31 -20.5 47t-54.5 16q-24 0 -49 -5l-5 41q31 4 51 10q59 17 59 72q0 41 -47 41q-44 0 -87 -35l-23 38q68 49 129 49q53 0 78 -22t25 -57q0 -68 -81 -98z" />
    <glyph glyph-name="twothirds" unicode="&#x2154;" horiz-adv-x="760" 
d="M520 633h55l-259 -633h-55zM311 241h-280v51q111 76 153 125t42 96q0 31 -17 49t-46 18q-48 0 -98 -45l-24 33q71 68 146 68q121 0 121 -116q0 -57 -42.5 -103t-142.5 -106q52 2 188 2v-72zM636 217q58 -1 81.5 -24t23.5 -64q0 -37 -26.5 -68t-65 -48.5t-75.5 -27.5
t-63 -10q-25 0 -31 27q-2 8 -2 27q95 0 139 19.5t44 71.5q0 31 -20.5 47t-54.5 16q-24 0 -49 -5l-5 41q31 4 51 10q59 17 59 72q0 41 -47 41q-44 0 -87 -35l-23 38q68 49 129 49q53 0 78 -22t25 -57q0 -68 -81 -98z" />
    <glyph glyph-name="oneeighth" unicode="&#x215b;" horiz-adv-x="760" 
d="M481 633h55l-259 -633h-55zM260 240q-56 2 -97 2q-52 0 -108 -2v38q44 3 56 13q6 6 6 36v143q0 42 -3 64q-2 18 -16 18q-16 0 -42 -6l-10 31q9 4 63.5 27.5t77.5 35.5l15 -9q-3 -67 -3 -153v-150q0 -29 4 -36q9 -12 57 -14v-38zM521 191q-63 42 -63 106q0 42 34.5 72.5
t96.5 30.5q56 0 85.5 -24t29.5 -66q0 -54 -72 -90q50 -27 68.5 -52.5t18.5 -63.5q0 -46 -40.5 -79.5t-101.5 -33.5t-98.5 28t-37.5 74q0 63 80 98zM545 174q-43 -30 -43 -78q0 -29 21 -47t53 -18q27 0 45.5 15.5t18.5 38.5q0 29 -19 45.5t-76 43.5zM604 236q44 31 44 74
q0 24 -15.5 39t-44.5 15q-27 0 -42 -14.5t-15 -36.5q0 -24 14.5 -40.5t58.5 -36.5z" />
    <glyph glyph-name="threeeighths" unicode="&#x215c;" horiz-adv-x="760" 
d="M490 633h55l-259 -633h-55zM201 458q58 -1 81.5 -24t23.5 -64q0 -37 -26.5 -68t-65 -48.5t-75.5 -27.5t-63 -10q-25 0 -31 27q-2 8 -2 27q95 0 139 19.5t44 71.5q0 31 -20.5 47t-54.5 16q-24 0 -49 -5l-5 41q31 4 51 10q59 17 59 72q0 41 -47 41q-44 0 -87 -35l-23 38
q68 49 129 49q53 0 78 -22t25 -57q0 -68 -81 -98zM533 191q-63 42 -63 106q0 42 34.5 72.5t96.5 30.5q56 0 85.5 -24t29.5 -66q0 -54 -72 -90q50 -27 68.5 -52.5t18.5 -63.5q0 -46 -40.5 -79.5t-101.5 -33.5t-98.5 28t-37.5 74q0 63 80 98zM557 174q-43 -30 -43 -78
q0 -29 21 -47t53 -18q27 0 45.5 15.5t18.5 38.5q0 29 -19 45.5t-76 43.5zM616 236q44 31 44 74q0 24 -15.5 39t-44.5 15q-27 0 -42 -14.5t-15 -36.5q0 -24 14.5 -40.5t58.5 -36.5z" />
    <glyph glyph-name="fiveeighths" unicode="&#x215d;" horiz-adv-x="760" 
d="M481 633h55l-259 -633h-55zM124 505q94 -5 136 -37.5t42 -91.5q0 -51 -40.5 -89t-89.5 -54.5t-92 -16.5q-37 0 -38 34q0 13 1 21q99 0 138 19.5t39 70.5q0 36 -34.5 57t-120.5 26l46 190h196l-13 -72h-156zM524 191q-63 42 -63 106q0 42 34.5 72.5t96.5 30.5
q56 0 85.5 -24t29.5 -66q0 -54 -72 -90q50 -27 68.5 -52.5t18.5 -63.5q0 -46 -40.5 -79.5t-101.5 -33.5t-98.5 28t-37.5 74q0 63 80 98zM548 174q-43 -30 -43 -78q0 -29 20.5 -47t53.5 -18q27 0 45.5 15.5t18.5 38.5q0 29 -19 45.5t-76 43.5zM607 236q44 31 44 74
q0 24 -15.5 39t-44.5 15q-27 0 -42 -14.5t-15 -36.5q0 -24 14.5 -40.5t58.5 -36.5z" />
    <glyph glyph-name="seveneighths" unicode="&#x215e;" horiz-adv-x="760" 
d="M446 633h55l-259 -633h-55zM254 570h-214v62h273l6 -14l-187 -406l-49 17zM497 191q-63 42 -63 106q0 42 34.5 72.5t96.5 30.5q56 0 85.5 -24t29.5 -66q0 -54 -72 -90q50 -27 68.5 -52.5t18.5 -63.5q0 -46 -40.5 -79.5t-101.5 -33.5t-98.5 28t-37.5 74q0 63 80 98z
M521 174q-43 -30 -43 -78q0 -29 21 -47t53 -18q27 0 45.5 15.5t18.5 38.5q0 29 -19 45.5t-76 43.5zM580 236q44 31 44 74q0 24 -15.5 39t-44.5 15q-27 0 -42 -14.5t-15 -36.5q0 -24 14.5 -40.5t58.5 -36.5z" />
    <glyph glyph-name="partialdiff" unicode="&#x2202;" horiz-adv-x="506" 
d="M154 564l-17 70q54 20 106 20q48 0 84.5 -13.5t67.5 -44.5t47 -89t16 -141q0 -174 -59 -276.5t-180 -102.5q-86 0 -135.5 54t-49.5 140q0 107 56 171t156 64q32 0 60 -10.5t42 -26.5q0 5 0.5 14t0.5 15q0 93 -32 131t-88 38q-39 0 -75 -13zM340 297q-11 27 -34 41.5
t-48 14.5q-51 0 -82.5 -46t-31.5 -128q0 -128 78 -128q64 0 92 83q22 66 26 163z" />
    <glyph glyph-name="Delta" unicode="&#x2206;" horiz-adv-x="637" 
d="M616 0h-597l-10 22l269 622h78l272 -623zM459 101l-166 401l-173 -401h339z" />
    <glyph glyph-name="product" unicode="&#x220f;" horiz-adv-x="771" 
d="M318 -171q-76 2 -146 2q-60 0 -142 -2v50q69 7 77 19q7 10 7 65v554q0 40 -3 51q-3 15 -22 18q-25 5 -59 8v50q70 -2 360 -2q280 0 352 2v-50q-48 -4 -64 -8q-15 -4 -20 -18q-3 -9 -3 -51v-552q0 -57 7 -67q12 -13 76 -19v-50q-80 2 -138 2q-74 0 -150 -2v50q71 5 79 19
q5 9 5 62v553q0 51 -7 61q-5 9 -36 10q-29 1 -100 1q-85 0 -113 -1q-30 -1 -37 -10q-7 -10 -7 -61v-554q0 -51 6 -61q10 -13 78 -19v-50z" />
    <glyph glyph-name="summation" unicode="&#x2211;" horiz-adv-x="593" 
d="M4 -169v49l286 349l-259 367v47h461q27 0 29 -32q4 -43 6 -155l-42 -3q-26 100 -43 112q-16 12 -87 13q-76 2 -161 2l213 -305l-273 -335q88 0 194 2q79 2 110.5 7.5t45.5 19.5q8 9 38 97l41 -2q0 -82 -5 -182q-1 -16 -4 -25.5t-15 -17.5t-34 -8h-501z" />
    <glyph glyph-name="minus" unicode="&#x2212;" horiz-adv-x="583" 
d="M501 257h-418v84h418v-84z" />
    <glyph glyph-name="uni2215" unicode="&#x2215;" horiz-adv-x="80" 
d="M142 633h55l-259 -633h-55z" />
    <glyph glyph-name="uni2219" unicode="&#x2219;" horiz-adv-x="204" 
d="M172 243q0 -34 -20 -53.5t-51 -19.5q-30 0 -50.5 20t-20.5 51q0 30 20.5 50t49.5 20q31 0 51.5 -19t20.5 -49z" />
    <glyph glyph-name="radical" unicode="&#x221a;" horiz-adv-x="617" 
d="M184 234l116 -265l186 676h90l-245 -800h-87l-124 269l-50 -25l-31 68z" />
    <glyph glyph-name="infinity" unicode="&#x221e;" horiz-adv-x="615" 
d="M309 355q36 47 67.5 66.5t69.5 19.5q58 0 94.5 -39.5t36.5 -105.5q0 -63 -38 -106.5t-99 -43.5q-38 0 -69.5 19.5t-65.5 67.5q-33 -44 -65 -65t-71 -21q-62 0 -96 41.5t-34 102.5q0 65 38 108t99 43q40 0 69.5 -20.5t63.5 -66.5zM262 294q-27 43 -45.5 60t-43.5 17
q-31 0 -47.5 -22t-16.5 -53q0 -33 16 -55.5t45 -22.5q25 0 45.5 17t46.5 59zM351 295q29 -44 48 -61t43 -17q29 0 46 22.5t17 54.5t-15.5 53.5t-44.5 21.5q-45 0 -94 -74z" />
    <glyph glyph-name="integral" unicode="&#x222b;" horiz-adv-x="323" 
d="M298 596q-20 10 -48 10q-42 0 -42 -62q0 -25 7 -274t7 -295q0 -69 -34 -103t-94 -34q-52 0 -84 15l17 48q24 -13 54 -13q41 0 41 74q0 45 -7.5 283t-7.5 273q0 58 32 96.5t91 38.5q52 0 82 -12z" />
    <glyph glyph-name="approxequal" unicode="&#x2248;" horiz-adv-x="583" 
d="M112 315l-57 58q67 93 143 93q23 0 44.5 -7.5t67.5 -35.5q49 -28 72 -28q43 0 92 66l54 -58q-68 -93 -143 -93q-37 0 -91 31q-68 39 -92 39q-50 0 -90 -65zM112 133l-57 58q67 93 143 93q23 0 44 -7.5t68 -35.5q49 -28 72 -28q43 0 92 66l54 -57q-68 -94 -143 -94
q-37 0 -91 31q-68 39 -92 39q-51 0 -90 -65z" />
    <glyph glyph-name="notequal" unicode="&#x2260;" horiz-adv-x="565" 
d="M427 550l-55 -123h119v-81h-154l-44 -97h198v-82h-235l-56 -123h-64l56 123h-119v82h156l44 97h-200v81h236l55 123h63z" />
    <glyph glyph-name="lessequal" unicode="&#x2264;" horiz-adv-x="583" 
d="M469 129l-364 181v83l364 181v-93l-281 -130l281 -128v-94zM470 0h-364v82h364v-82z" />
    <glyph glyph-name="greaterequal" unicode="&#x2265;" horiz-adv-x="583" 
d="M113 574l365 -180v-84l-365 -181v91l281 131l-281 128v95zM478 0h-365v82h365v-82z" />
    <glyph glyph-name="lozenge" unicode="&#x25ca;" horiz-adv-x="583" 
d="M332 1h-79l-142 299l142 301h80l137 -300zM382 300l-90 210l-93 -209l93 -210z" />
    <glyph glyph-name="s_t" unicode="&#xfb06;" horiz-adv-x="682" 
d="M677 23q-60 -30 -119 -30q-47 0 -78.5 27.5t-31.5 92.5q0 111 4 234q-32 2 -68 7v48q7 3 29.5 9t33.5 11q17 7 26 28q13 30 13 76q0 56 -28.5 80t-72.5 24q-46 0 -74 -29.5t-28 -75.5q0 -55 33 -97q22 -7 25 -32q5 -34 5 -93l-45 -3q-7 30 -20 54q-16 30 -70 30
q-29 0 -43.5 -13t-14.5 -30q0 -20 10 -33t45 -29l50 -23q64 -29 83.5 -58t19.5 -77q0 -57 -48 -95.5t-142 -38.5q-54 0 -100 17q-28 10 -32 41q-5 29 -5 104l47 3q17 -63 27 -75q22 -31 82 -31q65 0 65 45q0 17 -11 28.5t-44 27.5l-59 28q-49 24 -70 55t-21 79q0 55 47 93.5
t125 38.5q18 0 37 -3q-40 42 -40 104q0 79 54 118.5t123 39.5q72 0 120 -42.5t48 -133.5q0 -60 -4 -110q62 0 111 -4v-55q-14 -2 -112 -6q0 -6 -0.5 -47t-0.5 -79v-38q0 -48 3 -78q3 -23 12.5 -32.5t31.5 -9.5q29 0 57 10z" />
    <glyph glyph-name="Dotlessi" horiz-adv-x="333" 
d="M311 0q-90 2 -140 2q-53 0 -149 -2v47q65 6 73 16q11 13 11 59v399q0 48 -10 57q-12 11 -74 18v48q96 -2 149 -2q50 0 140 2v-48q-67 -9 -76 -19q-9 -13 -9 -53v-405q0 -43 8 -54q10 -11 77 -18v-47z" />
    <glyph glyph-name="Euro.denominator" horiz-adv-x="421" 
d="M305 139h-123q18 -89 94 -89q56 0 101 29l21 -34q-75 -53 -141 -53q-68 0 -110 39.5t-52 107.5h-46v38h43q0 8 0.5 21t0.5 19h-44v37h51q17 67 64 104.5t121 37.5q56 0 84 -16q18 -10 18 -25q0 -20 -20 -49q-44 41 -100 41q-37 0 -57 -21.5t-28 -71.5h123v-37h-127
q-1 -8 -1 -40h128v-38z" />
    <glyph glyph-name="Euro.inferior" horiz-adv-x="421" 
d="M305 -4h-123q18 -89 94 -89q56 0 101 29l21 -34q-75 -53 -141 -53q-68 0 -110 39.5t-52 107.5h-46v38h43q0 8 0.5 21t0.5 19h-44v37h51q17 67 64 104.5t121 37.5q56 0 84 -16q18 -10 18 -25q0 -20 -20 -49q-44 41 -100 41q-37 0 -57 -21.5t-28 -71.5h123v-37h-127
q-1 -8 -1 -40h128v-38z" />
    <glyph glyph-name="Euro.numerator" horiz-adv-x="408" 
d="M305 380h-123q18 -89 94 -89q56 0 101 29l21 -34q-75 -53 -141 -53q-68 0 -110 39.5t-52 107.5h-46v38h43q0 27 1 40h-44v37h51q17 67 64 104.5t121 37.5q56 0 84 -16q18 -10 18 -25q0 -20 -20 -49q-44 41 -100 41q-37 0 -57 -21.5t-28 -71.5h123v-37h-127q0 -1 -0.5 -19
t-0.5 -21h128v-38z" />
    <glyph glyph-name="Euro.oldstyle" horiz-adv-x="616" 
d="M574 62q-105 -74 -201 -74q-99 0 -158 57t-73 156h-65v53h61q0 40 2 56h-63v54h71q19 98 86 154.5t177 56.5q78 0 125 -27q26 -14 26 -36q0 -28 -34 -70q-54 63 -151 63q-104 0 -117 -141h182v-54h-186q-1 -14 -1 -56h187v-53h-182q13 -69 50.5 -102t88.5 -33
q73 0 150 43z" />
    <glyph glyph-name="Euro.superior" horiz-adv-x="421" 
d="M305 539h-123q18 -89 94 -89q56 0 101 29l21 -34q-75 -53 -141 -53q-68 0 -110 39.5t-52 107.5h-46v38h43q0 8 0.5 21t0.5 19h-44v37h51q17 67 64 104.5t121 37.5q56 0 84 -16q18 -10 18 -25q0 -20 -20 -49q-44 41 -100 41q-37 0 -57 -21.5t-28 -71.5h123v-37h-127
q-1 -8 -1 -40h128v-38z" />
    <glyph glyph-name="Kgreenlandic" horiz-adv-x="648" 
d="M620 -26q-111 27 -181 97q-92 90 -198 255q74 73 162 183q32 40 32 62q0 20 -65 25v48q42 -2 141 -2q46 0 116 2v-48q-46 -8 -59 -16q-21 -11 -52 -47q0 -1 -151 -165q100 -144 157.5 -217.5t121.5 -139.5zM310 0q-44 1 -139 1q-101 0 -149 -1v47q63 6 73 16q11 11 11 59
v399q0 48 -10 57q-11 9 -74 18v48q96 -2 149 -2q51 0 139 2v-48q-67 -9 -75 -19q-8 -9 -8 -53v-405q0 -41 9 -54q9 -12 74 -18v-47z" />
    <glyph glyph-name="S_S" horiz-adv-x="1005" 
d="M588 197q20 -92 43 -113q40 -35 105 -35q52 0 81 23.5t29 59.5q0 38 -18.5 60.5t-71.5 49.5l-57 31q-84 45 -115.5 90t-31.5 111q0 82 64 132t169 51q76 0 120 -16q22 -9 27 -36q8 -38 8 -143l-48 -2q-14 70 -28 95q-22 40 -99 40q-47 0 -76 -22.5t-29 -64.5
q0 -30 18 -53.5t60 -47.5l59 -35q93 -56 126 -96.5t33 -105.5q0 -82 -61 -133t-165 -51q-85 0 -149 24q-19 7 -27 18t-10 34q-6 49 -6 132zM85 197q20 -92 43 -113q40 -35 105 -35q52 0 81 23.5t29 59.5q0 38 -18.5 60.5t-71.5 49.5l-57 31q-84 45 -115.5 90t-31.5 111
q0 82 64 132t169 51q76 0 120 -16q22 -9 27 -36q8 -38 8 -143l-48 -2q-14 70 -28 95q-22 40 -99 40q-47 0 -76 -22.5t-29 -64.5q0 -30 18 -53.5t60 -47.5l59 -35q93 -56 126 -96.5t33 -105.5q0 -82 -61 -133t-165 -51q-85 0 -149 24q-19 7 -27 18t-10 34q-6 50 -6 132z" />
    <glyph glyph-name="a.sc" horiz-adv-x="522" 
d="M220 -1q-72 2 -104 2q-47 0 -111 -2v46q42 5 52 15q13 12 37 72l132 330h81l126 -332q25 -65 32 -72q9 -9 52 -13v-46q-66 2 -119 2q-55 0 -133 -2v46q40 4 53 10.5t13 19.5q0 11 -15 56l-7 19h-139l-7 -19q-15 -42 -15 -58q0 -13 14 -18.5t58 -9.5v-46zM186 208h104
q-35 92 -52 143q-11 -36 -52 -143z" />
    <glyph glyph-name="aacute.sc" horiz-adv-x="522" 
d="M220 -1q-72 2 -104 2q-47 0 -111 -2v46q42 5 52 15q13 12 37 72l132 330h81l126 -332q25 -65 32 -72q9 -9 52 -13v-46q-66 2 -119 2q-55 0 -133 -2v46q40 4 53 10.5t13 19.5q0 11 -15 56l-7 19h-139l-7 -19q-15 -42 -15 -58q0 -13 14 -18.5t58 -9.5v-46zM186 208h104
q-35 92 -52 143q-11 -36 -52 -143zM241 519l-34 27l77 132q17 28 28 37.5t26 9.5q18 0 31 -12.5t13 -30.5q0 -25 -32 -56z" />
    <glyph glyph-name="abreve.sc" horiz-adv-x="522" 
d="M220 -1q-72 2 -104 2q-47 0 -111 -2v46q42 5 52 15q13 12 37 72l132 330h81l126 -332q25 -65 32 -72q9 -9 52 -13v-46q-66 2 -119 2q-55 0 -133 -2v46q40 4 53 10.5t13 19.5q0 11 -15 56l-7 19h-139l-7 -19q-15 -42 -15 -58q0 -13 14 -18.5t58 -9.5v-46zM186 208h104
q-35 92 -52 143q-11 -36 -52 -143zM349 676l42 -2q-1 -73 -36.5 -114t-94.5 -41q-127 0 -128 153l42 4q5 -37 27.5 -58.5t59.5 -21.5q73 0 88 80z" />
    <glyph glyph-name="acircumflex.sc" horiz-adv-x="522" 
d="M220 -1q-72 2 -104 2q-47 0 -111 -2v46q42 5 52 15q13 12 37 72l132 330h81l126 -332q25 -65 32 -72q9 -9 52 -13v-46q-66 2 -119 2q-55 0 -133 -2v46q40 4 53 10.5t13 19.5q0 11 -15 56l-7 19h-139l-7 -19q-15 -42 -15 -58q0 -13 14 -18.5t58 -9.5v-46zM186 208h104
q-35 92 -52 143q-11 -36 -52 -143zM402 529l-34 -26l-104 103l-104 -103l-32 25l103 151q15 22 35 22q21 0 35 -21z" />
    <glyph glyph-name="acute.cap" horiz-adv-x="283" 
d="M71 679l-28 34l102 109q32 35 54 35q18 0 30.5 -13.5t12.5 -33.5q0 -26 -41 -51z" />
    <glyph glyph-name="acute.sc" horiz-adv-x="283" 
d="M88 519l-34 27l77 132q17 28 28 37.5t26 9.5q18 0 31 -12.5t13 -30.5q0 -25 -32 -56z" />
    <glyph glyph-name="adieresis.sc" horiz-adv-x="522" 
d="M220 -1q-72 2 -104 2q-47 0 -111 -2v46q42 5 52 15q13 12 37 72l132 330h81l126 -332q25 -65 32 -72q9 -9 52 -13v-46q-66 2 -119 2q-55 0 -133 -2v46q40 4 53 10.5t13 19.5q0 11 -15 56l-7 19h-139l-7 -19q-15 -42 -15 -58q0 -13 14 -18.5t58 -9.5v-46zM186 208h104
q-35 92 -52 143q-11 -36 -52 -143zM179 552q-24 0 -39.5 16.5t-15.5 43.5q0 25 15.5 41.5t41.5 16.5q24 0 39 -17t15 -41q0 -25 -15.5 -42.5t-40.5 -17.5zM342 552q-24 0 -39.5 16.5t-15.5 43.5q0 25 15.5 41.5t41.5 16.5q24 0 39 -17t15 -41q0 -25 -15.5 -42.5t-40.5 -17.5
z" />
    <glyph glyph-name="ae.sc" horiz-adv-x="724" 
d="M237 -1q-74 2 -125 2q-43 0 -109 -2v46q40 5 53 14q17 13 56 71l155 232q10 16 10 27t-18 15q-30 5 -55 7l3 50h416q25 0 32 -8t9 -32q3 -39 3 -85l-40 -2q-12 51 -21 59q-15 13 -91 13q-31 0 -50 -1v-142h8q65 0 79 13q8 7 16 47h40q-1 -48 -1 -87q0 -62 1 -91h-40
q-7 45 -15 53q-7 8 -20 10t-60 2h-8v-115q0 -30 19 -35q19 -6 56 -6q64 0 86 22q15 17 36 69l38 -7q-5 -81 -19 -119q-7 -19 -49 -19h-340v45q59 5 63 24q4 15 4 58v37h-153l-20 -33q-26 -44 -26 -60q0 -15 16 -19q28 -5 61 -7v-46zM241 216h118v176q0 8 -4 8q-5 0 -9 -7
q-29 -52 -105 -177z" />
    <glyph glyph-name="aeacute.sc" horiz-adv-x="724" 
d="M237 -1q-74 2 -125 2q-43 0 -109 -2v46q40 5 53 14q17 13 56 71l155 232q10 16 10 27t-18 15q-30 5 -55 7l3 50h416q25 0 32 -8t9 -32q3 -39 3 -85l-40 -2q-12 51 -21 59q-15 13 -91 13q-31 0 -50 -1v-142h8q65 0 79 13q8 7 16 47h40q-1 -48 -1 -87q0 -62 1 -91h-40
q-7 45 -15 53q-7 8 -20 10t-60 2h-8v-115q0 -30 19 -35q19 -6 56 -6q64 0 86 22q15 17 36 69l38 -7q-5 -81 -19 -119q-7 -19 -49 -19h-340v45q59 5 63 24q4 15 4 58v37h-153l-20 -33q-26 -44 -26 -60q0 -15 16 -19q28 -5 61 -7v-46zM241 216h118v176q0 8 -4 8q-5 0 -9 -7
q-29 -52 -105 -177zM426 519l-34 27l77 132q17 28 28 37.5t26 9.5q18 0 31 -12.5t13 -30.5q0 -25 -32 -56z" />
    <glyph glyph-name="agrave.sc" horiz-adv-x="522" 
d="M220 -1q-72 2 -104 2q-47 0 -111 -2v46q42 5 52 15q13 12 37 72l132 330h81l126 -332q25 -65 32 -72q9 -9 52 -13v-46q-66 2 -119 2q-55 0 -133 -2v46q40 4 53 10.5t13 19.5q0 11 -15 56l-7 19h-139l-7 -19q-15 -42 -15 -58q0 -13 14 -18.5t58 -9.5v-46zM186 208h104
q-35 92 -52 143q-11 -36 -52 -143zM321 546l-35 -27l-109 107q-32 32 -32 54q0 18 13.5 31t30.5 13q16 0 27 -9t28 -37z" />
    <glyph glyph-name="amacron.sc" horiz-adv-x="522" 
d="M220 -1q-72 2 -104 2q-47 0 -111 -2v46q42 5 52 15q13 12 37 72l132 330h81l126 -332q25 -65 32 -72q9 -9 52 -13v-46q-66 2 -119 2q-55 0 -133 -2v46q40 4 53 10.5t13 19.5q0 11 -15 56l-7 19h-139l-7 -19q-15 -42 -15 -58q0 -13 14 -18.5t58 -9.5v-46zM186 208h104
q-35 92 -52 143q-11 -36 -52 -143zM388 548h-249v77h249v-77z" />
    <glyph glyph-name="ampersand.sc" horiz-adv-x="542" 
d="M521 1l-25 -44q-92 24 -153 66q-56 -35 -143 -35q-80 0 -126.5 35.5t-46.5 97.5q0 49 28 79.5t84 52.5q-34 56 -34 100q0 49 36 85.5t118 36.5q61 0 95 -27t34 -68q0 -43 -27.5 -72t-90.5 -52q62 -84 110 -128q10 11 19 35q4 11 4 19q0 12 -21 20q-14 5 -43 6v51
q21 -1 96 -1q77 0 100 1v-51q-34 -1 -50 -13q-9 -5 -22 -32q-23 -47 -44 -71q40 -40 102 -91zM243 296q42 23 54.5 39t12.5 40q0 18 -12.5 28t-33.5 10q-50 0 -50 -44q0 -32 29 -73zM169 208q-30 -28 -30 -73q0 -34 22.5 -57t58.5 -23q41 0 71 13q-64 59 -122 140z" />
    <glyph glyph-name="aogonek.sc" horiz-adv-x="522" 
d="M220 -1q-72 2 -104 2q-47 0 -111 -2v46q42 5 52 15q13 12 37 72l132 330h81l126 -332q25 -65 32 -72q9 -9 52 -13v-46q-56 2 -102 2q-82 -92 -82 -147q0 -51 49 -51q27 0 67 14l15 -41q-18 -14 -50 -25.5t-60 -11.5q-46 0 -70 27t-24 67q0 42 25 80t80 88q-44 0 -100 -2
v46q40 4 53 10.5t13 19.5q0 11 -15 56l-7 19h-139l-7 -19q-15 -42 -15 -58q0 -13 14 -18.5t58 -9.5v-46zM186 208h104q-35 92 -52 143q-11 -36 -52 -143z" />
    <glyph glyph-name="aring.sc" horiz-adv-x="522" 
d="M220 -1q-72 2 -104 2q-47 0 -111 -2v46q42 5 52 15q13 12 37 72l132 330h81l126 -332q25 -65 32 -72q9 -9 52 -13v-46q-66 2 -119 2q-55 0 -133 -2v46q40 4 53 10.5t13 19.5q0 11 -15 56l-7 19h-139l-7 -19q-15 -42 -15 -58q0 -13 14 -18.5t58 -9.5v-46zM186 208h104
q-35 92 -52 143q-11 -36 -52 -143zM350 611q0 -39 -26 -65t-64 -26t-63.5 24.5t-25.5 64.5q0 39 26.5 64.5t64.5 25.5q39 0 63.5 -24.5t24.5 -63.5zM304 611q0 23 -12.5 35.5t-30.5 12.5q-19 0 -32 -13t-13 -35q0 -23 12.5 -36.5t32.5 -13.5q19 0 31 13.5t12 36.5z" />
    <glyph glyph-name="aringacute.sc" horiz-adv-x="522" 
d="M220 -1q-72 2 -104 2q-47 0 -111 -2v46q42 5 52 15q14 13 37 72l132 330h81l126 -332q25 -65 32 -72q9 -9 52 -13v-46q-66 2 -119 2q-55 0 -133 -2v46q40 4 53 10.5t13 19.5q0 11 -15 56l-7 19h-139l-7 -19q-15 -42 -15 -58q0 -13 14 -18.5t58 -9.5v-46zM186 208h104
q-35 92 -52 143q-34 -95 -52 -143zM353 602q0 -39 -26.5 -65t-63.5 -26q-38 0 -63.5 24.5t-25.5 64.5q0 38 26.5 64t63.5 26q39 0 64 -24.5t25 -63.5zM307 602q0 23 -13 35.5t-31 12.5t-31 -13t-13 -35t12 -36t32 -14q19 0 31.5 13.5t12.5 36.5zM248 715l-34 26l70 118
q16 28 28.5 37.5t28.5 9.5q17 0 29 -12t12 -31q0 -24 -34 -55z" />
    <glyph glyph-name="atilde.sc" horiz-adv-x="522" 
d="M220 -1q-72 2 -104 2q-47 0 -111 -2v46q42 5 52 15q13 12 37 72l132 330h81l126 -332q25 -65 32 -72q9 -9 52 -13v-46q-66 2 -119 2q-55 0 -133 -2v46q40 4 53 10.5t13 19.5q0 11 -15 56l-7 19h-139l-7 -19q-15 -42 -15 -58q0 -13 14 -18.5t58 -9.5v-46zM186 208h104
q-35 92 -52 143q-11 -36 -52 -143zM157 536l-34 13q9 46 32 79t55 33q19 0 53 -16l25 -11q30 -13 45 -13q12 0 21 10.5t23 36.5l34 -13q-9 -51 -29 -81t-46 -30q-22 0 -65 18l-23 9q-28 11 -42 11q-15 0 -25.5 -10t-23.5 -36z" />
    <glyph glyph-name="b.sc" horiz-adv-x="492" 
d="M21 -1v46q60 6 65 10q10 10 10 47v261q0 29 -5 37q-9 12 -70 16v45h183q82 0 113 -4q113 -14 113 -103q0 -86 -97 -108q123 -18 123 -113q0 -74 -66 -110q-41 -24 -133 -24q-14 0 -55 1t-60 1q-67 0 -121 -2zM204 271h13q37 0 55 5q44 13 44 64q0 48 -38 60q-19 6 -74 6
v-135zM204 86q0 -22 20 -27q13 -3 34 -3q39 0 60 20.5t21 55.5q0 46 -30 66q-31 17 -93 17h-12v-129z" />
    <glyph glyph-name="braceleft.cap" horiz-adv-x="300" 
d="M292 -114q-100 0 -145.5 38.5t-45.5 121.5v105q0 68 -19 100.5t-71 38.5v38q55 6 71.5 37t16.5 113v83q0 83 43.5 128t149.5 45v-45q-62 0 -81 -27t-19 -107v-111q0 -65 -25 -93t-81 -42q55 -12 80.5 -39.5t25.5 -93.5v-118q0 -71 20 -99t80 -28v-45z" />
    <glyph glyph-name="braceright.cap" horiz-adv-x="300" 
d="M10 734q100 0 145.5 -38.5t45.5 -122.5v-105q0 -68 18.5 -100.5t71.5 -38.5v-37q-56 -6 -72 -36.5t-16 -113.5v-82q0 -84 -43.5 -129t-149.5 -45v43q63 0 82 27.5t19 107.5v112q0 65 24.5 92.5t80.5 40.5q-55 12 -80.5 40.5t-25.5 94.5v118q0 71 -19.5 98.5t-80.5 27.5
v46z" />
    <glyph glyph-name="bracketleft.cap" horiz-adv-x="291" 
d="M283 -102h-199v820h199v-50h-105v-721h105v-49z" />
    <glyph glyph-name="bracketright.cap" horiz-adv-x="291" 
d="M9 718h197v-820h-197v49h104v721h-104v50z" />
    <glyph glyph-name="breve.cap" horiz-adv-x="280" 
d="M235 848l44 -2q-1 -73 -39 -114t-102 -41q-62 0 -99 38t-38 115l44 4q6 -37 30 -58.5t64 -21.5q78 0 96 80z" />
    <glyph glyph-name="breve.sc" horiz-adv-x="280" 
d="M227 676l42 -2q-1 -73 -36.5 -114t-94.5 -41q-127 0 -128 153l42 4q5 -37 27.5 -58.5t59.5 -21.5q73 0 88 80z" />
    <glyph glyph-name="bullet.cap" 
d="M315 305q0 -69 -38 -110t-101 -41t-102 42.5t-39 105.5q0 62 38.5 103t100.5 41q65 0 103 -40t38 -101z" />
    <glyph glyph-name="c.sc" horiz-adv-x="502" 
d="M462 142q-8 -78 -20 -111q-7 -19 -27 -27q-47 -17 -127 -17q-120 0 -187.5 61.5t-67.5 173.5q0 116 72.5 184t194.5 68q80 0 126 -19q17 -7 21 -23q6 -20 6 -116l-42 -2q-18 62 -21 68q-8 15 -21 22q-20 11 -65 11q-68 0 -108 -46t-40 -141q0 -179 141 -179q38 0 62 10
q13 6 25 20q16 18 36 72z" />
    <glyph glyph-name="c_t" horiz-adv-x="685" 
d="M401 58q-85 -73 -171 -73q-89 0 -144 59t-55 156q0 88 46.5 150.5t122.5 81.5q36 9 70 9q-44 37 -44 102q0 79 52 118t121 39q72 0 120 -42t48 -133q0 -44 -4 -111q61 0 112 -4v-55q-16 -2 -112 -6q0 -6 -0.5 -47t-0.5 -79v-38q0 -57 2 -77q3 -23 12 -33t32 -10
q29 0 57 10l15 -52q-58 -30 -118 -30q-47 0 -79 28t-32 92q0 50 4 234q-31 2 -66 7v48q49 14 61 19q19 8 26 28q13 32 13 77q0 56 -28.5 80t-72.5 24q-43 0 -71 -28.5t-28 -73.5q0 -54 37 -94q18 -6 28 -14q14 -10 14 -28q0 -30 -36 -77q-44 47 -106 47q-41 0 -69.5 -32.5
t-28.5 -94.5q0 -78 42 -118.5t106 -40.5q39 0 104 26z" />
    <glyph glyph-name="cacute.sc" horiz-adv-x="502" 
d="M462 142q-8 -78 -20 -111q-7 -19 -27 -27q-47 -17 -127 -17q-120 0 -187.5 61.5t-67.5 173.5q0 116 72.5 184t194.5 68q80 0 126 -19q17 -7 21 -23q6 -20 6 -116l-42 -2q-18 62 -21 68q-8 15 -21 22q-20 11 -65 11q-68 0 -108 -46t-40 -141q0 -179 141 -179q38 0 62 10
q13 6 25 20q16 18 36 72zM262 519l-34 27l77 132q17 28 28 37.5t26 9.5q18 0 31 -12.5t13 -30.5q0 -25 -32 -56z" />
    <glyph glyph-name="caron.alt" horiz-adv-x="291" 
d="M120 446l-32 31q53 58 53 95q0 21 -20 42q-13 13 -13 35q0 19 14 33t38 14q29 0 44 -19.5t15 -52.5q0 -87 -99 -178z" />
    <glyph glyph-name="caron.cap" horiz-adv-x="280" 
d="M-7 834l28 27l119 -84l118 84l29 -25l-113 -136q-17 -20 -36 -20t-35 20z" />
    <glyph glyph-name="caron.sc" horiz-adv-x="280" 
d="M3 674l32 27l105 -104l103 104l34 -26l-103 -150q-14 -22 -36 -22q-20 0 -34 21z" />
    <glyph glyph-name="ccaron.sc" horiz-adv-x="502" 
d="M462 142q-8 -78 -20 -111q-7 -19 -27 -27q-47 -17 -127 -17q-120 0 -187.5 61.5t-67.5 173.5q0 116 72.5 184t194.5 68q80 0 126 -19q17 -7 21 -23q6 -20 6 -116l-42 -2q-18 62 -21 68q-8 15 -21 22q-20 11 -65 11q-68 0 -108 -46t-40 -141q0 -179 141 -179q38 0 62 10
q13 6 25 20q16 18 36 72zM137 674l32 27l105 -104l103 104l34 -26l-103 -150q-14 -22 -36 -22q-20 0 -34 21z" />
    <glyph glyph-name="ccedilla.sc" horiz-adv-x="502" 
d="M202 -268l-13 47q97 29 97 71q0 14 -9.5 23.5t-31.5 24.5q-20 12 -20 29q0 18 18 63q-100 11 -155 71t-55 161q0 116 72.5 184t194.5 68q80 0 126 -19q17 -7 21 -23q6 -20 6 -116l-42 -2q-18 62 -21 68q-8 15 -21 22q-20 11 -65 11q-68 0 -108 -46t-40 -141
q0 -179 141 -179q38 0 62 10q13 6 25 20q16 18 36 72l42 -9q-8 -78 -20 -111q-7 -19 -27 -27q-42 -15 -121 -17q-7 -17 -7 -28q0 -15 17 -23q35 -18 48.5 -35.5t13.5 -43.5q0 -88 -164 -125z" />
    <glyph glyph-name="ccircumflex.sc" horiz-adv-x="502" 
d="M462 142q-8 -78 -20 -111q-7 -19 -27 -27q-47 -17 -127 -17q-120 0 -187.5 61.5t-67.5 173.5q0 116 72.5 184t194.5 68q80 0 126 -19q17 -7 21 -23q6 -20 6 -116l-42 -2q-18 62 -21 68q-8 15 -21 22q-20 11 -65 11q-68 0 -108 -46t-40 -141q0 -179 141 -179q38 0 62 10
q13 6 25 20q16 18 36 72zM412 529l-34 -26l-104 103l-104 -103l-32 25l103 151q15 22 35 22q21 0 35 -21z" />
    <glyph glyph-name="cdotaccent.sc" horiz-adv-x="502" 
d="M462 142q-8 -78 -20 -111q-7 -19 -27 -27q-47 -17 -127 -17q-120 0 -187.5 61.5t-67.5 173.5q0 116 72.5 184t194.5 68q80 0 126 -19q17 -7 21 -23q6 -20 6 -116l-42 -2q-18 62 -21 68q-8 15 -21 22q-20 11 -65 11q-68 0 -108 -46t-40 -141q0 -179 141 -179q38 0 62 10
q13 6 25 20q16 18 36 72zM275 552q-24 0 -39.5 16.5t-15.5 43.5q0 25 15.5 41.5t41.5 16.5q24 0 39 -17t15 -41q0 -25 -15.5 -42.5t-40.5 -17.5z" />
    <glyph glyph-name="cedilla.cap" horiz-adv-x="280" 
d="M62 -279l-12 50q99 31 99 73q0 25 -42 50q-20 14 -20 30q0 25 25 81h52q-15 -37 -15 -49q0 -13 18 -23q37 -19 50.5 -37t13.5 -45q0 -92 -169 -130z" />
    <glyph glyph-name="cedilla.sc" horiz-adv-x="280" 
d="M65 -268l-13 47q97 29 97 71q0 14 -9.5 23.5t-31.5 24.5q-20 12 -20 29q0 16 24 78h52q-14 -37 -14 -46q0 -15 17 -23q35 -18 48.5 -35.5t13.5 -43.5q0 -88 -164 -125z" />
    <glyph glyph-name="cent.denominator" horiz-adv-x="307" 
d="M193 -69h-38v66q-52 4 -82.5 39.5t-30.5 91.5q0 53 31.5 92t81.5 50v64h38v-61h4q38 0 58 -14q11 -7 11 -17q0 -16 -22 -50q-20 18 -51 26v-165q34 1 72 16l13 -29q-36 -29 -85 -41v-68zM106 152q0 -67 49 -89v159q-49 -5 -49 -70z" />
    <glyph glyph-name="cent.inferior" horiz-adv-x="307" 
d="M193 -212h-38v66q-52 4 -82.5 39.5t-30.5 91.5q0 53 31.5 92t81.5 50v64h38v-61h4q38 0 58 -14q11 -7 11 -17q0 -16 -22 -50q-20 18 -51 26v-165q34 1 72 16l13 -29q-36 -29 -85 -41v-68zM106 9q0 -67 49 -89v159q-49 -5 -49 -70z" />
    <glyph glyph-name="cent.numerator" horiz-adv-x="297" 
d="M193 172h-38v66q-52 4 -82.5 39.5t-30.5 91.5q0 53 31.5 92t81.5 50v64h38v-61h4q38 0 58 -14q11 -7 11 -17q0 -16 -22 -50q-20 18 -51 26v-165q34 1 72 16l13 -29q-36 -29 -85 -41v-68zM106 393q0 -67 49 -89v159q-49 -5 -49 -70z" />
    <glyph glyph-name="cent.oldstyle" horiz-adv-x="454" 
d="M291 -102h-53v98q-79 5 -126.5 61t-47.5 145q0 87 48.5 150t125.5 79v99h53v-95q56 0 99 -24q15 -9 15 -29q0 -25 -30 -69q-33 31 -84 43v-273q47 0 110 25l21 -45q-63 -54 -131 -64v-101zM156 243q0 -112 82 -146v263q-82 -8 -82 -117z" />
    <glyph glyph-name="cent.superior" horiz-adv-x="307" 
d="M193 331h-38v66q-52 4 -82.5 39.5t-30.5 91.5q0 53 31.5 92t81.5 50v64h38v-61h4q38 0 58 -14q11 -7 11 -17q0 -16 -22 -50q-20 18 -51 26v-165q34 1 72 16l13 -29q-36 -29 -85 -41v-68zM106 552q0 -67 49 -89v159q-49 -5 -49 -70z" />
    <glyph glyph-name="circumflex.cap" horiz-adv-x="280" 
d="M287 705l-28 -27l-120 84l-116 -84l-30 25l112 136q16 21 36 21q19 0 36 -21z" />
    <glyph glyph-name="circumflex.sc" horiz-adv-x="280" 
d="M277 529l-34 -26l-104 103l-104 -103l-32 25l103 151q15 22 35 22q21 0 35 -21z" />
    <glyph glyph-name="comma.denominator" horiz-adv-x="133" 
d="M35 -119l-26 22q37 46 37 76q0 15 -16 32q-8 11 -8 28q0 14 12 26.5t31 12.5q46 0 46 -56q0 -65 -76 -141z" />
    <glyph glyph-name="comma.inferior" horiz-adv-x="133" 
d="M35 -262l-26 22q37 46 37 76q0 15 -16 32q-8 11 -8 28q0 14 12 26.5t31 12.5q46 0 46 -56q0 -65 -76 -141z" />
    <glyph glyph-name="comma.numerator" horiz-adv-x="129" 
d="M35 122l-26 22q37 46 37 76q0 15 -16 32q-8 11 -8 28q0 14 12 26.5t31 12.5q46 0 46 -56q0 -65 -76 -141z" />
    <glyph glyph-name="comma.superior" horiz-adv-x="133" 
d="M35 281l-26 22q37 46 37 76q0 15 -16 32q-8 11 -8 28q0 14 12 26.5t31 12.5q46 0 46 -56q0 -65 -76 -141z" />
    <glyph glyph-name="commaaccent" horiz-adv-x="291" 
d="M120 -301l-32 30q53 59 53 96q0 22 -20 43q-13 12 -13 34q0 18 14 32t38 14q29 0 44 -19t15 -52q0 -88 -99 -178z" />
    <glyph glyph-name="commaaccent.sc" horiz-adv-x="291" 
d="M120 -304l-32 30q53 59 53 96q0 22 -20 43q-13 12 -13 33q0 19 14 33t38 14q29 0 44 -19t15 -52q0 -88 -99 -178z" />
    <glyph glyph-name="d.sc" horiz-adv-x="547" 
d="M21 -1v46q57 5 69 17q6 7 6 49v244q0 36 -6 44q-9 10 -69 17v45h144q108 0 161.5 -9t90.5 -30q97 -53 97 -183q0 -121 -67.5 -180.5t-193.5 -59.5q-7 0 -55.5 0.5t-61.5 0.5q-83 0 -115 -1zM205 92q0 -28 22 -33q16 -4 44 -4q123 0 123 179q0 58 -19.5 98.5t-50.5 55.5
q-41 20 -119 20v-316z" />
    <glyph glyph-name="dcaron.sc" horiz-adv-x="547" 
d="M21 -1v46q57 5 69 17q6 7 6 49v244q0 36 -6 44q-9 10 -69 17v45h144q108 0 161.5 -9t90.5 -30q97 -53 97 -183q0 -121 -67.5 -180.5t-193.5 -59.5q-7 0 -55.5 0.5t-61.5 0.5q-83 0 -115 -1zM205 92q0 -28 22 -33q16 -4 44 -4q123 0 123 179q0 58 -19.5 98.5t-50.5 55.5
q-41 20 -119 20v-316zM116 674l32 27l105 -104l103 104l34 -26l-103 -150q-14 -22 -36 -22q-20 0 -34 21z" />
    <glyph glyph-name="dcroat.sc" horiz-adv-x="547" 
d="M21 213v57h75v85q0 35 -6 43q-8 11 -69 17v46h144q108 0 161.5 -9t90.5 -30q97 -53 97 -183q0 -121 -67.5 -180.5t-193.5 -59.5q-7 0 -55.5 0.5t-61.5 0.5q-83 0 -115 -1v46q57 5 69 17q6 7 6 49v102h-75zM205 92q0 -28 22 -33q16 -4 44 -4q123 0 123 179q0 58 -19.5 98
t-50.5 55q-39 20 -119 20v-137h103v-57h-103v-121z" />
    <glyph glyph-name="dieresis.cap" horiz-adv-x="280" 
d="M49 698q-24 0 -39.5 16.5t-15.5 43.5q0 25 15.5 41.5t41.5 16.5q24 0 39 -17t15 -41q0 -25 -15.5 -42.5t-40.5 -17.5zM230 698q-24 0 -39.5 16.5t-15.5 43.5q0 25 15.5 41.5t41.5 16.5q24 0 39 -17t15 -41q0 -25 -15.5 -42.5t-40.5 -17.5z" />
    <glyph glyph-name="dieresis.sc" horiz-adv-x="280" 
d="M58 552q-24 0 -39.5 16.5t-15.5 43.5q0 25 15.5 41.5t41.5 16.5q24 0 39 -17t15 -41q0 -25 -15.5 -42.5t-40.5 -17.5zM221 552q-24 0 -39.5 16.5t-15.5 43.5q0 25 15.5 41.5t41.5 16.5q24 0 39 -17t15 -41q0 -25 -15.5 -42.5t-40.5 -17.5z" />
    <glyph glyph-name="dollar.denominator" horiz-adv-x="348" 
d="M194 -69h-39v65q-74 0 -114 34q-11 9 -11 22q0 21 28 51q12 -23 38 -40t59 -21v113l-17 9q-52 28 -73.5 53.5t-21.5 66.5q0 44 29.5 72t82.5 36v66h39v-64q60 0 90 -22q9 -7 9 -17q0 -23 -24 -52q-10 19 -31 31.5t-44 14.5v-119l15 -7q57 -29 75 -52t18 -64
q0 -39 -28.5 -69.5t-79.5 -38.5v-68zM114 303q0 -19 9 -29.5t32 -24.5v99q-41 -10 -41 -45zM232 83q0 16 -7.5 26.5t-30.5 25.5v-92q38 6 38 40z" />
    </font>
</defs>
</svg>
