<?xml version="1.0" standalone="no"?>
<!DOCTYPE svg PUBLIC "-//W3C//DTD SVG 1.1//EN" "http://www.w3.org/Graphics/SVG/1.1/DTD/svg11.dtd" >
<svg xmlns="http://www.w3.org/2000/svg" xmlns:xlink="http://www.w3.org/1999/xlink" version="1.1">
<metadata>
Created by FontForge 20190112 at Thu Jun 13 14:33:21 2013
 By David Mongeau-Petitpas
Copyright (c) 2012 by Dieter Hofrichter. All rights reserved.
</metadata>
<defs>
<font id="SinaNovaReg" horiz-adv-x="340" >
  <font-face 
    font-family="SinaNovaReg"
    font-weight="400"
    font-stretch="normal"
    units-per-em="1000"
    panose-1="0 0 0 0 0 0 0 0 0 0"
    ascent="729"
    descent="-271"
    x-height="422"
    cap-height="644"
    bbox="-105 -280 1075 987"
    underline-thickness="0"
    underline-position="0"
    unicode-range="U+0020-FB06"
  />
<missing-glyph horiz-adv-x="295" 
 />
    <glyph glyph-name="f_f" unicode="ff" horiz-adv-x="577" 
d="M261 -1q-88 2 -119 2q-28 0 -114 -2v35q55 7 63 13q2 2 4 5q6 10 6 47q0 32 -0.5 95.5t-0.5 114v51.5q-50 0 -78 6v30q8 3 54 15q12 3 16.5 12.5t5.5 35.5q2 78 20 125.5t57 80.5q55 46 126 46q42 0 73 -14q16 -9 16 -25q0 -14 -25 -52q-45 32 -94 32q-52 0 -75 -37
q-27 -42 -27 -153v-53h125q46 0 62 6q20 7 21 47q2 94 20 140t58 80q58 48 134 48q44 0 72 -14q16 -9 16 -25q0 -22 -24 -54q-43 33 -102 33q-48 0 -76 -40q-26 -40 -26 -147v-71q73 0 121 -4v-42q-51 -6 -120 -6v-51t-0.5 -109t-0.5 -83q0 -36 2 -48t9 -19q11 -10 83 -16
v-35q-88 2 -120 2q-28 0 -114 -2v35q57 7 64 18q6 10 6 47q0 32 -0.5 95.5t-0.5 114v51.5h-208v-51t-0.5 -109t-0.5 -83q0 -35 2.5 -47t10.5 -20q10 -10 79 -16v-35z" />
    <glyph glyph-name="fi" unicode="fi" horiz-adv-x="544" 
d="M261 -1q-86 2 -118 2q-27 0 -115 -2v35q60 7 67 19q6 12 6 46q0 32 -0.5 95.5t-0.5 114v51.5q-50 0 -78 6v30q17 7 55 15q11 3 15.5 12.5t5.5 36.5q3 99 21.5 147.5t59.5 80.5q53 42 135 42q57 0 96 -22q17 -11 17 -28q0 -23 -29 -61q-58 50 -123 50q-51 0 -77 -34
t-26 -139v-82h95q65 0 87 5q8 2 31.5 8.5t33.5 6.5q25 0 25 -37v-96.5t-0.5 -136t-0.5 -65.5q0 -39 6 -49q7 -11 72 -16v-35q-82 2 -113 2q-28 0 -102 -2v35q53 5 61 14q8 10 8 50q0 173 -2 198q-1 28 -10 41q-14 23 -93 23h-98q0 -1 -0.5 -51t-1 -109t-0.5 -82
q0 -56 12 -68q10 -10 79 -16v-35z" />
    <glyph glyph-name="fl" unicode="fl" horiz-adv-x="544" 
d="M262 -1q-86 2 -120 2q-28 0 -114 -2v35q60 7 67 18q6 8 6 47q0 32 -0.5 95.5t-0.5 114v51.5q-59 2 -78 6v30q9 3 28 8t26 7q12 3 16.5 13t5.5 37q3 99 20.5 146.5t57.5 80.5q51 42 131 42q32 0 69 -13q36 19 51 19q21 0 21 -30q0 -86 -0.5 -288.5t-0.5 -316.5
q0 -43 7 -51q8 -11 68 -16v-35q-80 2 -113 2q-21 0 -97 -2v35q51 5 60 14q8 10 8 52q0 52 -1.5 246.5t-1.5 208.5q0 68 -13 85q-26 33 -84 33q-57 0 -83 -40q-25 -36 -25 -154v-66q70 0 117 -4v-43q-50 -6 -117 -6q0 -2 -1 -51.5t-1.5 -108.5t-0.5 -82q0 -55 13 -68
q8 -10 80 -16v-35z" />
    <glyph glyph-name="f_f_i" unicode="ffi" horiz-adv-x="827" 
d="M261 -1q-88 2 -119 2q-28 0 -114 -2v35q59 7 66 19q7 11 7 46q0 32 -0.5 95.5t-0.5 114v51.5q-50 0 -78 6v30q8 3 54 15q12 3 16.5 12.5t5.5 35.5q2 78 20 125.5t57 80.5q55 46 126 46q45 0 73 -14q16 -9 16 -25q0 -14 -25 -52q-45 32 -94 32q-52 0 -75 -37
q-27 -42 -27 -153v-53h125q46 0 62 6q20 7 21 47q3 98 21 146t60 80q54 42 134 42q58 0 97 -22q17 -11 17 -28q0 -24 -30 -61q-57 50 -122 50q-53 0 -78 -34q-26 -34 -26 -139v-82h90q73 0 97 5q7 1 30.5 8t33.5 7q25 0 25 -37v-96.5t-0.5 -136t-0.5 -65.5q0 -38 7 -49
q6 -11 72 -16v-35q-82 2 -113 2q-28 0 -102 -2v35q49 5 60 14q8 7 8 50q0 173 -2 198q-1 28 -10 41q-13 23 -96 23h-99v-51t-0.5 -109t-0.5 -83q0 -36 2 -48t9 -19q12 -10 82 -16v-35q-88 2 -119 2q-28 0 -114 -2v35q57 7 64 18q6 10 6 47q0 32 -0.5 95.5t-0.5 114v51.5
h-208v-51t-0.5 -109t-0.5 -83q0 -35 2.5 -47t10.5 -20q10 -10 79 -16v-35z" />
    <glyph glyph-name="f_f_l" unicode="ffl" horiz-adv-x="822" 
d="M261 -1q-88 2 -119 2q-28 0 -114 -2v35q60 7 67 19q6 10 6 46q0 32 -0.5 95.5t-0.5 114v51.5q-50 0 -78 6v30q8 3 54 15q12 3 16.5 12.5t5.5 35.5q2 78 20 125.5t57 80.5q55 46 126 46q42 0 73 -14q16 -9 16 -25q0 -14 -25 -52q-45 32 -94 32q-52 0 -75 -37
q-27 -42 -27 -153v-53h125q46 0 62 6q20 7 21 47q2 93 20.5 143t57.5 82q51 43 130 43q33 0 69 -13q38 18 51 18q21 0 21 -29q0 -86 -0.5 -288.5t-0.5 -316.5q0 -43 7 -52q7 -10 68 -15v-35q-80 2 -112 2q-59 0 -98 -2v35q51 5 60 14q8 10 8 52q0 52 -1.5 246t-1.5 209
q0 68 -13 85q-25 32 -84 32q-56 0 -83 -39q-25 -36 -25 -154v-66q72 0 120 -4v-43q-51 -6 -120 -6v-51t-0.5 -109t-0.5 -82q0 -37 2 -48.5t9 -18.5q9 -11 82 -17v-35q-88 2 -119 2q-28 0 -114 -2v35q57 7 64 18q6 10 6 47q0 32 -0.5 95.5t-0.5 114v51.5h-208v-51t-0.5 -109
t-0.5 -82q0 -36 2.5 -48t10.5 -20q10 -10 79 -16v-35z" />
    <glyph glyph-name="T_h" unicode="Th" horiz-adv-x="1011" 
d="M413 -1q-72 2 -125 2q-57 0 -131 -2v36q74 5 83 21q4 8 4 60v483q-125 -2 -144 -14q-13 -9 -21 -31.5t-22 -82.5l-34 2q2 84 7 142q2 28 30 28h395q74 0 97 11q23 9 44 36t42 27t21 -29q0 -36 -0.5 -160.5t-0.5 -153.5q74 61 143 61q56 0 87 -31q33 -32 33 -115
q0 -4 -1 -96.5t-1 -95.5q0 -40 6 -47q9 -11 70 -16v-35q-74 2 -112 2q-32 0 -102 -2v35q53 4 62 15q8 12 8 50q0 136 -2 181q-2 48 -15 65q-20 28 -67 28q-63 0 -109 -29q0 -11 -0.5 -128.5t-0.5 -118.5q0 -39 8 -48q9 -10 64 -15v-35q-78 2 -111 2q-29 0 -99 -2v35
q54 5 62 16q9 11 9 49v500h-268v-482q0 -51 6 -62q9 -14 85 -20v-36z" />
    <glyph glyph-name="Tcaron_h" unicode="&#x164;h" horiz-adv-x="1011" 
d="M413 -1q-72 2 -125 2q-57 0 -131 -2v36q74 5 83 21q4 8 4 60v483q-125 -2 -144 -14q-13 -9 -21 -31.5t-22 -82.5l-34 2q2 84 7 142q2 28 30 28h395q74 0 97 11q23 9 44 36t42 27t21 -29q0 -36 -0.5 -160.5t-0.5 -153.5q74 61 143 61q56 0 87 -31q33 -32 33 -115
q0 -4 -1 -96.5t-1 -95.5q0 -40 6 -47q9 -11 70 -16v-35q-74 2 -112 2q-32 0 -102 -2v35q53 4 62 15q8 12 8 50q0 136 -2 181q-2 48 -15 65q-20 28 -67 28q-63 0 -109 -29q0 -11 -0.5 -128.5t-0.5 -118.5q0 -39 8 -48q9 -10 64 -15v-35q-78 2 -111 2q-29 0 -99 -2v35
q54 5 62 16q9 11 9 49v500h-268v-482q0 -51 6 -62q9 -14 85 -20v-36zM150 827l22 22l115 -87l113 87l23 -21l-108 -129q-15 -18 -30 -18t-29 18z" />
    <glyph glyph-name="f_b" unicode="fb" horiz-adv-x="797" 
d="M262 -1q-86 2 -120 2q-28 0 -114 -2v35q60 7 67 18q6 8 6 47q0 32 -0.5 95.5t-0.5 114v51.5q-59 2 -78 6v30q9 3 28 8t26 7q12 3 17.5 13t5.5 37q1 97 19 145t58 82q51 42 131 42q31 0 67 -13q38 19 51 19q21 0 21 -32q0 -37 -0.5 -169.5t-0.5 -158.5q75 59 147 59
q78 0 122 -58.5t44 -149.5q0 -105 -58 -169.5t-164 -64.5q-65 0 -111 19l-16 -33l-34 6q3 66 3 160q0 39 -1 180.5t-1 229.5q0 68 -14 85q-26 33 -82 33q-54 0 -83 -40q-25 -33 -25 -147v-73q70 0 117 -4v-43q-50 -6 -117 -6q0 -2 -1 -51.5t-1.5 -108.5t-0.5 -82
q0 -55 13 -68q8 -10 80 -16v-35zM444 343q0 -212 2 -244q1 -20 15 -34q27 -25 86 -25q73 0 104.5 44t31.5 132q0 72 -31.5 113.5t-90.5 41.5q-61 0 -117 -28z" />
    <glyph glyph-name="f_f_b" unicode="ffb" horiz-adv-x="1074" 
d="M261 -1q-88 2 -119 2q-28 0 -114 -2v35q55 7 63 13q2 2 4 5q6 10 6 47q0 32 -0.5 95.5t-0.5 114v51.5q-50 0 -78 6v30q8 3 54 15q12 3 16.5 12.5t5.5 35.5q2 78 20 125.5t57 80.5q55 46 126 46q42 0 73 -14q16 -9 16 -25q0 -14 -25 -52q-45 32 -94 32q-52 0 -75 -37
q-27 -42 -27 -153v-53h125q46 0 62 6q20 7 21 47q3 98 20.5 145.5t56.5 80.5q52 42 131 42q29 0 65 -13q38 19 51 19q21 0 21 -32q0 -37 -0.5 -169.5t-0.5 -158.5q75 59 147 59q78 0 122 -58.5t44 -149.5q0 -105 -58 -169.5t-164 -64.5q-65 0 -111 19l-16 -33l-34 6
q2 44 2 160q0 250 -1 410q0 67 -14 85q-28 33 -80 33q-54 0 -83 -40q-25 -36 -25 -147v-73q72 0 120 -4v-43q-51 -6 -120 -6v-51t-0.5 -109t-0.5 -83q0 -36 2 -48t9 -19q11 -10 83 -16v-35q-88 2 -120 2q-28 0 -114 -2v35q57 7 64 18q6 10 6 47q0 32 -0.5 95.5t-0.5 114
v51.5h-208v-51t-0.5 -109t-0.5 -83q0 -35 2.5 -47t10.5 -20q10 -10 79 -16v-35zM720 343q0 -212 2 -244q1 -20 15 -34q25 -25 86 -25q73 0 104.5 44t31.5 132q0 72 -31.5 113.5t-90.5 41.5q-61 0 -117 -28z" />
    <glyph glyph-name="f_f_h" unicode="ffh" horiz-adv-x="1078" 
d="M261 -1q-88 2 -119 2q-28 0 -114 -2v35q60 7 66 18q7 11 7 47q0 32 -0.5 95.5t-0.5 114v51.5q-50 0 -78 6v30q8 3 54 15q12 3 16.5 12.5t5.5 35.5q2 78 20 125.5t57 80.5q55 46 126 46q42 0 73 -14q16 -9 16 -25q0 -14 -25 -52q-45 32 -94 32q-52 0 -75 -37
q-27 -42 -27 -153v-53h125q46 0 62 6q20 7 21 47q2 93 20.5 143t57.5 82q51 43 130 43q33 0 70 -13q38 18 50 18q22 0 22 -29q0 -38 -0.5 -170.5t-0.5 -161.5q75 61 145 61q52 0 84 -30q33 -32 33 -121q0 -4 -1 -93t-1 -92q0 -38 7 -48q6 -11 69 -17v-35q-76 2 -117 2
q-18 0 -96 -2v35q53 5 61 16q8 8 8 51q0 129 -2 176q-2 48 -14 66q-19 30 -65 30q-66 0 -111 -28q0 -11 -0.5 -128t-0.5 -118q0 -42 6 -49q8 -10 66 -16v-35q-80 2 -112 2q-22 0 -98 -2v35q53 6 61 15q10 12 10 50q0 342 -2 456q-1 70 -13 85q-25 32 -85 32q-56 0 -83 -39
q-25 -36 -25 -154v-66q72 0 120 -4v-43q-51 -6 -120 -6v-51t-0.5 -109t-0.5 -82q0 -37 2 -49t9 -19q8 -10 80 -16v-35q-88 2 -117 2q-28 0 -114 -2v35q57 7 64 18q6 10 6 47q0 32 -0.5 95.5t-0.5 114v51.5h-208v-51t-0.5 -109t-0.5 -82q0 -36 2.5 -48t10.5 -20
q10 -10 79 -16v-35z" />
    <glyph glyph-name="f_f_j" unicode="ffj" horiz-adv-x="800" 
d="M261 -1q-88 2 -119 2q-28 0 -114 -2v35q59 7 67 18q6 12 6 47q0 32 -0.5 95.5t-0.5 114v51.5q-50 0 -78 6v30q8 3 54 15q12 3 16.5 12.5t5.5 35.5q2 78 20 125.5t57 80.5q55 46 126 46q45 0 73 -14q16 -9 16 -25q0 -14 -25 -52q-45 32 -94 32q-52 0 -75 -37
q-27 -42 -27 -153v-53h125q46 0 62 6q20 7 21 47q3 96 21.5 143.5t59.5 81.5q53 43 134 43q59 0 96 -22q17 -11 17 -28q0 -23 -29 -61q-58 50 -123 50q-51 0 -77 -34q-26 -36 -26 -139v-82h92q65 0 89 5q6 1 30 8t35 7q24 0 24 -37q0 -69 0.5 -221.5t0.5 -171.5
q0 -61 -7 -98t-26 -70q-24 -40 -89 -104l-27 27q38 47 55 86q22 49 23 144q0 19 0.5 137t0.5 166q0 25 -11 45q-14 23 -93 23h-97v-51t-0.5 -109t-0.5 -83q0 -36 2 -48t9 -19q11 -10 83 -16v-35q-88 2 -120 2q-28 0 -114 -2v35q57 7 64 18q6 10 6 47q0 32 -0.5 95.5
t-0.5 114v51.5h-208v-51t-0.5 -109t-0.5 -83q0 -35 2.5 -47t10.5 -20q10 -10 79 -16v-35z" />
    <glyph glyph-name="f_f_k" unicode="ffk" horiz-adv-x="1031" 
d="M261 -1q-88 2 -119 2q-28 0 -114 -2v35q61 7 67 19t6 46q0 32 -0.5 95.5t-0.5 114v51.5q-50 0 -78 6v30q8 3 54 15q12 3 16.5 12.5t5.5 35.5q2 78 20 125.5t57 80.5q55 46 126 46q42 0 73 -14q16 -9 16 -25q0 -14 -25 -52q-45 32 -94 32q-52 0 -75 -37q-27 -42 -27 -153
v-53h125q46 0 62 6q20 7 21 47q2 93 20.5 143t57.5 82q51 43 130 43q33 0 70 -13q33 18 50 18q22 0 22 -29q0 -65 -1.5 -322.5t-1.5 -282.5q0 -43 7 -51q10 -11 68 -16v-35q-78 2 -112 2q-23 0 -101 -2v35q53 6 61 15q10 12 10 51q0 399 -1 455q-1 70 -13 85q-25 32 -85 32
q-56 0 -83 -39q-25 -36 -25 -154v-66q72 0 120 -4v-43q-51 -6 -120 -6v-51t-0.5 -109t-0.5 -82q0 -37 2 -49t9 -19q8 -10 80 -16v-35q-88 2 -117 2q-28 0 -114 -2v35q57 7 64 18q6 10 6 47q0 32 -0.5 95.5t-0.5 114v51.5h-208v-51t-0.5 -109t-0.5 -82q0 -36 2.5 -48
t10.5 -20q10 -10 79 -16v-35zM1012 -21q-66 15 -116 57q-29 25 -59.5 60t-48 58.5t-51.5 71.5q34 29 90 86q32 32 32 52t-52 22v37q42 -2 107 -2q48 0 90 2v-37q-22 -1 -46 -11q-19 -8 -71 -58q-60 -58 -76 -72q111 -165 218 -233z" />
    <glyph glyph-name="f_h" unicode="fh" horiz-adv-x="798" 
d="M262 -1q-86 2 -120 2q-28 0 -114 -2v35q60 7 67 18q6 8 6 47q0 32 -0.5 95.5t-0.5 114v51.5q-59 2 -78 6v30q9 3 28 8t26 7q12 3 17.5 12.5t5.5 36.5q1 97 19 145.5t58 82.5q51 42 131 42q32 0 69 -13q36 19 51 19q21 0 21 -33q0 -37 -1 -168.5t-1 -160.5q77 61 145 61
q52 0 84 -30q33 -33 33 -121q0 -4 -0.5 -93t-0.5 -92q0 -40 6 -48q8 -11 69 -17v-35q-76 2 -116 2q-19 0 -97 -2v35q53 5 61 16q9 9 9 51q0 82 -2 176q-2 47 -15 66q-19 30 -65 30q-65 0 -111 -28q0 -11 -0.5 -128t-0.5 -118q0 -41 7 -49q8 -10 65 -16v-35q-78 2 -111 2
q-23 0 -99 -2v35q55 6 62 15q9 11 9 50q0 400 -1 456q-1 70 -14 85q-26 33 -83 33t-83 -40q-25 -36 -25 -154v-66q70 0 117 -4v-43q-50 -6 -117 -6q0 -2 -1 -51.5t-1.5 -108.5t-0.5 -82q0 -55 13 -68q8 -10 80 -16v-35z" />
    <glyph glyph-name="f_j" unicode="fj" horiz-adv-x="522" 
d="M261 -1q-86 2 -118 2q-27 0 -115 -2v35q60 7 67 19q6 12 6 46q0 32 -0.5 95.5t-0.5 114v51.5q-50 0 -78 6v30q17 7 55 15q11 3 15.5 12.5t5.5 36.5q3 99 21.5 147.5t59.5 80.5q53 42 135 42q57 0 96 -22q17 -11 17 -28q0 -23 -29 -61q-58 50 -123 50q-51 0 -77 -34
t-26 -139v-82h92q65 0 89 5q7 1 30.5 8t33.5 7q25 0 25 -37q0 -69 0.5 -221.5t0.5 -171.5q0 -61 -7 -98t-26 -70q-21 -36 -89 -104l-28 27q41 50 56 86q22 54 22 144q0 20 1 137.5t1 165.5q0 28 -11 45q-14 23 -93 23h-97q0 -1 -0.5 -51t-1 -109t-0.5 -82q0 -56 12 -68
q10 -10 79 -16v-35z" />
    <glyph glyph-name="f_k" unicode="fk" horiz-adv-x="752" 
d="M262 -1q-86 2 -120 2q-28 0 -114 -2v35q60 7 67 18q6 8 6 47q0 32 -0.5 95.5t-0.5 114v51.5q-59 2 -78 6v30q9 3 28 8t26 7q12 3 16.5 11.5t5.5 35.5q3 100 20.5 148.5t57.5 81.5q51 42 131 42q32 0 69 -13q36 19 51 19q21 0 21 -33q-3 -351 -3 -602q0 -43 7 -51
q8 -11 68 -16v-35q-78 2 -112 2q-23 0 -101 -2v35q53 6 61 15q10 12 10 51q0 399 -1 455q-1 70 -14 85q-26 33 -83 33t-83 -40q-25 -36 -25 -154v-66q70 0 117 -4v-43q-50 -6 -117 -6q0 -2 -1 -51.5t-1.5 -108.5t-0.5 -82q0 -55 13 -68q8 -10 80 -16v-35zM734 -21
q-67 15 -117 57q-63 54 -159 190q33 28 91 86q31 31 31 52q0 11 -10.5 16t-41.5 6v37q42 -2 108 -2q47 0 89 2v-37q-29 -4 -47 -11q-15 -6 -70 -58q-65 -63 -75 -72q109 -165 217 -233z" />
    <glyph glyph-name="uni0162_h" unicode="&#x162;h" horiz-adv-x="1011" 
d="M215 -271l-9 37q100 31 100 76q0 17 -9.5 27t-34.5 25q-20 12 -20 30q0 25 22 77q-45 0 -107 -2v36q74 5 83 21q4 8 4 60v483q-125 -2 -144 -14q-13 -9 -21 -31.5t-22 -82.5l-34 2q2 84 7 142q2 28 30 28h395q74 0 97 11q23 9 44 36q20 27 41 27q22 0 22 -29
q0 -36 -0.5 -160.5t-0.5 -153.5q74 61 143 61q56 0 87 -31q33 -32 33 -115q0 -4 -1 -96.5t-1 -95.5q0 -40 6 -47q9 -11 70 -16v-35q-74 2 -112 2q-32 0 -102 -2v35q53 4 62 15q8 12 8 50q0 136 -2 181q-2 48 -15 65q-20 28 -67 28q-63 0 -109 -29q0 -11 -0.5 -128.5
t-0.5 -118.5q0 -39 8 -48q9 -10 64 -15v-35q-78 2 -111 2q-29 0 -99 -2v35q54 5 62 16q9 11 9 49v500h-268v-482q0 -54 6 -62q8 -14 85 -20v-36q-62 2 -112 2q-13 -32 -13 -46q0 -17 16 -24q36 -19 50.5 -36t14.5 -43q0 -48 -43 -78.5t-111 -44.5z" />
    <glyph glyph-name="uni021A_h" unicode="&#x21a;h" horiz-adv-x="1026" 
d="M413 -1q-72 2 -125 2q-57 0 -131 -2v36q74 5 83 21q4 8 4 60v483q-125 -2 -144 -14q-13 -9 -21 -31.5t-22 -82.5l-34 2q2 84 7 142q2 28 30 28h395q74 0 97 11q20 8 44 36q19 27 42 27q21 0 21 -29q0 -36 -0.5 -160.5t-0.5 -153.5q74 61 143 61q56 0 87 -31
q33 -32 33 -115q0 -4 -1 -96.5t-1 -95.5q0 -37 6 -47q13 -11 70 -16v-35q-74 2 -112 2q-32 0 -102 -2v35q53 4 62 15q8 12 8 50q0 136 -2 181q-2 48 -15 65q-20 28 -67 28q-63 0 -109 -29q0 -11 -0.5 -128.5t-0.5 -118.5q0 -39 8 -48q9 -10 64 -15v-35q-78 2 -111 2
q-29 0 -99 -2v35q54 5 62 16q9 11 9 49v508q-16 -8 -64 -8h-204v-482q0 -54 6 -62q7 -14 85 -20v-36zM252 -279l-25 24q49 53 49 90q0 20 -16 39q-13 13 -13 31q0 17 12 29t31 12q48 0 48 -61q0 -82 -86 -164z" />
    <glyph glyph-name=".notdef" horiz-adv-x="295" 
 />
    <glyph glyph-name=".null" horiz-adv-x="0" 
 />
    <glyph glyph-name="nonmarkingreturn" horiz-adv-x="333" 
 />
    <glyph glyph-name="space" unicode=" " horiz-adv-x="208" 
 />
    <glyph glyph-name="exclam" unicode="!" horiz-adv-x="268" 
d="M172 200h-39q-6 106 -13.5 209t-11.5 153.5t-4 61.5q0 49 51 49q49 0 49 -49q0 -11 -4.5 -62.5t-12.5 -154t-15 -207.5zM207 50q0 -28 -15 -44t-40 -16q-24 0 -39.5 16t-15.5 41t15.5 41t38.5 16q25 0 40.5 -15t15.5 -39z" />
    <glyph glyph-name="quotedbl" unicode="&#x22;" horiz-adv-x="280" 
d="M88 414h-33q-23 200 -23 219q0 44 41 44q39 0 39 -44q0 -9 -24 -219zM224 414h-34q-23 213 -23 219q0 44 41 44q40 0 40 -44q0 -11 -2.5 -31.5t-9 -74.5t-12.5 -113z" />
    <glyph glyph-name="numbersign" unicode="#" horiz-adv-x="513" 
d="M137 -12h-39l40 211h-95v70h110l23 108h-94v72h105l38 188h43l-39 -188h105l39 188h40l-37 -188h95v-72h-109l-22 -108h88v-70h-102l-41 -211h-41l41 211h-105zM193 269h106l21 108h-105z" />
    <glyph glyph-name="dollar" unicode="$" horiz-adv-x="487" 
d="M265 -109h-42v103h-5q-109 0 -160 49q-16 14 -16 32q0 26 31 60q20 -32 58 -60t92 -31v232l-31 18q-71 41 -98 80.5t-27 92.5q0 65 43 106t113 52v101h42v-98h7q78 0 123 -28q16 -10 16 -23q0 -22 -29 -65q-16 22 -48.5 41t-68.5 22v-227l21 -13q81 -48 110 -83t29 -89
q0 -63 -44 -108.5t-116 -56.5v-107zM355 134q0 34 -16 59.5t-74 59.5v-207q42 6 66 30.5t24 57.5zM135 486q0 -39 18.5 -62.5t69.5 -52.5v202q-88 -10 -88 -87z" />
    <glyph glyph-name="percent" unicode="%" horiz-adv-x="757" 
d="M309 448q0 -103 -39 -159.5t-104 -56.5q-66 0 -103.5 52t-37.5 142q0 96 41 153t105 57t101 -51t37 -137zM251 432q0 168 -83 168q-39 0 -62 -40t-23 -122q0 -169 86 -169q82 0 82 163zM732 206q0 -102 -38.5 -158.5t-103.5 -56.5q-66 0 -103.5 52t-37.5 142q0 96 41 153
t105 57q63 0 100 -51t37 -138zM674 191q0 168 -82 168q-39 0 -62.5 -40.5t-23.5 -123.5q0 -168 87 -168q81 0 81 164zM488 636h44l-257 -639h-47z" />
    <glyph glyph-name="ampersand" unicode="&#x26;" horiz-adv-x="641" 
d="M602 -13l-23 -37q-86 41 -157 105q-80 -67 -177 -67q-90 0 -146 49.5t-56 132.5q0 68 35 111t107 78q-47 79 -47 143q0 65 41.5 110.5t124.5 45.5q60 0 96.5 -35.5t36.5 -91.5q0 -59 -38 -100.5t-121 -78.5q63 -104 161 -209q30 36 52 99q6 16 6 36q0 18 -25 24
q-15 4 -50 7v41q52 -2 99 -2q53 0 111 2v-41q-46 -3 -62 -19q-6 -6 -27 -55q-35 -82 -70 -124q47 -55 129 -124zM255 390q124 56 124 136q0 39 -20.5 62t-58.5 23q-89 0 -89 -98q0 -60 44 -123zM209 317q-88 -46 -88 -137q0 -52 33.5 -94t101.5 -42q69 0 129 47
q-76 77 -176 226z" />
    <glyph glyph-name="quotesingle" unicode="'" horiz-adv-x="141" 
d="M88 414h-33q-23 200 -23 219q0 44 41 44q39 0 39 -44q0 -9 -24 -219z" />
    <glyph glyph-name="parenleft" unicode="(" horiz-adv-x="287" 
d="M279 -157l-21 -27q-102 84 -159 205.5t-57 254.5q0 131 53.5 251t160.5 214l23 -28q-87 -105 -126 -202.5t-39 -234.5q0 -228 165 -433z" />
    <glyph glyph-name="parenright" unicode=")" horiz-adv-x="287" 
d="M8 712l21 28q101 -85 157.5 -206t56.5 -255q0 -132 -53 -252t-159 -212l-23 26q87 108 126.5 205t39.5 233q0 226 -166 433z" />
    <glyph glyph-name="asterisk" unicode="*" horiz-adv-x="382" 
d="M204 511q59 39 78.5 50.5t31.5 11.5q13 0 23 -10.5t10 -24.5q0 -32 -33 -38q-15 -2 -107 -13q60 -50 77.5 -69t17.5 -36q0 -14 -11.5 -24t-25.5 -10q-5 0 -9.5 1t-8.5 4t-7 6t-6.5 10l-6.5 13t-7.5 17t-8.5 20.5t-10 25t-12 29.5q-28 -79 -42.5 -102.5t-33.5 -23.5
q-13 0 -24 10.5t-11 25.5q0 27 95 105q-79 7 -104 11q-18 3 -26 11t-8 26q0 15 9.5 26.5t25.5 11.5q11 0 83 -46q6 -3 9.5 -5.5t9 -6t10.5 -6.5q-4 18 -11 45t-11 44.5t-4 29.5q0 18 10.5 26.5t23.5 8.5q35 0 35 -35q0 -12 -3 -29t-9 -45.5t-9 -44.5z" />
    <glyph glyph-name="plus" unicode="+" horiz-adv-x="557" 
d="M306 61h-57v203h-183v59h183v205h57v-205h184v-59h-184v-203z" />
    <glyph glyph-name="comma" unicode="," horiz-adv-x="201" 
d="M52 -186l-28 25q64 74 64 124q0 28 -21 50q-16 14 -16 39q0 21 15.5 35t36.5 14q30 0 45.5 -21t15.5 -56q0 -101 -112 -210z" />
    <glyph glyph-name="hyphen" unicode="-" horiz-adv-x="248" 
d="M218 260v-65h-190v65h190z" />
    <glyph glyph-name="period" unicode="." horiz-adv-x="199" 
d="M156 50q0 -27 -15.5 -43.5t-40.5 -16.5q-24 0 -40.5 16t-16.5 41t16.5 41t39.5 16q25 0 41 -15t16 -39z" />
    <glyph glyph-name="slash" unicode="/" horiz-adv-x="318" 
d="M297 688l-229 -758h-53l229 758h53z" />
    <glyph glyph-name="zero" unicode="0" horiz-adv-x="495" 
d="M462 334q0 -165 -59 -256.5t-157 -91.5q-99 0 -156 84.5t-57 228.5q0 153 62.5 245t160.5 92q94 0 150 -82t56 -220zM382 309q0 279 -133 279q-65 0 -101 -67t-36 -205q0 -284 139 -284q131 0 131 277z" />
    <glyph glyph-name="one" unicode="1" horiz-adv-x="495" 
d="M385 -1q-78 2 -127 2q-48 0 -128 -2v36q73 5 82 18q8 10 8 59v269q0 93 -4 125q-3 29 -24 29t-65 -10l-11 33q137 67 166 83l17 -12q-5 -120 -5 -247v-271q0 -47 7 -57q10 -15 84 -19v-36z" />
    <glyph glyph-name="two" unicode="2" horiz-adv-x="495" 
d="M433 0h-405v46q164 130 238.5 218.5t74.5 178.5q0 131 -117 131q-29 0 -68 -18.5t-70 -51.5l-29 36q85 96 197 96q78 0 122.5 -46.5t44.5 -130.5q0 -99 -75.5 -191.5t-225.5 -196.5q59 0 132.5 0.5t114 1t66.5 0.5v-73z" />
    <glyph glyph-name="three" unicode="3" horiz-adv-x="495" 
d="M262 351q81 -3 120 -41t39 -104q0 -58 -35.5 -106.5t-87 -76.5t-104 -43.5t-92.5 -15.5q-32 0 -41 30q-4 11 -4 32q283 0 283 169q0 53 -33.5 83.5t-96.5 30.5q-36 0 -74 -7l-6 44q35 5 67 17q110 42 110 131q0 83 -85 83q-67 0 -131 -58l-27 38q90 77 182 77
q67 0 103 -35t36 -90q0 -106 -123 -158z" />
    <glyph glyph-name="four" unicode="4" horiz-adv-x="495" 
d="M375 220h89v-64h-88v-183h-73v182h-271v39l284 434h60q-1 -41 -1 -137v-271zM108 217h195q0 206 4 315z" />
    <glyph glyph-name="five" unicode="5" horiz-adv-x="495" 
d="M156 410q138 -7 200.5 -62t62.5 -139q0 -60 -32 -109t-80.5 -77.5t-99.5 -43.5t-96 -15q-40 0 -47 32q-4 15 -4 30q139 0 210 39t71 129q0 142 -246 157l61 272h275l-13 -71h-232z" />
    <glyph glyph-name="six" unicode="6" horiz-adv-x="495" 
d="M134 313q20 32 60.5 53t91.5 21q78 0 120 -54.5t42 -130.5q0 -93 -53.5 -154.5t-149.5 -61.5q-94 0 -144 71t-50 171q0 83 25 154.5t61.5 118t87 85t91.5 58.5t84 34l15 -40q-122 -54 -189.5 -128t-91.5 -197zM372 183q0 69 -28 110.5t-89 41.5q-40 0 -74.5 -23.5
t-51.5 -54.5v-15q0 -106 34.5 -158.5t90.5 -52.5q57 0 87.5 41t30.5 111z" />
    <glyph glyph-name="seven" unicode="7" horiz-adv-x="495" 
d="M373 553h-329v70h391l11 -21l-265 -641l-55 19z" />
    <glyph glyph-name="eight" unicode="8" horiz-adv-x="495" 
d="M182 316q-100 66 -100 162q0 69 47 113.5t129 44.5q77 0 117.5 -38t40.5 -106q0 -92 -110 -156q72 -41 101 -83.5t29 -96.5q0 -74 -54 -121.5t-139 -47.5q-83 0 -134 44.5t-51 118.5q0 104 124 166zM212 295q-88 -61 -88 -141q0 -56 33 -89t87 -33q52 0 84 29.5t32 76.5
q0 50 -33.5 83t-114.5 74zM271 357q83 58 83 132q0 46 -26 75.5t-72 29.5q-47 0 -75 -27.5t-28 -70.5q0 -42 26 -73.5t92 -65.5z" />
    <glyph glyph-name="nine" unicode="9" horiz-adv-x="495" 
d="M360 308q-22 -31 -63 -52.5t-89 -21.5q-79 0 -121.5 54.5t-42.5 130.5q0 94 53.5 155.5t149.5 61.5q94 0 144.5 -71.5t50.5 -171.5q0 -83 -25 -154t-61.5 -118t-87 -85t-91.5 -58t-85 -34l-16 39q123 55 191.5 129t92.5 196zM121 440q0 -152 117 -152q40 0 75 24t52 55
v15q0 104 -35 155.5t-92 51.5q-55 0 -86 -41t-31 -108z" />
    <glyph glyph-name="colon" unicode=":" horiz-adv-x="218" 
d="M178 50q0 -28 -15.5 -44t-41.5 -16q-25 0 -41.5 16t-16.5 41t16.5 41t40.5 16q25 0 40.5 -15t17.5 -39zM178 355q0 -28 -15.5 -44t-41.5 -16q-25 0 -41.5 16t-16.5 41t16.5 41t40.5 16q25 0 40.5 -15t17.5 -39z" />
    <glyph glyph-name="semicolon" unicode=";" horiz-adv-x="218" 
d="M71 -186l-28 25q64 75 64 124q0 28 -23 50q-14 14 -14 39q0 21 15 35t36 14q29 0 45 -21t16 -56q0 -100 -111 -210zM178 355q0 -28 -15.5 -44t-41.5 -16q-25 0 -41.5 16t-16.5 41t16.5 41t40.5 16q26 0 42 -15t16 -39z" />
    <glyph glyph-name="less" unicode="&#x3c;" horiz-adv-x="556" 
d="M446 68l-359 193v65l359 196v-69l-300 -158l300 -156v-71z" />
    <glyph glyph-name="equal" unicode="=" horiz-adv-x="556" 
d="M492 187h-429v59h429v-59zM492 351h-429v59h429v-59z" />
    <glyph glyph-name="greater" unicode="&#x3e;" horiz-adv-x="556" 
d="M110 522l358 -193v-64l-358 -197v69l299 159l-299 155v71z" />
    <glyph glyph-name="question" unicode="?" horiz-adv-x="360" 
d="M158 196h-37q-7 63 -7 109q0 30 12.5 44.5t39.5 26.5q54 23 73 41.5t19 60.5q0 50 -35.5 86t-119.5 36q-30 0 -51 -4q-2 20 -2 36q0 19 13.5 30t34.5 11q86 0 160 -57.5t74 -143.5q0 -53 -30 -89.5t-106 -70.5q-29 -12 -34 -49q-1 -6 -1.5 -15.5t-1 -24.5t-1.5 -27z
M200 50q0 -27 -16 -43.5t-42 -16.5q-24 0 -40.5 16t-16.5 41t16.5 41t40.5 16q26 0 42 -15t16 -39z" />
    <glyph glyph-name="at" unicode="@" horiz-adv-x="736" 
d="M678 -7q-127 -124 -300 -124q-145 0 -234 87t-89 236q0 105 45 196.5t130 149t192 57.5q73 0 128 -25t82.5 -64t40.5 -77.5t13 -75.5q0 -160 -123 -257q-30 -23 -63 -37t-54 -14q-29 0 -29 43q0 12 1 27q-85 -72 -152 -72q-29 0 -47.5 21.5t-18.5 60.5q0 64 26.5 132.5
t73.5 115.5q54 54 138 54q23 0 50 -3l10 25l41 -6l-51 -223q-11 -51 -11 -95q0 -20 11 -20t30 8t34 22q41 39 63 97.5t22 122.5q0 90 -60 144.5t-157 54.5q-135 0 -221.5 -103t-86.5 -263q0 -121 76 -196t192 -75q163 0 273 105zM419 146l45 206q2 10 2 13q0 11 -12 14
q-20 5 -40 5q-57 0 -93 -52q-59 -89 -59 -189q0 -43 34 -43q45 0 123 46z" />
    <glyph glyph-name="A" unicode="A" horiz-adv-x="617" 
d="M241 -1q-96 2 -126 2q-25 0 -111 -2v36q45 5 57 17q16 14 49 101l181 492h52l167 -497q29 -85 44 -99q8 -8 59 -14v-36q-92 2 -110 2q-37 0 -141 -2v36q51 4 67 11t16 22q0 21 -22 85l-26 82h-200l-28 -81q-23 -65 -23 -88q0 -14 18 -20.5t77 -10.5v-36zM212 279h171
q-65 197 -83 256q-23 -73 -88 -256z" />
    <glyph glyph-name="B" unicode="B" horiz-adv-x="558" 
d="M30 -1v36q58 5 67 10q11 5 14 15t3 48v428q0 47 -6 54q-12 13 -78 18v36h161q99 0 153 -7q139 -20 139 -144q0 -119 -126 -150q79 -9 120.5 -49.5t41.5 -107.5q0 -107 -90 -156q-57 -32 -153 -32q-18 0 -62.5 1.5t-70.5 1.5q-43 0 -113 -2zM191 361h23q79 0 105 10
q45 15 64 43t19 72q0 84 -74 104q-34 10 -137 10v-239zM191 82q0 -18 5.5 -23.5t22.5 -9.5q16 -4 61 -4q74 0 114.5 34.5t40.5 100.5q0 79 -58 110q-47 25 -166 25h-20v-233z" />
    <glyph glyph-name="C" unicode="C" horiz-adv-x="625" 
d="M578 171q-8 -73 -27 -123q-11 -28 -35 -38q-57 -24 -163 -24q-140 0 -226 85t-86 239q0 161 91.5 254.5t243.5 93.5q93 0 153 -22q24 -9 30 -32q7 -26 7 -135l-35 -3q-17 74 -27 93q-8 18 -28 28q-42 20 -107 20q-111 0 -178 -75.5t-67 -212.5q0 -132 64.5 -207.5
t173.5 -75.5q60 0 97 15q21 10 36 27q18 22 47 100z" />
    <glyph glyph-name="D" unicode="D" horiz-adv-x="660" 
d="M30 -1v36q69 6 77 16q7 8 7 56v428q0 43 -4 52q-5 9 -17.5 12t-62.5 9v35h131q143 0 214 -12t119 -40q125 -73 125 -257q0 -168 -88.5 -252t-247.5 -84q-10 0 -66 1.5t-71 1.5q-26 0 -116 -2zM192 88q0 -18 5.5 -24.5t22.5 -9.5q31 -5 82 -5q112 0 172 72t60 204
q0 88 -31.5 149.5t-88.5 87.5q-72 34 -222 34v-508z" />
    <glyph glyph-name="E" unicode="E" horiz-adv-x="533" 
d="M504 164q-7 -93 -24 -139q-6 -16 -19 -20.5t-43 -4.5h-388v35q68 7 76 16q8 8 8 60v425q0 47 -6 53q-10 12 -78 19v35h367q35 0 45.5 -6t12.5 -23q6 -40 6 -124l-34 -2q-16 77 -33 93q-13 11 -38 14t-87 3q-32 0 -78 -2v-238h9q73 0 101 4t41 15q9 9 19 63h36
q-1 -24 -1 -102q0 -69 1 -109h-34q-11 57 -20 67q-11 11 -39.5 13.5t-103.5 2.5h-9v-220q0 -35 26 -40q35 -7 74 -7q110 0 133 25q14 15 48 101z" />
    <glyph glyph-name="F" unicode="F" horiz-adv-x="504" 
d="M289 -1q-78 2 -132 2q-86 0 -127 -1v35q62 6 73 15q11 11 11 62v425q0 46 -7 53q-10 12 -77 18v35h372q33 0 43 -7t12 -25q6 -53 6 -121l-34 -2q-17 78 -35 93q-12 11 -35 14t-87 3q-41 0 -81 -2v-250h9q75 0 103.5 4t39.5 15q11 12 19 64h36q-2 -52 -2 -104
q0 -8 0.5 -47t0.5 -61h-33q-11 57 -20 67q-9 11 -37 13.5t-106 2.5h-10v-183q0 -53 9 -62q14 -14 89 -20v-36z" />
    <glyph glyph-name="G" unicode="G" horiz-adv-x="653" 
d="M564 61q0 -24 -8 -34t-28 -16q-72 -25 -175 -25q-140 0 -226 85t-86 239q0 159 91.5 253.5t246.5 94.5q101 0 155 -23q21 -9 27 -34q6 -29 6 -132l-35 -2q-16 76 -30 99q-11 16 -29 24q-37 17 -105 17q-109 0 -176.5 -75.5t-67.5 -212.5q0 -132 64.5 -207.5t170.5 -75.5
q58 0 96 12q21 6 26 16q7 12 7 72v50q0 40 -9 49q-14 12 -73 18v37q54 -2 105 -2q39 0 109 2v-37q-42 -3 -50 -15q-6 -9 -6 -52v-125z" />
    <glyph glyph-name="H" unicode="H" horiz-adv-x="702" 
d="M280 -1q-82 2 -126 2q-40 0 -124 -2v36q67 5 77 16q7 7 7 60v423q0 49 -7 57q-7 10 -77 17v36q84 -2 124 -2q44 0 126 2v-36q-74 -7 -82 -18q-6 -8 -6 -55v-174h315v173q0 49 -6 57q-7 10 -79 17v36q86 -2 125 -2q45 0 125 2v-36q-72 -7 -82 -18q-6 -8 -6 -55v-425
q0 -50 7 -58q9 -11 81 -17v-36q-80 2 -125 2q-39 0 -125 -2v36q69 5 78 15q7 7 7 60v203h-315v-203q0 -51 6 -58q10 -12 82 -17v-36z" />
    <glyph glyph-name="I" unicode="I" horiz-adv-x="307" 
d="M278 -1q-82 2 -123 2t-125 -2v36q67 5 77 16q7 7 7 60v423q0 47 -7 57q-8 11 -77 17v36q84 -2 125 -2t123 2v-36q-70 -7 -80 -18q-6 -8 -6 -55v-425q0 -50 7 -58q9 -12 79 -17v-36z" />
    <glyph glyph-name="J" unicode="J" horiz-adv-x="292" 
d="M40 -161l-27 27q51 51 73 107t23 131q2 318 2 424q0 55 -8 63q-12 11 -79 17v36q82 -2 126 -2q51 0 121 2v-36q-65 -8 -74 -18q-8 -8 -8 -56q0 -81 0.5 -219.5t0.5 -181.5q0 -102 -32 -159q-40 -70 -118 -135z" />
    <glyph glyph-name="K" unicode="K" horiz-adv-x="599" 
d="M576 -25q-79 23 -133 72q-101 89 -236 282q94 93 172 191q40 49 40 65q0 19 -68 23v36q41 -2 128 -2q61 0 102 2v-36q-39 -5 -53 -14q-24 -17 -52 -48q-22 -24 -183 -196q99 -138 165 -213t136 -131zM277 -1q-82 2 -122 2q-41 0 -125 -2v36q67 5 77 16q7 7 7 60v423
q0 47 -7 57t-77 17v36q84 -2 125 -2q40 0 122 2v-36q-71 -7 -79 -18q-6 -8 -6 -55v-425q0 -50 7 -58q9 -12 78 -17v-36z" />
    <glyph glyph-name="L" unicode="L" horiz-adv-x="524" 
d="M504 165q-7 -77 -20 -127q-6 -23 -17 -30.5t-43 -7.5h-394v35q66 5 76 16q8 8 8 62v423q0 49 -8 57q-9 9 -76 15v36q96 -2 123 -2q32 0 124 2v-36q-66 -3 -77 -16q-8 -11 -8 -55v-445q0 -20 5 -28.5t20 -11.5q35 -7 74 -7q108 0 134 28q18 19 45 98z" />
    <glyph glyph-name="M" unicode="M" horiz-adv-x="803" 
d="M251 -1q-80 2 -109 2q-25 0 -121 -2v36q61 3 71 13q12 12 15 80q17 413 17 431q0 24 -7 32q-10 12 -78 17v36q42 -2 94 -2q72 0 85 1q1 -3 179 -511q160 430 187 512q22 -2 86 -2q47 0 101 2v-36q-75 -5 -82 -16q-8 -9 -8 -52q0 -50 3 -415q1 -61 8 -71q4 -8 18.5 -12
t65.5 -7v-36q-94 2 -136 2q-9 0 -119 -2v36q68 3 79 18q6 9 6 47q0 98 -1 449q-34 -96 -206 -549h-37q-157 445 -188 540q-13 -321 -13 -448q0 -35 10 -44t80 -13v-36z" />
    <glyph glyph-name="N" unicode="N" horiz-adv-x="691" 
d="M260 -1q-102 2 -117 2q-10 0 -114 -2v36q70 3 80 19q5 9 5 80q0 46 0.5 138t1.5 164v73q0 61 -6 72q-7 15 -30 20t-52 7v36q42 -2 87 -2q41 0 74 2q181 -258 346 -489q-2 239 -5 354q-1 70 -8 81q-8 13 -78 18v36q102 -2 113 -2q15 0 117 2v-36q-68 -6 -79 -17
q-10 -10 -10 -82q0 -48 -0.5 -165.5t-0.5 -175.5q0 -24 1 -87.5t1 -80.5h-45q-3 4 -42.5 62.5t-125 181t-206.5 290.5q0 -55 1 -151t2 -167.5t1 -82.5q0 -73 7 -81q10 -12 82 -17v-36z" />
    <glyph glyph-name="O" unicode="O" horiz-adv-x="674" 
d="M633 325q0 -150 -82.5 -244.5t-211.5 -94.5q-140 0 -219 93t-79 243q0 147 85 241.5t214 94.5q140 0 216.5 -88.5t76.5 -244.5zM552 311q0 135 -59 215.5t-157 80.5q-96 0 -154 -73t-58 -200q0 -143 59 -220.5t160 -77.5q96 0 152.5 73t56.5 202z" />
    <glyph glyph-name="P" unicode="P" horiz-adv-x="531" 
d="M288 -1q-96 2 -123 2t-135 -2v36q52 5 66 11q12 5 15 14t3 45v435q0 42 -9 53q-10 10 -75 15v36h169q114 0 160 -9q146 -30 146 -178q0 -93 -61 -142t-175 -49q-53 0 -77 3v-160q0 -49 9 -58t87 -16v-36zM192 314q22 -2 64 -2q165 0 165 138q0 110 -87 135
q-47 13 -142 13v-284z" />
    <glyph glyph-name="Q" unicode="Q" horiz-adv-x="674" 
d="M633 325q0 -128 -61.5 -217.5t-162.5 -113.5q89 -70 149 -99q83 -41 152 -56l-7 -37q-119 6 -207 50q-96 49 -203 137q-120 15 -186 105.5t-66 227.5q0 147 85 241.5t214 94.5q140 0 216.5 -88.5t76.5 -244.5zM552 311q0 135 -59 215.5t-157 80.5q-96 0 -154 -73
t-58 -200q0 -143 59 -220.5t160 -77.5q96 0 152.5 73t56.5 202z" />
    <glyph glyph-name="R" unicode="R" horiz-adv-x="587" 
d="M281 -1q-96 2 -138 2q-9 0 -113 -2v36q69 5 79 18q5 9 5 57v426q0 46 -5 54q-6 11 -79 18v36h139q121 0 179 -11q139 -27 139 -169q0 -55 -31.5 -98.5t-89.5 -65.5q68 -131 122 -197q48 -61 96 -96l-18 -32q-73 25 -125 77q-69 66 -160 231q-12 -2 -43 -2q-22 0 -46 2
v-172q0 -47 6 -56q12 -16 83 -20v-36zM192 329q25 -3 53 -3q79 0 118 36t39 98q0 95 -75 125q-42 16 -135 16v-272z" />
    <glyph glyph-name="S" unicode="S" horiz-adv-x="463" 
d="M80 178q18 -83 36 -105q36 -40 113 -40q56 0 90.5 29.5t34.5 70.5q0 43 -21 72t-91 69l-53 30q-75 43 -101.5 84.5t-26.5 98.5q0 79 59 124.5t150 46.5q71 0 112 -16q21 -7 25 -36q6 -47 6 -125l-35 -2q-14 70 -28 94q-22 37 -99 37q-54 0 -87.5 -27.5t-33.5 -74.5
q0 -39 20 -65.5t75 -59.5l55 -33q86 -53 116 -90.5t30 -95.5q0 -79 -57 -129t-151 -50q-76 0 -135 24q-17 7 -24.5 17.5t-9.5 33.5q-4 33 -7 115z" />
    <glyph glyph-name="T" unicode="T" horiz-adv-x="569" 
d="M413 -1q-72 2 -123 2q-59 0 -133 -2v36q74 5 82 20q5 10 5 61v483q-125 -2 -144 -14q-13 -9 -21 -31.5t-22 -82.5l-34 2q2 84 7 142q2 28 30 28h452q16 0 21.5 -6t7.5 -23q4 -36 4 -140l-34 -2q-17 88 -34 104q-22 22 -155 23v-482q0 -53 5 -62q6 -12 86 -20v-36z" />
    <glyph glyph-name="U" unicode="U" horiz-adv-x="674" 
d="M656 608q-72 -7 -77 -21q-6 -12 -6 -61v-235q0 -89 -11.5 -141.5t-38.5 -87.5q-62 -77 -192 -77q-143 0 -196 90q-19 31 -26 76.5t-7 142.5q0 44 1 128t1 114q0 42 -6 52q-5 9 -20 12.5t-60 7.5v36q76 -2 133 -2q47 0 121 2v-36q-73 -5 -83 -18q-8 -9 -8 -51
q-1 -73 -1 -242q0 -121 15 -166q31 -91 155 -91q50 0 88.5 19.5t55.5 49.5q29 49 29 205q0 42 -5 220q-2 52 -13 60q-4 3 -8.5 4.5t-12 3t-13.5 2t-19 2t-22 2.5v36q35 -1 111 -1q10 0 53.5 0.5t61.5 0.5v-36z" />
    <glyph glyph-name="V" unicode="V" horiz-adv-x="622" 
d="M328 -5h-52l-171 502q-27 81 -43 95q-10 10 -57 16v36q46 -2 121 -2q77 0 130 2v-36q-56 -5 -72 -10t-16 -20q0 -23 21 -86q34 -107 130 -383q19 54 50.5 143t53.5 150t30 86q20 60 20 86q0 15 -16 22.5t-68 11.5v36q49 -2 117 -2t112 2v-36q-46 -6 -59 -20
q-17 -17 -46 -96z" />
    <glyph glyph-name="W" unicode="W" horiz-adv-x="870" 
d="M275 -5h-51l-127 518q-18 76 -35 85q-12 7 -53 10v36q120 -2 124 -2q90 0 126 2v-36q-58 -4 -74.5 -10t-16.5 -23q0 -12 16 -80l85 -364l160 512h46l152 -513l84 352q15 64 15 85q0 18 -17.5 26.5t-74.5 14.5v36q47 -2 123 -2q35 0 105 2v-36q-46 -6 -60 -20
q-3 -3 -5.5 -7.5t-5 -11t-4.5 -12t-5 -16.5t-5 -18.5t-6 -23.5t-7 -27l-124 -477h-51l-153 505z" />
    <glyph glyph-name="X" unicode="X" horiz-adv-x="611" 
d="M604 -1q-118 2 -130 2q-15 0 -123 -2v36q44 3 59.5 8.5t15.5 19.5q0 9 -23 47l-111 175l-106 -171q-22 -35 -22 -51q0 -14 16 -19.5t63 -8.5v-36q-98 2 -125 2q-5 0 -111 -2v35q52 6 67 20q22 20 57 74l134 199l-132 203q-35 56 -49 65q-16 10 -53 13v36q108 -2 131 -2
q62 0 120 2v-36q-47 -3 -61.5 -8.5t-14.5 -17.5q0 -19 26 -60l89 -142l84 131q32 49 32 70q0 13 -13 18.5t-61 8.5v36q60 -2 112 -2q37 0 105 2v-36q-36 -3 -52 -14q-9 -7 -65 -86l-116 -166l134 -211q36 -58 57 -77q15 -15 66 -19v-36z" />
    <glyph glyph-name="Y" unicode="Y" horiz-adv-x="570" 
d="M413 -1q-102 2 -124 2q-33 0 -129 -2v36q47 3 61 7.5t19 12.5q6 8 6 48v164l-146 262q-32 58 -44 66q-16 10 -52 13v36q108 -2 112 -2q30 0 128 2v-36q-34 -1 -51.5 -4.5t-21.5 -7.5t-4 -12q0 -19 43 -97l92 -167l96 179q36 68 36 87q0 13 -15 17t-58 5v36q45 -2 115 -2
q50 0 90 2v-36q-34 -5 -45 -14q-21 -17 -64 -92l-134 -234v-165q0 -37 3 -46t20 -13.5t67 -8.5v-36z" />
    <glyph glyph-name="Z" unicode="Z" horiz-adv-x="558" 
d="M32 0v32l373 567q-256 -3 -276 -17q-12 -9 -19.5 -29t-21.5 -75l-32 2q3 78 8 131q3 32 29 32h417v-29l-372 -563q57 -3 127 -3q107 0 142 6t51 23q15 17 35 104l32 -2q0 -89 -6 -144q-2 -18 -9.5 -26.5t-28.5 -8.5h-449z" />
    <glyph glyph-name="bracketleft" unicode="[" horiz-adv-x="275" 
d="M263 -163h-171v882h171v-40h-105v-801h105v-41z" />
    <glyph glyph-name="backslash" unicode="\" horiz-adv-x="318" 
d="M253 -70l-229 758h51l230 -758h-52z" />
    <glyph glyph-name="bracketright" unicode="]" horiz-adv-x="275" 
d="M12 719h171v-882h-171v41h106v801h-106v40z" />
    <glyph glyph-name="asciicircum" unicode="^" horiz-adv-x="556" 
d="M455 352h-62l-115 252l-115 -252h-63l149 320h62z" />
    <glyph glyph-name="underscore" unicode="_" horiz-adv-x="467" 
d="M469 -128h-471v52h471v-52z" />
    <glyph glyph-name="grave" unicode="`" horiz-adv-x="280" 
d="M220 521l-27 -21l-107 111q-29 29 -29 46q0 15 12 25.5t26 10.5q13 0 22 -6.5t23 -30.5z" />
    <glyph glyph-name="a" unicode="a" horiz-adv-x="437" 
d="M431 34q-19 -18 -44.5 -31t-45.5 -13q-46 0 -59 53q-57 -54 -126 -54q-52 0 -86.5 35t-34.5 89q0 39 17.5 63t72 40t149.5 16q0 91 -12 111q-18 32 -74 32q-62 0 -113 -34q-10 16 -10 33q0 24 37 41q47 22 112 22q70 0 103 -35q26 -29 26 -96q0 -8 -0.5 -90.5t-0.5 -87.5
q0 -40 9 -58.5t33 -18.5q7 0 21 4.5t15 4.5zM276 74l-2 116q-70 0 -108 -11.5t-47.5 -26t-9.5 -37.5q0 -30 20 -50.5t52 -20.5q42 0 95 30z" />
    <glyph glyph-name="b" unicode="b" horiz-adv-x="508" 
d="M120 -21l-34 6q2 88 2 160q0 39 -0.5 164.5t-0.5 213.5q0 85 -13 105t-55 26v22q76 53 118 53q20 0 20 -31q0 -37 -0.5 -166.5t-0.5 -155.5q75 59 147 59q77 0 121.5 -58.5t44.5 -149.5q0 -105 -58.5 -169.5t-163.5 -64.5q-65 0 -111 19zM156 343q0 -228 1 -244
q1 -20 15 -34q27 -25 86 -25q73 0 104 44t31 132q0 69 -31.5 112t-89.5 43q-60 0 -116 -28z" />
    <glyph glyph-name="c" unicode="c" horiz-adv-x="405" 
d="M388 57q-76 -70 -158 -70q-89 0 -139.5 58t-50.5 152q0 103 63 171t157 68q57 0 94 -21q17 -7 17 -25q0 -21 -29 -58q-43 43 -113 43q-53 0 -87 -39.5t-34 -119.5q0 -77 40.5 -121t104.5 -44q53 0 116 38z" />
    <glyph glyph-name="d" unicode="d" horiz-adv-x="525" 
d="M505 29q-67 -40 -98 -40q-41 0 -47 60q-66 -61 -144 -61q-80 0 -128 58.5t-48 145.5q0 106 64 174t169 68q41 0 85 -10v98q0 90 -13 108q-13 19 -55 25v22q78 53 115 53q22 0 22 -30q0 -35 -0.5 -229t-0.5 -333q0 -52 8.5 -66.5t30.5 -14.5q16 0 40 3v-31zM358 85v210
q0 49 -9 61q-23 30 -93 30q-62 0 -101 -41t-39 -119q0 -88 35.5 -133.5t95.5 -45.5q56 0 111 38z" />
    <glyph glyph-name="e" unicode="e" horiz-adv-x="430" 
d="M403 59q-80 -72 -169 -72q-91 0 -142 59.5t-51 154.5q0 108 56.5 171.5t142.5 63.5q42 0 73.5 -15.5t49 -41t25.5 -55t8 -61.5q0 -30 -35 -30h-253v-9q0 -80 38 -126.5t108 -46.5q66 0 128 40zM111 271l215 8q-4 54 -31 82t-70 28q-47 0 -77 -31.5t-37 -86.5z" />
    <glyph glyph-name="f" unicode="f" horiz-adv-x="289" 
d="M264 -1q-84 2 -122 2q-28 0 -114 -2v36q60 6 67 18q6 8 6 46q0 33 -0.5 96t-0.5 113.5v51.5q-50 0 -78 6v30q10 4 54 15q12 3 16.5 12.5t5.5 35.5q2 96 19.5 144t55.5 81q53 46 128 46q46 0 74 -14q14 -7 14 -26q0 -24 -25 -53q-40 34 -100 34q-45 0 -70 -36
q-22 -33 -22 -150v-72q70 0 117 -4v-43q-50 -6 -117 -6q0 -1 -1 -50.5t-1.5 -108.5t-0.5 -82q0 -56 11 -67q12 -12 84 -17v-36z" />
    <glyph glyph-name="g" unicode="g" horiz-adv-x="457" 
d="M312 259q0 134 -96 134q-42 0 -67.5 -29t-25.5 -77q0 -131 94 -131q44 0 69.5 27.5t25.5 75.5zM147 121q-28 -28 -28 -54q0 -17 23 -26q21 -7 74 -10q81 -4 124 -11q58 -10 83 -34.5t25 -75.5q0 -79 -69 -130t-175 -51q-88 0 -139.5 38.5t-51.5 91.5q0 37 27 64
q30 29 89 55q-38 11 -53.5 27t-15.5 40q0 39 57 93q-68 42 -68 132q0 73 48 119.5t123 46.5q52 0 92 -23q96 0 139 -6v-43q-22 -3 -83 -6q16 -27 16 -80q0 -77 -49 -121t-127 -44q-37 0 -61 8zM217 -36q-39 0 -56 -8q-79 -33 -79 -88q0 -39 34.5 -64.5t108.5 -25.5
q69 0 110 30.5t41 76.5q0 41 -34 60t-125 19z" />
    <glyph glyph-name="h" unicode="h" horiz-adv-x="512" 
d="M231 -1q-78 2 -111 2q-23 0 -101 -2v35q57 6 64 15q9 11 9 50q0 52 -0.5 230.5t-0.5 190.5q0 69 -4 86q-9 44 -63 49v22q79 53 116 53q21 0 21 -29q0 -37 -0.5 -167.5t-0.5 -159.5q77 61 145 61q52 0 84 -30q34 -34 34 -121q0 -4 -1 -93t-1 -92q0 -38 6 -48q8 -11 69 -17
v-35q-76 2 -116 2q-17 0 -97 -2v35q53 5 61 16q9 9 9 51q0 129 -2 176t-15 66q-21 30 -65 30q-65 0 -111 -28q0 -11 -0.5 -128t-0.5 -118q0 -41 7 -49q8 -10 65 -16v-35z" />
    <glyph glyph-name="i" unicode="i" horiz-adv-x="268" 
d="M247 -1q-78 2 -110 2q-27 0 -109 -2v35q56 6 64 13q9 9 9 50q0 171 -2 197q-3 32 -10 40q-13 17 -56 24v22q69 54 109 54q28 0 28 -40v-96t-0.5 -135t-0.5 -65q0 -39 7 -49t71 -15v-35zM175 619q0 -24 -14 -40t-39 -16q-23 0 -37 16t-14 39q0 24 14.5 40t38.5 16
q26 0 38.5 -15.5t12.5 -39.5z" />
    <glyph glyph-name="j" unicode="j" horiz-adv-x="233" 
d="M31 -267l-28 26q36 45 56 86q22 49 22 144q0 12 1 68.5t1 99.5q0 105 -2 137q-1 30 -10 41q-15 17 -56 23v22q67 54 111 54q26 0 26 -38q0 -10 -0.5 -71.5t-0.5 -91.5q0 -57 0.5 -140.5t0.5 -88.5q0 -63 -6.5 -99t-26.5 -69q-21 -36 -88 -103zM157 619q0 -24 -14 -40
t-39 -16q-23 0 -37 16t-14 39q0 24 14.5 40t38.5 16q26 0 38.5 -15.5t12.5 -39.5z" />
    <glyph glyph-name="k" unicode="k" horiz-adv-x="468" 
d="M234 -1q-78 2 -112 2q-25 0 -103 -2v35q58 6 65 15q8 10 8 51q0 52 -0.5 228.5t-0.5 190.5q0 73 -6 99q-8 31 -61 37v22q78 53 116 53q21 0 21 -29q0 -89 -0.5 -305t-0.5 -295q0 -44 6 -51q8 -11 68 -16v-35zM448 -21q-66 15 -116 57q-29 25 -59.5 60t-48 58.5
t-51.5 71.5q34 29 90 86q32 32 32 52q0 11 -10.5 16t-41.5 6v37q42 -2 107 -2q48 0 90 2v-37q-25 -2 -46 -10q-22 -9 -71 -58q-13 -13 -76 -73q111 -165 218 -233z" />
    <glyph glyph-name="l" unicode="l" horiz-adv-x="256" 
d="M234 -1q-78 2 -112 2q-25 0 -103 -2v35q58 6 65 15q8 10 8 51q0 52 -0.5 228.5t-0.5 190.5q0 81 -7 102q-10 28 -60 34v22q78 53 116 53q21 0 21 -29q0 -89 -0.5 -305t-0.5 -295q0 -44 6 -51q8 -11 68 -16v-35z" />
    <glyph glyph-name="m" unicode="m" horiz-adv-x="775" 
d="M239 -1q-78 2 -111 2q-18 0 -100 -2v35q59 7 65 15q8 8 8 49q0 158 -2 193q-2 31 -10 42q-14 17 -56 25v22q68 54 107 54q26 0 28 -60q69 61 143 61q80 0 102 -62q77 62 148 62q51 0 83 -30q35 -35 35 -121q0 -4 -0.5 -93t-0.5 -92q0 -37 6 -47q7 -12 69 -18v-35
q-76 2 -115 2q-60 0 -99 -2v35q53 5 62 16q8 10 8 50q0 134 -1 176q-2 46 -16 66q-21 30 -68 30q-55 0 -103 -29q4 -32 4 -60q0 -4 -1 -92.5t-1 -91.5q0 -38 7 -48q6 -11 66 -17v-35q-78 2 -109 2q-22 0 -102 -2v35q50 4 62 16q8 10 8 50q0 129 -1 178q0 48 -15 67
q-21 28 -66 28q-56 0 -103 -29q0 -11 -0.5 -128t-0.5 -118q0 -41 7 -49q7 -9 63 -15v-35z" />
    <glyph glyph-name="n" unicode="n" horiz-adv-x="524" 
d="M240 -1q-80 2 -112 2q-18 0 -100 -2v35q59 7 65 15q8 8 8 49q0 161 -2 196q-2 30 -11 42q-14 16 -55 22v22q64 54 106 54q13 0 20 -11.5t9 -48.5q69 61 146 61q52 0 84 -30q33 -32 33 -121q0 -4 -1 -93.5t-1 -92.5q0 -34 6 -45q7 -13 69 -19v-35q-78 2 -110 2
q-25 0 -103 -2v35q54 5 62 16q8 8 8 50q0 130 -1 177q-2 48 -15 67q-21 29 -70 29q-58 0 -105 -29q0 -10 -0.5 -123t-0.5 -122q0 -41 7 -49q8 -10 64 -16v-35z" />
    <glyph glyph-name="o" unicode="o" horiz-adv-x="483" 
d="M443 218q0 -109 -58.5 -170t-144.5 -61q-96 0 -148 61.5t-52 162.5t59.5 163t145.5 62q96 0 147 -58.5t51 -159.5zM366 202q0 89 -30.5 139.5t-92.5 50.5q-58 0 -91 -44t-33 -123q0 -95 33 -144t91 -49q59 0 91 44t32 126z" />
    <glyph glyph-name="p" unicode="p" horiz-adv-x="506" 
d="M153 343q0 -122 1 -219q0 -42 8 -53q9 -13 36.5 -22.5t62.5 -9.5q60 0 95.5 42t35.5 118q0 87 -31 130t-99 43q-65 0 -109 -29zM237 -255q-66 2 -115 2q-33 0 -105 -2v35q56 5 65 15q6 7 6 41q0 88 -4 458q0 27 -11 40q-13 18 -56 24v22q70 54 108 54q25 0 27 -59
q73 60 145 60q80 0 124.5 -58.5t44.5 -147.5q0 -107 -58 -172t-164 -65q-42 0 -90 11v-157q0 -42 8 -49q12 -10 75 -17v-35z" />
    <glyph glyph-name="q" unicode="q" horiz-adv-x="514" 
d="M498 -255q-76 2 -109 2q-51 0 -115 -2v35q65 5 75 15q10 11 10 91v161q-73 -55 -139 -55q-86 0 -133 55.5t-47 146.5q0 102 64 171t161 69q55 0 111 -11l20 38l37 -7q-7 -75 -7 -157v-411q0 -79 6 -89q8 -12 66 -17v-35zM358 85v204q0 55 -10 67q-24 31 -92 31
q-63 0 -103.5 -43.5t-40.5 -117.5q0 -84 35.5 -130.5t99.5 -46.5q48 0 111 36z" />
    <glyph glyph-name="r" unicode="r" horiz-adv-x="337" 
d="M255 -1q-76 2 -126 2q-59 0 -101 -2v35q57 5 65 15q8 9 8 49q0 79 -2 197q0 23 -11 40q-9 15 -55 23v22q66 54 106 54q14 0 21 -13.5t8 -55.5q14 22 36 40q34 30 72 30q28 0 45 -12q14 -9 14 -25q0 -26 -29 -61q-33 26 -65 26q-35 0 -71 -32q0 -12 -0.5 -120t-0.5 -109
q0 -42 9 -52t77 -16v-35z" />
    <glyph glyph-name="s" unicode="s" horiz-adv-x="376" 
d="M72 137q15 -64 29 -80q20 -25 86 -25q36 0 58 16.5t22 44.5q0 39 -65 69l-66 30q-81 37 -81 117q0 55 41.5 91t113.5 36q54 0 82 -12q19 -8 23 -31q5 -33 5 -86l-33 -2q-11 43 -22 60q-16 27 -71 27q-37 0 -55.5 -18t-18.5 -43q0 -24 12 -41t54 -35l59 -26
q51 -23 68 -49.5t17 -62.5q0 -58 -42 -94.5t-122 -36.5q-55 0 -94 17q-23 9 -29 37q-6 31 -6 95z" />
    <glyph glyph-name="t" unicode="t" horiz-adv-x="288" 
d="M284 20q-53 -28 -106 -28q-92 0 -92 120q0 153 2 248q-54 2 -79 6v31q8 3 28 9t29 9q20 7 24 27q3 12 10 43t11 47h46v-119q59 0 119 -4v-43q-52 -6 -119 -6q-2 -92 -2 -190q0 -51 4 -76q6 -48 49 -48q32 0 66 9z" />
    <glyph glyph-name="u" unicode="u" horiz-adv-x="513" 
d="M492 29q-63 -40 -96 -40q-20 0 -32 13t-16 46q-68 -58 -134 -58q-72 0 -101.5 41t-29.5 126q0 8 0.5 61t0.5 72q0 60 -10 70q-12 12 -60 19v30q72 20 120 20q26 0 26 -27q0 -5 -2.5 -88.5t-2.5 -128.5q0 -75 19 -105t74 -30q41 0 98 33v208q0 60 -10 69q-14 11 -69 19v30
q78 20 124 20q29 0 29 -29q0 -3 -3 -95t-3 -166q0 -45 8 -66q8 -16 30 -16q20 0 40 3v-31z" />
    <glyph glyph-name="v" unicode="v" horiz-adv-x="457" 
d="M252 -4h-48l-126 315q-23 57 -35 66q-11 7 -39 11v35q60 -2 97 -2q39 0 103 2v-35q-41 -5 -43 -6q-20 -4 -20 -22q0 -10 17 -58l83 -219l80 216q19 50 19 64t-13 18q-18 5 -49 7v35q56 -2 95 -2q26 0 80 2v-35q-31 -4 -42 -13q-10 -9 -37 -75z" />
    <glyph glyph-name="w" unicode="w" horiz-adv-x="667" 
d="M215 -4h-48l-86 310q-14 53 -24 65t-50 17v35q41 -2 101 -2q59 0 105 2v-35q-2 0 -21.5 -2t-28.5 -4q-19 -4 -19 -23q0 -20 9 -53l54 -207l115 323h45l111 -324l54 199q13 50 13 63q0 14 -12 19q-6 2 -61 9v35q37 -2 104 -2q50 0 85 2v-35q-33 -4 -46 -12q-13 -9 -34 -82
l-87 -298h-48l-114 318z" />
    <glyph glyph-name="x" unicode="x" horiz-adv-x="472" 
d="M202 -1q-74 2 -98 2q-27 0 -97 -2v35q41 4 59 17q13 9 43 47l88 111l-96 134q-22 31 -33 35q-11 5 -45 10v35q45 -2 108 -2q47 0 91 2v-35q-27 -2 -36 -6t-9 -13q0 -12 24 -45l49 -70l47 65q26 34 26 49q0 10 -10 14.5t-37 5.5v35q64 -2 90 -2q33 0 83 2v-35
q-29 -5 -42 -12q-15 -8 -57 -60l-75 -95l89 -116q27 -35 47 -52q17 -16 55 -19v-35q-90 2 -111 2q-10 0 -104 -2v35q56 4 56 21q0 11 -29 49l-53 73l-47 -65q-30 -40 -30 -55q0 -9 10.5 -14.5t43.5 -8.5v-35z" />
    <glyph glyph-name="y" unicode="y" horiz-adv-x="472" 
d="M40 -231q50 28 91.5 78.5t89.5 151.5h-20l-123 312q-23 57 -33 65q-14 9 -42 12v35q62 -2 100 -2q45 0 101 2v-35q-34 -4 -41 -6q-23 -5 -23 -21q0 -11 18 -60l90 -238l84 228q21 57 21 72q0 14 -14 18q-24 5 -48 7v35q54 -2 95 -2q28 0 80 2v-35q-33 -4 -45 -16
q-10 -10 -34 -72q-122 -322 -169 -417q-44 -87 -75 -122q-28 -32 -56 -32t-47 40z" />
    <glyph glyph-name="z" unicode="z" horiz-adv-x="422" 
d="M25 0v31l254 348q-93 0 -143 -4q-29 -3 -36 -22q-8 -17 -21 -67l-34 3q2 56 7 97q2 20 10.5 28t32.5 8h280v-33l-255 -346q149 0 188 12q17 6 26 28q12 33 23 73l35 -2q-5 -78 -9 -118q-2 -19 -11.5 -27.5t-35.5 -8.5h-311z" />
    <glyph glyph-name="braceleft" unicode="{" horiz-adv-x="284" 
d="M272 -172q-94 0 -131 36t-37 122v140q0 68 -18 100t-69 37v32q54 5 69.5 35t15.5 113v118q0 86 35 129t135 43v-38q-63 0 -83.5 -26t-20.5 -108v-147q0 -68 -17 -94.5t-70 -39.5q50 -12 69 -39t19 -95v-153q0 -73 21 -100.5t82 -27.5v-37z" />
    <glyph glyph-name="bar" unicode="|" horiz-adv-x="244" 
d="M151 -175h-59v907h59v-907z" />
    <glyph glyph-name="braceright" unicode="}" horiz-adv-x="284" 
d="M13 733q94 0 131 -37t37 -122v-141q0 -68 18 -100t70 -36v-32q-55 -6 -70.5 -36t-15.5 -112v-118q0 -86 -34.5 -128.5t-135.5 -42.5v36q64 0 84.5 26.5t20.5 108.5v147q0 68 17 94.5t69 39.5q-51 12 -69 38.5t-18 95.5v153q0 73 -21 100t-83 27v39z" />
    <glyph glyph-name="asciitilde" unicode="~" horiz-adv-x="556" 
d="M98 220l-43 39q60 88 132 88q22 0 43 -7.5t63 -35.5q47 -30 75 -30q47 0 93 67l40 -38q-62 -89 -133 -89q-39 0 -90 32q-63 39 -90 39q-52 0 -90 -65z" />
    <glyph glyph-name="exclamdown" unicode="&#xa1;" horiz-adv-x="268" 
d="M102 272h38q6 -100 13.5 -207.5t11 -156t3.5 -60.5q0 -49 -49 -49t-49 49q0 12 4 62.5t12.5 154.5t15.5 207zM177 432q0 -27 -15.5 -43.5t-40.5 -16.5t-41.5 16t-16.5 41t16.5 41t40.5 16q25 0 41 -15t16 -39z" />
    <glyph glyph-name="cent" unicode="&#xa2;" horiz-adv-x="436" 
d="M269 -109h-43v105q-73 4 -117.5 60t-44.5 142q0 84 45.5 145.5t116.5 78.5v101h43v-97q5 1 18 1q54 -2 84 -18q16 -9 16 -23q0 -20 -27 -55q-30 32 -91 37v-309h12q38 0 106 34l16 -33q-72 -58 -134 -62v-107zM126 218q0 -61 27 -101.5t73 -51.5v303q-44 -4 -72 -41.5
t-28 -108.5z" />
    <glyph glyph-name="sterling" unicode="&#xa3;" horiz-adv-x="511" 
d="M472 0h-434v59q19 2 48 11q34 12 60 56.5t26 103.5q0 6 -2 28h-94v50h88q-1 9 -7.5 44.5t-10 61t-3.5 41.5q0 86 55 133.5t139 47.5q80 0 122 -26q15 -11 15 -25q0 -23 -29 -61q-14 21 -50 39t-73 18q-58 0 -80.5 -28.5t-22.5 -88.5q0 -13 3.5 -41t8.5 -63t7 -52h141v-50
h-136v-11q0 -107 -88 -173q1 0 317 2v-76z" />
    <glyph glyph-name="currency" unicode="&#xa4;" horiz-adv-x="544" 
d="M455 68l-60 65q-53 -40 -124 -40q-73 0 -121 38l-63 -63l-43 45l63 65q-42 55 -42 128t41 127l-61 64l42 45l63 -64q50 41 122 41q69 0 122 -40l61 63l43 -45l-61 -64q40 -51 40 -127q0 -73 -40 -127l63 -66zM411 306q0 64 -39.5 107.5t-99.5 43.5q-61 0 -101 -43
t-40 -106q0 -67 39 -110.5t102 -43.5q60 0 99.5 44t39.5 108z" />
    <glyph glyph-name="yen" unicode="&#xa5;" horiz-adv-x="585" 
d="M498 187h-170v-85q0 -34 4 -46q3 -9 19.5 -13.5t66.5 -7.5v-36q-100 2 -124 2q-28 0 -124 -2v36q47 3 61 7t19 12q6 11 6 48v85h-159v40h159v30l-27 45h-132v40h110l-93 166q-32 58 -40 66q-11 11 -55 13v37q27 0 63.5 -1.5t49.5 -1.5q15 0 58 1.5t66 1.5v-37
q-34 -1 -51.5 -4.5t-21 -7.5t-3.5 -12q0 -21 40 -95l88 -160l94 172q36 66 36 87q0 12 -15 15.5t-58 4.5v37q44 -3 110 -3q51 0 92 3v-37q-34 -3 -46 -13q-14 -12 -67 -102l-77 -130h121v-40h-144l-26 -43v-32h170v-40z" />
    <glyph glyph-name="brokenbar" unicode="&#xa6;" horiz-adv-x="244" 
d="M151 349h-59v321h59v-321zM151 -113h-59v320h59v-320z" />
    <glyph glyph-name="section" unicode="&#xa7;" horiz-adv-x="445" 
d="M296 85q37 -39 49.5 -67.5t12.5 -60.5q0 -55 -48 -99t-120 -44q-63 0 -100 24q-21 14 -21 33q0 17 25 47q49 -51 126 -51q34 0 56 18.5t22 47.5q0 26 -19.5 56.5t-71.5 83.5l-79 79q-49 49 -65.5 82t-16.5 70q0 86 101 133q-49 53 -49 114q0 55 43.5 93.5t111.5 38.5
q57 0 96 -27q16 -12 16 -28q0 -19 -30 -46q-48 53 -109 53q-32 0 -50.5 -18t-18.5 -48q0 -29 16.5 -54t64.5 -69l65 -59q58 -54 78.5 -88.5t20.5 -70.5q0 -75 -106 -143zM273 110q68 47 68 88q0 25 -14 52t-60 70l-48 46q-49 46 -50 47q-25 -15 -43.5 -39.5t-18.5 -50.5
q0 -44 58 -105l46 -48q9 -9 29 -28t33 -32z" />
    <glyph glyph-name="dieresis" unicode="&#xa8;" horiz-adv-x="277" 
d="M64 542q-19 0 -32 14t-13 36q0 20 13 33.5t33 13.5t32 -13.5t12 -33.5q0 -21 -12.5 -35.5t-32.5 -14.5zM213 542q-19 0 -32 14t-13 36q0 20 13 33.5t33 13.5q19 0 31.5 -13.5t12.5 -33.5q0 -21 -12.5 -35.5t-32.5 -14.5z" />
    <glyph glyph-name="copyright" unicode="&#xa9;" horiz-adv-x="747" 
d="M511 235q-14 -77 -15 -79q-4 -18 -22 -25q-36 -16 -98 -16q-84 0 -137 53.5t-53 149.5q0 101 56 159t151 58q55 0 91 -13q13 -5 16 -21q4 -19 4 -86l-27 -1q-7 36 -17 56q-7 13 -16 19q-23 13 -59 13q-63 0 -101 -45.5t-38 -132.5q0 -81 37 -126.5t97 -45.5q32 0 54 9
q12 5 23 19q8 9 28 60zM708 325q0 -144 -96 -242t-235 -98q-145 0 -241.5 96.5t-96.5 240.5q0 140 97.5 237t238.5 97q139 0 236 -96.5t97 -234.5zM665 318q0 130 -82 217t-207 87q-126 0 -210.5 -87t-84.5 -214q0 -126 86 -213.5t211 -87.5q122 0 204.5 86t82.5 212z" />
    <glyph glyph-name="ordfeminine" unicode="&#xaa;" horiz-adv-x="331" 
d="M329 332q-35 -31 -65 -31q-32 0 -46 43q-46 -43 -100 -43q-38 0 -64.5 28.5t-26.5 71.5q0 49 40 72.5t146 24.5q0 64 -10 86q-12 25 -60 25q-51 0 -86 -27q-8 12 -8 23q0 21 27 35q40 19 89 19q57 0 83 -30q20 -23 20 -74q0 -7 -0.5 -71.5t-0.5 -69.5q0 -31 6 -46t23 -15
q10 0 24 4zM215 373l-2 89q-79 -1 -103.5 -15.5t-24.5 -44.5q0 -23 13 -38.5t39 -15.5q34 0 78 25z" />
    <glyph glyph-name="guillemotleft" unicode="&#xab;" horiz-adv-x="398" 
d="M223 53l-21 -21l-153 155q-12 12 -12 27q0 13 14 27l151 150l21 -20l-112 -156zM376 53l-21 -21l-154 155q-11 11 -11 27q0 14 13 27l152 150l21 -20l-113 -156z" />
    <glyph glyph-name="logicalnot" unicode="&#xac;" horiz-adv-x="556" 
d="M473 70h-56v194h-354v59h410v-253z" />
    <glyph glyph-name="uni00AD" unicode="&#xad;" horiz-adv-x="246" 
d="M216 257v-65h-188v65h188z" />
    <glyph glyph-name="registered" unicode="&#xae;" horiz-adv-x="747" 
d="M381 141q-34 1 -81 1t-82 -1v26q43 4 49 11q4 5 4 33v248q0 26 -5 33q-7 7 -47 10v25h94q71 0 106 -7q89 -15 89 -101q0 -70 -74 -98q50 -92 71 -116q28 -33 55 -54l-16 -24q-32 12 -71 45q-45 42 -97 138q-9 -1 -26 -1q-11 0 -25 2v-99q0 -26 5 -33q9 -9 51 -12v-26z
M325 342q11 -2 30 -2q46 0 69.5 20.5t23.5 55.5q0 54 -41 71q-26 11 -82 11v-156zM708 325q0 -144 -96 -242t-235 -98q-145 0 -241.5 96.5t-96.5 240.5q0 140 97.5 237t238.5 97q139 0 236 -96.5t97 -234.5zM665 318q0 130 -82 217t-207 87q-126 0 -210.5 -87t-84.5 -214
q0 -126 86 -213.5t211 -87.5q122 0 204.5 86t82.5 212z" />
    <glyph glyph-name="macron" unicode="&#xaf;" horiz-adv-x="277" 
d="M258 531h-238v60h238v-60z" />
    <glyph glyph-name="degree" unicode="&#xb0;" horiz-adv-x="330" 
d="M166 665q53 0 87.5 -32t34.5 -92q0 -57 -35.5 -90.5t-88.5 -33.5t-88 33t-35 90t36 91t89 34zM164 624q-34 0 -55 -23t-21 -60q0 -36 20 -59.5t56 -23.5q37 0 58 23t21 59q0 38 -21 61t-58 23z" />
    <glyph glyph-name="plusminus" unicode="&#xb1;" horiz-adv-x="556" 
d="M306 126h-57v195h-184v58h184v195h57v-195h184v-58h-184v-195zM490 -1h-425v59h425v-59z" />
    <glyph glyph-name="twosuperior" unicode="&#xb2;" 
d="M298 400h-268v37q107 81 155.5 134t48.5 104q0 77 -73 77q-43 0 -97 -45l-20 26q70 62 135 62q56 0 85 -30.5t29 -84.5q0 -60 -43 -108.5t-146 -118.5q48 1 194 1v-54z" />
    <glyph glyph-name="threesuperior" unicode="&#xb3;" 
d="M183 614q104 -4 104 -90q0 -37 -24 -67.5t-58.5 -48t-69 -27t-60.5 -9.5q-22 0 -27 19q-4 8 -4 26q94 0 139.5 23t45.5 77q0 69 -85 69q-23 0 -46 -5l-4 33l45 10q69 22 69 80q0 19 -13 32.5t-37 13.5q-43 0 -90 -36l-18 29q62 49 122 49q45 0 68 -21.5t23 -56.5
q0 -68 -80 -100z" />
    <glyph glyph-name="acute" unicode="&#xb4;" horiz-adv-x="280" 
d="M85 500l-26 21l80 135q23 38 47 38q15 0 25 -9.5t10 -24.5q0 -22 -27 -49z" />
    <glyph glyph-name="mu" unicode="&#xb5;" horiz-adv-x="530" 
d="M517 29q-63 -40 -93 -40q-42 0 -51 59q-59 -53 -121 -53q-51 0 -75 29q1 -33 4 -83.5t5 -87t2 -45.5q0 -37 -38 -37q-40 0 -40 39v480q0 59 -11 70q-12 12 -60 19v30q72 20 120 20q26 0 26 -27q0 -6 -2.5 -90t-2.5 -128q0 -76 19 -104.5t74 -28.5q49 0 98 30v210
q0 60 -10 69q-14 11 -69 19v30q78 20 125 20q28 0 28 -29q0 -3 -3 -95t-3 -166q0 -45 8 -66q8 -16 30 -16q21 0 40 3v-31z" />
    <glyph glyph-name="paragraph" unicode="&#xb6;" horiz-adv-x="507" 
d="M302 -237l-34 20q56 103 63 245q4 73 4 129v379q0 38 -5 48q-5 9 -14 12t-33 3q-42 0 -51 -12q-15 -17 -15 -179q0 -99 5 -130.5t16 -41.5q13 -11 77 -17v-40q-13 -2 -58 -2q-92 0 -153 56t-61 175q0 110 61.5 172.5t174.5 62.5h200v-38q-65 -5 -74 -15t-9 -62
q0 -15 2 -180t2 -200q0 -106 -6 -157.5t-28 -103.5q-32 -71 -64 -124z" />
    <glyph glyph-name="periodcentered" unicode="&#xb7;" horiz-adv-x="199" 
d="M156 239q0 -27 -15.5 -43t-40.5 -16t-41 16t-16 40q0 25 16 41t40 16q25 0 40.5 -15t16.5 -39z" />
    <glyph glyph-name="cedilla" unicode="&#xb8;" horiz-adv-x="277" 
d="M68 -260l-9 35q98 29 98 73q0 16 -10 27t-34 24q-18 11 -18 28q0 22 23 78h37q-14 -40 -14 -48q0 -15 15 -22q34 -16 48.5 -33.5t14.5 -43.5q0 -87 -151 -118z" />
    <glyph glyph-name="onesuperior" unicode="&#xb9;" 
d="M271 400q-30 1 -88 1q-66 0 -95 -1v29q53 5 57 12q8 7 8 37v156q0 55 -5 74q-2 18 -14 18t-45 -7l-7 25q10 5 52.5 23t64.5 29l12 -7q-3 -68 -3 -153v-159q0 -32 4 -36q6 -9 59 -12v-29z" />
    <glyph glyph-name="ordmasculine" unicode="&#xba;" horiz-adv-x="381" 
d="M351 485q0 -86 -47 -135.5t-115 -49.5q-75 0 -116.5 49t-41.5 130q0 78 46 129t117 51q74 0 115.5 -47.5t41.5 -126.5zM289 472q0 68 -25.5 106t-74.5 38q-42 0 -68.5 -33t-26.5 -93q0 -73 26 -110t72 -37q47 0 72 33.5t25 95.5z" />
    <glyph glyph-name="guillemotright" unicode="&#xbb;" horiz-adv-x="398" 
d="M176 371l20 20l153 -155q12 -14 12 -27q0 -14 -13 -27l-152 -150l-21 20l112 156zM23 371l20 20l154 -155q11 -13 11 -27q0 -15 -13 -27l-152 -150l-21 20l112 156z" />
    <glyph glyph-name="onequarter" unicode="&#xbc;" horiz-adv-x="751" 
d="M489 634h45l-256 -634h-45zM262 241q-30 1 -88 1q-66 0 -95 -1v29q50 4 57 11q8 9 8 38v156q0 54 -4 74q-3 18 -15 18t-45 -7l-7 25q10 5 52.5 23t64.5 29l12 -7q-3 -68 -3 -153v-159q0 -31 4 -36q8 -9 59 -12v-29zM633 141h58v-49h-57v-113h-54v113h-183v32l190 267h47
q-1 -26 -1 -93v-157zM454 140h126q0 133 1 185z" />
    <glyph glyph-name="onehalf" unicode="&#xbd;" horiz-adv-x="751" 
d="M489 634h45l-256 -634h-45zM255 241q-30 1 -88 1q-66 0 -95 -1v29q50 4 57 11q8 9 8 38v156q0 54 -4 74q-3 18 -15 18t-45 -7l-7 25q10 5 52.5 23t64.5 29l12 -7q-3 -68 -3 -153v-159q0 -31 4 -36q8 -9 59 -12v-29zM715 0h-268v37q107 81 155.5 134t48.5 104q0 77 -73 77
q-43 0 -97 -45l-20 26q70 62 135 62q56 0 85 -30.5t29 -84.5q0 -60 -43 -108.5t-146 -118.5q48 1 194 1v-54z" />
    <glyph glyph-name="threequarters" unicode="&#xbe;" horiz-adv-x="751" 
d="M509 634h45l-256 -634h-45zM198 455q104 -4 104 -90q0 -37 -24 -67.5t-58.5 -48t-69 -27t-60.5 -9.5q-21 0 -28 19q-3 8 -3 26q94 0 139.5 23t45.5 77q0 69 -85 69q-23 0 -46 -5l-4 33q41 9 45 10q69 20 69 80q0 19 -13 32.5t-37 13.5q-43 0 -90 -36l-18 29q62 49 122 49
q45 0 68 -21.5t23 -56.5q0 -68 -80 -100zM649 141h58v-49h-57v-113h-54v113h-183v32l190 267h47q-1 -26 -1 -93v-157zM470 140h126q0 133 1 185z" />
    <glyph glyph-name="questiondown" unicode="&#xbf;" horiz-adv-x="357" 
d="M199 277h37q6 -68 6 -108q0 -30 -13 -45t-40 -27q-53 -23 -72 -41.5t-19 -59.5q0 -51 35.5 -87t119.5 -36q31 0 52 4q2 -18 2 -35q-2 -42 -48 -42q-87 0 -160.5 57.5t-73.5 143.5q0 53 30 90t105 70q28 11 33 49q1 6 2 15.5t2 24.5t2 27zM271 432q0 -28 -15.5 -44
t-41.5 -16q-24 0 -40.5 16t-16.5 41t16.5 41t39.5 16q26 0 42 -15t16 -39z" />
    <glyph glyph-name="Agrave" unicode="&#xc0;" horiz-adv-x="617" 
d="M241 -1q-96 2 -126 2q-25 0 -111 -2v36q45 5 57 17q16 14 49 101l181 492h52l167 -497q29 -85 44 -99q8 -8 59 -14v-36q-92 2 -110 2q-37 0 -141 -2v36q51 4 67 11t16 22q0 21 -22 85l-26 82h-200l-28 -81q-23 -65 -23 -88q0 -14 18 -20.5t77 -10.5v-36zM212 279h171
q-65 197 -83 256q-23 -73 -88 -256zM394 708l-20 -26l-130 84q-37 25 -37 45q0 16 11 27t26 11q17 0 43 -27z" />
    <glyph glyph-name="Aacute" unicode="&#xc1;" horiz-adv-x="617" 
d="M241 -1q-96 2 -126 2q-25 0 -111 -2v36q45 5 57 17q16 14 49 101l181 492h52l167 -497q29 -85 44 -99q8 -8 59 -14v-36q-92 2 -110 2q-37 0 -141 -2v36q51 4 67 11t16 22q0 21 -22 85l-26 82h-200l-28 -81q-23 -65 -23 -88q0 -14 18 -20.5t77 -10.5v-36zM212 279h171
q-65 197 -83 256q-23 -73 -88 -256zM269 681l-20 26l107 114q25 28 45 28q15 0 25 -10.5t10 -27.5q0 -22 -37 -46z" />
    <glyph glyph-name="Acircumflex" unicode="&#xc2;" horiz-adv-x="617" 
d="M241 -1q-96 2 -126 2q-25 0 -111 -2v36q45 5 57 17q16 14 49 101l181 492h52l167 -497q29 -85 44 -99q8 -8 59 -14v-36q-92 2 -110 2q-37 0 -141 -2v36q51 4 67 11t16 22q0 21 -22 85l-26 82h-200l-28 -81q-23 -65 -23 -88q0 -14 18 -20.5t77 -10.5v-36zM212 279h171
q-65 197 -83 256q-23 -73 -88 -256zM459 700l-23 -20l-115 87l-113 -87l-22 19l108 128q17 20 29 20q16 0 30 -18z" />
    <glyph glyph-name="Atilde" unicode="&#xc3;" horiz-adv-x="617" 
d="M241 -1q-96 2 -126 2q-25 0 -111 -2v36q45 5 57 17q16 14 49 101l181 492h52l167 -497q29 -85 44 -99q8 -8 59 -14v-36q-92 2 -110 2q-37 0 -141 -2v36q51 4 67 11t16 22q0 21 -22 85l-26 82h-200l-28 -81q-23 -65 -23 -88q0 -14 18 -20.5t77 -10.5v-36zM212 279h171
q-65 197 -83 256q-23 -73 -88 -256zM218 697l-29 11q11 41 31.5 68t49.5 27q24 0 52 -12l34 -13q29 -11 41 -11q22 0 44 46l29 -11q-27 -95 -73 -95q-26 0 -63 15l-29 12q-21 9 -39 9q-16 0 -25.5 -9.5t-22.5 -36.5z" />
    <glyph glyph-name="Adieresis" unicode="&#xc4;" horiz-adv-x="617" 
d="M241 -1q-96 2 -126 2q-25 0 -111 -2v36q45 5 57 17q16 14 49 101l181 492h52l167 -497q29 -85 44 -99q8 -8 59 -14v-36q-92 2 -110 2q-37 0 -141 -2v36q51 4 67 11t16 22q0 21 -22 85l-26 82h-200l-28 -81q-23 -65 -23 -88q0 -14 18 -20.5t77 -10.5v-36zM212 279h171
q-65 197 -83 256q-23 -73 -88 -256zM235 704q-19 0 -32 13.5t-13 34.5q0 20 13 33t33 13t32 -13t12 -33q0 -21 -12.5 -34.5t-32.5 -13.5zM396 704q-19 0 -32 13.5t-13 34.5q0 20 13 33t33 13q19 0 31.5 -13t12.5 -33q0 -21 -12.5 -34.5t-32.5 -13.5z" />
    <glyph glyph-name="Aring" unicode="&#xc5;" horiz-adv-x="617" 
d="M241 -1q-96 2 -126 2q-25 0 -111 -2v36q45 5 57 17q16 14 49 101l181 492h52l167 -497q29 -85 44 -99q8 -8 59 -14v-36q-92 2 -110 2q-37 0 -141 -2v36q51 4 67 11t16 22q0 21 -22 85l-26 82h-200l-28 -81q-23 -65 -23 -88q0 -14 18 -20.5t77 -10.5v-36zM212 279h171
q-65 197 -83 256q-23 -73 -88 -256zM400 759q0 -37 -25.5 -61.5t-60.5 -24.5q-34 0 -58 23t-24 61t25 62.5t59 24.5q37 0 60.5 -23.5t23.5 -61.5zM362 759q0 26 -13.5 39t-33.5 13q-19 0 -32.5 -13.5t-13.5 -38.5q0 -24 13 -38.5t33 -14.5q21 0 34 14t13 39z" />
    <glyph glyph-name="AE" unicode="&#xc6;" horiz-adv-x="891" 
d="M254 -1q-94 2 -138 2q-25 0 -113 -2v36q46 4 62 18q27 25 74 100l239 381q18 29 18 48q0 13 -24 18q-15 3 -66 8v35h454q34 0 42.5 -6t10.5 -23q6 -52 6 -124l-33 -2q-15 71 -34 92q-11 11 -36 14.5t-89 3.5q-32 0 -78 -2v-242h8q122 0 142 19q11 11 19 64h36
q-1 -24 -1 -102q0 -69 1 -110h-34q-9 56 -19 68q-10 10 -37.5 12.5t-108.5 2.5h-6v-216q0 -20 5 -28t20 -12q34 -7 74 -7q110 0 134 27q16 17 48 99l32 -5q-7 -94 -24 -141q-5 -16 -17.5 -20.5t-44.5 -4.5h-389v35q47 4 65 10q14 4 17 18q2 12 2 60v119h-214l-56 -94
q-37 -60 -37 -82q0 -19 26 -24q17 -4 64 -7v-36zM285 288h186v297q0 7 -4 7q-5 0 -10 -10q-50 -95 -172 -294z" />
    <glyph glyph-name="Ccedilla" unicode="&#xc7;" horiz-adv-x="625" 
d="M257 -271l-9 37q101 30 101 76q0 17 -9.5 27t-35.5 25q-20 12 -20 30t18 66q-119 15 -190 98t-71 222q0 161 91.5 254.5t243.5 93.5q93 0 153 -22q24 -9 30 -32q7 -26 7 -135l-35 -3q-17 74 -27 93q-8 18 -28 28q-42 20 -107 20q-111 0 -178 -75.5t-67 -212.5
q0 -132 64.5 -207.5t173.5 -75.5q60 0 97 15q21 10 36 27q18 22 47 100l36 -7q-8 -73 -27 -123q-11 -28 -35 -38q-57 -24 -163 -24h-15q-7 -20 -7 -31q0 -17 16 -24q36 -17 50 -34.5t14 -44.5q0 -48 -43 -78.5t-111 -44.5z" />
    <glyph glyph-name="Egrave" unicode="&#xc8;" horiz-adv-x="533" 
d="M504 164q-7 -93 -24 -139q-6 -16 -19 -20.5t-43 -4.5h-388v35q68 7 76 16q8 8 8 60v425q0 47 -6 53q-10 12 -78 19v35h367q35 0 45.5 -6t12.5 -23q6 -40 6 -124l-34 -2q-16 77 -33 93q-13 11 -38 14t-87 3q-32 0 -78 -2v-238h9q73 0 101 4t41 15q9 9 19 63h36
q-1 -24 -1 -102q0 -69 1 -109h-34q-11 57 -20 67q-11 11 -39.5 13.5t-103.5 2.5h-9v-220q0 -35 26 -40q35 -7 74 -7q110 0 133 25q14 15 48 101zM315 707l-20 -26l-130 84q-37 25 -37 45q0 16 11 27t26 11q17 0 43 -27z" />
    <glyph glyph-name="Eacute" unicode="&#xc9;" horiz-adv-x="533" 
d="M504 164q-7 -93 -24 -139q-6 -16 -19 -20.5t-43 -4.5h-388v35q68 7 76 16q8 8 8 60v425q0 47 -6 53q-10 12 -78 19v35h367q35 0 45.5 -6t12.5 -23q6 -40 6 -124l-34 -2q-16 77 -33 93q-13 11 -38 14t-87 3q-32 0 -78 -2v-238h9q73 0 101 4t41 15q9 9 19 63h36
q-1 -24 -1 -102q0 -69 1 -109h-34q-11 57 -20 67q-11 11 -39.5 13.5t-103.5 2.5h-9v-220q0 -35 26 -40q35 -7 74 -7q110 0 133 25q14 15 48 101zM231 681l-20 26l107 114q25 28 45 28q15 0 25 -10.5t10 -27.5q0 -22 -37 -46z" />
    <glyph glyph-name="Ecircumflex" unicode="&#xca;" horiz-adv-x="533" 
d="M504 164q-7 -93 -24 -139q-6 -16 -19 -20.5t-43 -4.5h-388v35q68 7 76 16q8 8 8 60v425q0 47 -6 53q-10 12 -78 19v35h367q35 0 45.5 -6t12.5 -23q6 -40 6 -124l-34 -2q-16 77 -33 93q-13 11 -38 14t-87 3q-32 0 -78 -2v-238h9q73 0 101 4t41 15q9 9 19 63h36
q-1 -24 -1 -102q0 -69 1 -109h-34q-11 57 -20 67q-11 11 -39.5 13.5t-103.5 2.5h-9v-220q0 -35 26 -40q35 -7 74 -7q110 0 133 25q14 15 48 101zM398 700l-23 -20l-115 87l-113 -87l-22 19l108 128q17 20 29 20q16 0 30 -18z" />
    <glyph glyph-name="Edieresis" unicode="&#xcb;" horiz-adv-x="533" 
d="M504 164q-7 -93 -24 -139q-6 -16 -19 -20.5t-43 -4.5h-388v35q68 7 76 16q8 8 8 60v425q0 47 -6 53q-10 12 -78 19v35h367q35 0 45.5 -6t12.5 -23q6 -40 6 -124l-34 -2q-16 77 -33 93q-13 11 -38 14t-87 3q-32 0 -78 -2v-238h9q73 0 101 4t41 15q9 9 19 63h36
q-1 -24 -1 -102q0 -69 1 -109h-34q-11 57 -20 67q-11 11 -39.5 13.5t-103.5 2.5h-9v-220q0 -35 26 -40q35 -7 74 -7q110 0 133 25q14 15 48 101zM192 704q-19 0 -32 13.5t-13 34.5q0 20 13 33t33 13t32 -13t12 -33q0 -21 -12.5 -34.5t-32.5 -13.5zM353 704q-19 0 -32 13.5
t-13 34.5q0 20 13 33t33 13q19 0 31.5 -13t12.5 -33q0 -21 -12.5 -34.5t-32.5 -13.5z" />
    <glyph glyph-name="Igrave" unicode="&#xcc;" horiz-adv-x="307" 
d="M278 -1q-82 2 -123 2t-125 -2v36q67 5 77 16q7 7 7 60v423q0 47 -7 57q-8 11 -77 17v36q84 -2 125 -2t123 2v-36q-70 -7 -80 -18q-6 -8 -6 -55v-425q0 -50 7 -58q9 -12 79 -17v-36zM205 707l-20 -26l-130 84q-37 25 -37 45q0 16 11 27t26 11q17 0 43 -27z" />
    <glyph glyph-name="Iacute" unicode="&#xcd;" horiz-adv-x="307" 
d="M278 -1q-82 2 -123 2t-125 -2v36q67 5 77 16q7 7 7 60v423q0 47 -7 57q-8 11 -77 17v36q84 -2 125 -2t123 2v-36q-70 -7 -80 -18q-6 -8 -6 -55v-425q0 -50 7 -58q9 -12 79 -17v-36zM121 681l-20 26l107 114q25 28 45 28q15 0 25 -10.5t10 -27.5q0 -22 -37 -46z" />
    <glyph glyph-name="Icircumflex" unicode="&#xce;" horiz-adv-x="307" 
d="M278 -1q-82 2 -123 2t-125 -2v36q67 5 77 16q7 7 7 60v423q0 47 -7 57q-8 11 -77 17v36q84 -2 125 -2t123 2v-36q-70 -7 -80 -18q-6 -8 -6 -55v-425q0 -50 7 -58q9 -12 79 -17v-36zM293 700l-23 -20l-115 87l-113 -87l-22 19l108 128q17 20 29 20q16 0 30 -18z" />
    <glyph glyph-name="Idieresis" unicode="&#xcf;" horiz-adv-x="307" 
d="M278 -1q-82 2 -123 2t-125 -2v36q67 5 77 16q7 7 7 60v423q0 47 -7 57q-8 11 -77 17v36q84 -2 125 -2t123 2v-36q-70 -7 -80 -18q-6 -8 -6 -55v-425q0 -50 7 -58q9 -12 79 -17v-36zM73 704q-19 0 -32 13.5t-13 34.5q0 20 13 33t33 13t32 -13t12 -33q0 -21 -12.5 -34.5
t-32.5 -13.5zM234 704q-19 0 -32 13.5t-13 34.5q0 20 13 33t33 13q19 0 31.5 -13t12.5 -33q0 -21 -12.5 -34.5t-32.5 -13.5z" />
    <glyph glyph-name="Eth" unicode="&#xd0;" horiz-adv-x="660" 
d="M21 307v49h93v179q0 43 -4 52q-5 9 -17.5 12t-62.5 9v35h131q143 0 214 -12t119 -40q125 -73 125 -257q0 -168 -88.5 -252t-247.5 -84q-10 0 -66 1.5t-71 1.5q-26 0 -116 -2v36q69 6 77 16q7 8 7 56v200h-93zM192 88q0 -18 5.5 -24.5t22.5 -9.5q31 -5 82 -5q112 0 172 72
t60 204q0 88 -31.5 149.5t-88.5 87.5q-72 34 -222 34v-240h166v-49h-166v-219z" />
    <glyph glyph-name="Ntilde" unicode="&#xd1;" horiz-adv-x="691" 
d="M260 -1q-102 2 -117 2q-10 0 -114 -2v36q70 3 80 19q5 9 5 80q0 46 0.5 138t1.5 164v73q0 61 -6 72q-7 15 -30 20t-52 7v36q42 -2 87 -2q41 0 74 2q181 -258 346 -489q-2 239 -5 354q-1 70 -8 81q-8 13 -78 18v36q102 -2 113 -2q15 0 117 2v-36q-68 -6 -79 -17
q-10 -10 -10 -82q0 -48 -0.5 -165.5t-0.5 -175.5q0 -24 1 -87.5t1 -80.5h-45q-3 4 -42.5 62.5t-125 181t-206.5 290.5q0 -55 1 -151t2 -167.5t1 -82.5q0 -73 7 -81q10 -12 82 -17v-36zM250 697l-29 11q11 41 31.5 68t49.5 27q24 0 52 -12l34 -13q29 -11 41 -11q22 0 44 46
l29 -11q-27 -95 -73 -95q-25 0 -63 15l-29 12q-21 9 -39 9q-16 0 -25.5 -9.5t-22.5 -36.5z" />
    <glyph glyph-name="Ograve" unicode="&#xd2;" horiz-adv-x="674" 
d="M633 325q0 -150 -82.5 -244.5t-211.5 -94.5q-140 0 -219 93t-79 243q0 147 85 241.5t214 94.5q140 0 216.5 -88.5t76.5 -244.5zM552 311q0 135 -59 215.5t-157 80.5q-96 0 -154 -73t-58 -200q0 -143 59 -220.5t160 -77.5q96 0 152.5 73t56.5 202zM416 707l-20 -26
l-130 84q-37 25 -37 45q0 16 11 27t26 11q17 0 43 -27z" />
    <glyph glyph-name="Oacute" unicode="&#xd3;" horiz-adv-x="674" 
d="M633 325q0 -150 -82.5 -244.5t-211.5 -94.5q-140 0 -219 93t-79 243q0 147 85 241.5t214 94.5q140 0 216.5 -88.5t76.5 -244.5zM552 311q0 135 -59 215.5t-157 80.5q-96 0 -154 -73t-58 -200q0 -143 59 -220.5t160 -77.5q96 0 152.5 73t56.5 202zM303 681l-20 26l107 114
q25 28 45 28q15 0 25 -10.5t10 -27.5q0 -22 -37 -46z" />
    <glyph glyph-name="Ocircumflex" unicode="&#xd4;" horiz-adv-x="674" 
d="M633 325q0 -150 -82.5 -244.5t-211.5 -94.5q-140 0 -219 93t-79 243q0 147 85 241.5t214 94.5q140 0 216.5 -88.5t76.5 -244.5zM552 311q0 135 -59 215.5t-157 80.5q-96 0 -154 -73t-58 -200q0 -143 59 -220.5t160 -77.5q96 0 152.5 73t56.5 202zM476 700l-23 -20
l-115 87l-113 -87l-22 19l108 128q17 20 29 20q16 0 30 -18z" />
    <glyph glyph-name="Otilde" unicode="&#xd5;" horiz-adv-x="674" 
d="M633 325q0 -150 -82.5 -244.5t-211.5 -94.5q-140 0 -219 93t-79 243q0 147 85 241.5t214 94.5q140 0 216.5 -88.5t76.5 -244.5zM552 311q0 135 -59 215.5t-157 80.5q-96 0 -154 -73t-58 -200q0 -143 59 -220.5t160 -77.5q96 0 152.5 73t56.5 202zM236 697l-29 11
q11 41 31.5 68t49.5 27q24 0 52 -12l34 -13q29 -11 41 -11q22 0 44 46l29 -11q-27 -95 -73 -95q-25 0 -63 15l-29 12q-21 9 -39 9q-16 0 -25.5 -9.5t-22.5 -36.5z" />
    <glyph glyph-name="Odieresis" unicode="&#xd6;" horiz-adv-x="674" 
d="M633 325q0 -150 -82.5 -244.5t-211.5 -94.5q-140 0 -219 93t-79 243q0 147 85 241.5t214 94.5q140 0 216.5 -88.5t76.5 -244.5zM552 311q0 135 -59 215.5t-157 80.5q-96 0 -154 -73t-58 -200q0 -143 59 -220.5t160 -77.5q96 0 152.5 73t56.5 202zM257 704q-19 0 -32 13.5
t-13 34.5q0 20 13 33t33 13t32 -13t12 -33q0 -21 -12.5 -34.5t-32.5 -13.5zM418 704q-19 0 -32 13.5t-13 34.5q0 20 13 33t33 13q19 0 31.5 -13t12.5 -33q0 -21 -12.5 -34.5t-32.5 -13.5z" />
    <glyph glyph-name="multiply" unicode="&#xd7;" horiz-adv-x="551" 
d="M456 147l-41 -42l-140 150l-142 -150l-39 40l143 153l-144 152l41 42l142 -150l140 151l38 -40l-140 -154z" />
    <glyph glyph-name="Oslash" unicode="&#xd8;" horiz-adv-x="674" 
d="M104 -43l-36 28l59 85q-86 92 -86 252q0 147 85 241.5t214 94.5q98 0 165 -44l57 81l37 -28l-58 -82q92 -89 92 -260q0 -150 -82.5 -244.5t-211.5 -94.5q-106 0 -177 54zM552 311q0 129 -55 209l-298 -426q55 -58 144 -58q96 0 152.5 73t56.5 202zM124 334
q0 -124 46 -202l296 425q-55 50 -130 50q-96 0 -154 -73t-58 -200z" />
    <glyph glyph-name="Ugrave" unicode="&#xd9;" horiz-adv-x="674" 
d="M656 608q-72 -7 -77 -21q-6 -12 -6 -61v-235q0 -89 -11.5 -141.5t-38.5 -87.5q-62 -77 -192 -77q-143 0 -196 90q-19 31 -26 76.5t-7 142.5q0 44 1 128t1 114q0 42 -6 52q-5 9 -20 12.5t-60 7.5v36q76 -2 133 -2q47 0 121 2v-36q-73 -5 -83 -18q-8 -9 -8 -51
q-1 -73 -1 -242q0 -121 15 -166q31 -91 155 -91q50 0 88.5 19.5t55.5 49.5q29 49 29 205q0 42 -5 220q-2 52 -13 60q-4 3 -8.5 4.5t-12 3t-13.5 2t-19 2t-22 2.5v36q35 -1 111 -1q10 0 53.5 0.5t61.5 0.5v-36zM399 707l-20 -26l-130 84q-37 25 -37 45q0 16 11 27t26 11
q17 0 43 -27z" />
    <glyph glyph-name="Uacute" unicode="&#xda;" horiz-adv-x="674" 
d="M656 608q-72 -7 -77 -21q-6 -12 -6 -61v-235q0 -89 -11.5 -141.5t-38.5 -87.5q-62 -77 -192 -77q-143 0 -196 90q-19 31 -26 76.5t-7 142.5q0 44 1 128t1 114q0 42 -6 52q-5 9 -20 12.5t-60 7.5v36q76 -2 133 -2q47 0 121 2v-36q-73 -5 -83 -18q-8 -9 -8 -51
q-1 -73 -1 -242q0 -121 15 -166q31 -91 155 -91q50 0 88.5 19.5t55.5 49.5q29 49 29 205q0 42 -5 220q-2 52 -13 60q-4 3 -8.5 4.5t-12 3t-13.5 2t-19 2t-22 2.5v36q35 -1 111 -1q10 0 53.5 0.5t61.5 0.5v-36zM316 681l-20 26l107 114q25 28 45 28q15 0 25 -10.5t10 -27.5
q0 -22 -37 -46z" />
    <glyph glyph-name="Ucircumflex" unicode="&#xdb;" horiz-adv-x="674" 
d="M656 608q-72 -7 -77 -21q-6 -12 -6 -61v-235q0 -89 -11.5 -141.5t-38.5 -87.5q-62 -77 -192 -77q-143 0 -196 90q-19 31 -26 76.5t-7 142.5q0 44 1 128t1 114q0 42 -6 52q-5 9 -20 12.5t-60 7.5v36q76 -2 133 -2q47 0 121 2v-36q-73 -5 -83 -18q-8 -9 -8 -51
q-1 -73 -1 -242q0 -121 15 -166q31 -91 155 -91q50 0 88.5 19.5t55.5 49.5q29 49 29 205q0 42 -5 220q-2 52 -13 60q-4 3 -8.5 4.5t-12 3t-13.5 2t-19 2t-22 2.5v36q35 -1 111 -1q10 0 53.5 0.5t61.5 0.5v-36zM484 700l-23 -20l-115 87l-113 -87l-22 19l108 128q17 20 29 20
q16 0 30 -18z" />
    <glyph glyph-name="Udieresis" unicode="&#xdc;" horiz-adv-x="674" 
d="M656 608q-72 -7 -77 -21q-6 -12 -6 -61v-235q0 -89 -11.5 -141.5t-38.5 -87.5q-62 -77 -192 -77q-143 0 -196 90q-19 31 -26 76.5t-7 142.5q0 44 1 128t1 114q0 42 -6 52q-5 9 -20 12.5t-60 7.5v36q76 -2 133 -2q47 0 121 2v-36q-73 -5 -83 -18q-8 -9 -8 -51
q-1 -73 -1 -242q0 -121 15 -166q31 -91 155 -91q50 0 88.5 19.5t55.5 49.5q29 49 29 205q0 42 -5 220q-2 52 -13 60q-4 3 -8.5 4.5t-12 3t-13.5 2t-19 2t-22 2.5v36q35 -1 111 -1q10 0 53.5 0.5t61.5 0.5v-36zM266 704q-19 0 -32 13.5t-13 34.5q0 20 13 33t33 13t32 -13
t12 -33q0 -21 -12.5 -34.5t-32.5 -13.5zM427 704q-19 0 -32 13.5t-13 34.5q0 20 13 33t33 13q19 0 31.5 -13t12.5 -33q0 -21 -12.5 -34.5t-32.5 -13.5z" />
    <glyph glyph-name="Yacute" unicode="&#xdd;" horiz-adv-x="570" 
d="M413 -1q-102 2 -124 2q-33 0 -129 -2v36q47 3 61 7.5t19 12.5q6 8 6 48v164l-146 262q-32 58 -44 66q-16 10 -52 13v36q108 -2 112 -2q30 0 128 2v-36q-34 -1 -51.5 -4.5t-21.5 -7.5t-4 -12q0 -19 43 -97l92 -167l96 179q36 68 36 87q0 13 -15 17t-58 5v36q45 -2 115 -2
q50 0 90 2v-36q-34 -5 -45 -14q-21 -17 -64 -92l-134 -234v-165q0 -37 3 -46t20 -13.5t67 -8.5v-36zM277 681l-20 26l107 114q25 28 45 28q15 0 25 -10.5t10 -27.5q0 -22 -37 -46z" />
    <glyph glyph-name="Thorn" unicode="&#xde;" horiz-adv-x="531" 
d="M277 -1q-96 2 -120 2q-27 0 -135 -2v39q54 3 68 11q11 6 14 17t3 46v419q0 50 -8 58q-9 10 -77 16v39q84 -2 123 -2q45 0 125 2v-39q-72 -5 -82 -17q-7 -8 -7 -53v-20q38 2 58 2q59 0 109 -9q71 -12 108.5 -58t37.5 -120q0 -93 -60.5 -142.5t-174.5 -49.5q-49 0 -78 4
v-31q0 -47 9 -56q13 -13 87 -17v-39zM181 190q22 -3 65 -3q81 0 123.5 32t42.5 105q0 106 -88 132q-45 13 -97 13q-31 0 -46 -1v-278z" />
    <glyph glyph-name="germandbls" unicode="&#xdf;" horiz-adv-x="520" 
d="M170 0q-19 1 -57 1q-31 0 -87 -2v36q58 7 64 15q8 9 8 58q0 64 -0.5 155t-0.5 97q-50 0 -77 6v30q7 3 39 12q23 5 28 10q8 7 9 47q5 147 70 213q51 52 127 52q68 0 106 -37.5t38 -93.5q0 -46 -19.5 -81.5t-57.5 -75.5q-58 -60 -58 -76q0 -17 15 -31q3 -3 82 -68
q81 -66 81 -128q0 -71 -47 -111t-116 -40q-53 0 -89 18q-24 13 -24 34q0 18 25 44q17 -21 46.5 -33.5t56.5 -12.5q36 0 57.5 20.5t21.5 58.5q0 22 -16.5 44.5t-59.5 58.5q-55 45 -73 63q-29 27 -29 57q0 22 11 38.5t42 50.5q82 90 82 152q0 47 -24 71.5t-66 24.5
q-47 0 -71.5 -27.5t-31.5 -90.5q-9 -92 -9 -427q0 -60 4 -132z" />
    <glyph glyph-name="agrave" unicode="&#xe0;" horiz-adv-x="437" 
d="M431 34q-19 -18 -44.5 -31t-45.5 -13q-46 0 -59 53q-57 -54 -126 -54q-52 0 -86.5 35t-34.5 89q0 39 17.5 63t72 40t149.5 16q0 91 -12 111q-18 32 -74 32q-62 0 -113 -34q-10 16 -10 33q0 24 37 41q47 22 112 22q70 0 103 -35q26 -29 26 -96q0 -8 -0.5 -90.5t-0.5 -87.5
q0 -40 9 -58.5t33 -18.5q7 0 21 4.5t15 4.5zM276 74l-2 116q-70 0 -108 -11.5t-47.5 -26t-9.5 -37.5q0 -30 20 -50.5t52 -20.5q42 0 95 30zM261 521l-27 -21l-107 111q-29 29 -29 46q0 15 12 25.5t26 10.5q13 0 22 -6.5t23 -30.5z" />
    <glyph glyph-name="aacute" unicode="&#xe1;" horiz-adv-x="437" 
d="M431 34q-19 -18 -44.5 -31t-45.5 -13q-46 0 -59 53q-57 -54 -126 -54q-52 0 -86.5 35t-34.5 89q0 39 17.5 63t72 40t149.5 16q0 91 -12 111q-18 32 -74 32q-62 0 -113 -34q-10 16 -10 33q0 24 37 41q47 22 112 22q70 0 103 -35q26 -29 26 -96q0 -8 -0.5 -90.5t-0.5 -87.5
q0 -40 9 -58.5t33 -18.5q7 0 21 4.5t15 4.5zM276 74l-2 116q-70 0 -108 -11.5t-47.5 -26t-9.5 -37.5q0 -30 20 -50.5t52 -20.5q42 0 95 30zM188 500l-26 21l80 135q23 38 47 38q15 0 25 -9.5t10 -24.5q0 -22 -27 -49z" />
    <glyph glyph-name="acircumflex" unicode="&#xe2;" horiz-adv-x="437" 
d="M431 34q-19 -18 -44.5 -31t-45.5 -13q-46 0 -59 53q-57 -54 -126 -54q-52 0 -86.5 35t-34.5 89q0 39 17.5 63t72 40t149.5 16q0 91 -12 111q-18 32 -74 32q-62 0 -113 -34q-10 16 -10 33q0 24 37 41q47 22 112 22q70 0 103 -35q26 -29 26 -96q0 -8 -0.5 -90.5t-0.5 -87.5
q0 -40 9 -58.5t33 -18.5q7 0 21 4.5t15 4.5zM276 74l-2 116q-70 0 -108 -11.5t-47.5 -26t-9.5 -37.5q0 -30 20 -50.5t52 -20.5q42 0 95 30zM333 505l-25 -20l-103 103l-101 -103l-24 19l99 145q13 19 28 19q18 0 30 -19z" />
    <glyph glyph-name="atilde" unicode="&#xe3;" horiz-adv-x="437" 
d="M431 34q-19 -18 -44.5 -31t-45.5 -13q-46 0 -59 53q-57 -54 -126 -54q-52 0 -86.5 35t-34.5 89q0 39 17.5 63t72 40t149.5 16q0 91 -12 111q-18 32 -74 32q-62 0 -113 -34q-10 16 -10 33q0 24 37 41q47 22 112 22q70 0 103 -35q26 -29 26 -96q0 -8 -0.5 -90.5t-0.5 -87.5
q0 -40 9 -58.5t33 -18.5q7 0 21 4.5t15 4.5zM276 74l-2 116q-70 0 -108 -11.5t-47.5 -26t-9.5 -37.5q0 -30 20 -50.5t52 -20.5q42 0 95 30zM101 508l-29 12q12 42 33 70.5t49 28.5q18 0 50 -13l25 -11q30 -13 41 -13q23 0 44 47l29 -12q-27 -99 -74 -99q-19 0 -58 17l-22 9
q-28 11 -41 11q-15 0 -24 -10t-23 -37z" />
    <glyph glyph-name="adieresis" unicode="&#xe4;" horiz-adv-x="437" 
d="M431 34q-19 -18 -44.5 -31t-45.5 -13q-46 0 -59 53q-57 -54 -126 -54q-52 0 -86.5 35t-34.5 89q0 39 17.5 63t72 40t149.5 16q0 91 -12 111q-18 32 -74 32q-62 0 -113 -34q-10 16 -10 33q0 24 37 41q47 22 112 22q70 0 103 -35q26 -29 26 -96q0 -8 -0.5 -90.5t-0.5 -87.5
q0 -40 9 -58.5t33 -18.5q7 0 21 4.5t15 4.5zM276 74l-2 116q-70 0 -108 -11.5t-47.5 -26t-9.5 -37.5q0 -30 20 -50.5t52 -20.5q42 0 95 30zM131 542q-19 0 -32 14t-13 36q0 20 13 33.5t33 13.5t32 -13.5t12 -33.5q0 -21 -12.5 -35.5t-32.5 -14.5zM280 542q-19 0 -32 14
t-13 36q0 20 13 33.5t33 13.5q19 0 31.5 -13.5t12.5 -33.5q0 -21 -12.5 -35.5t-32.5 -14.5z" />
    <glyph glyph-name="aring" unicode="&#xe5;" horiz-adv-x="437" 
d="M431 34q-19 -18 -44.5 -31t-45.5 -13q-46 0 -59 53q-57 -54 -126 -54q-52 0 -86.5 35t-34.5 89q0 39 17.5 63t72 40t149.5 16q0 91 -12 111q-18 32 -74 32q-62 0 -113 -34q-10 16 -10 33q0 24 37 41q47 22 112 22q70 0 103 -35q26 -29 26 -96q0 -8 -0.5 -90.5t-0.5 -87.5
q0 -40 9 -58.5t33 -18.5q7 0 21 4.5t15 4.5zM276 74l-2 116q-70 0 -108 -11.5t-47.5 -26t-9.5 -37.5q0 -30 20 -50.5t52 -20.5q42 0 95 30zM297 586q0 -38 -25 -62.5t-60 -24.5q-34 0 -58.5 23.5t-24.5 61.5q0 37 25.5 62t58.5 25q36 0 60 -23.5t24 -61.5zM259 586
q0 25 -13.5 38t-33.5 13q-19 0 -32.5 -13.5t-13.5 -37.5t12.5 -38.5t33.5 -14.5t34 14t13 39z" />
    <glyph glyph-name="ae" unicode="&#xe6;" horiz-adv-x="661" 
d="M634 56q-85 -70 -172 -70q-93 0 -142 66q-77 -64 -157 -64q-56 0 -92 35t-36 89q0 38 17.5 62.5t72 40.5t149.5 17q0 89 -11 109q-10 18 -25.5 26t-51.5 8q-60 0 -111 -34q-10 20 -10 32q0 26 39 43q48 21 109 21q90 0 113 -71q55 70 146 70q81 0 118 -52t37 -121
q0 -30 -34 -30h-253v-10q0 -80 38 -126.5t104 -46.5q68 0 133 39zM296 88q-18 43 -20 103q-103 -1 -135 -20.5t-32 -56.5q0 -27 20 -49t53 -22q51 0 114 45zM343 271l215 8q-4 52 -30 81t-71 29q-47 0 -77 -31t-37 -87z" />
    <glyph glyph-name="ccedilla" unicode="&#xe7;" horiz-adv-x="405" 
d="M155 -260l-9 35q98 29 98 73q0 16 -10 27t-34 24q-18 11 -18 28q0 20 16 61q-75 10 -116.5 67t-41.5 142q0 103 63 171t157 68q57 0 94 -21q17 -7 17 -25q0 -21 -29 -58q-43 43 -113 43q-53 0 -87 -39.5t-34 -119.5q0 -77 41 -121.5t104 -44.5q53 0 116 38l19 -32
q-73 -67 -153 -70q-7 -21 -7 -29q0 -15 15 -22q34 -16 48.5 -33.5t14.5 -43.5q0 -87 -151 -118z" />
    <glyph glyph-name="egrave" unicode="&#xe8;" horiz-adv-x="430" 
d="M403 59q-80 -72 -169 -72q-91 0 -142 59.5t-51 154.5q0 108 56.5 171.5t142.5 63.5q42 0 73.5 -15.5t49 -41t25.5 -55t8 -61.5q0 -30 -35 -30h-253v-9q0 -80 38 -126.5t108 -46.5q66 0 128 40zM111 271l215 8q-4 54 -31 82t-70 28q-47 0 -77 -31.5t-37 -86.5zM272 521
l-27 -21l-107 111q-29 29 -29 46q0 15 12 25.5t26 10.5q13 0 22 -6.5t23 -30.5z" />
    <glyph glyph-name="eacute" unicode="&#xe9;" horiz-adv-x="430" 
d="M403 59q-80 -72 -169 -72q-91 0 -142 59.5t-51 154.5q0 108 56.5 171.5t142.5 63.5q42 0 73.5 -15.5t49 -41t25.5 -55t8 -61.5q0 -30 -35 -30h-253v-9q0 -80 38 -126.5t108 -46.5q66 0 128 40zM111 271l215 8q-4 54 -31 82t-70 28q-47 0 -77 -31.5t-37 -86.5zM198 500
l-26 21l80 135q23 38 47 38q15 0 25 -9.5t10 -24.5q0 -22 -27 -49z" />
    <glyph glyph-name="ecircumflex" unicode="&#xea;" horiz-adv-x="430" 
d="M403 59q-80 -72 -169 -72q-91 0 -142 59.5t-51 154.5q0 108 56.5 171.5t142.5 63.5q42 0 73.5 -15.5t49 -41t25.5 -55t8 -61.5q0 -30 -35 -30h-253v-9q0 -80 38 -126.5t108 -46.5q66 0 128 40zM111 271l215 8q-4 54 -31 82t-70 28q-47 0 -77 -31.5t-37 -86.5zM357 505
l-25 -20l-103 103l-101 -103l-24 19l99 145q13 19 28 19q18 0 30 -19z" />
    <glyph glyph-name="edieresis" unicode="&#xeb;" horiz-adv-x="430" 
d="M403 59q-80 -72 -169 -72q-91 0 -142 59.5t-51 154.5q0 108 56.5 171.5t142.5 63.5q42 0 73.5 -15.5t49 -41t25.5 -55t8 -61.5q0 -30 -35 -30h-253v-9q0 -80 38 -126.5t108 -46.5q66 0 128 40zM111 271l215 8q-4 54 -31 82t-70 28q-47 0 -77 -31.5t-37 -86.5zM153 542
q-19 0 -32 14t-13 36q0 20 13 33.5t33 13.5t32 -13.5t12 -33.5q0 -21 -12.5 -35.5t-32.5 -14.5zM302 542q-19 0 -32 14t-13 36q0 20 13 33.5t33 13.5q19 0 31.5 -13.5t12.5 -33.5q0 -21 -12.5 -35.5t-32.5 -14.5z" />
    <glyph glyph-name="igrave" unicode="&#xec;" horiz-adv-x="268" 
d="M180 521l-27 -21l-107 111q-29 29 -29 46q0 15 12 25.5t26 10.5q13 0 22 -6.5t23 -30.5zM247 -1q-78 2 -110 2q-27 0 -109 -2v35q56 6 64 13q9 9 9 50q0 171 -2 197q-3 32 -10 40q-13 17 -56 24v22q69 54 109 54q28 0 28 -40v-96t-0.5 -135t-0.5 -65q0 -39 7 -49t71 -15
v-35z" />
    <glyph glyph-name="iacute" unicode="&#xed;" horiz-adv-x="268" 
d="M88 500l-26 21l80 135q23 38 47 38q15 0 25 -9.5t10 -24.5q0 -22 -27 -49zM247 -1q-78 2 -110 2q-27 0 -109 -2v35q56 6 64 13q9 9 9 50q0 171 -2 197q-3 32 -10 40q-13 17 -56 24v22q69 54 109 54q28 0 28 -40v-96t-0.5 -135t-0.5 -65q0 -39 7 -49t71 -15v-35z" />
    <glyph glyph-name="icircumflex" unicode="&#xee;" horiz-adv-x="268" 
d="M247 -1q-78 2 -110 2q-27 0 -109 -2v35q56 6 64 13q9 9 9 50q0 171 -2 197q-3 32 -10 40q-13 17 -56 24v22q69 54 109 54q28 0 28 -40v-96t-0.5 -135t-0.5 -65q0 -39 7 -49t71 -15v-35zM249 505l-25 -20l-103 103l-101 -103l-24 19l99 145q13 19 28 19q18 0 30 -19z" />
    <glyph glyph-name="idieresis" unicode="&#xef;" horiz-adv-x="268" 
d="M50 542q-19 0 -32 14t-13 36q0 20 13 33.5t33 13.5t32 -13.5t12 -33.5q0 -21 -12.5 -35.5t-32.5 -14.5zM199 542q-19 0 -32 14t-13 36q0 20 13 33.5t33 13.5q19 0 31.5 -13.5t12.5 -33.5q0 -21 -12.5 -35.5t-32.5 -14.5zM247 -1q-78 2 -110 2q-27 0 -109 -2v35
q56 6 64 13q9 9 9 50q0 171 -2 197q-3 32 -10 40q-13 17 -56 24v22q69 54 109 54q28 0 28 -40v-96t-0.5 -135t-0.5 -65q0 -39 7 -49t71 -15v-35z" />
    <glyph glyph-name="eth" unicode="&#xf0;" horiz-adv-x="476" 
d="M393 629l-73 -46q123 -140 123 -357q0 -112 -59 -175.5t-144 -63.5q-95 0 -147.5 59.5t-52.5 158.5q0 96 56.5 158t144.5 62q69 0 106 -40q-23 86 -85 162l-101 -61l-22 34l97 59q-64 73 -150 108l19 40q111 -39 187 -113l79 50zM366 198q0 184 -125 184q-58 0 -90 -43.5
t-32 -119.5q0 -92 32.5 -140t91.5 -48q60 0 91.5 44t31.5 123z" />
    <glyph glyph-name="ntilde" unicode="&#xf1;" horiz-adv-x="524" 
d="M240 -1q-80 2 -112 2q-18 0 -100 -2v35q59 7 65 15q8 8 8 49q0 161 -2 196q-2 30 -11 42q-14 16 -55 22v22q64 54 106 54q13 0 20 -11.5t9 -48.5q69 61 146 61q52 0 84 -30q33 -32 33 -121q0 -4 -1 -93.5t-1 -92.5q0 -34 6 -45q7 -13 69 -19v-35q-78 2 -110 2
q-25 0 -103 -2v35q54 5 62 16q8 8 8 50q0 130 -1 177q-2 48 -15 67q-21 29 -70 29q-58 0 -105 -29q0 -10 -0.5 -123t-0.5 -122q0 -41 7 -49q8 -10 64 -16v-35zM150 513l-29 12q12 42 33 70.5t49 28.5q18 0 50 -13l25 -11q30 -13 41 -13q23 0 44 47l29 -12q-27 -99 -74 -99
q-19 0 -58 17l-22 9q-28 11 -41 11q-15 0 -24 -10t-23 -37z" />
    <glyph glyph-name="ograve" unicode="&#xf2;" horiz-adv-x="483" 
d="M443 218q0 -109 -58.5 -170t-144.5 -61q-96 0 -148 61.5t-52 162.5t59.5 163t145.5 62q96 0 147 -58.5t51 -159.5zM366 202q0 89 -30.5 139.5t-92.5 50.5q-58 0 -91 -44t-33 -123q0 -95 33 -144t91 -49q59 0 91 44t32 126zM287 521l-27 -21l-107 111q-29 29 -29 46
q0 15 12 25.5t26 10.5q13 0 22 -6.5t23 -30.5z" />
    <glyph glyph-name="oacute" unicode="&#xf3;" horiz-adv-x="483" 
d="M443 218q0 -109 -58.5 -170t-144.5 -61q-96 0 -148 61.5t-52 162.5t59.5 163t145.5 62q96 0 147 -58.5t51 -159.5zM366 202q0 89 -30.5 139.5t-92.5 50.5q-58 0 -91 -44t-33 -123q0 -95 33 -144t91 -49q59 0 91 44t32 126zM213 500l-26 21l80 135q23 38 47 38
q15 0 25 -9.5t10 -24.5q0 -22 -27 -49z" />
    <glyph glyph-name="ocircumflex" unicode="&#xf4;" horiz-adv-x="483" 
d="M443 218q0 -109 -58.5 -170t-144.5 -61q-96 0 -148 61.5t-52 162.5t59.5 163t145.5 62q96 0 147 -58.5t51 -159.5zM366 202q0 89 -30.5 139.5t-92.5 50.5q-58 0 -91 -44t-33 -123q0 -95 33 -144t91 -49q59 0 91 44t32 126zM369 505l-25 -20l-103 103l-101 -103l-24 19
l99 145q13 19 28 19q18 0 30 -19z" />
    <glyph glyph-name="otilde" unicode="&#xf5;" horiz-adv-x="483" 
d="M443 218q0 -109 -58.5 -170t-144.5 -61q-96 0 -148 61.5t-52 162.5t59.5 163t145.5 62q96 0 147 -58.5t51 -159.5zM366 202q0 89 -30.5 139.5t-92.5 50.5q-58 0 -91 -44t-33 -123q0 -95 33 -144t91 -49q59 0 91 44t32 126zM134 518l-29 12q12 42 33 70.5t49 28.5
q18 0 50 -13l25 -11q30 -13 41 -13q23 0 44 47l29 -12q-27 -99 -74 -99q-19 0 -58 17l-22 9q-28 11 -41 11q-15 0 -24 -10t-23 -37z" />
    <glyph glyph-name="odieresis" unicode="&#xf6;" horiz-adv-x="483" 
d="M443 218q0 -109 -58.5 -170t-144.5 -61q-96 0 -148 61.5t-52 162.5t59.5 163t145.5 62q96 0 147 -58.5t51 -159.5zM366 202q0 89 -30.5 139.5t-92.5 50.5q-58 0 -91 -44t-33 -123q0 -95 33 -144t91 -49q59 0 91 44t32 126zM168 542q-19 0 -32 14t-13 36q0 20 13 33.5
t33 13.5t32 -13.5t12 -33.5q0 -21 -12.5 -35.5t-32.5 -14.5zM317 542q-19 0 -32 14t-13 36q0 20 13 33.5t33 13.5q19 0 31.5 -13.5t12.5 -33.5q0 -21 -12.5 -35.5t-32.5 -14.5z" />
    <glyph glyph-name="divide" unicode="&#xf7;" horiz-adv-x="556" 
d="M321 447q0 -21 -12 -34.5t-32 -13.5t-32 13.5t-12 34.5q0 19 12.5 33t31.5 14q20 0 32 -13t12 -34zM492 267h-429v60h429v-60zM321 147q0 -20 -12 -34t-32 -14t-32 14t-12 35q0 19 12.5 32.5t31.5 13.5q20 0 32 -13t12 -34z" />
    <glyph glyph-name="oslash" unicode="&#xf8;" horiz-adv-x="483" 
d="M86 -39l-35 23l44 61q-55 59 -55 166q0 101 59.5 163t145.5 62q67 0 111 -29l48 66l35 -25l-50 -68q54 -59 54 -162q0 -109 -58.5 -170t-144.5 -61q-66 0 -113 31zM366 202q0 74 -20 118l-184 -253q31 -35 81 -35q59 0 91 44t32 126zM119 225q0 -75 19 -120l184 254
q-31 33 -79 33q-58 0 -91 -44t-33 -123z" />
    <glyph glyph-name="ugrave" unicode="&#xf9;" horiz-adv-x="513" 
d="M492 29q-63 -40 -96 -40q-20 0 -32 13t-16 46q-68 -58 -134 -58q-72 0 -101.5 41t-29.5 126q0 8 0.5 61t0.5 72q0 60 -10 70q-12 12 -60 19v30q72 20 120 20q26 0 26 -27q0 -5 -2.5 -88.5t-2.5 -128.5q0 -75 19 -105t74 -30q41 0 98 33v208q0 60 -10 69q-14 11 -69 19v30
q78 20 124 20q29 0 29 -29q0 -3 -3 -95t-3 -166q0 -45 8 -66q8 -16 30 -16q20 0 40 3v-31zM299 521l-27 -21l-107 111q-29 29 -29 46q0 15 12 25.5t26 10.5q13 0 22 -6.5t23 -30.5z" />
    <glyph glyph-name="uacute" unicode="&#xfa;" horiz-adv-x="513" 
d="M492 29q-63 -40 -96 -40q-20 0 -32 13t-16 46q-68 -58 -134 -58q-72 0 -101.5 41t-29.5 126q0 8 0.5 61t0.5 72q0 60 -10 70q-12 12 -60 19v30q72 20 120 20q26 0 26 -27q0 -5 -2.5 -88.5t-2.5 -128.5q0 -75 19 -105t74 -30q41 0 98 33v208q0 60 -10 69q-14 11 -69 19v30
q78 20 124 20q29 0 29 -29q0 -3 -3 -95t-3 -166q0 -45 8 -66q8 -16 30 -16q20 0 40 3v-31zM226 500l-26 21l80 135q23 38 47 38q15 0 25 -9.5t10 -24.5q0 -22 -27 -49z" />
    <glyph glyph-name="ucircumflex" unicode="&#xfb;" horiz-adv-x="513" 
d="M492 29q-63 -40 -96 -40q-20 0 -32 13t-16 46q-68 -58 -134 -58q-72 0 -101.5 41t-29.5 126q0 8 0.5 61t0.5 72q0 60 -10 70q-12 12 -60 19v30q72 20 120 20q26 0 26 -27q0 -5 -2.5 -88.5t-2.5 -128.5q0 -75 19 -105t74 -30q41 0 98 33v208q0 60 -10 69q-14 11 -69 19v30
q78 20 124 20q29 0 29 -29q0 -3 -3 -95t-3 -166q0 -45 8 -66q8 -16 30 -16q20 0 40 3v-31zM376 505l-25 -20l-103 103l-101 -103l-24 19l99 145q13 19 28 19q18 0 30 -19z" />
    <glyph glyph-name="udieresis" unicode="&#xfc;" horiz-adv-x="513" 
d="M492 29q-63 -40 -96 -40q-20 0 -32 13t-16 46q-68 -58 -134 -58q-72 0 -101.5 41t-29.5 126q0 8 0.5 61t0.5 72q0 60 -10 70q-12 12 -60 19v30q72 20 120 20q26 0 26 -27q0 -5 -2.5 -88.5t-2.5 -128.5q0 -75 19 -105t74 -30q41 0 98 33v208q0 60 -10 69q-14 11 -69 19v30
q78 20 124 20q29 0 29 -29q0 -3 -3 -95t-3 -166q0 -45 8 -66q8 -16 30 -16q20 0 40 3v-31zM176 542q-19 0 -32 14t-13 36q0 20 13 33.5t33 13.5t32 -13.5t12 -33.5q0 -21 -12.5 -35.5t-32.5 -14.5zM325 542q-19 0 -32 14t-13 36q0 20 13 33.5t33 13.5q19 0 31.5 -13.5
t12.5 -33.5q0 -21 -12.5 -35.5t-32.5 -14.5z" />
    <glyph glyph-name="yacute" unicode="&#xfd;" horiz-adv-x="472" 
d="M40 -231q50 28 91.5 78.5t89.5 151.5h-20l-123 312q-23 57 -33 65q-14 9 -42 12v35q62 -2 100 -2q45 0 101 2v-35q-34 -4 -41 -6q-23 -5 -23 -21q0 -11 18 -60l90 -238l84 228q21 57 21 72q0 14 -14 18q-24 5 -48 7v35q54 -2 95 -2q28 0 80 2v-35q-33 -4 -45 -16
q-10 -10 -34 -72q-122 -322 -169 -417q-44 -87 -75 -122q-28 -32 -56 -32t-47 40zM227 500l-26 21l80 135q23 38 47 38q15 0 25 -9.5t10 -24.5q0 -22 -27 -49z" />
    <glyph glyph-name="thorn" unicode="&#xfe;" horiz-adv-x="505" 
d="M153 343q0 -122 1 -219q0 -44 8 -53q9 -13 36 -22.5t63 -9.5q59 0 94.5 41.5t35.5 115.5q0 89 -30.5 132.5t-103.5 43.5q-19 0 -51 -8.5t-53 -20.5zM237 -255q-66 2 -115 2q-34 0 -106 -2v35q56 5 65 15q6 8 6 41q0 353 -4 734q0 47 -9 59q-11 16 -55 24v23q79 55 112 55
q23 0 23 -29q0 -150 -2 -326q75 59 145 59q81 0 124.5 -58t43.5 -148q0 -107 -58.5 -172t-162.5 -65q-49 0 -90 11v-157q0 -42 7 -49q8 -10 76 -17v-35z" />
    <glyph glyph-name="ydieresis" unicode="&#xff;" horiz-adv-x="472" 
d="M40 -231q50 28 91.5 78.5t89.5 151.5h-20l-123 312q-23 57 -33 65q-14 9 -42 12v35q62 -2 100 -2q45 0 101 2v-35q-34 -4 -41 -6q-23 -5 -23 -21q0 -11 18 -60l90 -238l84 228q21 57 21 72q0 14 -14 18q-24 5 -48 7v35q54 -2 95 -2q28 0 80 2v-35q-33 -4 -45 -16
q-10 -10 -34 -72q-122 -322 -169 -417q-44 -87 -75 -122q-28 -32 -56 -32t-47 40zM168 542q-19 0 -32 14t-13 36q0 20 13 33.5t33 13.5t32 -13.5t12 -33.5q0 -21 -12.5 -35.5t-32.5 -14.5zM317 542q-19 0 -32 14t-13 36q0 20 13 33.5t33 13.5q19 0 31.5 -13.5t12.5 -33.5
q0 -21 -12.5 -35.5t-32.5 -14.5z" />
    <glyph glyph-name="Amacron" unicode="&#x100;" horiz-adv-x="617" 
d="M241 -1q-96 2 -126 2q-25 0 -111 -2v36q45 5 57 17q16 14 49 101l181 492h52l167 -497q29 -85 44 -99q8 -8 59 -14v-36q-92 2 -110 2q-37 0 -141 -2v36q51 4 67 11t16 22q0 21 -22 85l-26 82h-200l-28 -81q-23 -65 -23 -88q0 -14 18 -20.5t77 -10.5v-36zM212 279h171
q-65 197 -83 256q-23 -73 -88 -256zM446 721h-250v58h250v-58z" />
    <glyph glyph-name="amacron" unicode="&#x101;" horiz-adv-x="437" 
d="M431 34q-19 -18 -44.5 -31t-45.5 -13q-46 0 -59 53q-57 -54 -126 -54q-52 0 -86.5 35t-34.5 89q0 39 17.5 63t72 40t149.5 16q0 91 -12 111q-18 32 -74 32q-62 0 -113 -34q-10 16 -10 33q0 24 37 41q47 22 112 22q70 0 103 -35q26 -29 26 -96q0 -8 -0.5 -90.5t-0.5 -87.5
q0 -40 9 -58.5t33 -18.5q7 0 21 4.5t15 4.5zM276 74l-2 116q-70 0 -108 -11.5t-47.5 -26t-9.5 -37.5q0 -30 20 -50.5t52 -20.5q42 0 95 30zM327 531h-238v60h238v-60z" />
    <glyph glyph-name="Abreve" unicode="&#x102;" horiz-adv-x="617" 
d="M241 -1q-96 2 -126 2q-25 0 -111 -2v36q45 5 57 17q16 14 49 101l181 492h52l167 -497q29 -85 44 -99q8 -8 59 -14v-36q-92 2 -110 2q-37 0 -141 -2v36q51 4 67 11t16 22q0 21 -22 85l-26 82h-200l-28 -81q-23 -65 -23 -88q0 -14 18 -20.5t77 -10.5v-36zM212 279h171
q-65 197 -83 256q-23 -73 -88 -256zM418 841l34 -2q-1 -67 -38.5 -106t-94.5 -39q-58 0 -93.5 35t-36.5 109l34 3q5 -41 30 -62.5t65 -21.5q83 0 100 84z" />
    <glyph glyph-name="abreve" unicode="&#x103;" horiz-adv-x="437" 
d="M431 34q-19 -18 -44.5 -31t-45.5 -13q-46 0 -59 53q-57 -54 -126 -54q-52 0 -86.5 35t-34.5 89q0 39 17.5 63t72 40t149.5 16q0 91 -12 111q-18 32 -74 32q-62 0 -113 -34q-10 16 -10 33q0 24 37 41q47 22 112 22q70 0 103 -35q26 -29 26 -96q0 -8 -0.5 -90.5t-0.5 -87.5
q0 -40 9 -58.5t33 -18.5q7 0 21 4.5t15 4.5zM276 74l-2 116q-70 0 -108 -11.5t-47.5 -26t-9.5 -37.5q0 -30 20 -50.5t52 -20.5q42 0 95 30zM303 647l32 -2q-1 -68 -34.5 -106t-88.5 -38q-119 0 -120 143l32 3q11 -82 88 -82q76 0 91 82z" />
    <glyph glyph-name="Aogonek" unicode="&#x104;" horiz-adv-x="617" 
d="M241 -1q-96 2 -126 2q-25 0 -111 -2v36q45 5 57 17q16 14 49 101l181 492h52l167 -497q29 -85 44 -99q8 -8 59 -14v-36q-86 2 -104 2q-45 -52 -64.5 -85.5t-19.5 -64.5q0 -57 53 -57q30 0 64 16l12 -31q-49 -39 -102 -39q-40 0 -62.5 27t-22.5 66q0 42 23.5 78.5
t78.5 89.5q-33 0 -107 -2v36q51 4 67 11t16 22q0 21 -22 85l-26 82h-200l-28 -81q-23 -65 -23 -88q0 -14 18 -20.5t77 -10.5v-36zM212 279h171q-65 197 -83 256q-23 -73 -88 -256z" />
    <glyph glyph-name="aogonek" unicode="&#x105;" horiz-adv-x="437" 
d="M431 34q-33 -31 -68 -40q-75 -87 -75 -138q0 -55 52 -55q29 0 61 14l12 -30q-49 -36 -97 -36q-40 0 -63 26.5t-23 63.5q0 38 21.5 72.5t70.5 81.5q-31 8 -40 50q-57 -54 -126 -54q-52 0 -86.5 35t-34.5 89q0 39 17.5 63t72 40t149.5 16q0 91 -12 111q-18 32 -74 32
q-62 0 -113 -34q-10 16 -10 33q0 24 37 41q47 22 112 22q70 0 103 -35q26 -29 26 -96q0 -8 -0.5 -90.5t-0.5 -87.5q0 -40 9 -58.5t33 -18.5q7 0 21 4.5t15 4.5zM276 74l-2 116q-70 0 -108 -11.5t-47.5 -26t-9.5 -37.5q0 -30 20 -50.5t52 -20.5q42 0 95 30z" />
    <glyph glyph-name="Cacute" unicode="&#x106;" horiz-adv-x="625" 
d="M578 171q-8 -73 -27 -123q-11 -28 -35 -38q-57 -24 -163 -24q-140 0 -226 85t-86 239q0 161 91.5 254.5t243.5 93.5q93 0 153 -22q24 -9 30 -32q7 -26 7 -135l-35 -3q-17 74 -27 93q-8 18 -28 28q-42 20 -107 20q-111 0 -178 -75.5t-67 -212.5q0 -132 64.5 -207.5
t173.5 -75.5q60 0 97 15q21 10 36 27q18 22 47 100zM326 681l-20 26l107 114q25 28 45 28q15 0 25 -10.5t10 -27.5q0 -22 -37 -46z" />
    <glyph glyph-name="cacute" unicode="&#x107;" horiz-adv-x="405" 
d="M388 57q-76 -70 -158 -70q-89 0 -139.5 58t-50.5 152q0 103 63 171t157 68q57 0 94 -21q17 -7 17 -25q0 -21 -29 -58q-43 43 -113 43q-53 0 -87 -39.5t-34 -119.5q0 -77 40.5 -121t104.5 -44q53 0 116 38zM195 500l-26 21l80 135q23 38 47 38q15 0 25 -9.5t10 -24.5
q0 -22 -27 -49z" />
    <glyph glyph-name="Ccircumflex" unicode="&#x108;" horiz-adv-x="625" 
d="M578 171q-8 -73 -27 -123q-11 -28 -35 -38q-57 -24 -163 -24q-140 0 -226 85t-86 239q0 161 91.5 254.5t243.5 93.5q93 0 153 -22q24 -9 30 -32q7 -26 7 -135l-35 -3q-17 74 -27 93q-8 18 -28 28q-42 20 -107 20q-111 0 -178 -75.5t-67 -212.5q0 -132 64.5 -207.5
t173.5 -75.5q60 0 97 15q21 10 36 27q18 22 47 100zM497 700l-23 -20l-115 87l-113 -87l-22 19l108 128q17 20 29 20q16 0 30 -18z" />
    <glyph glyph-name="ccircumflex" unicode="&#x109;" horiz-adv-x="405" 
d="M388 57q-76 -70 -158 -70q-89 0 -139.5 58t-50.5 152q0 103 63 171t157 68q57 0 94 -21q17 -7 17 -25q0 -21 -29 -58q-43 43 -113 43q-53 0 -87 -39.5t-34 -119.5q0 -77 40.5 -121t104.5 -44q53 0 116 38zM351 505l-25 -20l-103 103l-101 -103l-24 19l99 145q13 19 28 19
q18 0 30 -19z" />
    <glyph glyph-name="Cdotaccent" unicode="&#x10a;" horiz-adv-x="625" 
d="M578 171q-8 -73 -27 -123q-11 -28 -35 -38q-57 -24 -163 -24q-140 0 -226 85t-86 239q0 161 91.5 254.5t243.5 93.5q93 0 153 -22q24 -9 30 -32q7 -26 7 -135l-35 -3q-17 74 -27 93q-8 18 -28 28q-42 20 -107 20q-111 0 -178 -75.5t-67 -212.5q0 -132 64.5 -207.5
t173.5 -75.5q60 0 97 15q21 10 36 27q18 22 47 100zM357 705q-18 0 -31 13t-13 33t13 33t32 13t31.5 -13t12.5 -33t-12.5 -33t-32.5 -13z" />
    <glyph glyph-name="cdotaccent" unicode="&#x10b;" horiz-adv-x="405" 
d="M388 57q-76 -70 -158 -70q-89 0 -139.5 58t-50.5 152q0 103 63 171t157 68q57 0 94 -21q17 -7 17 -25q0 -21 -29 -58q-43 43 -113 43q-53 0 -87 -39.5t-34 -119.5q0 -77 40.5 -121t104.5 -44q53 0 116 38zM220 542q-18 0 -31 14.5t-13 35.5q0 20 13 33.5t33 13.5
q19 0 31.5 -13.5t12.5 -33.5q0 -21 -13 -35.5t-33 -14.5z" />
    <glyph glyph-name="Ccaron" unicode="&#x10c;" horiz-adv-x="625" 
d="M578 171q-8 -73 -27 -123q-11 -28 -35 -38q-57 -24 -163 -24q-140 0 -226 85t-86 239q0 161 91.5 254.5t243.5 93.5q93 0 153 -22q24 -9 30 -32q7 -26 7 -135l-35 -3q-17 74 -27 93q-8 18 -28 28q-42 20 -107 20q-111 0 -178 -75.5t-67 -212.5q0 -132 64.5 -207.5
t173.5 -75.5q60 0 97 15q21 10 36 27q18 22 47 100zM220 827l22 22l115 -87l113 87l23 -21l-108 -129q-15 -18 -30 -18t-29 18z" />
    <glyph glyph-name="ccaron" unicode="&#x10d;" horiz-adv-x="405" 
d="M388 57q-76 -70 -158 -70q-89 0 -139.5 58t-50.5 152q0 103 63 171t157 68q57 0 94 -21q17 -7 17 -25q0 -21 -29 -58q-43 43 -113 43q-53 0 -87 -39.5t-34 -119.5q0 -77 40.5 -121t104.5 -44q53 0 116 38zM106 650l24 21l103 -104l101 104l25 -20l-98 -145
q-12 -18 -30 -18q-17 0 -29 17z" />
    <glyph glyph-name="Dcaron" unicode="&#x10e;" horiz-adv-x="660" 
d="M30 -1v36q69 6 77 16q7 8 7 56v428q0 43 -4 52q-5 9 -17.5 12t-62.5 9v35h131q143 0 214 -12t119 -40q125 -73 125 -257q0 -168 -88.5 -252t-247.5 -84q-10 0 -66 1.5t-71 1.5q-26 0 -116 -2zM192 88q0 -18 5.5 -24.5t22.5 -9.5q31 -5 82 -5q112 0 172 72t60 204
q0 88 -31.5 149.5t-88.5 87.5q-72 34 -222 34v-508zM163 827l22 22l115 -87l113 87l23 -21l-108 -129q-15 -18 -30 -18t-29 18z" />
    <glyph glyph-name="dcaron" unicode="&#x10f;" horiz-adv-x="525" 
d="M505 29q-67 -40 -98 -40q-41 0 -47 60q-66 -61 -144 -61q-80 0 -128 58.5t-48 145.5q0 106 64 174t169 68q41 0 85 -10v98q0 90 -13 108q-13 19 -55 25v22q78 53 115 53q22 0 22 -30q0 -35 -0.5 -229t-0.5 -333q0 -52 8.5 -66.5t30.5 -14.5q16 0 40 3v-31zM358 85v210
q0 49 -9 61q-23 30 -93 30q-62 0 -101 -41t-39 -119q0 -88 35.5 -133.5t95.5 -45.5q56 0 111 38zM493 505l-27 24q51 51 51 90q0 24 -15 39q-14 14 -14 31t12 29t32 12q50 0 50 -61q0 -82 -89 -164z" />
    <glyph glyph-name="Dcroat" unicode="&#x110;" horiz-adv-x="660" 
d="M21 307v49h93v179q0 43 -4 52q-5 9 -17.5 12t-62.5 9v35h131q143 0 214 -12t119 -40q125 -73 125 -257q0 -168 -88.5 -252t-247.5 -84q-10 0 -66 1.5t-71 1.5q-26 0 -116 -2v36q69 6 77 16q7 8 7 56v200h-93zM192 88q0 -18 5.5 -24.5t22.5 -9.5q31 -5 82 -5q112 0 172 72
t60 204q0 88 -31.5 149.5t-88.5 87.5q-72 34 -222 34v-240h166v-49h-166v-219z" />
    <glyph glyph-name="dcroat" unicode="&#x111;" horiz-adv-x="525" 
d="M494 568v-46h-68v-384q0 -52 8.5 -66.5t30.5 -14.5q16 0 40 3v-31q-67 -40 -98 -40q-41 0 -47 60q-66 -61 -144 -61q-80 0 -128 58.5t-48 145.5q0 106 64 174t169 68q41 0 85 -10v98h-132v46h132q-1 44 -13 62q-13 19 -55 25v22q78 53 115 53q22 0 22 -30v-132h67z
M358 85v211q0 49 -9 60q-27 31 -93 31q-62 0 -102.5 -41.5t-40.5 -119.5q0 -88 36.5 -134t97.5 -46q54 0 111 39z" />
    <glyph glyph-name="Emacron" unicode="&#x112;" horiz-adv-x="533" 
d="M504 164q-7 -93 -24 -139q-6 -16 -19 -20.5t-43 -4.5h-388v35q68 7 76 16q8 8 8 60v425q0 47 -6 53q-10 12 -78 19v35h367q35 0 45.5 -6t12.5 -23q6 -40 6 -124l-34 -2q-16 77 -33 93q-13 11 -38 14t-87 3q-32 0 -78 -2v-238h9q73 0 101 4t41 15q9 9 19 63h36
q-1 -24 -1 -102q0 -69 1 -109h-34q-11 57 -20 67q-11 11 -39.5 13.5t-103.5 2.5h-9v-220q0 -35 26 -40q35 -7 74 -7q110 0 133 25q14 15 48 101zM386 721h-250v58h250v-58z" />
    <glyph glyph-name="emacron" unicode="&#x113;" horiz-adv-x="430" 
d="M403 59q-80 -72 -169 -72q-91 0 -142 59.5t-51 154.5q0 108 56.5 171.5t142.5 63.5q42 0 73.5 -15.5t49 -41t25.5 -55t8 -61.5q0 -30 -35 -30h-253v-9q0 -80 38 -126.5t108 -46.5q66 0 128 40zM111 271l215 8q-4 54 -31 82t-70 28q-47 0 -77 -31.5t-37 -86.5zM350 531
h-238v60h238v-60z" />
    <glyph glyph-name="Ebreve" unicode="&#x114;" horiz-adv-x="533" 
d="M504 164q-7 -93 -24 -139q-6 -16 -19 -20.5t-43 -4.5h-388v35q68 7 76 16q8 8 8 60v425q0 47 -6 53q-10 12 -78 19v35h367q35 0 45.5 -6t12.5 -23q6 -40 6 -124l-34 -2q-16 77 -33 93q-13 11 -38 14t-87 3q-32 0 -78 -2v-238h9q73 0 101 4t41 15q9 9 19 63h36
q-1 -24 -1 -102q0 -69 1 -109h-34q-11 57 -20 67q-11 11 -39.5 13.5t-103.5 2.5h-9v-220q0 -35 26 -40q35 -7 74 -7q110 0 133 25q14 15 48 101zM364 841l34 -2q-1 -67 -38.5 -106t-94.5 -39q-58 0 -93.5 35t-36.5 109l34 3q5 -41 30 -62.5t65 -21.5q83 0 100 84z" />
    <glyph glyph-name="ebreve" unicode="&#x115;" horiz-adv-x="430" 
d="M403 59q-80 -72 -169 -72q-91 0 -142 59.5t-51 154.5q0 108 56.5 171.5t142.5 63.5q42 0 73.5 -15.5t49 -41t25.5 -55t8 -61.5q0 -30 -35 -30h-253v-9q0 -80 38 -126.5t108 -46.5q66 0 128 40zM111 271l215 8q-4 54 -31 82t-70 28q-47 0 -77 -31.5t-37 -86.5zM317 647
l32 -2q-1 -68 -34.5 -106t-88.5 -38q-119 0 -120 143l32 3q11 -82 88 -82q76 0 91 82z" />
    <glyph glyph-name="Edotaccent" unicode="&#x116;" horiz-adv-x="533" 
d="M504 164q-7 -93 -24 -139q-6 -16 -19 -20.5t-43 -4.5h-388v35q68 7 76 16q8 8 8 60v425q0 47 -6 53q-10 12 -78 19v35h367q35 0 45.5 -6t12.5 -23q6 -40 6 -124l-34 -2q-16 77 -33 93q-13 11 -38 14t-87 3q-32 0 -78 -2v-238h9q73 0 101 4t41 15q9 9 19 63h36
q-1 -24 -1 -102q0 -69 1 -109h-34q-11 57 -20 67q-11 11 -39.5 13.5t-103.5 2.5h-9v-220q0 -35 26 -40q35 -7 74 -7q110 0 133 25q14 15 48 101zM269 705q-18 0 -31 13t-13 33t13 33t32 13t31.5 -13t12.5 -33t-12.5 -33t-32.5 -13z" />
    <glyph glyph-name="edotaccent" unicode="&#x117;" horiz-adv-x="430" 
d="M403 59q-80 -72 -169 -72q-91 0 -142 59.5t-51 154.5q0 108 56.5 171.5t142.5 63.5q42 0 73.5 -15.5t49 -41t25.5 -55t8 -61.5q0 -30 -35 -30h-253v-9q0 -80 38 -126.5t108 -46.5q66 0 128 40zM111 271l215 8q-4 54 -31 82t-70 28q-47 0 -77 -31.5t-37 -86.5zM230 542
q-18 0 -31 14.5t-13 35.5q0 20 13 33.5t33 13.5q19 0 31.5 -13.5t12.5 -33.5q0 -21 -13 -35.5t-33 -14.5z" />
    <glyph glyph-name="Eogonek" unicode="&#x118;" horiz-adv-x="533" 
d="M504 164q-7 -93 -24 -139q-9 -24 -47 -25q-44 -52 -63.5 -85t-19.5 -64q0 -57 53 -57q30 0 64 16l12 -31q-49 -39 -102 -39q-40 0 -62.5 27t-22.5 66q0 42 23.5 78.5t77.5 88.5h-363v35q68 7 76 16q8 8 8 60v425q0 47 -6 53q-10 12 -78 19v35h367q35 0 45.5 -6t12.5 -23
q6 -40 6 -124l-34 -2q-16 77 -33 93q-13 11 -38 14t-87 3q-32 0 -78 -2v-238h9q73 0 101 4t41 15q9 9 19 63h36q-1 -24 -1 -102q0 -69 1 -109h-34q-11 57 -20 67q-11 11 -39.5 13.5t-103.5 2.5h-9v-220q0 -35 26 -40q35 -7 74 -7q110 0 133 25q14 15 48 101z" />
    <glyph glyph-name="eogonek" unicode="&#x119;" horiz-adv-x="430" 
d="M403 58q-59 -53 -126 -67q-72 -84 -72 -135q0 -55 52 -55q29 0 61 14l12 -30q-49 -36 -97 -36q-40 0 -63 26.5t-23 63.5t20.5 70t65.5 77q-91 1 -141.5 60t-50.5 155q0 108 56.5 171.5t142.5 63.5q42 0 73.5 -15.5t49 -41t25.5 -55t8 -61.5q0 -30 -35 -30h-253v-9
q0 -80 38.5 -127t107.5 -47q66 0 128 40zM111 271l215 8q-4 54 -31 82t-70 28q-47 0 -77 -31.5t-37 -86.5z" />
    <glyph glyph-name="Ecaron" unicode="&#x11a;" horiz-adv-x="533" 
d="M504 164q-7 -93 -24 -139q-6 -16 -19 -20.5t-43 -4.5h-388v35q68 7 76 16q8 8 8 60v425q0 47 -6 53q-10 12 -78 19v35h367q35 0 45.5 -6t12.5 -23q6 -40 6 -124l-34 -2q-16 77 -33 93q-13 11 -38 14t-87 3q-32 0 -78 -2v-238h9q73 0 101 4t41 15q9 9 19 63h36
q-1 -24 -1 -102q0 -69 1 -109h-34q-11 57 -20 67q-11 11 -39.5 13.5t-103.5 2.5h-9v-220q0 -35 26 -40q35 -7 74 -7q110 0 133 25q14 15 48 101zM138 827l22 22l115 -87l113 87l23 -21l-108 -129q-15 -18 -30 -18t-29 18z" />
    <glyph glyph-name="ecaron" unicode="&#x11b;" horiz-adv-x="430" 
d="M403 59q-80 -72 -169 -72q-91 0 -142 59.5t-51 154.5q0 108 56.5 171.5t142.5 63.5q42 0 73.5 -15.5t49 -41t25.5 -55t8 -61.5q0 -30 -35 -30h-253v-9q0 -80 38 -126.5t108 -46.5q66 0 128 40zM111 271l215 8q-4 54 -31 82t-70 28q-47 0 -77 -31.5t-37 -86.5zM104 650
l24 21l103 -104l101 104l25 -20l-98 -145q-12 -18 -30 -18q-17 0 -29 17z" />
    <glyph glyph-name="Gcircumflex" unicode="&#x11c;" horiz-adv-x="653" 
d="M564 61q0 -24 -8 -34t-28 -16q-72 -25 -175 -25q-140 0 -226 85t-86 239q0 159 91.5 253.5t246.5 94.5q101 0 155 -23q21 -9 27 -34q6 -29 6 -132l-35 -2q-16 76 -30 99q-11 16 -29 24q-37 17 -105 17q-109 0 -176.5 -75.5t-67.5 -212.5q0 -132 64.5 -207.5t170.5 -75.5
q58 0 96 12q21 6 26 16q7 12 7 72v50q0 40 -9 49q-14 12 -73 18v37q54 -2 105 -2q39 0 109 2v-37q-42 -3 -50 -15q-6 -9 -6 -52v-125zM490 700l-23 -20l-115 87l-113 -87l-22 19l108 128q17 20 29 20q16 0 30 -18z" />
    <glyph glyph-name="gcircumflex" unicode="&#x11d;" horiz-adv-x="457" 
d="M312 259q0 134 -96 134q-42 0 -67.5 -29t-25.5 -77q0 -131 94 -131q44 0 69.5 27.5t25.5 75.5zM147 121q-28 -28 -28 -54q0 -17 23 -26q21 -7 74 -10q81 -4 124 -11q58 -10 83 -34.5t25 -75.5q0 -79 -69 -130t-175 -51q-88 0 -139.5 38.5t-51.5 91.5q0 37 27 64
q30 29 89 55q-38 11 -53.5 27t-15.5 40q0 39 57 93q-68 42 -68 132q0 73 48 119.5t123 46.5q52 0 92 -23q96 0 139 -6v-43q-22 -3 -83 -6q16 -27 16 -80q0 -77 -49 -121t-127 -44q-37 0 -61 8zM217 -36q-39 0 -56 -8q-79 -33 -79 -88q0 -39 34.5 -64.5t108.5 -25.5
q69 0 110 30.5t41 76.5q0 41 -34 60t-125 19zM348 505l-25 -20l-103 103l-101 -103l-24 19l99 145q13 19 28 19q18 0 30 -19z" />
    <glyph glyph-name="Gbreve" unicode="&#x11e;" horiz-adv-x="653" 
d="M564 61q0 -24 -8 -34t-28 -16q-72 -25 -175 -25q-140 0 -226 85t-86 239q0 159 91.5 253.5t246.5 94.5q101 0 155 -23q21 -9 27 -34q6 -29 6 -132l-35 -2q-16 76 -30 99q-11 16 -29 24q-37 17 -105 17q-109 0 -176.5 -75.5t-67.5 -212.5q0 -132 64.5 -207.5t170.5 -75.5
q58 0 96 12q21 6 26 16q7 12 7 72v50q0 40 -9 49q-14 12 -73 18v37q54 -2 105 -2q39 0 109 2v-37q-42 -3 -50 -15q-6 -9 -6 -52v-125zM450 841l34 -2q-1 -67 -38.5 -106t-94.5 -39q-58 0 -93.5 35t-36.5 109l34 3q5 -41 30 -62.5t65 -21.5q83 0 100 84z" />
    <glyph glyph-name="gbreve" unicode="&#x11f;" horiz-adv-x="457" 
d="M312 259q0 134 -96 134q-42 0 -67.5 -29t-25.5 -77q0 -131 94 -131q44 0 69.5 27.5t25.5 75.5zM147 121q-28 -28 -28 -54q0 -17 23 -26q21 -7 74 -10q81 -4 124 -11q58 -10 83 -34.5t25 -75.5q0 -79 -69 -130t-175 -51q-88 0 -139.5 38.5t-51.5 91.5q0 37 27 64
q30 29 89 55q-38 11 -53.5 27t-15.5 40q0 39 57 93q-68 42 -68 132q0 73 48 119.5t123 46.5q52 0 92 -23q96 0 139 -6v-43q-22 -3 -83 -6q16 -27 16 -80q0 -77 -49 -121t-127 -44q-37 0 -61 8zM217 -36q-39 0 -56 -8q-79 -33 -79 -88q0 -39 34.5 -64.5t108.5 -25.5
q69 0 110 30.5t41 76.5q0 41 -34 60t-125 19zM311 647l32 -2q-1 -68 -34.5 -106t-88.5 -38q-119 0 -120 143l32 3q11 -82 88 -82q76 0 91 82z" />
    <glyph glyph-name="Gdotaccent" unicode="&#x120;" horiz-adv-x="653" 
d="M564 61q0 -24 -8 -34t-28 -16q-72 -25 -175 -25q-140 0 -226 85t-86 239q0 159 91.5 253.5t246.5 94.5q101 0 155 -23q21 -9 27 -34q6 -29 6 -132l-35 -2q-16 76 -30 99q-11 16 -29 24q-37 17 -105 17q-109 0 -176.5 -75.5t-67.5 -212.5q0 -132 64.5 -207.5t170.5 -75.5
q58 0 96 12q21 6 26 16q7 12 7 72v50q0 40 -9 49q-14 12 -73 18v37q54 -2 105 -2q39 0 109 2v-37q-42 -3 -50 -15q-6 -9 -6 -52v-125zM356 705q-18 0 -31 13t-13 33t13 33t32 13t31.5 -13t12.5 -33t-12.5 -33t-32.5 -13z" />
    <glyph glyph-name="gdotaccent" unicode="&#x121;" horiz-adv-x="457" 
d="M312 259q0 134 -96 134q-42 0 -67.5 -29t-25.5 -77q0 -131 94 -131q44 0 69.5 27.5t25.5 75.5zM147 121q-28 -28 -28 -54q0 -17 23 -26q21 -7 74 -10q81 -4 124 -11q58 -10 83 -34.5t25 -75.5q0 -79 -69 -130t-175 -51q-88 0 -139.5 38.5t-51.5 91.5q0 37 27 64
q30 29 89 55q-38 11 -53.5 27t-15.5 40q0 39 57 93q-68 42 -68 132q0 73 48 119.5t123 46.5q52 0 92 -23q96 0 139 -6v-43q-22 -3 -83 -6q16 -27 16 -80q0 -77 -49 -121t-127 -44q-37 0 -61 8zM217 -36q-39 0 -56 -8q-79 -33 -79 -88q0 -39 34.5 -64.5t108.5 -25.5
q69 0 110 30.5t41 76.5q0 41 -34 60t-125 19zM222 542q-18 0 -31 14.5t-13 35.5q0 20 13 33.5t33 13.5q19 0 31.5 -13.5t12.5 -33.5q0 -21 -13 -35.5t-33 -14.5z" />
    <glyph glyph-name="Gcommaaccent" unicode="&#x122;" horiz-adv-x="653" 
d="M564 61q0 -24 -8 -34t-28 -16q-72 -25 -175 -25q-140 0 -226 85t-86 239q0 159 91.5 253.5t246.5 94.5q101 0 155 -23q21 -9 27 -34q6 -29 6 -132l-35 -2q-16 76 -30 99q-11 16 -29 24q-37 17 -105 17q-109 0 -176.5 -75.5t-67.5 -212.5q0 -132 64.5 -207.5t170.5 -75.5
q58 0 96 12q21 6 26 16q7 12 7 72v50q0 40 -9 49q-14 12 -73 18v37q54 -2 105 -2q39 0 109 2v-37q-42 -3 -50 -15q-6 -9 -6 -52v-125zM317 -279l-27 24q51 51 51 90q0 23 -16 39q-13 13 -13 31q0 17 12 29t32 12q50 0 50 -61q0 -82 -89 -164z" />
    <glyph glyph-name="gcommaaccent" unicode="&#x123;" horiz-adv-x="457" 
d="M312 259q0 134 -96 134q-42 0 -67.5 -29t-25.5 -77q0 -131 94 -131q44 0 69.5 27.5t25.5 75.5zM147 121q-28 -28 -28 -54q0 -17 23 -26q16 -6 74 -10q86 -6 124 -11q57 -8 82.5 -33.5t25.5 -76.5q0 -79 -69 -130t-175 -51q-88 0 -139.5 38.5t-51.5 91.5q0 37 27 64
q30 29 89 55q-38 11 -53.5 27t-15.5 40q0 39 57 93q-68 42 -68 132q0 73 48 119.5t123 46.5q52 0 92 -23q96 0 139 -6v-43q-24 -4 -83 -6q16 -27 16 -80q0 -77 -49 -121t-127 -44q-37 0 -61 8zM217 -36q-39 0 -56 -8q-79 -33 -79 -88q0 -39 34.5 -64.5t108.5 -25.5
q69 0 110 30.5t41 76.5q0 41 -34 60t-125 19zM256 728l24 -24q-50 -53 -50 -89q0 -18 17 -38q11 -13 11 -31q0 -17 -11 -29.5t-29 -12.5q-47 0 -47 61q0 81 85 163z" />
    <glyph glyph-name="Hcircumflex" unicode="&#x124;" horiz-adv-x="702" 
d="M280 -1q-82 2 -126 2q-40 0 -124 -2v36q67 5 77 16q7 7 7 60v423q0 49 -7 57q-7 10 -77 17v36q84 -2 124 -2q44 0 126 2v-36q-74 -7 -82 -18q-6 -8 -6 -55v-174h315v173q0 49 -6 57q-7 10 -79 17v36q86 -2 125 -2q45 0 125 2v-36q-72 -7 -82 -18q-6 -8 -6 -55v-425
q0 -50 7 -58q9 -11 81 -17v-36q-80 2 -125 2q-39 0 -125 -2v36q69 5 78 15q7 7 7 60v203h-315v-203q0 -51 6 -58q10 -12 82 -17v-36zM491 700l-23 -20l-115 87l-113 -87l-22 19l108 128q17 20 29 20q16 0 30 -18z" />
    <glyph glyph-name="hcircumflex" unicode="&#x125;" horiz-adv-x="512" 
d="M231 -1q-78 2 -111 2q-23 0 -101 -2v35q57 6 64 15q9 11 9 50q0 52 -0.5 230.5t-0.5 190.5q0 69 -4 86q-9 44 -63 49v22q79 53 116 53q21 0 21 -29q0 -37 -0.5 -167.5t-0.5 -159.5q77 61 145 61q52 0 84 -30q34 -34 34 -121q0 -4 -1 -93t-1 -92q0 -38 6 -48q8 -11 69 -17
v-35q-76 2 -116 2q-17 0 -97 -2v35q53 5 61 16q9 9 9 51q0 129 -2 176t-15 66q-21 30 -65 30q-65 0 -111 -28q0 -11 -0.5 -128t-0.5 -118q0 -41 7 -49q8 -10 65 -16v-35zM251 766l-25 -20l-103 103l-101 -103l-24 19l99 145q13 19 28 19q18 0 30 -19z" />
    <glyph glyph-name="Hbar" unicode="&#x126;" horiz-adv-x="702" 
d="M671 442h-87v-332q0 -50 7 -58q9 -11 81 -17v-36q-80 2 -125 2q-39 0 -125 -2v36q69 5 78 15q7 7 7 60v203h-315v-203q0 -51 6 -58q10 -12 82 -17v-36q-82 2 -126 2q-40 0 -124 -2v36q67 5 77 16q7 7 7 60v331h-86v50h86v42q0 49 -7 57q-7 10 -77 17v36q84 -2 124 -2
q44 0 126 2v-36q-74 -7 -82 -18q-6 -8 -6 -55v-43h315v42q0 49 -6 57q-7 10 -79 17v36q86 -2 125 -2q45 0 125 2v-36q-72 -7 -82 -18q-6 -8 -6 -55v-43h87v-50zM192 361h315v81h-315v-81z" />
    <glyph glyph-name="hbar" unicode="&#x127;" horiz-adv-x="512" 
d="M288 568v-46h-128v-148q77 61 145 61q52 0 84 -30q34 -34 34 -121q0 -4 -1 -93t-1 -92q0 -38 6 -48q8 -11 69 -17v-35q-76 2 -116 2q-17 0 -97 -2v35q53 5 61 16q9 9 9 51q0 129 -2 176t-15 66q-21 30 -65 30q-65 0 -110 -28q0 -11 -0.5 -128t-0.5 -118q0 -42 6 -49
q8 -10 66 -16v-35q-80 2 -112 2q-23 0 -101 -2v35q57 6 64 15q9 11 9 50q0 377 -1 423h-71v46h70q0 26 -3 38q-7 44 -63 49v22q79 53 116 53q21 0 21 -29q0 -12 -0.5 -58t-0.5 -75h128z" />
    <glyph glyph-name="Itilde" unicode="&#x128;" horiz-adv-x="307" 
d="M278 -1q-82 2 -123 2t-125 -2v36q67 5 77 16q7 7 7 60v423q0 47 -7 57q-8 11 -77 17v36q84 -2 125 -2t123 2v-36q-70 -7 -80 -18q-6 -8 -6 -55v-425q0 -50 7 -58q9 -12 79 -17v-36zM41 697l-29 11q11 41 31.5 68t49.5 27q24 0 52 -12l34 -13q29 -11 41 -11q22 0 44 46
l29 -11q-27 -95 -73 -95q-25 0 -63 15l-29 12q-21 9 -39 9q-16 0 -25.5 -9.5t-22.5 -36.5z" />
    <glyph glyph-name="itilde" unicode="&#x129;" horiz-adv-x="268" 
d="M22 518l-29 12q12 42 33 70.5t49 28.5q18 0 50 -13l25 -11q30 -13 41 -13q23 0 44 47l29 -12q-27 -99 -74 -99q-19 0 -58 17l-22 9q-28 11 -41 11q-15 0 -24 -10t-23 -37zM247 -1q-78 2 -110 2q-27 0 -109 -2v35q56 6 64 13q9 9 9 50q0 171 -2 197q-3 32 -10 40
q-13 17 -56 24v22q69 54 109 54q28 0 28 -40v-96t-0.5 -135t-0.5 -65q0 -39 7 -49t71 -15v-35z" />
    <glyph glyph-name="Imacron" unicode="&#x12a;" horiz-adv-x="307" 
d="M278 -1q-82 2 -123 2t-125 -2v36q67 5 77 16q7 7 7 60v423q0 47 -7 57q-8 11 -77 17v36q84 -2 125 -2t123 2v-36q-70 -7 -80 -18q-6 -8 -6 -55v-425q0 -50 7 -58q9 -12 79 -17v-36zM273 745h-238v60h238v-60z" />
    <glyph glyph-name="imacron" unicode="&#x12b;" horiz-adv-x="268" 
d="M245 531h-238v60h238v-60zM247 -1q-78 2 -110 2q-27 0 -109 -2v35q56 6 64 13q9 9 9 50q0 171 -2 197q-3 32 -10 40q-13 17 -56 24v22q69 54 109 54q28 0 28 -40v-96t-0.5 -135t-0.5 -65q0 -39 7 -49t71 -15v-35z" />
    <glyph glyph-name="Ibreve" unicode="&#x12c;" horiz-adv-x="307" 
d="M278 -1q-82 2 -123 2t-125 -2v36q67 5 77 16q7 7 7 60v423q0 47 -7 57q-8 11 -77 17v36q84 -2 125 -2t123 2v-36q-70 -7 -80 -18q-6 -8 -6 -55v-425q0 -50 7 -58q9 -12 79 -17v-36zM250 841l34 -2q-1 -67 -38.5 -106t-94.5 -39q-58 0 -93.5 35t-36.5 109l34 3
q5 -41 30 -62.5t65 -21.5q83 0 100 84z" />
    <glyph glyph-name="ibreve" unicode="&#x12d;" horiz-adv-x="268" 
d="M214 647l32 -2q-1 -68 -34.5 -106t-88.5 -38q-119 0 -120 143l32 3q11 -82 88 -82q76 0 91 82zM247 -1q-78 2 -110 2q-27 0 -109 -2v35q56 6 64 13q9 9 9 50q0 171 -2 197q-3 32 -10 40q-13 17 -56 24v22q69 54 109 54q28 0 28 -40v-96t-0.5 -135t-0.5 -65q0 -39 7 -49
t71 -15v-35z" />
    <glyph glyph-name="Iogonek" unicode="&#x12e;" horiz-adv-x="307" 
d="M278 -1q-58 2 -89 2q-45 -52 -64.5 -85.5t-19.5 -64.5q0 -57 53 -57q30 0 64 16l12 -31q-49 -39 -102 -39q-40 0 -62.5 27t-22.5 66q0 42 23.5 78.5t78.5 89.5q-41 0 -119 -2v36q67 5 77 16q7 7 7 60v423q0 47 -7 57q-8 11 -77 17v36q84 -2 125 -2t123 2v-36
q-70 -7 -80 -18q-6 -8 -6 -55v-425q0 -50 7 -58q9 -12 79 -17v-36z" />
    <glyph glyph-name="iogonek" unicode="&#x12f;" horiz-adv-x="268" 
d="M247 -1q-56 2 -81 2q-44 -49 -63 -82t-19 -63q0 -55 52 -55q29 0 61 14l12 -30q-49 -36 -97 -36q-40 0 -63 26.5t-23 63.5q0 40 23.5 75t78.5 87q-28 0 -100 -2v35q56 6 64 13q9 9 9 50q0 171 -2 197q-3 32 -10 40q-13 17 -56 24v22q69 54 109 54q28 0 28 -40v-96
t-0.5 -135t-0.5 -65q0 -39 7 -49t71 -15v-35zM175 619q0 -24 -14 -40t-39 -16q-23 0 -37 16t-14 39q0 24 14.5 40t38.5 16q26 0 38.5 -15.5t12.5 -39.5z" />
    <glyph glyph-name="Idotaccent" unicode="&#x130;" horiz-adv-x="307" 
d="M278 -1q-82 2 -123 2t-125 -2v36q67 5 77 16q7 7 7 60v423q0 47 -7 57q-8 11 -77 17v36q84 -2 125 -2t123 2v-36q-70 -7 -80 -18q-6 -8 -6 -55v-425q0 -50 7 -58q9 -12 79 -17v-36zM152 705q-18 0 -31 13t-13 33t13 33t32 13t31.5 -13t12.5 -33t-12.5 -33t-32.5 -13z" />
    <glyph glyph-name="dotlessi" unicode="&#x131;" horiz-adv-x="268" 
d="M247 -1q-78 2 -110 2q-27 0 -109 -2v35q56 6 64 13q9 9 9 50q0 171 -2 197q-3 32 -10 40q-13 17 -56 24v22q69 54 109 54q28 0 28 -40v-96t-0.5 -135t-0.5 -65q0 -39 7 -49t71 -15v-35z" />
    <glyph glyph-name="IJ" unicode="&#x132;" horiz-adv-x="600" 
d="M278 -1q-82 2 -123 2t-125 -2v36q67 5 77 16q7 7 7 60v423q0 47 -7 57q-8 11 -77 17v36q84 -2 125 -2t123 2v-36q-70 -7 -80 -18q-6 -8 -6 -55v-425q0 -50 7 -58q9 -12 79 -17v-36zM347 -161l-27 27q51 51 73 107t23 131q2 318 2 424q0 55 -8 63q-12 11 -79 17v36
q82 -2 126 -2q51 0 121 2v-36q-65 -8 -74 -18q-8 -8 -8 -56q0 -81 0.5 -219.5t0.5 -181.5q0 -102 -32 -159q-40 -70 -118 -135z" />
    <glyph glyph-name="ij" unicode="&#x133;" horiz-adv-x="502" 
d="M247 -1q-78 2 -110 2q-27 0 -109 -2v35q56 6 64 13q9 9 9 50q0 171 -2 197q-3 32 -10 40q-13 17 -56 24v22q69 54 109 54q28 0 28 -40v-96t-0.5 -135t-0.5 -65q0 -39 7 -49t71 -15v-35zM175 619q0 -24 -14 -40t-39 -16q-23 0 -37 16t-14 39q0 24 14.5 40t38.5 16
q26 0 38.5 -15.5t12.5 -39.5zM299 -267l-28 26q36 45 56 86q22 49 22 144q0 12 1 68.5t1 99.5q0 105 -2 137q-1 30 -10 41q-15 17 -56 23v22q67 54 111 54q26 0 26 -38q0 -10 -0.5 -71.5t-0.5 -91.5q0 -57 0.5 -140.5t0.5 -88.5q0 -63 -6.5 -99t-26.5 -69q-21 -36 -88 -103z
M425 619q0 -24 -14 -40t-39 -16q-23 0 -37 16t-14 39q0 24 14.5 40t38.5 16q26 0 38.5 -15.5t12.5 -39.5z" />
    <glyph glyph-name="Jcircumflex" unicode="&#x134;" horiz-adv-x="292" 
d="M40 -161l-27 27q51 51 73 107t23 131q2 318 2 424q0 55 -8 63q-12 11 -79 17v36q82 -2 126 -2q51 0 121 2v-36q-65 -8 -74 -18q-8 -8 -8 -56q0 -81 0.5 -219.5t0.5 -181.5q0 -102 -32 -159q-40 -70 -118 -135zM276 719l-25 -20l-103 103l-101 -103l-24 19l99 145
q13 19 28 19q18 0 30 -19z" />
    <glyph glyph-name="jcircumflex" unicode="&#x135;" horiz-adv-x="233" 
d="M32 -269l-28 29q35 43 55 85q22 49 22 144q0 12 1 68.5t1 99.5q0 104 -2 136q-1 29 -10 40q-13 16 -57 24v23q72 54 113 54q25 0 25 -35q0 -10 -0.5 -73t-0.5 -93q0 -57 0.5 -140.5t0.5 -88.5q0 -62 -6.5 -98.5t-25.5 -70.5q-25 -41 -88 -104zM233 505l-25 -20l-103 103
l-101 -103l-25 19l99 145q12 19 29 19q18 0 29 -19z" />
    <glyph glyph-name="Kcommaaccent" unicode="&#x136;" horiz-adv-x="599" 
d="M576 -25q-79 23 -133 72q-101 89 -236 282q94 93 172 191q40 49 40 65q0 19 -68 23v36q41 -2 128 -2q61 0 102 2v-36q-39 -5 -53 -14q-24 -17 -52 -48q-22 -24 -183 -196q99 -138 165 -213t136 -131zM277 -1q-82 2 -122 2q-41 0 -125 -2v36q67 5 77 16q7 7 7 60v423
q0 47 -7 57t-77 17v36q84 -2 125 -2q40 0 122 2v-36q-71 -7 -79 -18q-6 -8 -6 -55v-425q0 -50 7 -58q9 -12 78 -17v-36zM282 -279l-27 24q51 51 51 90q0 23 -16 39q-13 13 -13 31q0 17 12 29t32 12q50 0 50 -61q0 -82 -89 -164z" />
    <glyph glyph-name="kcommaaccent" unicode="&#x137;" horiz-adv-x="468" 
d="M234 -1q-78 2 -112 2q-25 0 -103 -2v35q58 6 65 15q8 10 8 51q0 52 -0.5 228.5t-0.5 190.5q0 73 -6 99q-8 31 -61 37v22q78 53 116 53q21 0 21 -29q0 -89 -0.5 -305t-0.5 -295q0 -44 6 -51q8 -11 68 -16v-35zM448 -21q-66 15 -116 57q-29 25 -59.5 60t-48 58.5
t-51.5 71.5q34 29 90 86q32 32 32 52q0 11 -10.5 16t-41.5 6v37q42 -2 107 -2q48 0 90 2v-37q-25 -2 -46 -10q-22 -9 -71 -58q-13 -13 -76 -73q111 -165 218 -233zM211 -279l-27 24q51 51 51 90q0 23 -16 39q-13 13 -13 31q0 17 12 29t32 12q50 0 50 -61q0 -82 -89 -164z
" />
    <glyph glyph-name="kgreenlandic" unicode="&#x138;" horiz-adv-x="468" 
d="M243 -1q-78 2 -112 2q-25 0 -103 -2v35q57 6 64 15q8 10 8 51q0 209 -6 225q-12 25 -62 33v22q69 54 114 54q24 0 24 -33q0 -88 -1 -149t-1 -151q0 -44 6 -51q7 -10 69 -16v-35zM457 -21q-71 19 -115 56q-70 59 -161 188q34 29 91 87q31 32 31 53t-52 23v37q43 -2 108 -2
q47 0 89 2v-37q-33 -5 -46 -10q-14 -6 -71 -63q-48 -47 -75 -71q110 -163 218 -230z" />
    <glyph glyph-name="Lacute" unicode="&#x139;" horiz-adv-x="524" 
d="M504 165q-7 -77 -20 -127q-6 -23 -17 -30.5t-43 -7.5h-394v35q66 5 76 16q8 8 8 62v423q0 49 -8 57q-9 9 -76 15v36q96 -2 123 -2q32 0 124 2v-36q-66 -3 -77 -16q-8 -11 -8 -55v-445q0 -20 5 -28.5t20 -11.5q35 -7 74 -7q108 0 134 28q18 19 45 98zM130 681l-20 26
l107 114q25 28 45 28q15 0 25 -10.5t10 -27.5q0 -22 -37 -46z" />
    <glyph glyph-name="lacute" unicode="&#x13a;" horiz-adv-x="256" 
d="M234 -1q-78 2 -112 2q-25 0 -103 -2v35q58 6 65 15q8 10 8 51q0 52 -0.5 228.5t-0.5 190.5q0 81 -7 102q-10 28 -60 34v22q78 53 116 53q21 0 21 -29q0 -89 -0.5 -305t-0.5 -295q0 -44 6 -51q8 -11 68 -16v-35zM56 745l-20 26l107 114q25 28 45 28q15 0 25 -10.5
t10 -27.5q0 -22 -37 -46z" />
    <glyph glyph-name="Lcommaaccent" unicode="&#x13b;" horiz-adv-x="524" 
d="M504 165q-7 -77 -20 -127q-6 -23 -17 -30.5t-43 -7.5h-394v35q66 5 76 16q8 8 8 62v423q0 49 -8 57q-9 9 -76 15v36q96 -2 123 -2q32 0 124 2v-36q-66 -3 -77 -16q-8 -11 -8 -55v-445q0 -20 5 -28.5t20 -11.5q35 -7 74 -7q108 0 134 28q18 19 45 98zM245 -279l-27 24
q51 51 51 90q0 23 -16 39q-13 13 -13 31q0 17 12 29t32 12q50 0 50 -61q0 -82 -89 -164z" />
    <glyph glyph-name="lcommaaccent" unicode="&#x13c;" horiz-adv-x="256" 
d="M234 -1q-78 2 -112 2q-25 0 -103 -2v35q58 6 65 15q8 10 8 51q0 52 -0.5 228.5t-0.5 190.5q0 81 -7 102q-10 28 -60 34v22q78 53 116 53q21 0 21 -29q0 -89 -0.5 -305t-0.5 -295q0 -44 6 -51q8 -11 68 -16v-35zM102 -279l-27 24q51 51 51 90q0 23 -16 39q-13 13 -13 31
q0 17 12 29t32 12q50 0 50 -61q0 -82 -89 -164z" />
    <glyph glyph-name="Lcaron" unicode="&#x13d;" horiz-adv-x="524" 
d="M504 165q-7 -77 -20 -127q-6 -23 -17 -30.5t-43 -7.5h-394v35q66 5 76 16q8 8 8 62v423q0 46 -8 57q-12 9 -76 15v36q100 -2 123 -2q32 0 124 2v-36q-66 -3 -77 -16q-8 -11 -8 -55v-445q0 -20 5 -28.5t20 -11.5q35 -7 74 -7q108 0 134 28q18 19 45 98zM341 445l-26 24
q49 52 49 90q0 22 -15 38q-13 11 -13 32q0 17 11.5 29t30.5 12q48 0 48 -61q0 -82 -85 -164z" />
    <glyph glyph-name="lcaron" unicode="&#x13e;" horiz-adv-x="256" 
d="M234 -1q-78 2 -112 2q-25 0 -103 -2v35q58 6 65 15q8 10 8 51q0 52 -0.5 228.5t-0.5 190.5q0 81 -7 102q-10 28 -60 34v22q78 53 116 53q21 0 21 -29q0 -89 -0.5 -305t-0.5 -295q0 -44 6 -51q8 -11 68 -16v-35zM233 505l-25 24q49 53 49 89q0 23 -16 39q-12 12 -12 32
q0 17 11.5 29t30.5 12q48 0 48 -61q0 -82 -86 -164z" />
    <glyph glyph-name="Ldot" unicode="&#x13f;" horiz-adv-x="524" 
d="M447 326q0 -25 -13.5 -40t-36.5 -15q-21 0 -36 15t-15 38q0 24 14.5 38.5t35.5 14.5q22 0 35.5 -14t15.5 -37zM504 165q-7 -77 -20 -127q-6 -23 -17 -30.5t-43 -7.5h-394v35q66 5 76 16q8 8 8 62v423q0 46 -8 57q-12 9 -76 15v36q100 -2 123 -2q32 0 124 2v-36
q-66 -3 -77 -16q-8 -11 -8 -55v-445q0 -20 5 -28.5t20 -11.5q35 -7 74 -7q108 0 134 28q18 19 45 98z" />
    <glyph glyph-name="ldot" unicode="&#x140;" horiz-adv-x="323" 
d="M234 -1q-78 2 -112 2q-25 0 -103 -2v35q58 6 65 15q8 10 8 51q0 52 -0.5 228.5t-0.5 190.5q0 81 -7 102q-10 28 -60 34v22q78 53 116 53q21 0 21 -29q0 -89 -0.5 -305t-0.5 -295q0 -44 6 -51q8 -11 68 -16v-35zM334 340q0 -25 -13 -40t-36 -15t-36.5 14.5t-13.5 37.5
q0 24 14 38.5t35 14.5q23 0 36.5 -13.5t13.5 -36.5z" />
    <glyph glyph-name="Lslash" unicode="&#x141;" horiz-adv-x="524" 
d="M374 441l-182 -128v-221q0 -20 5 -28.5t20 -11.5q35 -7 74 -7q108 0 134 28q18 19 45 98l34 -6q-7 -77 -20 -127q-6 -23 -17 -30.5t-43 -7.5h-394v35q66 5 76 16q8 8 8 62v148l-81 -57l-25 39l106 75v218q0 49 -8 57q-9 9 -76 15v36q96 -2 123 -2q32 0 124 2v-36
q-66 -3 -77 -16q-8 -11 -8 -55v-167l156 110z" />
    <glyph glyph-name="lslash" unicode="&#x142;" horiz-adv-x="256" 
d="M255 402l-95 -76v-225q0 -44 6 -51q8 -11 68 -16v-35q-78 2 -112 2q-25 0 -103 -2v35q58 6 65 15q8 10 8 51v175l-68 -53l-24 34l91 72v191q0 81 -7 102q-10 28 -60 34v22q78 53 116 53q21 0 21 -29q0 -43 -0.5 -152.5t-0.5 -169.5l71 56z" />
    <glyph glyph-name="Nacute" unicode="&#x143;" horiz-adv-x="691" 
d="M260 -1q-102 2 -117 2q-10 0 -114 -2v36q70 3 80 19q5 9 5 80q0 46 0.5 138t1.5 164v73q0 61 -6 72q-7 15 -30 20t-52 7v36q42 -2 87 -2q41 0 74 2q181 -258 346 -489q-2 239 -5 354q-1 70 -8 81q-8 13 -78 18v36q102 -2 113 -2q15 0 117 2v-36q-68 -6 -79 -17
q-10 -10 -10 -82q0 -48 -0.5 -165.5t-0.5 -175.5q0 -24 1 -87.5t1 -80.5h-45q-3 4 -42.5 62.5t-125 181t-206.5 290.5q0 -55 1 -151t2 -167.5t1 -82.5q0 -73 7 -81q10 -12 82 -17v-36zM309 681l-20 26l107 114q25 28 45 28q15 0 25 -10.5t10 -27.5q0 -22 -37 -46z" />
    <glyph glyph-name="nacute" unicode="&#x144;" horiz-adv-x="524" 
d="M240 -1q-80 2 -112 2q-18 0 -100 -2v35q59 7 65 15q8 8 8 49q0 161 -2 196q-2 30 -11 42q-14 16 -55 22v22q64 54 106 54q13 0 20 -11.5t9 -48.5q69 61 146 61q52 0 84 -30q33 -32 33 -121q0 -4 -1 -93.5t-1 -92.5q0 -34 6 -45q7 -13 69 -19v-35q-78 2 -110 2
q-25 0 -103 -2v35q54 5 62 16q8 8 8 50q0 130 -1 177q-2 48 -15 67q-21 29 -70 29q-58 0 -105 -29q0 -10 -0.5 -123t-0.5 -122q0 -41 7 -49q8 -10 64 -16v-35zM232 500l-26 21l80 135q23 38 47 38q15 0 25 -9.5t10 -24.5q0 -22 -27 -49z" />
    <glyph glyph-name="Ncommaaccent" unicode="&#x145;" horiz-adv-x="691" 
d="M260 -1q-102 2 -117 2q-10 0 -114 -2v36q70 3 80 19q5 9 5 80q0 46 0.5 138t1.5 164v73q0 61 -6 72q-7 15 -30 20t-52 7v36q42 -2 87 -2q41 0 74 2q181 -258 346 -489q-2 239 -5 354q-1 70 -8 81q-8 13 -78 18v36q102 -2 113 -2q15 0 117 2v-36q-68 -6 -79 -17
q-10 -10 -10 -82q0 -48 -0.5 -165.5t-0.5 -175.5q0 -24 1 -87.5t1 -80.5h-45q-3 4 -42.5 62.5t-125 181t-206.5 290.5q0 -55 1 -151t2 -167.5t1 -82.5q0 -73 7 -81q10 -12 82 -17v-36zM328 -279l-27 24q51 51 51 90q0 23 -16 39q-13 13 -13 31q0 17 12 29t32 12q50 0 50 -61
q0 -82 -89 -164z" />
    <glyph glyph-name="ncommaaccent" unicode="&#x146;" horiz-adv-x="524" 
d="M240 -1q-80 2 -112 2q-18 0 -100 -2v35q59 7 65 15q8 8 8 49q0 161 -2 196q-2 30 -11 42q-14 16 -55 22v22q64 54 106 54q13 0 20 -11.5t9 -48.5q69 61 146 61q52 0 84 -30q33 -32 33 -121q0 -4 -1 -93.5t-1 -92.5q0 -34 6 -45q7 -13 69 -19v-35q-78 2 -110 2
q-25 0 -103 -2v35q54 5 62 16q8 8 8 50q0 130 -1 177q-2 48 -15 67q-21 29 -70 29q-58 0 -105 -29q0 -10 -0.5 -123t-0.5 -122q0 -41 7 -49q8 -10 64 -16v-35zM226 -279l-27 24q51 51 51 90q0 23 -16 39q-13 13 -13 31q0 17 12 29t32 12q50 0 50 -61q0 -82 -89 -164z" />
    <glyph glyph-name="Ncaron" unicode="&#x147;" horiz-adv-x="691" 
d="M260 -1q-102 2 -117 2q-10 0 -114 -2v36q70 3 80 19q5 9 5 80q0 46 0.5 138t1.5 164v73q0 61 -6 72q-7 15 -30 20t-52 7v36q42 -2 87 -2q41 0 74 2q181 -258 346 -489q-2 239 -5 354q-1 70 -8 81q-8 13 -78 18v36q102 -2 113 -2q15 0 117 2v-36q-68 -6 -79 -17
q-10 -10 -10 -82q0 -48 -0.5 -165.5t-0.5 -175.5q0 -24 1 -87.5t1 -80.5h-45q-3 4 -42.5 62.5t-125 181t-206.5 290.5q0 -55 1 -151t2 -167.5t1 -82.5q0 -73 7 -81q10 -12 82 -17v-36zM220 827l22 22l115 -87l113 87l23 -21l-108 -129q-15 -18 -30 -18t-29 18z" />
    <glyph glyph-name="ncaron" unicode="&#x148;" horiz-adv-x="524" 
d="M240 -1q-80 2 -112 2q-18 0 -100 -2v35q59 7 65 15q8 8 8 49q0 161 -2 196q-2 30 -11 42q-14 16 -55 22v22q64 54 106 54q13 0 20 -11.5t9 -48.5q69 61 146 61q52 0 84 -30q33 -32 33 -121q0 -4 -1 -93.5t-1 -92.5q0 -34 6 -45q7 -13 69 -19v-35q-78 2 -110 2
q-25 0 -103 -2v35q54 5 62 16q8 8 8 50q0 130 -1 177q-2 48 -15 67q-21 29 -70 29q-58 0 -105 -29q0 -10 -0.5 -123t-0.5 -122q0 -41 7 -49q8 -10 64 -16v-35zM125 650l24 21l103 -104l101 104l25 -20l-98 -145q-12 -18 -30 -18q-17 0 -29 17z" />
    <glyph glyph-name="napostrophe" unicode="&#x149;" horiz-adv-x="524" 
d="M240 -1q-80 2 -112 2q-18 0 -100 -2v35q59 7 65 15q8 8 8 49q0 161 -2 196q-2 30 -11 42q-14 16 -55 22v22q64 54 106 54q13 0 20 -11.5t9 -48.5q69 61 146 61q52 0 84 -30q33 -32 33 -121q0 -4 -1 -93.5t-1 -92.5q0 -34 6 -45q7 -13 69 -19v-35q-78 2 -110 2
q-25 0 -103 -2v35q54 5 62 16q8 8 8 50q0 130 -1 177q-2 48 -15 67q-21 29 -70 29q-58 0 -105 -29q0 -10 -0.5 -123t-0.5 -122q0 -41 7 -49q8 -10 64 -16v-35zM65 460l-27 24q51 51 51 90q0 23 -16 39q-13 13 -13 31q0 17 12 29t32 12q50 0 50 -61q0 -82 -89 -164z" />
    <glyph glyph-name="Eng" unicode="&#x14a;" horiz-adv-x="691" 
d="M261 -1q-102 2 -118 2q-10 0 -114 -2v35q71 5 80 19q5 9 5 80q0 47 0.5 139t1.5 164v73q0 65 -4 72q-7 14 -32 20q-23 5 -52 7v36q42 -2 82 -2q47 0 79 2q164 -232 347 -485q-5 218 -5 350q0 68 -8 81t-79 18v36q102 -2 114 -2q15 0 117 2v-36q-69 -6 -80 -17
q-10 -10 -10 -82q0 -48 -0.5 -220t-0.5 -230q0 -121 -29 -183q-21 -44 -59 -73.5t-89 -29.5q-52 0 -52 31q0 26 11 45q31 -12 57 -12q80 0 97 84q11 51 11 96q-58 89 -364 516q0 -55 1 -151t2 -167.5t1 -82.5q0 -72 8 -81q10 -12 82 -17v-35z" />
    <glyph glyph-name="eng" unicode="&#x14b;" horiz-adv-x="524" 
d="M245 -1q-78 2 -111 2q-29 0 -105 -2v35q54 5 63 15q9 13 9 50q0 160 -2 195q-2 30 -11 42q-11 15 -55 22v22q64 54 106 54q13 0 20.5 -12t8.5 -48q72 61 148 61q50 0 82 -30q32 -32 32 -121v-47t0.5 -99t0.5 -77q0 -123 -29 -179q-23 -45 -63 -76t-92 -31q-46 0 -46 30
q0 20 11 41q24 -13 53 -13q38 0 59 22t30 67q7 33 7 145v203q0 53 -14 71q-24 33 -70 33q-59 0 -107 -30q0 -11 -0.5 -127.5t-0.5 -117.5q0 -37 9 -49q9 -10 67 -16v-35z" />
    <glyph glyph-name="Omacron" unicode="&#x14c;" horiz-adv-x="674" 
d="M633 325q0 -150 -82.5 -244.5t-211.5 -94.5q-140 0 -219 93t-79 243q0 147 85 241.5t214 94.5q140 0 216.5 -88.5t76.5 -244.5zM552 311q0 135 -59 215.5t-157 80.5q-96 0 -154 -73t-58 -200q0 -143 59 -220.5t160 -77.5q96 0 152.5 73t56.5 202zM465 721h-250v58h250
v-58z" />
    <glyph glyph-name="omacron" unicode="&#x14d;" horiz-adv-x="483" 
d="M443 218q0 -109 -58.5 -170t-144.5 -61q-96 0 -148 61.5t-52 162.5t59.5 163t145.5 62q96 0 147 -58.5t51 -159.5zM366 202q0 89 -30.5 139.5t-92.5 50.5q-58 0 -91 -44t-33 -123q0 -95 33 -144t91 -49q59 0 91 44t32 126zM356 531h-238v60h238v-60z" />
    <glyph glyph-name="Obreve" unicode="&#x14e;" horiz-adv-x="674" 
d="M633 325q0 -150 -82.5 -244.5t-211.5 -94.5q-140 0 -219 93t-79 243q0 147 85 241.5t214 94.5q140 0 216.5 -88.5t76.5 -244.5zM552 311q0 135 -59 215.5t-157 80.5q-96 0 -154 -73t-58 -200q0 -143 59 -220.5t160 -77.5q96 0 152.5 73t56.5 202zM435 841l34 -2
q-1 -67 -38.5 -106t-94.5 -39q-58 0 -93.5 35t-36.5 109l34 3q5 -41 30 -62.5t65 -21.5q83 0 100 84z" />
    <glyph glyph-name="obreve" unicode="&#x14f;" horiz-adv-x="483" 
d="M443 218q0 -109 -58.5 -170t-144.5 -61q-96 0 -148 61.5t-52 162.5t59.5 163t145.5 62q96 0 147 -58.5t51 -159.5zM366 202q0 89 -30.5 139.5t-92.5 50.5q-58 0 -91 -44t-33 -123q0 -95 33 -144t91 -49q59 0 91 44t32 126zM329 647l32 -2q-1 -68 -34.5 -106t-88.5 -38
q-119 0 -120 143l32 3q11 -82 88 -82q76 0 91 82z" />
    <glyph glyph-name="Ohungarumlaut" unicode="&#x150;" horiz-adv-x="674" 
d="M633 325q0 -150 -82.5 -244.5t-211.5 -94.5q-140 0 -219 93t-79 243q0 147 85 241.5t214 94.5q140 0 216.5 -88.5t76.5 -244.5zM552 311q0 135 -59 215.5t-157 80.5q-96 0 -154 -73t-58 -200q0 -143 59 -220.5t160 -77.5q96 0 152.5 73t56.5 202zM273 682l-23 21l86 129
q24 36 44 36q11 0 20.5 -8.5t9.5 -21.5q0 -16 -29 -47zM401 682l-24 21l87 129q23 36 44 36q10 0 19.5 -8.5t9.5 -21.5q0 -18 -29 -47z" />
    <glyph glyph-name="ohungarumlaut" unicode="&#x151;" horiz-adv-x="483" 
d="M443 218q0 -109 -58.5 -170t-144.5 -61q-96 0 -148 61.5t-52 162.5t59.5 163t145.5 62q96 0 147 -58.5t51 -159.5zM366 202q0 89 -30.5 139.5t-92.5 50.5q-58 0 -91 -44t-33 -123q0 -95 33 -144t91 -49q59 0 91 44t32 126zM168 501l-25 18l73 136q21 39 42 39
q12 0 22 -8.5t10 -21.5q0 -18 -24 -47zM291 501l-25 17l73 137q12 24 21 31.5t22 7.5q11 0 21.5 -8.5t10.5 -21.5q0 -16 -25 -47z" />
    <glyph glyph-name="OE" unicode="&#x152;" horiz-adv-x="875" 
d="M845 165q-4 -75 -23 -139q-5 -16 -19.5 -21t-46.5 -5h-243q-20 0 -82.5 -3t-96.5 -3q-146 0 -219.5 85.5t-73.5 233.5q0 144 83.5 240.5t225.5 96.5q29 0 89 -3.5t78 -3.5h221q36 0 46 -5.5t12 -22.5q7 -50 7 -125l-33 -2q-17 76 -35 93q-12 11 -37 14t-87 3
q-32 0 -78 -2v-238h8q73 0 101.5 4t40.5 15q10 9 20 63h35q-1 -24 -1 -102q0 -69 1 -109h-34q-11 58 -20 67q-10 11 -38.5 13.5t-106.5 2.5h-6v-220q0 -20 5 -28.5t20 -11.5q38 -7 75 -7q107 0 133 26q16 17 47 100zM455 136v369q0 63 -12 75q-23 24 -98 24
q-105 0 -163 -78.5t-58 -203.5q0 -130 53.5 -206t158.5 -76q98 0 113 35q6 14 6 61z" />
    <glyph glyph-name="oe" unicode="&#x153;" horiz-adv-x="755" 
d="M728 55q-90 -69 -171 -69q-53 0 -94.5 25t-62.5 68q-25 -46 -68 -69t-94 -23q-94 0 -146 61.5t-52 162.5q0 97 57.5 161t146.5 64q116 0 162 -91q25 43 67 67t93 24q81 0 118 -51.5t37 -121.5q0 -30 -35 -30h-252v-10q0 -82 38.5 -127.5t105.5 -45.5q66 0 132 39z
M366 202q0 190 -125 190q-56 0 -89 -45t-33 -122q0 -94 32 -143.5t90 -49.5q61 0 93 44.5t32 125.5zM437 271l214 8q-2 53 -30 81.5t-71 28.5q-46 0 -76.5 -31.5t-36.5 -86.5z" />
    <glyph glyph-name="Racute" unicode="&#x154;" horiz-adv-x="587" 
d="M281 -1q-96 2 -138 2q-9 0 -113 -2v36q69 5 79 18q5 9 5 57v426q0 46 -5 54q-6 11 -79 18v36h139q121 0 179 -11q139 -27 139 -169q0 -55 -31.5 -98.5t-89.5 -65.5q68 -131 122 -197q48 -61 96 -96l-18 -32q-73 25 -125 77q-69 66 -160 231q-12 -2 -43 -2q-22 0 -46 2
v-172q0 -47 6 -56q12 -16 83 -20v-36zM192 329q25 -3 53 -3q79 0 118 36t39 98q0 95 -75 125q-42 16 -135 16v-272zM215 681l-20 26l107 114q25 28 45 28q15 0 25 -10.5t10 -27.5q0 -22 -37 -46z" />
    <glyph glyph-name="racute" unicode="&#x155;" horiz-adv-x="337" 
d="M255 -1q-76 2 -126 2q-59 0 -101 -2v35q57 5 65 15q8 9 8 49q0 79 -2 197q0 23 -11 40q-9 15 -55 23v22q66 54 106 54q14 0 21 -13.5t8 -55.5q14 22 36 40q34 30 72 30q28 0 45 -12q14 -9 14 -25q0 -26 -29 -61q-33 26 -65 26q-35 0 -71 -32q0 -12 -0.5 -120t-0.5 -109
q0 -42 9 -52t77 -16v-35zM156 500l-26 21l80 135q23 38 47 38q15 0 25 -9.5t10 -24.5q0 -22 -27 -49z" />
    <glyph glyph-name="Rcommaaccent" unicode="&#x156;" horiz-adv-x="587" 
d="M281 -1q-96 2 -138 2q-9 0 -113 -2v36q69 5 79 18q5 9 5 57v426q0 46 -5 54q-6 11 -79 18v36h139q121 0 179 -11q139 -27 139 -169q0 -55 -31.5 -98.5t-89.5 -65.5q68 -131 122 -197q48 -61 96 -96l-18 -32q-73 25 -125 77q-69 66 -160 231q-12 -2 -43 -2q-22 0 -46 2
v-172q0 -47 6 -56q12 -16 83 -20v-36zM192 329q25 -3 53 -3q79 0 118 36t39 98q0 95 -75 125q-42 16 -135 16v-272zM281 -279l-27 24q51 51 51 90q0 23 -16 39q-13 13 -13 31q0 17 12 29t32 12q50 0 50 -61q0 -82 -89 -164z" />
    <glyph glyph-name="rcommaaccent" unicode="&#x157;" horiz-adv-x="337" 
d="M255 -1q-76 2 -126 2q-59 0 -101 -2v35q57 5 65 15q8 9 8 49q0 79 -2 197q0 23 -11 40q-9 15 -55 23v22q66 54 106 54q14 0 21 -13.5t8 -55.5q14 22 36 40q34 30 72 30q28 0 45 -12q14 -9 14 -25q0 -26 -29 -61q-33 26 -65 26q-35 0 -71 -32q0 -12 -0.5 -120t-0.5 -109
q0 -42 9 -52t77 -16v-35zM111 -279l-27 24q51 51 51 90q0 23 -16 39q-13 13 -13 31q0 17 12 29t32 12q50 0 50 -61q0 -82 -89 -164z" />
    <glyph glyph-name="Rcaron" unicode="&#x158;" horiz-adv-x="587" 
d="M281 -1q-96 2 -138 2q-9 0 -113 -2v36q69 5 79 18q5 9 5 57v426q0 46 -5 54q-6 11 -79 18v36h139q121 0 179 -11q139 -27 139 -169q0 -55 -31.5 -98.5t-89.5 -65.5q68 -131 122 -197q48 -61 96 -96l-18 -32q-73 25 -125 77q-69 66 -160 231q-12 -2 -43 -2q-22 0 -46 2
v-172q0 -47 6 -56q12 -16 83 -20v-36zM192 329q25 -3 53 -3q79 0 118 36t39 98q0 95 -75 125q-42 16 -135 16v-272zM121 827l22 22l115 -87l113 87l23 -21l-108 -129q-15 -18 -30 -18t-29 18z" />
    <glyph glyph-name="rcaron" unicode="&#x159;" horiz-adv-x="337" 
d="M255 -1q-76 2 -126 2q-59 0 -101 -2v35q57 5 65 15q8 9 8 49q0 79 -2 197q0 23 -11 40q-9 15 -55 23v22q66 54 106 54q14 0 21 -13.5t8 -55.5q14 22 36 40q34 30 72 30q28 0 45 -12q14 -9 14 -25q0 -26 -29 -61q-33 26 -65 26q-35 0 -71 -32q0 -12 -0.5 -120t-0.5 -109
q0 -42 9 -52t77 -16v-35zM43 650l24 21l103 -104l101 104l25 -20l-98 -145q-12 -18 -30 -18q-17 0 -29 17z" />
    <glyph glyph-name="Sacute" unicode="&#x15a;" horiz-adv-x="463" 
d="M80 178q18 -83 36 -105q36 -40 113 -40q56 0 90.5 29.5t34.5 70.5q0 43 -21 72t-91 69l-53 30q-75 43 -101.5 84.5t-26.5 98.5q0 79 59 124.5t150 46.5q71 0 112 -16q21 -7 25 -36q6 -47 6 -125l-35 -2q-14 70 -28 94q-22 37 -99 37q-54 0 -87.5 -27.5t-33.5 -74.5
q0 -39 20 -65.5t75 -59.5l55 -33q86 -53 116 -90.5t30 -95.5q0 -79 -57 -129t-151 -50q-76 0 -135 24q-17 7 -24.5 17.5t-9.5 33.5q-4 33 -7 115zM221 681l-20 26l107 114q25 28 45 28q15 0 25 -10.5t10 -27.5q0 -22 -37 -46z" />
    <glyph glyph-name="sacute" unicode="&#x15b;" horiz-adv-x="376" 
d="M72 137q15 -64 29 -80q20 -25 86 -25q36 0 58 16.5t22 44.5q0 39 -65 69l-66 30q-81 37 -81 117q0 55 41.5 91t113.5 36q54 0 82 -12q19 -8 23 -31q5 -33 5 -86l-33 -2q-11 43 -22 60q-16 27 -71 27q-37 0 -55.5 -18t-18.5 -43q0 -24 12 -41t54 -35l59 -26
q51 -23 68 -49.5t17 -62.5q0 -58 -42 -94.5t-122 -36.5q-55 0 -94 17q-23 9 -29 37q-6 31 -6 95zM166 500l-26 21l80 135q23 38 47 38q15 0 25 -9.5t10 -24.5q0 -22 -27 -49z" />
    <glyph glyph-name="Scircumflex" unicode="&#x15c;" horiz-adv-x="463" 
d="M80 178q18 -83 36 -105q36 -40 113 -40q56 0 90.5 29.5t34.5 70.5q0 43 -21 72t-91 69l-53 30q-75 43 -101.5 84.5t-26.5 98.5q0 79 59 124.5t150 46.5q71 0 112 -16q21 -7 25 -36q6 -47 6 -125l-35 -2q-14 70 -28 94q-22 37 -99 37q-54 0 -87.5 -27.5t-33.5 -74.5
q0 -39 20 -65.5t75 -59.5l55 -33q86 -53 116 -90.5t30 -95.5q0 -79 -57 -129t-151 -50q-76 0 -135 24q-17 7 -24.5 17.5t-9.5 33.5q-4 33 -7 115zM393 700l-23 -20l-115 87l-113 -87l-22 19l108 128q17 20 29 20q16 0 30 -18z" />
    <glyph glyph-name="scircumflex" unicode="&#x15d;" horiz-adv-x="376" 
d="M72 137q15 -64 29 -80q20 -25 86 -25q36 0 58 16.5t22 44.5q0 39 -65 69l-66 30q-81 37 -81 117q0 55 41.5 91t113.5 36q54 0 82 -12q19 -8 23 -31q5 -33 5 -86l-33 -2q-11 43 -22 60q-16 27 -71 27q-37 0 -55.5 -18t-18.5 -43q0 -24 12 -41t54 -35l59 -26
q51 -23 68 -49.5t17 -62.5q0 -58 -42 -94.5t-122 -36.5q-55 0 -94 17q-23 9 -29 37q-6 31 -6 95zM320 505l-25 -20l-103 103l-101 -103l-24 19l99 145q13 19 28 19q18 0 30 -19z" />
    <glyph glyph-name="Scedilla" unicode="&#x15e;" horiz-adv-x="463" 
d="M161 -271l-9 37q101 30 101 76q0 17 -9.5 27t-35.5 25q-20 12 -20 30q0 19 16 61q-65 2 -121 24q-17 7 -24.5 17.5t-9.5 33.5q-4 33 -7 115l38 3q18 -83 36 -105q36 -40 113 -40q56 0 90.5 29.5t34.5 70.5q0 43 -21 72t-91 69l-53 30q-75 43 -101.5 84.5t-26.5 98.5
q0 79 59 124.5t150 46.5q71 0 112 -16q21 -7 25 -36q6 -47 6 -125l-35 -2q-14 70 -28 94q-22 37 -99 37q-54 0 -87.5 -27.5t-33.5 -74.5q0 -39 20 -65.5t75 -59.5l55 -33q86 -53 116 -90.5t30 -95.5q0 -73 -50 -122t-134 -56q-7 -20 -7 -31q0 -14 18 -24q35 -17 48.5 -34.5
t13.5 -44.5q0 -48 -43 -78.5t-111 -44.5z" />
    <glyph glyph-name="scedilla" unicode="&#x15f;" horiz-adv-x="376" 
d="M115 -260l-9 35q98 29 98 73q0 16 -10 27t-34 24q-18 11 -18 28q0 19 15 59q-49 2 -85 17q-23 9 -29 37q-6 31 -6 95l35 2q15 -64 29 -80q20 -25 86 -25q36 0 58 16.5t22 44.5q0 39 -65 69l-66 30q-81 37 -81 117q0 55 41.5 91t113.5 36q54 0 82 -12q19 -8 23 -31
q5 -33 5 -86l-33 -2q-11 43 -22 60q-16 27 -71 27q-37 0 -55.5 -18t-18.5 -43q0 -24 12 -41t54 -35l59 -26q51 -23 68 -49.5t17 -62.5q0 -52 -34.5 -87t-99.5 -42q-8 -22 -8 -31q0 -15 15 -22q34 -16 48.5 -33.5t14.5 -43.5q0 -87 -151 -118z" />
    <glyph glyph-name="Scaron" unicode="&#x160;" horiz-adv-x="463" 
d="M80 178q18 -83 36 -105q36 -40 113 -40q56 0 90.5 29.5t34.5 70.5q0 43 -21 72t-91 69l-53 30q-75 43 -101.5 84.5t-26.5 98.5q0 79 59 124.5t150 46.5q71 0 112 -16q21 -7 25 -36q6 -47 6 -125l-35 -2q-14 70 -28 94q-22 37 -99 37q-54 0 -87.5 -27.5t-33.5 -74.5
q0 -39 20 -65.5t75 -59.5l55 -33q86 -53 116 -90.5t30 -95.5q0 -79 -57 -129t-151 -50q-76 0 -135 24q-17 7 -24.5 17.5t-9.5 33.5q-4 33 -7 115zM123 827l22 22l115 -87l113 87l23 -21l-108 -129q-15 -18 -30 -18t-29 18z" />
    <glyph glyph-name="scaron" unicode="&#x161;" horiz-adv-x="376" 
d="M72 137q15 -64 29 -80q20 -25 86 -25q36 0 58 16.5t22 44.5q0 39 -65 69l-66 30q-81 37 -81 117q0 55 41.5 91t113.5 36q54 0 82 -12q19 -8 23 -31q5 -33 5 -86l-33 -2q-11 43 -22 60q-16 27 -71 27q-37 0 -55.5 -18t-18.5 -43q0 -24 12 -41t54 -35l59 -26
q51 -23 68 -49.5t17 -62.5q0 -58 -42 -94.5t-122 -36.5q-55 0 -94 17q-23 9 -29 37q-6 31 -6 95zM68 650l24 21l103 -104l101 104l25 -20l-98 -145q-12 -18 -30 -18q-17 0 -29 17z" />
    <glyph glyph-name="uni0162" unicode="&#x162;" horiz-adv-x="569" 
d="M215 -271l-9 37q101 30 101 76q0 17 -9.5 27t-35.5 25q-20 12 -20 30q0 21 22 77q-49 0 -107 -2v36q74 5 82 20q5 10 5 61v483q-125 -2 -144 -14q-13 -9 -21 -31.5t-22 -82.5l-34 2q2 84 7 142q2 28 30 28h452q16 0 21.5 -6t7.5 -23q4 -36 4 -140l-34 -2q-17 88 -34 104
q-22 22 -155 23v-482q0 -53 5 -62q6 -12 86 -20v-36q-64 2 -111 2q-13 -32 -13 -46t18 -24q35 -17 48.5 -34.5t13.5 -44.5q0 -48 -43 -78.5t-111 -44.5z" />
    <glyph glyph-name="uni0163" unicode="&#x163;" horiz-adv-x="288" 
d="M92 -260l-9 35q98 29 98 73q0 16 -10 27t-34 24q-18 11 -18 28q0 22 20 72q-53 22 -53 113q0 153 2 248q-54 2 -79 6v31q8 3 28 9t29 9q20 7 24 27q3 12 10 43t11 47h46v-119q59 0 119 -4v-43q-52 -6 -119 -6q-2 -92 -2 -190q0 -51 4 -76q6 -48 49 -48q32 0 66 9l10 -35
q-53 -28 -106 -28h-4q-9 -27 -9 -35q0 -15 15 -22q34 -16 48.5 -33.5t14.5 -43.5q0 -87 -151 -118z" />
    <glyph glyph-name="Tcaron" unicode="&#x164;" horiz-adv-x="569" 
d="M413 -1q-72 2 -123 2q-59 0 -133 -2v36q74 5 82 20q5 10 5 61v483q-125 -2 -144 -14q-13 -9 -21 -31.5t-22 -82.5l-34 2q2 84 7 142q2 28 30 28h452q16 0 21.5 -6t7.5 -23q4 -36 4 -140l-34 -2q-17 88 -34 104q-22 22 -155 23v-482q0 -53 5 -62q6 -12 86 -20v-36z
M149 827l22 22l115 -87l113 87l23 -21l-108 -129q-15 -18 -30 -18t-29 18z" />
    <glyph glyph-name="tcaron" unicode="&#x165;" horiz-adv-x="288" 
d="M284 20q-53 -28 -106 -28q-92 0 -92 120q0 153 2 248q-54 2 -79 6v31q8 3 28 9t29 9q20 7 24 27q3 12 10 43t11 47h46v-119q59 0 119 -4v-43q-52 -6 -119 -6q-2 -92 -2 -190q0 -51 4 -76q6 -48 49 -48q32 0 66 9zM224 448l-27 24q51 51 51 90q0 24 -15 39q-14 14 -14 31
t12 29t32 12q50 0 50 -61q0 -82 -89 -164z" />
    <glyph glyph-name="Tbar" unicode="&#x166;" horiz-adv-x="569" 
d="M458 369v-49h-136v-203q0 -53 5 -62q6 -12 86 -20v-36q-72 2 -123 2q-59 0 -133 -2v36q74 5 82 20q5 10 5 61v204h-133v49h133v230q-125 -2 -144 -14q-13 -9 -21 -31.5t-22 -82.5l-34 2q2 84 7 142q2 28 30 28h452q16 0 21.5 -6t7.5 -23q4 -36 4 -140l-34 -2
q-17 88 -34 104q-22 22 -155 23v-230h136z" />
    <glyph glyph-name="tbar" unicode="&#x167;" horiz-adv-x="288" 
d="M261 278v-44h-106v-64q0 -51 4 -76q6 -48 49 -48q32 0 66 9l10 -35q-53 -28 -106 -28q-92 0 -92 120v122h-70v44h70q0 28 2 82q-54 2 -79 6v31q8 3 28 9t29 9q20 7 24 27q3 12 10 43t11 47h46v-119q59 0 119 -4v-43q-52 -6 -119 -6q-1 -10 -1.5 -39t-0.5 -43h106z" />
    <glyph glyph-name="Utilde" unicode="&#x168;" horiz-adv-x="674" 
d="M656 608q-72 -7 -77 -21q-6 -12 -6 -61v-235q0 -89 -11.5 -141.5t-38.5 -87.5q-62 -77 -192 -77q-143 0 -196 90q-19 31 -26 76.5t-7 142.5q0 44 1 128t1 114q0 42 -6 52q-5 9 -20 12.5t-60 7.5v36q76 -2 133 -2q47 0 121 2v-36q-73 -5 -83 -18q-8 -9 -8 -51
q-1 -73 -1 -242q0 -121 15 -166q31 -91 155 -91q50 0 88.5 19.5t55.5 49.5q29 49 29 205q0 42 -5 220q-2 52 -13 60q-4 3 -8.5 4.5t-12 3t-13.5 2t-19 2t-22 2.5v36q35 -1 111 -1q10 0 53.5 0.5t61.5 0.5v-36zM236 697l-29 11q11 41 31.5 68t49.5 27q24 0 52 -12l34 -13
q29 -11 41 -11q22 0 44 46l29 -11q-27 -95 -73 -95q-25 0 -63 15l-29 12q-21 9 -39 9q-16 0 -25.5 -9.5t-22.5 -36.5z" />
    <glyph glyph-name="utilde" unicode="&#x169;" horiz-adv-x="513" 
d="M492 29q-63 -40 -96 -40q-20 0 -32 13t-16 46q-68 -58 -134 -58q-72 0 -101.5 41t-29.5 126q0 8 0.5 61t0.5 72q0 60 -10 70q-12 12 -60 19v30q72 20 120 20q26 0 26 -27q0 -5 -2.5 -88.5t-2.5 -128.5q0 -75 19 -105t74 -30q41 0 98 33v208q0 60 -10 69q-14 11 -69 19v30
q78 20 124 20q29 0 29 -29q0 -3 -3 -95t-3 -166q0 -45 8 -66q8 -16 30 -16q20 0 40 3v-31zM138 511l-29 12q12 42 33 70.5t49 28.5q18 0 50 -13l25 -11q30 -13 41 -13q23 0 44 47l29 -12q-27 -99 -74 -99q-19 0 -58 17l-22 9q-28 11 -41 11q-15 0 -24 -10t-23 -37z" />
    <glyph glyph-name="Umacron" unicode="&#x16a;" horiz-adv-x="674" 
d="M656 608q-72 -7 -77 -21q-6 -12 -6 -61v-235q0 -89 -11.5 -141.5t-38.5 -87.5q-62 -77 -192 -77q-143 0 -196 90q-19 31 -26 76.5t-7 142.5q0 44 1 128t1 114q0 42 -6 52q-5 9 -20 12.5t-60 7.5v36q76 -2 133 -2q47 0 121 2v-36q-73 -5 -83 -18q-8 -9 -8 -51
q-1 -73 -1 -242q0 -121 15 -166q31 -91 155 -91q50 0 88.5 19.5t55.5 49.5q29 49 29 205q0 42 -5 220q-2 52 -13 60q-4 3 -8.5 4.5t-12 3t-13.5 2t-19 2t-22 2.5v36q35 -1 111 -1q10 0 53.5 0.5t61.5 0.5v-36zM467 721h-250v58h250v-58z" />
    <glyph glyph-name="umacron" unicode="&#x16b;" horiz-adv-x="513" 
d="M492 29q-63 -40 -96 -40q-20 0 -32 13t-16 46q-68 -58 -134 -58q-72 0 -101.5 41t-29.5 126q0 8 0.5 61t0.5 72q0 60 -10 70q-12 12 -60 19v30q72 20 120 20q26 0 26 -27q0 -5 -2.5 -88.5t-2.5 -128.5q0 -75 19 -105t74 -30q41 0 98 33v208q0 60 -10 69q-14 11 -69 19v30
q78 20 124 20q29 0 29 -29q0 -3 -3 -95t-3 -166q0 -45 8 -66q8 -16 30 -16q20 0 40 3v-31zM368 531h-238v60h238v-60z" />
    <glyph glyph-name="Ubreve" unicode="&#x16c;" horiz-adv-x="674" 
d="M656 608q-72 -7 -77 -21q-6 -12 -6 -61v-235q0 -89 -11.5 -141.5t-38.5 -87.5q-62 -77 -192 -77q-143 0 -196 90q-19 31 -26 76.5t-7 142.5q0 44 1 128t1 114q0 42 -6 52q-5 9 -20 12.5t-60 7.5v36q76 -2 133 -2q47 0 121 2v-36q-73 -5 -83 -18q-8 -9 -8 -51
q-1 -73 -1 -242q0 -121 15 -166q31 -91 155 -91q50 0 88.5 19.5t55.5 49.5q29 49 29 205q0 42 -5 220q-2 52 -13 60q-4 3 -8.5 4.5t-12 3t-13.5 2t-19 2t-22 2.5v36q35 -1 111 -1q10 0 53.5 0.5t61.5 0.5v-36zM442 841l34 -2q-1 -67 -38.5 -106t-94.5 -39q-58 0 -93.5 35
t-36.5 109l34 3q5 -41 30 -62.5t65 -21.5q83 0 100 84z" />
    <glyph glyph-name="ubreve" unicode="&#x16d;" horiz-adv-x="513" 
d="M492 29q-63 -40 -96 -40q-20 0 -32 13t-16 46q-68 -58 -134 -58q-72 0 -101.5 41t-29.5 126q0 8 0.5 61t0.5 72q0 60 -10 70q-12 12 -60 19v30q72 20 120 20q26 0 26 -27q0 -5 -2.5 -88.5t-2.5 -128.5q0 -75 19 -105t74 -30q41 0 98 33v208q0 60 -10 69q-14 11 -69 19v30
q78 20 124 20q29 0 29 -29q0 -3 -3 -95t-3 -166q0 -45 8 -66q8 -16 30 -16q20 0 40 3v-31zM332 647l32 -2q-1 -68 -34.5 -106t-88.5 -38q-119 0 -120 143l32 3q11 -82 88 -82q76 0 91 82z" />
    <glyph glyph-name="Uring" unicode="&#x16e;" horiz-adv-x="674" 
d="M656 608q-72 -7 -77 -21q-6 -12 -6 -61v-235q0 -89 -11.5 -141.5t-38.5 -87.5q-62 -77 -192 -77q-143 0 -196 90q-19 31 -26 76.5t-7 142.5q0 44 1 128t1 114q0 42 -6 52q-5 9 -20 12.5t-60 7.5v36q76 -2 133 -2q47 0 121 2v-36q-73 -5 -83 -18q-8 -9 -8 -51
q-1 -73 -1 -242q0 -121 15 -166q31 -91 155 -91q50 0 88.5 19.5t55.5 49.5q29 49 29 205q0 42 -5 220q-2 52 -13 60q-4 3 -8.5 4.5t-12 3t-13.5 2t-19 2t-22 2.5v36q35 -1 111 -1q10 0 53.5 0.5t61.5 0.5v-36zM427 759q0 -37 -25.5 -61.5t-60.5 -24.5q-34 0 -58 23t-24 61
t25 62.5t59 24.5q37 0 60.5 -23.5t23.5 -61.5zM389 759q0 26 -13.5 39t-33.5 13q-19 0 -32.5 -13.5t-13.5 -38.5q0 -24 13 -38.5t33 -14.5q21 0 34 14t13 39z" />
    <glyph glyph-name="uring" unicode="&#x16f;" horiz-adv-x="513" 
d="M492 29q-63 -40 -96 -40q-20 0 -32 13t-16 46q-68 -58 -134 -58q-72 0 -101.5 41t-29.5 126q0 8 0.5 61t0.5 72q0 60 -10 70q-12 12 -60 19v30q72 20 120 20q26 0 26 -27q0 -5 -2.5 -88.5t-2.5 -128.5q0 -75 19 -105t74 -30q41 0 98 33v208q0 60 -10 69q-14 11 -69 19v30
q78 20 124 20q29 0 29 -29q0 -3 -3 -95t-3 -166q0 -45 8 -66q8 -16 30 -16q20 0 40 3v-31zM334 586q0 -38 -25 -62.5t-60 -24.5q-34 0 -58.5 23.5t-24.5 61.5q0 37 25.5 62t58.5 25q36 0 60 -23.5t24 -61.5zM296 586q0 25 -13.5 38t-33.5 13q-19 0 -32.5 -13.5t-13.5 -37.5
t12.5 -38.5t33.5 -14.5t34 14t13 39z" />
    <glyph glyph-name="Uhungarumlaut" unicode="&#x170;" horiz-adv-x="674" 
d="M656 608q-72 -7 -77 -21q-6 -12 -6 -61v-235q0 -89 -11.5 -141.5t-38.5 -87.5q-62 -77 -192 -77q-143 0 -196 90q-19 31 -26 76.5t-7 142.5q0 44 1 128t1 114q0 42 -6 52q-5 9 -20 12.5t-60 7.5v36q76 -2 133 -2q47 0 121 2v-36q-73 -5 -83 -18q-8 -9 -8 -51
q-1 -73 -1 -242q0 -121 15 -166q31 -91 155 -91q50 0 88.5 19.5t55.5 49.5q29 49 29 205q0 42 -5 220q-2 52 -13 60q-4 3 -8.5 4.5t-12 3t-13.5 2t-19 2t-22 2.5v36q35 -1 111 -1q10 0 53.5 0.5t61.5 0.5v-36zM264 682l-23 21l86 129q24 36 44 36q11 0 20.5 -8.5t9.5 -21.5
q0 -16 -29 -47zM392 682l-24 21l87 129q23 36 44 36q10 0 19.5 -8.5t9.5 -21.5q0 -18 -29 -47z" />
    <glyph glyph-name="uhungarumlaut" unicode="&#x171;" horiz-adv-x="513" 
d="M492 29q-63 -40 -96 -40q-20 0 -32 13t-16 46q-68 -58 -134 -58q-72 0 -101.5 41t-29.5 126q0 8 0.5 61t0.5 72q0 60 -10 70q-12 12 -60 19v30q72 20 120 20q26 0 26 -27q0 -5 -2.5 -88.5t-2.5 -128.5q0 -75 19 -105t74 -30q41 0 98 33v208q0 60 -10 69q-14 11 -69 19v30
q78 20 124 20q29 0 29 -29q0 -3 -3 -95t-3 -166q0 -45 8 -66q8 -16 30 -16q20 0 40 3v-31zM163 501l-25 18l73 136q21 39 42 39q12 0 22 -8.5t10 -21.5q0 -18 -24 -47zM286 501l-25 17l73 137q12 24 21 31.5t22 7.5q11 0 21.5 -8.5t10.5 -21.5q0 -16 -25 -47z" />
    <glyph glyph-name="Uogonek" unicode="&#x172;" horiz-adv-x="674" 
d="M656 608q-72 -7 -77 -21q-6 -12 -6 -61v-235q0 -89 -11.5 -141.5t-38.5 -87.5q-52 -64 -142 -74q-72 -85 -72 -137q0 -57 53 -57q30 0 64 16l12 -31q-49 -39 -102 -39q-40 0 -62.5 27t-22.5 66t20 73t65 79q-148 0 -201 90q-19 31 -26 76.5t-7 142.5q0 44 1 128t1 114
q0 42 -6 52q-5 9 -20 12.5t-60 7.5v36q76 -2 133 -2q47 0 121 2v-36q-73 -5 -83 -18q-8 -9 -8 -51q-1 -73 -1 -242q0 -121 15 -166q31 -91 155 -91q50 0 88.5 19.5t55.5 49.5q29 49 29 205q0 42 -5 220q-2 52 -13 60q-4 3 -8.5 4.5t-12 3t-13.5 2t-19 2t-22 2.5v36
q35 -1 111 -1q10 0 53.5 0.5t61.5 0.5v-36z" />
    <glyph glyph-name="uogonek" unicode="&#x173;" horiz-adv-x="513" 
d="M492 29q-43 -27 -68 -34q-76 -86 -76 -139q0 -55 52 -55q29 0 61 14l12 -30q-49 -36 -97 -36q-40 0 -63 26.5t-23 63.5q0 39 21 72.5t70 79.5q-28 8 -33 57q-68 -58 -134 -58q-72 0 -101.5 41t-29.5 126q0 8 0.5 61t0.5 72q0 60 -10 70q-12 12 -60 19v30q72 20 120 20
q26 0 26 -27q0 -5 -2.5 -88.5t-2.5 -128.5q0 -75 19 -105t74 -30q41 0 98 33v208q0 60 -10 69q-14 11 -69 19v30q78 20 124 20q29 0 29 -29q0 -3 -3 -95t-3 -166q0 -45 8 -66q8 -16 30 -16q20 0 40 3v-31z" />
    <glyph glyph-name="Wcircumflex" unicode="&#x174;" horiz-adv-x="870" 
d="M275 -5h-51l-127 518q-18 76 -35 85q-12 7 -53 10v36q120 -2 124 -2q90 0 126 2v-36q-58 -4 -74.5 -10t-16.5 -23q0 -12 16 -80l85 -364l160 512h46l152 -513l84 352q15 64 15 85q0 18 -17.5 26.5t-74.5 14.5v36q47 -2 123 -2q35 0 105 2v-36q-46 -6 -60 -20
q-3 -3 -5.5 -7.5t-5 -11t-4.5 -12t-5 -16.5t-5 -18.5t-6 -23.5t-7 -27l-124 -477h-51l-153 505zM592 700l-23 -20l-115 87l-113 -87l-22 19l108 128q17 20 29 20q16 0 30 -18z" />
    <glyph glyph-name="wcircumflex" unicode="&#x175;" horiz-adv-x="667" 
d="M215 -4h-48l-86 310q-14 53 -24 65t-50 17v35q41 -2 101 -2q59 0 105 2v-35q-2 0 -21.5 -2t-28.5 -4q-19 -4 -19 -23q0 -20 9 -53l54 -207l115 323h45l111 -324l54 199q13 50 13 63q0 14 -12 19q-6 2 -61 9v35q37 -2 104 -2q50 0 85 2v-35q-33 -4 -46 -12q-13 -9 -34 -82
l-87 -298h-48l-114 318zM470 505l-25 -20l-103 103l-101 -103l-24 19l99 145q13 19 28 19q18 0 30 -19z" />
    <glyph glyph-name="Ycircumflex" unicode="&#x176;" horiz-adv-x="570" 
d="M413 -1q-102 2 -124 2q-33 0 -129 -2v36q47 3 61 7.5t19 12.5q6 8 6 48v164l-146 262q-32 58 -44 66q-16 10 -52 13v36q108 -2 112 -2q30 0 128 2v-36q-34 -1 -51.5 -4.5t-21.5 -7.5t-4 -12q0 -19 43 -97l92 -167l96 179q36 68 36 87q0 13 -15 17t-58 5v36q45 -2 115 -2
q50 0 90 2v-36q-34 -5 -45 -14q-21 -17 -64 -92l-134 -234v-165q0 -37 3 -46t20 -13.5t67 -8.5v-36zM437 700l-23 -20l-115 87l-113 -87l-22 19l108 128q17 20 29 20q16 0 30 -18z" />
    <glyph glyph-name="ycircumflex" unicode="&#x177;" horiz-adv-x="472" 
d="M40 -231q50 28 91.5 78.5t89.5 151.5h-20l-123 312q-23 57 -33 65q-14 9 -42 12v35q62 -2 100 -2q45 0 101 2v-35q-34 -4 -41 -6q-23 -5 -23 -21q0 -11 18 -60l90 -238l84 228q21 57 21 72q0 14 -14 18q-24 5 -48 7v35q54 -2 95 -2q28 0 80 2v-35q-33 -4 -45 -16
q-10 -10 -34 -72q-122 -322 -169 -417q-44 -87 -75 -122q-28 -32 -56 -32t-47 40zM368 505l-25 -20l-103 103l-101 -103l-24 19l99 145q13 19 28 19q18 0 30 -19z" />
    <glyph glyph-name="Ydieresis" unicode="&#x178;" horiz-adv-x="570" 
d="M413 -1q-102 2 -124 2q-33 0 -129 -2v36q47 3 61 7.5t19 12.5q6 8 6 48v164l-146 262q-32 58 -44 66q-16 10 -52 13v36q108 -2 112 -2q30 0 128 2v-36q-34 -1 -51.5 -4.5t-21.5 -7.5t-4 -12q0 -19 43 -97l92 -167l96 179q36 68 36 87q0 13 -15 17t-58 5v36q45 -2 115 -2
q50 0 90 2v-36q-34 -5 -45 -14q-21 -17 -64 -92l-134 -234v-165q0 -37 3 -46t20 -13.5t67 -8.5v-36zM222 704q-19 0 -32 13.5t-13 34.5q0 20 13 33t33 13t32 -13t12 -33q0 -21 -12.5 -34.5t-32.5 -13.5zM383 704q-19 0 -32 13.5t-13 34.5q0 20 13 33t33 13q19 0 31.5 -13
t12.5 -33q0 -21 -12.5 -34.5t-32.5 -13.5z" />
    <glyph glyph-name="Zacute" unicode="&#x179;" horiz-adv-x="558" 
d="M32 0v32l373 567q-256 -3 -276 -17q-12 -9 -19.5 -29t-21.5 -75l-32 2q3 78 8 131q3 32 29 32h417v-29l-372 -563q57 -3 127 -3q107 0 142 6t51 23q15 17 35 104l32 -2q0 -89 -6 -144q-2 -18 -9.5 -26.5t-28.5 -8.5h-449zM253 681l-20 26l107 114q25 28 45 28
q15 0 25 -10.5t10 -27.5q0 -22 -37 -46z" />
    <glyph glyph-name="zacute" unicode="&#x17a;" horiz-adv-x="422" 
d="M25 0v31l254 348q-93 0 -143 -4q-29 -3 -36 -22q-8 -17 -21 -67l-34 3q2 56 7 97q2 20 10.5 28t32.5 8h280v-33l-255 -346q149 0 188 12q17 6 26 28q12 33 23 73l35 -2q-5 -78 -9 -118q-2 -19 -11.5 -27.5t-35.5 -8.5h-311zM198 500l-26 21l80 135q23 38 47 38
q15 0 25 -9.5t10 -24.5q0 -22 -27 -49z" />
    <glyph glyph-name="Zdotaccent" unicode="&#x17b;" horiz-adv-x="558" 
d="M32 0v32l373 567q-256 -3 -276 -17q-12 -9 -19.5 -29t-21.5 -75l-32 2q3 78 8 131q3 32 29 32h417v-29l-372 -563q57 -3 127 -3q107 0 142 6t51 23q15 17 35 104l32 -2q0 -89 -6 -144q-2 -18 -9.5 -26.5t-28.5 -8.5h-449zM289 705q-18 0 -31 13t-13 33t13 33t32 13
t31.5 -13t12.5 -33t-12.5 -33t-32.5 -13z" />
    <glyph glyph-name="zdotaccent" unicode="&#x17c;" horiz-adv-x="422" 
d="M25 0v31l254 348q-93 0 -143 -4q-29 -3 -36 -22q-8 -17 -21 -67l-34 3q2 56 7 97q2 20 10.5 28t32.5 8h280v-33l-255 -346q149 0 188 12q17 6 26 28q12 33 23 73l35 -2q-5 -78 -9 -118q-2 -19 -11.5 -27.5t-35.5 -8.5h-311zM210 542q-18 0 -31 14.5t-13 35.5
q0 20 13 33.5t33 13.5q19 0 31.5 -13.5t12.5 -33.5q0 -21 -13 -35.5t-33 -14.5z" />
    <glyph glyph-name="Zcaron" unicode="&#x17d;" horiz-adv-x="558" 
d="M32 0v32l373 567q-256 -3 -276 -17q-12 -9 -19.5 -29t-21.5 -75l-32 2q3 78 8 131q3 32 29 32h417v-29l-372 -563q57 -3 127 -3q107 0 142 6t51 23q15 17 35 104l32 -2q0 -89 -6 -144q-2 -18 -9.5 -26.5t-28.5 -8.5h-449zM145 827l22 22l115 -87l113 87l23 -21l-108 -129
q-15 -18 -30 -18t-29 18z" />
    <glyph glyph-name="zcaron" unicode="&#x17e;" horiz-adv-x="422" 
d="M25 0v31l254 348q-93 0 -143 -4q-29 -3 -36 -22q-8 -17 -21 -67l-34 3q2 56 7 97q2 20 10.5 28t32.5 8h280v-33l-255 -346q149 0 188 12q17 6 26 28q12 33 23 73l35 -2q-5 -78 -9 -118q-2 -19 -11.5 -27.5t-35.5 -8.5h-311zM82 650l24 21l103 -104l101 104l25 -20
l-98 -145q-12 -18 -30 -18q-17 0 -29 17z" />
    <glyph glyph-name="longs" unicode="&#x17f;" horiz-adv-x="267" 
d="M263 -1q-84 2 -121 2q-28 0 -114 -2v36q60 6 67 18q6 8 6 46q0 33 -0.5 96t-0.5 113.5v51.5q-50 0 -78 6v30q10 4 54 15q12 3 16.5 12.5t5.5 35.5q2 96 19.5 144t55.5 81q53 46 125 46q45 0 73 -14q15 -8 15 -26q0 -24 -25 -53q-41 34 -97 34q-45 0 -70 -36
q-23 -35 -23 -150q0 -49 -1 -200t-1 -166q0 -56 11 -67q12 -12 83 -17v-36z" />
    <glyph glyph-name="florin" unicode="&#x192;" horiz-adv-x="484" 
d="M373 296h-124l-31 -215q-15 -119 -42 -177q-51 -114 -161 -114q-56 0 -56 28q0 20 13 45q25 -12 46 -12q52 0 73 20.5t35 83.5q9 40 22 143l24 198h-87v51h94q17 123 41 171q25 51 70.5 78.5t102.5 27.5q49 0 74 -14q15 -9 15 -27q0 -17 -20 -49q-46 32 -87 32
q-61 0 -86 -61q-16 -39 -31 -137l-3 -21h118v-51z" />
    <glyph glyph-name="Aringacute" unicode="&#x1fa;" horiz-adv-x="617" 
d="M399 719q0 -59 -54 -80l165 -492q28 -83 44 -98q8 -8 59 -14v-36q-92 2 -110 2q-37 0 -141 -2v36q51 4 67 11t16 22q0 21 -22 85l-26 82h-200l-28 -81q-23 -65 -23 -88q0 -14 18 -20.5t77 -10.5v-36q-96 2 -126 2q-25 0 -111 -2v36q45 5 57 17q16 14 49 101l178 484
q-55 17 -55 80q0 38 25 62.5t59 24.5q36 0 59 -23.5t23 -61.5zM212 279h171q-65 197 -83 256q-23 -73 -88 -256zM282 828l-19 24l104 109q23 26 43 26q12 0 22 -9.5t10 -24.5q0 -22 -33 -44zM362 719q0 26 -13 38.5t-33 12.5t-33.5 -13t-13.5 -38q0 -24 13 -38.5t34 -14.5
q20 0 33 14t13 39z" />
    <glyph glyph-name="aringacute" unicode="&#x1fb;" horiz-adv-x="437" 
d="M431 34q-19 -18 -44.5 -31t-45.5 -13q-46 0 -59 53q-57 -54 -126 -54q-52 0 -86.5 35t-34.5 89q0 59 50 87.5t189 29.5q0 89 -12 113q-18 32 -74 32q-62 0 -113 -34q-10 16 -10 33q0 24 37 41q47 22 112 22q70 0 103 -35q26 -29 26 -96q0 -8 -0.5 -90.5t-0.5 -87.5
q0 -40 9 -58.5t33 -18.5q7 0 21 4.5t15 4.5zM276 74l-2 118q-70 0 -108 -11.5t-47.5 -26.5t-9.5 -39q0 -30 20 -50.5t52 -20.5q42 0 95 30zM301 586q0 -38 -25 -62t-60 -24t-59 23t-24 61t25 62.5t59 24.5q37 0 60.5 -23.5t23.5 -61.5zM263 586q0 25 -13.5 38t-33.5 13
q-19 0 -32.5 -13.5t-13.5 -37.5t13 -38.5t33 -14.5q21 0 34 14t13 39zM195 695l-26 18l73 124q22 39 47 39q14 0 24 -10t10 -25q0 -21 -28 -49z" />
    <glyph glyph-name="AEacute" unicode="&#x1fc;" horiz-adv-x="891" 
d="M254 -1q-94 2 -138 2q-25 0 -113 -2v36q46 4 62 18q27 25 74 100l239 381q18 29 18 48q0 13 -24 18q-15 3 -66 8v35h454q34 0 42.5 -6t10.5 -23q6 -52 6 -124l-33 -2q-15 71 -34 92q-11 11 -36 14.5t-89 3.5q-32 0 -78 -2v-242h8q122 0 142 19q11 11 19 64h36
q-1 -24 -1 -102q0 -69 1 -110h-34q-9 56 -19 68q-10 10 -37.5 12.5t-108.5 2.5h-6v-216q0 -20 5 -28t20 -12q34 -7 74 -7q110 0 134 27q16 17 48 99l32 -5q-7 -94 -24 -141q-5 -16 -17.5 -20.5t-44.5 -4.5h-389v35q47 4 65 10q14 4 17 18q2 12 2 60v119h-214l-56 -94
q-37 -60 -37 -82q0 -19 26 -24q17 -4 64 -7v-36zM285 288h186v297q0 7 -4 7q-5 0 -10 -10q-50 -95 -172 -294zM552 681l-20 26l107 114q25 28 45 28q15 0 25 -10.5t10 -27.5q0 -22 -37 -46z" />
    <glyph glyph-name="aeacute" unicode="&#x1fd;" horiz-adv-x="661" 
d="M634 56q-85 -70 -172 -70q-93 0 -142 66q-77 -64 -157 -64q-56 0 -92 35t-36 89q0 38 17.5 62.5t72 40.5t149.5 17q0 89 -11 109q-10 18 -25.5 26t-51.5 8q-60 0 -111 -34q-10 20 -10 32q0 26 39 43q48 21 109 21q90 0 113 -71q55 70 146 70q81 0 118 -52t37 -121
q0 -30 -34 -30h-253v-10q0 -80 38 -126.5t104 -46.5q68 0 133 39zM296 88q-18 43 -20 103q-103 -1 -135 -20.5t-32 -56.5q0 -27 20 -49t53 -22q51 0 114 45zM343 271l215 8q-4 52 -30 81t-71 29q-47 0 -77 -31t-37 -87zM320 500l-26 21l80 135q23 38 47 38q15 0 25 -9.5
t10 -24.5q0 -22 -27 -49z" />
    <glyph glyph-name="Oslashacute" unicode="&#x1fe;" horiz-adv-x="674" 
d="M104 -43l-36 28l59 85q-86 92 -86 252q0 147 85 241.5t214 94.5q98 0 165 -44l57 81l37 -28l-58 -82q92 -89 92 -260q0 -150 -82.5 -244.5t-211.5 -94.5q-106 0 -177 54zM552 311q0 129 -55 209l-298 -426q55 -58 144 -58q96 0 152.5 73t56.5 202zM124 334
q0 -124 46 -202l296 425q-55 50 -130 50q-96 0 -154 -73t-58 -200zM324 681l-20 26l107 114q25 28 45 28q15 0 25 -10.5t10 -27.5q0 -22 -37 -46z" />
    <glyph glyph-name="oslashacute" unicode="&#x1ff;" horiz-adv-x="483" 
d="M221 500l-26 21l80 135q23 38 47 38q15 0 25 -9.5t10 -24.5q0 -22 -27 -49zM86 -39l-35 23l44 61q-55 59 -55 166q0 101 59.5 163t145.5 62q67 0 111 -29l48 66l35 -25l-50 -68q54 -59 54 -162q0 -109 -58.5 -170t-144.5 -61q-66 0 -113 31zM366 202q0 74 -20 118
l-184 -253q31 -35 81 -35q59 0 91 44t32 126zM119 225q0 -75 19 -120l184 254q-31 33 -79 33q-58 0 -91 -44t-33 -123z" />
    <glyph glyph-name="uni0218" unicode="&#x218;" horiz-adv-x="463" 
d="M80 178q18 -83 36 -105q36 -40 113 -40q56 0 90.5 29.5t34.5 70.5q0 43 -21 72t-91 69l-53 30q-75 43 -101.5 84.5t-26.5 98.5q0 79 59 124.5t150 46.5q71 0 112 -16q21 -7 25 -36q6 -47 6 -125l-35 -2q-14 70 -28 94q-22 37 -99 37q-54 0 -87.5 -27.5t-33.5 -74.5
q0 -39 20 -65.5t75 -59.5l55 -33q86 -53 116 -90.5t30 -95.5q0 -79 -57 -129t-151 -50q-76 0 -135 24q-17 7 -24.5 17.5t-9.5 33.5q-4 33 -7 115zM204 -279l-27 24q51 51 51 90q0 23 -16 39q-13 13 -13 31q0 17 12 29t32 12q50 0 50 -61q0 -82 -89 -164z" />
    <glyph glyph-name="uni0219" unicode="&#x219;" horiz-adv-x="376" 
d="M72 137q15 -64 29 -80q20 -25 86 -25q36 0 58 16.5t22 44.5q0 39 -65 69l-66 30q-81 37 -81 117q0 55 41.5 91t113.5 36q54 0 82 -12q19 -8 23 -31q5 -33 5 -86l-33 -2q-11 43 -22 60q-16 27 -71 27q-37 0 -55.5 -18t-18.5 -43q0 -24 12 -41t54 -35l59 -26
q51 -23 68 -49.5t17 -62.5q0 -58 -42 -94.5t-122 -36.5q-55 0 -94 17q-23 9 -29 37q-6 31 -6 95zM151 -279l-27 24q51 51 51 90q0 23 -16 39q-13 13 -13 31q0 17 12 29t32 12q50 0 50 -61q0 -82 -89 -164z" />
    <glyph glyph-name="uni021A" unicode="&#x21a;" horiz-adv-x="569" 
d="M413 -1q-72 2 -123 2q-59 0 -133 -2v36q74 5 82 20q5 10 5 61v483q-125 -2 -144 -14q-13 -9 -21 -31.5t-22 -82.5l-34 2q2 84 7 142q2 28 30 28h452q16 0 21.5 -6t7.5 -23q4 -36 4 -140l-34 -2q-17 88 -34 104q-22 22 -155 23v-482q0 -53 5 -62q6 -12 86 -20v-36z
M256 -279l-27 24q51 51 51 90q0 23 -16 39q-13 13 -13 31q0 17 12 29t32 12q50 0 50 -61q0 -82 -89 -164z" />
    <glyph glyph-name="uni021B" unicode="&#x21b;" horiz-adv-x="288" 
d="M284 20q-53 -28 -106 -28q-92 0 -92 120q0 153 2 248q-54 2 -79 6v31q8 3 28 9t29 9q20 7 24 27q3 12 10 43t11 47h46v-119q59 0 119 -4v-43q-52 -6 -119 -6q-2 -92 -2 -190q0 -51 4 -76q6 -48 49 -48q32 0 66 9zM128 -279l-27 24q51 51 51 90q0 23 -16 39q-13 13 -13 31
q0 17 12 29t32 12q50 0 50 -61q0 -82 -89 -164z" />
    <glyph glyph-name="circumflex" unicode="&#x2c6;" horiz-adv-x="277" 
d="M265 505l-25 -20l-103 103l-101 -103l-24 19l99 145q13 19 28 19q18 0 30 -19z" />
    <glyph glyph-name="caron" unicode="&#x2c7;" horiz-adv-x="277" 
d="M12 650l24 21l103 -104l101 104l25 -20l-98 -145q-12 -18 -30 -18q-17 0 -29 17z" />
    <glyph glyph-name="breve" unicode="&#x2d8;" horiz-adv-x="277" 
d="M228 647l32 -2q-1 -68 -34.5 -106t-88.5 -38q-119 0 -120 143l32 3q11 -82 88 -82q76 0 91 82z" />
    <glyph glyph-name="dotaccent" unicode="&#x2d9;" horiz-adv-x="277" 
d="M138 542q-18 0 -31 14.5t-13 35.5q0 20 13 33.5t33 13.5q19 0 31.5 -13.5t12.5 -33.5q0 -21 -13 -35.5t-33 -14.5z" />
    <glyph glyph-name="ring" unicode="&#x2da;" horiz-adv-x="277" 
d="M223 586q0 -38 -25 -62.5t-60 -24.5q-34 0 -58.5 23.5t-24.5 61.5q0 37 25.5 62t58.5 25q36 0 60 -23.5t24 -61.5zM185 586q0 25 -13.5 38t-33.5 13q-19 0 -32.5 -13.5t-13.5 -37.5t12.5 -38.5t33.5 -14.5t34 14t13 39z" />
    <glyph glyph-name="ogonek" unicode="&#x2db;" horiz-adv-x="277" 
d="M150 3h38q-84 -94 -84 -147q0 -55 52 -55q29 0 61 14l12 -30q-49 -36 -97 -36q-40 0 -63 26.5t-23 63.5q0 40 24 75.5t80 88.5z" />
    <glyph glyph-name="tilde" unicode="&#x2dc;" horiz-adv-x="277" 
d="M32 518l-29 12q12 42 33 70.5t49 28.5q18 0 50 -13l25 -11q30 -13 41 -13q23 0 44 47l29 -12q-27 -99 -74 -99q-19 0 -58 17l-22 9q-28 11 -41 11q-15 0 -24 -10t-23 -37z" />
    <glyph glyph-name="hungarumlaut" unicode="&#x2dd;" horiz-adv-x="280" 
d="M30 501l-25 18l73 136q21 39 42 39q12 0 22 -8.5t10 -21.5q0 -18 -24 -47zM153 501l-25 17l73 137q12 24 21 31.5t22 7.5q11 0 21.5 -8.5t10.5 -21.5q0 -16 -25 -47z" />
    <glyph glyph-name="uni0394" unicode="&#x394;" horiz-adv-x="602" 
d="M581 0h-560l-10 17l266 628h48l266 -627zM485 71l-197 470l-196 -470h393z" />
    <glyph glyph-name="uni03A9" unicode="&#x3a9;" horiz-adv-x="718" 
d="M318 0h-216q-21 0 -27.5 8.5t-8.5 26.5q-4 56 -4 144l31 2q21 -83 34 -94q15 -14 41.5 -18.5t92.5 -4.5v10q-71 34 -122 108t-51 173q0 139 78.5 221t197.5 82q117 0 189 -76t72 -217q0 -184 -166 -290v-11q64 0 90.5 4.5t40.5 17.5q14 12 35 95l32 -2q0 -77 -5 -144
q-1 -13 -3 -19t-10 -11t-23 -5h-215v88q33 23 56 44t43.5 52t31 73.5t10.5 96.5q0 128 -52.5 191t-128.5 63q-78 0 -134 -62t-56 -193q0 -193 147 -266v-87z" />
    <glyph glyph-name="uni03BC" unicode="&#x3bc;" horiz-adv-x="530" 
d="M517 29q-63 -40 -93 -40q-42 0 -51 59q-59 -53 -121 -53q-51 0 -75 29q1 -33 4 -83.5t5 -87t2 -45.5q0 -37 -38 -37q-40 0 -40 39v480q0 59 -11 70q-12 12 -60 19v30q72 20 120 20q26 0 26 -27q0 -6 -2.5 -90t-2.5 -128q0 -76 19 -104.5t74 -28.5q49 0 98 30v210
q0 60 -10 69q-14 11 -69 19v30q78 20 125 20q28 0 28 -29q0 -3 -3 -95t-3 -166q0 -45 8 -66q8 -16 30 -16q21 0 40 3v-31z" />
    <glyph glyph-name="pi" unicode="&#x3c0;" horiz-adv-x="556" 
d="M264 -1q-78 2 -110 2q-26 0 -102 -2v37q55 6 64 16q7 8 7 46v222q0 42 -7 52q-7 8 -64 14v37q76 -2 230 -2q149 0 225 2v-37q-63 -6 -70 -15q-6 -8 -6 -48v-201q0 -42 6 -56q9 -25 35 -25q25 0 39 6l11 -33q-35 -19 -78 -19q-48 0 -64 32q-13 26 -13 87v236q0 22 -10 26
q-17 5 -77 5q-74 0 -84 -5q-10 -4 -10 -24v-252q0 -39 7 -48q9 -10 71 -16v-37z" />
    <glyph glyph-name="Wgrave" unicode="&#x1e80;" horiz-adv-x="870" 
d="M275 -5h-51l-127 518q-18 76 -35 85q-12 7 -53 10v36q120 -2 124 -2q90 0 126 2v-36q-58 -4 -74.5 -10t-16.5 -23q0 -12 16 -80l85 -364l160 512h46l152 -513l84 352q15 64 15 85q0 18 -17.5 26.5t-74.5 14.5v36q47 -2 123 -2q35 0 105 2v-36q-46 -6 -60 -20
q-3 -3 -5.5 -7.5t-5 -11t-4.5 -12t-5 -16.5t-5 -18.5t-6 -23.5t-7 -27l-124 -477h-51l-153 505zM517 707l-20 -26l-130 84q-37 25 -37 45q0 16 11 27t26 11q17 0 43 -27z" />
    <glyph glyph-name="wgrave" unicode="&#x1e81;" horiz-adv-x="667" 
d="M215 -4h-48l-86 310q-14 53 -24 65t-50 17v35q41 -2 101 -2q59 0 105 2v-35q-2 0 -21.5 -2t-28.5 -4q-19 -4 -19 -23q0 -20 9 -53l54 -207l115 323h45l111 -324l54 199q13 50 13 63q0 14 -12 19q-6 2 -61 9v35q37 -2 104 -2q50 0 85 2v-35q-33 -4 -46 -12q-13 -9 -34 -82
l-87 -298h-48l-114 318zM397 521l-27 -21l-107 111q-29 29 -29 46q0 15 12 25.5t26 10.5q13 0 22 -6.5t23 -30.5z" />
    <glyph glyph-name="Wacute" unicode="&#x1e82;" horiz-adv-x="870" 
d="M275 -5h-51l-127 518q-18 76 -35 85q-12 7 -53 10v36q120 -2 124 -2q90 0 126 2v-36q-58 -4 -74.5 -10t-16.5 -23q0 -12 16 -80l85 -364l160 512h46l152 -513l84 352q15 64 15 85q0 18 -17.5 26.5t-74.5 14.5v36q47 -2 123 -2q35 0 105 2v-36q-46 -6 -60 -20
q-3 -3 -5.5 -7.5t-5 -11t-4.5 -12t-5 -16.5t-5 -18.5t-6 -23.5t-7 -27l-124 -477h-51l-153 505zM424 681l-20 26l107 114q25 28 45 28q15 0 25 -10.5t10 -27.5q0 -22 -37 -46z" />
    <glyph glyph-name="wacute" unicode="&#x1e83;" horiz-adv-x="667" 
d="M215 -4h-48l-86 310q-14 53 -24 65t-50 17v35q41 -2 101 -2q59 0 105 2v-35q-2 0 -21.5 -2t-28.5 -4q-19 -4 -19 -23q0 -20 9 -53l54 -207l115 323h45l111 -324l54 199q13 50 13 63q0 14 -12 19q-6 2 -61 9v35q37 -2 104 -2q50 0 85 2v-35q-33 -4 -46 -12q-13 -9 -34 -82
l-87 -298h-48l-114 318zM314 500l-26 21l80 135q23 38 47 38q15 0 25 -9.5t10 -24.5q0 -22 -27 -49z" />
    <glyph glyph-name="Wdieresis" unicode="&#x1e84;" horiz-adv-x="870" 
d="M275 -5h-51l-127 518q-18 76 -35 85q-12 7 -53 10v36q120 -2 124 -2q90 0 126 2v-36q-58 -4 -74.5 -10t-16.5 -23q0 -12 16 -80l85 -364l160 512h46l152 -513l84 352q15 64 15 85q0 18 -17.5 26.5t-74.5 14.5v36q47 -2 123 -2q35 0 105 2v-36q-46 -6 -60 -20
q-3 -3 -5.5 -7.5t-5 -11t-4.5 -12t-5 -16.5t-5 -18.5t-6 -23.5t-7 -27l-124 -477h-51l-153 505zM380 704q-19 0 -32 13.5t-13 34.5q0 20 13 33t33 13t32 -13t12 -33q0 -21 -12.5 -34.5t-32.5 -13.5zM541 704q-19 0 -32 13.5t-13 34.5q0 20 13 33t33 13q19 0 31.5 -13
t12.5 -33q0 -21 -12.5 -34.5t-32.5 -13.5z" />
    <glyph glyph-name="wdieresis" unicode="&#x1e85;" horiz-adv-x="667" 
d="M215 -4h-48l-86 310q-14 53 -24 65t-50 17v35q41 -2 101 -2q59 0 105 2v-35q-2 0 -21.5 -2t-28.5 -4q-19 -4 -19 -23q0 -20 9 -53l54 -207l115 323h45l111 -324l54 199q13 50 13 63q0 14 -12 19q-6 2 -61 9v35q37 -2 104 -2q50 0 85 2v-35q-33 -4 -46 -12q-13 -9 -34 -82
l-87 -298h-48l-114 318zM273 542q-19 0 -32 14t-13 36q0 20 13 33.5t33 13.5t32 -13.5t12 -33.5q0 -21 -12.5 -35.5t-32.5 -14.5zM422 542q-19 0 -32 14t-13 36q0 20 13 33.5t33 13.5q19 0 31.5 -13.5t12.5 -33.5q0 -21 -12.5 -35.5t-32.5 -14.5z" />
    <glyph glyph-name="Ygrave" unicode="&#x1ef2;" horiz-adv-x="570" 
d="M413 -1q-102 2 -124 2q-33 0 -129 -2v36q47 3 61 7.5t19 12.5q6 8 6 48v164l-146 262q-32 58 -44 66q-16 10 -52 13v36q108 -2 112 -2q30 0 128 2v-36q-34 -1 -51.5 -4.5t-21.5 -7.5t-4 -12q0 -19 43 -97l92 -167l96 179q36 68 36 87q0 13 -15 17t-58 5v36q45 -2 115 -2
q50 0 90 2v-36q-34 -5 -45 -14q-21 -17 -64 -92l-134 -234v-165q0 -37 3 -46t20 -13.5t67 -8.5v-36zM353 707l-20 -26l-130 84q-37 25 -37 45q0 16 11 27t26 11q17 0 43 -27z" />
    <glyph glyph-name="ygrave" unicode="&#x1ef3;" horiz-adv-x="472" 
d="M40 -231q50 28 91.5 78.5t89.5 151.5h-20l-123 312q-23 57 -33 65q-14 9 -42 12v35q62 -2 100 -2q45 0 101 2v-35q-34 -4 -41 -6q-23 -5 -23 -21q0 -11 18 -60l90 -238l84 228q21 57 21 72q0 14 -14 18q-24 5 -48 7v35q54 -2 95 -2q28 0 80 2v-35q-33 -4 -45 -16
q-10 -10 -34 -72q-122 -322 -169 -417q-44 -87 -75 -122q-28 -32 -56 -32t-47 40zM288 521l-27 -21l-107 111q-29 29 -29 46q0 15 12 25.5t26 10.5q13 0 22 -6.5t23 -30.5z" />
    <glyph glyph-name="endash" unicode="&#x2013;" horiz-adv-x="557" 
d="M48 264h460v-60h-460v60z" />
    <glyph glyph-name="emdash" unicode="&#x2014;" horiz-adv-x="780" 
d="M48 264h684v-60h-684v60z" />
    <glyph glyph-name="quoteleft" unicode="&#x2018;" horiz-adv-x="148" 
d="M116 682l25 -25q-59 -68 -59 -107q0 -26 20 -46q14 -16 14 -34t-13 -31t-32 -13q-26 0 -41 20t-15 51q0 85 101 185z" />
    <glyph glyph-name="quoteright" unicode="&#x2019;" horiz-adv-x="148" 
d="M33 414l-26 25q59 69 59 107q0 25 -21 46q-13 13 -13 34q0 18 12.5 31t30.5 13q27 0 42.5 -19.5t15.5 -51.5q0 -83 -100 -185z" />
    <glyph glyph-name="quotesinglbase" unicode="&#x201a;" horiz-adv-x="149" 
d="M33 -162l-26 25q59 69 59 107q0 25 -21 46q-13 13 -13 34q0 18 12.5 31t30.5 13q27 0 42.5 -19.5t15.5 -51.5q0 -83 -100 -185z" />
    <glyph glyph-name="quotedblleft" unicode="&#x201c;" horiz-adv-x="292" 
d="M259 682l26 -25q-59 -69 -59 -107q0 -25 21 -46q13 -13 13 -34q0 -18 -12.5 -31t-30.5 -13q-27 0 -42.5 19.5t-15.5 51.5q0 83 100 185zM116 682l25 -25q-59 -68 -59 -107q0 -26 20 -46q14 -16 14 -34t-13 -31t-32 -13q-26 0 -41 20t-15 51q0 85 101 185z" />
    <glyph glyph-name="quotedblright" unicode="&#x201d;" horiz-adv-x="292" 
d="M33 414l-26 25q59 69 59 107q0 25 -21 46q-13 13 -13 34q0 18 12.5 31t30.5 13q27 0 42.5 -19.5t15.5 -51.5q0 -83 -100 -185zM176 414l-25 25q59 68 59 107q0 26 -20 46q-14 16 -14 34t13 31t32 13q26 0 41 -20t15 -51q0 -85 -101 -185z" />
    <glyph glyph-name="quotedblbase" unicode="&#x201e;" horiz-adv-x="292" 
d="M33 -162l-26 25q59 69 59 107q0 25 -21 46q-13 13 -13 34q0 18 12.5 31t30.5 13q27 0 42.5 -19.5t15.5 -51.5q0 -83 -100 -185zM176 -162l-25 25q59 68 59 107q0 26 -20 46q-14 16 -14 34t13 31t32 13q26 0 41 -20t15 -51q0 -85 -101 -185z" />
    <glyph glyph-name="dagger" unicode="&#x2020;" horiz-adv-x="355" 
d="M210 -76h-58q0 322 2 485q-46 -2 -138 -2v61q92 0 138 -2q-2 66 -2 197h58q0 -131 -2 -197q47 2 142 2v-61q-46 0 -142 2q2 -163 2 -485z" />
    <glyph glyph-name="daggerdbl" unicode="&#x2021;" horiz-adv-x="366" 
d="M210 -76h-58q0 169 2 216q-46 -2 -138 -2v61q92 0 138 -2q-1 30 -1 96q0 75 1 116q-46 -2 -138 -2v61q92 0 138 -2q-2 64 -2 197h58q0 -133 -2 -197q47 2 142 2v-61q-48 0 -142 2q1 -41 1 -115q0 -67 -1 -97q47 2 142 2v-61q-48 0 -142 2q2 -47 2 -216z" />
    <glyph glyph-name="bullet" unicode="&#x2022;" horiz-adv-x="314" 
d="M275 295q0 -56 -33.5 -90t-85.5 -34q-51 0 -84.5 35t-33.5 86t33 85t83 34q53 0 87 -33.5t34 -82.5z" />
    <glyph glyph-name="ellipsis" unicode="&#x2026;" horiz-adv-x="786" 
d="M185 48q0 -26 -15 -42t-40 -16q-22 0 -37.5 16t-15.5 39q0 24 15 40t38 16q24 0 39.5 -15t15.5 -38zM447 48q0 -26 -15.5 -42t-39.5 -16q-22 0 -38 16t-16 39q0 24 16 40t37 16q25 0 40.5 -15t15.5 -38zM709 48q0 -26 -16 -42t-40 -16q-22 0 -37 16t-15 39q0 24 15 40
t37 16q24 0 40 -15t16 -38z" />
    <glyph glyph-name="perthousand" unicode="&#x2030;" horiz-adv-x="1099" 
d="M309 448q0 -103 -39 -159.5t-104 -56.5q-66 0 -103.5 52t-37.5 142q0 96 41 153t105 57t101 -51t37 -137zM251 432q0 168 -83 168q-39 0 -62 -40t-23 -122q0 -169 86 -169q82 0 82 163zM732 206q0 -102 -38.5 -158.5t-103.5 -56.5q-66 0 -103.5 52t-37.5 142q0 96 41 153
t105 57q63 0 100 -51t37 -138zM674 191q0 168 -82 168q-39 0 -62.5 -40.5t-23.5 -123.5q0 -168 87 -168q81 0 81 164zM488 636h44l-257 -639h-47zM1075 206q0 -102 -39 -158.5t-104 -56.5q-66 0 -104 52.5t-38 141.5q0 96 42 153t106 57q63 0 100 -51.5t37 -137.5zM1016 191
q0 168 -81 168q-40 0 -63.5 -40.5t-23.5 -123.5q0 -168 88 -168q80 0 80 164z" />
    <glyph glyph-name="guilsinglleft" unicode="&#x2039;" horiz-adv-x="245" 
d="M223 53l-21 -21l-153 155q-12 12 -12 27q0 13 14 27l151 150l21 -20l-112 -156z" />
    <glyph glyph-name="guilsinglright" unicode="&#x203a;" horiz-adv-x="245" 
d="M23 371l20 20l154 -155q11 -13 11 -27q0 -15 -13 -27l-152 -150l-21 20l112 156z" />
    <glyph glyph-name="fraction" unicode="&#x2044;" horiz-adv-x="92" 
d="M151 634h45l-256 -634h-45z" />
    <glyph glyph-name="zero.superior" unicode="&#x2070;" 
d="M315 607q0 -103 -39 -159.5t-106 -56.5q-68 0 -106.5 52t-38.5 142q0 96 42 153t108 57q65 0 102.5 -50.5t37.5 -137.5zM257 591q0 170 -85 170q-40 0 -64 -40.5t-24 -123.5q0 -172 89 -172q84 0 84 166z" />
    <glyph glyph-name="four.superior" unicode="&#x2074;" 
d="M259 541h58v-49h-57v-113h-54v113h-183v32l190 267h47q-1 -26 -1 -93v-157zM80 540h126q0 133 1 185z" />
    <glyph glyph-name="five.superior" unicode="&#x2075;" 
d="M113 656q171 -12 171 -128q0 -50 -36.5 -87.5t-81.5 -53t-87 -15.5q-30 0 -34 21q-2 8 -2 25q97 0 140 20.5t43 78.5q0 85 -159 94l40 177h186l-9 -52h-152z" />
    <glyph glyph-name="six.superior" unicode="&#x2076;" 
d="M101 602q33 44 100 44q54 0 81.5 -34.5t27.5 -83.5q0 -58 -36 -97.5t-100 -39.5t-99 45t-35 108q0 52 16.5 96.5t41 73.5t59 52t62.5 35.5t59 21.5l10 -29q-84 -34 -127.5 -76.5t-59.5 -115.5zM254 515q0 42 -18.5 67.5t-55.5 25.5q-27 0 -49 -14.5t-33 -33.5v-8
q0 -66 22 -97.5t59 -31.5q36 0 55.5 24.5t19.5 67.5z" />
    <glyph glyph-name="seven.superior" unicode="&#x2077;" 
d="M249 739h-218v49h264l8 -14l-181 -404l-40 14z" />
    <glyph glyph-name="eight.superior" unicode="&#x2078;" 
d="M122 594q-38 24 -51.5 48t-13.5 55q0 42 31 71t85 29q51 0 78.5 -25.5t27.5 -67.5q0 -31 -17 -52.5t-55 -41.5q49 -27 66.5 -50.5t17.5 -61.5q0 -45 -36.5 -76t-91.5 -31t-89.5 28.5t-34.5 72.5q0 63 83 102zM140 580q-51 -33 -51 -85q0 -34 21 -53t54 -19q30 0 50.5 17
t20.5 45q0 32 -20.5 51.5t-74.5 43.5zM184 622q48 33 48 81q0 28 -16 45.5t-44 17.5t-46 -16.5t-18 -42.5t16 -45t60 -40z" />
    <glyph glyph-name="nine.superior" unicode="&#x2079;" 
d="M239 582q-34 -43 -100 -43q-54 0 -81.5 34.5t-27.5 84.5q0 58 36 97.5t100 39.5q63 0 98.5 -45.5t35.5 -107.5q0 -53 -17 -97.5t-41.5 -73t-58.5 -52t-62 -35.5t-58 -21l-11 28q84 35 127 76.5t60 114.5zM86 670q0 -41 18.5 -66t57.5 -25q26 0 48 13.5t31 31.5v9
q0 65 -21.5 97t-57.5 32q-37 0 -56.5 -25t-19.5 -67z" />
    <glyph glyph-name="parenleft.superior" unicode="&#x207d;" horiz-adv-x="208" 
d="M208 316l-20 -22q-68 53 -106.5 130t-38.5 161q0 178 144 294l21 -21q-59 -70 -85.5 -129t-26.5 -144q0 -138 112 -269z" />
    <glyph glyph-name="parenright.superior" unicode="&#x207e;" horiz-adv-x="208" 
d="M-1 856l20 23q68 -53 106.5 -130t38.5 -162q0 -82 -36.5 -158.5t-106.5 -135.5l-22 22q58 66 84 126t26 146q0 143 -110 269z" />
    <glyph glyph-name="zero.inferior" unicode="&#x2080;" 
d="M315 64q0 -103 -39 -159.5t-106 -56.5q-68 0 -106.5 52t-38.5 142q0 96 42 153t108 57q65 0 102.5 -50.5t37.5 -137.5zM257 48q0 170 -85 170q-40 0 -64 -40.5t-24 -123.5q0 -172 89 -172q84 0 84 166z" />
    <glyph glyph-name="one.inferior" unicode="&#x2081;" 
d="M271 -143q-30 1 -88 1q-66 0 -95 -1v29q53 5 57 12q8 7 8 37v156q0 55 -5 74q-2 18 -14 18t-45 -7l-7 25q10 5 52.5 23t64.5 29l12 -7q-3 -67 -3 -153v-159q0 -32 4 -36q6 -9 59 -12v-29z" />
    <glyph glyph-name="two.inferior" unicode="&#x2082;" 
d="M298 -143h-268v37q107 81 155.5 134t48.5 104q0 77 -73 77q-43 0 -97 -45l-20 26q70 62 135 62q56 0 85 -30.5t29 -84.5q0 -60 -43 -108.5t-146 -118.5q48 1 194 1v-54z" />
    <glyph glyph-name="three.inferior" unicode="&#x2083;" 
d="M183 71q104 -4 104 -90q0 -37 -24 -67.5t-58.5 -48t-69 -27t-60.5 -9.5q-22 0 -27 19q-4 8 -4 26q94 0 139.5 23t45.5 77q0 69 -85 69q-23 0 -46 -5l-4 33l45 10q69 22 69 80q0 19 -13 32.5t-37 13.5q-43 0 -90 -36l-18 29q62 49 122 49q45 0 68 -21.5t23 -56.5
q0 -68 -80 -100z" />
    <glyph glyph-name="four.inferior" unicode="&#x2084;" 
d="M259 -2h58v-49h-57v-113h-54v113h-183v32l190 267h47q-1 -26 -1 -93v-157zM80 -3h126q0 133 1 185z" />
    <glyph glyph-name="five.inferior" unicode="&#x2085;" 
d="M113 113q171 -12 171 -128q0 -50 -36.5 -87.5t-81.5 -53t-87 -15.5q-30 0 -34 21q-2 8 -2 25q97 0 140 20.5t43 78.5q0 85 -159 94l40 177h186l-9 -52h-152z" />
    <glyph glyph-name="six.inferior" unicode="&#x2086;" 
d="M101 59q33 44 100 44q54 0 81.5 -34.5t27.5 -83.5q0 -58 -36 -97.5t-100 -39.5t-99 45t-35 108q0 52 16.5 96.5t41 73.5t59 52t62.5 35.5t59 21.5l10 -29q-84 -34 -127.5 -76.5t-59.5 -115.5zM254 -28q0 42 -18.5 67.5t-55.5 25.5q-27 0 -49 -14.5t-33 -33.5v-8
q0 -66 22 -97.5t59 -31.5q36 0 55.5 24.5t19.5 67.5z" />
    <glyph glyph-name="seven.inferior" unicode="&#x2087;" 
d="M249 196h-218v49h264l8 -14l-181 -404l-40 14z" />
    <glyph glyph-name="eight.inferior" unicode="&#x2088;" 
d="M122 51q-38 24 -51.5 48t-13.5 55q0 42 31 71t85 29q51 0 78.5 -25.5t27.5 -67.5q0 -31 -17 -52.5t-55 -41.5q49 -27 66.5 -50.5t17.5 -61.5q0 -45 -36.5 -76t-91.5 -31t-89.5 28.5t-34.5 72.5q0 63 83 102zM140 37q-51 -33 -51 -85q0 -34 21 -53t54 -19q30 0 50.5 17
t20.5 45q0 32 -20.5 51.5t-74.5 43.5zM184 79q48 33 48 81q0 28 -16 45.5t-44 17.5t-46 -16.5t-18 -42.5t16 -45t60 -40z" />
    <glyph glyph-name="nine.inferior" unicode="&#x2089;" 
d="M239 39q-34 -43 -100 -43q-54 0 -81.5 34.5t-27.5 84.5q0 58 36 97.5t100 39.5q63 0 98.5 -45.5t35.5 -107.5q0 -53 -17 -97.5t-41.5 -73t-58.5 -52t-62 -35.5t-58 -21l-11 28q84 35 127 76.5t60 114.5zM86 127q0 -41 18.5 -66t57.5 -25q26 0 48 13.5t31 31.5v9
q0 65 -21.5 97t-57.5 32q-37 0 -56.5 -25t-19.5 -67z" />
    <glyph glyph-name="parenleft.inferior" unicode="&#x208d;" horiz-adv-x="208" 
d="M208 -227l-20 -22q-68 53 -106.5 130t-38.5 161q0 178 144 294l21 -21q-59 -70 -85.5 -129t-26.5 -144q0 -138 112 -269z" />
    <glyph glyph-name="parenright.inferior" unicode="&#x208e;" horiz-adv-x="208" 
d="M-1 313l20 23q68 -53 106.5 -130t38.5 -162q0 -82 -36.5 -158.5t-106.5 -135.5l-22 22q58 66 84 126t26 146q0 143 -110 269z" />
    <glyph glyph-name="Euro" unicode="&#x20ac;" horiz-adv-x="596" 
d="M438 233h-214q12 -91 55 -139t108 -48q81 0 158 59l23 -34q-53 -44 -99 -63.5t-99 -19.5q-96 0 -155 66t-71 179h-70v43h68q0 44 3 73h-71v42h76q21 112 88 178t171 66q72 0 118 -24q25 -13 25 -32q0 -21 -25 -56q-57 59 -147 59q-129 0 -154 -191h212v-42h-216
q-2 -27 -2 -73h218v-43z" />
    <glyph glyph-name="afii61289" unicode="&#x2113;" horiz-adv-x="396" 
d="M383 31q-71 -43 -132 -43q-70 0 -109 48t-47 135q-6 -5 -48 -33l-21 39q8 6 31.5 21t33.5 22q-4 52 -4 112q0 137 29 207q18 46 54.5 71.5t80.5 25.5q55 0 84 -32.5t29 -92.5q0 -80 -49 -146.5t-154 -154.5q9 -169 103 -169q46 0 100 32zM156 265q152 126 152 246
q0 74 -59 74q-51 0 -71 -55q-22 -61 -24 -186q0 -48 2 -79z" />
    <glyph glyph-name="trademark" unicode="&#x2122;" horiz-adv-x="680" 
d="M218 360q-40 2 -68 2q-17 0 -71 -2v21q39 5 43 10q3 4 3 28v196q-49 0 -59 -5q-10 -4 -23 -54l-19 2q0 38 3 64q2 21 16 21h215q19 0 19 -22q2 -38 2 -63h-19q-8 42 -16 49q-6 6 -17.5 7t-55.5 1v-196q0 -24 3 -28q6 -6 44 -10v-21zM414 361q-11 0 -31 0.5t-24 0.5
q-3 0 -27 -0.5t-36 -0.5v19q30 3 37 8q5 4 6 27q9 170 9 183t-3 15q-5 7 -35 8v22q19 -1 54 -1q32 0 38 1q60 -170 76 -212q57 148 78 212q11 -1 47 -1q33 0 49 1v-22q-35 -2 -39 -7q-4 -4 -4 -22q0 -15 4 -171q0 -26 4 -30q6 -8 39 -11v-19q-12 0 -34.5 0.5t-27.5 0.5
t-29 -0.5t-39 -0.5v19q34 4 39 11q2 3 2 21q0 4 -0.5 35.5t-0.5 73v68.5q-15 -47 -87 -228h-22q-66 179 -82 226q-2 -53 -3.5 -98.5t-2 -62t-0.5 -20.5q0 -14 6 -19q4 -4 39 -7v-19z" />
    <glyph glyph-name="Omega" unicode="&#x2126;" horiz-adv-x="718" 
d="M318 0h-216q-21 0 -27.5 8.5t-8.5 26.5q-4 56 -4 144l31 2q20 -82 34 -95q14 -15 40 -19t94 -4v10q-71 34 -122 108.5t-51 173.5q0 139 78.5 221t197.5 82q117 0 189 -76t72 -217q0 -185 -166 -291v-11q64 0 90.5 4.5t40.5 17.5q13 12 35 96l32 -2q0 -77 -5 -144
q-1 -13 -3 -19t-10 -11t-23 -5h-215v87q69 47 105 105.5t36 161.5q0 128 -52.5 191.5t-128.5 63.5q-78 0 -134 -62.5t-56 -193.5q0 -193 147 -267v-86z" />
    <glyph glyph-name="estimated" unicode="&#x212e;" horiz-adv-x="784" 
d="M742 305h-565q-5 0 -5 -5v-179q0 -10 8 -20q89 -94 215 -94q137 0 224 105h53q-49 -58 -122 -92t-156 -34q-145 0 -247.5 96t-102.5 232q0 134 102.5 230t247.5 96q144 0 246 -96t102 -230v-9zM617 328v179q0 12 -10 22q-91 91 -212 91q-124 0 -214 -95q-9 -9 -9 -22
v-175q0 -5 5 -5h434q6 0 6 5z" />
    <glyph glyph-name="onethird" unicode="&#x2153;" horiz-adv-x="751" 
d="M486 634h45l-256 -634h-45zM261 241q-30 1 -88 1q-66 0 -95 -1v29q50 4 57 11q8 9 8 38v156q0 54 -4 74q-3 18 -15 18t-45 -7l-7 25q10 5 52.5 23t64.5 29l12 -7q-3 -68 -3 -153v-159q0 -31 4 -36q8 -9 59 -12v-29zM591 214q104 -4 104 -90q0 -37 -24 -67.5t-58.5 -48
t-69 -27t-60.5 -9.5q-22 0 -27 19q-4 8 -4 26q94 0 139.5 23t45.5 77q0 69 -85 69q-23 0 -46 -5l-4 33l45 10q69 22 69 80q0 19 -13 32.5t-37 13.5q-43 0 -90 -36l-18 29q62 49 122 49q45 0 68 -21.5t23 -56.5q0 -68 -80 -100z" />
    <glyph glyph-name="twothirds" unicode="&#x2154;" horiz-adv-x="751" 
d="M524 634h45l-256 -634h-45zM315 241h-268v37q107 81 155.5 134t48.5 104q0 77 -73 77q-43 0 -97 -45l-20 26q70 62 135 62q56 0 85 -30.5t29 -84.5q0 -60 -43 -108.5t-146 -118.5q48 1 194 1v-54zM621 214q104 -4 104 -90q0 -37 -24 -67.5t-58.5 -48t-69 -27t-60.5 -9.5
q-22 0 -27 19q-4 8 -4 26q94 0 139.5 23t45.5 77q0 69 -85 69q-23 0 -46 -5l-4 33l45 10q69 22 69 80q0 19 -13 32.5t-37 13.5q-43 0 -90 -36l-18 29q62 49 122 49q45 0 68 -21.5t23 -56.5q0 -68 -80 -100z" />
    <glyph glyph-name="oneeighth" unicode="&#x215b;" horiz-adv-x="751" 
d="M486 634h45l-256 -634h-45zM256 241q-30 1 -88 1q-66 0 -95 -1v29q50 4 57 11q8 9 8 38v156q0 54 -4 74q-3 18 -15 18t-45 -7l-7 25q10 5 52.5 23t64.5 29l12 -7q-3 -68 -3 -153v-159q0 -31 4 -36q8 -9 59 -12v-29zM531 194q-38 24 -51.5 48t-13.5 55q0 42 31 71t85 29
q51 0 78.5 -25.5t27.5 -67.5q0 -31 -17 -52.5t-55 -41.5q49 -27 66.5 -50.5t17.5 -61.5q0 -45 -36.5 -76t-91.5 -31t-89.5 28.5t-34.5 72.5q0 63 83 102zM549 180q-51 -33 -51 -85q0 -34 21 -53t54 -19q30 0 50.5 17t20.5 45q0 32 -20.5 51.5t-74.5 43.5zM593 222
q48 33 48 81q0 28 -16 45.5t-44 17.5t-46 -16.5t-18 -42.5t16 -45t60 -40z" />
    <glyph glyph-name="threeeighths" unicode="&#x215c;" horiz-adv-x="751" 
d="M488 634h45l-256 -634h-45zM195 455q104 -4 104 -90q0 -37 -24 -67.5t-58.5 -48t-69 -27t-60.5 -9.5q-21 0 -28 19q-3 8 -3 26q94 0 139.5 23t45.5 77q0 69 -85 69q-23 0 -46 -5l-4 33q41 9 45 10q69 20 69 80q0 19 -13 32.5t-37 13.5q-43 0 -90 -36l-18 29q62 49 122 49
q45 0 68 -21.5t23 -56.5q0 -68 -80 -100zM534 194q-38 24 -51.5 48t-13.5 55q0 42 31 71t85 29q51 0 78.5 -25.5t27.5 -67.5q0 -31 -17 -52.5t-55 -41.5q49 -27 66.5 -50.5t17.5 -61.5q0 -45 -36.5 -76t-91.5 -31t-89.5 28.5t-34.5 72.5q0 63 83 102zM552 180
q-51 -33 -51 -85q0 -34 21 -53t54 -19q30 0 50.5 17t20.5 45q0 32 -20.5 51.5t-74.5 43.5zM596 222q48 33 48 81q0 28 -16 45.5t-44 17.5t-46 -16.5t-18 -42.5t16 -45t60 -40z" />
    <glyph glyph-name="fiveeighths" unicode="&#x215d;" horiz-adv-x="751" 
d="M479 634h45l-256 -634h-45zM122 497q171 -12 171 -128q0 -50 -36.5 -87.5t-81.5 -53t-87 -15.5q-30 0 -34 21q-2 8 -2 25q97 0 140 20.5t43 78.5q0 85 -159 94l40 177h186l-9 -52h-152zM525 194q-38 24 -51.5 48t-13.5 55q0 42 31 71t85 29q51 0 78.5 -25.5t27.5 -67.5
q0 -31 -17 -52.5t-55 -41.5q49 -27 66.5 -50.5t17.5 -61.5q0 -45 -36.5 -76t-91.5 -31t-89.5 28.5t-34.5 72.5q0 63 83 102zM543 180q-51 -33 -51 -85q0 -34 21 -53t54 -19q30 0 50.5 17t20.5 45q0 32 -20.5 51.5t-74.5 43.5zM587 222q48 33 48 81q0 28 -16 45.5t-44 17.5
t-46 -16.5t-18 -42.5t16 -45t60 -40z" />
    <glyph glyph-name="seveneighths" unicode="&#x215e;" horiz-adv-x="751" 
d="M470 634h45l-256 -634h-45zM277 580h-218v49h264l8 -14l-181 -404l-40 14zM524 194q-38 24 -51.5 48t-13.5 55q0 42 31 71t85 29q51 0 78.5 -25.5t27.5 -67.5q0 -31 -17 -52.5t-55 -41.5q49 -27 66.5 -50.5t17.5 -61.5q0 -45 -36.5 -76t-91.5 -31t-89.5 28.5t-34.5 72.5
q0 63 83 102zM542 180q-51 -33 -51 -85q0 -34 21 -53t54 -19q30 0 50.5 17t20.5 45q0 32 -20.5 51.5t-74.5 43.5zM586 222q48 33 48 81q0 28 -16 45.5t-44 17.5t-46 -16.5t-18 -42.5t16 -45t60 -40z" />
    <glyph glyph-name="partialdiff" unicode="&#x2202;" horiz-adv-x="469" 
d="M141 589l-12 46q52 20 93 20q91 0 144 -64t53 -224q0 -179 -52 -280t-163 -101q-75 0 -121 55t-46 143q0 106 55 169.5t143 63.5q34 0 65.5 -13t47.5 -33q0 5 0.5 18t0.5 19q0 95 -37.5 145t-95.5 50q-41 0 -75 -14zM344 305q-12 31 -42.5 47t-59.5 16q-59 0 -95 -49.5
t-36 -138.5q0 -78 27.5 -112.5t70.5 -34.5q75 0 106 95q24 76 29 177z" />
    <glyph glyph-name="Delta" unicode="&#x2206;" horiz-adv-x="602" 
d="M581 0h-560l-10 17l266 628h48l266 -627zM485 71l-197 470l-196 -470h393z" />
    <glyph glyph-name="product" unicode="&#x220f;" horiz-adv-x="709" 
d="M279 -171q-78 2 -124 2q-40 0 -122 -2v40q70 6 77 15q7 11 7 64v580q0 38 -3 50q-5 15 -21 19q-32 7 -60 8v39q68 -2 326 -2q247 0 317 2v-39q-40 -4 -62 -8q-17 -3 -20 -18q-3 -12 -3 -52v-578q0 -55 6 -65q9 -9 78 -15v-40q-80 2 -120 2q-50 0 -126 -2v40q73 6 82 16
q5 10 5 59v580q0 51 -7 61q-6 8 -35 9q-30 1 -114 1q-98 0 -125 -1q-30 -1 -35 -9q-9 -11 -9 -61v-580q0 -50 7 -59q8 -11 81 -16v-40z" />
    <glyph glyph-name="summation" unicode="&#x2211;" horiz-adv-x="557" 
d="M1 -169v34l288 377l-254 369v32h428q27 0 29 -29q3 -34 7 -142l-33 -2q-27 102 -42 110q-18 11 -87 12q-34 1 -193 1l228 -326l-275 -361q33 -1 213 -1q74 0 106 6t48 22q11 10 37 101l33 -2q0 -58 -5 -160q-2 -21 -9.5 -31t-32.5 -10h-486z" />
    <glyph glyph-name="minus" unicode="&#x2212;" horiz-adv-x="556" 
d="M483 267h-409v61h409v-61z" />
    <glyph glyph-name="uni2215" unicode="&#x2215;" horiz-adv-x="92" 
d="M151 634h45l-256 -634h-45z" />
    <glyph glyph-name="uni2219" unicode="&#x2219;" horiz-adv-x="199" 
d="M154 239q0 -28 -14.5 -43.5t-39.5 -15.5q-24 0 -39.5 16t-15.5 40q0 25 15 41t39 16q25 0 39.5 -15t15.5 -39z" />
    <glyph glyph-name="radical" unicode="&#x221a;" horiz-adv-x="599" 
d="M172 224l119 -290l190 710h62l-227 -799h-60l-129 298l-53 -27l-21 47z" />
    <glyph glyph-name="infinity" unicode="&#x221e;" horiz-adv-x="595" 
d="M299 335q37 52 67.5 72.5t67.5 20.5q55 0 89 -36.5t34 -98.5q0 -59 -35.5 -100t-92.5 -41q-35 0 -66 21t-66 72q-36 -48 -66 -70t-69 -22q-57 0 -89.5 39t-32.5 96q0 61 35.5 101t91.5 40q40 0 68.5 -21.5t63.5 -72.5zM266 291q-30 47 -52.5 66.5t-49.5 19.5
q-35 0 -53.5 -23.5t-18.5 -60.5q0 -39 17.5 -64t51.5 -25q30 0 53 20.5t52 66.5zM328 292q33 -49 55.5 -69t48.5 -20q34 0 53 25t19 63q0 37 -17.5 61t-50.5 24q-52 0 -108 -84z" />
    <glyph glyph-name="integral" unicode="&#x222b;" horiz-adv-x="286" 
d="M259 599q-20 10 -42 10q-44 0 -44 -62q0 -28 7 -286.5t7 -297.5q0 -125 -104 -125q-41 0 -69 14l16 41q29 -13 48 -13q43 0 43 76q0 36 -8 282t-8 283q0 59 25.5 95t79.5 36q38 0 65 -12z" />
    <glyph glyph-name="approxequal" unicode="&#x2248;" horiz-adv-x="556" 
d="M98 314l-43 39q61 88 132 88q22 0 43 -7.5t63 -35.5q47 -30 75 -30q47 0 93 67l40 -38q-63 -90 -133 -90q-37 0 -90 33q-63 39 -90 39q-51 0 -90 -65zM98 153l-43 39q60 89 132 89q22 0 43 -7.5t63 -35.5q49 -31 75 -31q47 0 93 67l40 -37q-63 -90 -133 -90q-39 0 -90 33
q-63 39 -90 39q-51 0 -90 -66z" />
    <glyph glyph-name="notequal" unicode="&#x2260;" horiz-adv-x="551" 
d="M408 540l-60 -133h132v-60h-157l-46 -104h203v-60h-229l-62 -138h-50l63 138h-131v60h158l46 104h-204v60h230l60 133h47z" />
    <glyph glyph-name="lessequal" unicode="&#x2264;" horiz-adv-x="556" 
d="M452 118l-354 184v62l354 187v-69l-297 -149l297 -146v-69zM453 1h-354v59h354v-59z" />
    <glyph glyph-name="greaterequal" unicode="&#x2265;" horiz-adv-x="556" 
d="M106 550l354 -183v-63l-354 -188v68l296 151l-296 145v70zM460 -1h-354v59h354v-59z" />
    <glyph glyph-name="lozenge" unicode="&#x25ca;" horiz-adv-x="556" 
d="M307 0h-57l-134 294l136 295h57l130 -294zM377 294l-96 231l-103 -230l100 -231z" />
    <glyph glyph-name="s_t" unicode="&#xfb06;" horiz-adv-x="645" 
d="M640 20q-53 -28 -107 -28q-92 0 -92 120q0 150 2 248q-55 2 -77 6v31q9 3 28.5 8.5t27.5 8.5q21 7 29 31q9 30 9 78q0 63 -30.5 88t-75.5 25q-47 0 -77.5 -29.5t-30.5 -78.5q0 -62 41 -102q25 -8 28 -33q5 -33 5 -86l-33 -2q-7 36 -22 59q-15 28 -71 28q-38 0 -56 -18.5
t-18 -42.5q0 -16 2.5 -26t17.5 -23.5t45 -26.5l60 -26q53 -23 69 -50t16 -66q0 -56 -42.5 -91.5t-123.5 -35.5q-55 0 -94 17q-22 10 -27 39q-6 37 -6 93l35 2q13 -59 29 -80q21 -25 82 -25q40 0 61.5 16.5t21.5 44.5q0 41 -64 69l-68 31q-79 36 -79 117q0 54 41.5 90
t114.5 36q16 0 28 -2q-40 36 -40 100q0 78 50 118.5t114 40.5q69 0 110.5 -42t41.5 -135q0 -28 -3 -103q63 0 119 -4v-43q-49 -6 -119 -6q-1 -46 -1 -187q0 -63 3 -82q7 -45 51 -45q28 0 64 10z" />
    <glyph glyph-name="Dotlessi" horiz-adv-x="307" 
d="M278 -1q-82 2 -123 2t-125 -2v36q67 5 77 16q7 7 7 60v423q0 47 -7 57q-8 11 -77 17v36q84 -2 125 -2t123 2v-36q-70 -7 -80 -18q-6 -8 -6 -55v-425q0 -50 7 -58q9 -12 79 -17v-36z" />
    <glyph glyph-name="Euro.denominator" horiz-adv-x="401" 
d="M298 144h-141q19 -109 106 -109q49 0 105 36l17 -26q-69 -53 -135 -53q-63 0 -103 41t-50 111h-49v31h48q0 32 1 45h-49v32h54q16 68 61.5 107.5t114.5 39.5q50 0 77 -15q18 -8 18 -22q0 -11 -15 -39q-40 37 -100 37q-79 0 -100 -108h140v-32h-143q-1 -7 -1 -45h144v-31z
" />
    <glyph glyph-name="Euro.inferior" horiz-adv-x="401" 
d="M298 1h-141q19 -109 106 -109q49 0 105 36l17 -26q-69 -53 -135 -53q-63 0 -103 41t-50 111h-49v31h48q0 32 1 45h-49v32h54q16 68 61.5 107.5t114.5 39.5q50 0 77 -15q18 -8 18 -22q0 -11 -15 -39q-40 37 -100 37q-79 0 -100 -108h140v-32h-143q-1 -7 -1 -45h144v-31z
" />
    <glyph glyph-name="Euro.numerator" horiz-adv-x="395" 
d="M298 385h-141q19 -109 106 -109q49 0 105 36l17 -26q-69 -53 -135 -53q-63 0 -103 41t-50 111h-49v31h48q0 32 1 45h-49v32h54q16 68 61.5 107.5t114.5 39.5q50 0 77 -15q18 -8 18 -22q0 -11 -15 -39q-40 37 -100 37q-79 0 -100 -108h140v-32h-143q-1 -7 -1 -45h144v-31z
" />
    <glyph glyph-name="Euro.oldstyle" horiz-adv-x="602" 
d="M565 62q-54 -40 -97 -57t-94 -17q-91 0 -148.5 58.5t-69.5 157.5h-68v43h65q0 39 3 66h-68v44h74q20 99 84.5 157t163.5 58q74 0 115 -23q25 -13 25 -31q0 -22 -25 -55q-50 55 -146 55q-57 0 -93.5 -41.5t-47.5 -119.5h201v-44h-206q0 -4 -0.5 -24.5t-0.5 -41.5h207v-43
h-203q12 -79 52 -119.5t102 -40.5q71 0 154 53z" />
    <glyph glyph-name="Euro.superior" horiz-adv-x="401" 
d="M298 544h-141q19 -109 106 -109q49 0 105 36l17 -26q-69 -53 -135 -53q-63 0 -103 41t-50 111h-49v31h48q0 32 1 45h-49v32h54q16 68 61.5 107.5t114.5 39.5q50 0 77 -15q18 -8 18 -22q0 -11 -15 -39q-40 37 -100 37q-79 0 -100 -108h140v-32h-143q-1 -7 -1 -45h144v-31z
" />
    <glyph glyph-name="Kgreenlandic" horiz-adv-x="599" 
d="M576 -25q-79 23 -133 72q-101 89 -236 282q94 93 172 191q40 49 40 65q0 19 -68 23v36q41 -2 128 -2q61 0 102 2v-36q-39 -5 -53 -14q-24 -17 -52 -48q-22 -24 -183 -196q99 -138 165 -213t136 -131zM277 -1q-82 2 -122 2q-41 0 -125 -2v36q67 5 77 16q7 7 7 60v423
q0 47 -7 57t-77 17v36q84 -2 125 -2q40 0 122 2v-36q-71 -7 -79 -18q-6 -8 -6 -55v-425q0 -50 7 -58q9 -12 78 -17v-36z" />
    <glyph glyph-name="S_S" horiz-adv-x="953" 
d="M557 178q18 -83 36 -105q36 -40 113 -40q56 0 90.5 29.5t34.5 70.5q0 43 -21 72t-91 69l-53 30q-75 43 -101.5 84.5t-26.5 98.5q0 79 59 124.5t150 46.5q71 0 112 -16q21 -7 25 -36q6 -47 6 -125l-35 -2q-14 70 -28 94q-22 37 -99 37q-54 0 -87.5 -27.5t-33.5 -74.5
q0 -39 20 -65.5t75 -59.5l55 -33q86 -53 116 -90.5t30 -95.5q0 -79 -57 -129t-151 -50q-76 0 -135 24q-17 7 -24.5 17.5t-9.5 33.5q-4 33 -7 115zM80 178q18 -83 36 -105q36 -40 113 -40q56 0 90.5 29.5t34.5 70.5q0 43 -21 72t-91 69l-53 30q-75 43 -101.5 84.5t-26.5 98.5
q0 79 59 124.5t150 46.5q71 0 112 -16q21 -7 25 -36q6 -47 6 -125l-35 -2q-14 70 -28 94q-22 37 -99 37q-54 0 -87.5 -27.5t-33.5 -74.5q0 -39 20 -65.5t75 -59.5l55 -33q86 -53 116 -90.5t30 -95.5q0 -79 -57 -129t-151 -50q-76 0 -135 24q-17 7 -24.5 17.5t-9.5 33.5
q-4 33 -7 115z" />
    <glyph glyph-name="a.sc" horiz-adv-x="479" 
d="M202 -1q-70 2 -100 2q-34 0 -98 -2v35q39 3 50 14q12 12 35 73l132 338h51l121 -341q20 -59 33 -72q9 -9 48 -12v-35q-64 2 -98 2q-70 0 -110 -2v35q40 3 53 9t13 18q0 17 -15 60l-13 36h-147l-13 -36q-15 -42 -15 -61q0 -22 73 -26v-35zM171 203h118q-53 150 -58 167
q-19 -57 -60 -167z" />
    <glyph glyph-name="aacute.sc" horiz-adv-x="479" 
d="M202 -1q-70 2 -100 2q-34 0 -98 -2v35q39 3 50 14q12 12 35 73l132 338h51l121 -341q20 -59 33 -72q9 -9 48 -12v-35q-64 2 -98 2q-70 0 -110 -2v35q40 3 53 9t13 18q0 17 -15 60l-13 36h-147l-13 -36q-15 -42 -15 -61q0 -22 73 -26v-35zM171 203h118q-53 150 -58 167
q-19 -57 -60 -167zM219 525l-26 21l80 135q23 39 47 39q14 0 24.5 -10t10.5 -25q0 -21 -27 -49z" />
    <glyph glyph-name="abreve.sc" horiz-adv-x="479" 
d="M202 -1q-70 2 -100 2q-34 0 -98 -2v35q39 3 50 14q12 12 35 73l132 338h51l121 -341q20 -59 33 -72q9 -9 48 -12v-35q-64 2 -98 2q-70 0 -110 -2v35q40 3 53 9t13 18q0 17 -15 60l-13 36h-147l-13 -36q-15 -42 -15 -61q0 -22 73 -26v-35zM171 203h118q-53 150 -58 167
q-19 -57 -60 -167zM329 669l32 -2q-1 -68 -34.5 -106.5t-88.5 -38.5q-119 0 -120 144l32 3q11 -83 88 -83q76 0 91 83z" />
    <glyph glyph-name="acircumflex.sc" horiz-adv-x="479" 
d="M202 -1q-70 2 -100 2q-34 0 -98 -2v35q39 3 50 14q12 12 35 73l132 338h51l121 -341q20 -59 33 -72q9 -9 48 -12v-35q-64 2 -98 2q-70 0 -110 -2v35q40 3 53 9t13 18q0 17 -15 60l-13 36h-147l-13 -36q-15 -42 -15 -61q0 -22 73 -26v-35zM171 203h118q-53 150 -58 167
q-19 -57 -60 -167zM370 526l-25 -20l-103 103l-101 -103l-24 19l99 145q13 19 28 19q18 0 30 -19z" />
    <glyph glyph-name="acute.cap" horiz-adv-x="280" 
d="M68 681l-20 26l107 114q25 28 45 28q15 0 25 -10.5t10 -27.5q0 -22 -37 -46z" />
    <glyph glyph-name="acute.sc" horiz-adv-x="280" 
d="M85 525l-26 21l80 135q23 39 47 39q14 0 24.5 -10t10.5 -25q0 -21 -27 -49z" />
    <glyph glyph-name="adieresis.sc" horiz-adv-x="479" 
d="M202 -1q-70 2 -100 2q-34 0 -98 -2v35q39 3 50 14q12 12 35 73l132 338h51l121 -341q20 -59 33 -72q9 -9 48 -12v-35q-64 2 -98 2q-70 0 -110 -2v35q40 3 53 9t13 18q0 17 -15 60l-13 36h-147l-13 -36q-15 -42 -15 -61q0 -22 73 -26v-35zM171 203h118q-53 150 -58 167
q-19 -57 -60 -167zM166 565q-19 0 -32 13.5t-13 34.5q0 20 13 33t33 13t32 -13t12 -33q0 -21 -12.5 -34.5t-32.5 -13.5zM315 565q-19 0 -32 13.5t-13 34.5q0 20 13 33t33 13q19 0 31.5 -13t12.5 -33q0 -21 -12.5 -34.5t-32.5 -13.5z" />
    <glyph glyph-name="ae.sc" horiz-adv-x="674" 
d="M202 -1q-70 2 -106 2q-28 0 -94 -2v35q33 2 47 12q21 17 55 70l164 252q14 22 14 35q0 11 -16 14q-18 4 -54 6v35h365q25 0 31.5 -6.5t8.5 -27.5q3 -39 3 -84l-32 -2q-13 56 -22 65q-14 14 -94 14q-40 0 -56 -1v-159h6q53 0 72 3t27 11q9 7 15 45h30q0 -14 -0.5 -42
t-0.5 -37q0 -26 2 -82h-32q-4 40 -13 49q-8 8 -26 9.5t-75 1.5h-5v-132q0 -32 19 -36q27 -6 54 -6q79 0 99 22q12 13 33 67l31 -6q-12 -89 -18 -105q-6 -19 -49 -19h-310v34q58 5 66 18q7 13 7 49v69h-155l-33 -55q-29 -49 -29 -59q0 -12 18 -16q24 -5 53 -6v-35zM220 210
h128v192q0 8 -4 8t-7 -7q-36 -62 -117 -193z" />
    <glyph glyph-name="aeacute.sc" horiz-adv-x="674" 
d="M202 -1q-70 2 -106 2q-28 0 -94 -2v35q33 2 47 12q21 17 55 70l164 252q14 22 14 35q0 11 -16 14q-18 4 -54 6v35h365q25 0 31.5 -6.5t8.5 -27.5q3 -39 3 -84l-32 -2q-13 56 -22 65q-14 14 -94 14q-40 0 -56 -1v-159h6q53 0 72 3t27 11q9 7 15 45h30q0 -14 -0.5 -42
t-0.5 -37q0 -26 2 -82h-32q-4 40 -13 49q-8 8 -26 9.5t-75 1.5h-5v-132q0 -32 19 -36q27 -6 54 -6q79 0 99 22q12 13 33 67l31 -6q-12 -89 -18 -105q-6 -19 -49 -19h-310v34q58 5 66 18q7 13 7 49v69h-155l-33 -55q-29 -49 -29 -59q0 -12 18 -16q24 -5 53 -6v-35zM220 210
h128v192q0 8 -4 8t-7 -7q-36 -62 -117 -193zM395 525l-26 21l80 135q23 39 47 39q14 0 24.5 -10t10.5 -25q0 -21 -27 -49z" />
    <glyph glyph-name="agrave.sc" horiz-adv-x="479" 
d="M202 -1q-70 2 -100 2q-34 0 -98 -2v35q39 3 50 14q12 12 35 73l132 338h51l121 -341q20 -59 33 -72q9 -9 48 -12v-35q-64 2 -98 2q-70 0 -110 -2v35q40 3 53 9t13 18q0 17 -15 60l-13 36h-147l-13 -36q-15 -42 -15 -61q0 -22 73 -26v-35zM171 203h118q-53 150 -58 167
q-19 -57 -60 -167zM293 546l-27 -21l-107 111q-29 29 -29 46q0 15 12 26t26 11q13 0 21.5 -7t23.5 -31z" />
    <glyph glyph-name="amacron.sc" horiz-adv-x="479" 
d="M202 -1q-70 2 -100 2q-34 0 -98 -2v35q39 3 50 14q12 12 35 73l132 338h51l121 -341q20 -59 33 -72q9 -9 48 -12v-35q-64 2 -98 2q-70 0 -110 -2v35q40 3 53 9t13 18q0 17 -15 60l-13 36h-147l-13 -36q-15 -42 -15 -61q0 -22 73 -26v-35zM171 203h118q-53 150 -58 167
q-19 -57 -60 -167zM361 557h-238v60h238v-60z" />
    <glyph glyph-name="ampersand.sc" horiz-adv-x="515" 
d="M490 -11l-19 -33q-83 34 -134 75q-56 -44 -142 -44q-72 0 -116.5 37.5t-44.5 97.5q0 88 106 134q-34 50 -34 102q0 46 33 79.5t99 33.5q52 0 82.5 -26t30.5 -68q0 -45 -29 -74t-93 -53q38 -59 124 -144q20 24 32 63q4 11 4 21q0 15 -21 21q-14 4 -42 5v38q42 -2 92 -2
q45 0 91 2v-38q-40 -1 -51 -14q-8 -6 -22 -38q-22 -53 -51 -85q30 -33 105 -90zM206 283q52 23 69.5 42t17.5 50q0 23 -16 35.5t-40 12.5q-62 0 -62 -59q0 -35 31 -81zM164 221q-33 -20 -44.5 -41.5t-11.5 -52.5q0 -35 24.5 -62t72.5 -27q60 0 95 25q-83 81 -136 158z" />
    <glyph glyph-name="aogonek.sc" horiz-adv-x="479" 
d="M202 -1q-70 2 -100 2q-34 0 -98 -2v35q39 3 50 14q12 12 35 73l132 338h51l121 -341q20 -59 33 -72q9 -9 48 -12v-35q-50 2 -77 2q-82 -92 -82 -146q0 -55 52 -55q29 0 61 14l13 -30q-47 -37 -98 -37q-40 0 -63 26.5t-23 64.5q0 40 23.5 75.5t78.5 87.5q-27 0 -93 -2v35
q40 3 53 9t13 18q0 17 -15 60l-13 36h-147l-13 -36q-15 -42 -15 -61q0 -22 73 -26v-35zM171 203h118q-53 150 -58 167q-19 -57 -60 -167z" />
    <glyph glyph-name="aring.sc" horiz-adv-x="479" 
d="M202 -1q-70 2 -100 2q-34 0 -98 -2v35q39 3 50 14q12 12 35 73l132 338h51l121 -341q20 -59 33 -72q9 -9 48 -12v-35q-64 2 -98 2q-70 0 -110 -2v35q40 3 53 9t13 18q0 17 -15 60l-13 36h-147l-13 -36q-15 -42 -15 -61q0 -22 73 -26v-35zM171 203h118q-53 150 -58 167
q-19 -57 -60 -167zM326 608q0 -38 -25 -62.5t-61 -24.5t-59 23t-23 62q0 38 24.5 62.5t59.5 24.5q37 0 60.5 -23.5t23.5 -61.5zM288 608q0 25 -13 38t-34 13q-19 0 -32.5 -13.5t-13.5 -37.5t12.5 -38.5t33.5 -14.5t34 14t13 39z" />
    <glyph glyph-name="aringacute.sc" horiz-adv-x="479" 
d="M202 -1q-70 2 -100 2q-34 0 -98 -2v35q39 3 50 14q12 12 35 73l132 338h51l121 -341q20 -59 33 -72q9 -9 48 -12v-35q-64 2 -98 2q-70 0 -110 -2v35q40 3 53 9t13 18q0 17 -15 60l-13 36h-147l-13 -36q-15 -42 -15 -61q0 -22 73 -26v-35zM171 203h118q-42 119 -58 167
q-19 -57 -60 -167zM329 591q0 -37 -25 -61.5t-60 -24.5q-34 0 -58.5 23t-24.5 61t25 62.5t59 24.5q37 0 60.5 -23.5t23.5 -61.5zM291 591q0 26 -13.5 39t-33.5 13q-19 0 -32.5 -13.5t-13.5 -38.5q0 -24 13 -38.5t33 -14.5q21 0 34 14t13 39zM227 698l-27 21l73 124
q23 38 48 38q14 0 24 -9.5t10 -24.5q0 -23 -28 -50z" />
    <glyph glyph-name="atilde.sc" horiz-adv-x="479" 
d="M202 -1q-70 2 -100 2q-34 0 -98 -2v35q39 3 50 14q12 12 35 73l132 338h51l121 -341q20 -59 33 -72q9 -9 48 -12v-35q-64 2 -98 2q-70 0 -110 -2v35q40 3 53 9t13 18q0 17 -15 60l-13 36h-147l-13 -36q-15 -42 -15 -61q0 -22 73 -26v-35zM171 203h118q-53 150 -58 167
q-19 -57 -60 -167zM141 536l-29 12q12 42 33 70.5t49 28.5q16 0 50 -14l25 -11q28 -13 41 -13q22 0 44 48l29 -13q-27 -98 -74 -98q-18 0 -58 16l-22 10q-26 10 -41 10t-24 -9.5t-23 -36.5z" />
    <glyph glyph-name="b.sc" horiz-adv-x="463" 
d="M29 -1v35q48 3 62 11q7 3 10 11.5t3 35.5v274q0 34 -6 42q-12 12 -69 16v34h145q82 0 114 -4q109 -11 109 -103q0 -87 -99 -108q123 -13 123 -111q0 -75 -67 -110q-42 -23 -124 -23q-14 0 -44.5 1t-49.5 1q-53 0 -107 -2zM172 263h17q52 0 78 7q55 15 55 73q0 55 -53 67
q-25 6 -97 6v-153zM172 75q0 -25 21 -29q24 -4 45 -4q51 0 78.5 22.5t27.5 64.5q0 54 -40 72q-39 18 -117 18h-15v-144z" />
    <glyph glyph-name="braceleft.cap" horiz-adv-x="284" 
d="M272 -111q-94 0 -131 36t-37 121v110q0 68 -18 100t-69 37v32q54 6 69.5 35.5t15.5 112.5v88q0 86 35 129t135 43v-38q-63 0 -83.5 -26t-20.5 -108v-117q0 -68 -17.5 -95t-69.5 -39q50 -12 69 -38.5t19 -94.5v-124q0 -73 21 -100.5t82 -27.5v-36z" />
    <glyph glyph-name="braceright.cap" horiz-adv-x="284" 
d="M13 733q94 0 131 -37t37 -122v-111q0 -68 18 -99.5t70 -37.5v-31q-55 -6 -70.5 -35.5t-15.5 -111.5v-88q0 -86 -34.5 -128.5t-135.5 -42.5v35q64 0 84.5 26.5t20.5 108.5v118q0 67 17 93.5t69 39.5q-51 11 -69 38t-18 96v123q0 73 -21 100t-83 27v39z" />
    <glyph glyph-name="bracketleft.cap" horiz-adv-x="275" 
d="M263 -103h-171v822h171v-40h-105v-741h105v-41z" />
    <glyph glyph-name="bracketright.cap" horiz-adv-x="275" 
d="M12 719h171v-822h-171v41h106v741h-106v40z" />
    <glyph glyph-name="breve.cap" horiz-adv-x="277" 
d="M236 841l34 -2q-1 -67 -38.5 -106t-94.5 -39q-58 0 -93.5 35t-36.5 109l34 3q5 -41 30 -62.5t65 -21.5q83 0 100 84z" />
    <glyph glyph-name="breve.sc" horiz-adv-x="277" 
d="M228 669l32 -2q-1 -68 -34.5 -106.5t-88.5 -38.5q-119 0 -120 144l32 3q11 -83 88 -83q76 0 91 83z" />
    <glyph glyph-name="bullet.cap" horiz-adv-x="316" 
d="M275 304q0 -59 -31 -93.5t-83 -34.5t-87 36t-35 89t34 87.5t86 34.5q54 0 85 -33.5t31 -85.5z" />
    <glyph glyph-name="c.sc" horiz-adv-x="481" 
d="M447 130q-5 -52 -19 -99q-6 -18 -28 -27q-46 -17 -121 -17q-108 0 -173.5 61t-65.5 172q0 115 70.5 183t186.5 68q77 0 117 -17q15 -5 19 -23q5 -16 5 -107l-32 -3q-19 68 -21 71q-7 14 -21 21q-21 12 -74 12q-80 0 -124.5 -50t-44.5 -148q0 -93 42.5 -142.5t122.5 -49.5
q42 0 66 10q15 6 27 20q11 15 35 71z" />
    <glyph glyph-name="c_t" horiz-adv-x="656" 
d="M388 55q-79 -69 -162 -69t-134.5 58t-51.5 153q0 86 44.5 148.5t114.5 81.5q32 9 56 9q-40 40 -40 100q0 78 48.5 117.5t112.5 39.5q67 0 109 -42t42 -133q0 -55 -3 -105q63 0 120 -4v-43q-51 -6 -119 -6q-2 -92 -2 -187q0 -53 4 -78q6 -49 50 -49q31 0 65 9l10 -35
q-52 -28 -107 -28q-91 0 -91 120q0 153 2 248q-44 0 -74 6v31q42 12 54 17q19 6 26 28q10 39 10 81q0 63 -30.5 88t-74.5 25q-48 0 -76.5 -28t-28.5 -76q0 -70 49 -103q22 -6 31 -12q15 -11 15 -25q0 -22 -26 -58q-43 41 -106 41q-50 0 -84.5 -40t-34.5 -120
q0 -76 41.5 -120.5t105.5 -44.5q49 0 116 38z" />
    <glyph glyph-name="cacute.sc" horiz-adv-x="481" 
d="M447 130q-5 -52 -19 -99q-6 -18 -28 -27q-46 -17 -121 -17q-108 0 -173.5 61t-65.5 172q0 115 70.5 183t186.5 68q77 0 117 -17q15 -5 19 -23q5 -16 5 -107l-32 -3q-19 68 -21 71q-7 14 -21 21q-21 12 -74 12q-80 0 -124.5 -50t-44.5 -148q0 -93 42.5 -142.5t122.5 -49.5
q42 0 66 10q15 6 27 20q11 15 35 71zM256 525l-26 21l80 135q23 39 47 39q14 0 24.5 -10t10.5 -25q0 -21 -27 -49z" />
    <glyph glyph-name="caron.alt" horiz-adv-x="288" 
d="M116 442l-27 24q51 51 51 90q0 24 -15 39q-14 14 -14 31t12 29t32 12q50 0 50 -61q0 -82 -89 -164z" />
    <glyph glyph-name="caron.cap" horiz-adv-x="277" 
d="M2 827l22 22l115 -87l113 87l23 -21l-108 -129q-15 -18 -30 -18t-29 18z" />
    <glyph glyph-name="caron.sc" horiz-adv-x="277" 
d="M12 675l24 21l103 -104l101 104l25 -20l-98 -145q-13 -17 -30 -17q-18 0 -29 17z" />
    <glyph glyph-name="ccaron.sc" horiz-adv-x="481" 
d="M447 130q-5 -52 -19 -99q-6 -18 -28 -27q-46 -17 -121 -17q-108 0 -173.5 61t-65.5 172q0 115 70.5 183t186.5 68q77 0 117 -17q15 -5 19 -23q5 -16 5 -107l-32 -3q-19 68 -21 71q-7 14 -21 21q-21 12 -74 12q-80 0 -124.5 -50t-44.5 -148q0 -93 42.5 -142.5t122.5 -49.5
q42 0 66 10q15 6 27 20q11 15 35 71zM141 675l24 21l103 -104l101 104l25 -20l-98 -145q-13 -17 -30 -17q-18 0 -29 17z" />
    <glyph glyph-name="ccedilla.sc" horiz-adv-x="481" 
d="M194 -260l-9 35q98 29 98 73q0 16 -10 27t-34 24q-18 11 -18 28q0 21 17 63q-91 11 -144.5 70.5t-53.5 159.5q0 115 70.5 183t186.5 68q77 0 117 -17q15 -5 19 -23q5 -16 5 -107l-32 -3q-19 68 -21 71q-7 14 -21 21q-21 12 -74 12q-80 0 -124.5 -50t-44.5 -148
q0 -93 42.5 -142.5t122.5 -49.5q42 0 66 10q15 6 27 20q11 15 35 71l33 -6q-5 -52 -19 -99q-6 -18 -28 -27q-46 -17 -121 -17h-5q-7 -23 -7 -30q0 -15 15 -22q34 -16 48.5 -33.5t14.5 -43.5q0 -87 -151 -118z" />
    <glyph glyph-name="ccircumflex.sc" horiz-adv-x="481" 
d="M447 130q-5 -52 -19 -99q-6 -18 -28 -27q-46 -17 -121 -17q-108 0 -173.5 61t-65.5 172q0 115 70.5 183t186.5 68q77 0 117 -17q15 -5 19 -23q5 -16 5 -107l-32 -3q-19 68 -21 71q-7 14 -21 21q-21 12 -74 12q-80 0 -124.5 -50t-44.5 -148q0 -93 42.5 -142.5t122.5 -49.5
q42 0 66 10q15 6 27 20q11 15 35 71zM399 526l-25 -20l-103 103l-101 -103l-24 19l99 145q13 19 28 19q18 0 30 -19z" />
    <glyph glyph-name="cdotaccent.sc" horiz-adv-x="481" 
d="M447 130q-5 -52 -19 -99q-6 -18 -28 -27q-46 -17 -121 -17q-108 0 -173.5 61t-65.5 172q0 115 70.5 183t186.5 68q77 0 117 -17q15 -5 19 -23q5 -16 5 -107l-32 -3q-19 68 -21 71q-7 14 -21 21q-21 12 -74 12q-80 0 -124.5 -50t-44.5 -148q0 -93 42.5 -142.5t122.5 -49.5
q42 0 66 10q15 6 27 20q11 15 35 71zM271 569q-19 0 -32 13.5t-13 34.5q0 20 12.5 33t33.5 13q19 0 31.5 -13t12.5 -33t-13 -34t-32 -14z" />
    <glyph glyph-name="cedilla.cap" horiz-adv-x="277" 
d="M66 -271l-9 37q101 30 101 76q0 17 -9.5 27t-35.5 25q-20 12 -20 30q0 20 24 81h38q-15 -37 -15 -50q0 -14 18 -24q35 -17 48.5 -34.5t13.5 -44.5q0 -48 -43 -78.5t-111 -44.5z" />
    <glyph glyph-name="cedilla.sc" horiz-adv-x="277" 
d="M68 -260l-9 35q98 29 98 73q0 16 -10 27t-34 24q-18 11 -18 28q0 22 23 78h37q-14 -40 -14 -48q0 -15 15 -22q34 -16 48.5 -33.5t14.5 -43.5q0 -87 -151 -118z" />
    <glyph glyph-name="cent.denominator" horiz-adv-x="296" 
d="M182 -68h-32v66q-49 3 -78 38.5t-29 90.5q0 53 29.5 91.5t77.5 48.5v65h32v-61h7q35 0 57 -12q11 -5 11 -15q0 -15 -17 -39q-23 19 -58 22v-187q33 3 76 22l11 -22q-39 -29 -87 -41v-67zM92 139q0 -77 58 -94v184q-58 -5 -58 -90z" />
    <glyph glyph-name="cent.inferior" horiz-adv-x="296" 
d="M182 -211h-32v66q-49 3 -78 38.5t-29 90.5q0 53 29.5 91.5t77.5 48.5v65h32v-61h7q35 0 57 -12q11 -6 11 -15q0 -15 -17 -39q-23 19 -58 22v-187q33 3 76 22l11 -22q-39 -29 -87 -41v-67zM92 -4q0 -77 58 -94v184q-58 -5 -58 -90z" />
    <glyph glyph-name="cent.numerator" horiz-adv-x="292" 
d="M182 172h-32v66q-49 3 -78 38.5t-29 90.5q0 53 29.5 91.5t77.5 48.5v65h32v-61h7q35 0 57 -12q11 -5 11 -15q0 -15 -17 -39q-23 19 -58 22v-187q33 3 76 22l11 -22q-39 -29 -87 -41v-67zM92 379q0 -77 58 -94v184q-58 -5 -58 -90z" />
    <glyph glyph-name="cent.oldstyle" horiz-adv-x="434" 
d="M264 -103h-40v100q-72 4 -115 58t-43 137q0 82 44 141.5t114 75.5v97h40v-92h12q49 0 87 -19q15 -9 15 -23q0 -23 -23 -56q-38 32 -91 35v-292q52 0 114 34l17 -35q-68 -52 -131 -60v-101zM130 211q0 -59 25 -97t69 -48v287q-94 -11 -94 -142z" />
    <glyph glyph-name="cent.superior" horiz-adv-x="296" 
d="M182 332h-32v66q-49 3 -78 38.5t-29 90.5q0 53 29.5 91.5t77.5 48.5v65h32v-61h7q35 0 57 -12q11 -5 11 -15q0 -15 -17 -39q-23 19 -58 22v-187q33 3 76 22l11 -22q-39 -29 -87 -41v-67zM92 539q0 -77 58 -94v184q-58 -5 -58 -90z" />
    <glyph glyph-name="circumflex.cap" horiz-adv-x="277" 
d="M275 700l-23 -20l-115 87l-113 -87l-22 19l108 128q17 20 29 20q16 0 30 -18z" />
    <glyph glyph-name="circumflex.sc" horiz-adv-x="277" 
d="M265 526l-25 -20l-103 103l-101 -103l-24 19l99 145q13 19 28 19q18 0 30 -19z" />
    <glyph glyph-name="comma.denominator" horiz-adv-x="133" 
d="M36 -112l-18 20q37 40 37 68q0 15 -13 29q-9 9 -9 23q0 12 9.5 22.5t24.5 10.5q38 0 38 -47q0 -60 -69 -126z" />
    <glyph glyph-name="comma.inferior" horiz-adv-x="133" 
d="M36 -255l-18 20q37 40 37 68q0 15 -13 29q-9 9 -9 23q0 12 9.5 22.5t24.5 10.5q38 0 38 -47q0 -60 -69 -126z" />
    <glyph glyph-name="comma.numerator" horiz-adv-x="131" 
d="M36 129l-18 20q37 40 37 68q0 15 -13 29q-9 9 -9 23q0 12 9.5 22.5t24.5 10.5q40 0 40 -47q0 -58 -71 -126z" />
    <glyph glyph-name="comma.superior" horiz-adv-x="133" 
d="M36 288l-18 20q37 40 37 68q0 15 -13 29q-9 9 -9 23q0 12 9.5 22.5t24.5 10.5q38 0 38 -47q0 -60 -69 -126z" />
    <glyph glyph-name="commaaccent" horiz-adv-x="288" 
d="M116 -279l-27 24q51 51 51 90q0 23 -16 39q-13 13 -13 31q0 17 12 29t32 12q50 0 50 -61q0 -82 -89 -164z" />
    <glyph glyph-name="commaaccent.sc" horiz-adv-x="288" 
d="M116 -280l-27 24q51 51 51 90q0 24 -15 39q-14 14 -14 31t12 29t32 12q50 0 50 -61q0 -82 -89 -164z" />
    <glyph glyph-name="d.sc" horiz-adv-x="529" 
d="M29 -1v35q57 6 68 17q7 8 7 54v256q0 40 -7 48q-9 10 -68 15v34h118q103 0 154 -8t87 -28q100 -53 100 -184q0 -239 -249 -239q-7 0 -50.5 1t-54.5 1q-43 0 -105 -2zM172 78q0 -26 23 -30q21 -5 58 -5q157 0 157 188q0 61 -23 103t-63 60q-56 24 -152 24v-340z" />
    <glyph glyph-name="dcaron.sc" horiz-adv-x="529" 
d="M29 -1v35q57 6 68 17q7 8 7 54v256q0 40 -7 48q-9 10 -68 15v34h118q103 0 154 -8t87 -28q100 -53 100 -184q0 -239 -249 -239q-7 0 -50.5 1t-54.5 1q-43 0 -105 -2zM172 78q0 -26 23 -30q21 -5 58 -5q157 0 157 188q0 61 -23 103t-63 60q-56 24 -152 24v-340zM118 675
l24 21l103 -104l101 104l25 -20l-98 -145q-13 -17 -30 -17q-18 0 -29 17z" />
    <glyph glyph-name="dcroat.sc" horiz-adv-x="529" 
d="M28 219v43h76v99q0 40 -7 48q-9 9 -68 13v36h118q103 0 154 -8t87 -28q100 -53 100 -184q0 -239 -249 -239q-7 0 -50.5 1t-54.5 1q-43 0 -105 -2v35q57 6 68 17q7 8 7 54v114h-76zM172 78q0 -26 23 -30q21 -5 58 -5q157 0 157 188q0 124 -86 161q-53 24 -152 24v-154h113
v-43h-113v-141z" />
    <glyph glyph-name="dieresis.cap" horiz-adv-x="277" 
d="M58 704q-19 0 -32 13.5t-13 34.5q0 20 13 33t33 13t32 -13t12 -33q0 -21 -12.5 -34.5t-32.5 -13.5zM219 704q-19 0 -32 13.5t-13 34.5q0 20 13 33t33 13q19 0 31.5 -13t12.5 -33q0 -21 -12.5 -34.5t-32.5 -13.5z" />
    <glyph glyph-name="dieresis.sc" horiz-adv-x="277" 
d="M64 565q-19 0 -32 13.5t-13 34.5q0 20 13 33t33 13t32 -13t12 -33q0 -21 -12.5 -34.5t-32.5 -13.5zM213 565q-19 0 -32 13.5t-13 34.5q0 20 13 33t33 13q19 0 31.5 -13t12.5 -33q0 -21 -12.5 -34.5t-32.5 -13.5z" />
    <glyph glyph-name="dollar.denominator" horiz-adv-x="329" 
d="M182 -70h-32v65q-74 0 -109 33q-10 6 -10 19q0 19 23 42q30 -52 96 -56v134l-19 10q-49 25 -67 50t-18 62q0 41 28 67t76 34v68h32v-65q56 0 86 -20q10 -6 10 -17q0 -18 -21 -41q-10 15 -30.5 26.5t-44.5 12.5v-136l13 -7q53 -27 72.5 -50t19.5 -59q0 -39 -28.5 -68
t-76.5 -36v-68zM97 301q0 -22 11.5 -36.5t41.5 -31.5v120q-53 -9 -53 -52zM237 84q0 21 -11 35t-44 31v-116q25 4 40 18t15 32z" />
    <glyph glyph-name="dollar.inferior" horiz-adv-x="329" 
d="M182 -213h-32v65q-74 0 -109 33q-10 6 -10 19q0 19 23 42q30 -52 96 -56v134l-19 10q-49 25 -67 50t-18 62q0 41 28 67t76 34v68h32v-65q56 0 86 -20q10 -6 10 -17q0 -19 -21 -41q-10 15 -30.5 26.5t-44.5 12.5v-136l13 -7q53 -27 72.5 -50t19.5 -59q0 -39 -28.5 -68
t-76.5 -36v-68zM97 158q0 -22 11.5 -36.5t41.5 -31.5v120q-53 -9 -53 -52zM237 -59q0 21 -11 35t-44 31v-116q25 4 40 18t15 32z" />
    <glyph glyph-name="dollar.numerator" horiz-adv-x="324" 
d="M182 171h-32v65q-67 0 -109 31q-10 8 -10 21q0 19 23 42q30 -52 96 -56v134l-19 10q-49 25 -67 50t-18 62q0 41 28 67t76 34v68h32v-65q56 0 86 -20q10 -6 10 -17q0 -19 -21 -41q-10 15 -30.5 26.5t-44.5 12.5v-136l13 -7q53 -27 72.5 -50t19.5 -59q0 -39 -28.5 -68
t-76.5 -36v-68zM97 542q0 -22 11.5 -36.5t41.5 -31.5v120q-53 -9 -53 -52zM237 325q0 21 -11 35t-44 31v-116q25 4 40 18t15 32z" />
    <glyph glyph-name="dollar.oldstyle" horiz-adv-x="475" 
d="M259 -103h-41v97q-108 0 -158 44q-15 13 -15 30q0 27 30 60q13 -29 52 -54.5t91 -28.5v199l-29 15q-67 35 -92.5 71.5t-25.5 84.5q0 58 40.5 96.5t106.5 49.5v93h41v-90q83 -1 124 -26q16 -11 16 -27q0 -23 -28 -58q-15 19 -47.5 36t-64.5 19v-194l18 -9q80 -41 107 -74
t27 -85q0 -57 -42 -98.5t-110 -50.5v-100zM137 433q0 -32 16.5 -52.5t64.5 -45.5v172q-81 -9 -81 -74zM344 119q0 31 -15.5 52t-69.5 51v-176q39 5 62 25t23 48z" />
    <glyph glyph-name="dollar.superior" horiz-adv-x="329" 
d="M182 330h-32v65q-74 0 -109 33q-10 6 -10 19q0 19 23 42q30 -52 96 -56v134l-19 10q-49 25 -67 50t-18 62q0 41 28 67t76 34v68h32v-65q56 0 86 -20q10 -6 10 -17q0 -18 -21 -41q-10 15 -30.5 26.5t-44.5 12.5v-136l13 -7q53 -27 72.5 -50t19.5 -59q0 -39 -28.5 -68
t-76.5 -36v-68zM97 701q0 -22 11.5 -36.5t41.5 -31.5v120q-53 -9 -53 -52zM237 484q0 21 -11 35t-44 31v-116q25 4 40 18t15 32z" />
    <glyph glyph-name="dotaccent.cap" horiz-adv-x="277" 
d="M138 705q-18 0 -31 13t-13 33t13 33t32 13t31.5 -13t12.5 -33t-12.5 -33t-32.5 -13z" />
    <glyph glyph-name="dotaccent.sc" horiz-adv-x="277" 
d="M139 569q-19 0 -32 13.5t-13 34.5q0 20 12.5 33t33.5 13q19 0 31.5 -13t12.5 -33t-13 -34t-32 -14z" />
    </font>
</defs>
</svg>
