<svg xmlns="http://www.w3.org/2000/svg" viewBox="0 0 906.64 139.48">
    <path d="M35.88,4.42h35.5l34.66,119.78h-28.43l-5.89-23.72H35.55l-6.22,23.72H1.4L35.88,4.42Zm31.8,75.54l-13.63-52.15h-.34l-14.13,52.15h28.09Z" fill="#000f66" stroke="aqua" stroke-miterlimit="10" stroke-width="2.1"/>
    <path d="M123.37,122.51c-6.84-3.36-12.17-8.13-15.98-14.3-3.81-6.17-5.78-13.34-5.89-21.53l26.24-4.21c0,7.07,1.96,12.73,5.89,16.99,3.92,4.26,8.92,6.39,14.97,6.39,4.82,0,8.72-1.29,11.69-3.87,2.97-2.58,4.46-5.89,4.46-9.92,0-3.37-1.15-6.2-3.45-8.5-2.3-2.3-6.03-4.34-11.19-6.14l-14.64-4.71c-10.66-3.25-18.37-7.68-23.13-13.29-4.77-5.61-7.15-13.01-7.15-22.21,0-10.88,3.53-19.63,10.6-26.24,7.07-6.62,16.99-9.93,29.78-9.93,11.89,0,21.48,3.23,28.77,9.67,7.29,6.45,11.05,15.17,11.27,26.16l-25.57,4.88c.11-5.83-1.24-10.51-4.04-14.05-2.8-3.53-6.45-5.3-10.94-5.3-3.93,0-7.12,1.21-9.59,3.62-2.47,2.41-3.7,5.47-3.7,9.17s1.15,6.54,3.45,8.83c2.3,2.3,6.08,4.23,11.36,5.8l13.96,4.71c10.88,3.25,18.76,7.66,23.64,13.21s7.32,12.93,7.32,22.12c0,7.29-1.74,13.79-5.22,19.51-3.48,5.72-8.52,10.18-15.14,13.38-6.62,3.2-14.58,4.79-23.89,4.79s-17.05-1.68-23.89-5.05Z" fill="#000f66" stroke="aqua" stroke-miterlimit="10" stroke-width="2.1"/>
    <path d="M213.03,28.64h-28.26V4.42h84.96V28.64h-28.26V124.2h-28.43V28.64Z" fill="#000f66" stroke="aqua" stroke-miterlimit="10" stroke-width="2.1"/>
    <path d="M335.5,122.35c-3.59-3.25-5.95-7.63-7.07-13.12l-5.05-21.37c-.79-2.92-2.19-5.3-4.21-7.15s-4.26-2.78-6.73-2.78h-10.09v46.26h-28.26V4.42h46.1c8.86,0,16.6,1.54,23.22,4.63,6.62,3.09,11.72,7.46,15.31,13.12,3.59,5.66,5.38,12.31,5.38,19.94,0,7.18-2.08,13.6-6.22,19.26-4.15,5.67-9.76,9.51-16.82,11.52v.17c2.8,1.24,4.96,3,6.48,5.3,1.51,2.3,2.66,5.13,3.45,8.5l3.53,15.48c.67,3.7,2.19,5.55,4.54,5.55,2.13,0,4.15-1.29,6.06-3.87l6.73,13.63c-2.8,2.92-6.2,5.24-10.18,6.98-3.98,1.74-8.05,2.61-12.2,2.61-5.72,0-10.38-1.63-13.96-4.88Zm-16.82-64.26c5.05,0,9.14-1.46,12.28-4.37,3.14-2.92,4.71-6.78,4.71-11.61,0-5.16-1.54-9.17-4.63-12.03-3.09-2.86-7.21-4.29-12.37-4.29h-16.32V58.08h16.32Z" fill="#000f66" stroke="aqua" stroke-miterlimit="10" stroke-width="2.1"/>
    <path d="M396.23,119.74c-8.52-5.21-15.14-12.62-19.85-22.21-4.71-9.59-7.07-20.66-7.07-33.23s2.36-23.64,7.07-33.23c4.71-9.59,11.33-16.99,19.85-22.21,8.52-5.21,18.45-7.82,29.78-7.82s21.28,2.61,29.86,7.82c8.58,5.22,15.22,12.59,19.94,22.12,4.71,9.53,7.07,20.58,7.07,33.14s-2.36,23.8-7.07,33.39c-4.71,9.59-11.36,16.99-19.94,22.21s-18.53,7.82-29.86,7.82-21.26-2.61-29.78-7.82Zm50.47-27c5.16-7.07,7.74-16.54,7.74-28.43s-2.58-21.37-7.74-28.43c-5.16-7.07-12.06-10.6-20.69-10.6s-15.51,3.53-20.61,10.6c-5.1,7.07-7.65,16.54-7.65,28.43s2.55,21.37,7.65,28.43c5.1,7.07,11.97,10.6,20.61,10.6s15.53-3.53,20.69-10.6Z" fill="#000f66" stroke="aqua" stroke-miterlimit="10" stroke-width="2.1"/>
    <path d="M489.26,4.42h28.26V99.97h37.68v24.23h-65.95V4.42Z" fill="#000f66" stroke="aqua" stroke-miterlimit="10" stroke-width="2.1"/>
    <path d="M580.28,119.74c-8.52-5.21-15.14-12.62-19.85-22.21-4.71-9.59-7.07-20.66-7.07-33.23s2.36-23.64,7.07-33.23c4.71-9.59,11.33-16.99,19.85-22.21,8.52-5.21,18.45-7.82,29.78-7.82s21.28,2.61,29.86,7.82c8.58,5.22,15.22,12.59,19.94,22.12,4.71,9.53,7.07,20.58,7.07,33.14s-2.36,23.8-7.07,33.39c-4.71,9.59-11.36,16.99-19.94,22.21s-18.53,7.82-29.86,7.82-21.26-2.61-29.78-7.82Zm50.47-27c5.16-7.07,7.74-16.54,7.74-28.43s-2.58-21.37-7.74-28.43c-5.16-7.07-12.06-10.6-20.69-10.6s-15.51,3.53-20.61,10.6c-5.1,7.07-7.65,16.54-7.65,28.43s2.55,21.37,7.65,28.43c5.1,7.07,11.97,10.6,20.61,10.6s15.53-3.53,20.69-10.6Z" fill="#000f66" stroke="aqua" stroke-miterlimit="10" stroke-width="2.1"/>
    <path d="M693.75,119.65c-7.68-5.05-13.6-12.31-17.75-21.79-4.15-9.48-6.22-20.66-6.22-33.56s2.21-24.25,6.65-33.73c4.43-9.48,10.77-16.77,19.01-21.87,8.24-5.1,17.97-7.65,29.19-7.65s21.53,3.28,29.95,9.84c8.41,6.56,14.19,15.56,17.33,27l-26.58,5.72c-1.8-5.72-4.54-10.2-8.24-13.46-3.7-3.25-7.96-4.88-12.79-4.88-8.08,0-14.44,3.42-19.09,10.26-4.66,6.84-6.98,16.21-6.98,28.09s2.63,21.84,7.91,28.85c5.27,7.01,12.5,10.51,21.7,10.51,8.19,0,14.66-2.49,19.43-7.49,4.77-4.99,7.26-11.92,7.49-20.78h-37.18v-18.51h64.26V124.2h-20.86l-1.68-18.67h-.17c-3.93,6.73-9.31,12.03-16.15,15.9-6.84,3.87-14.19,5.8-22.04,5.8-10.43,0-19.49-2.52-27.17-7.57Z" fill="#000f66" stroke="aqua" stroke-miterlimit="10" stroke-width="2.1"/>
    <path d="M789.56,4.42h28.26V124.2h-28.26V4.42Z" fill="#000f66" stroke="aqua" stroke-miterlimit="10" stroke-width="2.1"/>
    <path d="M827.74,4.42h68.81V27.13h-41.55v25.57h34.82v20.19h-34.82v28.6h43.24v22.71h-70.49V4.42Z" fill="#000f66" stroke="aqua" stroke-miterlimit="10" stroke-width="2.1"/>
    <path d="M43.24,15.29h35.5l34.66,119.78h-28.43l-5.89-23.72H42.91l-6.22,23.72H8.76L43.24,15.29Zm31.8,75.54l-13.63-52.15h-.34l-14.13,52.15h28.09Z" fill="aqua" stroke="#000f66" stroke-miterlimit="10" stroke-width="2.1"/>
    <path d="M130.73,133.38c-6.84-3.36-12.17-8.13-15.98-14.3-3.81-6.17-5.78-13.34-5.89-21.53l26.24-4.21c0,7.07,1.96,12.73,5.89,16.99,3.92,4.26,8.92,6.39,14.97,6.39,4.82,0,8.72-1.29,11.69-3.87,2.97-2.58,4.46-5.89,4.46-9.92,0-3.37-1.15-6.2-3.45-8.5-2.3-2.3-6.03-4.34-11.19-6.14l-14.64-4.71c-10.66-3.25-18.37-7.68-23.13-13.29-4.77-5.61-7.15-13.01-7.15-22.21,0-10.88,3.53-19.63,10.6-26.24,7.07-6.62,16.99-9.93,29.78-9.93,11.89,0,21.48,3.23,28.77,9.67,7.29,6.45,11.05,15.17,11.27,26.16l-25.57,4.88c.11-5.83-1.24-10.51-4.04-14.05-2.8-3.53-6.45-5.3-10.94-5.3-3.93,0-7.12,1.21-9.59,3.62-2.47,2.41-3.7,5.47-3.7,9.17s1.15,6.54,3.45,8.83c2.3,2.3,6.08,4.23,11.36,5.8l13.96,4.71c10.88,3.25,18.76,7.66,23.64,13.21s7.32,12.93,7.32,22.12c0,7.29-1.74,13.79-5.22,19.51-3.48,5.72-8.52,10.18-15.14,13.38-6.62,3.2-14.58,4.79-23.89,4.79s-17.05-1.68-23.89-5.05Z" fill="aqua" stroke="#000f66" stroke-miterlimit="10" stroke-width="2.1"/>
    <path d="M220.39,39.51h-28.26V15.29h84.96v24.23h-28.26v95.56h-28.43V39.51Z" fill="aqua" stroke="#000f66" stroke-miterlimit="10" stroke-width="2.1"/>
    <path d="M342.86,133.22c-3.59-3.25-5.95-7.63-7.07-13.12l-5.05-21.37c-.79-2.92-2.19-5.3-4.21-7.15s-4.26-2.78-6.73-2.78h-10.09v46.26h-28.26V15.29h46.1c8.86,0,16.6,1.54,23.22,4.63,6.62,3.09,11.72,7.46,15.31,13.12,3.59,5.66,5.38,12.31,5.38,19.94,0,7.18-2.08,13.6-6.22,19.26-4.15,5.67-9.76,9.51-16.82,11.52v.17c2.8,1.24,4.96,3,6.48,5.3,1.51,2.3,2.66,5.13,3.45,8.5l3.53,15.48c.67,3.7,2.19,5.55,4.54,5.55,2.13,0,4.15-1.29,6.06-3.87l6.73,13.63c-2.8,2.92-6.2,5.24-10.18,6.98-3.98,1.74-8.05,2.61-12.2,2.61-5.72,0-10.38-1.63-13.96-4.88Zm-16.82-64.26c5.05,0,9.14-1.46,12.28-4.37,3.14-2.92,4.71-6.78,4.71-11.61,0-5.16-1.54-9.17-4.63-12.03-3.09-2.86-7.21-4.29-12.37-4.29h-16.32v32.3h16.32Z" fill="aqua" stroke="#000f66" stroke-miterlimit="10" stroke-width="2.1"/>
    <path d="M403.59,130.61c-8.52-5.21-15.14-12.62-19.85-22.21-4.71-9.59-7.07-20.66-7.07-33.23s2.36-23.64,7.07-33.23c4.71-9.59,11.33-16.99,19.85-22.21,8.52-5.21,18.45-7.82,29.78-7.82s21.28,2.61,29.86,7.82c8.58,5.22,15.22,12.59,19.94,22.12,4.71,9.53,7.07,20.58,7.07,33.14s-2.36,23.8-7.07,33.39c-4.71,9.59-11.36,16.99-19.94,22.21s-18.53,7.82-29.86,7.82-21.26-2.61-29.78-7.82Zm50.47-27c5.16-7.07,7.74-16.54,7.74-28.43s-2.58-21.37-7.74-28.43c-5.16-7.07-12.06-10.6-20.69-10.6s-15.51,3.53-20.61,10.6c-5.1,7.07-7.65,16.54-7.65,28.43s2.55,21.37,7.65,28.43c5.1,7.07,11.97,10.6,20.61,10.6s15.53-3.53,20.69-10.6Z" fill="aqua" stroke="#000f66" stroke-miterlimit="10" stroke-width="2.1"/>
    <path d="M496.62,15.29h28.26V110.84h37.68v24.23h-65.95V15.29Z" fill="aqua" stroke="#000f66" stroke-miterlimit="10" stroke-width="2.1"/>
    <path d="M587.64,130.61c-8.52-5.21-15.14-12.62-19.85-22.21-4.71-9.59-7.07-20.66-7.07-33.23s2.36-23.64,7.07-33.23c4.71-9.59,11.33-16.99,19.85-22.21,8.52-5.21,18.45-7.82,29.78-7.82s21.28,2.61,29.86,7.82c8.58,5.22,15.22,12.59,19.94,22.12,4.71,9.53,7.07,20.58,7.07,33.14s-2.36,23.8-7.07,33.39c-4.71,9.59-11.36,16.99-19.94,22.21s-18.53,7.82-29.86,7.82-21.26-2.61-29.78-7.82Zm50.47-27c5.16-7.07,7.74-16.54,7.74-28.43s-2.58-21.37-7.74-28.43c-5.16-7.07-12.06-10.6-20.69-10.6s-15.51,3.53-20.61,10.6c-5.1,7.07-7.65,16.54-7.65,28.43s2.55,21.37,7.65,28.43c5.1,7.07,11.97,10.6,20.61,10.6s15.53-3.53,20.69-10.6Z" fill="aqua" stroke="#000f66" stroke-miterlimit="10" stroke-width="2.1"/>
    <path d="M701.11,130.53c-7.68-5.05-13.6-12.31-17.75-21.79-4.15-9.48-6.22-20.66-6.22-33.56s2.21-24.25,6.65-33.73c4.43-9.48,10.77-16.77,19.01-21.87,8.24-5.1,17.97-7.65,29.19-7.65s21.53,3.28,29.95,9.84c8.41,6.56,14.19,15.56,17.33,27l-26.58,5.72c-1.8-5.72-4.54-10.2-8.24-13.46-3.7-3.25-7.96-4.88-12.79-4.88-8.08,0-14.44,3.42-19.09,10.26-4.66,6.84-6.98,16.21-6.98,28.09s2.63,21.84,7.91,28.85c5.27,7.01,12.5,10.51,21.7,10.51,8.19,0,14.66-2.49,19.43-7.49,4.77-4.99,7.26-11.92,7.49-20.78h-37.18v-18.51h64.26v67.97h-20.86l-1.68-18.67h-.17c-3.93,6.73-9.31,12.03-16.15,15.9-6.84,3.87-14.19,5.8-22.04,5.8-10.43,0-19.49-2.52-27.17-7.57Z" fill="aqua" stroke="#000f66" stroke-miterlimit="10" stroke-width="2.1"/>
    <path d="M796.92,15.29h28.26v119.78h-28.26V15.29Z" fill="aqua" stroke="#000f66" stroke-miterlimit="10" stroke-width="2.1"/>
    <path d="M835.1,15.29h68.81v22.71h-41.55v25.57h34.82v20.19h-34.82v28.6h43.24v22.71h-70.49V15.29Z" fill="aqua" stroke="#000f66" stroke-miterlimit="10" stroke-width="2.1"/>
</svg>