<?xml version="1.0" encoding="UTF-8"?><svg xmlns="http://www.w3.org/2000/svg" viewBox="0 0 1083.95 1920"><g id="a"/><g id="b"><g id="c"><path d="M1083.95,0h-103.4l-438.55,959.95L1083.95,109.31V0Zm0,295L542.02,959.96l541.93-498.87v-166.08Zm0,274.99l-541.92,389.98,541.92-279.64v-110.34Zm0,190.53l-541.92,199.46,541.92-110.89v-88.57Zm0,158.17l-541.92,41.31,541.92,41.31v-82.61Zm0,152.21l-541.92-110.89,541.92,199.46v-88.58Zm0,168.77l-541.92-279.64,541.92,389.98v-110.34Zm0,219.25l-541.93-498.87,541.93,664.95v-166.08Zm0,351.77L542,960.05l438.55,959.95h103.4v-109.31ZM854.8,0h-138.91l-173.9,959.94L854.8,0Zm0,1920l-312.81-959.94,173.9,959.94h138.91ZM606.75,0h-129.56l64.78,959.94L606.75,0Zm0,1920l-64.78-959.94-64.78,959.94h129.56Zm-64.79-960.06L368.06,0H229.15l312.81,959.94Zm0,.12L229.15,1920h138.91l173.9-959.94Zm-.01-.11L103.4,0H0V109.31L541.94,959.95Zm0,.11L0,1810.69v109.31H103.4l438.55-959.95Zm-.01-.1L0,295.01v166.08l541.93,498.87Zm0,.09L0,1458.91v166.08L541.93,960.04Zm-.01-.07L0,570v110.34l541.92,279.63Zm0,.02L0,760.52v88.57l541.92,110.89Zm0,.02L0,918.69v82.61l541.92-41.31Zm0,.02L0,1070.9v88.57l541.92-199.46Zm0,.02L0,1239.66v110.34l541.92-389.97Z" fill="#131414"/></g></g></svg>