<?xml version="1.0" standalone="no"?>
<!DOCTYPE svg PUBLIC "-//W3C//DTD SVG 1.1//EN" "http://www.w3.org/Graphics/SVG/1.1/DTD/svg11.dtd" >
<svg xmlns="http://www.w3.org/2000/svg" xmlns:xlink="http://www.w3.org/1999/xlink" version="1.1">
<metadata></metadata>
<defs>
<font id="monument_extendedblack" horiz-adv-x="1916" >
<font-face units-per-em="2048" ascent="1638" descent="-410" />
<missing-glyph horiz-adv-x="798" />
<glyph horiz-adv-x="0" />
<glyph horiz-adv-x="682" />
<glyph unicode=" "  horiz-adv-x="798" />
<glyph unicode="&#x09;" horiz-adv-x="798" />
<glyph unicode="&#xa0;" horiz-adv-x="798" />
<glyph unicode="!" horiz-adv-x="778" d="M123 1475h532l-20 -983h-492zM143 0v369h492v-369h-492z" />
<glyph unicode="&#x22;" horiz-adv-x="1433" d="M123 1597h532l-41 -778h-450zM778 1597h533l-41 -778h-451z" />
<glyph unicode="#" horiz-adv-x="2734" d="M164 61v349h432l121 409h-348v348h452l142 471h450l-141 -471h502l141 471h450l-141 -471h346v-348h-450l-121 -409h366v-349h-471l-110 -368h-451l111 368h-502l-111 -368h-450l111 368h-328zM1047 410h501l121 409h-502z" />
<glyph unicode="$" horiz-adv-x="2076" d="M123 485h532q0 -131 281 -153v229q-416 38 -604.5 152t-188.5 346q0 215 212 333t581 124v122h205v-129q356 -23 546.5 -149t204.5 -346h-532q0 55 -54 85.5t-165 41.5v-209q92 -8 157.5 -15t142 -18.5t129.5 -25t110.5 -33.5t96 -44.5t75 -58t57 -74.5t33 -93.5 t12.5 -114.5q0 -133 -54.5 -227.5t-162 -152t-253 -85t-343.5 -31.5v-164h-205v166q-193 9 -338 42.5t-250 96t-161.5 159t-63.5 226.5zM676 1057q0 -29 18 -46t75 -32t167 -27v195q-103 -2 -162.5 -15t-78.5 -30.5t-19 -44.5zM1141 330q116 3 179.5 18t82 34.5t18.5 51.5 q0 36 -19 54.5t-77.5 31.5t-183.5 25v-215z" />
<glyph unicode="%" horiz-adv-x="3110" d="M123 1014q0 96 37.5 184.5t108.5 160t184.5 114.5t253.5 43q113 0 209.5 -28t164.5 -76.5t116.5 -113t71.5 -136.5t23 -148q0 -96 -37.5 -185t-108 -161t-184.5 -115t-255 -43q-140 0 -253.5 43t-184.5 115t-108.5 161t-37.5 185zM492 1016q0 -91 51.5 -155t163.5 -64 q113 0 165 64t52 155q0 89 -52 151t-165 62q-112 0 -163.5 -62t-51.5 -151zM889 0l934 1475h397l-934 -1475h-397zM1819 463q0 96 37.5 184.5t108 160t184 114.5t253.5 43q141 0 255 -43t185 -114.5t108.5 -160t37.5 -184.5t-37.5 -185t-108.5 -161t-185 -115t-255 -43 q-140 0 -253.5 43t-184 115t-108 161t-37.5 185zM2187 465q0 -91 51.5 -155t163.5 -64q113 0 165 64t52 155q0 89 -52 151t-165 62q-112 0 -163.5 -62t-51.5 -151z" />
<glyph unicode="&#x26;" horiz-adv-x="2293" d="M123 354q0 65 20.5 119.5t55 95.5t87.5 76.5t110 61t130 49.5q-94 77 -143 158.5t-49 181.5q0 77 34 141t91 107.5t134 73.5t160.5 43.5t172.5 13.5q265 0 424 -97.5t159 -269.5q0 -69 -30 -125t-86.5 -97t-120.5 -70t-148 -54q5 -4 16.5 -11.5t16.5 -11.5l330 -239 q69 110 92 274h369q-20 -270 -193 -471l416 -303h-574l-122 88q-258 -129 -580 -129q-772 0 -772 395zM594 442q0 -92 90.5 -134t284.5 -42q116 0 219 25l-293 207q-36 26 -106 73t-74 50q-121 -78 -121 -179zM764 1059q0 -56 42 -99.5t120 -87.5q119 41 167 86.5t48 102.5 q0 64 -53 95.5t-130 31.5q-83 0 -138.5 -32.5t-55.5 -96.5z" />
<glyph unicode="'" horiz-adv-x="778" d="M123 1597h532l-41 -778h-450z" />
<glyph unicode="(" horiz-adv-x="1331" d="M123 614q0 166 26 303.5t74.5 242.5t121.5 186t162 136t201.5 90t234.5 50.5t265 15.5v-389q-155 0 -258 -29t-176.5 -101t-106 -195t-32.5 -310t33 -310.5t106.5 -195t176.5 -100t257 -28.5v-390q-203 0 -364 30.5t-298.5 104t-229 189.5t-142.5 292t-51 408z" />
<glyph unicode=")" horiz-adv-x="1331" d="M123 -20q154 0 257 28.5t176.5 100t106.5 195t33 310.5t-32.5 310t-106 195t-176.5 101t-258 29v389q143 0 265 -15.5t234.5 -50.5t201.5 -90t162 -136t121.5 -186t74.5 -242.5t26 -303.5q0 -232 -51 -408t-142.5 -292t-229 -189.5t-298.5 -104t-364 -30.5v390z" />
<glyph unicode="*" horiz-adv-x="1341" d="M123 1042l383 140l-383 139l123 233l329 -217l-49 342h287l-47 -342l330 219l123 -235l-385 -139l385 -140l-123 -233l-330 215l47 -342h-287l49 342l-329 -217z" />
<glyph unicode="+" horiz-adv-x="1884" d="M123 522v348h604v523h430v-523h604v-348h-604v-522h-430v522h-604z" />
<glyph unicode="," horiz-adv-x="737" d="M123 0v369h491v-369l-231 -451h-219l139 451h-180z" />
<glyph unicode="-" horiz-adv-x="1966" d="M164 522v348h1638v-348h-1638z" />
<glyph unicode="." horiz-adv-x="737" d="M123 0v369h491v-369h-491z" />
<glyph unicode="/" horiz-adv-x="1298" d="M143 -307l582 1945h451l-582 -1945h-451z" />
<glyph unicode="0" horiz-adv-x="1966" d="M102 739q0 171 58.5 313.5t168 245.5t277.5 160.5t377 57.5t376.5 -57.5t277.5 -161t168.5 -246t58.5 -312.5q0 -171 -58.5 -314t-168.5 -246.5t-277.5 -161.5t-376.5 -58t-377 57.5t-277.5 161t-168 246.5t-58.5 315zM614 739q0 -183 96.5 -276.5t272.5 -93.5t272.5 94 t96.5 276q0 181 -96 274t-273 93t-273 -92.5t-96 -274.5z" />
<glyph unicode="1" horiz-adv-x="1679" d="M123 0v389h461v670l-357 -103l-104 375l512 144h461v-1086h460v-389h-1433z" />
<glyph unicode="2" horiz-adv-x="1871" d="M123 0v225q0 122 60.5 217.5t157 155.5t213 106.5t233 81t213 68t157 78.5t60.5 102q0 65 -51 99t-175 34q-315 0 -315 -215h-533q12 119 63 215t130 160.5t186 107.5t227 62t257 19q346 0 544.5 -117t198.5 -336q0 -87 -31 -160t-84.5 -124.5t-123.5 -94t-149 -71.5 t-159 -53t-156 -43.5t-138 -38t-107.5 -41t-61.5 -48.5h990v-389h-1606z" />
<glyph unicode="3" horiz-adv-x="1892" d="M102 522h512q0 -100 85 -147t272 -47q161 0 226 35.5t65 109.5q0 55 -31.5 84.5t-114.5 43t-242 13.5v287q146 0 226.5 14.5t110.5 42.5t30 76q0 65 -64 99t-216 34q-182 0 -264.5 -50.5t-82.5 -164.5h-491q31 288 252 426t643 138q363 0 557 -114.5t194 -330.5 q0 -223 -221 -311q242 -93 242 -326q0 -229 -200.5 -352t-577.5 -123q-310 0 -503.5 61t-289.5 183t-117 319z" />
<glyph unicode="4" horiz-adv-x="1994" d="M123 184v369l991 922h512v-922h246v-369h-246v-184h-512v184h-991zM602 553h512v473z" />
<glyph unicode="5" horiz-adv-x="1830" d="M102 492h533q15 -78 89 -121t204 -43q268 0 268 194q0 89 -59.5 137t-173.5 48q-91 0 -159 -23.5t-147 -83.5l-469 90l117 785h1301v-369h-889l-25 -205q217 92 459 92q269 0 423.5 -127t154.5 -352q0 -258 -202 -406.5t-581 -148.5q-137 0 -257.5 19t-226.5 60.5 t-183 103t-124 151t-53 199.5z" />
<glyph unicode="6" horiz-adv-x="1863" d="M123 702q0 174 47.5 312t132 231.5t206 155t263 88.5t309.5 27q157 0 267 -8.5t270 -32.5v-369q-289 41 -488 41q-232 0 -339.5 -57.5t-128.5 -206.5q218 110 481 110q287 0 442.5 -125t155.5 -364q0 -272 -197 -408.5t-575 -136.5q-846 0 -846 743zM655 518 q0 -190 277 -190q276 0 276 190q0 189 -276 189q-147 0 -212 -48.5t-65 -140.5z" />
<glyph unicode="7" horiz-adv-x="1767" d="M123 1085v390h1522v-390q-381 -244 -543 -500t-162 -585h-512q0 122 19 233.5t65.5 229.5t120.5 222.5t190.5 208t268.5 191.5h-969z" />
<glyph unicode="8" horiz-adv-x="2007" d="M123 403q0 289 397 375q-274 94 -274 344q0 191 196 292.5t562 101.5q365 0 561 -102t196 -292q0 -250 -276 -344q399 -86 399 -375q0 -83 -25 -148t-86.5 -122t-160.5 -94.5t-252 -58.5t-356 -21q-204 0 -357 21t-252 58t-160.5 94t-86.5 122.5t-25 148.5zM676 440 q0 -76 79 -114.5t249 -38.5q327 0 327 153q0 77 -78 115.5t-249 38.5q-172 0 -250 -38t-78 -116zM737 1085q0 -63 60 -92.5t207 -29.5t206.5 29.5t59.5 92.5t-60 93t-206 30t-206.5 -30t-60.5 -93z" />
<glyph unicode="9" horiz-adv-x="1884" d="M143 971q0 272 197 408.5t575 136.5q846 0 846 -744q0 -174 -47.5 -312t-132 -231t-206 -154.5t-263 -88.5t-309.5 -27q-157 0 -267 8.5t-270 32.5v369q289 -41 488 -41q232 0 340 57.5t129 206.5q-220 -111 -482 -111q-287 0 -442.5 125.5t-155.5 364.5zM676 956 q0 -188 276 -188q147 0 212 48t65 140q0 191 -277 191q-276 0 -276 -191z" />
<glyph unicode=":" horiz-adv-x="737" d="M123 0v369h491v-369h-491zM123 614v369h491v-369h-491z" />
<glyph unicode=";" horiz-adv-x="737" d="M123 0v369h491v-369l-231 -451h-219l139 451h-180zM123 614v369h491v-369h-491z" />
<glyph unicode="&#x3c;" horiz-adv-x="1884" d="M123 389v615l1638 225v-395l-1261 -138l1261 -137v-395z" />
<glyph unicode="=" horiz-adv-x="1884" d="M123 195v348h1638v-348h-1638zM123 850v348h1638v-348h-1638z" />
<glyph unicode="&#x3e;" horiz-adv-x="1884" d="M123 164v395l1261 137l-1261 138v395l1638 -225v-615z" />
<glyph unicode="?" horiz-adv-x="1769" d="M123 932q6 121 46.5 217.5t110.5 164.5t169.5 113.5t220.5 67t266 21.5q711 0 711 -371q0 -80 -31 -143t-80.5 -102.5t-109 -73t-119 -64t-109 -65t-80.5 -86.5t-31 -119h-491q0 90 28.5 162t74.5 117t101 79.5t110 58.5t101 45.5t74.5 48.5t28.5 60q0 47 -47.5 75.5 t-151.5 28.5q-70 0 -123 -12t-94 -38.5t-62.5 -73t-21.5 -111.5h-491zM596 0v369h491v-369h-491z" />
<glyph unicode="@" horiz-adv-x="2820" d="M123 549q0 213 51.5 389.5t160.5 319t272.5 240t395 150t521.5 52.5q296 0 521 -71.5t367.5 -205.5t213.5 -318.5t71 -416.5q0 -359 -141 -531.5t-420 -172.5q-161 0 -270.5 64.5t-163.5 172.5q-121 -211 -404 -211q-130 0 -230.5 40.5t-162.5 113.5t-93.5 168.5 t-31.5 210.5t31.5 210.5t93.5 168t162.5 113t230.5 40.5q230 0 355 -141v113h327v-615q0 -41 1.5 -66.5t6.5 -57t16.5 -50.5t30 -36.5t48 -25.5t69.5 -8q47 0 82.5 22t57 59t34.5 94t18 119t5 143q0 217 -43.5 359t-145 229t-253.5 123t-383 36q-288 0 -488.5 -48 t-326 -151.5t-182 -255.5t-56.5 -368q0 -225 56 -380.5t182.5 -258.5t325.5 -150t489 -47q295 0 534 52.5t457 142.5l133 -270q-102 -49 -163.5 -75.5t-174 -65.5t-214.5 -59.5t-252 -36t-320 -15.5q-364 0 -631.5 76t-436.5 225.5t-251 363.5t-82 498zM1128 543 q0 -226 263 -226q262 0 262 226q0 225 -262 225q-263 0 -263 -225z" />
<glyph unicode="A" horiz-adv-x="2347" d="M102 0l707 1475h729l707 -1475h-545l-121 258h-811l-121 -258h-545zM940 627h467l-233 495z" />
<glyph unicode="B" horiz-adv-x="1961" d="M123 0v1475h1147q142 0 242.5 -26t157.5 -75.5t82.5 -113t25.5 -146.5q0 -128 -67.5 -213t-186.5 -129q336 -86 336 -364q0 -191 -122.5 -299.5t-385.5 -108.5h-1229zM635 369h553q24 0 36.5 0.5t32 3.5t29.5 9.5t21 18t15.5 30t4.5 44.5q0 38 -10 61t-33 32.5 t-41.5 11.5t-54.5 2h-553v-213zM635 893h471q36 0 53.5 1t42.5 6t36 16t19.5 31.5t8.5 51.5t-8.5 52t-20 31.5t-35.5 16t-42 6.5t-54 1h-471v-213z" />
<glyph unicode="C" horiz-adv-x="2000" d="M102 739q0 383 234.5 580t667.5 197q400 0 631 -162.5t263 -470.5h-544q-17 81 -106 141.5t-244 60.5q-189 0 -279 -95t-90 -251q0 -157 90.5 -253.5t278.5 -96.5q155 0 244 62t106 145h544q-32 -310 -262 -473.5t-632 -163.5q-433 0 -667.5 197.5t-234.5 582.5z" />
<glyph unicode="D" horiz-adv-x="1961" d="M123 0v1475h1065q133 0 251.5 -45t213.5 -132.5t151 -232t56 -328.5q0 -148 -37 -271t-100 -208t-149 -144t-183 -86.5t-203 -27.5h-1065zM635 430h348q64 0 98 2t88.5 18t83 46t51.5 91.5t23 149.5t-23 149.5t-51.5 91.5t-83 46t-88.5 18t-98 2h-348v-614z" />
<glyph unicode="E" horiz-adv-x="1761" d="M123 0v1475h1515v-390h-1003v-153h962v-389h-962v-154h1003v-389h-1515z" />
<glyph unicode="F" horiz-adv-x="1761" d="M123 0v1475h1515v-431h-1003v-215h881v-430h-881v-399h-512z" />
<glyph unicode="G" horiz-adv-x="2000" d="M102 739q0 190 69.5 339t194.5 244t292.5 144.5t369.5 49.5q250 0 444.5 -74.5t304.5 -206.5t121 -301h-544q-19 59 -97 105t-225 46q-202 0 -299.5 -98t-97.5 -268q0 -68 12.5 -121.5t44.5 -101.5t83.5 -79.5t132.5 -50t188 -18.5q205 0 393 78v88h-459v307h868v-657 q-211 -117 -407 -161t-426 -44q-215 0 -391 49.5t-304 145t-198 245t-70 340.5z" />
<glyph unicode="H" horiz-adv-x="2109" d="M123 0v1475h512v-523h840v523h512v-1475h-512v522h-840v-522h-512z" />
<glyph unicode="I" horiz-adv-x="757" d="M123 0v1475h512v-1475h-512z" />
<glyph unicode="J" horiz-adv-x="1966" d="M123 719h512q0 -330 348 -330t348 330v325h-534v431h1046v-756q0 -381 -206 -570.5t-654 -189.5q-438 0 -649 190.5t-211 569.5z" />
<glyph unicode="K" horiz-adv-x="2093" d="M123 0v1475h512v-555l602 555h754l-686 -592l686 -883h-623l-426 569l-307 -264v-305h-512z" />
<glyph unicode="L" horiz-adv-x="1679" d="M123 0v1475h512v-1045h962v-430h-1474z" />
<glyph unicode="M" horiz-adv-x="2646" d="M123 0v1475h799l401 -879l401 879h799v-1475h-512v983l-450 -983h-476l-450 983v-983h-512z" />
<glyph unicode="N" horiz-adv-x="2215" d="M123 0v1475h758l700 -975v975h512v-1475h-758l-700 975v-975h-512z" />
<glyph unicode="O" horiz-adv-x="2129" d="M102 739q0 372 252 574.5t711 202.5q457 0 710 -203t253 -574q0 -372 -253 -576t-710 -204q-459 0 -711 203t-252 577zM635 739q0 -77 21 -137.5t68 -110t133.5 -76t207.5 -26.5q430 0 430 350q0 346 -430 346q-98 0 -173.5 -17.5t-123.5 -48t-78.5 -75.5t-42.5 -94.5 t-12 -110.5z" />
<glyph unicode="P" horiz-adv-x="1982" d="M123 0v1475h1167q276 0 433 -149t157 -411t-157 -410.5t-433 -148.5h-655v-356h-512zM635 786h532q31 0 46.5 0.5t41 4t39 11.5t28 22t20.5 37t6 54t-6 54t-20.5 37t-28 22t-39 11.5t-41 4t-46.5 0.5h-532v-258z" />
<glyph unicode="Q" horiz-adv-x="2185" d="M102 739q0 372 252 574.5t711 202.5q457 0 710 -203t253 -574q0 -262 -127 -442l202 -178l-245 -246l-226 199q-232 -113 -567 -113q-459 0 -711 203t-252 577zM635 739q0 -77 21 -137.5t68 -110t133.5 -76t207.5 -26.5q97 0 186 21l-180 159l246 246l172 -153q6 41 6 77 q0 346 -430 346q-98 0 -173.5 -17.5t-123.5 -48t-78.5 -75.5t-42.5 -94.5t-12 -110.5z" />
<glyph unicode="R" horiz-adv-x="2023" d="M123 0v1475h1147q303 0 456.5 -122t153.5 -356q0 -323 -274 -417q129 -8 201.5 -81.5t72.5 -203.5v-295h-512v209q0 99 -33 133.5t-131 34.5h-569v-377h-512zM635 786h512q32 0 48 0.5t41.5 3t38.5 8t29.5 15.5t24.5 24.5t13.5 37t5.5 51.5t-5.5 51.5t-13.5 37 t-24.5 24.5t-29.5 15t-38.5 7.5t-41.5 3t-48 0.5h-512v-279z" />
<glyph unicode="S" horiz-adv-x="2035" d="M102 485h533q0 -157 403 -157q151 0 233.5 14.5t106 35.5t23.5 56q0 16 -2.5 27t-11 21.5t-21 17.5t-36.5 14.5t-52.5 12t-75.5 10t-98.5 10t-126.5 10.5q-450 33 -652 147t-202 355q0 221 223.5 339t609.5 118q434 0 667.5 -128.5t248.5 -373.5h-533q0 71 -92.5 102 t-290.5 31q-119 0 -188 -12.5t-91 -31t-22 -46.5q0 -34 27.5 -53t114 -35t262.5 -31q118 -10 189.5 -17.5t166.5 -21t152 -30t124 -41.5t105 -58.5t73 -78.5t49.5 -104t14.5 -132q0 -138 -58.5 -235t-174.5 -154t-272.5 -82t-368.5 -25q-227 0 -397 28.5t-295 90 t-191.5 163.5t-73.5 244z" />
<glyph unicode="T" horiz-adv-x="1966" d="M102 1044v431h1762v-431h-625v-1044h-512v1044h-625z" />
<glyph unicode="U" horiz-adv-x="2048" d="M123 719v756h512v-736q0 -71 17.5 -129t58.5 -110t121 -81.5t192 -29.5q91 0 160.5 20.5t112 53t69.5 79.5t37 94.5t10 102.5v736h512v-756q0 -380 -218 -570t-683 -190q-466 0 -683.5 189.5t-217.5 570.5z" />
<glyph unicode="V" horiz-adv-x="2347" d="M102 1475h545l527 -1123l526 1123h545l-707 -1475h-729z" />
<glyph unicode="W" horiz-adv-x="3403" d="M102 1475h516l338 -1084l408 1084h676l407 -1084l338 1084h516l-475 -1475h-737l-387 1055l-387 -1055h-737z" />
<glyph unicode="X" horiz-adv-x="2359" d="M102 0l729 737l-729 738h689l389 -431l389 431h688l-729 -738l729 -737h-688l-389 430l-389 -430h-689z" />
<glyph unicode="Y" horiz-adv-x="2301" d="M102 1475h635l414 -553l414 553h635l-793 -983v-492h-512v492z" />
<glyph unicode="Z" horiz-adv-x="1904" d="M123 0v430l917 614h-917v431h1659v-431l-918 -614h918v-430h-1659z" />
<glyph unicode="[" horiz-adv-x="1331" d="M123 -410v2048h1085v-389h-573v-1269h573v-390h-1085z" />
<glyph unicode="\" horiz-adv-x="1277" d="M123 1638h450l582 -1945h-450z" />
<glyph unicode="]" horiz-adv-x="1331" d="M123 -20h573v1269h-573v389h1085v-2048h-1085v390z" />
<glyph unicode="^" horiz-adv-x="1886" d="M123 717l514 921h614l512 -921h-446l-373 694l-375 -694h-446z" />
<glyph unicode="_" horiz-adv-x="2375" d="M164 -82h2048v-369h-2048v369z" />
<glyph unicode="`" horiz-adv-x="1042" d="M123 1550v211l797 -164v-211z" />
<glyph unicode="a" horiz-adv-x="1921" d="M82 371q0 97 41.5 172t109 121t162 75.5t189.5 40.5t204 11q259 0 560 -62q-4 62 -33.5 104.5t-82 66t-116 33t-149.5 9.5q-300 0 -719 -98l-66 321q473 105 873 105q394 0 577.5 -148t186.5 -493v-629h-471v164q-154 -95 -339.5 -139.5t-359.5 -44.5q-100 0 -183 12.5 t-155.5 41.5t-122 73.5t-78 111.5t-28.5 152zM573 403q0 -53 53 -74.5t185 -21.5q173 0 537 62v94q-282 41 -490 41q-156 0 -220.5 -23t-64.5 -78z" />
<glyph unicode="b" d="M123 0v1638h471v-628q89 135 238.5 197.5t330.5 62.5q100 0 192 -20t181 -68.5t154 -121.5t105 -187.5t40 -258.5t-40 -258.5t-105 -187t-154 -121t-181 -68.5t-192 -20q-181 0 -330.5 62.5t-238.5 197.5v-219h-471zM594 614q0 -266 375 -266q374 0 374 266 q0 267 -374 267q-375 0 -375 -267z" />
<glyph unicode="c" horiz-adv-x="1912" d="M82 614q0 323 225.5 489.5t650.5 166.5q384 0 606 -135.5t267 -407.5h-481q-65 174 -392 174q-202 0 -303.5 -69.5t-101.5 -217.5t101.5 -217t303.5 -69q327 0 392 174h481q-45 -272 -267 -407.5t-606 -135.5q-426 0 -651 166t-225 489z" />
<glyph unicode="d" d="M82 614q0 144 40 258.5t105 187.5t154 121.5t181 68.5t192 20q181 0 330.5 -62.5t238.5 -197.5v628h471v-1638h-471v219q-89 -135 -238.5 -197.5t-330.5 -62.5q-100 0 -192 20t-181 68.5t-154 121t-105 187t-40 258.5zM573 614q0 -266 375 -266t375 266q0 267 -375 267 t-375 -267z" />
<glyph unicode="e" horiz-adv-x="1912" d="M82 614q0 212 112.5 361.5t307.5 222t454 72.5q200 0 359 -45t275 -133.5t178.5 -229.5t62.5 -325h-1272q24 -128 130.5 -179t303.5 -51q164 0 249 34t118 99h461q-31 -117 -94.5 -204.5t-165 -150t-248.5 -94.5t-338 -32q-422 0 -657.5 167.5t-235.5 487.5zM575 770h768 q-39 103 -134 148t-253 45q-155 0 -249.5 -45t-131.5 -148z" />
<glyph unicode="f" horiz-adv-x="1404" d="M82 881v348h289v47q0 190 148.5 296.5t441.5 106.5q192 0 362 -20v-301q-192 14 -238 14q-138 0 -189 -32.5t-54 -110.5h481v-348h-481v-881h-471v881h-289z" />
<glyph unicode="g" d="M82 635q0 137 40 247.5t105 181.5t154 118.5t181.5 67.5t191.5 20q180 0 330 -61.5t239 -192.5v213h471v-1100q-3 -348 -188.5 -504.5t-575.5 -156.5q-403 0 -872 104l65 352q234 -46 398.5 -67t320.5 -21q91 0 155.5 11.5t118 40.5t80.5 85.5t27 139.5v141 q-89 -131 -239 -192.5t-330 -61.5q-99 0 -191.5 20t-181.5 67.5t-154 118.5t-105 181.5t-40 247.5zM573 635q0 -123 88.5 -184.5t286.5 -61.5t286.5 61.5t88.5 184.5t-88.5 184.5t-286.5 61.5t-286.5 -61.5t-88.5 -184.5z" />
<glyph unicode="h" horiz-adv-x="2045" d="M123 0v1638h471v-696q124 157 292 242.5t412 85.5q625 0 625 -613v-657h-471v481q0 104 -19 176t-63.5 123.5t-119 76t-183.5 24.5q-229 0 -351 -100.5t-122 -299.5v-481h-471z" />
<glyph unicode="i" horiz-adv-x="716" d="M123 0v1229h471v-1229h-471zM123 1352v286h471v-286h-471z" />
<glyph unicode="j" horiz-adv-x="1095" d="M41 -143q175 -21 252 -21q86 0 128.5 18.5t61.5 68.5t19 151v1155h471v-1174q0 -587 -570 -587q-186 0 -362 30v359zM502 1352v286h471v-286h-471z" />
<glyph unicode="k" horiz-adv-x="1990" d="M123 0v1638h471v-860l602 451h713l-701 -510l701 -719h-586l-444 479l-285 -207v-272h-471z" />
<glyph unicode="l" horiz-adv-x="716" d="M123 0v1638h471v-1638h-471z" />
<glyph unicode="m" horiz-adv-x="2883" d="M123 0v1229h471v-217q211 258 541 258q173 0 305 -77.5t192 -238.5q224 316 586 316q90 0 168.5 -20t148 -65t119.5 -112.5t78.5 -168t28.5 -226.5v-678h-471v604q0 151 -68 214t-215 63q-70 0 -127.5 -14.5t-104 -46t-72.5 -86.5t-26 -130v-604h-471v604 q0 151 -67.5 214t-214.5 63q-70 0 -127.5 -14.5t-104 -46t-72.5 -86.5t-26 -130v-604h-471z" />
<glyph unicode="n" horiz-adv-x="2045" d="M123 0v1229h471v-287q124 157 292 242.5t412 85.5q625 0 625 -613v-657h-471v481q0 104 -19 176t-63.5 123.5t-119 76t-183.5 24.5q-229 0 -351 -100.5t-122 -299.5v-481h-471z" />
<glyph unicode="o" d="M82 614q0 312 222.5 484t653.5 172t654 -172.5t223 -483.5t-223 -483t-654 -172t-653.5 172t-222.5 483zM573 614q0 -149 94 -217.5t291 -68.5t291 68.5t94 217.5t-94 218t-291 69t-291 -69t-94 -218z" />
<glyph unicode="p" d="M123 -492v1721h471v-219q89 135 238.5 197.5t330.5 62.5q100 0 192 -20t181 -68.5t154 -121.5t105 -187.5t40 -258.5t-40 -258.5t-105 -187t-154 -121t-181 -68.5t-192 -20q-181 0 -330.5 62.5t-238.5 197.5v-711h-471zM594 614q0 -266 375 -266q374 0 374 266 q0 267 -374 267q-375 0 -375 -267z" />
<glyph unicode="q" d="M82 614q0 144 40 258.5t105 187.5t154 121.5t181 68.5t192 20q181 0 330.5 -62.5t238.5 -197.5v219h471v-1721h-471v711q-89 -135 -238.5 -197.5t-330.5 -62.5q-100 0 -192 20t-181 68.5t-154 121t-105 187t-40 258.5zM573 614q0 -266 375 -266t375 266q0 267 -375 267 t-375 -267z" />
<glyph unicode="r" horiz-adv-x="1478" d="M123 0v1229h471v-266q95 164 216 235.5t288 71.5q155 0 299 -62v-409q-97 35 -168 48t-150 13q-59 0 -113 -10.5t-117.5 -36.5t-128.5 -79.5t-126 -131.5v-602h-471z" />
<glyph unicode="s" horiz-adv-x="1830" d="M82 412h491q0 -52 28 -82t108.5 -47t226.5 -17q135 0 205.5 12t93 34t22.5 63q0 33 -14 51t-57 29.5t-108.5 17.5t-183.5 15q-13 0 -20 1q-94 7 -162 13t-140.5 15.5t-123.5 20t-102.5 26t-85 35t-64 44.5t-47.5 57t-26.5 71t-9.5 87q0 97 42.5 170t113.5 118.5t176 74 t216 39t248 10.5q134 0 247 -13t214 -43t172.5 -77t115.5 -118t50 -163h-491q0 69 -76.5 98t-241.5 29q-161 0 -228 -23t-67 -69q0 -18 4.5 -29.5t21.5 -22t39 -16.5t69 -13t98.5 -12t140.5 -12q321 -27 437 -51q203 -42 277 -139q58 -75 58 -199q0 -105 -39 -183 t-105.5 -126t-169.5 -77.5t-217 -40.5t-262 -11q-205 0 -359.5 23t-273 74t-180 140.5t-61.5 215.5z" />
<glyph unicode="t" horiz-adv-x="1384" d="M82 881v348h248v225l471 123v-348h502v-348h-502v-336q0 -94 43 -145.5t145 -51.5q80 0 142 8.5t172 32.5v-379q-221 -51 -424 -51q-549 0 -549 424v498h-248z" />
<glyph unicode="u" horiz-adv-x="2045" d="M123 571v658h471v-481q0 -104 19 -176t63.5 -123.5t119 -76t183.5 -24.5q229 0 351 100.5t122 299.5v481h471v-1229h-471v287q-124 -157 -292 -242.5t-412 -85.5q-625 0 -625 612z" />
<glyph unicode="v" horiz-adv-x="2045" d="M82 1229h477l465 -971l463 971h477l-594 -1229h-694z" />
<glyph unicode="w" horiz-adv-x="3270" d="M82 1229h465l381 -910l432 910h551l432 -910l381 910h465l-514 -1229h-656l-383 801l-385 -801h-655z" />
<glyph unicode="x" horiz-adv-x="2060" d="M82 0l633 614l-633 615h616l332 -369l332 369h616l-632 -615l632 -614h-616l-332 369l-332 -369h-616z" />
<glyph unicode="y" horiz-adv-x="2025" d="M82 1229h477l463 -967l465 967h477l-578 -1198q-54 -113 -106.5 -196t-118 -155t-139 -117t-167.5 -70t-206 -25q-216 0 -465 71v359q275 -62 396 -62q53 0 85.5 2.5t67 11.5t58.5 27t49 47.5t51 75.5h-221z" />
<glyph unicode="z" horiz-adv-x="1708" d="M123 0v348l838 533h-838v348h1462v-348l-837 -533h837v-348h-1462z" />
<glyph unicode="{" horiz-adv-x="1331" d="M123 422v389q47 0 76.5 1.5t69 7.5t64 17.5t50.5 33t39 53t19 78t1 106.5q-12 154 22 255t128.5 163t241 87t374.5 25v-389q-92 0 -152.5 -6t-110 -22.5t-76 -46.5t-38 -76t-6.5 -113q7 -88 -9.5 -154t-44 -101.5t-68 -57.5t-73.5 -28.5t-69 -6.5v-41q36 0 69 -6.5 t73.5 -28.5t68 -57.5t44 -101.5t9.5 -154q-6 -85 11.5 -137.5t67.5 -81.5t119.5 -39t184.5 -10v-390q-238 0 -387.5 25.5t-240 89.5t-121 163.5t-17.5 256.5q5 60 -1 106.5t-19 78t-39 53t-50.5 33t-64 17.5t-69 7.5t-76.5 1.5z" />
<glyph unicode="|" horiz-adv-x="675" d="M123 -307v1945h430v-1945h-430z" />
<glyph unicode="}" horiz-adv-x="1372" d="M164 -20q115 0 184.5 10t119.5 39t67.5 81.5t11.5 137.5q-7 88 9.5 154t44 101.5t68 57.5t73.5 28.5t69 6.5v41q-36 0 -69 6.5t-73.5 28.5t-68 57.5t-44 101.5t-9.5 154q5 67 -6.5 113t-38 76t-76 46.5t-110 22.5t-152.5 6v389q228 0 374.5 -25t241 -87t128.5 -163 t22 -255q-5 -60 1 -106.5t19 -78t39 -53t50.5 -33t64 -17.5t69 -7.5t76.5 -1.5v-389q-47 0 -76.5 -1.5t-69 -7.5t-64 -17.5t-50.5 -33t-39 -53t-19 -78t-1 -106.5q13 -157 -17.5 -256.5t-121 -163.5t-240 -89.5t-387.5 -25.5v390z" />
<glyph unicode="~" horiz-adv-x="1884" d="M123 369q0 311 110.5 483t319.5 172q81 0 160 -25.5t141 -61.5t119.5 -72t118.5 -61.5t116 -25.5q89 0 126.5 55t37.5 191h389q0 -311 -110.5 -483t-319.5 -172q-81 0 -160 25t-141 61.5t-119.5 72.5t-118.5 61t-116 25q-89 0 -126.5 -54.5t-37.5 -190.5h-389z" />
<glyph unicode="&#xa1;" horiz-adv-x="778" d="M123 -246l20 983h492l20 -983h-532zM143 860v369h492v-369h-492z" />
<glyph unicode="&#xa2;" horiz-adv-x="1953" d="M102 717q0 303 197.5 468t574.5 185v268h205v-268q338 -17 534 -152t238 -389h-481q-54 145 -291 170v-565q237 25 291 170h481q-42 -254 -238 -389t-534 -152v-268h-205v268q-377 20 -574.5 185t-197.5 469zM573 717q0 -250 301 -281v561q-301 -31 -301 -280z" />
<glyph unicode="&#xa3;" horiz-adv-x="1761" d="M123 0v389q20 20 56 54t51 49t40 40.5t36.5 39.5t26 34t22 37t12.5 35h-244v123h244q-3 19 -19 76q-29 89 -26 171t28.5 153t85.5 129t145 99.5t206.5 64t269.5 22.5q146 0 271.5 -14.5t309.5 -47.5v-387q-168 32 -273 45.5t-212 13.5q-80 0 -135.5 -9.5t-96 -32t-58 -60 t-21.5 -93t14 -130.5h545v-123h-531q-10 -210 -354 -289h1122v-389h-1515z" />
<glyph unicode="&#xa4;" d="M102 717q0 310 222 481l-156 156l174 174l213 -213q183 57 424 57t424 -57l213 213l174 -174l-156 -156q221 -170 221 -481t-221 -481l156 -156l-174 -174l-213 213q-187 -58 -424 -58t-424 58l-213 -213l-174 174l156 156q-222 171 -222 481zM594 717q0 -104 45 -166 l6 6l78 -80q90 -47 256 -47q197 0 291 69t94 218q0 120 -64 190l-63 49q-92 48 -258 48q-197 0 -291 -69t-94 -218z" />
<glyph unicode="&#xa5;" horiz-adv-x="2400" d="M123 1475h635l413 -553l414 553h635l-610 -758h461v-123h-562l-82 -102v-41h644v-123h-644v-328h-512v328h-585v123h585v41l-81 102h-504v123h403z" />
<glyph unicode="&#xa6;" horiz-adv-x="675" d="M123 -307v768h430v-768h-430zM123 870v768h430v-768h-430z" />
<glyph unicode="&#xa7;" horiz-adv-x="1892" d="M123 1200q0 87 28.5 156.5t83.5 116.5t126 80t164.5 51t189.5 26t211 8q777 0 803 -434h-492q0 82 -73 108.5t-249 26.5q-166 0 -233.5 -29t-67.5 -91q0 -34 27 -52.5t108 -33t248 -29.5q121 -10 189.5 -17t160.5 -20t142 -28.5t108 -40t86 -56.5t47 -77.5t19 -102.5 q0 -125 -77 -196t-226 -103q164 -47 243.5 -135.5t79.5 -239.5q0 -87 -28.5 -156.5t-83.5 -116.5t-125.5 -80t-164 -51t-189.5 -26t-211 -8q-777 0 -803 434h491q0 -82 73 -108.5t249 -26.5q166 0 233.5 29.5t67.5 91.5q0 27 -8.5 44t-30 31.5t-67 24t-109.5 18t-168 17.5 q-121 10 -189.5 17t-160.5 20t-142 28.5t-108 40t-86 56.5t-47 77.5t-19 102.5q0 124 77 195t222 102q-163 47 -241 131t-78 225zM614 668q0 -64 77.5 -90.5t305.5 -45.5q4 0 13.5 -1t13.5 -1q254 -18 254 111q0 65 -78 91t-305 44q-6 0 -17.5 1t-17.5 1q-246 16 -246 -110z " />
<glyph unicode="&#xa8;" horiz-adv-x="1146" d="M123 1434v204h369v-204h-369zM655 1434v204h369v-204h-369z" />
<glyph unicode="&#xa9;" horiz-adv-x="1935" d="M123 719q0 342 220 538.5t626 196.5q407 0 625 -196t218 -539t-218.5 -541t-624.5 -198q-405 0 -625.5 198.5t-220.5 540.5zM299 719q0 -285 174.5 -430.5t495.5 -145.5t494 145.5t173 430.5t-172 428t-495 143t-496.5 -144t-173.5 -427zM500 717q0 189 131 285t356 96 q385 0 449 -295h-176q-25 72 -89.5 101.5t-203.5 29.5q-140 0 -215.5 -50.5t-75.5 -166.5t75.5 -166.5t215.5 -50.5q139 0 203.5 29.5t89.5 101.5h176q-64 -295 -449 -295q-225 0 -356 96t-131 285z" />
<glyph unicode="&#xab;" horiz-adv-x="2207" d="M123 614l532 615h570l-533 -615l533 -614h-570zM983 614l533 615h569l-533 -615l533 -614h-569z" />
<glyph unicode="&#xac;" horiz-adv-x="1884" d="M123 584v348h1638v-819h-430v471h-1208z" />
<glyph unicode="&#xad;" horiz-adv-x="1966" d="M164 522v348h1638v-348h-1638z" />
<glyph unicode="&#xae;" horiz-adv-x="1935" d="M123 719q0 169 56 314t160.5 253t266.5 169t363 61q162 0 299 -39.5t236.5 -111.5t169 -171.5t104 -219.5t34.5 -255q0 -169 -55 -308.5t-159.5 -240t-265 -156t-363.5 -55.5q-202 0 -363 55.5t-266.5 156t-161 240t-55.5 308.5zM299 719q0 -287 176 -441.5t494 -154.5 t492.5 154.5t174.5 441.5q0 292 -176 462.5t-491 170.5t-492.5 -171.5t-177.5 -461.5zM647 393v670h404q151 0 224 -65.5t73 -184.5q0 -72 -38 -132t-112 -91l139 -197h-202l-121 172h-195v-172h-172zM819 729h240q62 0 89.5 19t27.5 65t-28 66t-89 20h-240v-170z" />
<glyph unicode="&#xaf;" horiz-adv-x="1206" d="M123 1434v204h960v-204h-960z" />
<glyph unicode="&#xb0;" horiz-adv-x="1456" d="M123 993q0 85 17.5 158.5t61 142t110.5 116.5t173 77t242 29t242.5 -29t174 -77t111 -116.5t61 -142t17.5 -158.5q0 -86 -17.5 -159.5t-61 -142t-111 -116.5t-174 -77t-242.5 -29t-242 29t-173 77t-110.5 116.5t-61 142t-17.5 159.5zM492 995q0 -51 11.5 -91.5t37.5 -75 t73 -53.5t113 -19q128 0 183 66t55 173q0 105 -55 169.5t-183 64.5q-127 0 -181 -64.5t-54 -169.5z" />
<glyph unicode="&#xb1;" horiz-adv-x="1884" d="M123 31v348h1638v-348h-1638zM123 788v349h604v317h430v-317h604v-349h-604v-317h-430v317h-604z" />
<glyph unicode="&#xb4;" horiz-adv-x="1042" d="M123 1386v211l797 164v-211z" />
<glyph unicode="&#xb6;" horiz-adv-x="1939" d="M123 1147q0 102 22.5 181.5t54.5 130.5t89.5 87t103 53.5t122.5 27t119 10.5t120 1h2h430v-1945h-430v962q-78 0 -120.5 1t-119.5 10.5t-122.5 27t-103.5 53.5t-89.5 87t-54.5 131t-23 182zM1386 -307v1945h431v-1945h-431z" />
<glyph unicode="&#xb7;" horiz-adv-x="737" d="M123 471v369h491v-369h-491z" />
<glyph unicode="&#xb8;" horiz-adv-x="892" d="M123 -287q186 -29 273 -22.5t87 55.5q0 47 -63 47q-44 0 -88 -31l-142 43l39 195h201l-31 -121q70 25 158 25q98 0 155.5 -42t57.5 -120q0 -62 -37.5 -107.5t-99.5 -71t-146.5 -37.5t-175 -10.5t-188.5 13.5v184z" />
<glyph unicode="&#xbb;" horiz-adv-x="2207" d="M123 0l532 614l-532 615h569l533 -615l-533 -614h-569zM983 0l533 614l-533 615h569l533 -615l-533 -614h-569z" />
<glyph unicode="&#xbf;" horiz-adv-x="1769" d="M123 84q0 80 31 143t80 102.5t108.5 73t119.5 64t109 65t80 86.5t31 119h492q0 -90 -28.5 -162t-74.5 -117t-101.5 -79.5t-110.5 -58.5t-101 -45.5t-74.5 -48.5t-28.5 -60q0 -47 47.5 -76t151.5 -29q143 0 222 54.5t79 181.5h492q-6 -121 -46.5 -217.5t-110.5 -164.5 t-169.5 -113.5t-220.5 -67t-266 -21.5q-711 0 -711 371zM682 860v369h492v-369h-492z" />
<glyph unicode="&#xc0;" horiz-adv-x="2347" d="M102 0l707 1475h729l707 -1475h-545l-121 258h-811l-121 -258h-545zM774 1796v211l797 -164v-211zM940 627h467l-233 495z" />
<glyph unicode="&#xc1;" horiz-adv-x="2347" d="M102 0l707 1475h729l707 -1475h-545l-121 258h-811l-121 -258h-545zM774 1632v211l797 164v-211zM940 627h467l-233 495z" />
<glyph unicode="&#xc2;" horiz-adv-x="2347" d="M102 0l707 1475h729l707 -1475h-545l-121 258h-811l-121 -258h-545zM750 1624v219l424 164l423 -164v-219l-423 164zM940 627h467l-233 495z" />
<glyph unicode="&#xc3;" horiz-adv-x="2347" d="M102 0l707 1475h729l707 -1475h-545l-121 258h-811l-121 -258h-545zM539 1597q0 72 9 134t31.5 121.5t58.5 102t94.5 68t133.5 25.5q85 0 168 -29t137 -63t116.5 -63t111.5 -29q69 0 96 44t27 140h286q0 -72 -9 -134t-31.5 -121.5t-58.5 -102t-94.5 -68t-133.5 -25.5 q-85 0 -168 29t-137 63.5t-116.5 63.5t-111.5 29q-69 0 -96 -44t-27 -141h-286zM940 627h467l-233 495z" />
<glyph unicode="&#xc4;" horiz-adv-x="2347" d="M102 0l707 1475h729l707 -1475h-545l-121 258h-811l-121 -258h-545zM723 1679v205h369v-205h-369zM940 627h467l-233 495zM1255 1679v205h369v-205h-369z" />
<glyph unicode="&#xc5;" horiz-adv-x="2347" d="M102 0l707 1475h729l707 -1475h-545l-121 258h-811l-121 -258h-545zM723 1868q0 132 107.5 201t343.5 69t343 -69t107 -201t-107.5 -201.5t-342.5 -69.5q-236 0 -343.5 69.5t-107.5 201.5zM940 627h467l-233 495zM969 1868q0 -107 205 -107q204 0 204 107q0 106 -204 106 q-205 0 -205 -106z" />
<glyph unicode="&#xc6;" horiz-adv-x="2977" d="M102 0l615 1475h2158v-390h-1003v-153h962v-389h-962v-154h1003v-389h-1515v256h-619l-106 -256h-533zM895 625h465v460h-273z" />
<glyph unicode="&#xc7;" horiz-adv-x="2000" d="M102 739q0 383 234.5 580t667.5 197q400 0 631 -162.5t263 -470.5h-544q-17 81 -106 141.5t-244 60.5q-189 0 -279 -95t-90 -251q0 -157 90.5 -253.5t278.5 -96.5q155 0 244 62t106 145h544q-31 -301 -249.5 -464.5t-599.5 -172.5l-25 -100q67 24 158 24q98 0 155.5 -42 t57.5 -120q0 -62 -37.5 -107.5t-99.5 -71t-146.5 -37.5t-175 -10.5t-188.5 13.5v185q186 -29 273 -22.5t87 55.5q0 47 -64 47q-44 0 -88 -31l-141 43l37 180q-363 34 -556.5 229.5t-193.5 544.5z" />
<glyph unicode="&#xc8;" horiz-adv-x="1761" d="M123 0v1475h1515v-390h-1003v-153h962v-389h-962v-154h1003v-389h-1515zM543 1796v211l796 -164v-211z" />
<glyph unicode="&#xc9;" horiz-adv-x="1761" d="M123 0v1475h1515v-390h-1003v-153h962v-389h-962v-154h1003v-389h-1515zM543 1632v211l796 164v-211z" />
<glyph unicode="&#xca;" horiz-adv-x="1761" d="M123 0v1475h1515v-390h-1003v-153h962v-389h-962v-154h1003v-389h-1515zM518 1624v219l424 164l424 -164v-219l-424 164z" />
<glyph unicode="&#xcb;" horiz-adv-x="1761" d="M123 0v1475h1515v-390h-1003v-153h962v-389h-962v-154h1003v-389h-1515zM492 1679v205h368v-205h-368zM1024 1679v205h369v-205h-369z" />
<glyph unicode="&#xcc;" horiz-adv-x="757" d="M-20 1796v211l796 -164v-211zM123 0v1475h512v-1475h-512z" />
<glyph unicode="&#xcd;" horiz-adv-x="757" d="M-20 1632v211l796 164v-211zM123 0v1475h512v-1475h-512z" />
<glyph unicode="&#xce;" horiz-adv-x="757" d="M-45 1624v219l424 164l424 -164v-219l-424 164zM123 0v1475h512v-1475h-512z" />
<glyph unicode="&#xcf;" horiz-adv-x="757" d="M-72 1679v205h369v-205h-369zM123 0v1475h512v-1475h-512zM461 1679v205h368v-205h-368z" />
<glyph unicode="&#xd0;" horiz-adv-x="2023" d="M20 676v123h164v676h1065q133 0 251.5 -45t213.5 -132.5t151 -232t56 -328.5q0 -148 -37 -271t-100 -208t-149 -144t-183 -86.5t-203 -27.5h-1065v676h-164zM696 430h348q64 0 98 2t89 18t83.5 46t51.5 91.5t23 149.5t-23 149.5t-51.5 91.5t-83.5 46t-89 18t-98 2h-348 v-245h308v-123h-308v-246z" />
<glyph unicode="&#xd1;" horiz-adv-x="2215" d="M123 0v1475h758l700 -975v975h512v-1475h-758l-700 975v-975h-512zM473 1597q0 72 9 134t32 121.5t59 102t94.5 68t133.5 25.5q85 0 168 -29t136.5 -63t116 -63t111.5 -29q69 0 96 44t27 140h287q0 -72 -9 -134t-32 -121.5t-59 -102t-94.5 -68t-133.5 -25.5 q-85 0 -168 29t-136.5 63.5t-116 63.5t-111.5 29q-69 0 -96 -44t-27 -141h-287z" />
<glyph unicode="&#xd2;" horiz-adv-x="2129" d="M102 739q0 372 252 574.5t711 202.5q457 0 710 -203t253 -574q0 -372 -253 -576t-710 -204q-459 0 -711 203t-252 577zM635 739q0 -77 21 -137.5t68 -110t133.5 -76t207.5 -26.5q430 0 430 350q0 346 -430 346q-98 0 -173.5 -17.5t-123.5 -48t-78.5 -75.5t-42.5 -94.5 t-12 -110.5zM666 1796v211l796 -164v-211z" />
<glyph unicode="&#xd3;" horiz-adv-x="2129" d="M102 739q0 372 252 574.5t711 202.5q457 0 710 -203t253 -574q0 -372 -253 -576t-710 -204q-459 0 -711 203t-252 577zM635 739q0 -77 21 -137.5t68 -110t133.5 -76t207.5 -26.5q430 0 430 350q0 346 -430 346q-98 0 -173.5 -17.5t-123.5 -48t-78.5 -75.5t-42.5 -94.5 t-12 -110.5zM666 1632v211l796 164v-211z" />
<glyph unicode="&#xd4;" horiz-adv-x="2129" d="M102 739q0 372 252 574.5t711 202.5q457 0 710 -203t253 -574q0 -372 -253 -576t-710 -204q-459 0 -711 203t-252 577zM635 739q0 -77 21 -137.5t68 -110t133.5 -76t207.5 -26.5q430 0 430 350q0 346 -430 346q-98 0 -173.5 -17.5t-123.5 -48t-78.5 -75.5t-42.5 -94.5 t-12 -110.5zM641 1624v219l424 164l424 -164v-219l-424 164z" />
<glyph unicode="&#xd5;" horiz-adv-x="2129" d="M102 739q0 372 252 574.5t711 202.5q457 0 710 -203t253 -574q0 -372 -253 -576t-710 -204q-459 0 -711 203t-252 577zM430 1597q0 72 9 134t32 121.5t59 102t94.5 68t133.5 25.5q85 0 168 -29t136.5 -63t116 -63t111.5 -29q69 0 96 44t27 140h287q0 -72 -9 -134 t-32 -121.5t-59 -102t-94.5 -68t-133.5 -25.5q-85 0 -168 29t-136.5 63.5t-116 63.5t-111.5 29q-69 0 -96 -44t-27 -141h-287zM635 739q0 -77 21 -137.5t68 -110t133.5 -76t207.5 -26.5q430 0 430 350q0 346 -430 346q-98 0 -173.5 -17.5t-123.5 -48t-78.5 -75.5 t-42.5 -94.5t-12 -110.5z" />
<glyph unicode="&#xd6;" horiz-adv-x="2129" d="M102 739q0 372 252 574.5t711 202.5q457 0 710 -203t253 -574q0 -372 -253 -576t-710 -204q-459 0 -711 203t-252 577zM614 1679v205h369v-205h-369zM635 739q0 -77 21 -137.5t68 -110t133.5 -76t207.5 -26.5q430 0 430 350q0 346 -430 346q-98 0 -173.5 -17.5 t-123.5 -48t-78.5 -75.5t-42.5 -94.5t-12 -110.5zM1147 1679v205h369v-205h-369z" />
<glyph unicode="&#xd7;" horiz-adv-x="1841" d="M123 418l450 260l-448 258l174 301l623 -358l620 358l174 -301l-448 -258l450 -260l-174 -301l-622 360l-625 -360z" />
<glyph unicode="&#xd8;" horiz-adv-x="2129" d="M102 739q0 372 252 574.5t711 202.5h18l47 270h244l-51 -289q339 -54 522 -249.5t183 -508.5q0 -372 -253 -576t-710 -204h-8l-56 -311h-243l57 329q-343 51 -528 247.5t-185 514.5zM635 739q0 -269 256 -331l117 675q-373 -21 -373 -344zM1130 391q365 26 365 348 q0 265 -246 326z" />
<glyph unicode="&#xd9;" horiz-adv-x="2048" d="M123 719v756h512v-736q0 -71 17.5 -129t58.5 -110t121 -81.5t192 -29.5q91 0 160.5 20.5t112 53t69.5 79.5t37 94.5t10 102.5v736h512v-756q0 -380 -218 -570t-683 -190q-466 0 -683.5 189.5t-217.5 570.5zM625 1796v211l796 -164v-211z" />
<glyph unicode="&#xda;" horiz-adv-x="2048" d="M123 719v756h512v-736q0 -71 17.5 -129t58.5 -110t121 -81.5t192 -29.5q91 0 160.5 20.5t112 53t69.5 79.5t37 94.5t10 102.5v736h512v-756q0 -380 -218 -570t-683 -190q-466 0 -683.5 189.5t-217.5 570.5zM625 1632v211l796 164v-211z" />
<glyph unicode="&#xdb;" horiz-adv-x="2048" d="M123 719v756h512v-736q0 -71 17.5 -129t58.5 -110t121 -81.5t192 -29.5q91 0 160.5 20.5t112 53t69.5 79.5t37 94.5t10 102.5v736h512v-756q0 -380 -218 -570t-683 -190q-466 0 -683.5 189.5t-217.5 570.5zM600 1624v219l424 164l424 -164v-219l-424 164z" />
<glyph unicode="&#xdc;" horiz-adv-x="2048" d="M123 719v756h512v-736q0 -71 17.5 -129t58.5 -110t121 -81.5t192 -29.5q91 0 160.5 20.5t112 53t69.5 79.5t37 94.5t10 102.5v736h512v-756q0 -380 -218 -570t-683 -190q-466 0 -683.5 189.5t-217.5 570.5zM573 1679v205h369v-205h-369zM1106 1679v205h369v-205h-369z " />
<glyph unicode="&#xdd;" horiz-adv-x="2301" d="M102 1475h635l414 -553l414 553h635l-793 -983v-492h-512v492zM752 1632v211l796 164v-211z" />
<glyph unicode="&#xde;" horiz-adv-x="1961" d="M123 0v1475h512v-185h635q274 0 432 -145t158 -393t-158 -393.5t-432 -145.5h-635v-213h-512zM635 643h512q37 0 56 1t47 6.5t41.5 16t24.5 32t11 53.5q0 26 -6 45.5t-20.5 31t-27 18.5t-38.5 9.5t-41 3t-47 0.5h-512v-217z" />
<glyph unicode="&#xdf;" horiz-adv-x="1851" d="M123 0v829q0 120 21 217.5t57 168.5t91.5 124t118.5 86.5t143 54t160 28.5t175 8q696 0 696 -420q0 -233 -256 -320q99 -14 172 -39t131 -67t87.5 -107t29.5 -153q0 -62 -11.5 -111.5t-31.5 -89t-56.5 -69.5t-78.5 -52.5t-105 -38t-127.5 -25t-156 -15t-180.5 -7.5 t-209 -2v369q104 0 171.5 1.5t123 7.5t85.5 14.5t50.5 24t27 35.5t6.5 50t-6.5 50t-27 35.5t-50.5 24t-85.5 14.5t-123 7.5t-171.5 1.5v246q170 0 235.5 23.5t65.5 103.5q0 70 -59.5 104.5t-160.5 34.5q-48 0 -86 -6t-75.5 -24t-62.5 -47.5t-40.5 -80t-15.5 -119.5v-870 h-471z" />
<glyph unicode="&#xe0;" horiz-adv-x="1921" d="M82 371q0 97 41.5 172t109 121t162 75.5t189.5 40.5t204 11q259 0 560 -62q-4 62 -33.5 104.5t-82 66t-116 33t-149.5 9.5q-300 0 -719 -98l-66 321q473 105 873 105q394 0 577.5 -148t186.5 -493v-629h-471v164q-154 -95 -339.5 -139.5t-359.5 -44.5q-100 0 -183 12.5 t-155.5 41.5t-122 73.5t-78 111.5t-28.5 152zM573 403q0 -53 53 -74.5t185 -21.5q173 0 537 62v94q-282 41 -490 41q-156 0 -220.5 -23t-64.5 -78zM592 1550v211l797 -164v-211z" />
<glyph unicode="&#xe1;" horiz-adv-x="1921" d="M82 371q0 97 41.5 172t109 121t162 75.5t189.5 40.5t204 11q259 0 560 -62q-4 62 -33.5 104.5t-82 66t-116 33t-149.5 9.5q-300 0 -719 -98l-66 321q473 105 873 105q394 0 577.5 -148t186.5 -493v-629h-471v164q-154 -95 -339.5 -139.5t-359.5 -44.5q-100 0 -183 12.5 t-155.5 41.5t-122 73.5t-78 111.5t-28.5 152zM573 403q0 -53 53 -74.5t185 -21.5q173 0 537 62v94q-282 41 -490 41q-156 0 -220.5 -23t-64.5 -78zM592 1386v211l797 164v-211z" />
<glyph unicode="&#xe2;" horiz-adv-x="1921" d="M82 371q0 97 41.5 172t109 121t162 75.5t189.5 40.5t204 11q259 0 560 -62q-4 62 -33.5 104.5t-82 66t-116 33t-149.5 9.5q-300 0 -719 -98l-66 321q473 105 873 105q394 0 577.5 -148t186.5 -493v-629h-471v164q-154 -95 -339.5 -139.5t-359.5 -44.5q-100 0 -183 12.5 t-155.5 41.5t-122 73.5t-78 111.5t-28.5 152zM567 1378v219l424 164l424 -164v-219l-424 164zM573 403q0 -53 53 -74.5t185 -21.5q173 0 537 62v94q-282 41 -490 41q-156 0 -220.5 -23t-64.5 -78z" />
<glyph unicode="&#xe3;" horiz-adv-x="1921" d="M82 371q0 97 41.5 172t109 121t162 75.5t189.5 40.5t204 11q259 0 560 -62q-4 62 -33.5 104.5t-82 66t-116 33t-149.5 9.5q-300 0 -719 -98l-66 321q473 105 873 105q394 0 577.5 -148t186.5 -493v-629h-471v164q-154 -95 -339.5 -139.5t-359.5 -44.5q-100 0 -183 12.5 t-155.5 41.5t-122 73.5t-78 111.5t-28.5 152zM356 1352q0 72 9 134t32 121.5t59 101.5t94.5 67.5t133.5 25.5q85 0 168 -29t137 -63t116.5 -63t111.5 -29q69 0 95.5 43.5t26.5 140.5h287q0 -72 -9 -134t-32 -121.5t-59 -101.5t-94.5 -67.5t-133.5 -25.5q-85 0 -168 29 t-136.5 63t-116 63t-111.5 29q-69 0 -96 -44t-27 -140h-287zM573 403q0 -53 53 -74.5t185 -21.5q173 0 537 62v94q-282 41 -490 41q-156 0 -220.5 -23t-64.5 -78z" />
<glyph unicode="&#xe4;" horiz-adv-x="1921" d="M82 371q0 97 41.5 172t109 121t162 75.5t189.5 40.5t204 11q259 0 560 -62q-4 62 -33.5 104.5t-82 66t-116 33t-149.5 9.5q-300 0 -719 -98l-66 321q473 105 873 105q394 0 577.5 -148t186.5 -493v-629h-471v164q-154 -95 -339.5 -139.5t-359.5 -44.5q-100 0 -183 12.5 t-155.5 41.5t-122 73.5t-78 111.5t-28.5 152zM541 1434v204h368v-204h-368zM573 403q0 -53 53 -74.5t185 -21.5q173 0 537 62v94q-282 41 -490 41q-156 0 -220.5 -23t-64.5 -78zM1073 1434v204h369v-204h-369z" />
<glyph unicode="&#xe5;" horiz-adv-x="1921" d="M82 371q0 97 41.5 172t109 121t162 75.5t189.5 40.5t204 11q259 0 560 -62q-4 62 -33.5 104.5t-82 66t-116 33t-149.5 9.5q-300 0 -719 -98l-66 321q473 105 873 105q394 0 577.5 -148t186.5 -493v-629h-471v164q-154 -95 -339.5 -139.5t-359.5 -44.5q-100 0 -183 12.5 t-155.5 41.5t-122 73.5t-78 111.5t-28.5 152zM541 1622q0 132 107 201t343 69t343.5 -69t107.5 -201t-107.5 -201t-343.5 -69t-343 69t-107 201zM573 403q0 -53 53 -74.5t185 -21.5q173 0 537 62v94q-282 41 -490 41q-156 0 -220.5 -23t-64.5 -78zM786 1622q0 -106 205 -106 t205 106q0 107 -205 107t-205 -107z" />
<glyph unicode="&#xe6;" horiz-adv-x="3094" d="M82 346q0 67 23 122.5t63 96.5t97.5 73t123 52.5t144 33.5t155.5 18.5t162 5.5h375q0 46 -26 77.5t-73.5 47t-100 22t-120.5 6.5q-129 0 -258 -24.5t-305 -79.5l-139 307q162 72 351 108.5t368 36.5q358 0 561 -164q235 185 655 185q200 0 359 -45t275 -133.5 t178.5 -229.5t62.5 -325h-1272q24 -128 130.5 -179t303.5 -51q164 0 249 34t118 99h460q-31 -117 -94.5 -204.5t-165 -150t-248 -94.5t-337.5 -32q-489 0 -719 219q-269 -198 -766 -198q-133 0 -238 20t-185.5 62.5t-123.5 114.5t-43 169zM573 389q0 -49 42 -65.5t141 -16.5 q297 0 469 74v119h-326q-171 0 -248.5 -26.5t-77.5 -84.5zM1757 770h768q-39 103 -134 148t-253 45q-155 0 -249.5 -45t-131.5 -148z" />
<glyph unicode="&#xe7;" horiz-adv-x="1912" d="M82 614q0 323 225.5 489.5t650.5 166.5q384 0 606 -135.5t267 -407.5h-481q-65 174 -392 174q-202 0 -303.5 -69.5t-101.5 -217.5t101.5 -217t303.5 -69q327 0 392 174h481q-44 -261 -250 -396.5t-561 -146.5l-21 -80q70 25 158 25q98 0 155.5 -42t57.5 -120 q0 -62 -37.5 -107.5t-99.5 -71t-146.5 -37.5t-175 -10.5t-188.5 13.5v184q186 -29 273 -22.5t87 55.5q0 47 -63 47q-44 0 -88 -31l-141 43l30 158q-360 26 -549.5 190.5t-189.5 460.5z" />
<glyph unicode="&#xe8;" horiz-adv-x="1912" d="M82 614q0 212 112.5 361.5t307.5 222t454 72.5q200 0 359 -45t275 -133.5t178.5 -229.5t62.5 -325h-1272q24 -128 130.5 -179t303.5 -51q164 0 249 34t118 99h461q-31 -117 -94.5 -204.5t-165 -150t-248.5 -94.5t-338 -32q-422 0 -657.5 167.5t-235.5 487.5zM557 1550 v211l797 -164v-211zM575 770h768q-39 103 -134 148t-253 45q-155 0 -249.5 -45t-131.5 -148z" />
<glyph unicode="&#xe9;" horiz-adv-x="1912" d="M82 614q0 212 112.5 361.5t307.5 222t454 72.5q200 0 359 -45t275 -133.5t178.5 -229.5t62.5 -325h-1272q24 -128 130.5 -179t303.5 -51q164 0 249 34t118 99h461q-31 -117 -94.5 -204.5t-165 -150t-248.5 -94.5t-338 -32q-422 0 -657.5 167.5t-235.5 487.5zM557 1386 v211l797 164v-211zM575 770h768q-39 103 -134 148t-253 45q-155 0 -249.5 -45t-131.5 -148z" />
<glyph unicode="&#xea;" horiz-adv-x="1912" d="M82 614q0 212 112.5 361.5t307.5 222t454 72.5q200 0 359 -45t275 -133.5t178.5 -229.5t62.5 -325h-1272q24 -128 130.5 -179t303.5 -51q164 0 249 34t118 99h461q-31 -117 -94.5 -204.5t-165 -150t-248.5 -94.5t-338 -32q-422 0 -657.5 167.5t-235.5 487.5zM532 1378 v219l424 164l424 -164v-219l-424 164zM575 770h768q-39 103 -134 148t-253 45q-155 0 -249.5 -45t-131.5 -148z" />
<glyph unicode="&#xeb;" horiz-adv-x="1912" d="M82 614q0 212 112.5 361.5t307.5 222t454 72.5q200 0 359 -45t275 -133.5t178.5 -229.5t62.5 -325h-1272q24 -128 130.5 -179t303.5 -51q164 0 249 34t118 99h461q-31 -117 -94.5 -204.5t-165 -150t-248.5 -94.5t-338 -32q-422 0 -657.5 167.5t-235.5 487.5zM506 1434 v204h368v-204h-368zM575 770h768q-39 103 -134 148t-253 45q-155 0 -249.5 -45t-131.5 -148zM1038 1434v204h369v-204h-369z" />
<glyph unicode="&#xec;" horiz-adv-x="716" d="M-41 1550v211l797 -164v-211zM123 0v1229h471v-1229h-471z" />
<glyph unicode="&#xed;" horiz-adv-x="716" d="M-41 1386v211l797 164v-211zM123 0v1229h471v-1229h-471z" />
<glyph unicode="&#xee;" horiz-adv-x="716" d="M-66 1378v219l424 164l424 -164v-219l-424 164zM123 0v1229h471v-1229h-471z" />
<glyph unicode="&#xef;" horiz-adv-x="716" d="M-92 1434v204h368v-204h-368zM123 0v1229h471v-1229h-471zM440 1434v204h369v-204h-369z" />
<glyph unicode="&#xf1;" horiz-adv-x="2045" d="M123 0v1229h471v-287q124 157 292 242.5t412 85.5q625 0 625 -613v-657h-471v481q0 104 -19 176t-63.5 123.5t-119 76t-183.5 24.5q-229 0 -351 -100.5t-122 -299.5v-481h-471zM389 1352q0 72 9 134t32 121.5t59 101.5t94.5 67.5t133.5 25.5q85 0 168 -29t136.5 -63 t116 -63t111.5 -29q69 0 96 44t27 140h287q0 -72 -9 -134t-32 -121.5t-59 -101.5t-94.5 -67.5t-133.5 -25.5q-85 0 -168 29t-136.5 63t-116 63t-111.5 29q-69 0 -96 -44t-27 -140h-287z" />
<glyph unicode="&#xf2;" d="M82 614q0 312 222.5 484t653.5 172t654 -172.5t223 -483.5t-223 -483t-654 -172t-653.5 172t-222.5 483zM559 1550v211l797 -164v-211zM573 614q0 -149 94 -217.5t291 -68.5t291 68.5t94 217.5t-94 218t-291 69t-291 -69t-94 -218z" />
<glyph unicode="&#xf3;" d="M82 614q0 312 222.5 484t653.5 172t654 -172.5t223 -483.5t-223 -483t-654 -172t-653.5 172t-222.5 483zM559 1386v211l797 164v-211zM573 614q0 -149 94 -217.5t291 -68.5t291 68.5t94 217.5t-94 218t-291 69t-291 -69t-94 -218z" />
<glyph unicode="&#xf4;" d="M82 614q0 312 222.5 484t653.5 172t654 -172.5t223 -483.5t-223 -483t-654 -172t-653.5 172t-222.5 483zM535 1378v219l423 164l424 -164v-219l-424 164zM573 614q0 -149 94 -217.5t291 -68.5t291 68.5t94 217.5t-94 218t-291 69t-291 -69t-94 -218z" />
<glyph unicode="&#xf5;" d="M82 614q0 312 222.5 484t653.5 172t654 -172.5t223 -483.5t-223 -483t-654 -172t-653.5 172t-222.5 483zM324 1352q0 72 9 133.5t31.5 121.5t58.5 102t94.5 67.5t133.5 25.5q85 0 168 -29t137 -63t116.5 -63t111.5 -29q69 0 96 44t27 140h286q0 -72 -9 -133.5 t-31.5 -121.5t-58.5 -102t-94.5 -67.5t-133.5 -25.5q-85 0 -168 29t-137 63t-116.5 63t-111.5 29q-69 0 -96 -44t-27 -140h-286zM573 614q0 -149 94 -217.5t291 -68.5t291 68.5t94 217.5t-94 218t-291 69t-291 -69t-94 -218z" />
<glyph unicode="&#xf6;" d="M82 614q0 312 222.5 484t653.5 172t654 -172.5t223 -483.5t-223 -483t-654 -172t-653.5 172t-222.5 483zM508 1434v204h369v-204h-369zM573 614q0 -149 94 -217.5t291 -68.5t291 68.5t94 217.5t-94 218t-291 69t-291 -69t-94 -218zM1040 1434v204h369v-204h-369z" />
<glyph unicode="&#xf7;" horiz-adv-x="1884" d="M123 485v349h1638v-349h-1638zM745 0v295h394v-295h-394zM745 1024v295h394v-295h-394z" />
<glyph unicode="&#xf8;" d="M82 614q0 312 222.5 484t653.5 172h17l57 235h279l-62 -260q289 -54 437.5 -216t148.5 -415q0 -311 -223 -483t-654 -172h-16l-57 -235h-279l62 260q-289 54 -437.5 215.5t-148.5 414.5zM573 614q0 -204 183 -262l131 547q-160 -12 -237 -81t-77 -204zM1030 330 q160 12 236.5 80.5t76.5 203.5q0 205 -182 263z" />
<glyph unicode="&#xf9;" horiz-adv-x="2045" d="M123 571v658h471v-481q0 -104 19 -176t63.5 -123.5t119 -76t183.5 -24.5q229 0 351 100.5t122 299.5v481h471v-1229h-471v287q-124 -157 -292 -242.5t-412 -85.5q-625 0 -625 612zM625 1550v211l796 -164v-211z" />
<glyph unicode="&#xfa;" horiz-adv-x="2045" d="M123 571v658h471v-481q0 -104 19 -176t63.5 -123.5t119 -76t183.5 -24.5q229 0 351 100.5t122 299.5v481h471v-1229h-471v287q-124 -157 -292 -242.5t-412 -85.5q-625 0 -625 612zM625 1386v211l796 164v-211z" />
<glyph unicode="&#xfb;" horiz-adv-x="2045" d="M123 571v658h471v-481q0 -104 19 -176t63.5 -123.5t119 -76t183.5 -24.5q229 0 351 100.5t122 299.5v481h471v-1229h-471v287q-124 -157 -292 -242.5t-412 -85.5q-625 0 -625 612zM600 1378v219l424 164l424 -164v-219l-424 164z" />
<glyph unicode="&#xfc;" horiz-adv-x="2045" d="M123 571v658h471v-481q0 -104 19 -176t63.5 -123.5t119 -76t183.5 -24.5q229 0 351 100.5t122 299.5v481h471v-1229h-471v287q-124 -157 -292 -242.5t-412 -85.5q-625 0 -625 612zM573 1434v204h369v-204h-369zM1106 1434v204h369v-204h-369z" />
<glyph unicode="&#xfd;" horiz-adv-x="2025" d="M82 1229h477l463 -967l465 967h477l-578 -1198q-54 -113 -106.5 -196t-118 -155t-139 -117t-167.5 -70t-206 -25q-216 0 -465 71v359q275 -62 396 -62q53 0 85.5 2.5t67 11.5t58.5 27t49 47.5t51 75.5h-221zM606 1386v211l797 164v-211z" />
<glyph unicode="&#xfe;" d="M123 -328v1966h491v-606q91 105 231.5 161t317.5 56q88 0 164.5 -13t149 -41t129 -77.5t99.5 -118t66 -166.5t23 -219q0 -634 -631 -634q-177 0 -317.5 56t-231.5 161v-525h-491zM614 614q0 -128 84 -176.5t260 -48.5t260.5 48.5t84.5 176.5t-84.5 177t-260.5 49 t-260 -49t-84 -177z" />
<glyph unicode="&#xff;" horiz-adv-x="2025" d="M82 1229h477l463 -967l465 967h477l-578 -1198q-54 -113 -106.5 -196t-118 -155t-139 -117t-167.5 -70t-206 -25q-216 0 -465 71v359q275 -62 396 -62q53 0 85.5 2.5t67 11.5t58.5 27t49 47.5t51 75.5h-221zM555 1434v204h369v-204h-369zM1087 1434v204h369v-204h-369z " />
<glyph unicode="&#x152;" horiz-adv-x="3444" d="M102 739q0 372 252 574.5t711 202.5q490 0 741 -230v189h1516v-390h-1004v-153h963v-389h-963v-154h1004v-389h-1516v190q-249 -231 -741 -231q-459 0 -711 203t-252 577zM635 739q0 -77 21 -137.5t68 -110t133.5 -76t207.5 -26.5q430 0 430 350q0 346 -430 346 q-98 0 -173.5 -17.5t-123.5 -48t-78.5 -75.5t-42.5 -94.5t-12 -110.5z" />
<glyph unicode="&#x153;" horiz-adv-x="3317" d="M82 614q0 312 222.5 484t653.5 172q484 0 709 -219q115 108 293 163.5t401 55.5q200 0 359 -45t275 -133.5t178.5 -229.5t62.5 -325h-1272q24 -128 130.5 -179t303.5 -51q164 0 249 34t118 99h461q-31 -117 -94.5 -204.5t-165 -150t-248.5 -94.5t-338 -32 q-485 0 -717 215q-224 -215 -705 -215q-431 0 -653.5 172t-222.5 483zM573 614q0 -149 94 -217.5t291 -68.5t291 68.5t94 217.5t-94 218t-291 69t-291 -69t-94 -218zM1980 770h768q-39 103 -134 148t-253 45q-155 0 -249.5 -45t-131.5 -148z" />
<glyph unicode="&#x178;" horiz-adv-x="2301" d="M102 1475h635l414 -553l414 553h635l-793 -983v-492h-512v492zM700 1679v205h369v-205h-369zM1233 1679v205h369v-205h-369z" />
<glyph unicode="&#x2c6;" horiz-adv-x="1093" d="M123 1378v219l424 164l424 -164v-219l-424 164z" />
<glyph unicode="&#x2dc;" horiz-adv-x="1515" d="M123 1352q0 72 9 134t32 121.5t59 101.5t94.5 67.5t133.5 25.5q85 0 168 -29t136.5 -63t116 -63t111.5 -29q69 0 96 44t27 140h287q0 -72 -9 -134t-32 -121.5t-59 -101.5t-94.5 -67.5t-133.5 -25.5q-85 0 -168 29t-137 63t-116.5 63t-111.5 29q-69 0 -95.5 -43.5 t-26.5 -140.5h-287z" />
<glyph unicode="&#x2000;" horiz-adv-x="1069" />
<glyph unicode="&#x2001;" horiz-adv-x="2138" />
<glyph unicode="&#x2002;" horiz-adv-x="1069" />
<glyph unicode="&#x2003;" horiz-adv-x="2138" />
<glyph unicode="&#x2004;" horiz-adv-x="712" />
<glyph unicode="&#x2005;" horiz-adv-x="534" />
<glyph unicode="&#x2006;" horiz-adv-x="356" />
<glyph unicode="&#x2007;" horiz-adv-x="356" />
<glyph unicode="&#x2008;" horiz-adv-x="267" />
<glyph unicode="&#x2009;" horiz-adv-x="427" />
<glyph unicode="&#x200a;" horiz-adv-x="118" />
<glyph unicode="&#x2010;" horiz-adv-x="1966" d="M164 522v348h1638v-348h-1638z" />
<glyph unicode="&#x2011;" horiz-adv-x="1966" d="M164 522v348h1638v-348h-1638z" />
<glyph unicode="&#x2012;" horiz-adv-x="1966" d="M164 522v348h1638v-348h-1638z" />
<glyph unicode="&#x2013;" horiz-adv-x="2375" d="M164 522v348h2048v-348h-2048z" />
<glyph unicode="&#x2014;" horiz-adv-x="2785" d="M164 522v348h2457v-348h-2457z" />
<glyph unicode="&#x2018;" horiz-adv-x="819" d="M143 819l144 778h409l-82 -778h-471z" />
<glyph unicode="&#x2019;" horiz-adv-x="798" d="M123 819l82 778h471l-144 -778h-409z" />
<glyph unicode="&#x201a;" horiz-adv-x="737" d="M123 0v369h491v-369l-231 -451h-219l139 451h-180z" />
<glyph unicode="&#x201c;" horiz-adv-x="1454" d="M143 819l144 778h409l-82 -778h-471zM778 819l144 778h409l-82 -778h-471z" />
<glyph unicode="&#x201d;" horiz-adv-x="1454" d="M123 819l82 778h471l-144 -778h-409zM758 819l82 778h471l-144 -778h-409z" />
<glyph unicode="&#x201e;" horiz-adv-x="1372" d="M123 0v369h491v-369l-231 -451h-219l139 451h-180zM758 0v369h491v-369l-231 -451h-219l139 451h-180z" />
<glyph unicode="&#x2022;" horiz-adv-x="1091" d="M123 657q0 154 103.5 226.5t320.5 72.5q216 0 319 -73t103 -226q0 -155 -103 -228t-319 -73q-217 0 -320.5 73t-103.5 228z" />
<glyph unicode="&#x2026;" horiz-adv-x="1966" d="M123 0v369h491v-369h-491zM737 0v369h492v-369h-492zM1352 0v369h491v-369h-491z" />
<glyph unicode="&#x202f;" horiz-adv-x="427" />
<glyph unicode="&#x2039;" horiz-adv-x="1347" d="M123 614l532 615h570l-533 -615l533 -614h-570z" />
<glyph unicode="&#x203a;" horiz-adv-x="1347" d="M123 0l532 614l-532 615h569l533 -615l-533 -614h-569z" />
<glyph unicode="&#x205f;" horiz-adv-x="534" />
<glyph unicode="&#x20ac;" horiz-adv-x="1720" d="M123 565v123h164v31q0 49 2 72h-166v122h178q20 137 72 245t138 189.5t214 125t291 43.5q155 0 283.5 -18t297.5 -64v-410q-164 49 -249.5 65.5t-194.5 16.5q-130 0 -205 -47t-104 -146h516v-122h-539q-2 -23 -2 -72v-31h541v-123h-522q57 -196 315 -196 q109 0 194.5 16.5t249.5 65.5v-410q-169 -46 -297.5 -64t-283.5 -18q-168 0 -299 44t-217 125.5t-136.5 190t-68.5 246.5h-172z" />
<glyph unicode="&#x2122;" horiz-adv-x="2314" d="M123 1270v164h846v-164h-336l-2 -506h-170v506h-338zM1067 764v670h272l289 -510l291 510h272l-2 -670h-170v506l-288 -506h-205l-287 506v-506h-172z" />
<glyph unicode="&#x25fc;" horiz-adv-x="1228" d="M0 0v1229h1229v-1229h-1229z" />
<glyph unicode="&#xfb01;" horiz-adv-x="1957" d="M82 881v348h289v47q0 186 132.5 274t416.5 88h915v-286h-791q-115 0 -157 -25t-45 -98h993v-1229h-471v881h-522v-881h-471v881h-289z" />
<glyph unicode="&#xfb02;" horiz-adv-x="1957" d="M82 881v348h289v47q0 186 132.5 274t416.5 88h915v-1638h-471v1352h-320q-115 0 -157 -25t-45 -98h317v-348h-317v-881h-471v881h-289z" />
<glyph unicode="&#xfb03;" horiz-adv-x="2951" d="M82 881v348h289v47q0 186 132.5 274t416.5 88h360v-286h-236q-115 0 -157 -25t-45 -98h522v47q0 186 132.5 274t416.5 88h915v-286h-790q-115 0 -157.5 -25t-45.5 -98h993v-1229h-471v881h-522v-881h-471v881h-522v-881h-471v881h-289z" />
</font>
</defs>
</svg>
