<?xml version="1.0" encoding="utf-8"?>
<!-- Generator: Adobe Illustrator 24.1.2, SVG Export Plug-In . SVG Version: 6.00 Build 0)  -->
<svg version="1.1" id="Calque_1" xmlns="http://www.w3.org/2000/svg" xmlns:xlink="http://www.w3.org/1999/xlink" x="0px" y="0px"
	 viewBox="0 0 440 100" style="enable-background:new 0 0 440 100;" xml:space="preserve">
<style type="text/css">
	.st0{fill:#FF8666;}
</style>
<g>
	<path class="st0" d="M59.5,85.7h-11V37.5l-7.2,48.2H34l-6.5-48.2v48.2h-9.9V14.3h17.1l4,33.5L43,14.3h16.4V85.7z"/>
	<path class="st0" d="M65.9,85.7V14.3h11v71.4H65.9z"/>
	<path class="st0" d="M95.6,75.4c1.2,0,2.1-1,2.1-2.1V58.8h10.5v14.6c0,7.2-5.4,13.1-12.7,13.1S83,80.7,83,73.5v-47
		c0-7.2,5.4-13.1,12.7-13.1s12.7,5.9,12.7,13.1v14.6H97.8V26.8c0-1.2-1-2.1-2.1-2.1c-1.2,0-2.1,1-2.1,2.1v46.4
		C93.5,74.4,94.5,75.4,95.6,75.4z"/>
	<path class="st0" d="M128,14.3c5.3,0,11.8,3,11.8,12.1v17.3c0,3.4-1.9,5.5-4.7,7.4c2.9,1.9,4.9,4,4.9,7.4v15.2
		c0,4.6,0.7,8.5,1.4,12h-10.8c-0.8-3.1-1.3-7.3-1.3-11.1V58.8c0-1.6-0.8-2.9-2.3-2.9h-1.4v29.8h-11V14.3H128z M127.1,46
		c1.2,0,1.9-0.8,1.9-2.9V28c0-2.1-0.7-2.9-1.9-2.9h-1.6V46H127.1z"/>
	<path class="st0" d="M158.9,86.6c-7.2,0-13.1-5.9-13.1-13.1v-47c0-7.2,5.9-13.1,13.1-13.1c7.2,0,13.1,5.9,13.1,13.1v47
		C172.1,80.7,166.2,86.6,158.9,86.6z M158.9,24.6c-1.2,0-2.1,1-2.1,2.1v46.4c0,1.2,1,2.1,2.1,2.1c1.2,0,2.1-1,2.1-2.1V26.8
		C161.1,25.6,160.1,24.6,158.9,24.6z"/>
	<path class="st0" d="M201.5,40.2v45.5h-22V14.3h39.3l8.9,31.3l9-31.3h40.3v71.4h-28.2V40.2l-12.1,45.5h-21.5L201.5,40.2z"/>
	<path class="st0" d="M300.6,85.7h-23.5l26.5-71.4H332l26.9,71.4h-29.3l-3-9.3h-22.9L300.6,85.7z M314.8,42l-6.1,18.9h12.5L314.8,42
		z"/>
	<path class="st0" d="M414.2,85.7l-4.5-9c-4.1,6.4-12.9,10.8-21.9,10.8c-20.4,0-37.1-16.8-37.1-37.5s16.6-37.5,37.1-37.5
		c18.4,0,34.6,13.5,34.6,31.6h-23.2c0-5.4-4-9.6-9.2-9.6c-6.6,0-10.8,5.5-10.8,15.5c0,9.9,4.9,15.5,10.7,15.5c5.4,0,8.2-3.8,9-8.1
		h-8v-8.1h31.5v36.4H414.2z"/>
</g>
</svg>
